<?xml version="1.0" encoding="utf-8"?>
<!-- Generator: Adobe Illustrator 22.0.1, SVG Export Plug-In . SVG Version: 6.00 Build 0)  -->
<svg version="1.1" id="Calque_1" xmlns="http://www.w3.org/2000/svg" xmlns:xlink="http://www.w3.org/1999/xlink" x="0px" y="0px"
	 width="146.693px" height="181.39px" viewBox="0 0 146.693 181.39" enable-background="new 0 0 146.693 181.39"
	 xml:space="preserve">
<g id="Calque_1_1_" display="none">
	<rect x="-6208.771" y="-2868" display="inline" width="14640" height="9504"/>
</g>
<g id="INFOS_x24_A4" display="none">
	<g id="POLYLINE_2480_" display="inline">
		<rect x="-226.167" y="-330" fill="none" width="595.276" height="841.89"/>
	</g>
</g>
<g id="PLAN_x24_FOND">
</g>
<g id="PLAN_x24_POINTILLE">
	<g id="POLYLINE_368_">
		
			<line fill="none" stroke="#FFFFFF" stroke-width="0.1" stroke-linecap="square" stroke-miterlimit="10" stroke-dasharray="0.5,0.5" x1="63.813" y1="3.668" x2="67.259" y2="11.298"/>
	</g>
	<g id="POLYLINE_367_">
		
			<line fill="none" stroke="#FFFFFF" stroke-width="0.1" stroke-linecap="square" stroke-miterlimit="10" stroke-dasharray="0.5,0.5" x1="67.259" y1="11.298" x2="67.259" y2="3.668"/>
	</g>
	<g id="POLYLINE_366_">
		
			<line fill="none" stroke="#FFFFFF" stroke-width="0.1" stroke-linecap="square" stroke-miterlimit="10" stroke-dasharray="0.5,0.5" x1="65.536" y1="3.668" x2="65.536" y2="7.483"/>
	</g>
	<g id="POLYLINE_365_">
		
			<line fill="none" stroke="#FFFFFF" stroke-width="0.1" stroke-linecap="square" stroke-miterlimit="10" stroke-dasharray="0.5,0.5" x1="81.042" y1="3.668" x2="81.042" y2="11.298"/>
	</g>
	<g id="POLYLINE_364_">
		
			<line fill="none" stroke="#FFFFFF" stroke-width="0.1" stroke-linecap="square" stroke-miterlimit="10" stroke-dasharray="0.5,0.5" x1="79.319" y1="3.668" x2="79.319" y2="11.298"/>
	</g>
	<g id="POLYLINE_363_">
		
			<line fill="none" stroke="#FFFFFF" stroke-width="0.1" stroke-linecap="square" stroke-miterlimit="10" stroke-dasharray="0.5,0.5" x1="77.596" y1="3.668" x2="77.596" y2="11.298"/>
	</g>
	<g id="POLYLINE_362_">
		
			<line fill="none" stroke="#FFFFFF" stroke-width="0.1" stroke-linecap="square" stroke-miterlimit="10" stroke-dasharray="0.5,0.5" x1="75.873" y1="3.668" x2="75.873" y2="11.298"/>
	</g>
	<g id="POLYLINE_361_">
		
			<line fill="none" stroke="#FFFFFF" stroke-width="0.1" stroke-linecap="square" stroke-miterlimit="10" stroke-dasharray="0.5,0.5" x1="74.151" y1="3.668" x2="74.151" y2="11.298"/>
	</g>
	<g id="POLYLINE_360_">
		
			<line fill="none" stroke="#FFFFFF" stroke-width="0.1" stroke-linecap="square" stroke-miterlimit="10" stroke-dasharray="0.5,0.5" x1="72.428" y1="3.668" x2="72.428" y2="11.298"/>
	</g>
	<g id="POLYLINE_359_">
		
			<line fill="none" stroke="#FFFFFF" stroke-width="0.1" stroke-linecap="square" stroke-miterlimit="10" stroke-dasharray="0.5,0.5" x1="70.705" y1="3.668" x2="70.705" y2="11.298"/>
	</g>
	<g id="POLYLINE_358_">
		
			<line fill="none" stroke="#FFFFFF" stroke-width="0.1" stroke-linecap="square" stroke-miterlimit="10" stroke-dasharray="0.5,0.5" x1="68.982" y1="3.668" x2="68.982" y2="11.298"/>
	</g>
</g>
<g id="PLAN_x24_VITRAGE">
	<g id="LINE_327_">
		
			<line fill="none" stroke="#FFFFFF" stroke-width="0.05" stroke-linecap="square" stroke-miterlimit="10" x1="35.136" y1="176.99" x2="47.861" y2="176.99"/>
	</g>
	<g id="LINE_328_">
		
			<line fill="none" stroke="#FFFFFF" stroke-width="0.05" stroke-linecap="square" stroke-miterlimit="10" x1="21.92" y1="176.99" x2="34.645" y2="176.99"/>
	</g>
	<g id="LINE_329_">
		
			<line fill="none" stroke="#FFFFFF" stroke-width="0.05" stroke-linecap="square" stroke-miterlimit="10" x1="8.704" y1="176.99" x2="21.429" y2="176.99"/>
	</g>
	<g id="LINE_330_">
		
			<line fill="none" stroke="#FFFFFF" stroke-width="0.05" stroke-linecap="square" stroke-miterlimit="10" x1="54.062" y1="176.99" x2="66.787" y2="176.99"/>
	</g>
	<g id="LINE_331_">
		
			<line fill="none" stroke="#FFFFFF" stroke-width="0.05" stroke-linecap="square" stroke-miterlimit="10" x1="67.278" y1="176.99" x2="80.003" y2="176.99"/>
	</g>
	<g id="LINE_332_">
		
			<line fill="none" stroke="#FFFFFF" stroke-width="0.05" stroke-linecap="square" stroke-miterlimit="10" x1="80.494" y1="176.99" x2="93.22" y2="176.99"/>
	</g>
	<g id="LINE_333_">
		
			<line fill="none" stroke="#FFFFFF" stroke-width="0.05" stroke-linecap="square" stroke-miterlimit="10" x1="99.971" y1="176.99" x2="112.697" y2="176.99"/>
	</g>
	<g id="LINE_334_">
		
			<line fill="none" stroke="#FFFFFF" stroke-width="0.05" stroke-linecap="square" stroke-miterlimit="10" x1="113.188" y1="176.99" x2="125.913" y2="176.99"/>
	</g>
	<g id="LINE_335_">
		
			<line fill="none" stroke="#FFFFFF" stroke-width="0.05" stroke-linecap="square" stroke-miterlimit="10" x1="126.404" y1="176.99" x2="139.129" y2="176.99"/>
	</g>
	<g id="LINE_336_">
		
			<line fill="none" stroke="#FFFFFF" stroke-width="0.05" stroke-linecap="square" stroke-miterlimit="10" x1="143.612" y1="160.171" x2="143.612" y2="171.973"/>
	</g>
	<g id="LINE_337_">
		
			<line fill="none" stroke="#FFFFFF" stroke-width="0.05" stroke-linecap="square" stroke-miterlimit="10" x1="143.612" y1="136.153" x2="143.612" y2="147.387"/>
	</g>
	<g id="LINE_338_">
		
			<line fill="none" stroke="#FFFFFF" stroke-width="0.05" stroke-linecap="square" stroke-miterlimit="10" x1="143.612" y1="147.878" x2="143.612" y2="159.68"/>
	</g>
	<g id="LINE_339_">
		
			<line fill="none" stroke="#FFFFFF" stroke-width="0.05" stroke-linecap="square" stroke-miterlimit="10" x1="143.612" y1="117.61" x2="143.612" y2="129.412"/>
	</g>
	<g id="LINE_340_">
		
			<line fill="none" stroke="#FFFFFF" stroke-width="0.05" stroke-linecap="square" stroke-miterlimit="10" x1="143.612" y1="105.318" x2="143.612" y2="117.119"/>
	</g>
	<g id="LINE_341_">
		
			<line fill="none" stroke="#FFFFFF" stroke-width="0.05" stroke-linecap="square" stroke-miterlimit="10" x1="143.612" y1="93.025" x2="143.612" y2="104.827"/>
	</g>
	<g id="LINE_342_">
		
			<line fill="none" stroke="#FFFFFF" stroke-width="0.05" stroke-linecap="square" stroke-miterlimit="10" x1="143.612" y1="75.004" x2="143.612" y2="86.806"/>
	</g>
	<g id="LINE_343_">
		
			<line fill="none" stroke="#FFFFFF" stroke-width="0.05" stroke-linecap="square" stroke-miterlimit="10" x1="143.612" y1="62.712" x2="143.612" y2="74.513"/>
	</g>
	<g id="LINE_344_">
		
			<line fill="none" stroke="#FFFFFF" stroke-width="0.05" stroke-linecap="square" stroke-miterlimit="10" x1="143.612" y1="50.419" x2="143.612" y2="62.221"/>
	</g>
	<g id="LINE_345_">
		
			<line fill="none" stroke="#FFFFFF" stroke-width="0.05" stroke-linecap="square" stroke-miterlimit="10" x1="143.612" y1="32.184" x2="143.612" y2="43.986"/>
	</g>
	<g id="LINE_346_">
		
			<line fill="none" stroke="#FFFFFF" stroke-width="0.05" stroke-linecap="square" stroke-miterlimit="10" x1="143.612" y1="19.891" x2="143.612" y2="31.693"/>
	</g>
	<g id="LINE_347_">
		
			<line fill="none" stroke="#FFFFFF" stroke-width="0.05" stroke-linecap="square" stroke-miterlimit="10" x1="143.612" y1="7.598" x2="143.612" y2="19.4"/>
	</g>
	<g id="LINE_348_">
		
			<line fill="none" stroke="#FFFFFF" stroke-width="0.05" stroke-linecap="square" stroke-miterlimit="10" x1="3.37" y1="136.063" x2="3.37" y2="147.333"/>
	</g>
	<g id="LINE_349_">
		
			<line fill="none" stroke="#FFFFFF" stroke-width="0.05" stroke-linecap="square" stroke-miterlimit="10" x1="3.37" y1="118.122" x2="3.37" y2="129.392"/>
	</g>
	<g id="LINE_350_">
		
			<line fill="none" stroke="#FFFFFF" stroke-width="0.05" stroke-linecap="square" stroke-miterlimit="10" x1="3.37" y1="93.164" x2="3.37" y2="104.434"/>
	</g>
	<g id="LINE_351_">
		
			<line fill="none" stroke="#FFFFFF" stroke-width="0.05" stroke-linecap="square" stroke-miterlimit="10" x1="3.37" y1="75.638" x2="3.37" y2="86.907"/>
	</g>
	<g id="LINE_352_">
		
			<line fill="none" stroke="#FFFFFF" stroke-width="0.05" stroke-linecap="square" stroke-miterlimit="10" x1="3.37" y1="50.611" x2="3.37" y2="61.881"/>
	</g>
	<g id="LINE_353_">
		
			<line fill="none" stroke="#FFFFFF" stroke-width="0.05" stroke-linecap="square" stroke-miterlimit="10" x1="3.37" y1="34.76" x2="3.37" y2="46.03"/>
	</g>
	<g id="LINE_354_">
		
			<line fill="none" stroke="#FFFFFF" stroke-width="0.05" stroke-linecap="square" stroke-miterlimit="10" x1="3.37" y1="20.537" x2="3.37" y2="31.807"/>
	</g>
</g>
<g id="PLAN_x24_MOBILIER">
</g>
<g id="PLAN_x24_DETAIL">
	<g id="POLYLINE_294_">
		
			<line fill="none" stroke="#FFFFFF" stroke-width="0.08" stroke-linecap="square" stroke-miterlimit="10" x1="13.418" y1="161.153" x2="5.048" y2="171.291"/>
	</g>
	<g id="POLYLINE_293_">
		
			<line fill="none" stroke="#FFFFFF" stroke-width="0.08" stroke-linecap="square" stroke-miterlimit="10" x1="13.418" y1="171.291" x2="5.048" y2="161.153"/>
	</g>
	<g id="POLYLINE_292_">
		
			<rect x="5.048" y="161.153" fill="none" stroke="#FFFFFF" stroke-width="0.08" stroke-linecap="square" stroke-miterlimit="10" width="8.369" height="10.138"/>
	</g>
	<g id="POLYLINE_291_">
		
			<line fill="none" stroke="#FFFFFF" stroke-width="0.08" stroke-linecap="square" stroke-miterlimit="10" x1="145.03" y1="19.016" x2="145.03" y2="7.983"/>
	</g>
	<g id="POLYLINE_290_">
		
			<line fill="none" stroke="#FFFFFF" stroke-width="0.08" stroke-linecap="square" stroke-miterlimit="10" x1="139.778" y1="5.709" x2="127.531" y2="17.888"/>
	</g>
	<g id="POLYLINE_289_">
		
			<line fill="none" stroke="#FFFFFF" stroke-width="0.08" stroke-linecap="square" stroke-miterlimit="10" x1="127.531" y1="5.709" x2="139.778" y2="17.888"/>
	</g>
	<g id="POLYLINE_288_">
		
			<rect x="127.531" y="5.709" fill="none" stroke="#FFFFFF" stroke-width="0.08" stroke-linecap="square" stroke-miterlimit="10" width="12.247" height="12.179"/>
	</g>
	<g id="POLYLINE_287_">
		
			<line fill="none" stroke="#FFFFFF" stroke-width="0.08" stroke-linecap="square" stroke-miterlimit="10" x1="145.03" y1="20.275" x2="145.03" y2="31.308"/>
	</g>
	<g id="POLYLINE_286_">
		
			<line fill="none" stroke="#FFFFFF" stroke-width="0.08" stroke-linecap="square" stroke-miterlimit="10" x1="145.03" y1="43.601" x2="145.03" y2="32.568"/>
	</g>
	<g id="POLYLINE_285_">
		
			<line fill="none" stroke="#FFFFFF" stroke-width="0.08" stroke-linecap="square" stroke-miterlimit="10" x1="145.03" y1="50.803" x2="145.03" y2="61.836"/>
	</g>
	<g id="POLYLINE_284_">
		
			<line fill="none" stroke="#FFFFFF" stroke-width="0.08" stroke-linecap="square" stroke-miterlimit="10" x1="145.03" y1="74.129" x2="145.03" y2="63.096"/>
	</g>
	<g id="POLYLINE_283_">
		
			<line fill="none" stroke="#FFFFFF" stroke-width="0.08" stroke-linecap="square" stroke-miterlimit="10" x1="145.03" y1="86.422" x2="145.03" y2="75.389"/>
	</g>
	<g id="POLYLINE_282_">
		
			<line fill="none" stroke="#FFFFFF" stroke-width="0.08" stroke-linecap="square" stroke-miterlimit="10" x1="145.03" y1="104.442" x2="145.03" y2="93.409"/>
	</g>
	<g id="POLYLINE_281_">
		
			<line fill="none" stroke="#FFFFFF" stroke-width="0.08" stroke-linecap="square" stroke-miterlimit="10" x1="145.03" y1="116.735" x2="145.03" y2="105.702"/>
	</g>
	<g id="POLYLINE_280_">
		
			<line fill="none" stroke="#FFFFFF" stroke-width="0.08" stroke-linecap="square" stroke-miterlimit="10" x1="145.03" y1="129.028" x2="145.03" y2="117.995"/>
	</g>
	<g id="POLYLINE_279_">
		
			<line fill="none" stroke="#FFFFFF" stroke-width="0.08" stroke-linecap="square" stroke-miterlimit="10" x1="145.03" y1="147.003" x2="145.03" y2="135.97"/>
	</g>
	<g id="POLYLINE_278_">
		
			<line fill="none" stroke="#FFFFFF" stroke-width="0.08" stroke-linecap="square" stroke-miterlimit="10" x1="145.03" y1="159.296" x2="145.03" y2="148.263"/>
	</g>
	<g id="POLYLINE_277_">
		
			<line fill="none" stroke="#FFFFFF" stroke-width="0.08" stroke-linecap="square" stroke-miterlimit="10" x1="145.03" y1="171.588" x2="145.03" y2="160.555"/>
	</g>
	<g id="POLYLINE_276_">
		
			<line fill="none" stroke="#FFFFFF" stroke-width="0.08" stroke-linecap="square" stroke-miterlimit="10" x1="126.788" y1="178.408" x2="138.745" y2="178.408"/>
	</g>
	<g id="POLYLINE_275_">
		
			<line fill="none" stroke="#FFFFFF" stroke-width="0.08" stroke-linecap="square" stroke-miterlimit="10" x1="113.572" y1="178.408" x2="125.529" y2="178.408"/>
	</g>
	<g id="POLYLINE_274_">
		
			<line fill="none" stroke="#FFFFFF" stroke-width="0.08" stroke-linecap="square" stroke-miterlimit="10" x1="100.356" y1="178.408" x2="112.312" y2="178.408"/>
	</g>
	<g id="POLYLINE_273_">
		
			<line fill="none" stroke="#FFFFFF" stroke-width="0.08" stroke-linecap="square" stroke-miterlimit="10" x1="80.879" y1="178.408" x2="92.835" y2="178.408"/>
	</g>
	<g id="POLYLINE_272_">
		
			<line fill="none" stroke="#FFFFFF" stroke-width="0.08" stroke-linecap="square" stroke-miterlimit="10" x1="67.663" y1="178.408" x2="79.619" y2="178.408"/>
	</g>
	<g id="POLYLINE_271_">
		
			<line fill="none" stroke="#FFFFFF" stroke-width="0.08" stroke-linecap="square" stroke-miterlimit="10" x1="54.446" y1="178.408" x2="66.403" y2="178.408"/>
	</g>
	<g id="POLYLINE_270_">
		
			<line fill="none" stroke="#FFFFFF" stroke-width="0.08" stroke-linecap="square" stroke-miterlimit="10" x1="35.52" y1="178.408" x2="47.477" y2="178.408"/>
	</g>
	<g id="POLYLINE_269_">
		
			<line fill="none" stroke="#FFFFFF" stroke-width="0.08" stroke-linecap="square" stroke-miterlimit="10" x1="22.304" y1="178.408" x2="34.261" y2="178.408"/>
	</g>
	<g id="POLYLINE_268_">
		
			<line fill="none" stroke="#FFFFFF" stroke-width="0.08" stroke-linecap="square" stroke-miterlimit="10" x1="9.088" y1="178.408" x2="21.045" y2="178.408"/>
	</g>
	<g id="POLYLINE_264_">
		
			<line fill="none" stroke="#FFFFFF" stroke-width="0.08" stroke-linecap="square" stroke-miterlimit="10" x1="1.952" y1="136.448" x2="1.952" y2="146.949"/>
	</g>
	<g id="POLYLINE_263_">
		
			<line fill="none" stroke="#FFFFFF" stroke-width="0.08" stroke-linecap="square" stroke-miterlimit="10" x1="1.952" y1="118.507" x2="1.952" y2="129.008"/>
	</g>
	<g id="POLYLINE_262_">
		
			<line fill="none" stroke="#FFFFFF" stroke-width="0.08" stroke-linecap="square" stroke-miterlimit="10" x1="1.952" y1="93.548" x2="1.952" y2="104.049"/>
	</g>
	<g id="POLYLINE_261_">
		
			<line fill="none" stroke="#FFFFFF" stroke-width="0.08" stroke-linecap="square" stroke-miterlimit="10" x1="1.952" y1="76.022" x2="1.952" y2="86.523"/>
	</g>
	<g id="POLYLINE_260_">
		
			<line fill="none" stroke="#FFFFFF" stroke-width="0.08" stroke-linecap="square" stroke-miterlimit="10" x1="1.952" y1="50.995" x2="1.952" y2="61.496"/>
	</g>
	<g id="POLYLINE_259_">
		
			<line fill="none" stroke="#FFFFFF" stroke-width="0.08" stroke-linecap="square" stroke-miterlimit="10" x1="1.952" y1="35.144" x2="1.952" y2="45.645"/>
	</g>
	<g id="POLYLINE_258_">
		
			<line fill="none" stroke="#FFFFFF" stroke-width="0.08" stroke-linecap="square" stroke-miterlimit="10" x1="1.952" y1="20.922" x2="1.952" y2="31.423"/>
	</g>
	<g id="POLYLINE_257_">
		
			<line fill="none" stroke="#FFFFFF" stroke-width="0.08" stroke-linecap="square" stroke-miterlimit="10" x1="4.221" y1="31.807" x2="4.221" y2="20.537"/>
	</g>
	<g id="POLYLINE_256_">
		
			<line fill="none" stroke="#FFFFFF" stroke-width="0.08" stroke-linecap="square" stroke-miterlimit="10" x1="4.221" y1="46.03" x2="4.221" y2="34.76"/>
	</g>
	<g id="POLYLINE_255_">
		
			<line fill="none" stroke="#FFFFFF" stroke-width="0.08" stroke-linecap="square" stroke-miterlimit="10" x1="4.221" y1="61.881" x2="4.221" y2="50.611"/>
	</g>
	<g id="POLYLINE_254_">
		
			<line fill="none" stroke="#FFFFFF" stroke-width="0.08" stroke-linecap="square" stroke-miterlimit="10" x1="4.221" y1="86.907" x2="4.221" y2="75.638"/>
	</g>
	<g id="POLYLINE_253_">
		
			<line fill="none" stroke="#FFFFFF" stroke-width="0.08" stroke-linecap="square" stroke-miterlimit="10" x1="4.221" y1="104.434" x2="4.221" y2="93.164"/>
	</g>
	<g id="POLYLINE_252_">
		
			<line fill="none" stroke="#FFFFFF" stroke-width="0.08" stroke-linecap="square" stroke-miterlimit="10" x1="4.221" y1="129.392" x2="4.221" y2="118.122"/>
	</g>
	<g id="POLYLINE_251_">
		
			<line fill="none" stroke="#FFFFFF" stroke-width="0.08" stroke-linecap="square" stroke-miterlimit="10" x1="4.221" y1="147.333" x2="4.221" y2="136.063"/>
	</g>
	<g id="POLYLINE_250_">
		
			<line fill="none" stroke="#FFFFFF" stroke-width="0.08" stroke-linecap="square" stroke-miterlimit="10" x1="142.761" y1="7.598" x2="142.761" y2="19.4"/>
	</g>
	<g id="POLYLINE_249_">
		
			<line fill="none" stroke="#FFFFFF" stroke-width="0.08" stroke-linecap="square" stroke-miterlimit="10" x1="142.761" y1="19.891" x2="142.761" y2="31.693"/>
	</g>
	<g id="POLYLINE_248_">
		
			<line fill="none" stroke="#FFFFFF" stroke-width="0.08" stroke-linecap="square" stroke-miterlimit="10" x1="142.761" y1="32.184" x2="142.761" y2="43.986"/>
	</g>
	<g id="POLYLINE_247_">
		
			<line fill="none" stroke="#FFFFFF" stroke-width="0.08" stroke-linecap="square" stroke-miterlimit="10" x1="142.761" y1="50.419" x2="142.761" y2="62.221"/>
	</g>
	<g id="POLYLINE_246_">
		
			<line fill="none" stroke="#FFFFFF" stroke-width="0.08" stroke-linecap="square" stroke-miterlimit="10" x1="142.761" y1="62.712" x2="142.761" y2="74.513"/>
	</g>
	<g id="POLYLINE_245_">
		
			<line fill="none" stroke="#FFFFFF" stroke-width="0.08" stroke-linecap="square" stroke-miterlimit="10" x1="142.761" y1="75.004" x2="142.761" y2="86.806"/>
	</g>
	<g id="POLYLINE_244_">
		
			<line fill="none" stroke="#FFFFFF" stroke-width="0.08" stroke-linecap="square" stroke-miterlimit="10" x1="142.761" y1="93.025" x2="142.761" y2="104.827"/>
	</g>
	<g id="POLYLINE_243_">
		
			<line fill="none" stroke="#FFFFFF" stroke-width="0.08" stroke-linecap="square" stroke-miterlimit="10" x1="142.761" y1="105.318" x2="142.761" y2="117.119"/>
	</g>
	<g id="POLYLINE_242_">
		
			<line fill="none" stroke="#FFFFFF" stroke-width="0.08" stroke-linecap="square" stroke-miterlimit="10" x1="142.761" y1="117.61" x2="142.761" y2="129.412"/>
	</g>
	<g id="POLYLINE_241_">
		
			<line fill="none" stroke="#FFFFFF" stroke-width="0.08" stroke-linecap="square" stroke-miterlimit="10" x1="142.761" y1="135.585" x2="142.761" y2="147.387"/>
	</g>
	<g id="POLYLINE_240_">
		
			<line fill="none" stroke="#FFFFFF" stroke-width="0.08" stroke-linecap="square" stroke-miterlimit="10" x1="142.761" y1="147.878" x2="142.761" y2="159.68"/>
	</g>
	<g id="POLYLINE_239_">
		
			<line fill="none" stroke="#FFFFFF" stroke-width="0.08" stroke-linecap="square" stroke-miterlimit="10" x1="142.761" y1="160.171" x2="142.761" y2="171.973"/>
	</g>
	<g id="POLYLINE_179_">
		
			<line fill="none" stroke="#FFFFFF" stroke-width="0.08" stroke-linecap="square" stroke-miterlimit="10" x1="21.429" y1="176.139" x2="8.704" y2="176.139"/>
	</g>
	<g id="POLYLINE_178_">
		
			<line fill="none" stroke="#FFFFFF" stroke-width="0.08" stroke-linecap="square" stroke-miterlimit="10" x1="34.645" y1="176.139" x2="21.92" y2="176.139"/>
	</g>
	<g id="POLYLINE_177_">
		
			<line fill="none" stroke="#FFFFFF" stroke-width="0.08" stroke-linecap="square" stroke-miterlimit="10" x1="47.861" y1="176.139" x2="35.136" y2="176.139"/>
	</g>
	<g id="POLYLINE_176_">
		
			<line fill="none" stroke="#FFFFFF" stroke-width="0.08" stroke-linecap="square" stroke-miterlimit="10" x1="66.787" y1="176.139" x2="54.062" y2="176.139"/>
	</g>
	<g id="POLYLINE_175_">
		
			<line fill="none" stroke="#FFFFFF" stroke-width="0.08" stroke-linecap="square" stroke-miterlimit="10" x1="80.003" y1="176.139" x2="67.278" y2="176.139"/>
	</g>
	<g id="POLYLINE_174_">
		
			<line fill="none" stroke="#FFFFFF" stroke-width="0.08" stroke-linecap="square" stroke-miterlimit="10" x1="93.22" y1="176.139" x2="80.494" y2="176.139"/>
	</g>
	<g id="POLYLINE_173_">
		
			<line fill="none" stroke="#FFFFFF" stroke-width="0.08" stroke-linecap="square" stroke-miterlimit="10" x1="112.697" y1="176.139" x2="99.971" y2="176.139"/>
	</g>
	<g id="POLYLINE_172_">
		
			<line fill="none" stroke="#FFFFFF" stroke-width="0.08" stroke-linecap="square" stroke-miterlimit="10" x1="125.913" y1="176.139" x2="113.188" y2="176.139"/>
	</g>
	<g id="POLYLINE_171_">
		
			<line fill="none" stroke="#FFFFFF" stroke-width="0.08" stroke-linecap="square" stroke-miterlimit="10" x1="139.129" y1="176.139" x2="126.404" y2="176.139"/>
	</g>
	<g id="POLYLINE_170_">
		<polyline fill="none" stroke="#FFFFFF" stroke-width="0.08" stroke-linecap="square" stroke-miterlimit="10" points="
			83.389,3.668 83.389,11.864 55.199,11.864 55.199,11.298 82.765,11.298 82.765,3.668 		"/>
	</g>
	<g id="POLYLINE_52_">
		
			<line fill="none" stroke="#FFFFFF" stroke-width="0.08" stroke-linecap="square" stroke-miterlimit="10" x1="65.536" y1="7.483" x2="65.536" y2="11.298"/>
	</g>
	<g id="POLYLINE_51_">
		
			<line fill="none" stroke="#FFFFFF" stroke-width="0.08" stroke-linecap="square" stroke-miterlimit="10" x1="63.813" y1="3.668" x2="63.813" y2="11.298"/>
	</g>
	<g id="POLYLINE_50_">
		
			<line fill="none" stroke="#FFFFFF" stroke-width="0.08" stroke-linecap="square" stroke-miterlimit="10" x1="62.09" y1="3.668" x2="62.09" y2="11.298"/>
	</g>
	<g id="POLYLINE_49_">
		
			<line fill="none" stroke="#FFFFFF" stroke-width="0.08" stroke-linecap="square" stroke-miterlimit="10" x1="60.367" y1="3.668" x2="60.367" y2="11.298"/>
	</g>
	<g id="POLYLINE_48_">
		
			<line fill="none" stroke="#FFFFFF" stroke-width="0.08" stroke-linecap="square" stroke-miterlimit="10" x1="58.644" y1="3.668" x2="58.644" y2="11.298"/>
	</g>
	<g id="POLYLINE_23_">
		
			<line fill="none" stroke="#FFFFFF" stroke-width="0.08" stroke-linecap="square" stroke-miterlimit="10" x1="56.921" y1="3.668" x2="56.921" y2="11.298"/>
	</g>
	<g id="POLYLINE_22_">
		
			<line fill="none" stroke="#FFFFFF" stroke-width="0.08" stroke-linecap="square" stroke-miterlimit="10" x1="55.199" y1="3.668" x2="55.199" y2="11.298"/>
	</g>
</g>
<g id="PLAN_x24_CLOISON_TRANSLUCIDE">
</g>
<g id="PLAN_x24_CLOISON_1.3">
</g>
<g id="PLAN_x24_CLOISON_1.2">
</g>
<g id="PLAN_x24_CLOISON_1.1">
</g>
<g id="PLAN_x24_STRUCTURE_2.3">
	<g id="POLYLINE_357_">
		
			<line fill="none" stroke="#FFFFFF" stroke-width="0.27" stroke-linecap="square" stroke-miterlimit="10" x1="14.726" y1="155.311" x2="14.726" y2="160.996"/>
	</g>
	<g id="POLYLINE_356_">
		
			<line fill="none" stroke="#FFFFFF" stroke-width="0.27" stroke-linecap="square" stroke-miterlimit="10" x1="14.469" y1="155.054" x2="4.221" y2="155.054"/>
	</g>
	<g id="POLYLINE_355_">
		
			<line fill="none" stroke="#FFFFFF" stroke-width="0.27" stroke-linecap="square" stroke-miterlimit="10" x1="14.726" y1="172.564" x2="14.726" y2="166.879"/>
	</g>
	<g id="POLYLINE_354_">
		
			<line fill="none" stroke="#FFFFFF" stroke-width="0.27" stroke-linecap="square" stroke-miterlimit="10" x1="14.469" y1="172.822" x2="4.221" y2="172.822"/>
	</g>
	<g id="POLYLINE_353_">
		
			<line fill="none" stroke="#FFFFFF" stroke-width="0.27" stroke-linecap="square" stroke-miterlimit="10" x1="14.726" y1="159.161" x2="4.221" y2="159.161"/>
	</g>
	<g id="POLYLINE_352_">
		
			<line fill="none" stroke="#FFFFFF" stroke-width="0.27" stroke-linecap="square" stroke-miterlimit="10" x1="14.726" y1="160.039" x2="4.221" y2="160.039"/>
	</g>
	<g id="CIRCLE_63_">
		<path fill="none" stroke="#FFFFFF" stroke-width="0.27" stroke-linecap="square" stroke-miterlimit="10" d="M14.469,172.822
			c0-0.142,0.115-0.257,0.257-0.257s0.257,0.115,0.257,0.257s-0.115,0.257-0.257,0.257S14.469,172.964,14.469,172.822
			L14.469,172.822z"/>
	</g>
	<g id="CIRCLE_62_">
		<path fill="none" stroke="#FFFFFF" stroke-width="0.27" stroke-linecap="square" stroke-miterlimit="10" d="M14.469,166.622
			c0-0.142,0.115-0.257,0.257-0.257s0.257,0.115,0.257,0.257s-0.115,0.257-0.257,0.257S14.469,166.764,14.469,166.622
			L14.469,166.622z"/>
	</g>
	<g id="CIRCLE_61_">
		<path fill="none" stroke="#FFFFFF" stroke-width="0.27" stroke-linecap="square" stroke-miterlimit="10" d="M14.469,155.054
			c0-0.142,0.115-0.257,0.257-0.257s0.257,0.115,0.257,0.257s-0.115,0.257-0.257,0.257S14.469,155.196,14.469,155.054
			L14.469,155.054z"/>
	</g>
	<g id="CIRCLE_60_">
		<path fill="none" stroke="#FFFFFF" stroke-width="0.27" stroke-linecap="square" stroke-miterlimit="10" d="M14.469,161.254
			c0-0.142,0.115-0.257,0.257-0.257s0.257,0.115,0.257,0.257s-0.115,0.257-0.257,0.257S14.469,161.396,14.469,161.254
			L14.469,161.254z"/>
	</g>
</g>
<g id="PLAN_x24_STRUCTURE_2.2">
</g>
<g id="PLAN_x24_STRUCTURE_2.1">
</g>
<g id="PLAN_x24_STRUCTURE_1.3">
	<g id="POLYLINE_976_">
		
			<rect x="139.088" y="19.016" fill="none" stroke="#FFFFFF" stroke-width="0.41" stroke-linecap="square" stroke-miterlimit="10" width="3.673" height="1.26"/>
	</g>
	<g id="POLYLINE_977_">
		<polygon fill="none" stroke="#FFFFFF" stroke-width="0.41" stroke-linecap="square" stroke-miterlimit="10" points="
			142.761,7.598 143.896,7.598 143.896,7.983 145.03,7.983 145.03,2.008 143.673,2.008 143.673,1.344 1.952,1.399 1.952,20.922 
			3.086,20.922 3.086,20.537 4.221,20.537 4.221,17.232 13.54,17.232 13.54,3.668 125.143,3.668 125.143,20.275 128.609,20.275 
			128.609,19.016 126.561,19.016 126.561,3.668 142.761,3.668 		"/>
	</g>
	<g id="POLYLINE_1012_">
		<polygon fill="none" stroke="#FFFFFF" stroke-width="0.41" stroke-linecap="square" stroke-miterlimit="10" points="
			2.343,178.408 9.088,178.408 9.088,177.273 8.704,177.273 8.704,176.139 4.221,176.139 4.221,147.333 3.086,147.333 
			3.086,146.949 1.952,146.949 1.952,171.507 2.474,171.507 2.474,172.259 1.952,172.259 1.952,177.957 2.343,177.957 		"/>
	</g>
	<g id="POLYLINE_1013_">
		<polygon fill="none" stroke="#FFFFFF" stroke-width="0.41" stroke-linecap="square" stroke-miterlimit="10" points="
			145.03,135.97 145.03,129.028 143.896,129.028 143.896,129.412 142.761,129.412 142.761,135.585 143.896,135.585 143.896,135.97 
					"/>
	</g>
	<g id="POLYLINE_1014_">
		<polygon fill="none" stroke="#FFFFFF" stroke-width="0.41" stroke-linecap="square" stroke-miterlimit="10" points="
			142.761,50.419 143.896,50.419 143.896,50.803 145.03,50.803 145.03,43.601 143.896,43.601 143.896,43.986 142.761,43.986 		"/>
	</g>
	<g id="POLYLINE_1015_">
		<polygon fill="none" stroke="#FFFFFF" stroke-width="0.41" stroke-linecap="square" stroke-miterlimit="10" points="
			142.761,93.025 143.896,93.025 143.896,93.409 145.03,93.409 145.03,86.422 143.896,86.422 143.896,86.806 142.761,86.806 		"/>
	</g>
	<g id="POLYLINE_1028_">
		<polygon fill="none" stroke="#FFFFFF" stroke-width="0.41" stroke-linecap="square" stroke-miterlimit="10" points="
			139.129,176.139 142.761,176.139 142.761,171.973 143.896,171.973 143.896,171.588 145.03,171.588 145.03,178.042 
			144.581,178.042 144.581,178.408 138.745,178.408 138.745,177.273 139.129,177.273 		"/>
	</g>
	<g id="POLYLINE_1029_">
		<polygon fill="none" stroke="#FFFFFF" stroke-width="0.41" stroke-linecap="square" stroke-miterlimit="10" points="
			99.971,176.139 93.22,176.139 93.22,177.273 92.835,177.273 92.835,178.408 100.356,178.408 100.356,177.273 99.971,177.273 		"/>
	</g>
	<g id="POLYLINE_1030_">
		<polygon fill="none" stroke="#FFFFFF" stroke-width="0.41" stroke-linecap="square" stroke-miterlimit="10" points="
			47.861,176.139 54.062,176.139 54.062,177.273 54.446,177.273 54.446,178.408 47.477,178.408 47.477,177.273 47.861,177.273 		"/>
	</g>
	<g id="POLYLINE_1040_">
		<polygon fill="none" stroke="#FFFFFF" stroke-width="0.41" stroke-linecap="square" stroke-miterlimit="10" points="
			22.304,178.408 22.304,177.273 21.92,177.273 21.92,176.139 21.429,176.139 21.429,177.273 21.045,177.273 21.045,178.408 		"/>
	</g>
	<g id="POLYLINE_1041_">
		<polygon fill="none" stroke="#FFFFFF" stroke-width="0.41" stroke-linecap="square" stroke-miterlimit="10" points="
			35.52,178.408 35.52,177.273 35.136,177.273 35.136,176.139 34.645,176.139 34.645,177.273 34.261,177.273 34.261,178.408 		"/>
	</g>
	<g id="POLYLINE_1042_">
		<polygon fill="none" stroke="#FFFFFF" stroke-width="0.41" stroke-linecap="square" stroke-miterlimit="10" points="
			67.663,178.408 67.663,177.273 67.278,177.273 67.278,176.139 66.787,176.139 66.787,177.273 66.403,177.273 66.403,178.408 		"/>
	</g>
	<g id="POLYLINE_1043_">
		<polygon fill="none" stroke="#FFFFFF" stroke-width="0.41" stroke-linecap="square" stroke-miterlimit="10" points="
			80.879,178.408 80.879,177.273 80.494,177.273 80.494,176.139 80.003,176.139 80.003,177.273 79.619,177.273 79.619,178.408 		"/>
	</g>
	<g id="POLYLINE_1044_">
		<polygon fill="none" stroke="#FFFFFF" stroke-width="0.41" stroke-linecap="square" stroke-miterlimit="10" points="
			113.572,178.408 113.572,177.273 113.188,177.273 113.188,176.139 112.697,176.139 112.697,177.273 112.312,177.273 
			112.312,178.408 		"/>
	</g>
	<g id="POLYLINE_1045_">
		<polygon fill="none" stroke="#FFFFFF" stroke-width="0.41" stroke-linecap="square" stroke-miterlimit="10" points="
			126.788,178.408 126.788,177.273 126.404,177.273 126.404,176.139 125.913,176.139 125.913,177.273 125.529,177.273 
			125.529,178.408 		"/>
	</g>
	<g id="POLYLINE_1046_">
		<polyline fill="none" stroke="#FFFFFF" stroke-width="0.41" stroke-linecap="square" stroke-miterlimit="10" points="
			142.761,171.973 143.896,171.973 143.896,171.588 145.03,171.588 		"/>
	</g>
	<g id="POLYLINE_1047_">
		<polygon fill="none" stroke="#FFFFFF" stroke-width="0.41" stroke-linecap="square" stroke-miterlimit="10" points="
			145.03,147.003 143.896,147.003 143.896,147.387 142.761,147.387 142.761,147.878 143.896,147.878 143.896,148.263 
			145.03,148.263 		"/>
	</g>
	<g id="POLYLINE_1048_">
		<polygon fill="none" stroke="#FFFFFF" stroke-width="0.41" stroke-linecap="square" stroke-miterlimit="10" points="
			145.03,159.296 143.896,159.296 143.896,159.68 142.761,159.68 142.761,160.171 143.896,160.171 143.896,160.555 145.03,160.555 
					"/>
	</g>
	<g id="POLYLINE_1049_">
		<polygon fill="none" stroke="#FFFFFF" stroke-width="0.41" stroke-linecap="square" stroke-miterlimit="10" points="
			145.03,116.735 143.896,116.735 143.896,117.119 142.761,117.119 142.761,117.61 143.896,117.61 143.896,117.995 145.03,117.995 
					"/>
	</g>
	<g id="POLYLINE_1050_">
		<polygon fill="none" stroke="#FFFFFF" stroke-width="0.41" stroke-linecap="square" stroke-miterlimit="10" points="
			145.03,104.442 143.896,104.442 143.896,104.827 142.761,104.827 142.761,105.318 143.896,105.318 143.896,105.702 
			145.03,105.702 		"/>
	</g>
	<g id="POLYLINE_1051_">
		<polygon fill="none" stroke="#FFFFFF" stroke-width="0.41" stroke-linecap="square" stroke-miterlimit="10" points="
			145.03,74.129 143.896,74.129 143.896,74.513 142.761,74.513 142.761,75.004 143.896,75.004 143.896,75.389 145.03,75.389 		"/>
	</g>
	<g id="POLYLINE_1052_">
		<polygon fill="none" stroke="#FFFFFF" stroke-width="0.41" stroke-linecap="square" stroke-miterlimit="10" points="
			145.03,61.836 143.896,61.836 143.896,62.221 142.761,62.221 142.761,62.712 143.896,62.712 143.896,63.096 145.03,63.096 		"/>
	</g>
	<g id="POLYLINE_1053_">
		<polygon fill="none" stroke="#FFFFFF" stroke-width="0.41" stroke-linecap="square" stroke-miterlimit="10" points="
			145.03,31.308 143.896,31.308 143.896,31.693 142.761,31.693 142.761,32.184 143.896,32.184 143.896,32.568 145.03,32.568 		"/>
	</g>
	<g id="POLYLINE_1054_">
		<polygon fill="none" stroke="#FFFFFF" stroke-width="0.41" stroke-linecap="square" stroke-miterlimit="10" points="
			145.03,19.016 143.896,19.016 143.896,19.4 142.761,19.4 142.761,19.891 143.896,19.891 143.896,20.275 145.03,20.275 		"/>
	</g>
	<g id="POLYLINE_1055_">
		<polygon fill="none" stroke="#FFFFFF" stroke-width="0.41" stroke-linecap="square" stroke-miterlimit="10" points="4.221,31.807 
			4.221,34.76 3.086,34.76 3.086,35.144 1.952,35.144 1.952,31.423 3.086,31.423 3.086,31.807 		"/>
	</g>
	<g id="POLYLINE_1056_">
		<polygon fill="none" stroke="#FFFFFF" stroke-width="0.41" stroke-linecap="square" stroke-miterlimit="10" points="4.221,46.03 
			4.221,50.611 3.086,50.611 3.086,50.995 1.952,50.995 1.952,45.645 3.086,45.645 3.086,46.03 		"/>
	</g>
	<g id="POLYLINE_1057_">
		<polygon fill="none" stroke="#FFFFFF" stroke-width="0.41" stroke-linecap="square" stroke-miterlimit="10" points="4.221,86.907 
			4.221,93.164 3.086,93.164 3.086,93.548 1.952,93.548 1.952,86.523 3.086,86.523 3.086,86.907 		"/>
	</g>
	<g id="POLYLINE_1058_">
		<polygon fill="none" stroke="#FFFFFF" stroke-width="0.41" stroke-linecap="square" stroke-miterlimit="10" points="
			4.221,104.434 4.221,118.122 3.086,118.122 3.086,118.507 1.952,118.507 1.952,104.049 3.086,104.049 3.086,104.434 		"/>
	</g>
	<g id="POLYLINE_1059_">
		<polygon fill="none" stroke="#FFFFFF" stroke-width="0.41" stroke-linecap="square" stroke-miterlimit="10" points="
			4.221,129.392 4.221,136.063 3.086,136.063 3.086,136.448 1.952,136.448 1.952,129.008 3.086,129.008 3.086,129.392 		"/>
	</g>
	<g id="POLYLINE_1060_">
		
			<line fill="none" stroke="#FFFFFF" stroke-width="0.41" stroke-linecap="square" stroke-miterlimit="10" x1="3.086" y1="136.063" x2="3.086" y2="136.448"/>
	</g>
	<g id="POLYLINE_1061_">
		
			<line fill="none" stroke="#FFFFFF" stroke-width="0.41" stroke-linecap="square" stroke-miterlimit="10" x1="3.086" y1="129.008" x2="3.086" y2="129.392"/>
	</g>
	<g id="POLYLINE_1062_">
		
			<line fill="none" stroke="#FFFFFF" stroke-width="0.41" stroke-linecap="square" stroke-miterlimit="10" x1="3.086" y1="118.122" x2="3.086" y2="118.507"/>
	</g>
	<g id="POLYLINE_1063_">
		
			<line fill="none" stroke="#FFFFFF" stroke-width="0.41" stroke-linecap="square" stroke-miterlimit="10" x1="3.086" y1="104.049" x2="3.086" y2="104.434"/>
	</g>
	<g id="POLYLINE_1064_">
		
			<line fill="none" stroke="#FFFFFF" stroke-width="0.41" stroke-linecap="square" stroke-miterlimit="10" x1="3.086" y1="93.164" x2="3.086" y2="93.548"/>
	</g>
	<g id="POLYLINE_1065_">
		
			<line fill="none" stroke="#FFFFFF" stroke-width="0.41" stroke-linecap="square" stroke-miterlimit="10" x1="3.086" y1="86.523" x2="3.086" y2="86.907"/>
	</g>
	<g id="POLYLINE_1066_">
		
			<line fill="none" stroke="#FFFFFF" stroke-width="0.41" stroke-linecap="square" stroke-miterlimit="10" x1="3.086" y1="75.638" x2="3.086" y2="76.022"/>
	</g>
	<g id="POLYLINE_1067_">
		
			<line fill="none" stroke="#FFFFFF" stroke-width="0.41" stroke-linecap="square" stroke-miterlimit="10" x1="3.086" y1="61.496" x2="3.086" y2="61.881"/>
	</g>
	<g id="POLYLINE_1068_">
		
			<line fill="none" stroke="#FFFFFF" stroke-width="0.41" stroke-linecap="square" stroke-miterlimit="10" x1="3.086" y1="50.611" x2="3.086" y2="50.995"/>
	</g>
	<g id="POLYLINE_1069_">
		
			<line fill="none" stroke="#FFFFFF" stroke-width="0.41" stroke-linecap="square" stroke-miterlimit="10" x1="3.086" y1="34.76" x2="3.086" y2="35.144"/>
	</g>
	<g id="POLYLINE_1070_">
		
			<line fill="none" stroke="#FFFFFF" stroke-width="0.41" stroke-linecap="square" stroke-miterlimit="10" x1="3.086" y1="31.423" x2="3.086" y2="31.807"/>
	</g>
	<g id="CIRCLE_23_">
		<path fill="none" stroke="#FFFFFF" stroke-width="0.41" stroke-linecap="square" stroke-miterlimit="10" d="M119.054,132.873
			c0-0.308,0.25-0.558,0.558-0.558s0.558,0.25,0.558,0.558s-0.25,0.558-0.558,0.558S119.054,133.181,119.054,132.873
			L119.054,132.873z"/>
	</g>
	<g id="CIRCLE_22_">
		<path fill="none" stroke="#FFFFFF" stroke-width="0.41" stroke-linecap="square" stroke-miterlimit="10" d="M96.055,132.873
			c0-0.308,0.25-0.558,0.558-0.558s0.558,0.25,0.558,0.558s-0.25,0.558-0.558,0.558S96.055,133.181,96.055,132.873L96.055,132.873z"
			/>
	</g>
	<g id="CIRCLE_21_">
		<path fill="none" stroke="#FFFFFF" stroke-width="0.41" stroke-linecap="square" stroke-miterlimit="10" d="M96.055,90.016
			c0-0.308,0.25-0.558,0.558-0.558s0.558,0.25,0.558,0.558s-0.25,0.558-0.558,0.558S96.055,90.324,96.055,90.016L96.055,90.016z"/>
	</g>
	<g id="CIRCLE_20_">
		<path fill="none" stroke="#FFFFFF" stroke-width="0.41" stroke-linecap="square" stroke-miterlimit="10" d="M119.054,90.016
			c0-0.308,0.25-0.558,0.558-0.558s0.558,0.25,0.558,0.558s-0.25,0.558-0.558,0.558C119.304,90.573,119.054,90.324,119.054,90.016
			L119.054,90.016z"/>
	</g>
	<g id="CIRCLE_19_">
		<path fill="none" stroke="#FFFFFF" stroke-width="0.41" stroke-linecap="square" stroke-miterlimit="10" d="M119.054,47.158
			c0-0.308,0.25-0.558,0.558-0.558s0.558,0.25,0.558,0.558s-0.25,0.558-0.558,0.558S119.054,47.466,119.054,47.158L119.054,47.158z"
			/>
	</g>
	<g id="CIRCLE_18_">
		<path fill="none" stroke="#FFFFFF" stroke-width="0.41" stroke-linecap="square" stroke-miterlimit="10" d="M96.055,47.158
			c0-0.308,0.25-0.558,0.558-0.558s0.558,0.25,0.558,0.558s-0.25,0.558-0.558,0.558S96.055,47.466,96.055,47.158L96.055,47.158z"/>
	</g>
	<g id="CIRCLE_17_">
		<path fill="none" stroke="#FFFFFF" stroke-width="0.41" stroke-linecap="square" stroke-miterlimit="10" d="M73.056,47.158
			c0-0.308,0.25-0.558,0.558-0.558s0.558,0.25,0.558,0.558s-0.25,0.558-0.558,0.558S73.056,47.466,73.056,47.158L73.056,47.158z"/>
	</g>
	<g id="CIRCLE_16_">
		<path fill="none" stroke="#FFFFFF" stroke-width="0.41" stroke-linecap="square" stroke-miterlimit="10" d="M73.056,90.016
			c0-0.308,0.25-0.558,0.558-0.558s0.558,0.25,0.558,0.558s-0.25,0.558-0.558,0.558C73.306,90.573,73.056,90.324,73.056,90.016
			L73.056,90.016z"/>
	</g>
	<g id="CIRCLE_15_">
		<path fill="none" stroke="#FFFFFF" stroke-width="0.41" stroke-linecap="square" stroke-miterlimit="10" d="M73.056,132.873
			c0-0.308,0.25-0.558,0.558-0.558s0.558,0.25,0.558,0.558s-0.25,0.558-0.558,0.558S73.056,133.181,73.056,132.873L73.056,132.873z"
			/>
	</g>
	<g id="CIRCLE_39_">
		<path fill="none" stroke="#FFFFFF" stroke-width="0.41" stroke-linecap="square" stroke-miterlimit="10" d="M50.058,132.873
			c0-0.308,0.25-0.558,0.558-0.558s0.558,0.25,0.558,0.558s-0.25,0.558-0.558,0.558C50.307,133.431,50.058,133.181,50.058,132.873
			L50.058,132.873z"/>
	</g>
	<g id="CIRCLE_40_">
		<path fill="none" stroke="#FFFFFF" stroke-width="0.41" stroke-linecap="square" stroke-miterlimit="10" d="M50.058,90.016
			c0-0.308,0.25-0.558,0.558-0.558s0.558,0.25,0.558,0.558s-0.25,0.558-0.558,0.558C50.307,90.573,50.058,90.324,50.058,90.016
			L50.058,90.016z"/>
	</g>
	<g id="CIRCLE_41_">
		<path fill="none" stroke="#FFFFFF" stroke-width="0.41" stroke-linecap="square" stroke-miterlimit="10" d="M50.058,47.158
			c0-0.308,0.25-0.558,0.558-0.558s0.558,0.25,0.558,0.558s-0.25,0.558-0.558,0.558C50.307,47.716,50.058,47.466,50.058,47.158
			L50.058,47.158z"/>
	</g>
	<g id="CIRCLE_42_">
		<path fill="none" stroke="#FFFFFF" stroke-width="0.41" stroke-linecap="square" stroke-miterlimit="10" d="M27.059,47.158
			c0-0.308,0.25-0.558,0.558-0.558s0.558,0.25,0.558,0.558s-0.25,0.558-0.558,0.558S27.059,47.466,27.059,47.158L27.059,47.158z"/>
	</g>
	<g id="CIRCLE_43_">
		<path fill="none" stroke="#FFFFFF" stroke-width="0.41" stroke-linecap="square" stroke-miterlimit="10" d="M27.059,90.016
			c0-0.308,0.25-0.558,0.558-0.558s0.558,0.25,0.558,0.558s-0.25,0.558-0.558,0.558S27.059,90.324,27.059,90.016L27.059,90.016z"/>
	</g>
	<g id="CIRCLE_44_">
		<path fill="none" stroke="#FFFFFF" stroke-width="0.41" stroke-linecap="square" stroke-miterlimit="10" d="M27.059,132.873
			c0-0.308,0.25-0.558,0.558-0.558s0.558,0.25,0.558,0.558s-0.25,0.558-0.558,0.558S27.059,133.181,27.059,132.873L27.059,132.873z"
			/>
	</g>
	<g id="POLYLINE_1071_">
		
			<rect x="4.815" y="3.668" fill="none" stroke="#FFFFFF" stroke-width="0.41" stroke-linecap="square" stroke-miterlimit="10" width="5.803" height="5.67"/>
	</g>
	<g id="POLYLINE_1072_">
		
			<rect x="4.934" y="10.797" fill="none" stroke="#FFFFFF" stroke-width="0.41" stroke-linecap="square" stroke-miterlimit="10" width="6.22" height="4.3"/>
	</g>
	<g id="POLYLINE_2485_">
		<polygon fill="none" stroke="#FFFFFF" stroke-width="0.41" stroke-linecap="square" stroke-miterlimit="10" points="4.221,61.881 
			3.086,61.881 3.086,61.496 1.952,61.496 1.952,76.022 3.086,76.022 3.086,75.638 4.221,75.638 		"/>
	</g>
</g>
<g id="PLAN_x24_STRUCTURE_1.2">
</g>
<g id="PLAN_x24_STRUCTURE_1.1">
</g>
</svg>
