<?xml version="1.0" encoding="utf-8"?>
<!-- Generator: Adobe Illustrator 22.0.1, SVG Export Plug-In . SVG Version: 6.00 Build 0)  -->
<svg version="1.1" id="Calque_1" xmlns="http://www.w3.org/2000/svg" xmlns:xlink="http://www.w3.org/1999/xlink" x="0px" y="0px"
	 width="98.371px" height="46.576px" viewBox="0 0 98.371 46.576" enable-background="new 0 0 98.371 46.576" xml:space="preserve">
<g id="Calque_1_1_" display="none">
	<rect x="-6987.075" y="-7301.981" display="inline" width="14640" height="9504"/>
</g>
<g id="INFOS_x24_A4" display="none">
	<g id="POLYLINE_33284_" display="inline">
		<rect x="-248.167" y="-396.778" fill="none" width="595.276" height="841.89"/>
	</g>
</g>
<g id="PLAN_x24_FOND">
</g>
<g id="PLAN_x24_POINTILLE">
	<g id="POLYLINE_34572_">
		
			<line fill="none" stroke="#FFFFFF" stroke-width="0.1" stroke-linecap="square" stroke-miterlimit="10" stroke-dasharray="0.5,0.5" x1="72.1" y1="17.376" x2="72.111" y2="39.835"/>
	</g>
</g>
<g id="PLAN_x24_VITRAGE">
	<g id="POLYLINE_33324_">
		
			<rect x="94.931" y="20.7" fill="none" stroke="#FFFFFF" stroke-width="0.05" stroke-linecap="square" stroke-miterlimit="10" width="0.283" height="7.134"/>
	</g>
	<g id="POLYLINE_33323_">
		
			<rect x="20.09" y="32.918" fill="none" stroke="#FFFFFF" stroke-width="0.05" stroke-linecap="square" stroke-miterlimit="10" width="0.283" height="5.799"/>
	</g>
	<g id="POLYLINE_33322_">
		
			<rect x="20.09" y="16.993" fill="none" stroke="#FFFFFF" stroke-width="0.05" stroke-linecap="square" stroke-miterlimit="10" width="0.283" height="11.39"/>
	</g>
</g>
<g id="PLAN_x24_MOBILIER">
	<g id="POLYLINE_33373_">
		
			<line fill="none" stroke="#FFFFFF" stroke-width="0.08" stroke-linecap="square" stroke-miterlimit="10" x1="24.407" y1="16.447" x2="24.436" y2="10.784"/>
	</g>
	<g id="POLYLINE_33372_">
		<polyline fill="none" stroke="#FFFFFF" stroke-width="0.08" stroke-linecap="square" stroke-miterlimit="10" points="
			24.436,10.784 30.881,10.784 34.739,9.483 48.251,9.483 		"/>
	</g>
	<g id="POLYLINE_33371_">
		
			<line fill="none" stroke="#FFFFFF" stroke-width="0.08" stroke-linecap="square" stroke-miterlimit="10" x1="87.248" y1="22.978" x2="87.244" y2="21.382"/>
	</g>
	<g id="POLYLINE_33370_">
		<polyline fill="none" stroke="#FFFFFF" stroke-width="0.08" stroke-linecap="square" stroke-miterlimit="10" points="
			87.244,21.382 87.237,18.855 80.898,18.873 80.905,21.399 		"/>
	</g>
	<g id="POLYLINE_33369_">
		
			<line fill="none" stroke="#FFFFFF" stroke-width="0.08" stroke-linecap="square" stroke-miterlimit="10" x1="80.905" y1="21.399" x2="80.909" y2="22.996"/>
	</g>
	<g id="POLYLINE_33368_">
		
			<line fill="none" stroke="#FFFFFF" stroke-width="0.08" stroke-linecap="square" stroke-miterlimit="10" x1="91.358" y1="19.315" x2="91.722" y2="19.913"/>
	</g>
	<g id="POLYLINE_33367_">
		
			<line fill="none" stroke="#FFFFFF" stroke-width="0.08" stroke-linecap="square" stroke-miterlimit="10" x1="91.363" y1="18.449" x2="91.806" y2="17.872"/>
	</g>
	<g id="POLYLINE_33366_">
		
			<line fill="none" stroke="#FFFFFF" stroke-width="0.08" stroke-linecap="square" stroke-miterlimit="10" x1="90.471" y1="19.182" x2="90.033" y2="19.378"/>
	</g>
	<g id="POLYLINE_33365_">
		
			<rect x="90.172" y="17.833" transform="matrix(0.4307 -0.9025 0.9025 0.4307 34.7644 92.4931)" fill="none" stroke="#FFFFFF" stroke-width="0.08" stroke-linecap="square" stroke-miterlimit="10" width="1.046" height="1.717"/>
	</g>
	<g id="POLYLINE_33364_">
		
			<line fill="none" stroke="#FFFFFF" stroke-width="0.08" stroke-linecap="square" stroke-miterlimit="10" x1="58.123" y1="6.707" x2="58.123" y2="14.078"/>
	</g>
	<g id="POLYLINE_33363_">
		
			<rect x="29.731" y="19.683" transform="matrix(0.005 -1 1 0.005 12.4852 55.2794)" fill="none" stroke="#FFFFFF" stroke-width="0.08" stroke-linecap="square" stroke-miterlimit="10" width="8.579" height="3.366"/>
	</g>
	<g id="POLYLINE_33362_">
		
			<rect x="29.567" y="19.813" transform="matrix(0.005 -1 1 0.005 10.192 52.0481)" fill="none" stroke="#FFFFFF" stroke-width="0.08" stroke-linecap="square" stroke-miterlimit="10" width="3.367" height="2.18"/>
	</g>
	<g id="POLYLINE_33361_">
		
			<line fill="none" stroke="#FFFFFF" stroke-width="0.08" stroke-linecap="square" stroke-miterlimit="10" x1="92.143" y1="20.461" x2="92.15" y2="28.05"/>
	</g>
	<g id="POLYLINE_33360_">
		
			<rect x="81.932" y="25.074" fill="none" stroke="#FFFFFF" stroke-width="0.08" stroke-linecap="square" stroke-miterlimit="10" width="4.528" height="4.581"/>
	</g>
	<g id="POLYLINE_33359_">
		
			<rect x="79.258" y="23.485" fill="none" stroke="#FFFFFF" stroke-width="0.08" stroke-linecap="square" stroke-miterlimit="10" width="9.559" height="7.493"/>
	</g>
	<g id="POLYLINE_33358_">
		
			<rect x="79.316" y="17.261" transform="matrix(1 -0.0028 0.0028 1 -0.056 0.2355)" fill="none" stroke="#FFFFFF" stroke-width="0.08" stroke-linecap="square" stroke-miterlimit="10" width="9.532" height="5.72"/>
	</g>
	<g id="POLYLINE_33357_">
		
			<rect x="49.8" y="7.006" transform="matrix(0.9999 -0.0114 0.0114 0.9999 -0.0834 0.5811)" fill="none" stroke="#FFFFFF" stroke-width="0.08" stroke-linecap="square" stroke-miterlimit="10" width="2.264" height="1.207"/>
	</g>
	<g id="POLYLINE_33356_">
		
			<rect x="49.46" y="6.666" transform="matrix(0.9999 -0.0114 0.0114 0.9999 -0.0834 0.5811)" fill="none" stroke="#FFFFFF" stroke-width="0.08" stroke-linecap="square" stroke-miterlimit="10" width="2.944" height="1.887"/>
	</g>
	<g id="CIRCLE_1494_">
		<path fill="none" stroke="#FFFFFF" stroke-width="0.08" stroke-linecap="square" stroke-miterlimit="10" d="M50.672,7.575
			c0-0.099,0.08-0.179,0.179-0.179s0.179,0.08,0.179,0.179s-0.08,0.179-0.179,0.179C50.752,7.755,50.672,7.674,50.672,7.575
			L50.672,7.575z"/>
	</g>
	<g id="SPLINE_1220_">
		<path fill="none" stroke="#FFFFFF" stroke-width="0.08" stroke-linecap="square" stroke-miterlimit="10" d="M54.003,8.18
			c-0.059,0.23-0.098,0.466-0.112,0.703c-0.01,0.18-0.006,0.36,0.006,0.54c0.016,0.23,0.044,0.46,0.13,0.679
			c0.048,0.124,0.115,0.245,0.212,0.33c0.151,0.132,0.375,0.175,0.584,0.187c0.112,0.007,0.219,0.005,0.329-0.013
			c0.156-0.025,0.317-0.082,0.433-0.182c0.177-0.153,0.251-0.409,0.295-0.654c0.049-0.272,0.061-0.531,0.049-0.795
			c-0.008-0.175-0.027-0.352-0.058-0.527c-0.016-0.091-0.036-0.18-0.058-0.269"/>
	</g>
	<g id="POLYLINE_33355_">
		
			<rect x="53.421" y="6.707" fill="none" stroke="#FFFFFF" stroke-width="0.08" stroke-linecap="square" stroke-miterlimit="10" width="2.971" height="1.473"/>
	</g>
	<g id="ARC_3038_">
		<path fill="none" stroke="#FFFFFF" stroke-width="0.08" stroke-linecap="square" stroke-miterlimit="10" d="M31.788,15.738
			c0.556,0.003,1.009-0.446,1.012-1.002s-0.446-1.009-1.002-1.012"/>
	</g>
	<g id="ARC_3037_">
		<path fill="none" stroke="#FFFFFF" stroke-width="0.08" stroke-linecap="square" stroke-miterlimit="10" d="M27.189,14.147
			c-0.556-0.003-1.009,0.446-1.012,1.002s0.446,1.009,1.002,1.012"/>
	</g>
	<g id="POLYLINE_33354_">
		
			<rect x="27.802" y="12.478" transform="matrix(0.005 -1 1 0.005 14.5783 44.2137)" fill="none" stroke="#FFFFFF" stroke-width="0.08" stroke-linecap="square" stroke-miterlimit="10" width="3.41" height="4.607"/>
	</g>
	<g id="CIRCLE_1493_">
		<path fill="none" stroke="#FFFFFF" stroke-width="0.08" stroke-linecap="square" stroke-miterlimit="10" d="M22.805,13.709
			c0-0.099,0.08-0.179,0.179-0.179s0.179,0.08,0.179,0.179s-0.08,0.179-0.179,0.179S22.805,13.808,22.805,13.709L22.805,13.709z"/>
	</g>
	<g id="POLYLINE_33353_">
		
			<rect x="22.106" y="12.137" transform="matrix(0.9999 -0.0114 0.0114 0.9999 -0.1536 0.2637)" fill="none" stroke="#FFFFFF" stroke-width="0.08" stroke-linecap="square" stroke-miterlimit="10" width="1.887" height="2.944"/>
	</g>
	<g id="POLYLINE_33352_">
		
			<line fill="none" stroke="#FFFFFF" stroke-width="0.08" stroke-linecap="square" stroke-miterlimit="10" x1="34.739" y1="9.483" x2="34.739" y2="6.707"/>
	</g>
	<g id="POLYLINE_33351_">
		
			<rect x="22.237" y="34.728" fill="none" stroke="#FFFFFF" stroke-width="0.08" stroke-linecap="square" stroke-miterlimit="10" width="3.019" height="2.905"/>
	</g>
	<g id="POLYLINE_33350_">
		
			<rect x="27.176" y="35.287" fill="none" stroke="#FFFFFF" stroke-width="0.08" stroke-linecap="square" stroke-miterlimit="10" width="1.061" height="2.012"/>
	</g>
	<g id="POLYLINE_33348_">
		
			<rect x="25.803" y="34.924" fill="none" stroke="#FFFFFF" stroke-width="0.08" stroke-linecap="square" stroke-miterlimit="10" width="1.373" height="3.098"/>
	</g>
	<g id="POLYLINE_33347_">
		
			<rect x="21.412" y="34.396" transform="matrix(0.9996 -0.0273 0.0273 0.9996 -0.9864 0.6588)" fill="none" stroke="#FFFFFF" stroke-width="0.08" stroke-linecap="square" stroke-miterlimit="10" width="4.441" height="4.113"/>
	</g>
	<g id="POLYLINE_33346_">
		
			<rect x="32.932" y="33.219" transform="matrix(0.0131 -0.9999 0.9999 0.0131 -1.3228 68.4648)" fill="none" stroke="#FFFFFF" stroke-width="0.08" stroke-linecap="square" stroke-miterlimit="10" width="2.18" height="3.367"/>
	</g>
	<g id="POLYLINE_33345_">
		
			<rect x="31.854" y="33.38" transform="matrix(0.0131 -0.9999 0.9999 0.0131 -4.5691 70.7097)" fill="none" stroke="#FFFFFF" stroke-width="0.08" stroke-linecap="square" stroke-miterlimit="10" width="3.366" height="8.579"/>
	</g>
	<g id="POLYLINE_33344_">
		
			<rect x="40.432" y="33.492" transform="matrix(0.0131 -0.9999 0.9999 0.0131 3.7846 79.3983)" fill="none" stroke="#FFFFFF" stroke-width="0.08" stroke-linecap="square" stroke-miterlimit="10" width="3.366" height="8.579"/>
	</g>
	<g id="POLYLINE_33343_">
		
			<rect x="41.511" y="33.33" transform="matrix(0.0131 -0.9999 0.9999 0.0131 7.0319 77.1525)" fill="none" stroke="#FFFFFF" stroke-width="0.08" stroke-linecap="square" stroke-miterlimit="10" width="2.18" height="3.367"/>
	</g>
	<g id="POLYLINE_33342_">
		
			<rect x="49.01" y="33.605" transform="matrix(0.0131 -0.9999 0.9999 0.0131 12.1383 88.0869)" fill="none" stroke="#FFFFFF" stroke-width="0.08" stroke-linecap="square" stroke-miterlimit="10" width="3.366" height="8.579"/>
	</g>
	<g id="POLYLINE_33341_">
		
			<rect x="50.089" y="33.443" transform="matrix(0.0131 -0.9999 0.9999 0.0131 15.3857 85.8411)" fill="none" stroke="#FFFFFF" stroke-width="0.08" stroke-linecap="square" stroke-miterlimit="10" width="2.18" height="3.367"/>
	</g>
	<g id="POLYLINE_33340_">
		
			<rect x="57.589" y="33.716" transform="matrix(0.0131 -0.9999 0.9999 0.0131 20.4931 96.7746)" fill="none" stroke="#FFFFFF" stroke-width="0.08" stroke-linecap="square" stroke-miterlimit="10" width="3.366" height="8.579"/>
	</g>
	<g id="POLYLINE_33339_">
		
			<rect x="58.668" y="33.555" transform="matrix(0.0131 -0.9999 0.9999 0.0131 23.7394 94.5298)" fill="none" stroke="#FFFFFF" stroke-width="0.08" stroke-linecap="square" stroke-miterlimit="10" width="2.18" height="3.367"/>
	</g>
	<g id="POLYLINE_33338_">
		
			<rect x="66.167" y="33.829" transform="matrix(0.0131 -0.9999 0.9999 0.0131 28.8468 105.4632)" fill="none" stroke="#FFFFFF" stroke-width="0.08" stroke-linecap="square" stroke-miterlimit="10" width="3.366" height="8.579"/>
	</g>
	<g id="POLYLINE_33321_">
		
			<rect x="67.246" y="33.668" transform="matrix(0.0131 -0.9999 0.9999 0.0131 32.0931 103.2183)" fill="none" stroke="#FFFFFF" stroke-width="0.08" stroke-linecap="square" stroke-miterlimit="10" width="2.18" height="3.367"/>
	</g>
	<g id="POLYLINE_33320_">
		
			<rect x="53.219" y="19.799" transform="matrix(0.005 -1 1 0.005 35.7391 78.8819)" fill="none" stroke="#FFFFFF" stroke-width="0.08" stroke-linecap="square" stroke-miterlimit="10" width="8.579" height="3.366"/>
	</g>
	<g id="POLYLINE_33319_">
		
			<rect x="63.714" y="19.891" transform="matrix(0.005 -1 1 0.005 46.0896 89.469)" fill="none" stroke="#FFFFFF" stroke-width="0.08" stroke-linecap="square" stroke-miterlimit="10" width="8.579" height="3.366"/>
	</g>
	<g id="POLYLINE_33318_">
		
			<rect x="63.55" y="20.02" transform="matrix(0.005 -1 1 0.005 43.7973 86.2367)" fill="none" stroke="#FFFFFF" stroke-width="0.08" stroke-linecap="square" stroke-miterlimit="10" width="3.367" height="2.18"/>
	</g>
	<g id="POLYLINE_33317_">
		
			<rect x="49.852" y="19.782" transform="matrix(0.005 -1 1 0.005 32.4062 75.4985)" fill="none" stroke="#FFFFFF" stroke-width="0.08" stroke-linecap="square" stroke-miterlimit="10" width="8.579" height="3.366"/>
	</g>
	<g id="POLYLINE_33316_">
		
			<rect x="49.688" y="19.912" transform="matrix(0.005 -1 1 0.005 30.1129 72.2673)" fill="none" stroke="#FFFFFF" stroke-width="0.08" stroke-linecap="square" stroke-miterlimit="10" width="3.367" height="2.18"/>
	</g>
	<g id="POLYLINE_33315_">
		
			<rect x="41.352" y="19.74" transform="matrix(0.005 -1 1 0.005 23.9905 66.957)" fill="none" stroke="#FFFFFF" stroke-width="0.08" stroke-linecap="square" stroke-miterlimit="10" width="8.579" height="3.366"/>
	</g>
	<g id="POLYLINE_33314_">
		
			<rect x="41.187" y="19.87" transform="matrix(0.005 -1 1 0.005 21.6963 63.7248)" fill="none" stroke="#FFFFFF" stroke-width="0.08" stroke-linecap="square" stroke-miterlimit="10" width="3.367" height="2.18"/>
	</g>
	<g id="POLYLINE_33313_">
		
			<rect x="21.77" y="19.773" transform="matrix(0.005 -1 1 0.005 2.4729 44.2123)" fill="none" stroke="#FFFFFF" stroke-width="0.08" stroke-linecap="square" stroke-miterlimit="10" width="3.367" height="2.18"/>
	</g>
	<g id="POLYLINE_33312_">
		
			<rect x="21.934" y="19.644" transform="matrix(0.005 -1 1 0.005 4.766 47.4435)" fill="none" stroke="#FFFFFF" stroke-width="0.08" stroke-linecap="square" stroke-miterlimit="10" width="8.579" height="3.366"/>
	</g>
	<g id="POLYLINE_33311_">
		
			<rect x="6.245" y="16.626" fill="none" stroke="#FFFFFF" stroke-width="0.08" stroke-linecap="square" stroke-miterlimit="10" width="1.765" height="2.419"/>
	</g>
	<g id="POLYLINE_33310_">
		
			<rect x="6.245" y="21.235" fill="none" stroke="#FFFFFF" stroke-width="0.08" stroke-linecap="square" stroke-miterlimit="10" width="1.765" height="2.419"/>
	</g>
	<g id="POLYLINE_33309_">
		
			<rect x="6.245" y="25.648" fill="none" stroke="#FFFFFF" stroke-width="0.08" stroke-linecap="square" stroke-miterlimit="10" width="1.765" height="2.419"/>
	</g>
	<g id="POLYLINE_33308_">
		
			<rect x="13.698" y="25.648" fill="none" stroke="#FFFFFF" stroke-width="0.08" stroke-linecap="square" stroke-miterlimit="10" width="1.765" height="2.419"/>
	</g>
	<g id="POLYLINE_33307_">
		
			<rect x="13.698" y="21.235" fill="none" stroke="#FFFFFF" stroke-width="0.08" stroke-linecap="square" stroke-miterlimit="10" width="1.765" height="2.419"/>
	</g>
	<g id="POLYLINE_33306_">
		
			<rect x="13.698" y="16.626" fill="none" stroke="#FFFFFF" stroke-width="0.08" stroke-linecap="square" stroke-miterlimit="10" width="1.765" height="2.419"/>
	</g>
	<g id="POLYLINE_33305_">
		
			<rect x="9.645" y="29.342" fill="none" stroke="#FFFFFF" stroke-width="0.08" stroke-linecap="square" stroke-miterlimit="10" width="2.419" height="1.765"/>
	</g>
	<g id="POLYLINE_33304_">
		
			<rect x="9.645" y="13.749" fill="none" stroke="#FFFFFF" stroke-width="0.08" stroke-linecap="square" stroke-miterlimit="10" width="2.419" height="1.765"/>
	</g>
	<g id="POLYLINE_33303_">
		
			<rect x="8.109" y="15.514" fill="none" stroke="#FFFFFF" stroke-width="0.08" stroke-linecap="square" stroke-miterlimit="10" width="5.59" height="13.827"/>
	</g>
	<g id="POLYLINE_33302_">
		<polyline fill="none" stroke="#FFFFFF" stroke-width="0.08" stroke-linecap="square" stroke-miterlimit="10" points="
			17.163,39.949 17.163,38.135 5.788,38.135 5.788,39.949 		"/>
	</g>
</g>
<g id="PLAN_x24_DETAIL">
	<g id="POLYLINE_33337_">
		
			<line fill="none" stroke="#FFFFFF" stroke-width="0.08" stroke-linecap="square" stroke-miterlimit="10" x1="94.927" y1="8.72" x2="91.33" y2="8.72"/>
	</g>
	<g id="ARC_3025_">
		<path fill="none" stroke="#FFFFFF" stroke-width="0.08" stroke-linecap="square" stroke-miterlimit="10" d="M91.33,8.72
			c0,1.987,1.611,3.598,3.597,3.598"/>
	</g>
	<g id="ARC_3024_">
		<path fill="none" stroke="#FFFFFF" stroke-width="0.08" stroke-linecap="square" stroke-miterlimit="10" d="M94.927,12.317
			c-1.987,0-3.597,1.611-3.597,3.597"/>
	</g>
	<g id="POLYLINE_33336_">
		
			<line fill="none" stroke="#FFFFFF" stroke-width="0.08" stroke-linecap="square" stroke-miterlimit="10" x1="91.33" y1="15.915" x2="94.927" y2="15.915"/>
	</g>
	<g id="POLYLINE_33335_">
		
			<line fill="none" stroke="#FFFFFF" stroke-width="0.08" stroke-linecap="square" stroke-miterlimit="10" x1="15.555" y1="32.918" x2="20.09" y2="32.918"/>
	</g>
	<g id="POLYLINE_33334_">
		
			<line fill="none" stroke="#FFFFFF" stroke-width="0.08" stroke-linecap="square" stroke-miterlimit="10" x1="20.09" y1="32.918" x2="24.626" y2="32.918"/>
	</g>
	<g id="ARC_3023_">
		<path fill="none" stroke="#FFFFFF" stroke-width="0.08" stroke-linecap="square" stroke-miterlimit="10" d="M24.626,32.918
			c0-2.505-2.031-4.535-4.535-4.535"/>
	</g>
	<g id="ARC_3022_">
		<path fill="none" stroke="#FFFFFF" stroke-width="0.08" stroke-linecap="square" stroke-miterlimit="10" d="M20.09,28.383
			c-2.505,0-4.535,2.031-4.535,4.535"/>
	</g>
	<g id="POLYLINE_33333_">
		
			<line fill="none" stroke="#FFFFFF" stroke-width="0.08" stroke-linecap="square" stroke-miterlimit="10" x1="94.934" y1="33.52" x2="91.251" y2="33.52"/>
	</g>
	<g id="ARC_3021_">
		<path fill="none" stroke="#FFFFFF" stroke-width="0.08" stroke-linecap="square" stroke-miterlimit="10" d="M91.251,33.52
			c0,2.034,1.649,3.683,3.683,3.683"/>
	</g>
	<g id="ARC_3020_">
		<path fill="none" stroke="#FFFFFF" stroke-width="0.08" stroke-linecap="square" stroke-miterlimit="10" d="M94.934,37.203
			c-2.034,0-3.683,1.649-3.683,3.683"/>
	</g>
	<g id="POLYLINE_33332_">
		
			<line fill="none" stroke="#FFFFFF" stroke-width="0.08" stroke-linecap="square" stroke-miterlimit="10" x1="91.251" y1="40.886" x2="94.934" y2="40.886"/>
	</g>
	<g id="POLYLINE_33331_">
		
			<line fill="none" stroke="#FFFFFF" stroke-width="0.08" stroke-linecap="square" stroke-miterlimit="10" x1="9.341" y1="9.047" x2="13.917" y2="6.707"/>
	</g>
	<g id="POLYLINE_33330_">
		
			<line fill="none" stroke="#FFFFFF" stroke-width="0.08" stroke-linecap="square" stroke-miterlimit="10" x1="13.917" y1="6.707" x2="3.637" y2="6.707"/>
	</g>
	<g id="POLYLINE_33329_">
		
			<line fill="none" stroke="#FFFFFF" stroke-width="0.08" stroke-linecap="square" stroke-miterlimit="10" x1="3.637" y1="6.707" x2="8.214" y2="9.047"/>
	</g>
	<g id="ARC_3019_">
		<path fill="none" stroke="#FFFFFF" stroke-width="0.08" stroke-linecap="square" stroke-miterlimit="10" d="M8.214,9.047
			c0.37-0.724,0.564-1.526,0.564-2.34"/>
	</g>
	<g id="ARC_3018_">
		<path fill="none" stroke="#FFFFFF" stroke-width="0.08" stroke-linecap="square" stroke-miterlimit="10" d="M8.777,6.707
			c0,0.814,0.193,1.616,0.564,2.34"/>
	</g>
	<g id="POLYLINE_33328_">
		
			<line fill="none" stroke="#FFFFFF" stroke-width="0.08" stroke-linecap="square" stroke-miterlimit="10" x1="96.1" y1="27.834" x2="96.093" y2="20.7"/>
	</g>
	<g id="POLYLINE_33327_">
		
			<line fill="none" stroke="#FFFFFF" stroke-width="0.08" stroke-linecap="square" stroke-miterlimit="10" x1="48.251" y1="14.644" x2="46.33" y2="14.644"/>
	</g>
	<g id="ARC_3017_">
		<path fill="none" stroke="#FFFFFF" stroke-width="0.08" stroke-linecap="square" stroke-miterlimit="10" d="M46.33,14.644
			c0,1.061,0.86,1.921,1.921,1.921"/>
	</g>
	<g id="POLYLINE_33326_">
		
			<line fill="none" stroke="#FFFFFF" stroke-width="0.08" stroke-linecap="square" stroke-miterlimit="10" x1="35.944" y1="16.483" x2="35.944" y2="11.947"/>
	</g>
	<g id="ARC_3016_">
		<path fill="none" stroke="#FFFFFF" stroke-width="0.08" stroke-linecap="square" stroke-miterlimit="10" d="M40.479,16.483
			c0-2.505-2.031-4.535-4.535-4.535"/>
	</g>
	<g id="POLYLINE_33325_">
		
			<line fill="none" stroke="#FFFFFF" stroke-width="0.08" stroke-linecap="square" stroke-miterlimit="10" x1="48.818" y1="13.714" x2="52.14" y2="13.714"/>
	</g>
	<g id="ARC_3015_">
		<path fill="none" stroke="#FFFFFF" stroke-width="0.08" stroke-linecap="square" stroke-miterlimit="10" d="M52.14,13.714
			c0-1.835-1.487-3.322-3.322-3.322"/>
	</g>
</g>
<g id="PLAN_x24_CLOISON_TRANSLUCIDE">
</g>
<g id="PLAN_x24_CLOISON_1.3">
</g>
<g id="PLAN_x24_CLOISON_1.2">
	<g id="POLYLINE_34535_">
		<polyline fill="none" stroke="#FFFFFF" stroke-width="0.18" stroke-linecap="square" stroke-miterlimit="10" points="
			48.251,10.392 48.251,6.707 48.818,6.707 48.818,10.392 		"/>
	</g>
	<g id="POLYLINE_34534_">
		
			<line fill="none" stroke="#FFFFFF" stroke-width="0.18" stroke-linecap="square" stroke-miterlimit="10" x1="48.818" y1="10.392" x2="48.251" y2="10.392"/>
	</g>
	<g id="POLYLINE_34533_">
		<polyline fill="none" stroke="#FFFFFF" stroke-width="0.18" stroke-linecap="square" stroke-miterlimit="10" points="
			48.818,13.714 48.818,14.078 61.316,14.078 61.316,14.644 48.251,14.644 48.251,13.714 		"/>
	</g>
	<g id="POLYLINE_34477_">
		
			<line fill="none" stroke="#FFFFFF" stroke-width="0.18" stroke-linecap="square" stroke-miterlimit="10" x1="48.251" y1="13.714" x2="48.818" y2="13.714"/>
	</g>
	<g id="POLYLINE_34476_">
		
			<line fill="none" stroke="#FFFFFF" stroke-width="0.18" stroke-linecap="square" stroke-miterlimit="10" x1="40.479" y1="16.483" x2="40.476" y2="17.094"/>
	</g>
	<g id="POLYLINE_34475_">
		<polyline fill="none" stroke="#FFFFFF" stroke-width="0.18" stroke-linecap="square" stroke-miterlimit="10" points="
			40.476,17.094 63.592,17.208 63.595,16.641 40.479,16.527 		"/>
	</g>
	<g id="POLYLINE_34474_">
		<polyline fill="none" stroke="#FFFFFF" stroke-width="0.18" stroke-linecap="square" stroke-miterlimit="10" points="
			35.944,16.504 20.657,16.429 20.657,10.784 20.09,10.784 20.09,16.993 35.941,17.071 		"/>
	</g>
	<g id="POLYLINE_34473_">
		
			<line fill="none" stroke="#FFFFFF" stroke-width="0.18" stroke-linecap="square" stroke-miterlimit="10" x1="35.941" y1="17.071" x2="35.944" y2="16.483"/>
	</g>
	<g id="POLYLINE_34472_">
		
			<line fill="none" stroke="#FFFFFF" stroke-width="0.18" stroke-linecap="square" stroke-miterlimit="10" x1="69.928" y1="39.81" x2="69.918" y2="40.591"/>
	</g>
	<g id="POLYLINE_34471_">
		
			<line fill="none" stroke="#FFFFFF" stroke-width="0.18" stroke-linecap="square" stroke-miterlimit="10" x1="63.194" y1="39.731" x2="63.184" y2="40.503"/>
	</g>
	<g id="POLYLINE_34470_">
		
			<line fill="none" stroke="#FFFFFF" stroke-width="0.18" stroke-linecap="square" stroke-miterlimit="10" x1="58.09" y1="39.671" x2="58.08" y2="40.437"/>
	</g>
	<g id="POLYLINE_34469_">
		
			<line fill="none" stroke="#FFFFFF" stroke-width="0.18" stroke-linecap="square" stroke-miterlimit="10" x1="52.92" y1="39.61" x2="52.91" y2="40.369"/>
	</g>
	<g id="POLYLINE_34468_">
		
			<line fill="none" stroke="#FFFFFF" stroke-width="0.18" stroke-linecap="square" stroke-miterlimit="10" x1="47.279" y1="39.511" x2="47.269" y2="40.295"/>
	</g>
	<g id="POLYLINE_34467_">
		
			<line fill="none" stroke="#FFFFFF" stroke-width="0.18" stroke-linecap="square" stroke-miterlimit="10" x1="41.725" y1="39.479" x2="41.715" y2="40.223"/>
	</g>
	<g id="POLYLINE_34466_">
		
			<line fill="none" stroke="#FFFFFF" stroke-width="0.18" stroke-linecap="square" stroke-miterlimit="10" x1="36.062" y1="39.364" x2="36.052" y2="40.149"/>
	</g>
	<g id="POLYLINE_34465_">
		
			<line fill="none" stroke="#FFFFFF" stroke-width="0.18" stroke-linecap="square" stroke-miterlimit="10" x1="30.229" y1="39.344" x2="30.22" y2="40.073"/>
	</g>
	<g id="POLYLINE_34464_">
		
			<line fill="none" stroke="#FFFFFF" stroke-width="0.18" stroke-linecap="square" stroke-miterlimit="10" x1="25.21" y1="39.285" x2="25.201" y2="40.007"/>
	</g>
	<g id="POLYLINE_34463_">
		
			<line fill="none" stroke="#FFFFFF" stroke-width="0.18" stroke-linecap="square" stroke-miterlimit="10" x1="72.111" y1="39.835" x2="24.352" y2="39.275"/>
	</g>
	<g id="POLYLINE_33392_">
		
			<line fill="none" stroke="#FFFFFF" stroke-width="0.18" stroke-linecap="square" stroke-miterlimit="10" x1="3.474" y1="28.9" x2="2.853" y2="28.9"/>
	</g>
	<g id="POLYLINE_33391_">
		
			<line fill="none" stroke="#FFFFFF" stroke-width="0.18" stroke-linecap="square" stroke-miterlimit="10" x1="3.474" y1="33.492" x2="2.853" y2="33.492"/>
	</g>
	<g id="POLYLINE_33390_">
		
			<line fill="none" stroke="#FFFFFF" stroke-width="0.18" stroke-linecap="square" stroke-miterlimit="10" x1="3.474" y1="37.801" x2="2.853" y2="37.801"/>
	</g>
	<g id="POLYLINE_33389_">
		
			<line fill="none" stroke="#FFFFFF" stroke-width="0.18" stroke-linecap="square" stroke-miterlimit="10" x1="3.474" y1="28.475" x2="3.474" y2="38.509"/>
	</g>
	<g id="POLYLINE_33388_">
		
			<line fill="none" stroke="#FFFFFF" stroke-width="0.18" stroke-linecap="square" stroke-miterlimit="10" x1="3.474" y1="22.938" x2="2.853" y2="22.938"/>
	</g>
	<g id="POLYLINE_33387_">
		
			<line fill="none" stroke="#FFFFFF" stroke-width="0.18" stroke-linecap="square" stroke-miterlimit="10" x1="3.474" y1="18.37" x2="2.853" y2="18.37"/>
	</g>
	<g id="POLYLINE_33386_">
		
			<line fill="none" stroke="#FFFFFF" stroke-width="0.18" stroke-linecap="square" stroke-miterlimit="10" x1="3.474" y1="13.823" x2="2.853" y2="13.823"/>
	</g>
	<g id="POLYLINE_33385_">
		
			<line fill="none" stroke="#FFFFFF" stroke-width="0.18" stroke-linecap="square" stroke-miterlimit="10" x1="3.474" y1="9.105" x2="2.853" y2="9.105"/>
	</g>
	<g id="POLYLINE_33384_">
		
			<line fill="none" stroke="#FFFFFF" stroke-width="0.18" stroke-linecap="square" stroke-miterlimit="10" x1="3.474" y1="26.873" x2="3.474" y2="8.44"/>
	</g>
	<g id="POLYLINE_33383_">
		
			<line fill="none" stroke="#FFFFFF" stroke-width="0.18" stroke-linecap="square" stroke-miterlimit="10" x1="61.316" y1="15.717" x2="61.311" y2="16.63"/>
	</g>
	<g id="POLYLINE_33382_">
		
			<line fill="none" stroke="#FFFFFF" stroke-width="0.18" stroke-linecap="square" stroke-miterlimit="10" x1="63.595" y1="16.641" x2="63.595" y2="15.717"/>
	</g>
	<g id="POLYLINE_33381_">
		
			<line fill="none" stroke="#FFFFFF" stroke-width="0.18" stroke-linecap="square" stroke-miterlimit="10" x1="67.363" y1="16.698" x2="67.351" y2="17.283"/>
	</g>
	<g id="POLYLINE_33380_">
		
			<line fill="none" stroke="#FFFFFF" stroke-width="0.18" stroke-linecap="square" stroke-miterlimit="10" x1="70.139" y1="16.698" x2="70.126" y2="17.337"/>
	</g>
	<g id="POLYLINE_33379_">
		
			<line fill="none" stroke="#FFFFFF" stroke-width="0.18" stroke-linecap="square" stroke-miterlimit="10" x1="63.592" y1="17.208" x2="72.1" y2="17.376"/>
	</g>
	<g id="POLYLINE_33378_">
		<polygon fill="none" stroke="#FFFFFF" stroke-width="0.18" stroke-linecap="square" stroke-miterlimit="10" points="61.882,6.707 
			61.882,15.15 67.93,15.15 67.93,16.131 92.143,16.131 92.143,16.698 67.363,16.698 67.363,15.717 61.316,15.717 61.316,6.707 		
			"/>
	</g>
</g>
<g id="PLAN_x24_CLOISON_1.1">
</g>
<g id="PLAN_x24_STRUCTURE_2.3">
</g>
<g id="PLAN_x24_STRUCTURE_2.2">
</g>
<g id="PLAN_x24_STRUCTURE_2.1">
</g>
<g id="PLAN_x24_STRUCTURE_1.3">
</g>
<g id="PLAN_x24_STRUCTURE_1.2">
	<g id="POLYLINE_33288_">
		<polygon fill="none" stroke="#FFFFFF" stroke-width="0.45" stroke-linecap="square" stroke-miterlimit="10" points="96.1,27.834 
			94.934,27.834 94.934,28.05 92.15,28.05 92.15,33.281 94.934,33.281 94.934,33.52 96.1,33.52 		"/>
	</g>
	<g id="POLYLINE_33287_">
		<polygon fill="none" stroke="#FFFFFF" stroke-width="0.45" stroke-linecap="square" stroke-miterlimit="10" points="
			96.093,15.915 94.927,15.915 94.927,16.131 92.143,16.131 92.143,20.461 94.927,20.461 94.927,20.7 96.093,20.7 		"/>
	</g>
	<g id="POLYLINE_33286_">
		
			<line fill="none" stroke="#FFFFFF" stroke-width="0.45" stroke-linecap="square" stroke-miterlimit="10" x1="92.143" y1="16.131" x2="94.927" y2="16.131"/>
	</g>
	<g id="POLYLINE_33285_">
		<polygon fill="none" stroke="#FFFFFF" stroke-width="0.45" stroke-linecap="square" stroke-miterlimit="10" points="96.1,45.445 
			1.286,44.498 1.186,2.099 92.413,2.099 92.413,1.521 94.291,0.933 96.093,0.933 96.093,8.72 94.927,8.72 94.927,8.481 
			92.385,8.481 92.385,6.707 61.882,6.707 24.436,6.707 24.436,10.784 19.269,10.784 19.269,6.707 13.917,6.707 13.917,3.095 
			3.637,3.095 3.637,6.707 2.853,6.707 2.853,26.873 3.474,26.873 3.474,28.475 2.853,28.475 2.853,39.949 19.269,39.949 
			19.865,39.988 19.865,38.717 23.73,38.717 23.73,39.988 90.458,40.859 90.458,41.23 94.933,41.257 94.959,40.886 96.093,40.886 		
			"/>
	</g>
</g>
<g id="PLAN_x24_STRUCTURE_1.1">
</g>
</svg>
