<?xml version="1.0" encoding="utf-8"?>
<!-- Generator: Adobe Illustrator 22.0.1, SVG Export Plug-In . SVG Version: 6.00 Build 0)  -->
<svg version="1.1" id="Calque_1" xmlns="http://www.w3.org/2000/svg" xmlns:xlink="http://www.w3.org/1999/xlink" x="0px" y="0px"
	 width="113.038px" height="92.408px" viewBox="0 0 113.038 92.408" enable-background="new 0 0 113.038 92.408"
	 xml:space="preserve">
<g id="Calque_1_1_" display="none">
	<rect x="-5440.298" y="-8372.232" display="inline" width="14640" height="9504"/>
</g>
<g id="INFOS_x24_A4" display="none">
	<g id="POLYLINE_47613_" display="inline">
		<rect x="-219.856" y="-365.923" fill="none" width="595.276" height="841.89"/>
	</g>
</g>
<g id="PLAN_x24_FOND">
</g>
<g id="PLAN_x24_POINTILLE">
	<g id="POLYLINE_52747_">
		
			<line fill="none" stroke="#FFFFFF" stroke-width="0.1" stroke-linecap="square" stroke-miterlimit="10" stroke-dasharray="0.5,0.5" x1="4.062" y1="20.16" x2="9.728" y2="23.669"/>
	</g>
	<g id="POLYLINE_52746_">
		
			<line fill="none" stroke="#FFFFFF" stroke-width="0.1" stroke-linecap="square" stroke-miterlimit="10" stroke-dasharray="0.5,0.5" x1="4.062" y1="28.931" x2="9.728" y2="28.931"/>
	</g>
	<g id="ARC_4271_">
		
			<path fill="none" stroke="#FFFFFF" stroke-width="0.1" stroke-linecap="square" stroke-miterlimit="10" stroke-dasharray="0.5,0.5" d="
			M33.252,39.78c-1.329-2.205-4.194-2.915-6.399-1.586c-1.678,1.012-2.545,2.965-2.168,4.888"/>
	</g>
	<g id="POLYLINE_52745_">
		
			<line fill="none" stroke="#FFFFFF" stroke-width="0.1" stroke-linecap="square" stroke-miterlimit="10" stroke-dasharray="0.5,0.5" x1="28.686" y1="41.869" x2="25.179" y2="39.932"/>
	</g>
	<g id="POLYLINE_52744_">
		
			<line fill="none" stroke="#FFFFFF" stroke-width="0.1" stroke-linecap="square" stroke-miterlimit="10" stroke-dasharray="0.5,0.5" x1="29.024" y1="41.574" x2="27.583" y2="37.836"/>
	</g>
	<g id="POLYLINE_52743_">
		
			<line fill="none" stroke="#FFFFFF" stroke-width="0.1" stroke-linecap="square" stroke-miterlimit="10" stroke-dasharray="0.5,0.5" x1="29.472" y1="41.566" x2="30.771" y2="37.776"/>
	</g>
	<g id="POLYLINE_52742_">
		
			<line fill="none" stroke="#FFFFFF" stroke-width="0.1" stroke-linecap="square" stroke-miterlimit="10" stroke-dasharray="0.5,0.5" x1="4.062" y1="27.177" x2="9.728" y2="27.177"/>
	</g>
	<g id="POLYLINE_52741_">
		
			<line fill="none" stroke="#FFFFFF" stroke-width="0.1" stroke-linecap="square" stroke-miterlimit="10" stroke-dasharray="0.5,0.5" x1="4.062" y1="25.423" x2="9.728" y2="25.423"/>
	</g>
	<g id="POLYLINE_52740_">
		
			<line fill="none" stroke="#FFFFFF" stroke-width="0.1" stroke-linecap="square" stroke-miterlimit="10" stroke-dasharray="0.5,0.5" x1="4.062" y1="20.897" x2="9.728" y2="24.406"/>
	</g>
	<g id="POLYLINE_52739_">
		
			<line fill="none" stroke="#FFFFFF" stroke-width="0.1" stroke-linecap="square" stroke-miterlimit="10" stroke-dasharray="0.5,0.5" x1="4.062" y1="21.915" x2="5.705" y2="21.915"/>
	</g>
	<g id="POLYLINE_52737_">
		
			<line fill="none" stroke="#FFFFFF" stroke-width="0.1" stroke-linecap="square" stroke-miterlimit="10" stroke-dasharray="0.5,0.5" x1="4.062" y1="23.669" x2="8.538" y2="23.669"/>
	</g>
</g>
<g id="PLAN_x24_VITRAGE">
	<g id="POLYLINE_51110_">
		<polyline fill="none" stroke="#FFFFFF" stroke-width="0.05" stroke-linecap="square" stroke-miterlimit="10" points="
			34.174,46.958 23.842,46.958 23.842,47.242 34.174,47.242 		"/>
	</g>
	<g id="POLYLINE_51109_">
		<polyline fill="none" stroke="#FFFFFF" stroke-width="0.05" stroke-linecap="square" stroke-miterlimit="10" points="4.062,41.37 
			14.958,41.37 14.958,47.242 15.905,47.242 15.905,46.958 15.242,46.958 15.242,41.087 4.062,41.087 		"/>
	</g>
	<g id="POLYLINE_51108_">
		
			<rect x="94.007" y="3.137" transform="matrix(0.4364 -0.8997 0.8997 0.4364 41.672 91.8427)" fill="none" stroke="#FFFFFF" stroke-width="0.05" stroke-linecap="square" stroke-miterlimit="10" width="0.283" height="19.041"/>
	</g>
	<g id="POLYLINE_51107_">
		
			<rect x="23.681" y="8.062" transform="matrix(0.4364 -0.8997 0.8997 0.4364 -1.0807 30.5212)" fill="none" stroke="#FFFFFF" stroke-width="0.05" stroke-linecap="square" stroke-miterlimit="10" width="0.283" height="16.123"/>
	</g>
	<g id="POLYLINE_51106_">
		
			<rect x="89.976" y="74.75" fill="none" stroke="#FFFFFF" stroke-width="0.05" stroke-linecap="square" stroke-miterlimit="10" width="4.252" height="0.283"/>
	</g>
</g>
<g id="PLAN_x24_MOBILIER">
	<g id="POLYLINE_52205_">
		<polyline fill="none" stroke="#FFFFFF" stroke-width="0.08" stroke-linecap="square" stroke-miterlimit="10" points="
			28.879,36.487 29.616,36.487 33.437,36.487 33.437,25.269 29.616,25.269 28.879,25.269 		"/>
	</g>
	<g id="POLYLINE_52204_">
		<polyline fill="none" stroke="#FFFFFF" stroke-width="0.08" stroke-linecap="square" stroke-miterlimit="10" points="
			19.739,20.381 20.061,19.718 21.811,16.109 28.646,19.424 26.895,23.033 26.573,23.696 		"/>
	</g>
	<g id="POLYLINE_52203_">
		
			<line fill="none" stroke="#FFFFFF" stroke-width="0.08" stroke-linecap="square" stroke-miterlimit="10" x1="15.207" y1="27.329" x2="11.852" y2="27.329"/>
	</g>
	<g id="ARC_4258_">
		<path fill="none" stroke="#FFFFFF" stroke-width="0.08" stroke-linecap="square" stroke-miterlimit="10" d="M22.437,27.386
			c-0.862,0.058-1.514,0.803-1.456,1.665c0.058,0.862,0.803,1.514,1.665,1.456c0.462-0.031,0.886-0.265,1.159-0.639"/>
	</g>
	<g id="CIRCLE_1620_">
		<path fill="none" stroke="#FFFFFF" stroke-width="0.08" stroke-linecap="square" stroke-miterlimit="10" d="M22.412,27.728
			c0-1.293,1.048-2.341,2.341-2.341s2.341,1.048,2.341,2.341s-1.048,2.341-2.341,2.341C23.46,30.068,22.412,29.02,22.412,27.728
			L22.412,27.728z"/>
	</g>
	<g id="CIRCLE_1619_">
		<path fill="none" stroke="#FFFFFF" stroke-width="0.08" stroke-linecap="square" stroke-miterlimit="10" d="M29.367,22.369
			c0-0.919,0.745-1.665,1.665-1.665c0.919,0,1.665,0.745,1.665,1.665s-0.745,1.665-1.665,1.665
			C30.112,24.034,29.367,23.289,29.367,22.369L29.367,22.369z"/>
	</g>
	<g id="POLYLINE_52202_">
		
			<line fill="none" stroke="#FFFFFF" stroke-width="0.08" stroke-linecap="square" stroke-miterlimit="10" x1="25.228" y1="17.767" x2="23.156" y2="22.039"/>
	</g>
	<g id="POLYLINE_52201_">
		
			<rect x="21.589" y="15.04" transform="matrix(0.4364 -0.8997 0.8997 0.4364 -3.8993 32.9242)" fill="none" stroke="#FFFFFF" stroke-width="0.08" stroke-linecap="square" stroke-miterlimit="10" width="5.485" height="9.07"/>
	</g>
	<g id="POLYLINE_52200_">
		
			<line fill="none" stroke="#FFFFFF" stroke-width="0.08" stroke-linecap="square" stroke-miterlimit="10" x1="33.437" y1="32.89" x2="28.879" y2="32.89"/>
	</g>
	<g id="POLYLINE_52199_">
		
			<line fill="none" stroke="#FFFFFF" stroke-width="0.08" stroke-linecap="square" stroke-miterlimit="10" x1="33.437" y1="29.003" x2="28.879" y2="29.003"/>
	</g>
	<g id="POLYLINE_52198_">
		
			<rect x="28.879" y="24.532" fill="none" stroke="#FFFFFF" stroke-width="0.08" stroke-linecap="square" stroke-miterlimit="10" width="5.295" height="12.692"/>
	</g>
	<g id="POLYLINE_52197_">
		
			<line fill="none" stroke="#FFFFFF" stroke-width="0.08" stroke-linecap="square" stroke-miterlimit="10" x1="11.852" y1="28.016" x2="11.852" y2="23.481"/>
	</g>
	<g id="POLYLINE_52196_">
		
			<rect x="11.016" y="23.481" fill="none" stroke="#FFFFFF" stroke-width="0.08" stroke-linecap="square" stroke-miterlimit="10" width="4.191" height="4.535"/>
	</g>
	<g id="POLYLINE_52195_">
		<polyline fill="none" stroke="#FFFFFF" stroke-width="0.08" stroke-linecap="square" stroke-miterlimit="10" points="
			15.242,40.012 15.292,40.204 17.212,39.703 16.727,37.845 15.242,38.232 		"/>
	</g>
	<g id="POLYLINE_52194_">
		
			<rect x="16.108" y="35.047" transform="matrix(0.9676 -0.2524 0.2524 0.9676 -8.5347 5.482)" fill="none" stroke="#FFFFFF" stroke-width="0.08" stroke-linecap="square" stroke-miterlimit="10" width="1.984" height="1.92"/>
	</g>
	<g id="POLYLINE_52193_">
		
			<rect x="12.786" y="34.216" fill="none" stroke="#FFFFFF" stroke-width="0.08" stroke-linecap="square" stroke-miterlimit="10" width="2.455" height="6.87"/>
	</g>
	<g id="POLYLINE_52192_">
		
			<rect x="4.062" y="37.273" fill="none" stroke="#FFFFFF" stroke-width="0.08" stroke-linecap="square" stroke-miterlimit="10" width="3.969" height="3.813"/>
	</g>
	<g id="POLYLINE_52191_">
		
			<rect x="25.082" y="74.944" fill="none" stroke="#FFFFFF" stroke-width="0.08" stroke-linecap="square" stroke-miterlimit="10" width="2.268" height="1.701"/>
	</g>
	<g id="POLYLINE_52190_">
		
			<rect x="28.625" y="80.915" fill="none" stroke="#FFFFFF" stroke-width="0.08" stroke-linecap="square" stroke-miterlimit="10" width="1.701" height="2.268"/>
	</g>
	<g id="POLYLINE_52189_">
		<polygon fill="none" stroke="#FFFFFF" stroke-width="0.08" stroke-linecap="square" stroke-miterlimit="10" points="
			34.174,71.208 22.725,71.208 22.725,74.944 30.326,74.944 30.326,85.136 34.174,85.136 		"/>
	</g>
	<g id="POLYLINE_52188_">
		
			<rect x="7.434" y="58.704" fill="none" stroke="#FFFFFF" stroke-width="0.08" stroke-linecap="square" stroke-miterlimit="10" width="1.701" height="2.268"/>
	</g>
	<g id="POLYLINE_52187_">
		
			<rect x="7.434" y="64.726" fill="none" stroke="#FFFFFF" stroke-width="0.08" stroke-linecap="square" stroke-miterlimit="10" width="1.701" height="2.268"/>
	</g>
	<g id="POLYLINE_52186_">
		
			<rect x="14.64" y="64.726" fill="none" stroke="#FFFFFF" stroke-width="0.08" stroke-linecap="square" stroke-miterlimit="10" width="1.701" height="2.268"/>
	</g>
	<g id="POLYLINE_52185_">
		
			<rect x="14.64" y="58.704" fill="none" stroke="#FFFFFF" stroke-width="0.08" stroke-linecap="square" stroke-miterlimit="10" width="1.701" height="2.268"/>
	</g>
	<g id="POLYLINE_52184_">
		
			<rect x="9.135" y="57.361" fill="none" stroke="#FFFFFF" stroke-width="0.08" stroke-linecap="square" stroke-miterlimit="10" width="5.505" height="11.324"/>
	</g>
	<g id="POLYLINE_52183_">
		
			<rect x="4.062" y="48.281" fill="none" stroke="#FFFFFF" stroke-width="0.08" stroke-linecap="square" stroke-miterlimit="10" width="7.464" height="3.646"/>
	</g>
	<g id="POLYLINE_52182_">
		
			<rect x="6.573" y="46.58" fill="none" stroke="#FFFFFF" stroke-width="0.08" stroke-linecap="square" stroke-miterlimit="10" width="2.268" height="1.701"/>
	</g>
	<g id="POLYLINE_52181_">
		
			<rect x="23.107" y="54.531" fill="none" stroke="#FFFFFF" stroke-width="0.08" stroke-linecap="square" stroke-miterlimit="10" width="3.603" height="7.377"/>
	</g>
	<g id="POLYLINE_52180_">
		
			<rect x="21.426" y="57.013" fill="none" stroke="#FFFFFF" stroke-width="0.08" stroke-linecap="square" stroke-miterlimit="10" width="1.681" height="2.241"/>
	</g>
	<g id="POLYLINE_52179_">
		
			<rect x="29.221" y="52.83" fill="none" stroke="#FFFFFF" stroke-width="0.08" stroke-linecap="square" stroke-miterlimit="10" width="2.268" height="1.701"/>
	</g>
	<g id="POLYLINE_52178_">
		
			<rect x="26.71" y="54.531" fill="none" stroke="#FFFFFF" stroke-width="0.08" stroke-linecap="square" stroke-miterlimit="10" width="7.464" height="3.646"/>
	</g>
	<g id="POLYLINE_52177_">
		
			<rect x="26.71" y="58.177" fill="none" stroke="#FFFFFF" stroke-width="0.08" stroke-linecap="square" stroke-miterlimit="10" width="7.464" height="3.646"/>
	</g>
	<g id="POLYLINE_52176_">
		
			<rect x="29.221" y="61.823" fill="none" stroke="#FFFFFF" stroke-width="0.08" stroke-linecap="square" stroke-miterlimit="10" width="2.268" height="1.701"/>
	</g>
	<g id="POLYLINE_52175_">
		
			<rect x="9.279" y="77.818" fill="none" stroke="#FFFFFF" stroke-width="0.08" stroke-linecap="square" stroke-miterlimit="10" width="2.268" height="1.701"/>
	</g>
	<g id="POLYLINE_52174_">
		
			<rect x="6.768" y="74.172" fill="none" stroke="#FFFFFF" stroke-width="0.08" stroke-linecap="square" stroke-miterlimit="10" width="7.464" height="3.646"/>
	</g>
	<g id="POLYLINE_52173_">
		
			<rect x="22.031" y="85.173" fill="none" stroke="#FFFFFF" stroke-width="0.08" stroke-linecap="square" stroke-miterlimit="10" width="7.007" height="3.165"/>
	</g>
	<g id="POLYLINE_52172_">
		<polygon fill="none" stroke="#FFFFFF" stroke-width="0.08" stroke-linecap="square" stroke-miterlimit="10" points="84.072,18.19 
			84.072,7.909 81.766,6.791 81.395,7.556 79.592,6.791 79.592,18.19 		"/>
	</g>
	<g id="POLYLINE_52171_">
		
			<rect x="97.784" y="30.948" fill="none" stroke="#FFFFFF" stroke-width="0.08" stroke-linecap="square" stroke-miterlimit="10" width="1.701" height="2.268"/>
	</g>
	<g id="POLYLINE_51517_">
		
			<rect x="97.784" y="35.282" fill="none" stroke="#FFFFFF" stroke-width="0.08" stroke-linecap="square" stroke-miterlimit="10" width="1.701" height="2.268"/>
	</g>
	<g id="POLYLINE_51516_">
		
			<rect x="97.784" y="26.614" fill="none" stroke="#FFFFFF" stroke-width="0.08" stroke-linecap="square" stroke-miterlimit="10" width="1.701" height="2.268"/>
	</g>
	<g id="POLYLINE_51515_">
		
			<rect x="104.835" y="26.614" fill="none" stroke="#FFFFFF" stroke-width="0.08" stroke-linecap="square" stroke-miterlimit="10" width="1.701" height="2.268"/>
	</g>
	<g id="POLYLINE_51514_">
		
			<rect x="104.835" y="35.282" fill="none" stroke="#FFFFFF" stroke-width="0.08" stroke-linecap="square" stroke-miterlimit="10" width="1.701" height="2.268"/>
	</g>
	<g id="POLYLINE_51513_">
		
			<rect x="104.835" y="30.948" fill="none" stroke="#FFFFFF" stroke-width="0.08" stroke-linecap="square" stroke-miterlimit="10" width="1.701" height="2.268"/>
	</g>
	<g id="POLYLINE_51512_">
		
			<rect x="99.485" y="25.415" fill="none" stroke="#FFFFFF" stroke-width="0.08" stroke-linecap="square" stroke-miterlimit="10" width="5.351" height="13.334"/>
	</g>
	<g id="POLYLINE_51511_">
		
			<rect x="79.592" y="62.83" fill="none" stroke="#FFFFFF" stroke-width="0.08" stroke-linecap="square" stroke-miterlimit="10" width="1.385" height="6.137"/>
	</g>
	<g id="POLYLINE_51510_">
		
			<line fill="none" stroke="#FFFFFF" stroke-width="0.08" stroke-linecap="square" stroke-miterlimit="10" x1="82.511" y1="57.048" x2="84.784" y2="62.83"/>
	</g>
	<g id="POLYLINE_51509_">
		
			<line fill="none" stroke="#FFFFFF" stroke-width="0.08" stroke-linecap="square" stroke-miterlimit="10" x1="82.511" y1="57.048" x2="82.511" y2="62.83"/>
	</g>
	<g id="POLYLINE_51508_">
		
			<rect x="79.97" y="58.591" fill="none" stroke="#FFFFFF" stroke-width="0.08" stroke-linecap="square" stroke-miterlimit="10" width="2.162" height="2.855"/>
	</g>
	<g id="POLYLINE_51507_">
		
			<rect x="79.592" y="57.048" fill="none" stroke="#FFFFFF" stroke-width="0.08" stroke-linecap="square" stroke-miterlimit="10" width="12.756" height="5.783"/>
	</g>
	<g id="POLYLINE_51506_">
		
			<line fill="none" stroke="#FFFFFF" stroke-width="0.08" stroke-linecap="square" stroke-miterlimit="10" x1="82.511" y1="68.968" x2="84.784" y2="74.75"/>
	</g>
	<g id="POLYLINE_51505_">
		
			<line fill="none" stroke="#FFFFFF" stroke-width="0.08" stroke-linecap="square" stroke-miterlimit="10" x1="82.511" y1="68.968" x2="82.511" y2="74.75"/>
	</g>
	<g id="POLYLINE_51504_">
		
			<rect x="79.97" y="70.511" fill="none" stroke="#FFFFFF" stroke-width="0.08" stroke-linecap="square" stroke-miterlimit="10" width="2.162" height="2.855"/>
	</g>
	<g id="POLYLINE_51503_">
		
			<rect x="79.592" y="68.968" fill="none" stroke="#FFFFFF" stroke-width="0.08" stroke-linecap="square" stroke-miterlimit="10" width="12.756" height="5.783"/>
	</g>
	<g id="POLYLINE_51502_">
		
			<rect x="97.488" y="64.682" fill="none" stroke="#FFFFFF" stroke-width="0.08" stroke-linecap="square" stroke-miterlimit="10" width="2.354" height="5.034"/>
	</g>
	<g id="POLYLINE_51501_">
		
			<rect x="97.488" y="69.716" fill="none" stroke="#FFFFFF" stroke-width="0.08" stroke-linecap="square" stroke-miterlimit="10" width="2.354" height="5.034"/>
	</g>
	<g id="CIRCLE_1618_">
		<path fill="none" stroke="#FFFFFF" stroke-width="0.08" stroke-linecap="square" stroke-miterlimit="10" d="M108.079,60.746
			c0-0.163,0.132-0.294,0.294-0.294s0.294,0.132,0.294,0.294s-0.132,0.294-0.294,0.294S108.079,60.909,108.079,60.746
			L108.079,60.746z"/>
	</g>
	<g id="POLYLINE_51500_">
		
			<rect x="106.274" y="59.934" fill="none" stroke="#FFFFFF" stroke-width="0.08" stroke-linecap="square" stroke-miterlimit="10" width="2.979" height="3.137"/>
	</g>
	<g id="POLYLINE_51499_">
		
			<line fill="none" stroke="#FFFFFF" stroke-width="0.08" stroke-linecap="square" stroke-miterlimit="10" x1="109.704" y1="72.393" x2="105.856" y2="72.393"/>
	</g>
	<g id="POLYLINE_51498_">
		
			<line fill="none" stroke="#FFFFFF" stroke-width="0.08" stroke-linecap="square" stroke-miterlimit="10" x1="109.704" y1="68.985" x2="105.856" y2="68.985"/>
	</g>
	<g id="POLYLINE_51497_">
		
			<line fill="none" stroke="#FFFFFF" stroke-width="0.08" stroke-linecap="square" stroke-miterlimit="10" x1="109.704" y1="56.298" x2="105.856" y2="56.298"/>
	</g>
	<g id="POLYLINE_51496_">
		
			<line fill="none" stroke="#FFFFFF" stroke-width="0.08" stroke-linecap="square" stroke-miterlimit="10" x1="109.704" y1="52.524" x2="105.856" y2="52.524"/>
	</g>
	<g id="POLYLINE_51495_">
		
			<line fill="none" stroke="#FFFFFF" stroke-width="0.08" stroke-linecap="square" stroke-miterlimit="10" x1="107.836" y1="48.686" x2="105.856" y2="48.686"/>
	</g>
	<g id="POLYLINE_51494_">
		<polygon fill="none" stroke="#FFFFFF" stroke-width="0.08" stroke-linecap="square" stroke-miterlimit="10" points="
			105.856,45.641 105.856,74.75 109.704,74.75 109.704,48.686 107.836,48.686 107.836,45.641 		"/>
	</g>
	<g id="POLYLINE_51493_">
		
			<rect x="100.802" y="84.757" transform="matrix(0.2703 -0.9628 0.9628 0.2703 -8.3769 161.2969)" fill="none" stroke="#FFFFFF" stroke-width="0.08" stroke-linecap="square" stroke-miterlimit="10" width="2.835" height="2.835"/>
	</g>
	<g id="POLYLINE_51492_">
		
			<rect x="97.657" y="78.937" transform="matrix(0.2703 -0.9628 0.9628 0.2703 -5.069 154.0218)" fill="none" stroke="#FFFFFF" stroke-width="0.08" stroke-linecap="square" stroke-miterlimit="10" width="2.835" height="2.835"/>
	</g>
	<g id="POLYLINE_51491_">
		
			<rect x="105.851" y="75.884" fill="none" stroke="#FFFFFF" stroke-width="0.08" stroke-linecap="square" stroke-miterlimit="10" width="3.853" height="12.454"/>
	</g>
	<g id="POLYLINE_51490_">
		
			<rect x="94.162" y="84.277" fill="none" stroke="#FFFFFF" stroke-width="0.08" stroke-linecap="square" stroke-miterlimit="10" width="4.437" height="4.061"/>
	</g>
	<g id="POLYLINE_51489_">
		
			<rect x="85.264" y="46.585" fill="none" stroke="#FFFFFF" stroke-width="0.08" stroke-linecap="square" stroke-miterlimit="10" width="3.745" height="2.4"/>
	</g>
	<g id="CIRCLE_1617_">
		<path fill="none" stroke="#FFFFFF" stroke-width="0.08" stroke-linecap="square" stroke-miterlimit="10" d="M87.271,47.449
			c0.001-0.126-0.099-0.229-0.225-0.231s-0.229,0.099-0.231,0.225s0.099,0.229,0.225,0.231
			C87.166,47.676,87.27,47.575,87.271,47.449L87.271,47.449z"/>
	</g>
	<g id="SPLINE_1476_">
		<path fill="none" stroke="#FFFFFF" stroke-width="0.08" stroke-linecap="square" stroke-miterlimit="10" d="M90.883,55.008
			c0.059-0.23,0.098-0.466,0.112-0.703c0.01-0.18,0.006-0.36-0.006-0.54c-0.016-0.23-0.044-0.46-0.13-0.679
			c-0.048-0.124-0.115-0.245-0.212-0.33c-0.151-0.132-0.375-0.175-0.584-0.187c-0.112-0.007-0.219-0.005-0.329,0.013
			c-0.156,0.025-0.317,0.082-0.433,0.182c-0.177,0.153-0.251,0.409-0.295,0.654c-0.049,0.272-0.061,0.531-0.049,0.795
			c0.008,0.175,0.027,0.352,0.058,0.527c0.016,0.091,0.036,0.18,0.058,0.269"/>
	</g>
	<g id="POLYLINE_51488_">
		
			<rect x="88.493" y="55.008" fill="none" stroke="#FFFFFF" stroke-width="0.08" stroke-linecap="square" stroke-miterlimit="10" width="2.971" height="1.473"/>
	</g>
	<g id="POLYLINE_51487_">
		
			<line fill="none" stroke="#FFFFFF" stroke-width="0.08" stroke-linecap="square" stroke-miterlimit="10" x1="15.207" y1="24.168" x2="11.852" y2="24.168"/>
	</g>
</g>
<g id="PLAN_x24_DETAIL">
	<g id="POLYLINE_52255_">
		<polyline fill="none" stroke="#FFFFFF" stroke-width="0.08" stroke-linecap="square" stroke-miterlimit="10" points="
			79.592,35.687 85.706,35.687 91.821,35.687 		"/>
	</g>
	<g id="POLYLINE_52254_">
		
			<line fill="none" stroke="#FFFFFF" stroke-width="0.08" stroke-linecap="square" stroke-miterlimit="10" x1="28.616" y1="42.312" x2="24.685" y2="43.082"/>
	</g>
	<g id="ARC_4269_">
		<path fill="none" stroke="#FFFFFF" stroke-width="0.08" stroke-linecap="square" stroke-miterlimit="10" d="M24.685,43.082
			c0.495,2.526,2.944,4.173,5.47,3.679c2.526-0.495,4.173-2.944,3.679-5.47c-0.104-0.534-0.302-1.045-0.582-1.511"/>
	</g>
	<g id="POLYLINE_52253_">
		
			<line fill="none" stroke="#FFFFFF" stroke-width="0.08" stroke-linecap="square" stroke-miterlimit="10" x1="33.252" y1="39.78" x2="29.821" y2="41.848"/>
	</g>
	<g id="POLYLINE_52252_">
		<polyline fill="none" stroke="#FFFFFF" stroke-width="0.08" stroke-linecap="square" stroke-miterlimit="10" points="
			79.592,30.425 85.706,30.425 91.821,30.425 		"/>
	</g>
	<g id="POLYLINE_52251_">
		<polyline fill="none" stroke="#FFFFFF" stroke-width="0.08" stroke-linecap="square" stroke-miterlimit="10" points="
			79.592,32.179 85.706,32.179 91.821,32.179 		"/>
	</g>
	<g id="POLYLINE_52250_">
		<polyline fill="none" stroke="#FFFFFF" stroke-width="0.08" stroke-linecap="square" stroke-miterlimit="10" points="
			79.592,33.933 85.706,33.933 91.821,33.933 		"/>
	</g>
	<g id="POLYLINE_52249_">
		<polyline fill="none" stroke="#FFFFFF" stroke-width="0.08" stroke-linecap="square" stroke-miterlimit="10" points="
			79.592,26.916 85.706,26.916 91.821,26.916 		"/>
	</g>
	<g id="POLYLINE_52248_">
		<polyline fill="none" stroke="#FFFFFF" stroke-width="0.08" stroke-linecap="square" stroke-miterlimit="10" points="
			79.592,28.671 85.706,28.671 91.821,28.671 		"/>
	</g>
	<g id="POLYLINE_52247_">
		<polyline fill="none" stroke="#FFFFFF" stroke-width="0.08" stroke-linecap="square" stroke-miterlimit="10" points="
			79.592,37.442 85.706,37.442 91.821,37.442 		"/>
	</g>
	<g id="POLYLINE_52246_">
		
			<line fill="none" stroke="#FFFFFF" stroke-width="0.08" stroke-linecap="square" stroke-miterlimit="10" x1="79.592" y1="39.196" x2="91.821" y2="39.196"/>
	</g>
	<g id="POLYLINE_52245_">
		
			<line fill="none" stroke="#FFFFFF" stroke-width="0.08" stroke-linecap="square" stroke-miterlimit="10" x1="85.706" y1="25.162" x2="85.706" y2="39.196"/>
	</g>
	<g id="POLYLINE_52244_">
		<polyline fill="none" stroke="#FFFFFF" stroke-width="0.08" stroke-linecap="square" stroke-miterlimit="10" points="
			32.026,17.724 17.518,10.688 16.652,12.473 		"/>
	</g>
	<g id="POLYLINE_52243_">
		
			<line fill="none" stroke="#FFFFFF" stroke-width="0.08" stroke-linecap="square" stroke-miterlimit="10" x1="11.622" y1="11.915" x2="12.308" y2="6.947"/>
	</g>
	<g id="ARC_4268_">
		<path fill="none" stroke="#FFFFFF" stroke-width="0.08" stroke-linecap="square" stroke-miterlimit="10" d="M12.308,6.947
			c2.744,0.379,4.661,2.91,4.282,5.653"/>
	</g>
	<g id="POLYLINE_52242_">
		
			<line fill="none" stroke="#FFFFFF" stroke-width="0.08" stroke-linecap="square" stroke-miterlimit="10" x1="6.329" y1="6.964" x2="4.084" y2="11.489"/>
	</g>
	<g id="ARC_4267_">
		<path fill="none" stroke="#FFFFFF" stroke-width="0.08" stroke-linecap="square" stroke-miterlimit="10" d="M4.084,11.489
			c2.499,1.24,5.53,0.218,6.77-2.281"/>
	</g>
	<g id="POLYLINE_52241_">
		
			<rect x="81.599" y="85.014" fill="none" stroke="#FFFFFF" stroke-width="0.08" stroke-linecap="square" stroke-miterlimit="10" width="12.563" height="3.324"/>
	</g>
	<g id="POLYLINE_52240_">
		
			<line fill="none" stroke="#FFFFFF" stroke-width="0.08" stroke-linecap="square" stroke-miterlimit="10" x1="81.599" y1="88.338" x2="109.704" y2="88.338"/>
	</g>
	<g id="POLYLINE_52239_">
		
			<line fill="none" stroke="#FFFFFF" stroke-width="0.08" stroke-linecap="square" stroke-miterlimit="10" x1="81.599" y1="89.755" x2="109.704" y2="89.755"/>
	</g>
	<g id="POLYLINE_52238_">
		<polyline fill="none" stroke="#FFFFFF" stroke-width="0.08" stroke-linecap="square" stroke-miterlimit="10" points="
			84.071,56.481 84.071,49.88 79.592,49.88 		"/>
	</g>
	<g id="CIRCLE_1622_">
		<path fill="none" stroke="#FFFFFF" stroke-width="0.08" stroke-linecap="square" stroke-miterlimit="10" d="M80.466,53.339
			c0-0.103,0.084-0.187,0.187-0.187s0.187,0.084,0.187,0.187s-0.084,0.187-0.187,0.187S80.466,53.442,80.466,53.339L80.466,53.339z"
			/>
	</g>
	<g id="POLYLINE_52237_">
		
			<line fill="none" stroke="#FFFFFF" stroke-width="0.08" stroke-linecap="square" stroke-miterlimit="10" x1="81.173" y1="53.867" x2="82.183" y2="54.892"/>
	</g>
	<g id="POLYLINE_52236_">
		
			<line fill="none" stroke="#FFFFFF" stroke-width="0.08" stroke-linecap="square" stroke-miterlimit="10" x1="81.181" y1="52.818" x2="82.207" y2="51.809"/>
	</g>
	<g id="POLYLINE_52235_">
		
			<line fill="none" stroke="#FFFFFF" stroke-width="0.08" stroke-linecap="square" stroke-miterlimit="10" x1="81.395" y1="53.339" x2="82.833" y2="53.339"/>
	</g>
	<g id="POLYLINE_52234_">
		
			<line fill="none" stroke="#FFFFFF" stroke-width="0.08" stroke-linecap="square" stroke-miterlimit="10" x1="4.062" y1="14.898" x2="9.728" y2="14.898"/>
	</g>
	<g id="POLYLINE_52233_">
		
			<line fill="none" stroke="#FFFFFF" stroke-width="0.08" stroke-linecap="square" stroke-miterlimit="10" x1="79.592" y1="25.162" x2="91.821" y2="25.162"/>
	</g>
	<g id="POLYLINE_52232_">
		
			<line fill="none" stroke="#FFFFFF" stroke-width="0.08" stroke-linecap="square" stroke-miterlimit="10" x1="29.907" y1="42.288" x2="33.864" y2="42.909"/>
	</g>
	<g id="POLYLINE_52231_">
		
			<line fill="none" stroke="#FFFFFF" stroke-width="0.08" stroke-linecap="square" stroke-miterlimit="10" x1="29.69" y1="42.68" x2="32.322" y2="45.7"/>
	</g>
	<g id="POLYLINE_52230_">
		
			<line fill="none" stroke="#FFFFFF" stroke-width="0.08" stroke-linecap="square" stroke-miterlimit="10" x1="29.272" y1="42.841" x2="29.347" y2="46.847"/>
	</g>
	<g id="POLYLINE_52229_">
		
			<line fill="none" stroke="#FFFFFF" stroke-width="0.08" stroke-linecap="square" stroke-miterlimit="10" x1="28.847" y1="42.696" x2="26.331" y2="45.813"/>
	</g>
	<g id="CIRCLE_1621_">
		<path fill="none" stroke="#FFFFFF" stroke-width="0.08" stroke-linecap="square" stroke-miterlimit="10" d="M28.604,42.186
			c0-0.362,0.293-0.655,0.655-0.655s0.655,0.293,0.655,0.655s-0.293,0.655-0.655,0.655S28.604,42.548,28.604,42.186L28.604,42.186z"
			/>
	</g>
	<g id="POLYLINE_52228_">
		
			<line fill="none" stroke="#FFFFFF" stroke-width="0.08" stroke-linecap="square" stroke-miterlimit="10" x1="23.842" y1="47.1" x2="23.842" y2="43.131"/>
	</g>
	<g id="ARC_4266_">
		<path fill="none" stroke="#FFFFFF" stroke-width="0.08" stroke-linecap="square" stroke-miterlimit="10" d="M23.842,43.131
			c-2.192,0-3.969,1.777-3.969,3.969"/>
	</g>
	<g id="POLYLINE_52227_">
		
			<line fill="none" stroke="#FFFFFF" stroke-width="0.08" stroke-linecap="square" stroke-miterlimit="10" x1="15.905" y1="47.1" x2="15.905" y2="43.131"/>
	</g>
	<g id="ARC_4265_">
		<path fill="none" stroke="#FFFFFF" stroke-width="0.08" stroke-linecap="square" stroke-miterlimit="10" d="M15.905,43.131
			c2.192,0,3.969,1.777,3.969,3.969"/>
	</g>
	<g id="POLYLINE_52226_">
		
			<line fill="none" stroke="#FFFFFF" stroke-width="0.08" stroke-linecap="square" stroke-miterlimit="10" x1="4.626" y1="31.976" x2="4.626" y2="26.874"/>
	</g>
	<g id="ARC_4264_">
		<path fill="none" stroke="#FFFFFF" stroke-width="0.08" stroke-linecap="square" stroke-miterlimit="10" d="M4.626,26.874
			c2.818,0,5.102,2.284,5.102,5.102"/>
	</g>
	<g id="POLYLINE_52225_">
		
			<line fill="none" stroke="#FFFFFF" stroke-width="0.08" stroke-linecap="square" stroke-miterlimit="10" x1="86.123" y1="18.473" x2="86.123" y2="13.371"/>
	</g>
	<g id="ARC_4263_">
		<path fill="none" stroke="#FFFFFF" stroke-width="0.08" stroke-linecap="square" stroke-miterlimit="10" d="M86.123,13.371
			c2.818,0,5.102,2.284,5.102,5.102"/>
	</g>
	<g id="POLYLINE_52224_">
		
			<line fill="none" stroke="#FFFFFF" stroke-width="0.08" stroke-linecap="square" stroke-miterlimit="10" x1="100.749" y1="75.317" x2="100.749" y2="70.215"/>
	</g>
	<g id="ARC_4262_">
		<path fill="none" stroke="#FFFFFF" stroke-width="0.08" stroke-linecap="square" stroke-miterlimit="10" d="M100.749,70.215
			c2.818,0,5.102,2.284,5.102,5.102"/>
	</g>
	<g id="POLYLINE_52223_">
		
			<line fill="none" stroke="#FFFFFF" stroke-width="0.08" stroke-linecap="square" stroke-miterlimit="10" x1="94.353" y1="52.204" x2="94.353" y2="57.306"/>
	</g>
	<g id="ARC_4261_">
		<path fill="none" stroke="#FFFFFF" stroke-width="0.08" stroke-linecap="square" stroke-miterlimit="10" d="M94.353,57.306
			c2.818,0,5.102-2.284,5.102-5.102"/>
	</g>
	<g id="POLYLINE_52222_">
		
			<line fill="none" stroke="#FFFFFF" stroke-width="0.08" stroke-linecap="square" stroke-miterlimit="10" x1="93.501" y1="51.028" x2="89.533" y2="51.028"/>
	</g>
	<g id="ARC_4260_">
		<path fill="none" stroke="#FFFFFF" stroke-width="0.08" stroke-linecap="square" stroke-miterlimit="10" d="M89.533,51.028
			c0-2.192,1.777-3.969,3.969-3.969"/>
	</g>
	<g id="POLYLINE_52221_">
		<polyline fill="none" stroke="#FFFFFF" stroke-width="0.08" stroke-linecap="square" stroke-miterlimit="10" points="
			106.146,17.041 108.1,13.013 85.341,1.974 83.388,6.002 		"/>
	</g>
	<g id="POLYLINE_52220_">
		<polyline fill="none" stroke="#FFFFFF" stroke-width="0.08" stroke-linecap="square" stroke-miterlimit="10" points="
			106.657,17.288 108.858,12.751 85.078,1.217 82.877,5.754 		"/>
	</g>
	<g id="POLYLINE_52219_">
		
			<line fill="none" stroke="#FFFFFF" stroke-width="0.08" stroke-linecap="square" stroke-miterlimit="10" x1="4.062" y1="20.16" x2="9.728" y2="20.16"/>
	</g>
	<g id="POLYLINE_52218_">
		
			<line fill="none" stroke="#FFFFFF" stroke-width="0.08" stroke-linecap="square" stroke-miterlimit="10" x1="4.062" y1="18.406" x2="9.728" y2="18.406"/>
	</g>
	<g id="POLYLINE_52217_">
		
			<line fill="none" stroke="#FFFFFF" stroke-width="0.08" stroke-linecap="square" stroke-miterlimit="10" x1="4.062" y1="16.652" x2="9.728" y2="16.652"/>
	</g>
	<g id="POLYLINE_52216_">
		
			<line fill="none" stroke="#FFFFFF" stroke-width="0.08" stroke-linecap="square" stroke-miterlimit="10" x1="6.895" y1="21.915" x2="9.728" y2="21.915"/>
	</g>
</g>
<g id="PLAN_x24_CLOISON_TRANSLUCIDE">
</g>
<g id="PLAN_x24_CLOISON_1.3">
</g>
<g id="PLAN_x24_CLOISON_1.2">
	<g id="POLYLINE_52355_">
		<polyline fill="none" stroke="#FFFFFF" stroke-width="0.18" stroke-linecap="square" stroke-miterlimit="10" points="
			79.592,18.19 86.123,18.19 86.123,18.756 79.592,18.756 		"/>
	</g>
	<g id="POLYLINE_52354_">
		<polyline fill="none" stroke="#FFFFFF" stroke-width="0.18" stroke-linecap="square" stroke-miterlimit="10" points="
			79.592,56.481 93.218,56.481 93.218,51.028 93.785,51.028 93.785,51.92 94.353,51.92 94.353,52.487 93.785,52.487 93.785,57.048 
			79.592,57.048 		"/>
	</g>
	<g id="POLYLINE_52353_">
		<polyline fill="none" stroke="#FFFFFF" stroke-width="0.18" stroke-linecap="square" stroke-miterlimit="10" points="
			79.592,45.922 91.821,45.922 91.821,18.756 91.225,18.756 91.225,18.19 92.388,18.19 92.388,45.922 93.785,45.922 93.785,47.06 
			93.218,47.06 93.218,46.489 79.592,46.489 		"/>
	</g>
	<g id="POLYLINE_52352_">
		<polygon fill="none" stroke="#FFFFFF" stroke-width="0.18" stroke-linecap="square" stroke-miterlimit="10" points="
			99.842,52.487 99.842,74.75 100.409,74.75 100.409,51.92 99.842,51.92 99.456,51.92 99.456,52.487 		"/>
	</g>
	<g id="POLYLINE_52351_">
		<polyline fill="none" stroke="#FFFFFF" stroke-width="0.18" stroke-linecap="square" stroke-miterlimit="10" points="
			4.062,84.641 20.488,84.641 20.488,88.338 		"/>
	</g>
	<g id="POLYLINE_52350_">
		<polyline fill="none" stroke="#FFFFFF" stroke-width="0.18" stroke-linecap="square" stroke-miterlimit="10" points="
			4.062,84.074 21.055,84.074 21.055,88.338 		"/>
	</g>
	<g id="POLYLINE_52349_">
		
			<rect x="105.856" y="45.074" fill="none" stroke="#FFFFFF" stroke-width="0.18" stroke-linecap="square" stroke-miterlimit="10" width="1.98" height="0.567"/>
	</g>
</g>
<g id="PLAN_x24_CLOISON_1.1">
</g>
<g id="PLAN_x24_STRUCTURE_2.3">
	<g id="POLYLINE_51069_">
		
			<rect x="79.592" y="74.75" fill="none" stroke="#FFFFFF" stroke-width="0.27" stroke-linecap="square" stroke-miterlimit="10" width="10.384" height="1.134"/>
	</g>
	<g id="POLYLINE_51068_">
		
			<rect x="105.851" y="74.75" fill="none" stroke="#FFFFFF" stroke-width="0.27" stroke-linecap="square" stroke-miterlimit="10" width="3.853" height="1.134"/>
	</g>
	<g id="POLYLINE_51067_">
		
			<rect x="94.228" y="74.75" fill="none" stroke="#FFFFFF" stroke-width="0.27" stroke-linecap="square" stroke-miterlimit="10" width="6.521" height="1.134"/>
	</g>
	<g id="POLYLINE_51065_">
		
			<line fill="none" stroke="#FFFFFF" stroke-width="0.27" stroke-linecap="square" stroke-miterlimit="10" x1="11.208" y1="7.627" x2="11.993" y2="8.008"/>
	</g>
	<g id="POLYLINE_51064_">
		
			<rect x="4.062" y="31.532" fill="none" stroke="#FFFFFF" stroke-width="0.27" stroke-linecap="square" stroke-miterlimit="10" width="0.564" height="0.85"/>
	</g>
	<g id="POLYLINE_51063_">
		
			<rect x="81.599" y="84.277" fill="none" stroke="#FFFFFF" stroke-width="0.27" stroke-linecap="square" stroke-miterlimit="10" width="12.563" height="0.737"/>
	</g>
</g>
<g id="PLAN_x24_STRUCTURE_2.2">
</g>
<g id="PLAN_x24_STRUCTURE_2.1">
</g>
<g id="PLAN_x24_STRUCTURE_1.3">
	<g id="POLYLINE_51066_">
		<polygon fill="none" stroke="#FFFFFF" stroke-width="0.41" stroke-linecap="square" stroke-miterlimit="10" points="
			10.579,14.234 11.476,13.399 11.993,8.008 11.208,7.627 9.728,14.138 9.728,32.382 10.579,32.382 		"/>
	</g>
</g>
<g id="PLAN_x24_STRUCTURE_1.2">
	<g id="POLYLINE_52341_">
		<polygon fill="none" stroke="#FFFFFF" stroke-width="0.45" stroke-linecap="square" stroke-miterlimit="10" points="81.766,6.791 
			85.542,8.622 86.161,7.347 78.174,3.473 78.174,89.755 81.599,89.755 81.599,88.338 81.599,84.277 79.592,84.277 79.592,6.681 
			81.395,7.556 		"/>
	</g>
	<g id="POLYLINE_52340_">
		<polygon fill="none" stroke="#FFFFFF" stroke-width="0.45" stroke-linecap="square" stroke-miterlimit="10" points="
			109.704,48.686 109.704,86.825 109.704,89.755 111.122,89.755 111.122,19.454 103.294,15.657 102.675,16.933 106.967,19.014 
			106.596,19.779 109.459,21.168 109.021,22.072 109.704,22.434 109.704,45.074 107.836,45.074 107.836,48.686 		"/>
	</g>
	<g id="POLYLINE_52339_">
		<polygon fill="none" stroke="#FFFFFF" stroke-width="0.45" stroke-linecap="square" stroke-miterlimit="10" points="6.003,7.623 
			4.062,6.681 4.062,86.825 6.069,86.825 6.069,88.338 32.167,88.338 32.167,86.825 34.174,86.825 34.174,22.434 33.491,22.072 
			33.929,21.168 31.036,19.765 32.026,17.724 35.592,19.454 35.592,89.755 2.645,89.755 2.645,3.473 6.993,5.582 		"/>
	</g>
</g>
<g id="PLAN_x24_STRUCTURE_1.1">
</g>
</svg>
