<?xml version="1.0" encoding="utf-8"?>
<!-- Generator: Adobe Illustrator 22.0.1, SVG Export Plug-In . SVG Version: 6.00 Build 0)  -->
<svg version="1.1" xmlns="http://www.w3.org/2000/svg" xmlns:xlink="http://www.w3.org/1999/xlink" x="0px" y="0px" width="397.6px"
	 height="397.6px" viewBox="0 0 397.6 397.6" style="enable-background:new 0 0 397.6 397.6;" xml:space="preserve">
<style type="text/css">
	.st0{display:none;}
	.st1{display:inline;stroke:#FFFFFF;stroke-linecap:round;stroke-linejoin:round;}
	.st2{fill:#FFFFFF;stroke:#FFFFFF;stroke-width:0.4;stroke-miterlimit:10;}
	.st3{fill:none;stroke:#FFFFFF;stroke-linecap:square;}
	.st4{fill:none;stroke:#FFFFFF;stroke-width:0.7;stroke-linecap:square;}
	.st5{fill:none;stroke:#FFFFFF;stroke-width:0.55;stroke-linecap:square;}
	.st6{fill:none;stroke:#FFFFFF;stroke-width:0.6;stroke-linecap:square;stroke-dasharray:2,3;}
	.st7{fill:none;stroke:#FFFFFF;stroke-width:0.2;stroke-linecap:square;stroke-dasharray:2,3;}
	.st8{fill:none;stroke:#FFFFFF;stroke-width:0.3;stroke-linecap:square;}
	.st9{fill:none;stroke:#FFFFFF;stroke-width:0.5;stroke-linecap:square;}
	.st10{fill:none;stroke:#FFFFFF;stroke-width:0.7;stroke-linecap:square;stroke-dasharray:2,3;}
	.st11{fill:none;stroke:#FFFFFF;stroke-width:0.4;stroke-linecap:square;}
	.st12{display:inline;}
	.st13{fill:#FFFFFF;}
	.st14{display:inline;fill:none;stroke:#000000;stroke-linecap:round;stroke-linejoin:round;}
</style>
<g id="FOND" class="st0">
	<rect x="-525.7" y="-535.9" class="st1" width="1470.6" height="1969.9"/>
</g>
<g id="Calque_1" class="st0">
</g>
<g id="PLAN::STRUCTURE_1.1">
</g>
<g id="PLAN::IPN">
</g>
<g id="PLAN::STRUCTURE_2.3">
	<polygon class="st4" points="46.7,247.2 164.7,42.9 232.8,42.9 350.8,247.2 316.8,306.2 80.8,306.2 	"/>
	<polygon class="st4" points="92.4,298 59.7,241.3 166,57 231.5,57 337.9,241.3 305.2,298 	"/>
	<line class="st4" x1="213.5" y1="57" x2="213.5" y2="42.9"/>
	<line class="st4" x1="226.7" y1="57" x2="226.7" y2="42.9"/>
	<line class="st4" x1="231.5" y1="57" x2="238.6" y2="52.9"/>
	<line class="st4" x1="198.8" y1="57" x2="198.8" y2="42.9"/>
	<line class="st4" x1="184.2" y1="57" x2="184.2" y2="42.9"/>
	<line class="st4" x1="170.4" y1="57" x2="170.4" y2="42.9"/>
	<line class="st4" x1="166" y1="57" x2="158.9" y2="52.9"/>
	<line class="st4" x1="170.4" y1="49.3" x2="184.2" y2="49.3"/>
	<line class="st4" x1="177.3" y1="49.3" x2="177.3" y2="57"/>
	<line class="st4" x1="213.5" y1="49.3" x2="226.7" y2="49.3"/>
	<line class="st4" x1="220.1" y1="49.3" x2="220.1" y2="57"/>
	<line class="st4" x1="68.7" y1="256.9" x2="56.4" y2="264"/>
	<line class="st4" x1="62.1" y1="245.5" x2="49.8" y2="252.6"/>
	<line class="st4" x1="59.7" y1="241.3" x2="52.5" y2="237.2"/>
	<line class="st4" x1="76" y1="269.6" x2="63.8" y2="276.7"/>
	<line class="st4" x1="83.3" y1="282.2" x2="71" y2="289.3"/>
	<line class="st4" x1="90.2" y1="294.2" x2="77.9" y2="301.3"/>
	<line class="st4" x1="92.4" y1="298" x2="92.4" y2="306.2"/>
	<line class="st4" x1="83.5" y1="298.1" x2="76.6" y2="286.1"/>
	<line class="st4" x1="80" y1="292.1" x2="86.8" y2="288.2"/>
	<line class="st4" x1="62" y1="260.8" x2="55.4" y2="249.3"/>
	<line class="st4" x1="58.7" y1="255" x2="65.4" y2="251.2"/>
	<line class="st4" x1="338.9" y1="255" x2="332.2" y2="251.2"/>
	<line class="st4" x1="335.6" y1="260.8" x2="342.2" y2="249.3"/>
	<line class="st4" x1="317.5" y1="292.1" x2="310.8" y2="288.2"/>
	<line class="st4" x1="314.1" y1="298.1" x2="321" y2="286.1"/>
	<line class="st4" x1="305.2" y1="298" x2="305.2" y2="306.2"/>
	<line class="st4" x1="307.3" y1="294.2" x2="319.6" y2="301.3"/>
	<line class="st4" x1="314.3" y1="282.2" x2="326.5" y2="289.3"/>
	<line class="st4" x1="321.5" y1="269.6" x2="333.8" y2="276.7"/>
	<line class="st4" x1="337.9" y1="241.3" x2="345" y2="237.2"/>
	<line class="st4" x1="335.5" y1="245.5" x2="347.7" y2="252.6"/>
	<line class="st4" x1="328.9" y1="256.9" x2="341.2" y2="264"/>
	<line class="st4" x1="67.5" y1="227.7" x2="60.4" y2="223.6"/>
	<line class="st4" x1="74.6" y1="215.4" x2="67.5" y2="211.3"/>
	<line class="st4" x1="81.7" y1="203.2" x2="74.6" y2="199.1"/>
	<line class="st4" x1="88.8" y1="190.9" x2="81.6" y2="186.8"/>
	<line class="st4" x1="95.8" y1="178.6" x2="88.7" y2="174.5"/>
	<line class="st4" x1="102.9" y1="166.3" x2="95.8" y2="162.2"/>
	<line class="st4" x1="110" y1="154.1" x2="102.9" y2="150"/>
	<line class="st4" x1="115.7" y1="144.3" x2="108.6" y2="140.1"/>
	<line class="st4" x1="122.8" y1="132" x2="115.7" y2="127.9"/>
	<line class="st4" x1="129.9" y1="119.7" x2="122.7" y2="115.6"/>
	<line class="st4" x1="136.9" y1="107.4" x2="129.8" y2="103.3"/>
	<line class="st4" x1="144" y1="95.2" x2="136.9" y2="91"/>
	<line class="st4" x1="151.1" y1="82.9" x2="144" y2="78.8"/>
	<line class="st4" x1="158.2" y1="70.6" x2="151.1" y2="66.5"/>
	<line class="st4" x1="239.3" y1="70.6" x2="246.5" y2="66.5"/>
	<line class="st4" x1="246.4" y1="82.9" x2="253.5" y2="78.8"/>
	<line class="st4" x1="253.5" y1="95.2" x2="260.6" y2="91"/>
	<line class="st4" x1="260.6" y1="107.4" x2="267.7" y2="103.3"/>
	<line class="st4" x1="267.7" y1="119.7" x2="274.8" y2="115.6"/>
	<line class="st4" x1="274.8" y1="132" x2="281.9" y2="127.9"/>
	<line class="st4" x1="281.9" y1="144.3" x2="289" y2="140.1"/>
	<line class="st4" x1="287.5" y1="154.1" x2="294.6" y2="150"/>
	<line class="st4" x1="294.6" y1="166.3" x2="301.7" y2="162.2"/>
	<line class="st4" x1="301.7" y1="178.6" x2="308.8" y2="174.5"/>
	<line class="st4" x1="308.8" y1="190.9" x2="315.9" y2="186.8"/>
	<line class="st4" x1="315.9" y1="203.2" x2="323" y2="199.1"/>
	<line class="st4" x1="323" y1="215.4" x2="330.1" y2="211.3"/>
	<line class="st4" x1="330" y1="227.7" x2="337.2" y2="223.6"/>
	<line class="st4" x1="108.1" y1="298" x2="108.1" y2="306.2"/>
	<line class="st4" x1="122.2" y1="298" x2="122.2" y2="306.2"/>
	<line class="st4" x1="136.4" y1="298" x2="136.4" y2="306.2"/>
	<line class="st4" x1="150.6" y1="298" x2="150.6" y2="306.2"/>
	<line class="st4" x1="164.8" y1="298" x2="164.8" y2="306.2"/>
	<line class="st4" x1="178.9" y1="298" x2="178.9" y2="306.2"/>
	<line class="st4" x1="193.1" y1="298" x2="193.1" y2="306.2"/>
	<line class="st4" x1="204.4" y1="298" x2="204.4" y2="306.2"/>
	<line class="st4" x1="218.6" y1="298" x2="218.6" y2="306.2"/>
	<line class="st4" x1="232.8" y1="298" x2="232.8" y2="306.2"/>
	<line class="st4" x1="247" y1="298" x2="247" y2="306.2"/>
	<line class="st4" x1="261.1" y1="298" x2="261.1" y2="306.2"/>
	<line class="st4" x1="275.3" y1="298" x2="275.3" y2="306.2"/>
	<line class="st4" x1="289.5" y1="298" x2="289.5" y2="306.2"/>
	<line class="st5" x1="91" y1="200.7" x2="116.1" y2="157.2"/>
	<line class="st5" x1="108.8" y1="169.7" x2="143.6" y2="189.9"/>
	<line class="st5" x1="101.7" y1="182" x2="129.3" y2="197.9"/>
	<line class="st5" x1="94.7" y1="194.3" x2="107.2" y2="201.5"/>
	<polyline class="st5" points="103.5,207.9 128.4,164.7 128.6,164.5 	"/>
	<line class="st4" x1="116.1" y1="157.2" x2="128.6" y2="164.5"/>
	<line class="st5" x1="91" y1="200.7" x2="103.5" y2="207.9"/>
	<rect x="117.7" y="203.2" transform="matrix(0.866 -0.5 0.5 0.866 -87.0716 96.1357)" class="st5" width="36.3" height="14.7"/>
	<line class="st5" x1="123.1" y1="209.4" x2="130.5" y2="222.2"/>
	<line class="st5" x1="126.8" y1="215.8" x2="151.6" y2="201.5"/>
	<line class="st5" x1="142.7" y1="215.1" x2="135.4" y2="202.3"/>
	<rect x="74.7" y="227.9" transform="matrix(0.866 -0.5 0.5 0.866 -105.1774 78.0311)" class="st5" width="36.6" height="14.7"/>
	<line class="st5" x1="86.3" y1="230.7" x2="93.6" y2="243.4"/>
	<line class="st5" x1="77.2" y1="244.4" x2="102.2" y2="230"/>
	<line class="st5" x1="105.9" y1="236.3" x2="98.5" y2="223.6"/>
	<line class="st5" x1="121.4" y1="147.9" x2="134.9" y2="155.7"/>
	<line class="st5" x1="134" y1="155.1" x2="152" y2="124"/>
	<polyline class="st5" points="139.4,116.7 163.3,130.5 163.5,155.4 	"/>
	<line class="st5" x1="163.5" y1="155.4" x2="128.7" y2="135.4"/>
	<line class="st5" x1="121.4" y1="147.9" x2="139.4" y2="116.7"/>
	<line class="st5" x1="135.8" y1="123.1" x2="163.3" y2="138.7"/>
	<rect x="170.1" y="127.3" class="st5" width="14.7" height="29.2"/>
	<line class="st5" x1="170.1" y1="141.9" x2="184.9" y2="141.9"/>
	<line class="st5" x1="177.5" y1="156.5" x2="177.5" y2="127.3"/>
	<line class="st5" x1="177.5" y1="100.1" x2="177.5" y2="70.9"/>
	<line class="st5" x1="170.1" y1="85.5" x2="184.9" y2="85.5"/>
	<rect x="170.1" y="70.9" class="st5" width="14.7" height="29.2"/>
	<rect x="212.7" y="120.2" class="st5" width="14.7" height="36.3"/>
	<line class="st5" x1="212.7" y1="142.1" x2="227.4" y2="142.1"/>
	<line class="st5" x1="212.7" y1="127.9" x2="227.4" y2="127.9"/>
	<line class="st5" x1="220" y1="156.5" x2="220" y2="127.9"/>
	<rect x="212.7" y="70.9" class="st5" width="14.7" height="36.3"/>
	<line class="st5" x1="212.7" y1="99.6" x2="227.4" y2="99.6"/>
	<line class="st5" x1="212.7" y1="85.4" x2="227.4" y2="85.4"/>
	<line class="st5" x1="220" y1="99.6" x2="220" y2="70.9"/>
	<line class="st5" x1="276.1" y1="147.9" x2="262.6" y2="155.7"/>
	<line class="st5" x1="263.6" y1="155.1" x2="248.8" y2="129.5"/>
	<line class="st5" x1="276.1" y1="147.9" x2="261.2" y2="122.1"/>
	<line class="st5" x1="268.9" y1="135.4" x2="234.1" y2="155.4"/>
	<polyline class="st5" points="261.2,122.1 234.2,138.2 234.1,155.4 234.1,155.4 	"/>
	<rect x="276.8" y="158.5" transform="matrix(0.866 -0.5 0.5 0.866 -50.2386 165.7561)" class="st5" width="14.7" height="36.3"/>
	<line class="st5" x1="276" y1="177.1" x2="288.7" y2="169.7"/>
	<line class="st5" x1="295.8" y1="182" x2="283" y2="189.4"/>
	<line class="st5" x1="282.3" y1="173.4" x2="289.4" y2="185.7"/>
	<polygon class="st5" points="249.7,195.1 242.3,207.9 261.4,218.9 268.7,206.3 	"/>
	<rect x="275.7" y="208.4" transform="matrix(0.5 -0.866 0.866 0.5 -51.4914 356.5673)" class="st5" width="14.7" height="28.9"/>
	<line class="st5" x1="279.4" y1="229.3" x2="286.5" y2="216.4"/>
	<polygon class="st5" points="297.3,239.6 316.6,250.7 324,237.9 304.6,227 	"/>
	<line class="st5" x1="295.3" y1="287.2" x2="276.4" y2="276.3"/>
	<polyline class="st5" points="278,260.5 253,246.1 245.7,258.6 270.8,273.1 	"/>
	<line class="st5" x1="278" y1="260.5" x2="270.8" y2="273.1"/>
	<line class="st5" x1="265.5" y1="253.3" x2="258.2" y2="265.8"/>
	<polyline class="st5" points="258.2,265.8 251.6,276.9 232.5,276.9 	"/>
	<line class="st5" x1="247" y1="291.2" x2="247" y2="276.9"/>
	<line class="st5" x1="218.6" y1="262.8" x2="218.6" y2="244.7"/>
	<line class="st5" x1="218.6" y1="262.8" x2="235.8" y2="262.8"/>
	<polyline class="st5" points="235.8,262.8 247.3,242.8 228.8,232.4 221.7,244.7 	"/>
	<line class="st5" x1="270.3" y1="180.4" x2="254" y2="189.8"/>
	<line class="st5" x1="127" y1="272.9" x2="144.6" y2="262.8"/>
	<line class="st5" x1="144.6" y1="262.8" x2="193.4" y2="262.5"/>
	<line class="st5" x1="143.6" y1="189.9" x2="111.3" y2="208.2"/>
	<path class="st5" d="M111.3,208.2c-0.9,0.5-2,0.9-3.1,1c-1.6,0.1-3.3-0.4-4.7-1.3"/>
	<line class="st5" x1="143.6" y1="189.9" x2="147.9" y2="182.5"/>
	<line class="st5" x1="128.6" y1="164.5" x2="145.7" y2="174.4"/>
	<path class="st4" d="M147.9,182.5c0.6-1,1-2.3,1-3.5c0-1.1-0.4-2.2-1.1-3.1c-0.5-0.7-1.2-1.2-2-1.5"/>
	<line class="st5" x1="163.5" y1="155.4" x2="159" y2="163.1"/>
	<line class="st5" x1="134.9" y1="155.7" x2="151.3" y2="165.1"/>
	<path class="st5" d="M151.3,165.1c3.1,1.7,5.7,1,7.8-2"/>
	<path class="st5" d="M234.2,138.2c0-13.1,0.8-14.5,2.5-16c1.7-1.5,4.3-3.1,6.9-4.6c2.6-1.5,5.3-3,7.4-3.6c2-0.6,3.4-0.5,4.4,0.2
		c1,0.7,1.8,1.8,5.9,7.9"/>
	<path class="st5" d="M262.6,155.7c-16.2,9.3-18.5,10.2-20.7,9.5c-2.2-0.7-4.2-3.1-7.8-9.8"/>
	<line class="st5" x1="270.3" y1="180.4" x2="265.1" y2="171.3"/>
	<line class="st5" x1="270.3" y1="180.4" x2="275.6" y2="189.5"/>
	<line class="st5" x1="254" y1="189.8" x2="266.1" y2="196.6"/>
	<line class="st5" x1="254" y1="189.8" x2="249.6" y2="182.2"/>
	<path class="st5" d="M265.1,171.3c-1.6-2.7-3.4-1.8-5.7-0.5c-2.4,1.3-5.4,3-7.7,4.4c-2.3,1.4-3.9,2.5-2.1,6.9"/>
	<path class="st5" d="M266.1,196.6c3.1,1.2,4.5,0.1,5.9-0.8c1.3-0.9,2.6-1.7,3.4-2.7c0.8-1,1.1-2.3,0.2-3.6"/>
	<line class="st5" x1="245.7" y1="258.6" x2="239.2" y2="269.9"/>
	<path class="st5" d="M232.5,276.9c0-6.6,3.4-7.1,6.7-7"/>
	<path class="st5" d="M247,291.2c-10.5,0-12.5,0-13.4-1.2c-1-1.2-1-3.6-1-13.1"/>
	<path class="st5" d="M247,291.2c10.8,0,11.9-0.2,13.1-1.2c1.2-1,2.4-2.8,10.7-16.9"/>
	<line class="st5" x1="276.4" y1="276.3" x2="271.1" y2="285.7"/>
	<path class="st5" d="M271.1,285.7c-1.2,3.2-0.3,3.7,0.7,4.1c1,0.4,2.1,0.6,5.1,0.7c3,0.1,7.8,0,11.1,0c3.3,0,5,0,7.3-3.4"/>
	<path class="st5" d="M295.3,287.2c5.3-8.9,6.1-10.5,5.4-12c-0.8-1.5-3.1-3-17.3-11.1"/>
	<line class="st5" x1="276.4" y1="276.3" x2="283.4" y2="264.1"/>
	<path class="st5" d="M193.4,262.5c0,9.5,0,11.9-1,13.2c-1,1.3-3,1.3-14.6,1.4s-32.8,0-43.6-0.1c-10.8,0-11.4,0-12.3-0.8
		c-0.9-0.8-2.1-2.4-7.9-12.4"/>
	<line class="st5" x1="164.8" y1="277.1" x2="164.8" y2="251.1"/>
	<polyline class="st5" points="127,277 127,272.9 119.8,260.4 	"/>
	<polyline class="st5" points="144.6,262.8 137.4,250.2 114,263.8 	"/>
	<line class="st5" x1="137.4" y1="250.2" x2="165.6" y2="233.7"/>
	<path class="st5" d="M193.4,262.5c0-12.9,0-15.2-1-16.4c-1-1.2-3-1.3-5.8-1.4c-2.9,0-6.6,0-8.8-0.3c-2.2-0.3-2.9-1-3.8-2.5
		c-0.9-1.5-2-3.9-2.8-5.6c-0.8-1.7-1.3-2.8-5.5-2.6"/>
	<path class="st5" d="M218.6,262.8c-12.4,0-13.1-0.9-13.5-2c-0.4-1.1-0.4-2.6-0.4-4.7c0-2.2,0-5,0-7.3s0-4,3.4-4.1c0,0,0.1,0,0.1,0
		c4.5,0,8.9,0,13.4,0c6.1,3.5,12.3,7.1,18.4,10.6"/>
</g>
<g id="PLAN::POINTILLE">
	<path class="st6" d="M242.1,100.2c-1.2,0.8-1.6,2.5-0.7,3.7c0.8,1.2,2.5,1.6,3.7,0.7c1.2-0.8,1.6-2.5,0.7-3.7
		C245,99.7,243.4,99.4,242.1,100.2z"/>
	<path class="st6" d="M152.1,101.3c-3.9,0.3-6.8,3.8-6.4,7.7c0.3,3.9,3.8,6.8,7.7,6.4c3.9-0.3,6.8-3.8,6.4-7.7
		C159.5,103.9,156,101,152.1,101.3z"/>
	<path class="st6" d="M105.8,283.6c1.5-0.9,3-1.7,4.4-2.6c1.4-0.8,1.9-2.7,1.1-4.1c-0.9-1.5-1.7-3-2.6-4.4c-0.8-1.4-2.7-1.9-4.1-1.1
		c-1.5,0.9-3,1.7-4.4,2.6c-1.4,0.8-1.9,2.7-1.1,4.1c0.9,1.5,1.7,3,2.6,4.4C102.5,284,104.3,284.5,105.8,283.6z"/>
	<rect x="205" y="277" class="st6" width="13.3" height="13.6"/>
	<path class="st6" d="M300.2,197.6c-3.6-0.1-6.6,2.8-6.6,6.4c-0.1,3.6,2.8,6.6,6.4,6.6c3.6,0.1,6.6-2.8,6.6-6.4
		C306.6,200.6,303.8,197.7,300.2,197.6z"/>
	<line class="st6" x1="299.6" y1="188.7" x2="305.5" y2="185.2"/>
	<polyline class="st6" points="329.7,227.1 327,231.9 281.4,205.5 286.9,196 	"/>
	<line class="st6" x1="232.8" y1="298" x2="232.8" y2="288.1"/>
	<line class="st6" x1="232.8" y1="273.9" x2="232.8" y2="262.8"/>
	<line class="st6" x1="193.4" y1="262.5" x2="209.5" y2="262.5"/>
	<line class="st6" x1="114" y1="263.8" x2="83" y2="281.7"/>
	<line class="st6" x1="73.8" y1="237.9" x2="64.7" y2="232.6"/>
	<polyline class="st6" points="102.8,221.1 91,200.7 85.1,197.3 	"/>
	<line class="st6" x1="170.1" y1="127.9" x2="158.8" y2="127.9"/>
	<line class="st6" x1="133.5" y1="113.4" x2="139.4" y2="116.8"/>
	<line class="st6" x1="170.1" y1="70.9" x2="161.1" y2="65.7"/>
	<line class="st6" x1="184.9" y1="127.3" x2="184.9" y2="100.1"/>
	<polyline class="st6" points="260.8,121.6 239.7,85.4 234.2,85.4 234.2,133.2 	"/>
	<rect x="195" y="66.5" class="st6" width="7.5" height="29.2"/>
	<rect x="297" y="243" transform="matrix(0.5 -0.866 0.866 0.5 -72.75 389.2533)" class="st6" width="7.5" height="29.2"/>
	<rect x="82.2" y="253.9" transform="matrix(0.866 -0.5 0.5 0.866 -115.8411 82.9262)" class="st6" width="29.2" height="7.5"/>
	<line class="st6" x1="250.7" y1="236.9" x2="256.6" y2="240.3"/>
	<line class="st6" x1="263.7" y1="228.1" x2="257.8" y2="224.7"/>
	<polyline class="st6" points="125.5,232.9 111,241.2 118.1,253.5 121.6,251.5 	"/>
	<polyline class="st6" points="205.9,122.4 205.9,101.5 191.7,101.5 191.7,137.9 	"/>
</g>
<g id="PLAN::POINTILLE_PROGRAMME">
</g>
<g id="PLAN::TRAME_2">
</g>
<g id="PLAN::DETAIL">
	<line class="st4" x1="185.5" y1="214.9" x2="222.4" y2="214.9"/>
	<path class="st4" d="M257.8,224.7c0.2,0.1,0.2,0.2,0.1,0.4c-2.3,3.9-4.5,7.9-6.8,11.8c-0.1,0.2-0.2,0.2-0.4,0.1
		c-6.3-3.6-12.6-7.3-18.9-10.9c-0.2-0.1-0.2-0.2-0.1-0.4c2.9-3.6,5.1-7.4,6.8-11.7c0.1-0.2,0.2-0.3,0.4-0.1
		C245.2,217.4,251.5,221,257.8,224.7z"/>
	<path class="st4" d="M158.6,213.8c0.2-0.1,0.3-0.1,0.4,0.1c1.6,4.3,3.8,8.1,6.8,11.7c0.1,0.2,0.1,0.3-0.1,0.4
		c-14.7,8.5-29.4,17-44.1,25.5c-0.3,0.1-0.4,0-0.4-0.3c0.1-5,2.7-13.6,4.2-18.2c0-0.1,0.1-0.1,0.1-0.2
		C136.6,226.5,147.6,220.1,158.6,213.8z"/>
	<line class="st4" x1="206" y1="179.3" x2="223.9" y2="211.3"/>
	<line class="st4" x1="178.2" y1="202.2" x2="191.6" y2="179.3"/>
	<path class="st4" d="M191.6,179.3c0.2-0.3,0.3-0.6,0.5-0.9c0.2-0.3,0.3-0.6,0.5-0.8c0.2-0.3,0.3-0.5,0.5-0.8
		c0.1-0.1,0.2-0.3,0.2-0.4c0.1-0.2,0.3-0.4,0.4-0.7c0.1-0.2,0.3-0.4,0.4-0.6c0.1-0.2,0.3-0.4,0.4-0.5c0.1-0.2,0.3-0.3,0.4-0.5
		c0.1-0.1,0.3-0.3,0.4-0.4c0.1-0.1,0.3-0.2,0.5-0.3c0.2-0.1,0.3-0.2,0.5-0.3c0.2-0.1,0.3-0.1,0.5-0.2c0.2-0.1,0.3-0.1,0.5-0.1
		c0.2,0,0.3-0.1,0.5-0.1c0.2,0,0.3,0,0.5,0c0.2,0,0.3,0,0.5,0c0.3,0,0.7,0.1,1,0.2c0.2,0,0.3,0.1,0.5,0.2c0.1,0,0.2,0.1,0.2,0.1
		c0,0,0.1,0,0.1,0.1c0.2,0.1,0.3,0.1,0.4,0.2c0.2,0.1,0.3,0.2,0.4,0.3c0.2,0.1,0.3,0.2,0.4,0.4c0.2,0.1,0.3,0.3,0.5,0.4
		c0.1,0.1,0.2,0.2,0.2,0.3c0.2,0.2,0.3,0.4,0.5,0.6c0.2,0.2,0.4,0.5,0.5,0.7c0.2,0.3,0.4,0.6,0.6,0.9c0.2,0.4,0.5,0.7,0.7,1.1
		c0.3,0.4,0.5,0.9,0.8,1.3"/>
	<path class="st4" d="M170.2,197.7c0-0.9,0.1-1.8,0.2-2.6c0.1-0.9,0.3-1.7,0.5-2.6c0.1-0.3,0.1-0.5,0.2-0.8c0.1-0.4,0.2-0.8,0.4-1.3
		c0.3-0.8,0.6-1.7,0.9-2.5c0.7-1.6,1.5-3.2,2.4-4.7c0.5-0.7,1-1.5,1.5-2.2c0.6-0.7,1.1-1.4,1.7-2c0.6-0.7,1.3-1.3,1.9-1.9
		c0.7-0.6,1.4-1.1,2.1-1.7c0.7-0.5,1.5-1,2.3-1.4c0.3-0.2,0.7-0.4,1-0.5c0.3-0.2,0.6-0.3,1-0.5c0.6-0.3,1.3-0.6,2-0.8
		c0.7-0.3,1.3-0.5,2-0.7c0.7-0.2,1.4-0.4,2.1-0.5c0.3-0.1,0.7-0.2,1-0.2c0.4-0.1,0.7-0.1,1.1-0.2c0.7-0.1,1.4-0.2,2.2-0.3
		c0.7-0.1,1.5-0.1,2.2-0.2c0.7,0,1.5,0,2.2,0c0.7,0,1.4,0,2.1,0.1c0.4,0,0.7,0.1,1.1,0.1c0.4,0,0.8,0.1,1.1,0.1
		c0.4,0,0.7,0.1,1.1,0.2c0.4,0.1,0.7,0.1,1.1,0.2c0.4,0.1,0.7,0.2,1.1,0.3c0.3,0.1,0.7,0.2,1,0.4c0.3,0.1,0.7,0.3,1,0.5
		c0.3,0.2,0.6,0.4,0.9,0.6c0.1,0.1,0.3,0.2,0.4,0.3c0.1,0.1,0.3,0.2,0.4,0.3c0.2,0.2,0.4,0.4,0.6,0.7c0.2,0.2,0.4,0.5,0.6,0.7
		c0.2,0.3,0.4,0.5,0.5,0.8c0.2,0.3,0.3,0.6,0.4,0.8c0.1,0.3,0.3,0.6,0.4,0.9c0.1,0.3,0.2,0.6,0.3,0.9c0.1,0.3,0.2,0.6,0.3,0.9
		c0.1,0.3,0.1,0.6,0.2,0.9c0.1,0.5,0.2,1,0.2,1.5c0,0.3,0.1,0.6,0.1,0.9c0,0.4,0.1,0.8,0.1,1.2c0,0.4,0.1,0.8,0.1,1.1
		c0,0.2,0.1,0.5,0.1,0.7c0,0.3,0.1,0.6,0.1,0.9c0,0.3,0.1,0.7,0.1,1c0.1,0.7,0.2,1.4,0.3,2c0.1,0.3,0.1,0.7,0.2,1
		c0.1,0.3,0.1,0.7,0.2,1c0.1,0.3,0.2,0.6,0.3,1c0.1,0.3,0.2,0.6,0.3,0.9c0.1,0.3,0.3,0.7,0.4,1c0.1,0.3,0.3,0.7,0.5,1
		c0.2,0.3,0.3,0.7,0.5,1c0.2,0.3,0.3,0.7,0.5,1c0.2,0.3,0.4,0.7,0.5,1c0.2,0.4,0.5,0.8,0.7,1.3c0.2,0.3,0.4,0.7,0.5,1
		c0.2,0.3,0.4,0.7,0.5,1c0.2,0.3,0.3,0.6,0.5,1c0.1,0.3,0.3,0.6,0.4,0.9c0.1,0.3,0.2,0.6,0.3,0.9c0.1,0.3,0.2,0.6,0.3,0.9
		c0.1,0.3,0.2,0.6,0.2,0.9c0.1,0.3,0.1,0.6,0.2,1c0.1,0.3,0.1,0.6,0.1,1c0,0.3,0,0.6,0,1c0,0.3,0,0.6,0,1c0,0.2,0,0.3-0.1,0.5
		c0,0.1,0,0.3-0.1,0.4c-0.1,0.3-0.1,0.6-0.2,0.9c-0.1,0.3-0.2,0.6-0.3,0.9c-0.1,0.3-0.2,0.6-0.3,0.8c-0.2,0.4-0.3,0.7-0.5,1.1
		c-0.1,0.3-0.3,0.5-0.5,0.8c-0.2,0.3-0.3,0.5-0.5,0.8c-0.2,0.3-0.4,0.5-0.5,0.7c-0.2,0.3-0.4,0.5-0.6,0.7c-0.4,0.5-0.9,1-1.4,1.5
		c-0.5,0.5-1,0.9-1.5,1.4c-0.5,0.4-1.1,0.9-1.6,1.3c-0.6,0.4-1.1,0.8-1.7,1.1c-0.1,0.1-0.3,0.2-0.4,0.3c-0.2,0.1-0.5,0.3-0.7,0.4
		c-0.5,0.3-1,0.6-1.5,0.8c-1,0.5-2.1,1-3.2,1.4c-0.6,0.2-1.1,0.4-1.7,0.6c-0.7,0.2-1.5,0.4-2.2,0.5c-1.5,0.3-3,0.5-4.5,0.5
		c-0.8,0-1.5,0-2.3,0c-0.5,0-1.1-0.1-1.6-0.1c-0.9-0.1-1.9-0.2-2.8-0.4c-0.9-0.2-1.8-0.4-2.7-0.7c-0.9-0.3-1.8-0.6-2.7-0.9
		c-0.9-0.4-1.7-0.7-2.5-1.2"/>
	<path class="st4" d="M185.5,214.9c-0.4,0-0.7,0-1.1,0c-0.3,0-0.7,0-1,0c-0.3,0-0.6,0-0.9,0c-0.2,0-0.3,0-0.5,0
		c-0.3,0-0.6,0-0.9-0.1c-0.3,0-0.5,0-0.8-0.1c-0.2,0-0.5-0.1-0.7-0.1c-0.1,0-0.3-0.1-0.4-0.1c-0.2-0.1-0.4-0.1-0.6-0.2
		c-0.2-0.1-0.4-0.2-0.7-0.3c-0.2-0.1-0.3-0.2-0.5-0.3c-0.2-0.1-0.3-0.3-0.4-0.4c-0.1-0.1-0.3-0.3-0.4-0.4c-0.1-0.2-0.2-0.3-0.3-0.5
		c-0.1-0.2-0.2-0.3-0.3-0.5c-0.1-0.2-0.2-0.3-0.2-0.5c-0.1-0.2-0.1-0.4-0.2-0.5c0-0.2-0.1-0.4-0.1-0.5c0-0.1,0-0.2,0-0.3
		c0-0.1,0-0.1,0-0.2c0-0.1,0-0.2,0-0.3c0-0.1,0-0.2,0-0.3c0-0.1,0-0.2,0-0.3c0-0.1,0-0.2,0-0.3c0-0.1,0-0.2,0-0.3
		c0-0.2,0.1-0.4,0.1-0.7c0-0.1,0.1-0.2,0.1-0.4c0.1-0.2,0.1-0.4,0.2-0.6c0.1-0.1,0.1-0.3,0.2-0.4c0.1-0.2,0.1-0.3,0.2-0.5
		c0.1-0.2,0.2-0.3,0.2-0.5c0.1-0.2,0.2-0.4,0.3-0.5c0.2-0.4,0.4-0.8,0.6-1.2c0.3-0.5,0.5-0.9,0.8-1.4"/>
	<path class="st4" d="M191.7,156.5c0,0.2,0.1,0.3,0.3,0.3c4.6-0.7,9-0.7,13.5,0c0.2,0,0.3-0.1,0.3-0.3c0-11.4,0-22.7,0-34.1
		c0-0.3-0.2-0.4-0.4-0.3c-6.8,3.3-11.4,8.6-13.8,15.8c0,0,0,0.1,0,0.1C191.7,144.2,191.7,150.3,191.7,156.5z"/>
	<path class="st4" d="M277.6,252.5c0.5,0.3,1.1,0.6,1.6,0.9c0.2,0.1,0.3,0.1,0.4-0.1c2.3-3.9,4.5-7.9,6.8-11.8
		c0.1-0.2,0.1-0.3-0.1-0.4c-7.5-4.3-15.1-8.7-22.6-13c-0.2-0.1-0.3-0.1-0.4,0.1c-2.3,3.9-4.5,7.9-6.8,11.8c-0.1,0.2-0.1,0.3,0.1,0.4
		C263.6,244.4,270.6,248.4,277.6,252.5z"/>
</g>
<g id="PLAN::TOPO">
</g>
<g id="PLAN::FOND">
	
		<ellipse transform="matrix(0.3827 -0.9239 0.9239 0.3827 -60.9313 306.3467)" class="st4" cx="198.8" cy="198.8" rx="9.8" ry="9.8"/>
</g>
<g id="INFOS::CADRES_2" class="st0">
	<g class="st12">
		<path class="st13" d="M396.5,1v395.5H1V1H396.5 M397.2,0.3H0.3v396.9h396.9V0.3L397.2,0.3z"/>
	</g>
</g>
<g id="BLOCK_SPECTIFIQUES::MEUBLE_FITNESS">
</g>
<g id="BLOCK_SPECTIFIQUES::POTAGER">
</g>
<g id="PLAN::POTEAU">
	<rect x="275" y="290.3" class="st2" width="0.6" height="0.6"/>
	<rect x="218.3" y="262" class="st2" width="0.6" height="0.6"/>
	<rect x="232.5" y="262" class="st2" width="0.6" height="0.6"/>
	
		<rect x="233.4" y="251.4" transform="matrix(0.5001 -0.866 0.866 0.5001 -101.1068 328.1808)" class="st2" width="0.6" height="0.6"/>
	<rect x="164.5" y="262.3" class="st2" width="0.6" height="0.6"/>
	<rect x="175.9" y="253.9" class="st2" width="0.6" height="0.6"/>
	<rect x="189.7" y="253.9" class="st2" width="0.6" height="0.6"/>
	<rect x="175.6" y="244.4" transform="matrix(0.866 -0.5 0.5 0.866 -98.8 120.7346)" class="st2" width="0.6" height="0.6"/>
	
		<rect x="164.5" y="250.9" transform="matrix(0.866 -0.5001 0.5001 0.866 -103.5123 116.058)" class="st2" width="0.6" height="0.6"/>
	<rect x="282.5" y="279.7" transform="matrix(0.5 -0.866 0.866 0.5 -101.0942 384.9265)" class="st2" width="0.6" height="0.6"/>
	
		<rect x="294.5" y="286.7" transform="matrix(0.4999 -0.8661 0.8661 0.4999 -101.0841 398.8515)" class="st2" width="0.6" height="0.6"/>
	<rect x="246.7" y="276.4" class="st2" width="0.6" height="0.6"/>
	<rect x="232.8" y="276.4" class="st2" width="0.6" height="0.6"/>
	<rect x="260.9" y="276.4" class="st2" width="0.6" height="0.6"/>
	<rect x="192.8" y="290.6" class="st2" width="0.6" height="0.6"/>
	
		<rect x="245.9" y="258.6" transform="matrix(0.4999 -0.8661 0.8661 0.4999 -101.0875 342.7197)" class="st2" width="0.6" height="0.6"/>
	<rect x="275.1" y="147.4" transform="matrix(0.866 -0.5 0.5 0.866 -36.9576 157.4651)" class="st2" width="0.6" height="0.6"/>
	<rect x="250.7" y="161.4" transform="matrix(0.866 -0.5 0.5 0.866 -47.2301 147.1929)" class="st2" width="0.6" height="0.6"/>
	<rect x="263" y="154.4" transform="matrix(0.866 -0.5001 0.5001 0.866 -42.0422 152.4078)" class="st2" width="0.6" height="0.6"/>
	<rect x="268.1" y="135.4" transform="matrix(0.866 -0.5 0.5 0.866 -31.8734 152.3808)" class="st2" width="0.6" height="0.6"/>
	<rect x="261" y="123.1" transform="matrix(0.866 -0.5 0.5 0.866 -26.6854 147.1926)" class="st2" width="0.6" height="0.6"/>
	<rect x="254.1" y="111.1" transform="matrix(0.866 -0.5 0.5 0.866 -21.6011 142.1082)" class="st2" width="0.6" height="0.6"/>
	<rect x="242" y="118" transform="matrix(0.866 -0.5 0.5 0.866 -26.6855 137.024)" class="st2" width="0.6" height="0.6"/>
	<rect x="234.8" y="105.5" transform="matrix(0.866 -0.5 0.5 0.866 -21.3955 131.7155)" class="st2" width="0.6" height="0.6"/>
	<rect x="249" y="130.1" transform="matrix(0.866 -0.5 0.5 0.866 -31.7698 142.1084)" class="st2" width="0.6" height="0.6"/>
	<rect x="243.8" y="149.4" transform="matrix(0.866 -0.5 0.5 0.866 -42.1459 142.1085)" class="st2" width="0.6" height="0.6"/>
	<rect x="236.7" y="137.1" transform="matrix(0.866 -0.5 0.5 0.866 -36.9579 136.9204)" class="st2" width="0.6" height="0.6"/>
	<rect x="256.1" y="142.3" transform="matrix(0.866 -0.5 0.5 0.866 -36.9578 147.2965)" class="st2" width="0.6" height="0.6"/>
	<rect x="254.2" y="189.3" transform="matrix(0.866 -0.5 0.5 0.866 -60.6848 152.6229)" class="st2" width="0.6" height="0.6"/>
	
		<rect x="234.4" y="154.9" transform="matrix(0.8661 -0.4999 0.4999 0.8661 -46.1301 138.079)" class="st2" width="0.6" height="0.6"/>
	<rect x="267.3" y="221.5" transform="matrix(0.5 -0.866 0.866 0.5 -58.2984 342.6673)" class="st2" width="0.6" height="0.6"/>
	<rect x="274.1" y="209.8" transform="matrix(0.5 -0.866 0.866 0.5 -44.6924 342.6675)" class="st2" width="0.6" height="0.6"/>
	<rect x="291.4" y="235.4" transform="matrix(0.5 -0.866 0.866 0.5 -58.2988 370.446)" class="st2" width="0.6" height="0.6"/>
	
		<rect x="298.2" y="223.6" transform="matrix(0.5001 -0.866 0.866 0.5001 -44.7058 370.416)" class="st2" width="0.6" height="0.6"/>
	<rect x="218.3" y="290.6" class="st2" width="0.6" height="0.6"/>
	<rect x="218.3" y="276.4" class="st2" width="0.6" height="0.6"/>
	<rect x="204.4" y="290.6" class="st2" width="0.6" height="0.6"/>
	<rect x="204.4" y="276.4" class="st2" width="0.6" height="0.6"/>
	
		<rect x="221.4" y="244.4" transform="matrix(0.5001 -0.866 0.866 0.5001 -101.106 314.2924)" class="st2" width="0.6" height="0.6"/>
	<rect x="74" y="238" transform="matrix(0.8661 -0.4999 0.4999 0.8661 -109.1511 69.0335)" class="st2" width="0.6" height="0.6"/>
	<rect x="80.8" y="249.7" transform="matrix(0.866 -0.5 0.5 0.866 -114.1461 74.0296)" class="st2" width="0.6" height="0.6"/>
	<rect x="155.1" y="117.8" transform="matrix(0.5 -0.866 0.866 0.5 -24.5646 193.5696)" class="st2" width="0.6" height="0.6"/>
	
		<rect x="160.3" y="137.1" transform="matrix(0.4999 -0.8661 0.8661 0.4999 -38.7269 207.7727)" class="st2" width="0.6" height="0.6"/>
	<rect x="148" y="130.1" transform="matrix(0.5 -0.866 0.866 0.5 -38.7374 193.5694)" class="st2" width="0.6" height="0.6"/>
	<rect x="140.9" y="142.3" transform="matrix(0.5 -0.866 0.866 0.5 -52.9103 193.5692)" class="st2" width="0.6" height="0.6"/>
	<rect x="134" y="154.4" transform="matrix(0.5001 -0.866 0.866 0.5001 -66.8031 193.5512)" class="st2" width="0.6" height="0.6"/>
	<rect x="128" y="164.7" transform="matrix(0.5 -0.866 0.866 0.5 -78.7049 193.5687)" class="st2" width="0.6" height="0.6"/>
	
		<rect x="114" y="189" transform="matrix(0.4999 -0.8661 0.8661 0.4999 -106.7664 193.6021)" class="st2" width="0.6" height="0.6"/>
	<rect x="106.9" y="201.2" transform="matrix(0.5 -0.866 0.866 0.5 -120.9399 193.5681)" class="st2" width="0.6" height="0.6"/>
	
		<rect x="121.1" y="176.7" transform="matrix(0.4999 -0.8661 0.8661 0.4999 -92.5917 193.6012)" class="st2" width="0.6" height="0.6"/>
	
		<rect x="132.1" y="253.5" transform="matrix(0.8661 -0.4999 0.4999 0.8661 -109.153 100.1531)" class="st2" width="0.6" height="0.6"/>
	
		<rect x="119.8" y="260.6" transform="matrix(0.8661 -0.4999 0.4999 0.8661 -114.3393 94.9662)" class="st2" width="0.6" height="0.6"/>
	
		<rect x="144.3" y="246.4" transform="matrix(0.8661 -0.4999 0.4999 0.8661 -103.9667 105.34)" class="st2" width="0.6" height="0.6"/>
	
		<rect x="156.6" y="239.4" transform="matrix(0.866 -0.5001 0.5001 0.866 -98.8115 110.5885)" class="st2" width="0.6" height="0.6"/>
	<rect x="116" y="157.7" transform="matrix(0.5 -0.866 0.866 0.5 -78.7032 179.692)" class="st2" width="0.6" height="0.6"/>
	
		<rect x="140.3" y="171.8" transform="matrix(0.5001 -0.866 0.866 0.5001 -78.7082 207.7222)" class="st2" width="0.6" height="0.6"/>
	
		<rect x="147.4" y="195.6" transform="matrix(0.866 -0.5001 0.5001 0.866 -78.1603 100.1056)" class="st2" width="0.6" height="0.6"/>
	<rect x="86.3" y="230.9" transform="matrix(0.866 -0.5 0.5 0.866 -103.9888 74.2495)" class="st2" width="0.6" height="0.6"/>
	<rect x="98.5" y="223.8" transform="matrix(0.866 -0.5001 0.5001 0.866 -98.8134 79.455)" class="st2" width="0.6" height="0.6"/>
	<rect x="110.8" y="216.7" transform="matrix(0.866 -0.5 0.5 0.866 -93.6125 84.6255)" class="st2" width="0.6" height="0.6"/>
	<rect x="123.1" y="209.6" transform="matrix(0.866 -0.5 0.5 0.866 -88.4244 89.8135)" class="st2" width="0.6" height="0.6"/>
	<rect x="135.4" y="202.5" transform="matrix(0.866 -0.5 0.5 0.866 -83.2362 95.0015)" class="st2" width="0.6" height="0.6"/>
	<rect x="93.1" y="242.7" transform="matrix(0.866 -0.5 0.5 0.866 -108.9693 79.2301)" class="st2" width="0.6" height="0.6"/>
	<rect x="117.6" y="228.5" transform="matrix(0.866 -0.5 0.5 0.866 -98.593 89.6061)" class="st2" width="0.6" height="0.6"/>
	<rect x="105.3" y="235.6" transform="matrix(0.866 -0.5 0.5 0.866 -103.7811 84.4181)" class="st2" width="0.6" height="0.6"/>
	<rect x="129.9" y="221.4" transform="matrix(0.866 -0.5001 0.5001 0.866 -93.416 94.8139)" class="st2" width="0.6" height="0.6"/>
	<rect x="142.2" y="214.3" transform="matrix(0.866 -0.5 0.5 0.866 -88.2167 99.9821)" class="st2" width="0.6" height="0.6"/>
	<rect x="154.2" y="207.4" transform="matrix(0.866 -0.5 0.5 0.866 -83.1323 105.0663)" class="st2" width="0.6" height="0.6"/>
	<rect x="133.3" y="183.8" transform="matrix(0.5 -0.866 0.866 0.5 -92.5945 207.7413)" class="st2" width="0.6" height="0.6"/>
	<rect x="87.8" y="206.6" transform="matrix(0.5 -0.866 0.866 0.5 -135.1125 179.6785)" class="st2" width="0.6" height="0.6"/>
	<rect x="94.9" y="194.3" transform="matrix(0.5 -0.866 0.866 0.5 -120.9397 179.6787)" class="st2" width="0.6" height="0.6"/>
	
		<rect x="101.9" y="182" transform="matrix(0.4999 -0.8661 0.8661 0.4999 -106.7672 179.7109)" class="st2" width="0.6" height="0.6"/>
	<rect x="109" y="169.7" transform="matrix(0.5 -0.866 0.866 0.5 -92.5934 179.6922)" class="st2" width="0.6" height="0.6"/>
	<rect x="80.8" y="218.6" transform="matrix(0.5 -0.866 0.866 0.5 -149.0044 179.6931)" class="st2" width="0.6" height="0.6"/>
	<rect x="99.6" y="213.4" transform="matrix(0.5 -0.866 0.866 0.5 -135.1127 193.2844)" class="st2" width="0.6" height="0.6"/>
	<rect x="121.9" y="147.4" transform="matrix(0.5 -0.866 0.866 0.5 -66.7995 179.6796)" class="st2" width="0.6" height="0.6"/>
	
		<rect x="146.2" y="161.4" transform="matrix(0.4999 -0.8661 0.8661 0.4999 -66.7929 207.7744)" class="st2" width="0.6" height="0.6"/>
	<rect x="184" y="71.2" class="st2" width="0.6" height="0.6"/>
	<rect x="170.4" y="71.2" class="st2" width="0.6" height="0.6"/>
	<rect x="170.4" y="155.7" class="st2" width="0.6" height="0.6"/>
	<rect x="170.4" y="85.1" class="st2" width="0.6" height="0.6"/>
	<rect x="170.4" y="99.3" class="st2" width="0.6" height="0.6"/>
	<rect x="170.4" y="113.4" class="st2" width="0.6" height="0.6"/>
	<rect x="170.4" y="127.6" class="st2" width="0.6" height="0.6"/>
	<rect x="170.4" y="141.8" class="st2" width="0.6" height="0.6"/>
	<rect x="184" y="85.1" class="st2" width="0.6" height="0.6"/>
	<rect x="184" y="113.4" class="st2" width="0.6" height="0.6"/>
	<rect x="184" y="99.3" class="st2" width="0.6" height="0.6"/>
	<rect x="184" y="127.6" class="st2" width="0.6" height="0.6"/>
	<rect x="184" y="141.8" class="st2" width="0.6" height="0.6"/>
	<rect x="184" y="155.7" class="st2" width="0.6" height="0.6"/>
	
		<rect x="153.2" y="149.4" transform="matrix(0.4999 -0.8661 0.8661 0.4999 -52.9016 207.7735)" class="st2" width="0.6" height="0.6"/>
	
		<rect x="150.1" y="98.6" transform="matrix(0.5001 -0.866 0.866 0.5001 -10.3987 179.6663)" class="st2" width="0.6" height="0.6"/>
	<rect x="143" y="110.8" transform="matrix(0.5 -0.866 0.866 0.5 -24.5644 179.6803)" class="st2" width="0.6" height="0.6"/>
	<rect x="136" y="123.1" transform="matrix(0.5 -0.866 0.866 0.5 -38.7372 179.68)" class="st2" width="0.6" height="0.6"/>
	<rect x="128.9" y="135.4" transform="matrix(0.5 -0.866 0.866 0.5 -52.9101 179.6798)" class="st2" width="0.6" height="0.6"/>
	<rect x="157.1" y="86.5" transform="matrix(0.5 -0.866 0.866 0.5 3.4978 179.6807)" class="st2" width="0.6" height="0.6"/>
	<rect x="161.9" y="105.4" transform="matrix(0.5 -0.866 0.866 0.5 -10.3918 193.2864)" class="st2" width="0.6" height="0.6"/>
	<rect x="212.9" y="71.2" class="st2" width="0.6" height="0.6"/>
	<rect x="226.6" y="71.2" class="st2" width="0.6" height="0.6"/>
	<rect x="226.6" y="155.7" class="st2" width="0.6" height="0.6"/>
	<rect x="226.6" y="85.1" class="st2" width="0.6" height="0.6"/>
	<rect x="226.6" y="99.3" class="st2" width="0.6" height="0.6"/>
	<rect x="226.6" y="113.4" class="st2" width="0.6" height="0.6"/>
	<rect x="226.6" y="127.6" class="st2" width="0.6" height="0.6"/>
	<rect x="226.6" y="141.8" class="st2" width="0.6" height="0.6"/>
	<rect x="212.9" y="85.1" class="st2" width="0.6" height="0.6"/>
	<rect x="212.9" y="113.4" class="st2" width="0.6" height="0.6"/>
	<rect x="212.9" y="99.3" class="st2" width="0.6" height="0.6"/>
	<rect x="212.9" y="127.6" class="st2" width="0.6" height="0.6"/>
	<rect x="212.9" y="141.8" class="st2" width="0.6" height="0.6"/>
	<rect x="212.9" y="155.7" class="st2" width="0.6" height="0.6"/>
	<rect x="246.8" y="98.6" transform="matrix(0.866 -0.5 0.5 0.866 -16.3118 136.7993)" class="st2" width="0.6" height="0.6"/>
	<rect x="239.9" y="86.5" transform="matrix(0.866 -0.5 0.5 0.866 -11.2252 131.7319)" class="st2" width="0.6" height="0.6"/>
	<rect x="204.4" y="251.1" class="st2" width="0.6" height="0.6"/>
	<rect x="289.5" y="267.7" transform="matrix(0.5 -0.866 0.866 0.5 -87.2116 384.9019)" class="st2" width="0.6" height="0.6"/>
	
		<rect x="264.9" y="253.5" transform="matrix(0.4999 -0.8661 0.8661 0.4999 -87.1954 356.61)" class="st2" width="0.6" height="0.6"/>
	<rect x="240.4" y="239.4" transform="matrix(0.5 -0.866 0.866 0.5 -87.2107 328.2105)" class="st2" width="0.6" height="0.6"/>
	<rect x="246.7" y="290.3" class="st2" width="0.6" height="0.6"/>
	<rect x="218.3" y="251.1" class="st2" width="0.6" height="0.6"/>
	<rect x="281" y="157.7" transform="matrix(0.866 -0.5 0.5 0.866 -41.3158 161.8024)" class="st2" width="0.6" height="0.6"/>
	<rect x="269.2" y="164.5" transform="matrix(0.866 -0.5 0.5 0.866 -46.2961 156.8427)" class="st2" width="0.6" height="0.6"/>
	
		<rect x="256.7" y="171.8" transform="matrix(0.866 -0.5001 0.5001 0.866 -51.5899 151.5782)" class="st2" width="0.6" height="0.6"/>
	
		<rect x="247.1" y="177.3" transform="matrix(0.866 -0.5001 0.5001 0.866 -55.6632 147.5053)" class="st2" width="0.6" height="0.6"/>
	
		<rect x="315.9" y="249.6" transform="matrix(0.5001 -0.866 0.866 0.5001 -58.3124 398.7587)" class="st2" width="0.6" height="0.6"/>
	<rect x="322.7" y="237.8" transform="matrix(0.5 -0.866 0.866 0.5 -44.6933 398.7919)" class="st2" width="0.6" height="0.6"/>
	<rect x="249.6" y="195.6" transform="matrix(0.5 -0.866 0.866 0.5 -44.692 314.3218)" class="st2" width="0.6" height="0.6"/>
	<rect x="310.7" y="230.9" transform="matrix(0.5 -0.866 0.866 0.5 -44.6931 384.9026)" class="st2" width="0.6" height="0.6"/>
	
		<rect x="286.2" y="216.7" transform="matrix(0.5001 -0.866 0.866 0.5001 -44.705 356.5277)" class="st2" width="0.6" height="0.6"/>
	<rect x="261.6" y="202.5" transform="matrix(0.5 -0.866 0.866 0.5 -44.6922 328.2112)" class="st2" width="0.6" height="0.6"/>
	
		<rect x="303.9" y="242.7" transform="matrix(0.5001 -0.866 0.866 0.5001 -58.3116 384.8704)" class="st2" width="0.6" height="0.6"/>
	<rect x="279.4" y="228.5" transform="matrix(0.5 -0.866 0.866 0.5 -58.2986 356.5567)" class="st2" width="0.6" height="0.6"/>
	
		<rect x="254.8" y="214.3" transform="matrix(0.5001 -0.866 0.866 0.5001 -58.3082 328.1833)" class="st2" width="0.6" height="0.6"/>
	<rect x="242.8" y="207.4" transform="matrix(0.5 -0.866 0.866 0.5 -58.2979 314.3216)" class="st2" width="0.6" height="0.6"/>
	
		<rect x="263.6" y="183.8" transform="matrix(0.8661 -0.4999 0.4999 0.8661 -56.6681 156.5864)" class="st2" width="0.6" height="0.6"/>
	<rect x="276.2" y="176.6" transform="matrix(0.866 -0.5 0.5 0.866 -51.3804 161.9271)" class="st2" width="0.6" height="0.6"/>
	
		<rect x="309.2" y="206.6" transform="matrix(0.8661 -0.4999 0.4999 0.8661 -61.96 182.4153)" class="st2" width="0.6" height="0.6"/>
	
		<rect x="302.1" y="194.3" transform="matrix(0.8661 -0.4999 0.4999 0.8661 -56.7731 177.229)" class="st2" width="0.6" height="0.6"/>
	<rect x="295" y="182" transform="matrix(0.866 -0.5 0.5 0.866 -51.5877 172.0957)" class="st2" width="0.6" height="0.6"/>
	<rect x="288" y="169.7" transform="matrix(0.866 -0.5001 0.5001 0.866 -46.4 166.9371)" class="st2" width="0.6" height="0.6"/>
	<rect x="316.2" y="218.6" transform="matrix(0.866 -0.5 0.5 0.866 -67.0459 187.5317)" class="st2" width="0.6" height="0.6"/>
	
		<rect x="297.4" y="213.4" transform="matrix(0.8661 -0.4999 0.4999 0.8661 -66.9388 177.4359)" class="st2" width="0.6" height="0.6"/>
	<rect x="290.3" y="201.1" transform="matrix(0.866 -0.5 0.5 0.866 -61.7545 172.2807)" class="st2" width="0.6" height="0.6"/>
	<rect x="283.3" y="188.8" transform="matrix(0.866 -0.5 0.5 0.866 -56.5684 167.1152)" class="st2" width="0.6" height="0.6"/>
	
		<rect x="270.6" y="195.8" transform="matrix(0.8661 -0.4999 0.4999 0.8661 -61.7512 161.6689)" class="st2" width="0.6" height="0.6"/>
	<path class="st2" d="M199.5,228.3c0-0.5-0.2-0.7-0.7-0.7s-0.7,0.2-0.7,0.7s0.2,0.7,0.7,0.7S199.5,228.8,199.5,228.3z"/>
	<path class="st2" d="M224.7,212.9c-0.4-0.3-0.7-0.2-1,0.3c-0.3,0.4-0.2,0.7,0.3,1c0.4,0.3,0.7,0.2,1-0.3
		C225.3,213.5,225.2,213.2,224.7,212.9z"/>
	<path class="st2" d="M224,183.4c-0.4,0.3-0.5,0.5-0.3,1c0.3,0.4,0.5,0.5,1,0.3c0.4-0.3,0.5-0.5,0.3-1
		C224.8,183.2,224.5,183.1,224,183.4z"/>
	<path class="st2" d="M198.1,169.2c0,0.5,0.2,0.7,0.7,0.7s0.7-0.2,0.7-0.7s-0.2-0.7-0.7-0.7S198.1,168.7,198.1,169.2z"/>
	<path class="st2" d="M172.8,184.6c0.4,0.3,0.7,0.2,1-0.3c0.3-0.4,0.2-0.7-0.3-1c-0.4-0.3-0.7-0.2-1,0.3
		C172.3,184.1,172.4,184.3,172.8,184.6z"/>
	<path class="st2" d="M173.5,214.2c0.4-0.3,0.5-0.5,0.3-1c-0.3-0.4-0.5-0.5-1-0.3c-0.4,0.3-0.5,0.5-0.3,1
		C172.8,214.3,173.1,214.4,173.5,214.2z"/>
	<rect x="126.2" y="196.1" transform="matrix(0.5 -0.866 0.866 0.5 -106.7673 207.7411)" class="st2" width="0.6" height="0.6"/>
	
		<rect x="142.7" y="189.2" transform="matrix(0.4999 -0.8661 0.8661 0.4999 -92.5902 218.6074)" class="st2" width="0.6" height="0.6"/>
	
		<rect x="162.6" y="154.8" transform="matrix(0.5001 -0.866 0.866 0.5001 -52.9163 218.5646)" class="st2" width="0.6" height="0.6"/>
	<rect x="122.2" y="290.6" class="st2" width="0.6" height="0.6"/>
	<rect x="178.6" y="290.6" class="st2" width="0.6" height="0.6"/>
	<rect x="164.5" y="290.6" class="st2" width="0.6" height="0.6"/>
	<rect x="150.3" y="290.6" class="st2" width="0.6" height="0.6"/>
	<rect x="136.1" y="290.6" class="st2" width="0.6" height="0.6"/>
	
		<rect x="114.5" y="279.7" transform="matrix(0.8661 -0.4999 0.4999 0.8661 -124.6087 94.8618)" class="st2" width="0.6" height="0.6"/>
	
		<rect x="102.2" y="286.8" transform="matrix(0.866 -0.5001 0.5001 0.866 -129.8426 89.7309)" class="st2" width="0.6" height="0.6"/>
	
		<rect x="107.5" y="267.7" transform="matrix(0.866 -0.5001 0.5001 0.866 -119.5685 89.834)" class="st2" width="0.6" height="0.6"/>
	<rect x="95.3" y="274.8" transform="matrix(0.866 -0.5 0.5 0.866 -124.741 84.626)" class="st2" width="0.6" height="0.6"/>
	
		<rect x="126.7" y="272.6" transform="matrix(0.8661 -0.4999 0.4999 0.8661 -119.4224 100.0487)" class="st2" width="0.6" height="0.6"/>
	
		<rect x="139" y="265.6" transform="matrix(0.8661 -0.4999 0.4999 0.8661 -114.2362 105.2356)" class="st2" width="0.6" height="0.6"/>
	
		<rect x="151.3" y="258.5" transform="matrix(0.866 -0.5001 0.5001 0.866 -109.0856 110.4853)" class="st2" width="0.6" height="0.6"/>
	<rect x="178.6" y="276.7" class="st2" width="0.6" height="0.6"/>
	<rect x="136.1" y="276.7" class="st2" width="0.6" height="0.6"/>
	<rect x="150.3" y="276.7" class="st2" width="0.6" height="0.6"/>
	<rect x="164.5" y="276.7" class="st2" width="0.6" height="0.6"/>
	<rect x="270" y="272.5" transform="matrix(0.5 -0.866 0.866 0.5 -101.1008 370.4454)" class="st2" width="0.6" height="0.6"/>
	<rect x="276.9" y="260.5" transform="matrix(0.5 -0.866 0.866 0.5 -87.2114 370.4456)" class="st2" width="0.6" height="0.6"/>
	
		<rect x="258" y="265.6" transform="matrix(0.4999 -0.8661 0.8661 0.4999 -101.0867 356.6109)" class="st2" width="0.6" height="0.6"/>
	<rect x="252.9" y="246.6" transform="matrix(0.5 -0.866 0.866 0.5 -87.211 342.6668)" class="st2" width="0.6" height="0.6"/>
</g>
<g id="PLAN::FOND_SOL">
	
		<ellipse transform="matrix(0.7071 -0.7071 0.7071 0.7071 -82.3307 198.7728)" class="st11" cx="198.8" cy="198.8" rx="42.5" ry="42.5"/>
</g>
</svg>
