<?xml version="1.0" encoding="utf-8"?>
<!-- Generator: Adobe Illustrator 22.0.1, SVG Export Plug-In . SVG Version: 6.00 Build 0)  -->
<svg version="1.1" xmlns="http://www.w3.org/2000/svg" xmlns:xlink="http://www.w3.org/1999/xlink" x="0px" y="0px" width="397.6px"
	 height="397.6px" viewBox="0 0 397.6 397.6" style="enable-background:new 0 0 397.6 397.6;" xml:space="preserve">
<style type="text/css">
	.st0{display:none;}
	.st1{display:inline;stroke:#FFFFFF;stroke-linecap:round;stroke-linejoin:round;}
	.st2{fill:#FFFFFF;stroke:#FFFFFF;stroke-width:0.4;stroke-miterlimit:10;}
	.st3{fill:none;stroke:#FFFFFF;stroke-linecap:square;}
	.st4{fill:none;stroke:#FFFFFF;stroke-width:0.7;stroke-linecap:square;}
	.st5{fill:none;stroke:#FFFFFF;stroke-width:0.55;stroke-linecap:square;}
	.st6{fill:none;stroke:#FFFFFF;stroke-width:0.6;stroke-linecap:square;stroke-dasharray:2,3;}
	.st7{fill:none;stroke:#FFFFFF;stroke-width:0.2;stroke-linecap:square;stroke-dasharray:2,3;}
	.st8{fill:none;stroke:#FFFFFF;stroke-width:0.3;stroke-linecap:square;}
	.st9{fill:none;stroke:#FFFFFF;stroke-width:0.5;stroke-linecap:square;}
	.st10{fill:none;stroke:#FFFFFF;stroke-width:0.7;stroke-linecap:square;stroke-dasharray:2,3;}
	.st11{fill:none;stroke:#FFFFFF;stroke-width:0.4;stroke-linecap:square;}
	.st12{display:inline;}
	.st13{fill:#FFFFFF;}
	.st14{display:inline;fill:none;stroke:#000000;stroke-linecap:round;stroke-linejoin:round;}
</style>
<g id="FOND" class="st0">
	<rect x="-532.6" y="-1500.2" class="st1" width="1470.6" height="1969.9"/>
</g>
<g id="Calque_1" class="st0">
</g>
<g id="PLAN::STRUCTURE_1.1">
</g>
<g id="PLAN::IPN">
</g>
<g id="PLAN::STRUCTURE_2.3">
	<polygon class="st4" points="351.3,332.6 348.8,332.6 348.8,332.9 348,332.9 347.4,332.9 347.4,332.3 347.4,323.6 347.4,322.2 
		347.7,322.2 347.7,322 352.3,322 352.3,319.4 353.7,319.4 363.2,319.4 363.9,319.4 363.9,332.9 351.3,332.9 	"/>
	<polygon class="st4" points="122,266.2 122,268.7 121.7,268.7 121.7,269.4 121.7,270 121.7,278.1 121.2,278.1 120.9,278.1 
		120.9,279.7 120.9,280.7 121.2,280.7 125.8,280.7 125.8,281 130.5,281 130.5,280.7 134.5,280.7 134.5,280.3 136.7,280.3 138,279.5 
		138.1,279.7 141,277.9 140.8,277.7 142.1,276.8 142.1,259.2 140.9,258.4 141.1,258.2 138.2,256.3 138,256.6 136.9,255.8 
		134.1,255.8 134.1,256.9 134.1,265.5 122.3,265.5 121.7,265.5 121.7,266 121.7,266.2 	"/>
	<polygon class="st4" points="138.2,197.1 139.2,201 138.2,201.3 140.1,208.4 138.5,208.8 135.5,209.6 134.2,209.9 136.3,217.7 
		136.5,218.5 136.9,220.2 131.2,221.7 130.7,219.8 122.6,222 123.1,223.9 116.9,225.6 116.4,223.9 116.2,223.1 114.1,215.2 
		112.3,215.6 109.3,216.4 106.2,217.2 105.6,217.7 101.5,215.6 101.4,215.5 101.1,203.6 108.5,203.4 108.5,202.8 108.5,200 
		108.5,199.3 108.3,199.3 108.3,198.8 113.8,198.8 113.8,190.3 113.8,189.7 114.8,189.7 116.3,189.6 121.6,189.7 123.1,189.6 
		135.4,189.7 136.2,189.7 137.4,194 	"/>
	<path class="st4" d="M378.7,192.2c-1.4,0-2.8,0-4.2,0c-0.7,0-1.4,0-2.1,0c-0.2,0-0.4,0-0.5,0c-0.2,0-0.1-0.2-0.3-0.2
		c-0.4,0-0.7,0-1.1,0c-0.2,0-0.4,0-0.5,0c-0.2,0-0.1,0.2-0.3,0.2c-0.4,0-0.7,0-1.1,0c-0.7,0-1.4,0-2.1,0c-0.4,0-0.7,0-1.1,0
		c-0.2,0-0.4,0-0.5,0c-0.1,0-0.2,0.1-0.2,0c0-0.1,0-0.2-0.1-0.2c-0.2,0-0.4,0-0.5,0c-0.2,0-0.5,0.3-0.5-0.1c0-0.2,0-0.4,0-0.5
		c0-0.1,0-0.2,0-0.3c0-0.1,0.1-0.2,0-0.2c-0.2,0-0.4,0-0.5,0c-0.3,0-0.1,0.3-0.1,0.5c0,0.3,0.3,0.8-0.2,0.8c-0.1,0-0.2,0-0.3,0
		c-0.1,0-0.2,0.1-0.2,0c0-0.2,0-0.4,0-0.5c0-0.2,0-0.4,0-0.5c0-0.2-0.2-0.2-0.3-0.2c-0.7,0-1.4,0-2.1,0c-0.4,0-0.7,0-1.1,0
		c-0.2,0-0.4,0-0.5,0c-0.1,0-0.2,0-0.3,0c-0.1,0-0.3-0.2-0.3,0c0,0.4,0,0.7,0,1.1c0,0.5-0.5,0.3-0.8,0.3c-0.7,0-1.4,0-2.1,0
		c-0.7,0-1.4,0-2.1,0c-0.2,0-0.4,0-0.5,0c-0.2,0-0.1-0.2-0.3-0.2c-0.4,0-0.7,0-1.1,0c-0.8,0-1.5,0-2.3,0c-0.4,0-0.8,0-1.2,0
		c-0.2,0-0.3,0-0.3,0.2c0,0.1,0,0.2,0,0.3c0,0.6,0,1.1,0,1.7c-0.1,0.9-0.1,1.8-0.2,2.7c-0.1,0.5-0.1,0.9-0.2,1.4
		c0,0.1,0,0.2-0.1,0.3c0,0.1-0.2,0.3,0,0.3c0.1,0,0.3,0,0.4,0c1.8,0,3.7,0,5.5,0c0.7,0,1.4,0,2,0c0.2,0,0.5-0.2,0.5,0.1
		c0,0.1,0,0.2,0,0.3c0,0.2,0,0.3,0,0.5c0,0.3,0,0.7,0,1c0,0.3,0,0.7,0,1c0,0.2,0.1,0.4-0.2,0.4c-0.2,0-0.3,0-0.5,0c-0.7,0-1.4,0-2,0
		c-0.2,0-0.3,0-0.5,0c-0.2,0,0,0.2,0,0.2c0,0.1,0,0.2,0,0.3c0,0.1,0.1,0.3,0.1,0.4c0,0.2,0,0.3,0,0.5c0,0.8,0.2,1.5,0.4,2.3
		c0.4,1.3,0.9,2.6,1.6,3.7c1.7,2.6,3.7,4.2,6.7,5.1c0.7,0.2,1.5,0.4,2.2,0.5c0.3,0,0.7,0.1,1,0.1c0.1,0,0.3-0.2,0.3,0
		c0,0.1,0,0.2,0,0.2c0,0.2,0,0.3,0,0.5c0,0.7,0,1.3,0,2c0,0.3,0,0.7,0,1c0,0.3-0.2,0.7,0.3,0.7c5.6,0,11.3,0,16.9,0
		c0.4,0,0.7,0,1.1,0c0.2,0,0.4,0,0.5,0c0.2,0,0.4,0.2,0.4-0.1c0-0.7,0-1.4,0-2.1c0-1.4,0-2.8,0-4.2c0-2.8,0-5.7,0-8.5
		c0-2.8,0-5.7,0-8.5c0-0.7,0-1.4,0-2.1c0-0.4,0-0.7,0-1.1c0-0.2,0.2-0.9-0.1-0.9C381.5,192.2,380.1,192.2,378.7,192.2z"/>
	<polygon class="st4" points="257.3,41.1 257.3,41.7 253,41.7 244.8,41.5 240.6,41.3 235.5,40.9 231.2,40.4 226.1,39.8 221.9,39.2 
		222,38.6 223.7,38.8 223.8,38.1 224.3,38.1 224.1,38.1 225.6,27.7 225.7,27.2 229.4,27.8 229.5,27.1 229.8,24.4 231.1,14.4 
		230.4,13.1 230.5,12.5 232,12.7 235.5,13.1 238.4,13.4 243.4,13.8 244.1,13.8 246.4,13.9 246.4,10.7 255,10.7 255,9.3 255.5,9.3 
		255.5,15.8 255.5,16.4 255.5,41.1 	"/>
	<path class="st4" d="M344.9,63.8c1.4,0,2.8,0,4.2,0c0.7,0,1.4,0,2.1,0c0.2,0,0.4,0,0.5,0c0.2,0,0.1,0.2,0.3,0.2c0.4,0,0.7,0,1.1,0
		c0.2,0,0.4,0,0.5,0c0.2,0,0.1-0.2,0.3-0.2c0.4,0,0.7,0,1.1,0c0.7,0,1.4,0,2.1,0c0.4,0,0.7,0,1.1,0c0.2,0,0.4,0,0.5,0
		c0.1,0,0.2-0.1,0.2,0c0,0.1,0,0.2,0.1,0.2c0.2,0,0.4,0,0.5,0c0.2,0,0.5-0.3,0.5,0.1c0,0.2,0,0.4,0,0.5c0,0.1,0,0.2,0,0.3
		c0,0.1-0.1,0.2,0,0.2c0.2,0,0.4,0,0.5,0c0.3,0,0.1-0.3,0.1-0.5c0-0.3-0.3-0.8,0.2-0.8c0.1,0,0.2,0,0.3,0c0.1,0,0.2-0.1,0.2,0
		c0,0.2,0,0.4,0,0.5s0,0.4,0,0.5c0,0.2,0.2,0.2,0.3,0.2c0.7,0,1.4,0,2.1,0c0.4,0,0.7,0,1.1,0c0.2,0,0.4,0,0.5,0c0.1,0,0.2,0,0.3,0
		c0.1,0,0.3,0.2,0.3,0c0-0.4,0-0.7,0-1.1c0-0.5,0.5-0.3,0.8-0.3c0.7,0,1.4,0,2.1,0c0.7,0,1.4,0,2.1,0c0.2,0,0.4,0,0.5,0
		c0.2,0,0.1,0.2,0.3,0.2c0.4,0,0.7,0,1.1,0c0.8,0,1.5,0,2.3,0c0.4,0,0.8,0,1.2,0c0.2,0,0.3,0,0.3-0.2c0-0.1,0-0.2,0-0.3
		c0-0.6,0-1.1,0-1.7c0.1-0.9,0.1-1.8,0.2-2.7c0.1-0.5,0.1-0.9,0.2-1.4c0-0.1,0-0.2,0.1-0.3c0-0.1,0.2-0.3,0-0.3c-0.1,0-0.3,0-0.4,0
		c-1.8,0-3.7,0-5.5,0c-0.7,0-1.4,0-2,0c-0.2,0-0.5,0.2-0.5-0.1c0-0.1,0-0.2,0-0.3c0-0.2,0-0.3,0-0.5c0-0.3,0-0.7,0-1
		c0-0.3,0-0.7,0-1c0-0.2-0.1-0.4,0.2-0.4c0.2,0,0.3,0,0.5,0c0.7,0,1.4,0,2,0c0.2,0,0.3,0,0.5,0c0.2,0,0-0.2,0-0.2c0-0.1,0-0.2,0-0.3
		c0-0.1-0.1-0.3-0.1-0.4c0-0.2,0-0.3,0-0.5c0-0.8-0.2-1.5-0.4-2.3c-0.4-1.3-0.9-2.6-1.6-3.7c-1.7-2.6-3.7-4.2-6.7-5.1
		c-0.7-0.2-1.5-0.4-2.2-0.5c-0.3,0-0.7-0.1-1-0.1c-0.1,0-0.3,0.2-0.3,0c0-0.1,0-0.2,0-0.2c0-0.2,0-0.3,0-0.5c0-0.7,0-1.3,0-2
		c0-0.3,0-0.7,0-1c0-0.3,0.2-0.7-0.3-0.7c-5.6,0-11.3,0-16.9,0c-0.4,0-0.7,0-1.1,0c-0.2,0-0.4,0-0.5,0c-0.2,0-0.4-0.2-0.4,0.1
		c0,0.7,0,1.4,0,2.1c0,1.4,0,2.8,0,4.2c0,2.8,0,5.7,0,8.5c0,2.8,0,5.7,0,8.5c0,0.7,0,1.4,0,2.1c0,0.4,0,0.7,0,1.1
		c0,0.2-0.2,0.9,0.1,0.9C342.1,63.8,343.5,63.8,344.9,63.8z"/>
	<polygon class="st4" points="395.7,125.4 395.7,128 396,128 396,142.1 395.4,142.1 377.4,142.1 376.3,142.1 376,142.1 376,133.9 
		376,133.4 376,133.4 376,128.2 376,127.8 376,125.6 376.3,125.6 390.5,125.6 391.5,124.5 391.5,121.9 396,121.9 396,122.9 
		396,122.9 396,125.4 	"/>
	<polygon class="st4" points="306.7,77.4 304.1,77.4 304.1,77.7 303.4,77.7 302.8,77.7 302.8,77.1 302.8,68.5 302.8,67 303.1,67 
		303.1,66.8 307.7,66.8 307.7,64.2 309.1,64.2 318.6,64.2 319.3,64.2 319.3,77.7 306.7,77.7 	"/>
	<polygon class="st4" points="296.2,39.7 296.2,49.3 298,49.3 298,49.7 298,52.5 298,57.4 303.7,57.4 303.7,57.1 324.5,57.1 
		324.5,55 324.5,52.5 324.5,49.9 324.9,49.9 324.9,46.5 324.9,40.9 324.9,35.9 324.9,29.3 324.9,27.9 324.9,27.1 324.7,25.9 
		323.9,26 324.1,27.1 297.3,28.9 297.3,28.8 297.1,27.1 296.3,27.2 296.5,28.8 296.5,31.2 296.5,38.5 296.5,39.7 	"/>
	<polygon class="st4" points="302.2,106.7 302.2,107.4 312.2,107.4 312.2,106.7 312.2,86.2 312.2,85.5 309.6,85.5 304.4,85.5 
		302.6,85.5 302.6,81.4 292.5,81.4 292.5,85.5 292.5,86.2 292.5,107.4 298.2,107.4 298.2,105.5 299.7,105.5 302.2,105.5 	"/>
	<polygon class="st4" points="307.9,146.5 307.9,139.5 309.5,139.4 309.5,128 308.3,128 306.7,126.4 306.7,117.9 306.8,117.9 
		306.8,117.5 307.1,117.5 307.1,117.2 306,117.2 306,115.8 301.9,115.8 301.9,117.2 295.8,117.2 295.8,116.9 292.6,116.9 
		292.6,117.2 291.3,117.2 291.3,118.4 291,118.4 291,121.7 291.3,121.7 291.3,134 291,134 291,137.2 291.3,137.2 291.3,139.4 
		292.3,139.4 292.3,139.8 295.4,139.8 295.4,141.9 298.7,141.9 298.7,146.5 	"/>
	<polygon class="st4" points="262.5,121.1 262.5,123.7 262.1,123.7 262.2,130.6 262.3,131.4 263.1,131.7 263.3,131.7 263.2,131.9 
		264.9,132.4 265,132.2 266.2,132.6 266.1,132.8 267.8,133.3 267.9,133.1 268.2,133.2 267.9,133.9 267.7,137.6 270.2,138.5 
		270.2,138.7 273.5,139.9 273.5,139.7 276.7,140.7 276.6,140.9 279,141.8 279,141.6 280.7,142.1 284.1,132.4 279.9,130.9 
		280.8,128.3 281,128.4 282.1,125.1 281.9,125 283.6,120.2 282.8,120.2 265.8,120.2 264.3,120.2 264.1,120.2 263.9,120.2 262,120.2 
		262.1,121.1 	"/>
	<polygon class="st4" points="272.9,25.6 275.4,25.6 275.4,25.2 277.9,25.2 280.5,25.2 283.9,25.2 283.9,25.8 283.9,57.1 
		283.2,57.1 265.5,57.1 264.9,57.1 264.9,25.8 264.9,25.2 268.2,25.2 270.7,25.2 272.9,25.2 	"/>
	<polygon class="st4" points="284,0.7 281.5,0.7 281.5,0.4 267.3,0.4 267.3,1 267.3,19 267.3,20.1 267.3,20.4 275.5,20.4 
		276.1,20.4 276.1,20.4 281.3,20.4 281.6,20.4 283.9,20.4 283.9,20.1 283.9,5.9 284.9,4.9 287.6,4.9 287.6,0.4 286.6,0.4 286.6,0.4 
		284,0.4 	"/>
	<polygon class="st4" points="170.5,43.7 170.5,39.6 171.6,39.6 171.6,32.3 173.2,32.3 176.3,32.3 177.6,32.3 177.6,24.2 
		177.6,23.5 177.6,21.7 183.6,21.7 183.6,23.6 192,23.6 192,21.6 198.4,21.6 198.4,23.4 198.4,24.2 198.4,32.4 200.3,32.4 
		203.3,32.5 206.6,32.5 207.3,32.2 210.7,35.3 210.8,35.4 208,46.9 200.8,45.2 200.7,45.8 199.9,48.6 199.7,49.2 199.9,49.2 
		199.8,49.7 194.5,48.3 192.3,56.5 192.1,57.1 191.2,56.9 189.7,56.5 184.6,55.1 183.2,54.8 171.2,51.6 170.5,51.4 170.5,46.9 	"/>
	<polygon class="st4" points="96.8,5.9 94.2,5.9 94.2,3.8 74.6,3.8 74.6,5.9 74.8,5.9 74.8,20.4 74.6,20.4 74.6,21.7 113.8,21.7 
		113.8,16.3 113.8,12.3 113.8,11.3 113.8,8.6 113.8,3.8 96.8,3.8 	"/>
	<polygon class="st4" points="186.2,78.1 183.7,78.1 183.7,78.4 182.9,78.4 182.3,78.4 182.3,77.8 182.3,69.1 182.3,67.7 
		182.6,67.7 182.6,67.5 187.2,67.5 187.2,64.9 188.6,64.9 198.1,64.9 198.8,64.9 198.8,78.4 186.2,78.4 	"/>
	<polygon class="st4" points="167.4,68.7 168.1,68.7 168.1,58.6 167.4,58.6 146.9,58.6 146.1,58.6 146.1,61.3 146.1,66.5 
		146.1,68.3 142,68.3 142,78.4 146.1,78.4 146.9,78.4 168.1,78.4 168.1,72.7 166.2,72.7 166.2,71.1 166.2,68.7 	"/>
	<polygon class="st4" points="142,85.7 144.5,85.7 144.5,85.5 158.7,85.5 158.7,86 158.7,104 158.7,105.2 158.7,105.4 150.5,105.4 
		149.9,105.4 149.9,105.4 144.7,105.4 144.4,105.4 142.1,105.4 142.1,105.2 142.1,90.9 141.1,89.9 138.4,89.9 138.4,85.5 
		139.4,85.5 139.4,85.5 142,85.5 	"/>
	<path class="st4" d="M162,178.3c0-1.2,0-2.4,0-3.6c-1.1,0-2.2,0-3.3,0c-0.9,0-1.8,0-2.7,0c0-0.2,0-0.4,0-0.5c0-4.1,0-8.3,0-12.4
		c-0.2,0-0.3,0-0.5,0c0-0.7,0-1.4,0-2.1c0.2,0,0.5,0,0.7,0c0-1.1,0-2.2,0-3.3c1.9,0,3.8,0,5.7,0c0-0.1,0-0.3,0-0.3
		c0-0.6,0.5-1.1,1.1-1.1h0.7c2.9,0,5.8,0,8.8,0h0.7c0.6,0,1.1,0.5,1.1,1.1v3.5c2.5,0,9.7,0,9.7,0c0.3,0,0.5,0.2,0.5,0.5h0v0.5h0v4
		c0.1,0,0.1,0,0.2,0c0,3.6,0,7.3,0,10.9c-0.1,0-0.1,0-0.2,0c0,1.8,0,3.7,0,5.5c-0.1,0-0.2,0-0.3,0c0,1.7,0,3.3,0,5
		c0,3.2,0,6.5,0,9.7c0.1,0,0.2,0,0.3,0c0,0.4,0,0.7,0,1.1c-0.4,0-0.7,0-1.1,0c0-0.1,0-0.2,0-0.2c-2.9,0-5.9,0-8.8,0
		c0,0.1,0,0.2,0,0.2c-0.4,0-0.7,0-1.1,0c0-0.1,0-0.2,0-0.2c-3.6,0-7.1,0-10.7,0c0,0.1,0,0.2,0,0.2c-0.4,0-0.7,0-1.1,0
		c0-0.4,0-0.7,0-1.1c0.1,0,0.2,0,0.3,0c0-3.7,0-7.4,0-11.1c0-1,0-1.9,0-2.9c0-0.4,0-0.9,0-1.3c-0.1,0-0.2,0-0.3,0c0-0.7,0-1.3,0-2
		c0,0,0,0,0,0C161.8,178.3,161.9,178.3,162,178.3z"/>
	<polygon class="st4" points="283.9,198.8 283.9,172.3 269,172.3 269,173.4 257,173.4 257,174.5 237.5,174.5 237.5,198.8 	"/>
	<polygon class="st4" points="227.9,150.2 227.9,150.3 227.2,150.3 227.2,150.4 227.2,155 227.9,155 227.9,155.1 227.2,155.1 
		227.2,159 227.2,159.7 227.9,159.7 227.9,159.9 227.2,159.9 227.2,160.6 227.2,164.5 227.9,164.5 227.9,164.7 227.2,164.7 
		227.2,169.2 227.2,169.3 227.9,169.3 227.9,169.4 227.2,169.4 227.2,169.5 227.2,174.1 227.9,174.1 227.9,174.2 227.2,174.2 
		227.2,178.1 227.2,178.8 227.9,178.8 227.9,179 227.2,179 227.2,179.7 227.2,183.6 227.9,183.6 227.9,183.8 227.2,183.8 
		227.2,188.4 227.9,188.4 227.9,188.5 227.2,188.5 227.2,193.2 227.9,193.2 227.9,193.3 227.2,193.3 227.2,197.2 227.2,197.9 
		227.9,197.9 227.9,198.1 227.2,198.1 227.2,198.8 226.4,198.8 226.4,199.5 226.2,199.5 226.2,198.8 225.5,198.8 221.6,198.8 
		221.6,199.5 221.5,199.5 221.5,198.8 216.8,198.8 216.8,199.5 216.7,199.5 216.7,198.8 212.1,198.8 212.1,199.5 211.9,199.5 
		211.9,198.8 208.1,198.8 207.3,198.8 207.3,199.5 207.1,199.5 207.1,198.8 206.4,198.8 202.5,198.8 202.5,199.5 202.4,199.5 
		202.4,198.8 197.8,198.8 197.8,198.9 197.7,198.9 197.7,199.5 197.6,199.5 197.6,198.9 197.5,198.9 197.5,178 197.5,177.7 
		200.9,177.7 200.9,177.1 200.9,172.4 200.9,169.9 200.9,158.6 207,158.6 207,150.1 227.2,150.1 227.2,150.2 	"/>
	<polygon class="st4" points="227.7,209.5 227.7,203.1 228.6,203.1 242.3,203.1 244.8,203.1 250.6,203.1 252.5,203.1 255.5,203.1 
		255.5,227.2 254.6,227.2 241.4,227.2 237.2,227.2 234.9,227.2 227.7,227.2 227.7,215.7 227.7,213.8 227.7,211.7 	"/>
	<rect x="198.8" y="236" class="st4" width="25.5" height="46.6"/>
	<polygon class="st4" points="184.5,201.9 199.9,204.9 200.2,205 200.5,205 199.3,211.2 207.7,213 208.1,213.1 208.1,213.1 
		208,213.6 208.8,216.2 211.1,220.8 211.2,220.8 211.4,221.3 204.6,224.5 201.9,225.7 198.8,227.2 192.7,227.1 190.7,227.1 
		189.9,227.1 186.4,227.1 180.8,227.2 182.4,213.3 185.1,213.6 185.9,206.1 183.4,205.8 183.9,201.8 	"/>
	<polygon class="st4" points="268.7,239.9 269.5,239.9 276.8,239.9 276.8,253.3 269.5,253.3 269.5,258.8 269.5,262.8 269.5,266.8 
		264.5,266.8 264.5,269.7 264.5,273.6 264.5,273.7 264.5,276.8 239.3,276.8 239.3,272.9 239.3,269 239.3,263.1 239.3,259.1 
		239.3,252.1 245.2,252.1 245.2,239.9 250,239.9 253.9,239.9 	"/>
	<polygon class="st4" points="311.9,323.8 311.9,321.3 311.9,312.2 335.1,312.2 335.7,312.2 335.7,312.5 339.9,312.5 339.9,322.3 
		339.9,323 339.9,326.2 339.9,329 339.9,332.1 339.9,332.9 339.3,332.9 311.9,332.9 	"/>
	<polygon class="st4" points="340.4,376.3 342.9,376.3 342.9,376 357.1,376 357.1,376.6 357.1,394.6 357.1,395.7 357.1,396 
		348.9,396 348.3,396 348.3,396 343.1,396 342.8,396 340.6,396 340.6,395.7 340.6,381.5 339.5,380.5 336.9,380.5 336.9,376 
		337.9,376 337.9,376 340.4,376 	"/>
	<polygon class="st4" points="365.8,344.3 362.8,359.7 362.8,359.9 362.7,360.3 356.5,359 354.7,367.4 354.6,367.9 354.6,367.9 
		354.1,367.8 351.5,368.6 347,370.9 346.9,370.9 346.4,371.1 343.3,364.3 342,361.7 340.6,358.6 340.6,352.4 340.6,350.5 
		340.6,349.6 340.6,346.2 340.6,340.6 354.4,342.2 354.1,344.8 361.6,345.7 361.9,343.1 366,343.6 	"/>
	<polygon class="st4" points="314.4,357.6 314.4,360.1 312.2,360.1 312.2,379.8 314.4,379.8 314.4,379.5 328.8,379.5 328.8,379.8 
		330.1,379.8 330.1,340.6 324.7,340.6 320.7,340.6 319.7,340.6 317,340.6 312.2,340.6 312.2,357.6 	"/>
	<polygon class="st4" points="297.1,381.5 297.1,384.1 297.4,384.1 297.4,384.8 297.4,385.4 296.8,385.4 288.1,385.4 286.7,385.4 
		286.7,385.1 286.5,385.1 286.5,380.5 283.9,380.5 283.9,379.1 283.9,369.6 283.9,368.9 297.4,368.9 297.4,381.5 	"/>
	<polygon class="st4" points="216.6,311.4 216.6,311.4 216.6,312 215.7,312 209.5,312 208.3,312 201.7,312 199.3,312 192.8,312 
		190.1,312 186.9,312 185.6,312 179.3,312 177.6,312 177.5,289.3 178.1,289.3 199.2,287.2 199.7,292.1 201.7,291.9 204.1,291.7 
		213.9,290.7 213.9,290.4 214.5,290.4 	"/>
	<polygon class="st4" points="161.4,312.2 158.9,312.2 149.8,312.2 149.8,289 149.8,288.5 150.1,288.5 150.1,284.3 159.9,284.3 
		160.7,284.3 163.8,284.3 166.6,284.3 169.7,284.3 170.5,284.3 170.5,284.8 170.5,312.2 	"/>
	<polygon class="st4" points="226.9,385.1 226.9,387.6 226.9,396.7 203.7,396.7 203.2,396.7 203.2,396.4 198.9,396.4 199,386.5 
		199,385.8 199,382.7 199,379.9 199,376.8 199,376 199.5,376 226.9,376 	"/>
	<polygon class="st4" points="195,366.8 197.5,366.8 197.5,367.1 198.2,367.1 198.8,367.1 206.9,367.1 206.9,367.7 206.9,368 
		208.5,368 209.5,368 209.5,367.7 209.5,363.1 209.8,363.1 209.8,358.3 209.5,358.3 209.5,354.4 209.1,354.4 209.1,352.1 
		208.3,350.9 208.5,350.7 206.7,347.9 206.5,348.1 205.6,346.7 188,346.7 187.2,347.9 187,347.8 185.1,350.7 185.4,350.8 184.6,352 
		184.6,354.7 185.7,354.7 194.3,354.7 194.3,366.6 194.3,367.1 194.8,367.1 195,367.1 	"/>
	<polygon class="st4" points="218.6,334 221.2,334 221.2,334.3 230.1,334.3 230.1,351.7 228.1,351.7 228.1,359.8 228.1,361.1 
		235.5,361.1 253.4,361.1 253.4,360.5 253.6,359.8 253.6,359.8 255.2,355.1 255.6,353.8 253.4,347 253.6,346.4 253.6,346.4 
		255.2,341.6 255.6,340.3 253.4,333.6 253.6,333 253.6,333 255.2,328.2 255.6,326.9 253.4,320.2 253.4,319.6 225.5,319.6 
		222.3,319.6 215.2,319.6 212,319.6 191.1,319.6 191.1,320.3 188,320.3 185.9,326.9 188,333.6 188,340.1 188,340.6 208.8,340.6 
		208.8,334.3 218.6,334.3 	"/>
	<polygon class="st4" points="153.8,326.7 156.3,326.7 156.3,326.4 170.5,326.4 170.5,327 170.5,345 170.5,346.1 170.5,346.4 
		162.3,346.4 161.7,346.4 161.7,346.4 156.5,346.4 156.1,346.4 153.9,346.4 153.9,346.1 153.9,331.9 152.9,330.9 150.2,330.9 
		150.2,326.4 151.2,326.4 151.2,326.4 153.8,326.4 	"/>
	<path class="st4" d="M163.8,392.8c0-1.4,0-2.8,0-4.2c0-0.7,0-1.4,0-2.1c0-0.2,0-0.4,0-0.5c0-0.2-0.2-0.1-0.2-0.3c0-0.4,0-0.7,0-1.1
		c0-0.2,0-0.4,0-0.5c0-0.2,0.2-0.1,0.2-0.3c0-0.4,0-0.7,0-1.1c0-0.7,0-1.4,0-2.1c0-0.4,0-0.7,0-1.1c0-0.2,0-0.4,0-0.5
		c0-0.1,0.1-0.2,0-0.2c-0.1,0-0.2,0-0.2-0.1c0-0.2,0-0.4,0-0.5c0-0.2,0.3-0.5-0.1-0.5c-0.2,0-0.4,0-0.5,0c-0.1,0-0.2,0-0.3,0
		c-0.1,0-0.2,0.1-0.2,0c0-0.2,0-0.4,0-0.5c0-0.3,0.3-0.1,0.5-0.1c0.3,0,0.8,0.3,0.8-0.2c0-0.1,0-0.2,0-0.3c0-0.1,0.1-0.2,0-0.2
		c-0.2,0-0.4,0-0.5,0c-0.2,0-0.4,0-0.5,0c-0.2,0-0.2-0.2-0.2-0.3c0-0.7,0-1.4,0-2.1c0-0.4,0-0.7,0-1.1c0-0.2,0-0.4,0-0.5
		c0-0.1,0-0.2,0-0.3c0-0.1-0.2-0.3,0-0.3c0.4,0,0.7,0,1.1,0c0.5,0,0.3-0.5,0.3-0.8c0-0.7,0-1.4,0-2.1c0-0.7,0-1.4,0-2.1
		c0-0.2,0-0.4,0-0.5c0-0.2-0.2-0.1-0.2-0.3c0-0.4,0-0.7,0-1.1c0-0.8,0-1.5,0-2.3c0-0.4,0-0.8,0-1.2c0-0.2,0-0.3,0.2-0.3
		c0.1,0,0.2,0,0.3,0c0.6,0,1.1,0,1.7,0c0.9-0.1,1.8-0.1,2.7-0.2c0.5-0.1,0.9-0.1,1.4-0.2c0.1,0,0.2,0,0.3-0.1c0.1,0,0.3-0.2,0.3,0
		c0,0.1,0,0.3,0,0.4c0,1.8,0,3.7,0,5.5c0,0.7,0,1.4,0,2c0,0.2-0.2,0.5,0.1,0.5c0.1,0,0.2,0,0.3,0c0.2,0,0.3,0,0.5,0c0.3,0,0.7,0,1,0
		c0.3,0,0.7,0,1,0c0.2,0,0.4,0.1,0.4-0.2c0-0.2,0-0.3,0-0.5c0-0.7,0-1.4,0-2c0-0.2,0-0.3,0-0.5c0-0.2,0.2,0,0.2,0c0.1,0,0.2,0,0.3,0
		c0.1,0,0.3,0.1,0.4,0.1c0.2,0,0.3,0,0.5,0c0.8,0,1.5,0.2,2.3,0.4c1.3,0.4,2.6,0.9,3.7,1.6c2.6,1.7,4.2,3.7,5.1,6.7
		c0.2,0.7,0.4,1.5,0.5,2.2c0,0.3,0.1,0.7,0.1,1c0,0.1-0.2,0.3,0,0.3c0.1,0,0.2,0,0.2,0c0.2,0,0.3,0,0.5,0c0.7,0,1.3,0,2,0
		c0.3,0,0.7,0,1,0c0.3,0,0.7-0.2,0.7,0.3c0,5.6,0,11.3,0,16.9c0,0.4,0,0.7,0,1.1c0,0.2,0,0.4,0,0.5c0,0.2,0.2,0.4-0.1,0.4
		c-0.7,0-1.4,0-2.1,0c-1.4,0-2.8,0-4.2,0c-2.8,0-5.7,0-8.5,0c-2.8,0-5.7,0-8.5,0c-0.7,0-1.4,0-2.1,0c-0.4,0-0.7,0-1.1,0
		c-0.2,0-0.9,0.2-0.9-0.1C163.8,395.6,163.8,394.2,163.8,392.8z"/>
	<polygon class="st4" points="132.1,311.5 132.1,312.2 142.1,312.2 142.1,311.5 142.1,291 142.1,290.2 139.5,290.2 134.3,290.2 
		132.5,290.2 132.5,286.1 122.4,286.1 122.4,290.2 122.4,291 122.4,312.2 128.1,312.2 128.1,310.3 129.6,310.3 132.1,310.3 	"/>
	<polygon class="st4" points="114.3,322.9 114.3,316.5 115.2,316.5 128.9,316.5 131.4,316.5 137.3,316.5 139.1,316.5 142.1,316.5 
		142.1,340.6 141.2,340.6 128,340.6 123.8,340.6 121.5,340.6 114.3,340.6 114.3,329.1 114.3,327.2 114.3,325.1 	"/>
	<polygon class="st4" points="113.8,255.5 113.8,229 98.8,229 98.8,230.1 86.8,230.1 86.8,231.2 67.4,231.2 67.4,255.5 	"/>
	<polygon class="st4" points="113.2,314 113.8,314 113.8,309.8 113.6,301.5 113.3,297.3 112.9,292.2 112.5,288 111.9,282.9 
		111.3,278.7 110.6,278.8 110.9,280.5 110.1,280.6 110.2,281.1 110.2,280.8 99.8,282.4 99.3,282.4 99.8,286.2 99.2,286.3 
		96.5,286.5 86.5,287.9 85.2,287.2 84.6,287.3 84.7,288.7 85.2,292.3 85.5,295.2 85.9,300.1 85.9,300.9 86,303.1 82.7,303.2 
		82.8,311.8 81.4,311.8 81.4,312.3 87.9,312.2 88.5,312.2 113.1,312.2 	"/>
	<polygon class="st4" points="108.9,331.1 108.9,325.6 89.5,325.6 89.5,325.8 85.5,325.8 85.5,326 85.4,326 85.4,338.4 87,338.4 
		87,346 86.8,346 86.8,348.3 87,348.3 87,350.4 87,355.9 85.4,355.9 85.4,368.9 89.5,368.9 89.5,369 97,369 100.9,369 109.6,369 
		111.9,369 116.3,369 118.5,369 118.5,361.1 117.5,361.1 112.5,361.1 112.5,355.7 111.8,355.7 109.2,355.7 108.6,355.7 108.6,350.4 
		108.6,343.8 108.9,343.8 108.9,341.2 108.9,338.7 108.9,333.2 	"/>
	<polygon class="st4" points="43,341.6 43,339.1 43,330 66.2,330 66.7,330 66.7,330.3 70.9,330.3 70.9,340.1 70.9,340.8 70.9,344 
		70.9,346.8 70.9,349.9 70.9,350.7 70.4,350.7 43,350.7 	"/>
	<polygon class="st4" points="59.1,300.9 59.1,303.5 56.9,303.5 56.9,323.1 59.1,323.1 59.1,322.8 73.5,322.8 73.5,323.1 
		74.8,323.1 74.8,283.9 69.5,283.9 65.5,283.9 64.4,283.9 61.7,283.9 56.9,283.9 56.9,300.9 	"/>
	<polygon class="st4" points="57.1,279 64.1,279 64.1,280.5 75.6,280.5 75.6,279.3 77.2,277.7 85.7,277.7 85.7,277.9 86.1,277.8 
		86.1,278.1 86.4,278.1 86.4,277 87.8,277 87.8,272.9 86.4,272.9 86.4,266.9 86.7,266.9 86.7,263.6 86.4,263.6 86.4,262.3 
		85.2,262.3 85.2,262 81.9,262 81.9,262.3 69.6,262.3 69.6,262 66.4,262 66.4,262.3 64.1,262.3 64.1,263.3 63.8,263.3 63.8,266.5 
		61.7,266.5 61.7,269.7 57.1,269.7 	"/>
	<path class="st4" d="M42.1,307.9c0-1.4,0-2.8,0-4.2c0-0.7,0-1.4,0-2.1c0-0.2,0-0.4,0-0.5c0-0.2,0.2-0.1,0.2-0.3c0-0.4,0-0.7,0-1.1
		c0-0.2,0-0.4,0-0.5c0-0.2-0.2-0.1-0.2-0.3c0-0.4,0-0.7,0-1.1c0-0.7,0-1.4,0-2.1c0-0.4,0-0.7,0-1.1c0-0.2,0-0.4,0-0.5
		c0-0.1-0.1-0.2,0-0.2c0.1,0,0.2,0,0.2-0.1c0-0.2,0-0.4,0-0.5c0-0.2-0.3-0.5,0.1-0.5c0.2,0,0.4,0,0.5,0c0.1,0,0.2,0,0.3,0
		c0.1,0,0.2,0.1,0.2,0c0-0.2,0-0.4,0-0.5c0-0.3-0.3-0.1-0.5-0.1c-0.3,0-0.8,0.3-0.8-0.2c0-0.1,0-0.2,0-0.3c0-0.1-0.1-0.2,0-0.2
		c0.2,0,0.4,0,0.5,0c0.2,0,0.4,0,0.5,0c0.2,0,0.2-0.2,0.2-0.3c0-0.7,0-1.4,0-2.1c0-0.4,0-0.7,0-1.1c0-0.2,0-0.4,0-0.5
		c0-0.1,0-0.2,0-0.3c0-0.1,0.2-0.3,0-0.3c-0.4,0-0.7,0-1.1,0c-0.5,0-0.3-0.5-0.3-0.8c0-0.7,0-1.4,0-2.1c0-0.7,0-1.4,0-2.1
		c0-0.2,0-0.4,0-0.5c0-0.2,0.2-0.1,0.2-0.3c0-0.4,0-0.7,0-1.1c0-0.8,0-1.5,0-2.3c0-0.4,0-0.8,0-1.2c0-0.2,0-0.3-0.2-0.3
		c-0.1,0-0.2,0-0.3,0c-0.6,0-1.1,0-1.7,0c-0.9-0.1-1.8-0.1-2.7-0.2c-0.5-0.1-0.9-0.1-1.4-0.2c-0.1,0-0.2,0-0.3-0.1
		c-0.1,0-0.3-0.2-0.3,0c0,0.1,0,0.3,0,0.4c0,1.8,0,3.7,0,5.5c0,0.7,0,1.4,0,2c0,0.2,0.2,0.5-0.1,0.5c-0.1,0-0.2,0-0.3,0
		c-0.2,0-0.3,0-0.5,0c-0.3,0-0.7,0-1,0c-0.3,0-0.7,0-1,0c-0.2,0-0.4,0.1-0.4-0.2c0-0.2,0-0.3,0-0.5c0-0.7,0-1.4,0-2
		c0-0.2,0-0.3,0-0.5c0-0.2-0.2,0-0.2,0c-0.1,0-0.2,0-0.3,0c-0.1,0-0.3,0.1-0.4,0.1c-0.2,0-0.3,0-0.5,0c-0.8,0-1.5,0.2-2.3,0.4
		c-1.3,0.4-2.6,0.9-3.7,1.6c-2.6,1.7-4.2,3.7-5.1,6.7c-0.2,0.7-0.4,1.5-0.5,2.2c0,0.3-0.1,0.7-0.1,1c0,0.1,0.2,0.3,0,0.3
		c-0.1,0-0.2,0-0.2,0c-0.2,0-0.3,0-0.5,0c-0.7,0-1.3,0-2,0c-0.3,0-0.7,0-1,0c-0.3,0-0.7-0.2-0.7,0.3c0,5.6,0,11.3,0,16.9
		c0,0.4,0,0.7,0,1.1c0,0.2,0,0.4,0,0.5c0,0.2-0.2,0.4,0.1,0.4c0.7,0,1.4,0,2.1,0c1.4,0,2.8,0,4.2,0c2.8,0,5.7,0,8.5,0
		c2.8,0,5.7,0,8.5,0c0.7,0,1.4,0,2.1,0c0.4,0,0.7,0,1.1,0c0.2,0,0.9,0.2,0.9-0.1C42.1,310.7,42.1,309.3,42.1,307.9z"/>
	<polygon class="st4" points="42.6,220.7 42.6,223.3 42.4,223.3 42.4,232.2 24.9,232.2 24.9,230.2 16.8,230.2 15.5,230.2 
		15.5,237.6 15.5,255.5 16.2,255.5 16.8,255.7 16.8,255.7 21.6,257.3 22.9,257.7 29.6,255.5 30.2,255.7 30.2,255.7 35,257.3 
		36.3,257.7 43,255.5 43.7,255.7 43.7,255.7 48.4,257.3 49.7,257.7 56.4,255.5 57.1,255.5 57.1,227.6 57.1,224.4 57.1,217.3 
		57.1,214.1 57.1,193.2 56.3,193.2 56.3,190.1 49.7,188 43,190.1 36.5,190.1 36.1,190.1 36.1,211 42.4,211 42.4,220.7 	"/>
	<polygon class="st4" points="32.9,142.2 33.7,142.2 41,142.2 41,155.6 33.7,155.6 33.7,161 33.7,165 33.7,169 28.7,169 28.7,171.9 
		28.7,175.8 28.7,175.9 28.7,179 3.5,179 3.5,175.2 3.5,171.2 3.5,165.3 3.5,161.3 3.5,154.3 9.4,154.3 9.4,142.2 14.2,142.2 
		18.1,142.2 	"/>
	<polygon class="st4" points="35.3,116.1 37.9,116.4 37.9,116 44.7,116.9 45.6,117 45.7,117.8 45.8,118.1 46,118 46.3,119.8 
		46.1,119.8 46.3,121 46.5,121 46.8,122.7 46.6,122.8 46.7,123.1 47.4,122.9 51.1,123.2 51.7,125.7 51.9,125.7 52.7,129.1 
		52.5,129.2 53.2,132.4 53.4,132.4 54,134.8 53.8,134.8 54.2,136.6 44.1,138.8 43.1,134.5 40.4,135.1 40.5,135.3 37,136.1 37,135.8 
		32,137 32.1,136.1 34,119.2 34.2,117.7 34.2,117.6 34.2,117.4 34.4,115.5 35.4,115.7 	"/>
	<polygon class="st4" points="2.9,128.6 2.9,128.6 2.3,128.5 2.4,127.6 3,121.5 3.1,120.3 3.8,113.8 4,111.3 4.7,104.9 5,102.2 
		5.3,99 5.4,97.7 6.1,91.5 6.3,89.8 28.8,92 28.8,92.6 28.7,113.8 23.8,113.8 23.8,115.8 23.8,118.2 23.7,128.1 24.1,128.1 
		24,128.7 	"/>
	<polygon class="st4" points="48.4,85.6 48.4,83.1 48.7,83.1 48.7,68.9 48.1,68.9 30.1,68.9 29,68.9 28.7,68.9 28.7,77.1 28.7,77.7 
		28.7,77.7 28.7,82.9 28.7,83.2 28.7,85.5 29,85.5 43.2,85.5 44.2,86.5 44.2,89.1 48.7,89.1 48.7,88.2 48.7,88.2 48.7,85.6 	"/>
	<polygon class="st4" points="22.8,56.9 25.4,56.9 25.4,57.1 29.5,57.1 29.5,48.5 35.8,48.5 35.8,32.1 35.8,31.2 35.8,27.7 
		35.4,27.7 28.9,27.7 22.2,25.6 15.5,27.7 15.5,30.8 14.8,30.8 14.8,31.4 12.6,31.4 12.4,31.4 10.1,31.4 9.9,31.4 7.6,31.4 
		7.4,31.4 5.1,31.4 4.9,31.4 2.7,31.4 2.7,30.8 1.4,30.8 1.4,33.8 1.8,33.8 1.8,45.7 4.5,45.7 4.5,47.8 6.6,47.8 6.6,57.1 
		22.8,57.1 	"/>
	<polygon class="st4" points="40.4,2 42.9,2 42.9,1.7 57.1,1.7 57.1,2.3 57.1,20.3 57.1,21.4 57.1,21.7 48.9,21.7 48.3,21.7 
		48.3,21.7 43.1,21.7 42.8,21.7 40.5,21.7 40.5,21.4 40.5,7.2 39.5,6.2 36.9,6.2 36.9,1.7 37.8,1.7 37.8,1.7 40.4,1.7 	"/>
	<rect x="328.1" y="261" class="st4" width="25.5" height="46.6"/>
	<polygon class="st4" points="342.8,79.3 341.9,79.3 341.9,80.2 335,80.2 330,80.2 324,80.2 322.7,80.2 322.7,87.8 318.7,87.8 
		318.7,92.4 322.7,92.4 322.7,100 323.8,100 326.6,100 335.1,100 335.1,99.1 339.3,99.1 339.3,113.8 341.8,113.8 373.7,113.8 
		373.7,112 373.7,104.8 373.7,103 373.7,99.9 373.7,99.3 373.7,97.3 373.7,95.4 373.7,91.8 373.7,91.3 373.7,86.9 373.7,85.9 
		372.1,85.9 372.1,83.3 371.6,83.3 359.3,83.3 356.8,83.3 356.6,83.3 356.6,79.3 	"/>
	<polygon class="st4" points="313.4,183.1 310.9,183.1 310.9,181 291.3,181 291.3,183.1 291.5,183.1 291.5,197.6 291.2,197.6 
		291.2,198.8 330.4,198.8 330.4,193.5 330.4,189.5 330.4,188.4 330.4,185.8 330.4,181 313.4,181 	"/>
	<polygon class="st4" points="303.6,238.8 303.6,241.4 303.8,241.4 303.8,255.5 303.3,255.5 285.3,255.5 284.1,255.5 283.9,255.5 
		283.9,247.3 283.9,246.7 283.9,246.7 283.9,241.6 283.9,241.2 283.9,239 284.1,239 298.4,239 299.4,237.9 299.4,235.3 303.8,235.3 
		303.8,236.3 303.8,236.3 303.8,238.8 	"/>
	<polygon class="st4" points="297.6,218.2 297.6,215.7 297.6,206.6 274.4,206.6 273.8,206.6 273.8,206.9 269.6,206.9 269.6,216.7 
		269.6,217.4 269.6,220.6 269.6,223.4 269.6,226.5 269.6,227.3 270.2,227.3 297.6,227.3 	"/>
	<polygon class="st4" points="335.7,217.6 335.7,212.1 316.3,212.1 316.3,212.3 312.3,212.3 312.3,212.5 312.2,212.5 312.2,224.9 
		313.8,224.9 313.8,232.4 313.6,232.4 313.6,234.8 313.8,234.8 313.8,236.9 313.8,242.4 312.2,242.4 312.2,255.4 316.3,255.4 
		316.3,255.5 323.8,255.5 327.7,255.5 336.3,255.5 338.7,255.5 343.1,255.5 345.2,255.5 345.2,247.6 344.3,247.6 339.2,247.6 
		339.2,242.2 338.6,242.2 336,242.2 335.4,242.2 335.3,236.9 335.3,230.3 335.7,230.3 335.7,227.7 335.7,225.2 335.7,219.7 	"/>
	<polygon class="st4" points="57.8,151.8 57.1,151.8 57.1,161.9 57.8,161.9 78.4,161.9 79.1,161.9 79.1,159.2 79.1,154 79.1,152.3 
		83.2,152.3 83.2,142.1 79.1,142.1 78.4,142.1 57.1,142.1 57.1,147.8 59,147.8 59,149.4 59,151.8 	"/>
	<polygon class="st4" points="267.1,329.3 274.2,329.3 274.2,330.8 285.6,330.8 285.6,329.6 287.2,328 295.7,328 295.7,328.2 
		296.2,328.2 296.2,328.5 296.4,328.5 296.4,327.4 297.9,327.4 297.9,323.2 296.4,323.2 296.4,317.2 296.8,317.2 296.8,314 
		296.4,314 296.4,312.6 295.2,312.6 295.2,312.3 292,312.3 292,312.6 279.7,312.6 279.7,312.3 276.4,312.3 276.4,312.6 274.2,312.6 
		274.2,313.7 273.9,313.7 273.9,316.8 271.7,316.8 271.7,320 267.1,320 	"/>
	<polygon class="st4" points="287.3,303.7 286.4,303.7 286.4,302.8 279.6,302.8 274.6,302.8 268.6,302.8 267.2,302.8 267.2,295.2 
		263.3,295.2 263.3,290.6 267.2,290.6 267.2,283 268.4,283 271.2,283 279.7,283 279.7,283.9 283.9,283.9 283.9,269.2 286.4,269.2 
		318.2,269.2 318.2,270.9 318.2,278.2 318.2,280 318.2,283.1 318.2,283.7 318.2,285.7 318.2,287.6 318.2,291.2 318.2,291.6 
		318.3,296 318.3,297 316.7,297 316.7,299.7 316.2,299.7 303.9,299.7 301.3,299.7 301.2,299.7 301.2,303.7 	"/>
	<polygon class="st4" points="268,351.6 268,349 267.6,349 267.6,346.5 267.6,343.9 267.6,340.6 268.2,340.6 299.5,340.6 
		299.5,341.2 299.5,358.9 299.5,359.6 268.2,359.6 267.6,359.6 267.6,356.2 267.6,353.7 267.6,351.6 	"/>
	<polygon class="st4" points="369,147.6 369,142.1 349.6,142.1 349.6,142.4 345.6,142.4 345.6,142.5 345.5,142.5 345.5,154.9 
		347.1,154.9 347.1,162.5 346.9,162.5 346.9,164.8 347.1,164.8 347.1,166.9 347.1,172.4 345.5,172.4 345.5,185.4 349.6,185.4 
		349.6,185.5 357.1,185.5 361,185.5 369.7,185.5 372,185.5 376.4,185.5 378.6,185.5 378.6,177.6 377.6,177.6 372.5,177.6 
		372.5,172.2 371.9,172.2 369.3,172.2 368.7,172.2 368.7,166.9 368.7,160.3 369,160.3 369,157.8 369,155.2 369,149.7 	"/>
	<polygon class="st4" points="306,152.6 303.5,152.6 303.5,152.3 293.7,152.3 293.7,146 277.3,146 276.4,146 272.8,146 272.8,146.5 
		272.8,153 270.6,159.7 272.8,166.4 276,166.4 276,167 296.8,167 300.1,167 307.1,167 310.4,167 338.3,167 338.3,166.4 338.5,165.8 
		340,161 340.5,159.7 338.3,153 338.5,152.3 338.5,152.3 340,147.6 340.5,146.3 338.3,139.6 338.5,138.9 338.5,138.9 340,134.2 
		340.5,132.8 338.3,126.1 338.3,125.5 320.4,125.5 315,125.5 315,126.8 315,152.3 306,152.3 	"/>
	<polygon class="st4" points="243.8,114.3 241.3,114.3 241.3,114 240.6,114 240,114 231.8,114 231.8,113.4 231.8,113.1 230.3,113.1 
		229.3,113.1 229.3,113.4 229.3,118 229,118 229,122.8 229.3,122.8 229.3,126.7 229.7,126.7 229.7,129 230.5,130.2 230.3,130.4 
		232.1,133.2 232.3,133.1 233.2,134.4 250.8,134.4 251.5,133.2 251.8,133.3 253.6,130.4 253.4,130.3 254.2,129.1 254.2,126.4 
		253.1,126.4 244.5,126.4 244.5,114.6 244.5,114 244,114 243.8,114 	"/>
	<polygon class="st4" points="245.2,170 245.2,170.7 255.2,170.7 255.2,170 255.2,149.4 255.2,148.7 252.5,148.7 247.4,148.7 
		245.6,148.7 245.6,144.6 235.5,144.6 235.5,148.7 235.5,149.4 235.5,170.7 241.1,170.7 241.1,168.8 242.7,168.8 245.2,168.8 	"/>
	<polygon class="st4" points="141.3,249.2 138.8,249.1 138.8,249.6 131.9,249.4 131,249.4 130.8,248.6 130.7,248.4 130.5,248.4 
		130,246.7 130.2,246.7 129.9,245.5 129.7,245.5 129.2,243.9 129.4,243.8 129.3,243.5 128.6,243.7 124.8,243.9 124,241.4 
		123.8,241.5 122.6,238.2 122.8,238.1 121.7,235 121.5,235 120.7,232.7 120.9,232.6 120.3,230.9 130.1,227.5 131.6,231.8 
		134.1,230.9 134.1,230.7 137.4,229.5 137.5,229.7 142.3,228 142.3,228.9 142.3,245.9 142.3,247.4 142.3,247.5 142.3,247.7 
		142.3,249.6 141.3,249.6 	"/>
	<rect x="258.2" y="67.2" class="st4" width="25.5" height="46.6"/>
	<polygon class="st4" points="170.5,97.1 170.5,94.5 170.5,85.5 193.7,85.5 194.2,85.5 194.2,85.7 198.4,85.7 198.4,95.6 
		198.4,96.3 198.4,99.4 198.4,102.2 198.4,105.3 198.4,106.1 197.9,106.1 170.5,106.1 	"/>
	<polygon class="st4" points="224.5,93.4 227.1,93.4 227.1,91.3 246.7,91.3 246.7,93.4 246.5,93.4 246.5,107.9 246.7,107.9 
		246.7,109.2 207.5,109.2 207.5,103.8 207.5,99.8 207.5,98.8 207.5,96.1 207.5,91.3 224.5,91.3 	"/>
	<polygon class="st4" points="59.2,102.5 59.2,105 57.1,105 57.1,124.6 59.2,124.6 59.2,124.4 73.7,124.4 73.7,124.7 75,124.7 
		75,85.5 69.6,85.5 65.6,85.5 64.6,85.5 61.9,85.5 57.1,85.5 57.1,102.5 	"/>
	<rect x="86.6" y="95.4" class="st4" width="25.5" height="46.6"/>
	<polygon class="st4" points="243.1,312.1 245.6,312.1 245.6,312.3 249.7,312.3 249.7,303.7 256.1,303.7 256.1,287.3 256.1,286.4 
		256.1,282.9 255.6,282.9 249.1,282.9 242.4,280.7 235.7,282.9 235.7,286 235.1,286 235.1,286.6 232.8,286.6 232.6,286.6 
		230.3,286.6 230.1,286.6 227.8,286.6 227.6,286.6 225.3,286.6 225.1,286.6 222.9,286.6 222.9,286 221.7,286 221.7,289 222,289 
		222,300.9 224.7,300.9 224.7,303 226.8,303 226.8,312.3 243.1,312.3 	"/>
	<polygon class="st4" points="216.4,56.4 216.4,55.6 216.4,48.3 229.8,48.3 229.8,55.6 235.2,55.6 239.2,55.6 243.2,55.6 
		243.2,60.6 246.1,60.6 250.1,60.6 250.1,60.6 253.2,60.6 253.2,85.8 249.4,85.8 245.4,85.8 239.5,85.8 235.5,85.8 228.5,85.8 
		228.5,79.9 216.4,79.9 216.4,75.1 216.4,71.2 	"/>
	<polygon class="st4" points="85.4,176.1 85.4,170.6 66,170.6 66,170.9 62,170.9 62,171 61.9,171 61.9,183.4 63.5,183.4 63.5,191 
		63.3,191 63.3,193.4 63.5,193.4 63.5,195.4 63.5,201 61.9,201 61.9,214 66,214 66,214.1 73.5,214.1 77.4,214.1 86.1,214.1 
		88.4,214.1 92.8,214.1 95,214.1 95,206.2 94,206.2 89,206.2 89,200.7 88.3,200.7 85.7,200.7 85.1,200.7 85.1,195.4 85.1,188.8 
		85.4,188.8 85.4,186.3 85.4,183.7 85.4,178.3 	"/>
	<polygon class="st4" points="163.8,239.5 163.8,236.9 164,236.9 164,227.1 170.3,227.1 170.3,210.7 170.3,209.8 170.3,206.2 
		169.9,206.2 163.4,206.2 156.7,204.1 150,206.2 150,209.4 149.3,209.4 149.3,230.3 149.3,233.5 149.3,240.6 149.3,243.8 
		149.3,271.7 150,271.7 150.6,271.9 155.4,273.5 156.7,273.9 163.4,271.7 164,271.9 164,271.9 168.8,273.5 170.1,273.9 176.8,271.7 
		177.5,271.9 177.5,271.9 182.2,273.5 183.5,273.9 190.2,271.7 190.9,271.7 190.9,253.8 190.9,248.4 189.6,248.4 164,248.4 
		164,239.5 	"/>
	<polygon class="st4" points="142.4,45.5 142.4,42.9 142.1,42.9 142.1,28.8 142.7,28.8 160.7,28.8 161.8,28.8 162.1,28.8 162.1,37 
		162.1,37.5 162.1,37.5 162.1,42.7 162.1,43.1 162.1,45.3 161.8,45.3 147.6,45.3 146.6,46.4 146.6,49 142.1,49 142.1,48 142.1,48 
		142.1,45.5 	"/>
	<polygon class="st4" points="132.2,85.4 132.2,58.9 117.2,58.9 117.2,60 105.2,60 105.2,61.1 85.8,61.1 85.8,85.4 	"/>
	<polygon class="st4" points="170.4,116.9 170.4,132.8 170.4,133.3 176.8,133.3 176.8,141.9 180.9,141.9 180.9,141.6 183.5,141.6 
		183.5,141.9 204.9,141.9 204.9,133.3 217,133.3 217,141.9 224,141.9 224,141.4 224,132.1 220.6,132.1 220.6,130 220.1,130 
		217.9,130 217.9,118.5 218.3,118.5 218.3,115.5 217,115.5 214.8,115.5 214.6,115.5 212.3,115.5 212.1,115.5 209.8,115.5 
		209.6,115.5 207.3,115.5 207.1,115.5 204.9,115.5 203.6,115.5 201.4,115.5 201.2,115.5 198.9,115.5 198.7,115.5 196.4,115.5 
		196.2,115.5 193.9,115.5 193.7,115.5 191.5,115.5 190.8,115.5 190.8,112.3 184.1,110.2 177.4,112.3 170.9,112.3 170.4,112.3 
		170.4,115.9 	"/>
	<path class="st4" d="M156.8,141.7c-1.4,0-2.8,0-4.2,0c-0.7,0-1.4,0-2.1,0c-0.2,0-0.4,0-0.5,0c-0.2,0-0.1,0.2-0.3,0.2
		c-0.4,0-0.7,0-1.1,0c-0.2,0-0.4,0-0.5,0c-0.2,0-0.1-0.2-0.3-0.2c-0.4,0-0.7,0-1.1,0c-0.7,0-1.4,0-2.1,0c-0.4,0-0.7,0-1.1,0
		c-0.2,0-0.4,0-0.5,0c-0.1,0-0.2-0.1-0.2,0c0,0.1,0,0.2-0.1,0.2c-0.2,0-0.4,0-0.5,0c-0.2,0-0.5-0.3-0.5,0.1c0,0.2,0,0.4,0,0.5
		c0,0.1,0,0.2,0,0.3c0,0.1,0.1,0.2,0,0.2c-0.2,0-0.4,0-0.5,0c-0.3,0-0.1-0.3-0.1-0.5c0-0.3,0.3-0.8-0.2-0.8c-0.1,0-0.2,0-0.3,0
		c-0.1,0-0.2-0.1-0.2,0c0,0.2,0,0.4,0,0.5c0,0.2,0,0.4,0,0.5c0,0.2-0.2,0.2-0.3,0.2c-0.7,0-1.4,0-2.1,0c-0.4,0-0.7,0-1.1,0
		c-0.2,0-0.4,0-0.5,0c-0.1,0-0.2,0-0.3,0c-0.1,0-0.3,0.2-0.3,0c0-0.4,0-0.7,0-1.1c0-0.5-0.5-0.3-0.8-0.3c-0.7,0-1.4,0-2.1,0
		s-1.4,0-2.1,0c-0.2,0-0.4,0-0.5,0c-0.2,0-0.1,0.2-0.3,0.2c-0.4,0-0.7,0-1.1,0c-0.8,0-1.5,0-2.3,0c-0.4,0-0.8,0-1.2,0
		c-0.2,0-0.3,0-0.3-0.2c0-0.1,0-0.2,0-0.3c0-0.6,0-1.1,0-1.7c-0.1-0.9-0.1-1.8-0.2-2.7c-0.1-0.5-0.1-0.9-0.2-1.4
		c0-0.1,0-0.2-0.1-0.3c0-0.1-0.2-0.3,0-0.3c0.1,0,0.3,0,0.4,0c1.8,0,3.7,0,5.5,0c0.7,0,1.4,0,2,0c0.2,0,0.5,0.2,0.5-0.1
		c0-0.1,0-0.2,0-0.3c0-0.2,0-0.3,0-0.5c0-0.3,0-0.7,0-1c0-0.3,0-0.7,0-1c0-0.2,0.1-0.4-0.2-0.4c-0.2,0-0.3,0-0.5,0c-0.7,0-1.4,0-2,0
		c-0.2,0-0.3,0-0.5,0c-0.2,0,0-0.2,0-0.2c0-0.1,0-0.2,0-0.3c0-0.1,0.1-0.3,0.1-0.4c0-0.2,0-0.3,0-0.5c0-0.8,0.2-1.5,0.4-2.3
		c0.4-1.3,0.9-2.6,1.6-3.7c1.7-2.6,3.7-4.2,6.7-5.1c0.7-0.2,1.5-0.4,2.2-0.5c0.3,0,0.7-0.1,1-0.1c0.1,0,0.3,0.2,0.3,0
		c0-0.1,0-0.2,0-0.2c0-0.2,0-0.3,0-0.5c0-0.7,0-1.3,0-2c0-0.3,0-0.7,0-1c0-0.3-0.2-0.7,0.3-0.7c5.6,0,11.3,0,16.9,0
		c0.4,0,0.7,0,1.1,0c0.2,0,0.4,0,0.5,0c0.2,0,0.4-0.2,0.4,0.1c0,0.7,0,1.4,0,2.1c0,1.4,0,2.8,0,4.2c0,2.8,0,5.7,0,8.5
		c0,2.8,0,5.7,0,8.5c0,0.7,0,1.4,0,2.1c0,0.4,0,0.7,0,1.1c0,0.2,0.2,0.9-0.1,0.9C159.6,141.7,158.2,141.7,156.8,141.7z"/>
	<polygon class="st4" points="111.2,149.7 110.3,149.7 110.3,150.6 103.5,150.6 98.5,150.6 92.5,150.6 91.1,150.6 91.1,158.2 
		87.2,158.2 87.2,162.8 91.1,162.8 91.1,170.4 92.3,170.4 95.1,170.4 103.6,170.4 103.6,169.5 107.8,169.5 107.8,184.2 110.3,184.2 
		142.1,184.2 142.1,182.4 142.1,175.1 142.1,173.4 142.1,170.3 142.1,169.7 142.1,167.7 142.1,165.8 142.1,162.2 142.1,161.7 
		142.2,157.3 142.2,156.3 140.6,156.3 140.6,153.7 140.1,153.7 127.8,153.7 125.2,153.7 125.1,153.7 125.1,149.7 	"/>
	<polygon class="st4" points="89.6,43.2 92.2,43.2 92.2,43.5 102,43.5 102,49.8 118.4,49.8 119.3,49.8 122.9,49.8 122.9,49.3 
		122.9,42.8 125,36.1 122.9,29.4 119.7,29.4 119.7,28.8 98.8,28.8 95.6,28.8 88.5,28.8 85.3,28.8 57.4,28.8 57.4,29.4 57.2,30 
		55.6,34.8 55.2,36.1 57.4,42.8 57.2,43.5 57.2,43.5 55.6,48.2 55.2,49.5 57.4,56.2 57.2,56.9 57.2,56.9 55.6,61.6 55.2,62.9 
		57.4,69.7 57.4,70.3 75.3,70.3 80.7,70.3 80.7,69 80.7,43.5 89.6,43.5 	"/>
	<line class="st4" x1="397.2" y1="249.9" x2="397.2" y2="227"/>
	<line class="st4" x1="326.1" y1="0.4" x2="298.2" y2="0.4"/>
	<line class="st4" x1="287.6" y1="0.4" x2="267.3" y2="0.4"/>
	<polygon class="st4" points="397.2,326.5 397.2,306.1 394.8,306.1 393.9,306.1 378,306.1 377.5,306.1 377.5,312.5 368.9,312.5 
		368.9,316.6 369.1,316.6 369.1,319.2 368.9,319.2 368.9,340.6 377.5,340.6 377.5,352.7 368.9,352.7 368.9,359.7 369.4,359.7 
		378.7,359.7 378.7,356.3 380.8,356.3 380.8,355.8 380.8,353.6 392.2,353.6 392.2,354 395.2,354 395.2,352.7 395.2,350.5 
		395.2,350.3 395.2,348 395.2,347.8 395.2,345.5 395.2,345.3 395.2,343 395.2,342.8 395.2,340.6 395.2,339.3 395.2,337.1 
		395.2,336.9 395.2,334.6 395.2,334.4 395.2,332.1 395.2,331.9 395.2,329.6 395.2,329.4 395.2,327.1 395.2,326.5 	"/>
	<polygon class="st4" points="397.2,290.9 397.2,257.4 396.8,257.5 397.1,259.2 396.3,259.3 396.4,259.8 396.3,259.5 386,261.1 
		385.5,261.1 386,264.9 385.4,265 382.7,265.2 372.7,266.6 371.4,265.9 370.7,266 370.9,267.4 371.3,271 371.7,273.9 372.1,278.9 
		372.1,279.6 372.1,281.8 368.9,281.9 368.9,290.5 367.5,290.5 367.5,291 374.1,290.9 374.7,290.9 	"/>
	<polygon class="st4" points="362.9,397.3 397.2,397.3 397.2,368.9 393.2,368.9 392.3,368.9 377.6,368.9 373.6,368.9 368.9,368.9 
		368.9,381.1 362.9,381.1 362.9,388.1 362.9,392 	"/>
	<polygon class="st4" points="397.2,218.4 397.2,186.5 391.4,186.5 390.7,186.5 390.7,217.8 390.7,218.4 394.1,218.4 396.7,218.4 	
		"/>
	<polygon class="st4" points="397.2,170.5 397.2,150.8 376,150.8 376,156.5 377.9,156.5 377.9,158 377.9,160.5 376.7,160.5 
		376,160.5 376,170.5 376.7,170.5 	"/>
	<polygon class="st4" points="397.2,111.5 397.2,46 397.1,46 390.4,43.8 383.7,46 383.7,49.2 383.1,49.2 383.1,70 383.1,73.3 
		383.1,80.3 383.1,83.6 383.1,111.5 383.7,111.5 384.3,111.7 389.1,113.2 390.4,113.7 397.1,111.5 	"/>
	<polygon class="st4" points="361.6,0.4 346.9,0.4 346.9,0.8 340.6,0.8 340.6,17.2 340.6,18.1 340.6,21.7 341,21.7 347.5,21.7 
		354.2,23.8 360.9,21.7 360.9,18.5 361.6,18.5 	"/>
	<path class="st4" d="M215.6,0.4c-10.3,0-20.6,0-30.9,0c0,3.4,0,6.9,0,10.3c0,0.9,0,1.7,0,2.6c0,0.2,0,0.4,0,0.7c0,0.1,0,0.2,0,0.3
		c0,0.1-0.1,0.3,0.1,0.3c0.4,0,0.9,0,1.3,0c1.7,0,3.4,0,5.2,0c0.9,0,1.7,0,2.6,0c0.4,0,0.9,0,1.3,0c0.2,0,0.4,0,0.6,0
		c0.1,0,0.2,0,0.3,0c0.2,0-0.1,0.2,0.1,0.2c0.4,0,0.9,0,1.3,0c0.2,0,0.5,0.2,0.5-0.2c0-0.2,0.2-0.1,0.3-0.1c0.1,0,0.2,0,0.3,0
		c0.9,0,1.7,0,2.6,0c0.4,0,0.9,0,1.3,0c0.2,0,0.4,0,0.6,0c0.1,0,0,0.2,0.1,0.2c0.1,0,0.2,0,0.3,0c0.2,0,0.4,0,0.6,0
		c0.2,0,0.1,0.1,0.1,0.2c0,0.1,0,0.2,0,0.3c0,0.2-0.2,0.5,0.1,0.5c0.2,0,0.5,0.2,0.5-0.1c0-0.2,0-0.4,0-0.6c0-0.2-0.2-0.5,0.1-0.5
		c0.1,0,0.2,0,0.3,0c0.1,0,0.3-0.1,0.3,0.1c0,0.2,0,0.4,0,0.6c0,0.1,0,0.2,0,0.3c0,0.1-0.1,0.3,0.1,0.3c0.2,0,0.4,0,0.6,0
		c0.4,0,0.9,0,1.3,0c0.4,0,0.9,0,1.3,0c0.2,0,0.4,0,0.6,0c0.1,0,0.2,0,0.3,0c0.1,0,0.3,0.2,0.3,0c0-0.2,0-0.4,0-0.6
		c0-0.1,0-0.2,0-0.3c0-0.1-0.2-0.3,0-0.3c0.4,0,0.9,0,1.3,0c0.9,0,1.7,0,2.6,0c0.4,0,0.9,0,1.3,0c0.2,0,0.5-0.3,0.5,0.1
		c0,0.3,0.3,0.1,0.5,0.1c0.9,0,1.8,0,2.6,0c0.4,0,0.9,0,1.3,0c0.2,0,0.6,0.3,0.6-0.1c0-1.9,0.1-3.8,0.4-5.7c0.1-0.4,0.1-0.7,0.2-1.1
		c0-0.2-0.2,0-0.3,0c-0.1,0-0.3-0.2-0.3,0c0,0.1-0.1,0-0.1,0c-0.1,0-0.2,0-0.3,0c0,0-0.1,0-0.1,0c-0.1,0-0.2,0-0.2,0
		c-0.2,0-0.3,0-0.5,0c-0.3,0-0.6,0-0.9,0c-0.6,0-1.2,0-1.8,0c-0.7,0-1.5,0-2.2,0c-0.3,0-0.6,0-0.9,0c-0.1,0-0.2,0-0.2,0
		c-0.2,0-0.5,0.2-0.5-0.1c0-0.2,0-0.3,0-0.5c0-0.8,0-1.7,0-2.5c0-0.4,0.8-0.2,1-0.2c0.4,0,0.8,0,1.3,0c0.4,0,0.9,0.3,0.9-0.3
		c0-0.4-0.1-0.8-0.1-1.1C216,2.2,215.9,1.3,215.6,0.4z"/>
	<polygon class="st4" points="170.6,0.4 127.1,0.4 127.1,17.6 127.4,17.6 127.4,21.6 127.5,21.6 127.5,21.7 139.9,21.7 139.9,20.1 
		147.5,20.1 147.5,20.3 149.9,20.3 149.9,20.1 151.9,20.1 157.5,20.1 157.5,21.7 170.5,21.7 170.5,17.6 170.6,17.6 170.6,10.1 
		170.6,6.2 	"/>
	<polygon class="st4" points="28.7,0.4 0.4,0.4 0.4,14.6 0.8,14.6 4.7,14.6 4.7,15.3 4.8,15.3 4.8,14.6 9.4,14.6 9.4,14.6 9.4,15.3 
		9.6,15.3 9.6,14.6 9.7,14.6 14.2,14.6 14.2,15.3 14.4,15.3 14.4,14.6 18.2,14.6 19,14.6 19,15.3 19.1,15.3 19.1,14.6 19.9,14.6 
		23.8,14.6 23.8,15.3 23.9,15.3 23.9,14.6 28.4,14.6 28.5,14.6 28.5,15.3 28.7,15.3 28.7,14.6 28.7,14.6 	"/>
	<polygon class="st4" points="0.4,65.1 0.4,85.5 11.2,85.5 12,84.2 12.2,84.4 14.1,81.5 13.8,81.4 14.6,80.2 14.6,77.4 13.5,77.4 
		5,77.4 5,65.6 5,65.1 4.4,65.1 4.2,65.1 4.2,65.3 1.7,65.3 1.7,65.1 1,65.1 0.4,65.1 	"/>
	<polygon class="st4" points="0.4,185 0.4,219.5 8.6,219.5 9.5,219.5 9.5,218.6 16.4,218.6 21.4,218.6 27.3,218.6 28.7,218.6 
		28.7,211 32.6,211 32.6,206.4 28.7,206.4 28.7,198.8 27.6,198.8 24.8,198.8 16.3,198.8 16.3,199.7 12.1,199.7 12.1,185 9.6,185 	
		"/>
	<polygon class="st4" points="0.4,260.5 0.4,281.2 14.6,281.2 14.6,272.1 14.6,269.6 14.6,260.5 	"/>
	<polygon class="st4" points="0.4,386.7 0.4,397.3 34,397.3 35.8,389.7 35.7,389.6 32.3,386.6 31.6,386.8 28.3,386.8 25.3,386.8 
		23.4,386.8 23.4,378.6 23.4,377.8 23.4,376 17,376 17,378 8.6,378 8.6,376.1 2.7,376.1 2.7,377.9 2.7,378.6 2.7,386.7 1.3,386.7 	
		"/>
	<polygon class="st4" points="0.4,315.3 0.4,362.6 7.8,362.6 7.8,368.9 8.3,368.9 24.2,368.9 25.2,368.9 28.7,368.9 28.7,368.4 
		28.7,362 30.9,355.2 28.7,348.5 25.6,348.5 25.6,347.9 25.6,345.7 25.6,345.5 25.6,343.2 25.6,343 25.6,340.7 25.6,340.5 
		25.6,338.2 25.6,338 25.6,335.8 25.6,334.5 25.6,332.3 25.6,332 25.6,329.8 25.6,329.5 25.6,327.3 25.6,327 25.6,324.8 25.6,324.5 
		25.6,322.3 25.6,321.1 22.5,321.1 22.5,321.5 11.1,321.5 11.1,319.3 11.1,318.8 9,318.8 9,315.3 	"/>
	<polygon class="st4" points="79.1,397.3 113.2,397.3 113.2,393 110.5,393 110.5,390.9 108.4,390.9 108.4,381.6 92.1,381.6 
		92.1,381.8 89.6,381.8 89.6,381.6 85.4,381.6 85.4,390.2 79.1,390.2 	"/>
	<polygon class="st4" points="44.8,397.3 71.2,397.3 71.2,396.9 71.2,394.4 71.2,391.8 71.6,391.8 71.6,388.4 71.6,382.7 
		71.6,377.8 71.6,371.1 71.6,369.8 71.6,368.9 71.5,367.7 70.7,367.8 70.8,369 44.1,370.7 44.1,370.6 43.8,368.9 43,369 43.2,370.7 
		43.2,373 43.2,380.3 43.2,381.6 42.9,381.6 42.9,391.1 44.8,391.1 44.8,391.5 44.8,394.3 	"/>
	<polygon class="st4" points="122.4,397.3 143.3,397.3 143.3,397 151.9,397 151.9,392.9 151.7,392.9 151.7,390.3 151.9,390.3 
		151.9,368.9 143.3,368.9 143.3,356.8 151.9,356.8 151.9,349.8 151.4,349.8 142.1,349.8 142.1,353.2 140,353.2 140,353.7 140,355.9 
		128.6,355.9 128.6,355.5 125.6,355.5 125.6,356.8 125.6,359 125.6,359.2 125.6,361.5 125.6,361.7 125.6,364 125.6,364.2 
		125.6,366.5 125.6,366.7 125.6,368.9 125.6,370.2 125.6,372.4 125.6,372.6 125.6,374.9 125.6,375.1 125.6,377.4 125.6,377.6 
		125.6,379.9 125.6,380.1 125.6,382.3 125.6,383 122.4,383 120.2,389.7 122.4,396.4 	"/>
	<polygon class="st4" points="259,397.3 259,395.2 258.5,395.2 253.7,395.2 251.2,395.2 239.9,395.2 239.9,389.1 231.4,389.1 
		231.4,368.9 231.5,368.9 231.5,368.2 231.7,368.2 231.7,368.9 231.8,368.9 236.3,368.9 236.3,368.2 236.4,368.2 236.4,368.9 
		240.3,368.9 241,368.9 241,368.2 241.2,368.2 241.2,368.9 242,368.9 245.8,368.9 245.8,368.2 246,368.2 246,368.9 250.5,368.9 
		250.6,368.9 250.6,368.2 250.7,368.2 250.7,368.9 250.8,368.9 255.4,368.9 255.4,368.2 255.5,368.2 255.5,368.9 259.4,368.9 
		260.1,368.9 260.1,368.2 260.3,368.2 260.3,368.9 261.1,368.9 264.9,368.9 264.9,368.2 265.1,368.2 265.1,368.9 269.7,368.9 
		269.7,368.2 269.8,368.2 269.8,368.9 274.5,368.9 274.5,368.2 274.6,368.2 274.6,368.9 278.5,368.9 279.2,368.9 279.2,368.2 
		279.4,368.2 279.4,368.9 280.1,368.9 280.1,369.7 280.9,369.7 280.9,369.9 280.1,369.9 280.1,370.6 280.1,374.5 280.9,374.5 
		280.9,374.6 280.1,374.6 280.1,379.2 280.9,379.2 280.9,379.4 280.1,379.4 280.1,384 280.9,384 280.9,384.2 280.1,384.2 280.1,388 
		280.1,388.8 280.9,388.8 280.9,388.9 280.1,388.9 280.1,389.7 280.1,393.6 280.9,393.6 280.9,393.7 280.1,393.7 280.1,397.3 	"/>
	<polygon class="st4" points="290.2,397.3 333.6,397.3 333.6,394.3 333.3,394.3 333.3,390.3 333.2,390.3 333.2,390.2 320.8,390.2 
		320.8,391.8 313.2,391.8 313.2,391.6 310.8,391.6 310.8,391.8 308.8,391.8 303.2,391.8 303.2,390.2 290.2,390.2 290.2,394.3 
		290.2,394.3 	"/>
	<polygon class="st4" points="397.2,21 397.2,28.9 395.4,28.9 393,28.9 384.4,28.9 380.5,28.9 373,28.9 373,28.8 368.9,28.8 
		368.9,15.8 370.5,15.8 370.5,10.2 370.5,8.2 370.3,8.2 370.3,5.8 370.5,5.8 370.5,0.4 392.4,0.4 392.4,1.1 392.4,3.6 392,3.6 
		392,10.2 392.1,15.5 392.7,15.5 395.3,15.5 395.9,15.5 395.9,21 	"/>
	<polygon class="st4" points="298,12 298,9.5 298,0.4 321.2,0.4 321.8,0.4 321.8,0.7 326,0.7 326,10.5 326,11.2 326,14.4 326,17.2 
		326,20.3 326,21.1 325.4,21.1 298,21.1 	"/>
	<path class="st4" d="M397.2,249.9c0-7.6,0-15.2,0-22.8c-0.3,0-0.6,0-0.9,0c0,0.1,0,0.2,0,0.3c-3.2,0-6.5,0-9.7,0c-1.7,0-3.3,0-5,0
		c0-0.1,0-0.2,0-0.3c-1.8,0-3.7,0-5.5,0c0-0.1,0-0.1,0-0.2c-3.6,0-7.3,0-10.9,0c0,0.1,0,0.1,0,0.2h-4v0h-0.5v0
		c-0.3,0-0.5,0.2-0.5,0.5c0,0,0,7.3,0,9.7h-3.5c-0.6,0-1.1,0.5-1.1,1.1v0.7c0,2.9,0,5.8,0,8.8v0.7c0,0.6,0.5,1.1,1.1,1.1
		c0,0,0.1,0,0.3,0c0,1.9,0,3.8,0,5.7c1.1,0,2.2,0,3.3,0c0,0.2,0,0.5,0,0.7c0.7,0,1.4,0,2.1,0c0-0.2,0-0.3,0-0.5c4.1,0,8.3,0,12.4,0
		c0.2,0,0.4,0,0.5,0c0-0.9,0-1.8,0-2.7c0-1.1,0-2.2,0-3.3c1.2,0,2.4,0,3.6,0c0,0.1,0,0.2,0,0.4c0,0,0,0,0,0c0.7,0,1.3,0,2,0
		c0-0.1,0-0.2,0-0.3c0.4,0,0.9,0,1.3,0c1,0,1.9,0,2.9,0c3.7,0,7.4,0,11.1,0c0,0.1,0,0.2,0,0.3C396.6,249.9,396.9,249.9,397.2,249.9z
		"/>
	<line class="st4" x1="397" y1="214.2" x2="397.2" y2="214.2"/>
	<line class="st4" x1="397.2" y1="193.2" x2="397.2" y2="193.2"/>
</g>
<g id="PLAN::POINTILLE">
</g>
<g id="PLAN::POINTILLE_PROGRAMME">
</g>
<g id="PLAN::TRAME_2">
	<line class="st8" x1="170.5" y1="326.4" x2="186" y2="326.4"/>
	<line class="st8" x1="255.4" y1="326.4" x2="267.1" y2="326.4"/>
	<line class="st8" x1="297.9" y1="326.4" x2="311.9" y2="326.4"/>
	<line class="st8" x1="283.7" y1="71.3" x2="302.8" y2="71.3"/>
	<line class="st8" x1="339.9" y1="326.4" x2="347.4" y2="326.4"/>
	<line class="st8" x1="363.9" y1="326.4" x2="368.9" y2="326.4"/>
	<line class="st8" x1="319.3" y1="71.3" x2="383.1" y2="71.3"/>
	<line class="st8" x1="0.4" y1="298.1" x2="14.6" y2="298.1"/>
	<line class="st8" x1="42.1" y1="298.1" x2="56.9" y2="298.1"/>
	<line class="st8" x1="74.8" y1="298.1" x2="85.7" y2="298.1"/>
	<line class="st8" x1="113.4" y1="298.1" x2="122.4" y2="298.1"/>
	<line class="st8" x1="0.4" y1="42.9" x2="1.8" y2="42.9"/>
	<line class="st8" x1="35.8" y1="42.9" x2="57.3" y2="42.9"/>
	<line class="st8" x1="142.1" y1="298.1" x2="149.8" y2="298.1"/>
	<line class="st8" x1="170.5" y1="298.1" x2="177.6" y2="298.1"/>
	<line class="st8" x1="215.2" y1="298.1" x2="222" y2="298.1"/>
	<line class="st8" x1="256.1" y1="298.1" x2="267.2" y2="298.1"/>
	<line class="st8" x1="122.9" y1="42.9" x2="142.1" y2="42.9"/>
	<line class="st8" x1="316.7" y1="298.1" x2="328.1" y2="298.1"/>
	<line class="st8" x1="353.5" y1="298.1" x2="397.2" y2="298.1"/>
	<line class="st8" x1="383.1" y1="290.9" x2="383.1" y2="306.1"/>
	<line class="st8" x1="383.1" y1="353.6" x2="383.1" y2="368.9"/>
	<line class="st8" x1="0.4" y1="383.1" x2="2.7" y2="383.1"/>
	<line class="st8" x1="0.4" y1="269.7" x2="14.6" y2="269.7"/>
	<line class="st8" x1="14.6" y1="269.7" x2="57.1" y2="269.7"/>
	<line class="st8" x1="57.1" y1="269.7" x2="61.7" y2="269.7"/>
	<line class="st8" x1="162.1" y1="42.9" x2="170.5" y2="42.9"/>
	<line class="st8" x1="86.4" y1="269.7" x2="121.7" y2="269.7"/>
	<line class="st8" x1="142.1" y1="269.7" x2="149.3" y2="269.7"/>
	<line class="st8" x1="190.9" y1="269.7" x2="198.8" y2="269.7"/>
	<line class="st8" x1="224.3" y1="269.7" x2="239.3" y2="269.7"/>
	<line class="st8" x1="264.5" y1="269.7" x2="283.9" y2="269.7"/>
	<line class="st8" x1="283.9" y1="269.7" x2="318.2" y2="269.7"/>
	<line class="st8" x1="23.4" y1="383.1" x2="42.9" y2="383.1"/>
	<line class="st8" x1="71.6" y1="383.1" x2="85.4" y2="383.1"/>
	<line class="st8" x1="209" y1="42.9" x2="264.9" y2="42.9"/>
	<line class="st8" x1="283.9" y1="42.9" x2="296.2" y2="42.9"/>
	<line class="st8" x1="324.9" y1="42.9" x2="340.6" y2="42.9"/>
	<line class="st8" x1="366.7" y1="42.9" x2="397.2" y2="42.9"/>
	<line class="st8" x1="0.4" y1="14.6" x2="4.7" y2="14.6"/>
	<line class="st8" x1="4.7" y1="14.6" x2="4.8" y2="14.6"/>
	<line class="st8" x1="4.8" y1="14.6" x2="9.4" y2="14.6"/>
	<line class="st8" x1="9.4" y1="14.6" x2="9.6" y2="14.6"/>
	<line class="st8" x1="269.7" y1="302.8" x2="269.7" y2="320"/>
	<line class="st8" x1="269.7" y1="329.3" x2="269.7" y2="340.6"/>
	<line class="st8" x1="269.7" y1="359.6" x2="269.7" y2="368.9"/>
	<line class="st8" x1="298" y1="0.4" x2="298" y2="21.1"/>
	<line class="st8" x1="298" y1="21.1" x2="298" y2="28.9"/>
	<line class="st8" x1="298" y1="28.9" x2="298" y2="49.3"/>
	<line class="st8" x1="298" y1="49.3" x2="298" y2="57.4"/>
	<line class="st8" x1="9.6" y1="14.6" x2="14.2" y2="14.6"/>
	<line class="st8" x1="14.2" y1="14.6" x2="14.4" y2="14.6"/>
	<line class="st8" x1="14.4" y1="14.6" x2="19" y2="14.6"/>
	<line class="st8" x1="19" y1="14.6" x2="19.1" y2="14.6"/>
	<line class="st8" x1="19.1" y1="14.6" x2="23.8" y2="14.6"/>
	<line class="st8" x1="23.8" y1="14.6" x2="23.9" y2="14.6"/>
	<line class="st8" x1="269.7" y1="227.3" x2="269.7" y2="239.9"/>
	<line class="st8" x1="269.7" y1="206.9" x2="269.7" y2="227.3"/>
	<line class="st8" x1="269.7" y1="198.8" x2="269.7" y2="206.9"/>
	<line class="st8" x1="269.7" y1="138.3" x2="269.7" y2="172.3"/>
	<line class="st8" x1="269.7" y1="113.8" x2="269.7" y2="120.2"/>
	<line class="st8" x1="269.7" y1="57.1" x2="269.7" y2="67.2"/>
	<line class="st8" x1="269.7" y1="20.4" x2="269.7" y2="25.2"/>
	<line class="st8" x1="241.3" y1="395.2" x2="241.3" y2="397.3"/>
	<line class="st8" x1="241.3" y1="361.1" x2="241.3" y2="368.9"/>
	<line class="st8" x1="241.3" y1="312.3" x2="241.3" y2="319.6"/>
	<line class="st8" x1="241.3" y1="276.8" x2="241.3" y2="281.1"/>
	<line class="st8" x1="241.3" y1="227.2" x2="241.3" y2="252.1"/>
	<line class="st8" x1="241.3" y1="198.8" x2="241.3" y2="203.1"/>
	<line class="st8" x1="241.3" y1="168.8" x2="241.3" y2="174.5"/>
	<line class="st8" x1="241.3" y1="134.4" x2="241.3" y2="144.6"/>
	<line class="st8" x1="241.3" y1="109.2" x2="241.3" y2="114.3"/>
	<line class="st8" x1="241.3" y1="85.8" x2="241.3" y2="91.3"/>
	<line class="st8" x1="241.3" y1="41.3" x2="241.3" y2="55.6"/>
	<line class="st8" x1="241.3" y1="0.4" x2="241.3" y2="13.6"/>
	<line class="st8" x1="213" y1="396.7" x2="213" y2="397.3"/>
	<line class="st8" x1="213" y1="334.3" x2="213" y2="376"/>
	<line class="st8" x1="213" y1="312" x2="213" y2="319.6"/>
	<line class="st8" x1="213" y1="282.6" x2="213" y2="290.8"/>
	<line class="st8" x1="213" y1="198.8" x2="213" y2="236"/>
	<line class="st8" x1="213" y1="133.3" x2="213" y2="150.1"/>
	<line class="st8" x1="213" y1="109.2" x2="213" y2="115.5"/>
	<line class="st8" x1="213" y1="14.6" x2="213" y2="91.3"/>
	<line class="st8" x1="184.7" y1="397.1" x2="184.7" y2="397.3"/>
	<line class="st8" x1="184.7" y1="354.7" x2="184.7" y2="371"/>
	<line class="st8" x1="184.7" y1="351.9" x2="184.7" y2="354.7"/>
	<line class="st8" x1="184.7" y1="312" x2="184.7" y2="351.9"/>
	<line class="st8" x1="184.7" y1="273.5" x2="184.7" y2="288.6"/>
	<line class="st8" x1="184.7" y1="227.2" x2="184.7" y2="248.4"/>
	<line class="st8" x1="184.7" y1="206" x2="184.7" y2="213.6"/>
	<line class="st8" x1="184.7" y1="175.4" x2="184.7" y2="201.9"/>
	<line class="st8" x1="184.7" y1="164.5" x2="184.7" y2="175.4"/>
	<line class="st8" x1="184.7" y1="141.9" x2="184.7" y2="164.5"/>
	<line class="st8" x1="184.7" y1="106.1" x2="184.7" y2="110.4"/>
	<line class="st8" x1="184.7" y1="78.1" x2="184.7" y2="85.5"/>
	<line class="st8" x1="184.7" y1="55.1" x2="184.7" y2="67.5"/>
	<line class="st8" x1="184.7" y1="14.6" x2="184.7" y2="23.6"/>
	<line class="st8" x1="184.7" y1="0.4" x2="184.7" y2="14.6"/>
	<line class="st8" x1="156.3" y1="346.4" x2="156.3" y2="397.3"/>
	<line class="st8" x1="156.3" y1="312.2" x2="156.3" y2="326.4"/>
	<line class="st8" x1="156.3" y1="273.8" x2="156.3" y2="284.3"/>
	<line class="st8" x1="156.3" y1="174.6" x2="156.3" y2="204.2"/>
	<line class="st8" x1="156.3" y1="159.6" x2="156.3" y2="174.6"/>
	<line class="st8" x1="156.3" y1="156.3" x2="156.3" y2="159.6"/>
	<line class="st8" x1="156.3" y1="141.7" x2="156.3" y2="156.3"/>
	<line class="st8" x1="156.3" y1="105.4" x2="156.3" y2="114.2"/>
	<line class="st8" x1="156.3" y1="78.4" x2="156.3" y2="85.5"/>
	<line class="st8" x1="156.3" y1="45.3" x2="156.3" y2="58.6"/>
	<line class="st8" x1="156.3" y1="20.1" x2="156.3" y2="28.8"/>
	<line class="st8" x1="128" y1="340.6" x2="128" y2="355.5"/>
	<line class="st8" x1="128" y1="312.2" x2="128" y2="316.5"/>
	<line class="st8" x1="128" y1="281" x2="128" y2="286.1"/>
	<line class="st8" x1="128" y1="243.8" x2="128" y2="265.5"/>
	<line class="st8" x1="128" y1="220.6" x2="128" y2="228.3"/>
	<line class="st8" x1="128" y1="184.2" x2="128" y2="189.6"/>
	<line class="st8" x1="128" y1="142" x2="128" y2="153.7"/>
	<line class="st8" x1="128" y1="85.4" x2="128" y2="135.1"/>
	<line class="st8" x1="128" y1="21.7" x2="128" y2="58.9"/>
	<line class="st8" x1="99.6" y1="369" x2="99.6" y2="381.6"/>
	<line class="st8" x1="99.6" y1="312.2" x2="99.6" y2="325.6"/>
	<line class="st8" x1="99.6" y1="284.5" x2="99.6" y2="286.2"/>
	<line class="st8" x1="99.6" y1="282.4" x2="99.6" y2="284.5"/>
	<line class="st8" x1="99.6" y1="255.5" x2="99.6" y2="282.4"/>
	<line class="st8" x1="99.6" y1="170.4" x2="99.6" y2="229"/>
	<line class="st8" x1="99.6" y1="142" x2="99.6" y2="150.6"/>
	<line class="st8" x1="99.6" y1="85.4" x2="99.6" y2="95.4"/>
	<line class="st8" x1="99.6" y1="43.5" x2="99.6" y2="61.1"/>
	<line class="st8" x1="99.6" y1="21.7" x2="99.6" y2="28.8"/>
	<line class="st8" x1="99.6" y1="0.4" x2="99.6" y2="3.8"/>
	<line class="st8" x1="71.3" y1="391.8" x2="71.3" y2="397.3"/>
	<line class="st8" x1="71.3" y1="322.8" x2="71.3" y2="367.7"/>
	<line class="st8" x1="71.3" y1="280.5" x2="71.3" y2="283.9"/>
	<line class="st8" x1="71.3" y1="255.5" x2="71.3" y2="262.3"/>
	<line class="st8" x1="71.3" y1="214.1" x2="71.3" y2="231.2"/>
	<line class="st8" x1="71.3" y1="161.9" x2="71.3" y2="170.6"/>
	<line class="st8" x1="71.3" y1="124.4" x2="71.3" y2="142.1"/>
	<line class="st8" x1="71.3" y1="70.3" x2="71.3" y2="85.5"/>
	<line class="st8" x1="71.3" y1="0.4" x2="71.3" y2="28.8"/>
	<line class="st8" x1="42.9" y1="391.1" x2="42.9" y2="397.3"/>
	<line class="st8" x1="42.9" y1="381.6" x2="42.9" y2="391.1"/>
	<line class="st8" x1="42.9" y1="292.7" x2="42.9" y2="381.6"/>
	<line class="st8" x1="42.9" y1="292.1" x2="42.9" y2="292.7"/>
	<line class="st8" x1="42.9" y1="291.4" x2="42.9" y2="292.1"/>
	<line class="st8" x1="42.9" y1="286.8" x2="42.9" y2="291.4"/>
	<line class="st8" x1="42.9" y1="255.6" x2="42.9" y2="286.8"/>
	<line class="st8" x1="42.9" y1="134.5" x2="42.9" y2="190.1"/>
	<line class="st8" x1="42.9" y1="85.5" x2="42.9" y2="116.7"/>
	<line class="st8" x1="42.9" y1="21.7" x2="42.9" y2="68.9"/>
	<line class="st8" x1="42.9" y1="0.4" x2="42.9" y2="1.7"/>
	<line class="st8" x1="14.6" y1="368.9" x2="14.6" y2="378"/>
	<line class="st8" x1="14.6" y1="312.2" x2="14.6" y2="321.5"/>
	<line class="st8" x1="14.6" y1="293" x2="14.6" y2="312.2"/>
	<line class="st8" x1="14.6" y1="281.2" x2="14.6" y2="293"/>
	<line class="st8" x1="14.6" y1="260.5" x2="14.6" y2="281.2"/>
	<line class="st8" x1="14.6" y1="218.6" x2="14.6" y2="260.5"/>
	<line class="st8" x1="14.6" y1="179" x2="14.6" y2="199.7"/>
	<line class="st8" x1="14.6" y1="128.6" x2="14.6" y2="142.2"/>
	<line class="st8" x1="14.6" y1="80.2" x2="14.6" y2="90.6"/>
	<line class="st8" x1="14.6" y1="77.4" x2="14.6" y2="80.2"/>
	<line class="st8" x1="14.6" y1="57.1" x2="14.6" y2="77.4"/>
	<line class="st8" x1="14.6" y1="14.6" x2="14.6" y2="31.4"/>
	<line class="st8" x1="298" y1="57.4" x2="298" y2="81.4"/>
	<line class="st8" x1="298" y1="107.4" x2="298" y2="117.2"/>
	<line class="st8" x1="298" y1="141.9" x2="298" y2="152.3"/>
	<line class="st8" x1="318.2" y1="269.7" x2="328.1" y2="269.7"/>
	<line class="st8" x1="353.5" y1="269.7" x2="371.2" y2="269.7"/>
	<line class="st8" x1="0.4" y1="241.4" x2="15.5" y2="241.4"/>
	<line class="st8" x1="57.1" y1="241.4" x2="67.4" y2="241.4"/>
	<line class="st8" x1="113.8" y1="241.4" x2="123.7" y2="241.4"/>
	<line class="st8" x1="142.3" y1="241.4" x2="149.3" y2="241.4"/>
	<line class="st8" x1="164" y1="241.4" x2="198.8" y2="241.4"/>
	<line class="st8" x1="224.3" y1="241.4" x2="245.2" y2="241.4"/>
	<line class="st8" x1="276.8" y1="241.4" x2="283.9" y2="241.4"/>
	<line class="st8" x1="303.8" y1="241.4" x2="313.8" y2="241.4"/>
	<line class="st8" x1="335.4" y1="241.4" x2="355.8" y2="241.4"/>
	<line class="st8" x1="28.7" y1="213" x2="42.4" y2="213"/>
	<line class="st8" x1="57.1" y1="213" x2="61.9" y2="213"/>
	<line class="st8" x1="95" y1="213" x2="101.3" y2="213"/>
	<line class="st8" x1="135" y1="213" x2="149.3" y2="213"/>
	<line class="st8" x1="170.3" y1="213" x2="185.2" y2="213"/>
	<line class="st8" x1="207.5" y1="213" x2="227.7" y2="213"/>
	<line class="st8" x1="255.5" y1="213" x2="269.6" y2="213"/>
	<line class="st8" x1="297.6" y1="213" x2="312.2" y2="213"/>
	<line class="st8" x1="335.7" y1="213" x2="356.9" y2="213"/>
	<line class="st8" x1="383.1" y1="213" x2="390.7" y2="213"/>
	<line class="st8" x1="0.4" y1="184.7" x2="63.5" y2="184.7"/>
	<line class="st8" x1="85.4" y1="184.7" x2="162" y2="184.7"/>
	<line class="st8" x1="184.2" y1="184.7" x2="197.5" y2="184.7"/>
	<line class="st8" x1="227.2" y1="184.7" x2="237.5" y2="184.7"/>
	<line class="st8" x1="283.9" y1="184.7" x2="291.5" y2="184.7"/>
	<line class="st8" x1="330.4" y1="184.7" x2="345.5" y2="184.7"/>
	<line class="st8" x1="378.6" y1="184.7" x2="397.2" y2="184.7"/>
	<line class="st8" x1="298" y1="167" x2="298" y2="181"/>
	<line class="st8" x1="298" y1="198.8" x2="298" y2="239"/>
	<line class="st8" x1="298" y1="255.5" x2="298" y2="269.2"/>
	<line class="st8" x1="298" y1="303.7" x2="298" y2="340.6"/>
	<line class="st8" x1="298" y1="359.6" x2="298" y2="390.2"/>
	<line class="st8" x1="326.4" y1="0.4" x2="326.4" y2="80.2"/>
	<line class="st8" x1="326.4" y1="100" x2="326.4" y2="125.5"/>
	<line class="st8" x1="326.4" y1="167" x2="326.4" y2="181"/>
	<line class="st8" x1="326.4" y1="198.8" x2="326.4" y2="212.1"/>
	<line class="st8" x1="326.4" y1="255.5" x2="326.4" y2="312.2"/>
	<line class="st8" x1="0.4" y1="156.3" x2="3.5" y2="156.3"/>
	<line class="st8" x1="33.7" y1="156.3" x2="57.1" y2="156.3"/>
	<line class="st8" x1="79.1" y1="156.3" x2="91.1" y2="156.3"/>
	<line class="st8" x1="140.6" y1="156.3" x2="141.9" y2="156.3"/>
	<line class="st8" x1="326.4" y1="332.9" x2="326.4" y2="340.6"/>
	<line class="st8" x1="326.4" y1="379.5" x2="326.4" y2="390.2"/>
	<line class="st8" x1="354.7" y1="23.7" x2="354.7" y2="36.2"/>
	<line class="st8" x1="354.7" y1="63.8" x2="354.7" y2="79.3"/>
	<line class="st8" x1="354.7" y1="113.8" x2="354.7" y2="142.1"/>
	<line class="st8" x1="354.7" y1="185.5" x2="354.7" y2="192.2"/>
	<line class="st8" x1="354.7" y1="211" x2="354.7" y2="319.4"/>
	<line class="st8" x1="354.7" y1="332.9" x2="354.7" y2="344.9"/>
	<line class="st8" x1="354.7" y1="367.3" x2="354.7" y2="376"/>
	<line class="st8" x1="23.9" y1="14.6" x2="28.5" y2="14.6"/>
	<line class="st8" x1="28.5" y1="14.6" x2="28.7" y2="14.6"/>
	<line class="st8" x1="141.9" y1="156.3" x2="142.2" y2="156.3"/>
	<line class="st8" x1="142.2" y1="156.3" x2="156.3" y2="156.3"/>
	<line class="st8" x1="156.3" y1="156.3" x2="162" y2="156.3"/>
	<line class="st8" x1="174.3" y1="156.3" x2="207" y2="156.3"/>
	<line class="st8" x1="227.2" y1="156.3" x2="235.5" y2="156.3"/>
	<line class="st8" x1="255.2" y1="156.3" x2="271.7" y2="156.3"/>
	<line class="st8" x1="28.7" y1="14.6" x2="28.7" y2="14.6"/>
	<line class="st8" x1="354.7" y1="396" x2="354.7" y2="397.3"/>
	<line class="st8" x1="383.1" y1="28.9" x2="383.1" y2="49.2"/>
	<line class="st8" x1="383.1" y1="49.2" x2="383.1" y2="111.5"/>
	<line class="st8" x1="383.1" y1="111.5" x2="383.1" y2="125.6"/>
	<line class="st8" x1="383.1" y1="142.1" x2="383.1" y2="150.8"/>
	<line class="st8" x1="383.1" y1="170.5" x2="383.1" y2="192.2"/>
	<line class="st8" x1="383.1" y1="192.2" x2="383.1" y2="215.2"/>
	<line class="st8" x1="383.1" y1="215.2" x2="383.1" y2="219.7"/>
	<line class="st8" x1="383.1" y1="219.7" x2="383.1" y2="227.3"/>
	<line class="st8" x1="383.1" y1="249.6" x2="383.1" y2="265.2"/>
	<line class="st8" x1="28.7" y1="14.6" x2="40.5" y2="14.6"/>
	<line class="st8" x1="57.1" y1="14.6" x2="74.8" y2="14.6"/>
	<line class="st8" x1="113.8" y1="14.6" x2="127.1" y2="14.6"/>
	<line class="st8" x1="170.6" y1="14.6" x2="184.7" y2="14.6"/>
	<line class="st8" x1="184.7" y1="14.6" x2="196.1" y2="14.6"/>
	<line class="st8" x1="210.1" y1="14.6" x2="215.8" y2="14.6"/>
	<line class="st8" x1="220.8" y1="14.6" x2="231.1" y2="14.6"/>
	<line class="st8" x1="255.5" y1="14.6" x2="267.3" y2="14.6"/>
	<line class="st8" x1="339.4" y1="156.3" x2="347.1" y2="156.3"/>
	<line class="st8" x1="369" y1="156.3" x2="376" y2="156.3"/>
	<line class="st8" x1="0.4" y1="128" x2="2.3" y2="128"/>
	<line class="st8" x1="23.7" y1="128" x2="33" y2="128"/>
	<line class="st8" x1="52.4" y1="128" x2="86.6" y2="128"/>
	<line class="st8" x1="112.1" y1="128" x2="130.1" y2="128"/>
	<line class="st8" x1="161.1" y1="128" x2="170.4" y2="128"/>
	<line class="st8" x1="217.9" y1="128" x2="229.7" y2="128"/>
	<line class="st8" x1="254.2" y1="128" x2="262.2" y2="128"/>
	<line class="st8" x1="281.1" y1="128" x2="291.3" y2="128"/>
	<line class="st8" x1="308.3" y1="128" x2="309.5" y2="128"/>
	<line class="st8" x1="309.5" y1="128" x2="315" y2="128"/>
	<line class="st8" x1="338.9" y1="128" x2="376" y2="128"/>
	<line class="st8" x1="396" y1="128" x2="397.2" y2="128"/>
	<line class="st8" x1="0.4" y1="99.6" x2="5.2" y2="99.6"/>
	<line class="st8" x1="283.9" y1="14.6" x2="298" y2="14.6"/>
	<line class="st8" x1="28.8" y1="99.6" x2="57.1" y2="99.6"/>
	<line class="st8" x1="75" y1="99.6" x2="86.6" y2="99.6"/>
	<line class="st8" x1="326" y1="14.6" x2="340.6" y2="14.6"/>
	<line class="st8" x1="112.1" y1="99.6" x2="142.1" y2="99.6"/>
	<line class="st8" x1="158.7" y1="99.6" x2="170.5" y2="99.6"/>
	<line class="st8" x1="198.4" y1="99.6" x2="207.5" y2="99.6"/>
	<line class="st8" x1="361.6" y1="14.6" x2="370.5" y2="14.6"/>
	<line class="st8" x1="392.1" y1="14.6" x2="397.2" y2="14.6"/>
	<line class="st8" x1="108.4" y1="383.1" x2="122.4" y2="383.1"/>
	<line class="st8" x1="151.9" y1="383.1" x2="163.8" y2="383.1"/>
	<line class="st8" x1="191.3" y1="383.1" x2="199" y2="383.1"/>
	<line class="st8" x1="226.9" y1="383.1" x2="231.4" y2="383.1"/>
	<line class="st8" x1="280.1" y1="383.1" x2="286.5" y2="383.1"/>
	<line class="st8" x1="297.1" y1="383.1" x2="340.6" y2="383.1"/>
	<line class="st8" x1="357.1" y1="383.1" x2="362.9" y2="383.1"/>
	<line class="st8" x1="269.7" y1="253.3" x2="269.7" y2="283"/>
	<line class="st8" x1="30.7" y1="354.7" x2="87" y2="354.7"/>
	<line class="st8" x1="108.6" y1="354.7" x2="140" y2="354.7"/>
	<line class="st8" x1="151.9" y1="354.7" x2="184.6" y2="354.7"/>
	<line class="st8" x1="184.6" y1="354.7" x2="194.3" y2="354.7"/>
	<line class="st8" x1="209.5" y1="354.7" x2="228.1" y2="354.7"/>
	<line class="st8" x1="255.3" y1="354.7" x2="267.6" y2="354.7"/>
	<line class="st8" x1="299.5" y1="354.7" x2="312.2" y2="354.7"/>
	<line class="st8" x1="330.1" y1="354.7" x2="340.6" y2="354.7"/>
	<line class="st8" x1="363.8" y1="354.7" x2="368.9" y2="354.7"/>
	<line class="st8" x1="380.8" y1="354.7" x2="397.2" y2="354.7"/>
	<line class="st8" x1="25.6" y1="326.4" x2="85.4" y2="326.4"/>
	<line class="st8" x1="108.9" y1="326.4" x2="114.3" y2="326.4"/>
	<line class="st8" x1="142.1" y1="326.4" x2="150.2" y2="326.4"/>
	<line class="st8" x1="150.2" y1="326.4" x2="151.2" y2="326.4"/>
	<line class="st8" x1="151.2" y1="326.4" x2="153.8" y2="326.4"/>
	<line class="st8" x1="153.8" y1="326.4" x2="170.5" y2="326.4"/>
	<line class="st8" x1="246.5" y1="99.6" x2="258.2" y2="99.6"/>
	<line class="st8" x1="283.7" y1="99.6" x2="292.5" y2="99.6"/>
	<line class="st8" x1="312.2" y1="99.6" x2="322.7" y2="99.6"/>
	<line class="st8" x1="335.1" y1="99.6" x2="339.3" y2="99.6"/>
	<line class="st8" x1="322.7" y1="99.6" x2="335.1" y2="99.6"/>
	<line class="st8" x1="373.7" y1="99.6" x2="383.1" y2="99.6"/>
	<line class="st8" x1="5" y1="71.3" x2="28.7" y2="71.3"/>
	<line class="st8" x1="48.7" y1="71.3" x2="85.8" y2="71.3"/>
	<line class="st8" x1="132.2" y1="71.3" x2="142" y2="71.3"/>
	<line class="st8" x1="166.2" y1="71.3" x2="182.3" y2="71.3"/>
	<line class="st8" x1="198.8" y1="71.3" x2="216.4" y2="71.3"/>
	<line class="st8" x1="253.2" y1="71.3" x2="258.2" y2="71.3"/>
</g>
<g id="PLAN::DETAIL">
</g>
<g id="PLAN::TOPO">
</g>
<g id="PLAN::FOND">
</g>
<g id="INFOS::CADRES_2" class="st0">
	<g class="st12">
		<path class="st13" d="M396.5,1.1v395.5H1.1V1.1H396.5 M397.2,0.4H0.4v396.9h396.9V0.4L397.2,0.4z"/>
	</g>
</g>
<g id="BLOCK_SPECTIFIQUES::MEUBLE_FITNESS">
</g>
<g id="BLOCK_SPECTIFIQUES::POTAGER">
</g>
<g id="PLAN::POTEAU">
</g>
<g id="PLAN::FOND_SOL">
</g>
</svg>
