<?xml version="1.0" encoding="utf-8"?>
<!-- Generator: Adobe Illustrator 22.0.1, SVG Export Plug-In . SVG Version: 6.00 Build 0)  -->
<svg version="1.1" xmlns="http://www.w3.org/2000/svg" xmlns:xlink="http://www.w3.org/1999/xlink" x="0px" y="0px" width="397.6px"
	 height="397.5px" viewBox="0 0 397.6 397.5" style="enable-background:new 0 0 397.6 397.5;" xml:space="preserve">
<style type="text/css">
	.st0{display:none;}
	.st1{display:inline;stroke:#FFFFFF;stroke-linecap:round;stroke-linejoin:round;}
	.st2{fill:#FFFFFF;stroke:#FFFFFF;stroke-width:0.4;stroke-miterlimit:10;}
	.st3{fill:none;stroke:#FFFFFF;stroke-linecap:square;}
	.st4{fill:none;stroke:#FFFFFF;stroke-width:0.7;stroke-linecap:square;}
	.st5{fill:none;stroke:#FFFFFF;stroke-width:0.55;stroke-linecap:square;}
	.st6{fill:none;stroke:#FFFFFF;stroke-width:0.6;stroke-linecap:square;stroke-dasharray:2,3;}
	.st7{fill:none;stroke:#FFFFFF;stroke-width:0.2;stroke-linecap:square;stroke-dasharray:2,3;}
	.st8{fill:none;stroke:#FFFFFF;stroke-width:0.3;stroke-linecap:square;}
	.st9{fill:none;stroke:#FFFFFF;stroke-width:0.5;stroke-linecap:square;}
	.st10{fill:none;stroke:#FFFFFF;stroke-width:0.7;stroke-linecap:square;stroke-dasharray:2,3;}
	.st11{fill:none;stroke:#FFFFFF;stroke-width:0.4;stroke-linecap:square;}
	.st12{display:inline;}
	.st13{fill:#FFFFFF;}
	.st14{display:inline;fill:none;stroke:#000000;stroke-linecap:round;stroke-linejoin:round;}
</style>
<g id="FOND" class="st0">
	<rect x="-532.4" y="-1017.6" class="st1" width="1470.6" height="1969.9"/>
</g>
<g id="Calque_1" class="st0">
</g>
<g id="PLAN::STRUCTURE_1.1">
	<rect x="396.9" y="396.9" class="st2" width="0.6" height="0.6"/>
	<rect x="396.9" y="396.9" class="st2" width="0.6" height="0.6"/>
	<rect x="396.9" y="368.5" class="st2" width="0.6" height="0.6"/>
	<rect x="396.9" y="368.5" class="st2" width="0.6" height="0.6"/>
	<rect x="396.9" y="340.2" class="st2" width="0.6" height="0.6"/>
	<rect x="396.9" y="340.2" class="st2" width="0.6" height="0.6"/>
	<rect x="396.9" y="311.9" class="st2" width="0.6" height="0.6"/>
	<rect x="396.9" y="311.9" class="st2" width="0.6" height="0.6"/>
	<rect x="396.9" y="283.5" class="st2" width="0.6" height="0.6"/>
	<rect x="396.9" y="283.5" class="st2" width="0.6" height="0.6"/>
	<rect x="396.9" y="141.8" class="st2" width="0.6" height="0.6"/>
	<rect x="396.9" y="141.8" class="st2" width="0.6" height="0.6"/>
	<rect x="396.9" y="170.1" class="st2" width="0.6" height="0.6"/>
	<rect x="396.9" y="170.1" class="st2" width="0.6" height="0.6"/>
	<rect x="396.9" y="198.5" class="st2" width="0.6" height="0.6"/>
	<rect x="396.9" y="198.5" class="st2" width="0.6" height="0.6"/>
	<rect x="396.9" y="226.8" class="st2" width="0.6" height="0.6"/>
	<rect x="396.9" y="226.8" class="st2" width="0.6" height="0.6"/>
	<rect x="396.9" y="255.2" class="st2" width="0.6" height="0.6"/>
	<rect x="396.9" y="255.2" class="st2" width="0.6" height="0.6"/>
	<rect x="396.9" y="0" class="st2" width="0.6" height="0.6"/>
	<rect x="396.9" y="0" class="st2" width="0.6" height="0.6"/>
	<rect x="396.9" y="28.4" class="st2" width="0.6" height="0.6"/>
	<rect x="396.9" y="28.4" class="st2" width="0.6" height="0.6"/>
	<rect x="396.9" y="56.7" class="st2" width="0.6" height="0.6"/>
	<rect x="396.9" y="56.7" class="st2" width="0.6" height="0.6"/>
	<rect x="396.9" y="85.1" class="st2" width="0.6" height="0.6"/>
	<rect x="396.9" y="85.1" class="st2" width="0.6" height="0.6"/>
	<rect x="396.9" y="113.4" class="st2" width="0.6" height="0.6"/>
	<rect x="396.9" y="113.4" class="st2" width="0.6" height="0.6"/>
	<rect x="368.6" y="396.9" class="st2" width="0.6" height="0.6"/>
	<rect x="368.6" y="396.9" class="st2" width="0.6" height="0.6"/>
	<rect x="368.6" y="141.8" class="st2" width="0.6" height="0.6"/>
	<rect x="368.6" y="141.8" class="st2" width="0.6" height="0.6"/>
	<rect x="368.6" y="170.1" class="st2" width="0.6" height="0.6"/>
	<rect x="368.6" y="170.1" class="st2" width="0.6" height="0.6"/>
	<rect x="368.6" y="198.5" class="st2" width="0.6" height="0.6"/>
	<rect x="368.6" y="198.5" class="st2" width="0.6" height="0.6"/>
	<rect x="368.6" y="226.8" class="st2" width="0.6" height="0.6"/>
	<rect x="368.6" y="226.8" class="st2" width="0.6" height="0.6"/>
	<rect x="368.6" y="255.2" class="st2" width="0.6" height="0.6"/>
	<rect x="368.6" y="255.2" class="st2" width="0.6" height="0.6"/>
	<rect x="368.6" y="0" class="st2" width="0.6" height="0.6"/>
	<rect x="368.6" y="0" class="st2" width="0.6" height="0.6"/>
	<rect x="368.6" y="28.4" class="st2" width="0.6" height="0.6"/>
	<rect x="368.6" y="28.4" class="st2" width="0.6" height="0.6"/>
	<rect x="368.6" y="56.7" class="st2" width="0.6" height="0.6"/>
	<rect x="368.6" y="56.7" class="st2" width="0.6" height="0.6"/>
	<rect x="368.6" y="85.1" class="st2" width="0.6" height="0.6"/>
	<rect x="368.6" y="85.1" class="st2" width="0.6" height="0.6"/>
	<rect x="368.6" y="113.4" class="st2" width="0.6" height="0.6"/>
	<rect x="368.6" y="113.4" class="st2" width="0.6" height="0.6"/>
	<rect x="340.3" y="396.9" class="st2" width="0.6" height="0.6"/>
	<rect x="340.3" y="396.9" class="st2" width="0.6" height="0.6"/>
	<rect x="340.3" y="368.5" class="st2" width="0.6" height="0.6"/>
	<rect x="340.3" y="368.5" class="st2" width="0.6" height="0.6"/>
	<rect x="340.3" y="283.5" class="st2" width="0.6" height="0.6"/>
	<rect x="340.3" y="283.5" class="st2" width="0.6" height="0.6"/>
	<rect x="340.3" y="141.8" class="st2" width="0.6" height="0.6"/>
	<rect x="340.3" y="141.8" class="st2" width="0.6" height="0.6"/>
	<rect x="340.3" y="170.1" class="st2" width="0.6" height="0.6"/>
	<rect x="340.3" y="170.1" class="st2" width="0.6" height="0.6"/>
	<rect x="340.3" y="198.5" class="st2" width="0.6" height="0.6"/>
	<rect x="340.3" y="198.5" class="st2" width="0.6" height="0.6"/>
	<rect x="340.3" y="226.8" class="st2" width="0.6" height="0.6"/>
	<rect x="340.3" y="226.8" class="st2" width="0.6" height="0.6"/>
	<rect x="340.3" y="255.2" class="st2" width="0.6" height="0.6"/>
	<rect x="340.3" y="255.2" class="st2" width="0.6" height="0.6"/>
	<rect x="340.3" y="0" class="st2" width="0.6" height="0.6"/>
	<rect x="340.3" y="0" class="st2" width="0.6" height="0.6"/>
	<rect x="340.3" y="28.4" class="st2" width="0.6" height="0.6"/>
	<rect x="340.3" y="28.4" class="st2" width="0.6" height="0.6"/>
	<rect x="340.3" y="56.7" class="st2" width="0.6" height="0.6"/>
	<rect x="340.3" y="56.7" class="st2" width="0.6" height="0.6"/>
	<rect x="340.3" y="85.1" class="st2" width="0.6" height="0.6"/>
	<rect x="340.3" y="85.1" class="st2" width="0.6" height="0.6"/>
	<rect x="340.3" y="113.4" class="st2" width="0.6" height="0.6"/>
	<rect x="340.3" y="113.4" class="st2" width="0.6" height="0.6"/>
	<rect x="311.9" y="396.9" class="st2" width="0.6" height="0.6"/>
	<rect x="311.9" y="396.9" class="st2" width="0.6" height="0.6"/>
	<rect x="311.9" y="368.5" class="st2" width="0.6" height="0.6"/>
	<rect x="311.9" y="368.5" class="st2" width="0.6" height="0.6"/>
	<rect x="311.9" y="283.5" class="st2" width="0.6" height="0.6"/>
	<rect x="311.9" y="283.5" class="st2" width="0.6" height="0.6"/>
	<rect x="311.9" y="226.8" class="st2" width="0.6" height="0.6"/>
	<rect x="311.9" y="226.8" class="st2" width="0.6" height="0.6"/>
	<rect x="311.9" y="255.2" class="st2" width="0.6" height="0.6"/>
	<rect x="311.9" y="255.2" class="st2" width="0.6" height="0.6"/>
	<rect x="311.9" y="0" class="st2" width="0.6" height="0.6"/>
	<rect x="311.9" y="0" class="st2" width="0.6" height="0.6"/>
	<rect x="311.9" y="28.4" class="st2" width="0.6" height="0.6"/>
	<rect x="311.9" y="28.4" class="st2" width="0.6" height="0.6"/>
	<rect x="311.9" y="56.7" class="st2" width="0.6" height="0.6"/>
	<rect x="311.9" y="56.7" class="st2" width="0.6" height="0.6"/>
	<rect x="311.9" y="85.1" class="st2" width="0.6" height="0.6"/>
	<rect x="311.9" y="85.1" class="st2" width="0.6" height="0.6"/>
	<rect x="311.9" y="113.4" class="st2" width="0.6" height="0.6"/>
	<rect x="311.9" y="113.4" class="st2" width="0.6" height="0.6"/>
	<rect x="283.6" y="396.9" class="st2" width="0.6" height="0.6"/>
	<rect x="283.6" y="396.9" class="st2" width="0.6" height="0.6"/>
	<rect x="283.6" y="368.5" class="st2" width="0.6" height="0.6"/>
	<rect x="283.6" y="368.5" class="st2" width="0.6" height="0.6"/>
	<rect x="283.6" y="311.9" class="st2" width="0.6" height="0.6"/>
	<rect x="283.6" y="311.9" class="st2" width="0.6" height="0.6"/>
	<rect x="283.6" y="283.5" class="st2" width="0.6" height="0.6"/>
	<rect x="283.6" y="283.5" class="st2" width="0.6" height="0.6"/>
	<rect x="283.6" y="141.8" class="st2" width="0.6" height="0.6"/>
	<rect x="283.6" y="141.8" class="st2" width="0.6" height="0.6"/>
	<rect x="283.6" y="255.2" class="st2" width="0.6" height="0.6"/>
	<rect x="283.6" y="255.2" class="st2" width="0.6" height="0.6"/>
	<rect x="283.6" y="0" class="st2" width="0.6" height="0.6"/>
	<rect x="283.6" y="0" class="st2" width="0.6" height="0.6"/>
	<rect x="283.6" y="28.4" class="st2" width="0.6" height="0.6"/>
	<rect x="283.6" y="28.4" class="st2" width="0.6" height="0.6"/>
	<rect x="283.6" y="56.7" class="st2" width="0.6" height="0.6"/>
	<rect x="283.6" y="56.7" class="st2" width="0.6" height="0.6"/>
	<rect x="283.6" y="85.1" class="st2" width="0.6" height="0.6"/>
	<rect x="283.6" y="85.1" class="st2" width="0.6" height="0.6"/>
	<rect x="283.6" y="113.4" class="st2" width="0.6" height="0.6"/>
	<rect x="283.6" y="113.4" class="st2" width="0.6" height="0.6"/>
	<rect x="255.2" y="396.9" class="st2" width="0.6" height="0.6"/>
	<rect x="255.2" y="396.9" class="st2" width="0.6" height="0.6"/>
	<rect x="255.2" y="368.5" class="st2" width="0.6" height="0.6"/>
	<rect x="255.2" y="368.5" class="st2" width="0.6" height="0.6"/>
	<rect x="255.2" y="340.2" class="st2" width="0.6" height="0.6"/>
	<rect x="255.2" y="340.2" class="st2" width="0.6" height="0.6"/>
	<rect x="255.2" y="311.9" class="st2" width="0.6" height="0.6"/>
	<rect x="255.2" y="311.9" class="st2" width="0.6" height="0.6"/>
	<rect x="255.2" y="283.5" class="st2" width="0.6" height="0.6"/>
	<rect x="255.2" y="283.5" class="st2" width="0.6" height="0.6"/>
	<rect x="255.2" y="141.8" class="st2" width="0.6" height="0.6"/>
	<rect x="255.2" y="141.8" class="st2" width="0.6" height="0.6"/>
	<rect x="255.2" y="170.1" class="st2" width="0.6" height="0.6"/>
	<rect x="255.2" y="170.1" class="st2" width="0.6" height="0.6"/>
	<rect x="255.2" y="0" class="st2" width="0.6" height="0.6"/>
	<rect x="255.2" y="0" class="st2" width="0.6" height="0.6"/>
	<rect x="255.2" y="28.4" class="st2" width="0.6" height="0.6"/>
	<rect x="255.2" y="28.4" class="st2" width="0.6" height="0.6"/>
	<rect x="255.2" y="56.7" class="st2" width="0.6" height="0.6"/>
	<rect x="255.2" y="56.7" class="st2" width="0.6" height="0.6"/>
	<rect x="255.2" y="85.1" class="st2" width="0.6" height="0.6"/>
	<rect x="255.2" y="85.1" class="st2" width="0.6" height="0.6"/>
	<rect x="255.2" y="113.4" class="st2" width="0.6" height="0.6"/>
	<rect x="255.2" y="113.4" class="st2" width="0.6" height="0.6"/>
	<rect x="226.9" y="396.9" class="st2" width="0.6" height="0.6"/>
	<rect x="226.9" y="396.9" class="st2" width="0.6" height="0.6"/>
	<rect x="226.9" y="368.5" class="st2" width="0.6" height="0.6"/>
	<rect x="226.9" y="368.5" class="st2" width="0.6" height="0.6"/>
	<rect x="226.9" y="340.2" class="st2" width="0.6" height="0.6"/>
	<rect x="226.9" y="340.2" class="st2" width="0.6" height="0.6"/>
	<rect x="226.9" y="311.9" class="st2" width="0.6" height="0.6"/>
	<rect x="226.9" y="311.9" class="st2" width="0.6" height="0.6"/>
	<rect x="226.9" y="283.5" class="st2" width="0.6" height="0.6"/>
	<rect x="226.9" y="283.5" class="st2" width="0.6" height="0.6"/>
	<rect x="226.9" y="141.8" class="st2" width="0.6" height="0.6"/>
	<rect x="226.9" y="141.8" class="st2" width="0.6" height="0.6"/>
	<rect x="226.9" y="170.1" class="st2" width="0.6" height="0.6"/>
	<rect x="226.9" y="170.1" class="st2" width="0.6" height="0.6"/>
	<rect x="226.9" y="226.8" class="st2" width="0.6" height="0.6"/>
	<rect x="226.9" y="226.8" class="st2" width="0.6" height="0.6"/>
	<rect x="226.9" y="255.2" class="st2" width="0.6" height="0.6"/>
	<rect x="226.9" y="255.2" class="st2" width="0.6" height="0.6"/>
	<rect x="226.9" y="0" class="st2" width="0.6" height="0.6"/>
	<rect x="226.9" y="0" class="st2" width="0.6" height="0.6"/>
	<rect x="226.9" y="56.7" class="st2" width="0.6" height="0.6"/>
	<rect x="226.9" y="56.7" class="st2" width="0.6" height="0.6"/>
	<rect x="226.9" y="85.1" class="st2" width="0.6" height="0.6"/>
	<rect x="226.9" y="85.1" class="st2" width="0.6" height="0.6"/>
	<rect x="226.9" y="113.4" class="st2" width="0.6" height="0.6"/>
	<rect x="226.9" y="113.4" class="st2" width="0.6" height="0.6"/>
	<rect x="198.5" y="396.9" class="st2" width="0.6" height="0.6"/>
	<rect x="198.5" y="396.9" class="st2" width="0.6" height="0.6"/>
	<rect x="198.5" y="368.5" class="st2" width="0.6" height="0.6"/>
	<rect x="198.5" y="368.5" class="st2" width="0.6" height="0.6"/>
	<rect x="198.5" y="141.8" class="st2" width="0.6" height="0.6"/>
	<rect x="198.5" y="141.8" class="st2" width="0.6" height="0.6"/>
	<rect x="198.5" y="170.1" class="st2" width="0.6" height="0.6"/>
	<rect x="198.5" y="170.1" class="st2" width="0.6" height="0.6"/>
	<rect x="198.5" y="198.5" class="st2" width="0.6" height="0.6"/>
	<rect x="198.5" y="198.5" class="st2" width="0.6" height="0.6"/>
	<rect x="198.5" y="226.8" class="st2" width="0.6" height="0.6"/>
	<rect x="198.5" y="226.8" class="st2" width="0.6" height="0.6"/>
	<rect x="198.5" y="0" class="st2" width="0.6" height="0.6"/>
	<rect x="198.5" y="0" class="st2" width="0.6" height="0.6"/>
	<rect x="198.5" y="113.4" class="st2" width="0.6" height="0.6"/>
	<rect x="198.5" y="113.4" class="st2" width="0.6" height="0.6"/>
	<rect x="170.2" y="396.9" class="st2" width="0.6" height="0.6"/>
	<rect x="170.2" y="396.9" class="st2" width="0.6" height="0.6"/>
	<rect x="170.2" y="368.5" class="st2" width="0.6" height="0.6"/>
	<rect x="170.2" y="368.5" class="st2" width="0.6" height="0.6"/>
	<rect x="170.2" y="340.2" class="st2" width="0.6" height="0.6"/>
	<rect x="170.2" y="340.2" class="st2" width="0.6" height="0.6"/>
	<rect x="170.2" y="141.8" class="st2" width="0.6" height="0.6"/>
	<rect x="170.2" y="141.8" class="st2" width="0.6" height="0.6"/>
	<rect x="170.2" y="170.1" class="st2" width="0.6" height="0.6"/>
	<rect x="170.2" y="170.1" class="st2" width="0.6" height="0.6"/>
	<rect x="170.2" y="198.5" class="st2" width="0.6" height="0.6"/>
	<rect x="170.2" y="198.5" class="st2" width="0.6" height="0.6"/>
	<rect x="170.2" y="226.8" class="st2" width="0.6" height="0.6"/>
	<rect x="170.2" y="226.8" class="st2" width="0.6" height="0.6"/>
	<rect x="170.2" y="0" class="st2" width="0.6" height="0.6"/>
	<rect x="170.2" y="0" class="st2" width="0.6" height="0.6"/>
	<rect x="170.2" y="28.4" class="st2" width="0.6" height="0.6"/>
	<rect x="170.2" y="28.4" class="st2" width="0.6" height="0.6"/>
	<rect x="170.2" y="56.7" class="st2" width="0.6" height="0.6"/>
	<rect x="170.2" y="56.7" class="st2" width="0.6" height="0.6"/>
	<rect x="170.2" y="113.4" class="st2" width="0.6" height="0.6"/>
	<rect x="170.2" y="113.4" class="st2" width="0.6" height="0.6"/>
	<rect x="141.8" y="396.9" class="st2" width="0.6" height="0.6"/>
	<rect x="141.8" y="396.9" class="st2" width="0.6" height="0.6"/>
	<rect x="141.8" y="368.5" class="st2" width="0.6" height="0.6"/>
	<rect x="141.8" y="368.5" class="st2" width="0.6" height="0.6"/>
	<rect x="141.8" y="340.2" class="st2" width="0.6" height="0.6"/>
	<rect x="141.8" y="340.2" class="st2" width="0.6" height="0.6"/>
	<rect x="141.8" y="141.8" class="st2" width="0.6" height="0.6"/>
	<rect x="141.8" y="141.8" class="st2" width="0.6" height="0.6"/>
	<rect x="141.8" y="170.1" class="st2" width="0.6" height="0.6"/>
	<rect x="141.8" y="170.1" class="st2" width="0.6" height="0.6"/>
	<rect x="141.8" y="198.5" class="st2" width="0.6" height="0.6"/>
	<rect x="141.8" y="198.5" class="st2" width="0.6" height="0.6"/>
	<rect x="141.8" y="226.8" class="st2" width="0.6" height="0.6"/>
	<rect x="141.8" y="226.8" class="st2" width="0.6" height="0.6"/>
	<rect x="141.8" y="255.2" class="st2" width="0.6" height="0.6"/>
	<rect x="141.8" y="255.2" class="st2" width="0.6" height="0.6"/>
	<rect x="141.8" y="0" class="st2" width="0.6" height="0.6"/>
	<rect x="141.8" y="0" class="st2" width="0.6" height="0.6"/>
	<rect x="141.8" y="28.4" class="st2" width="0.6" height="0.6"/>
	<rect x="141.8" y="28.4" class="st2" width="0.6" height="0.6"/>
	<rect x="141.8" y="56.7" class="st2" width="0.6" height="0.6"/>
	<rect x="141.8" y="56.7" class="st2" width="0.6" height="0.6"/>
	<rect x="141.8" y="85.1" class="st2" width="0.6" height="0.6"/>
	<rect x="141.8" y="85.1" class="st2" width="0.6" height="0.6"/>
	<rect x="141.8" y="113.4" class="st2" width="0.6" height="0.6"/>
	<rect x="141.8" y="113.4" class="st2" width="0.6" height="0.6"/>
	<rect x="113.5" y="396.9" class="st2" width="0.6" height="0.6"/>
	<rect x="113.5" y="396.9" class="st2" width="0.6" height="0.6"/>
	<rect x="113.5" y="368.5" class="st2" width="0.6" height="0.6"/>
	<rect x="113.5" y="368.5" class="st2" width="0.6" height="0.6"/>
	<rect x="113.5" y="340.2" class="st2" width="0.6" height="0.6"/>
	<rect x="113.5" y="340.2" class="st2" width="0.6" height="0.6"/>
	<rect x="113.5" y="311.9" class="st2" width="0.6" height="0.6"/>
	<rect x="113.5" y="311.9" class="st2" width="0.6" height="0.6"/>
	<rect x="113.5" y="283.5" class="st2" width="0.6" height="0.6"/>
	<rect x="113.5" y="283.5" class="st2" width="0.6" height="0.6"/>
	<rect x="113.5" y="141.8" class="st2" width="0.6" height="0.6"/>
	<rect x="113.5" y="141.8" class="st2" width="0.6" height="0.6"/>
	<rect x="113.5" y="170.1" class="st2" width="0.6" height="0.6"/>
	<rect x="113.5" y="170.1" class="st2" width="0.6" height="0.6"/>
	<rect x="113.5" y="198.5" class="st2" width="0.6" height="0.6"/>
	<rect x="113.5" y="198.5" class="st2" width="0.6" height="0.6"/>
	<rect x="113.5" y="226.8" class="st2" width="0.6" height="0.6"/>
	<rect x="113.5" y="226.8" class="st2" width="0.6" height="0.6"/>
	<rect x="113.5" y="255.2" class="st2" width="0.6" height="0.6"/>
	<rect x="113.5" y="255.2" class="st2" width="0.6" height="0.6"/>
	<rect x="113.5" y="0" class="st2" width="0.6" height="0.6"/>
	<rect x="113.5" y="0" class="st2" width="0.6" height="0.6"/>
	<rect x="113.5" y="28.4" class="st2" width="0.6" height="0.6"/>
	<rect x="113.5" y="28.4" class="st2" width="0.6" height="0.6"/>
	<rect x="113.5" y="56.7" class="st2" width="0.6" height="0.6"/>
	<rect x="113.5" y="56.7" class="st2" width="0.6" height="0.6"/>
	<rect x="113.5" y="85.1" class="st2" width="0.6" height="0.6"/>
	<rect x="113.5" y="85.1" class="st2" width="0.6" height="0.6"/>
	<rect x="113.5" y="113.4" class="st2" width="0.6" height="0.6"/>
	<rect x="113.5" y="113.4" class="st2" width="0.6" height="0.6"/>
	<rect x="85.1" y="396.9" class="st2" width="0.6" height="0.6"/>
	<rect x="85.1" y="396.9" class="st2" width="0.6" height="0.6"/>
	<rect x="85.1" y="368.5" class="st2" width="0.6" height="0.6"/>
	<rect x="85.1" y="368.5" class="st2" width="0.6" height="0.6"/>
	<rect x="85.1" y="340.2" class="st2" width="0.6" height="0.6"/>
	<rect x="85.1" y="340.2" class="st2" width="0.6" height="0.6"/>
	<rect x="85.1" y="311.9" class="st2" width="0.6" height="0.6"/>
	<rect x="85.1" y="311.9" class="st2" width="0.6" height="0.6"/>
	<rect x="85.1" y="283.5" class="st2" width="0.6" height="0.6"/>
	<rect x="85.1" y="283.5" class="st2" width="0.6" height="0.6"/>
	<rect x="85.1" y="170.1" class="st2" width="0.6" height="0.6"/>
	<rect x="85.1" y="170.1" class="st2" width="0.6" height="0.6"/>
	<rect x="85.1" y="198.5" class="st2" width="0.6" height="0.6"/>
	<rect x="85.1" y="198.5" class="st2" width="0.6" height="0.6"/>
	<rect x="85.1" y="226.8" class="st2" width="0.6" height="0.6"/>
	<rect x="85.1" y="226.8" class="st2" width="0.6" height="0.6"/>
	<rect x="85.1" y="255.2" class="st2" width="0.6" height="0.6"/>
	<rect x="85.1" y="255.2" class="st2" width="0.6" height="0.6"/>
	<rect x="85.1" y="0" class="st2" width="0.6" height="0.6"/>
	<rect x="85.1" y="0" class="st2" width="0.6" height="0.6"/>
	<rect x="85.1" y="28.4" class="st2" width="0.6" height="0.6"/>
	<rect x="85.1" y="28.4" class="st2" width="0.6" height="0.6"/>
	<rect x="85.1" y="56.7" class="st2" width="0.6" height="0.6"/>
	<rect x="85.1" y="56.7" class="st2" width="0.6" height="0.6"/>
	<rect x="85.1" y="85.1" class="st2" width="0.6" height="0.6"/>
	<rect x="85.1" y="85.1" class="st2" width="0.6" height="0.6"/>
	<rect x="85.1" y="113.4" class="st2" width="0.6" height="0.6"/>
	<rect x="85.1" y="113.4" class="st2" width="0.6" height="0.6"/>
	<rect x="56.8" y="396.9" class="st2" width="0.6" height="0.6"/>
	<rect x="56.8" y="396.9" class="st2" width="0.6" height="0.6"/>
	<rect x="56.8" y="311.9" class="st2" width="0.6" height="0.6"/>
	<rect x="56.8" y="311.9" class="st2" width="0.6" height="0.6"/>
	<rect x="56.8" y="283.5" class="st2" width="0.6" height="0.6"/>
	<rect x="56.8" y="283.5" class="st2" width="0.6" height="0.6"/>
	<rect x="56.8" y="170.1" class="st2" width="0.6" height="0.6"/>
	<rect x="56.8" y="170.1" class="st2" width="0.6" height="0.6"/>
	<rect x="56.8" y="198.5" class="st2" width="0.6" height="0.6"/>
	<rect x="56.8" y="198.5" class="st2" width="0.6" height="0.6"/>
	<rect x="56.8" y="226.8" class="st2" width="0.6" height="0.6"/>
	<rect x="56.8" y="226.8" class="st2" width="0.6" height="0.6"/>
	<rect x="56.8" y="255.2" class="st2" width="0.6" height="0.6"/>
	<rect x="56.8" y="255.2" class="st2" width="0.6" height="0.6"/>
	<rect x="56.8" y="0" class="st2" width="0.6" height="0.6"/>
	<rect x="56.8" y="0" class="st2" width="0.6" height="0.6"/>
	<rect x="56.8" y="56.7" class="st2" width="0.6" height="0.6"/>
	<rect x="56.8" y="56.7" class="st2" width="0.6" height="0.6"/>
	<rect x="56.8" y="85.1" class="st2" width="0.6" height="0.6"/>
	<rect x="56.8" y="85.1" class="st2" width="0.6" height="0.6"/>
	<rect x="28.4" y="396.9" class="st2" width="0.6" height="0.6"/>
	<rect x="28.4" y="396.9" class="st2" width="0.6" height="0.6"/>
	<rect x="28.4" y="340.2" class="st2" width="0.6" height="0.6"/>
	<rect x="28.4" y="340.2" class="st2" width="0.6" height="0.6"/>
	<rect x="28.4" y="311.9" class="st2" width="0.6" height="0.6"/>
	<rect x="28.4" y="311.9" class="st2" width="0.6" height="0.6"/>
	<rect x="28.4" y="283.5" class="st2" width="0.6" height="0.6"/>
	<rect x="28.4" y="283.5" class="st2" width="0.6" height="0.6"/>
	<rect x="28.4" y="170.1" class="st2" width="0.6" height="0.6"/>
	<rect x="28.4" y="170.1" class="st2" width="0.6" height="0.6"/>
	<rect x="28.4" y="198.5" class="st2" width="0.6" height="0.6"/>
	<rect x="28.4" y="198.5" class="st2" width="0.6" height="0.6"/>
	<rect x="28.4" y="226.8" class="st2" width="0.6" height="0.6"/>
	<rect x="28.4" y="226.8" class="st2" width="0.6" height="0.6"/>
	<rect x="28.4" y="255.2" class="st2" width="0.6" height="0.6"/>
	<rect x="28.4" y="255.2" class="st2" width="0.6" height="0.6"/>
	<rect x="28.4" y="0" class="st2" width="0.6" height="0.6"/>
	<rect x="28.4" y="0" class="st2" width="0.6" height="0.6"/>
	<rect x="28.4" y="56.7" class="st2" width="0.6" height="0.6"/>
	<rect x="28.4" y="56.7" class="st2" width="0.6" height="0.6"/>
	<rect x="0.1" y="113.4" class="st2" width="0.6" height="0.6"/>
	<rect x="0.1" y="113.4" class="st2" width="0.6" height="0.6"/>
	<rect x="0.1" y="85.1" class="st2" width="0.6" height="0.6"/>
	<rect x="0.1" y="85.1" class="st2" width="0.6" height="0.6"/>
	<rect x="0.1" y="56.7" class="st2" width="0.6" height="0.6"/>
	<rect x="0.1" y="56.7" class="st2" width="0.6" height="0.6"/>
	<rect x="0.1" y="28.4" class="st2" width="0.6" height="0.6"/>
	<rect x="0.1" y="28.4" class="st2" width="0.6" height="0.6"/>
	<rect x="0.1" y="0" class="st2" width="0.6" height="0.6"/>
	<rect x="0.1" y="0" class="st2" width="0.6" height="0.6"/>
	<rect x="0.1" y="255.2" class="st2" width="0.6" height="0.6"/>
	<rect x="0.1" y="255.2" class="st2" width="0.6" height="0.6"/>
	<rect x="0.1" y="226.8" class="st2" width="0.6" height="0.6"/>
	<rect x="0.1" y="226.8" class="st2" width="0.6" height="0.6"/>
	<rect x="0.1" y="198.5" class="st2" width="0.6" height="0.6"/>
	<rect x="0.1" y="198.5" class="st2" width="0.6" height="0.6"/>
	<rect x="0.1" y="170.1" class="st2" width="0.6" height="0.6"/>
	<rect x="0.1" y="170.1" class="st2" width="0.6" height="0.6"/>
	<rect x="0.1" y="141.8" class="st2" width="0.6" height="0.6"/>
	<rect x="0.1" y="141.8" class="st2" width="0.6" height="0.6"/>
	<rect x="0.1" y="283.5" class="st2" width="0.6" height="0.6"/>
	<rect x="0.1" y="283.5" class="st2" width="0.6" height="0.6"/>
	<rect x="0.1" y="311.9" class="st2" width="0.6" height="0.6"/>
	<rect x="0.1" y="311.9" class="st2" width="0.6" height="0.6"/>
	<rect x="0.1" y="340.2" class="st2" width="0.6" height="0.6"/>
	<rect x="0.1" y="340.2" class="st2" width="0.6" height="0.6"/>
	<rect x="0.1" y="368.5" class="st2" width="0.6" height="0.6"/>
	<rect x="0.1" y="368.5" class="st2" width="0.6" height="0.6"/>
	<rect x="0.1" y="396.9" class="st2" width="0.6" height="0.6"/>
	<rect x="0.1" y="396.9" class="st2" width="0.6" height="0.6"/>
</g>
<g id="PLAN::IPN">
</g>
<g id="PLAN::STRUCTURE_2.3">
	<rect x="113.8" y="118" class="st4" width="170.1" height="19.8"/>
	<rect x="14.6" y="160.4" class="st4" width="19.8" height="170.1"/>
	<rect x="89.7" y="312.1" class="st4" width="19.8" height="85"/>
	<rect x="259.8" y="0.3" class="st4" width="19.8" height="85"/>
	<polyline class="st4" points="137.9,0.3 137.9,28.7 118,28.7 118,0.3 	"/>
	<rect x="344.8" y="85.4" class="st4" width="19.8" height="170.1"/>
</g>
<g id="PLAN::POINTILLE">
</g>
<g id="PLAN::POINTILLE_PROGRAMME">
</g>
<g id="PLAN::TRAME_2">
</g>
<g id="PLAN::DETAIL">
</g>
<g id="PLAN::TOPO">
	<polygon class="st10" points="202.9,36.5 203,36.3 204.2,33.2 205.5,29.9 205.8,29.3 207.4,26.6 208.4,25.1 210,23.4 211,22.5 
		212.9,20.1 213.5,19.5 215.6,16.9 216.1,16.3 218.4,13.7 218.6,13.4 221.1,13 221.3,13.8 221.2,17.2 220.7,18.4 219.7,20.5 
		218.3,23.8 218,24.3 216.2,27.1 215.4,28.8 214.3,30.4 212.8,32.4 211,33.6 210.3,34.3 207.8,36.8 207.7,36.9 205.3,38.2 
		202.9,37.4 	"/>
	<polyline class="st10" points="28.5,0.3 29.3,2.7 27.6,4.4 26.8,6.6 26.9,9.3 27,9.6 29.9,11.3 30.8,11.1 33.8,10.8 35.1,10.6 
		37.5,10.6 41,11.1 43.1,14.4 46.2,15.6 48.9,14.7 50.6,14 53.3,16 53.8,17 55.5,19.1 58.2,21 61.6,21.6 64.3,23.6 66.5,25.7 
		66.8,26.1 66.9,28.5 65.3,29.3 64,29.7 61.3,29.9 58.2,29.5 57.9,29.5 54.5,28.7 51.5,28.9 50.8,29 48,29.8 46.5,30.3 44.6,30.7 
		42.3,31.3 40.8,31.5 38,32.6 37.8,32.7 35.9,34.4 36,36.7 36.1,37.1 36.7,39.9 36.6,42.5 34.6,44.1 32.4,45.7 31.6,45.9 28.6,44.5 
		25.5,43.3 23,43.8 22.6,46.1 21.1,48.1 19.1,49.1 18.4,49.3 18.7,49.9 19.2,52.3 20,54.8 22.9,56.5 23,56.7 23.2,59.4 23.1,62 
		22.2,64.1 21.7,66.5 21.7,66.6 22.2,69.3 23,71.5 25.9,73.1 29,74.2 30.3,75.8 31.3,77 34,79.2 36.7,81.1 39.6,82.8 42.6,84.2 
		43.7,84.9 45.5,85.9 48.3,87.6 50.8,89.9 53.6,91.9 56.9,92.7 59.6,94.7 61,95.7 62.3,96.6 64.7,99.4 65.1,100.3 66,103.3 
		66.1,104 66.9,106.3 66.9,108.9 66.8,110.2 66.8,111.5 65.3,113.3 65.3,113.3 62.5,114.6 63,117.4 63.1,117.9 64,120.5 64.8,122 
		65.8,124 66.9,125.2 70,126.5 73.1,127.7 74.3,128 76.4,128.5 80,128.6 80.7,128.5 83.9,128 86.2,128.5 87.2,128.8 90.2,130.2 
		90.4,130.6 92.4,133.3 95.1,135.3 98.4,136.1 100.6,138.1 99.3,140 96.5,140 93.7,139.9 92.8,140.1 90.8,141.1 88.7,142.7 
		87.4,143.7 86.6,144.3 84,145.6 82.9,145.6 79.7,144.6 77.7,145.2 75.4,146.7 74.8,147 71.2,147 69.1,146.3 67.9,146.1 66.5,147.6 
		66.4,149.3 66.4,150.2 66,152.6 64.1,154.2 63.8,154.1 60.8,153.3 57.7,152.1 54.9,150.3 53.7,149.3 52.3,148.1 49.9,145.5 
		48.7,144.3 47.5,142.8 45.1,140.3 44.9,139.9 43.9,136.8 43.5,135.9 42.7,133.6 41.9,131.5 41,130.2 39.7,128.5 38.4,129 
		36.2,130.5 35.1,132.6 34.7,135 34.4,137.4 33.8,139.8 33.2,142 31.3,143.8 28.4,145 28.1,145.1 25.1,143.7 24.2,142.9 22.5,141.5 
		20.2,138.6 20.1,138.4 18.1,135.4 17.2,134.4 15.8,132.4 14.3,133 11.5,133.9 11,134 7.4,134.7 4.6,132.8 2.2,130.3 1.8,129.6 
		1.3,126.8 1.7,124.4 2.8,122.3 3.4,120 3.5,119.8 4.2,117.8 4.9,115.5 5.6,113.3 6.4,111.1 7,108.7 6.1,106.8 4.7,107.7 2.9,109.4 
		1.3,111.2 0.4,111.8 	"/>
	<polyline class="st10" points="207.8,276.2 207.8,276.2 208,276.1 	"/>
	<polygon class="st10" points="119.9,327.2 117.1,326.7 117,326.7 116.9,326.6 115.7,324.7 116,321.2 116.1,320.9 117.1,317.5 
		117.3,316.2 118,313.8 119,311 119.2,310.5 121.1,307.7 121.6,304.9 121.7,303.7 123.1,300.4 123.5,299.6 124.7,297.4 126.6,294.6 
		128.4,291.7 130.1,289.4 130.3,289 132.3,286.3 134.1,283.4 136.1,280.7 138.2,278.1 139,276.7 139.8,275.2 141.2,271.9 
		143.1,269.2 144.1,268 145.2,266.5 147.3,263.9 149.6,261.6 151.5,258.9 153.5,256.2 155.5,253.5 157.7,251 159.7,248.4 162.1,246 
		164.9,244.2 167.5,242.1 170,239.9 172.5,237.7 174.9,235.4 175.6,235.2 178.8,235.2 179.9,235.6 181.2,236.2 182.4,238 
		182.5,238.2 181.8,242.1 181.8,242.3 181.8,245.7 181.9,246.7 181.5,249.4 181.5,250.9 181.6,252.7 182.4,255.3 182.7,256.7 
		183,258 183.1,261.3 183.1,261.7 181.2,264.4 180.7,267.2 183.1,266.2 185.6,265.5 186.7,265.1 188.8,262.6 189.2,261.7 
		190.3,259.4 192.4,256.8 194.7,254.5 197,253.6 198.2,253.2 201.5,252.3 202,252.2 205,252 207.4,252.9 208.8,254.9 209.9,255.3 
		211.8,255.1 214.6,255.6 215.4,258.2 216.8,260.2 218.3,262 220.8,262.8 222.7,263 224,262.9 227,263.1 227.8,263.3 230.2,261 
		231.4,258.5 231.7,257.9 233.5,255 233.8,252.6 234,250.9 234.9,248 234.9,247.1 234,245.6 232.5,243.8 232.6,240.4 232.8,240.1 
		234.3,237.4 236.9,235.3 239.2,232.9 239.8,232.7 243.1,232.1 243.8,232 246.3,232.8 248.9,233.1 249.5,232.8 252.6,233 
		253.8,233.2 256.3,232.5 257.6,232.2 258.5,230.2 255.6,229.9 254.9,229.6 253,229.2 249.9,229 249.4,229 246.9,228.7 244.4,228 
		243.3,227.7 241.9,227.2 239.3,226.6 237.4,226.6 235.9,226.7 233.3,225.9 231.5,224.4 229.3,223.4 229.3,223.4 226.2,223.2 
		224.2,223.1 222.5,223.6 220.8,224.5 217.6,225.4 217.1,225.5 214.4,225.4 212.4,225.6 210.7,225.8 208,225.2 206.3,223.6 
		205.2,221.3 205.7,219.2 208,216.7 210.5,214.5 213.1,212.4 215.6,210.3 217.8,207.8 220.2,205.5 222,202.6 223.8,199.8 
		225.5,196.9 225.8,196.5 227.3,194 229.4,191.4 231.3,188.7 232.2,186.5 232.7,185.4 235.1,183.1 235.6,182.9 238.4,181.7 
		241.3,179.9 242,179.6 245.4,179.2 245.6,179.3 249.5,178.6 250.8,175.2 253.7,173.5 254.5,173.4 257.6,172.6 258.6,172.5 
		261.5,172.8 263.1,173.3 264.1,173.5 267.5,173 269.4,170.2 271.5,167.6 274.4,165.8 275.3,165.3 277.3,164 280.6,162.6 
		281.3,162.4 284.4,162.5 285.7,162.9 286.8,163.4 289.1,164.5 291.3,165.6 292.3,167.9 294.8,168.7 295.9,168.1 297.9,165.5 
		297.9,165.5 297.9,165.4 300.8,163.6 301.6,161.6 300.2,159.7 298.7,157.8 298.1,156.5 297.8,155.4 297.5,152.3 297.6,151.4 
		300.2,149.3 300.4,149.3 304.2,148.5 305.6,145.3 308.3,144.4 309.1,144.1 311.8,142.1 312.1,140.5 312.5,138.2 315.6,136.6 
		316,136.4 319.3,135.5 320.5,135.1 322.9,134.4 324.7,134.1 327.3,134 328.1,134 331.2,134.1 332.3,134.2 334.1,134.5 336.6,135.3 
		337.9,137.3 337.8,139.5 337.1,141.6 336.4,142.8 334.5,145.5 332.5,148.2 331.5,150.7 331.3,151.6 330.3,155.3 330.3,155.4 
		329.9,159.3 329.9,159.4 330.3,162.2 330.3,164.4 330.1,165.8 329.9,168.6 330,169.3 330.4,172.2 330.5,173.8 329.6,176.5 
		329.3,177.3 327.8,180.3 326.1,183.3 325.5,184.2 324.1,186 322.3,188.8 320.9,192.1 320.5,192.7 320.5,196.1 320.5,196.3 
		318.5,198.9 318.9,201.2 320.5,202.9 320.2,205.2 319.2,207.7 318.9,208.5 316.7,211 314.1,213.1 313.8,213.3 311.3,215 
		308.7,217.1 306.2,219.3 303.5,221.2 301.9,222.4 300.8,223.2 298.2,225.3 296,227.8 294.7,229.8 294.3,230.8 292.3,233.4 
		290.5,234.2 289.1,235 286.6,237.1 285.4,239.5 285.1,240.3 283.8,243.6 281.7,246.2 279.1,248.3 275.8,249.5 275.7,249.6 
		272.9,251.5 269.8,253.1 267.6,254.7 267.1,255.1 267,255.3 265.8,258.5 264.1,261.4 263.7,262.2 262.9,264.8 261.3,267.9 
		260.2,269.2 259.3,270.6 257,272.9 255.3,274.3 254.5,275.1 254,275.6 252.6,277.8 250.4,280.4 249.6,280.3 247.1,279.4 245,279.8 
		242.9,280.4 241.6,281.1 238.5,282.7 237.4,282.8 236.6,280.9 236.5,280.4 236.3,277.1 235.4,275.1 235.2,274.9 233.6,273.4 
		233.5,273.3 230.1,274.7 227.5,276.7 225.9,279.8 225.6,281.5 225.2,283.7 224.8,285.8 224.2,287.4 221.5,289.3 220.9,293.2 
		220.9,293.3 221.4,296.1 221.2,298.2 219.5,301.2 219.5,301.5 218.8,305.1 218.6,305.7 218.3,309.2 217.6,310.2 216.4,312 
		216.6,314.7 216.4,316.6 216.2,318.5 215.7,320.5 213.6,323 212.3,325.9 212.2,326.3 211.6,326.7 209.2,327.9 207.2,327.8 
		205.3,326.4 202.7,325.7 202,325.6 202.1,326.3 203.1,328.7 204.9,330.3 206.4,332.1 206.6,334.7 206.5,335.4 205.5,338.2 
		203,340.4 200.3,342.4 199.2,343 197.1,343.9 194.8,344.2 194,341.6 193.6,340.5 192.9,339.3 192.3,339.3 189.4,339.7 188.1,339.8 
		186.1,339.7 183.2,339.7 181,342.2 180.1,342.6 177.3,343.3 176,343.5 173.9,342.3 173,339.8 172.5,338.6 171.9,337.4 170.6,336.8 
		167.8,338.7 165.9,341.5 163.9,344.2 161.7,346.7 158.8,347.7 158.3,347.9 156.5,350.2 156.2,350.5 155,351.7 154.1,349.3 
		151.7,348.3 148.9,348.1 148.7,348.1 145.3,349.2 144.1,349.5 141.2,349.1 141.9,346 142.5,344.4 143.2,342.6 144,339.4 
		144.1,338.9 143.7,336.3 141.9,334.8 140.2,333.2 139.5,330.4 139.6,330 140.2,326.4 139.9,325.7 140.1,323.1 138.9,320.9 
		136.2,320.3 134.4,320.4 131.4,322.2 130.2,323.2 128.9,324.3 126.3,326.4 123.8,326.5 122,326.9 	"/>
	<polyline class="st10" points="0.4,6.1 2,5.1 4.1,3.9 4.4,3.7 4.5,2.9 4.9,1.3 5.6,0.6 6,0.3 	"/>
	<polyline class="st10" points="233.2,0.3 232.5,2.3 231.3,5.6 231,7.1 230.7,8.9 230.8,10.8 230.9,12.2 230.6,13.2 230,15.4 
		229.6,18.7 229.9,22.1 230.1,22.5 230.6,25.4 229.9,28.7 229.7,29 228,31.9 227,34.9 227,35.1 225.3,38.3 224.4,40.1 223.6,41.6 
		221.8,44.4 221.5,44.7 219.4,46.8 217,47.3 216.6,47.8 216.5,51.1 216.4,54.4 215,57.6 213.9,59.8 213.4,60.8 212,64.1 211.3,65.8 
		210.5,67.3 209.2,70.5 208.6,73.8 208.5,74 206,75.9 205.3,76.9 203.8,80.1 203.4,80.9 202.1,83.4 200.8,85 199.8,86.5 198.3,88.8 
		197.6,89.7 195.8,91.8 194.8,92.9 193.3,94.6 191.2,96 190.9,96.2 188.5,97.3 186.1,97.9 183.8,97.8 181.8,95.4 181.6,95.2 
		179.4,92.1 179.4,92 178.2,88.6 177.4,86.4 176.5,85.2 175.3,83.9 172.9,84.7 172.4,84.9 170.5,85.6 168.2,85.3 167.5,84.6 
		168.4,82.4 168.7,81.4 170.1,78.2 171,76.5 171.7,74.9 173.6,71.7 173.7,71.7 175.1,68.5 176.3,67 177.1,65.3 178.8,63.6 
		180.3,62.2 181.3,60.6 182.2,59 183.9,56.5 184.7,55.8 185.8,52.6 186.5,51.3 187.7,49.4 189.1,46.4 189.2,46.2 189.3,42.9 
		189.3,42.9 188.9,39.5 189.3,36.2 189.7,35.5 191.3,33.1 192.3,31.9 194.2,29.9 194.8,29.5 197,26.8 197.3,26.3 199.7,23.6 
		199.8,23.5 202.2,20.4 202.3,20.3 204.7,17.9 205.4,17.3 207.2,15.9 209.3,14.2 209.6,13.9 212.1,11.1 212.2,11.1 214.6,8.4 
		215.1,7.9 217.1,5.2 217.4,4.8 219.7,1.8 219.8,1.6 221.8,0.3 	"/>
	<polyline class="st10" points="397.2,212 396.4,209 396.4,208.7 395.6,205.1 395.4,204 395,201.3 394.2,198.9 394,197.9 
		393.1,194.4 392.7,193.3 392.3,190.8 392.1,188.9 391.6,187 391.3,184.2 391,183.3 389.5,180.2 388.4,177 388.4,176.9 388.1,172.9 
		388.1,172.9 387.7,168.9 387.7,168.8 386.9,165.2 385.1,162.4 385,161.9 385.1,158.3 385.2,158.1 385.3,154.9 385.2,153.9 
		384.8,150.5 384.7,150 384.6,146.6 384.6,145.8 385,143.4 385.3,141 385.4,140.2 386,137.2 386.6,135.6 386.9,134.6 387.2,131.4 
		387.4,130.7 387.9,128.5 388.6,125.8 388.7,125.3 389,122.6 389.7,120.2 389.8,119.8 389.4,116.2 389.4,115.7 389.9,112.6 
		390.2,111.3 390.5,109.7 390.7,106.6 390.8,106.3 391.5,103.5 392.5,101 392.5,100.9 393.6,98.7 395.3,97.1 397.2,95.8 397.2,95.8 
			"/>
	<polyline class="st10" points="397,397.2 397,397.1 397.2,396.9 	"/>
	<polyline class="st10" points="397.2,313.1 396.3,313.9 396.1,315.5 396.3,317.9 396.2,320.3 395.2,322.9 395,323.3 393.7,325.7 
		392.5,327.5 391.6,328.6 389.8,330.7 389.3,331.5 387.6,334.2 387.3,334.6 386,337 384.8,338.5 383.8,339.9 382.2,341.9 
		381.4,342.9 379.3,344.5 376.2,345.7 372.6,344.8 372.6,344.8 369.3,343.2 368.8,342.7 367,341.3 364.8,339.9 361.9,342.2 
		361.5,342.5 359.1,344.8 356.3,346.1 356,346.2 355.6,346.2 352.6,346.4 351.9,347.1 349.9,349.3 348.3,350.3 346.9,351.2 
		344.9,353.4 344.2,354.2 342.7,356.3 341.7,358 341,359.1 339,361 335.6,361 333.4,360.8 332.1,360.7 328.7,360.4 326.3,360 
		325,359.2 323.1,358.3 321.3,358 318.1,358.8 314.7,357.8 314.5,357.7 311.8,356 310.5,355.1 307.3,355.7 304.9,355.2 303.6,354.7 
		300.2,354.3 299.3,354 296.4,352.8 293.3,353.9 290,354.4 287.5,354.2 286.6,354.2 283,353.6 281.6,353.2 279.8,351.1 279.3,348.9 
		278.5,346.6 278,346.2 275,345 274.3,344.7 271.3,343.4 270.4,342.5 269.7,341.4 269,339.1 266.7,337.2 265.8,336.9 262.6,337.9 
		259.4,338.7 258.3,336.7 258.8,336.2 261.6,333.6 261.7,333.5 264.5,331.2 265.6,330.2 267.3,328.7 268.9,327.1 270,325.7 
		271.4,324.1 272.6,322.2 273.1,321.3 274.9,318.5 275.1,318.1 278.2,316.8 281.5,316.5 284.5,314.6 286.9,313.5 287.5,313 
		290.6,311.4 293.6,309.9 296.8,309.1 296.9,308.8 296.7,306.4 296.8,304 298.5,301.4 300.2,300.8 301.7,300.4 302.1,300.4 
		305.3,302.1 305.7,304.4 306.1,305 307.4,306.5 309.9,308.3 310.3,308.6 312.8,310.1 314.2,311 317.3,309.8 317.6,309 319.2,306.2 
		318.1,304.1 317.2,301.9 317.4,299.4 317.3,297 317.6,295.9 320.7,294.6 324.2,294.8 327.5,294.3 328.9,292 329.8,289.5 
		329.8,289.4 330.5,286.9 332.3,285.5 335.5,284.8 338.9,284.9 339.7,284.8 342.3,284.9 343.5,284 345.3,283 348.4,282 351.7,281.3 
		355,281 358.2,280 361.4,279.4 364.8,279.2 365.1,279.2 368.2,279.3 371.7,279.7 375,279.3 375.4,279.3 378.4,279.6 380.2,280.6 
		381.4,282.7 382.1,285 380.2,287.5 379.9,287.9 378.5,290.6 377.9,292.7 377.9,293.1 378.4,295.4 378.8,296.5 379.2,297.6 
		380.3,299.8 379.7,300.7 376.7,302.2 375.5,303.3 377,305.4 377.5,306.1 378.7,307.4 381.3,309.2 381.7,309.4 384.2,311 
		385.6,311.6 388.9,311.2 392.2,311.2 393.8,308.8 394.7,306.8 395.6,306 397.2,305.3 	"/>
	<polyline class="st10" points="388.7,397.2 388.8,396.5 390.1,393.8 390.3,393.4 391.5,391.1 391.2,388.8 392.2,386.9 392.5,386.1 
		391.7,384.5 391.3,383.9 390,381.8 389,379.6 388.5,377.3 388.6,374.9 388.4,372.6 386.6,370.5 386,368.3 386.1,365.8 386.1,363.4 
		385.9,361.1 386.2,359.7 386.5,358.6 387.8,355.9 388.4,354.8 389.4,353.1 390.6,350.4 390.2,348.1 390.2,347.5 390.2,345.7 
		390.2,343.3 390.8,340.7 391.6,338.5 391.8,338.1 392.9,335.5 394,334.1 396.8,332.2 396.9,332.1 397.2,332.1 	"/>
	<polyline class="st10" points="297.9,397.2 299.4,396.5 301.4,394.5 302,393 302.3,391.9 303.1,389.3 303.6,386.7 303.7,385.3 
		303.7,384.3 303.5,382 303.6,379.5 305.6,378.4 307,378.8 309.1,379.1 312.6,379.6 313.3,379.8 316.2,380.6 318,381.1 319.8,381.5 
		322.8,382.5 323.5,382.9 327,383.2 330.3,382.9 331.1,383 334,384 334.4,384.7 335.5,386.8 335.8,389.2 335.4,390.7 335.3,391.7 
		335.4,394.1 335.6,396.4 336.2,397.2 	"/>
	<polyline class="st10" points="337.4,397.2 337.6,396 339.5,393.5 339.8,393.1 341.5,390.3 341.9,389.4 342.7,387.6 343.5,385 
		344,383.3 345.2,382.2 346.7,380.6 348.9,379 349.7,378.5 350.4,378.7 353.2,379.1 354.7,377.7 355.8,375.5 355.8,375 356.7,372.4 
		358.1,370.8 359.5,369.4 360.9,368.1 363.7,366.1 363.8,366 364.2,366 367.2,365.9 368.7,367.4 369.5,369.6 370.2,371.8 
		370.8,374.1 371.6,376.3 372.7,378.5 373.6,379.5 374.6,380.5 377.3,382.3 377.7,382.6 379,384.3 379.5,386.6 380.7,388.7 
		380.9,391.1 380,393 379.5,393.8 379.2,396.3 379.4,397.2 	"/>
	<polyline class="st10" points="238.7,397.2 238.7,396.5 238.1,395.2 237.7,394.3 237.7,393.6 238.2,391.8 240.2,389.3 240.6,388.8 
		242.9,386.5 243.6,385.7 245.7,383.7 248.9,383 250.2,381.9 250.3,379.4 250.4,377 250.7,375.7 252.9,374 253.6,373.7 254.3,373.7 
		257.1,373.8 259.3,372.6 260.1,372.2 261.6,372.1 263.4,372 266.3,373.4 267.2,373.8 270.8,374.7 271.8,374.6 274.1,374.4 
		277.7,375.3 278.5,375.5 281.4,376.5 284.6,375.7 288,375.6 288.2,375.8 288.9,378 290.2,380.1 291.4,382.3 292.9,384.3 
		293.7,385.9 294,386.5 294.7,388.7 294.7,390.3 294.7,391.2 293.7,393.8 292.8,396.4 294.8,397.2 	"/>
	<polyline class="st10" points="0.4,345 0.4,345.1 1.4,345.8 4.7,345.8 6.4,346.4 7.7,348.5 8.9,350.1 9.2,350.6 9.1,351.4 
		8.9,353.1 8.8,355.5 9.9,357.7 10.3,358.1 13.8,358.8 16.3,358.9 17.2,358.9 17.4,358.7 20.1,356.6 22.4,355.4 23.2,355.1 
		26.5,354.5 29.3,354.2 29.8,354.2 29.8,354.1 30.7,351.5 31.2,349.1 31.9,347 32.1,346.5 34.8,344.4 37.9,343.2 41.2,342.8 
		44.5,342.3 47.7,341.7 51,341.3 53.8,340.2 54.1,340.1 54.5,340.1 57.6,340.4 59.8,339.2 60.6,338.8 63.7,337.4 65.4,335.8 
		66.5,334.1 69.9,334.3 70.5,334.9 72.4,336.9 74.1,339 74.1,339 76.6,340.9 78.1,342.2 78.9,342.9 78.3,343.7 75.2,345.1 72,345.8 
		70.6,346.8 69,348.1 65.9,349.3 64.6,350.2 62.9,351.4 60.9,353.3 60.2,355.3 60.2,355.8 60.4,356 62.7,357.7 64.2,358.6 
		66.1,359.5 68,361.1 68.3,361.5 69.9,363.6 72,364.5 73.5,365.3 72.5,367.5 69.2,367.9 67.5,368.8 66.2,369.5 64.7,371.7 
		64.4,374.1 65,376.4 64.7,378.8 64.6,379.3 62.9,381.5 62,384 58.7,384.3 55.4,384.2 52,384.3 49,384 48.6,384 47.1,384.4 
		45.4,385 44.3,387.3 44.4,389.6 45.7,391.8 46.8,392.5 48.3,393.7 50.6,395 51.4,395.5 54.2,397.2 	"/>
	<polyline class="st10" points="397.2,60.6 396.1,61.9 394.4,63.5 392.3,64.7 390.2,65.7 388.2,67 386.2,68.2 384.1,69.4 
		383.7,69.6 381.5,69.8 379.5,71.1 378.1,73 377.8,74.4 377,75.4 375.6,77.4 373.9,79 372.6,78.6 372.9,77.6 372.5,74.4 372.7,73.8 
		372.9,70.4 373.2,69.6 374.2,68.2 375.3,65.9 374.6,64.2 374.2,60.9 374,60.4 372.4,57.5 371.1,54.3 371,53.3 370.3,50.7 
		370.3,48.7 370,46.6 370.1,44.9 370.4,42 370.5,41.7 370.8,38.4 370.6,37.6 370.9,34.8 371.6,32.5 371.7,32.1 372.7,29.6 
		373.7,27.2 373.9,26.3 374.2,24.1 375,21.4 375,21.2 375.4,18.3 376.1,16 376.2,15.5 376.5,12.2 376.8,11.2 376.7,8.8 377.4,6.4 
		377.5,6.1 378,3 378.4,1.4 378.6,0.2 378.6,0 	"/>
	<polygon class="st10" points="121.7,321.7 121.8,319.1 122.2,317.5 123.3,315.5 124.9,312 125.1,310.7 125,307 125.1,307 
		126.5,303.4 129.1,300.8 130.9,297.5 133.3,294.7 133.6,294.3 135.5,291.7 138.1,289.1 140,285.9 142.1,282.9 142.9,280.9 
		143.6,279.2 145.2,275.6 147.1,272.8 147.2,272.6 149.6,269.8 151.6,266.6 154.1,263.9 156.4,261 158.4,257.9 160.6,255 
		163.4,252.6 164.1,251.3 165.2,249.3 168,246.8 169.2,246 171.2,244.8 174.4,242.8 176.6,242 177.3,245.1 177.2,245.5 176.3,249.8 
		176.3,249.8 175.9,254 175.9,254.4 174.3,258 172.2,261 170.7,263.2 170.1,264.1 168.6,267.7 167.5,270.3 167.1,271.3 166.8,274.7 
		166.9,276.2 166.1,279.3 165.9,280.3 166.2,282.9 167.6,285.2 171,285.3 171.2,285.3 175.3,284.3 175.9,284.1 178.8,282.6 
		181.2,279.8 184.2,277.6 187.3,275.5 187.8,275.4 191.2,275.6 192.7,275.7 195.6,274.9 196.9,274.6 200.1,272.6 201.7,272.2 
		204.7,271.9 207.6,269.6 209.8,266.7 212.5,264.8 214.4,266.4 214.9,266.5 217.5,267 219.3,268.9 221.3,270.5 222.3,273.3 
		222.3,273.6 222.8,276.5 223.7,279.3 223.8,280.1 221.3,282.8 220,283.2 217.4,284.1 214.1,286 213.1,290.1 213.1,290.3 
		214.4,292.8 214.1,296.1 213.9,297 213.7,300.8 210.6,302.9 207.7,305.2 204.5,307.2 204,307.3 200.4,307.3 199.1,307.1 
		195.9,309.1 193.1,311.5 190.9,314.4 188.1,316.8 187.5,317 184.9,318.8 181,320 180.9,320.1 177,320.4 175.8,320.2 173.6,320.2 
		170.3,320 170.2,320 170.2,320 171.1,322.9 171.5,326.2 171.5,326.2 171.5,326.3 167.9,327.9 165,329.2 164.2,329.5 161.7,332.1 
		158.8,334.4 156.5,334.3 153.2,334 152.9,333.8 150.9,332.7 150.8,331.8 150.6,329.2 150.3,326.3 151.2,324.8 152.3,323.1 
		153.1,319.1 152.9,318.6 151.9,316.6 150.1,314.7 148.4,314.3 146.8,314.4 144.1,315.2 142.2,315.4 139.2,315.6 138.4,315.6 
		134.6,315.8 134.2,315.9 130,316.9 129.8,317 126.6,318.7 123.6,320.9 	"/>
	<polygon class="st10" points="213.5,275 215.9,276.1 216,277.7 213,279.9 210.3,282.4 207.8,285.1 206.4,288.8 206.1,290.2 
		205.6,293.1 202.6,295.3 199.5,297 199.3,297.2 196.1,299.2 193,301.2 190.3,303.7 187.6,306.2 185.1,308.9 182.4,311.4 180.6,313 
		179.6,313.7 175.5,314.9 175.1,314.9 172.8,313.5 170.9,311.8 168.6,310.5 165.9,309.5 164,307.8 162.3,307.3 159.7,309.9 
		157.1,312.5 156.2,312.1 154.3,310.4 151.5,309.4 149,309.8 147.3,310.1 144.9,310.9 142.3,311.5 140.6,311.9 138.3,312 
		135.6,312.1 134.4,312.3 131,312.7 130,313.1 130,311.8 130.2,309.2 130.2,306.9 130.6,304.9 131.7,303.3 133.7,300.2 136,297.3 
		138.2,294.3 140.6,291.6 142.8,288.6 142.9,288.4 144.9,285.5 146.4,281.9 146.9,280.5 147.8,278.1 149.8,275 152,272 153.3,270.1 
		154.1,269 156.5,266.2 158.6,263.2 160.9,260.3 163.8,258 166,256.8 168,257 169.2,257.2 169,257.9 167.6,261.7 166.8,263.5 
		165.9,265.1 164.4,268.7 163.9,270.3 163.3,272.7 163,275 162.7,277.2 161.9,279.9 161.5,281.2 161.6,284 161.9,286.6 161.8,287.5 
		162.5,290.5 164.8,291.9 166.8,293.6 169.6,294.4 170.1,294.5 173.4,292.6 176,291.5 177,291 180.2,289 183.5,287.4 183.7,287.3 
		187.6,285.9 189.2,285.2 191,284.1 193.5,281.4 196.8,281 199,280.1 201.1,278.3 203.8,277.5 211.7,276 	"/>
	<polyline class="st10" points="0.4,11.8 2.4,10.5 4.8,9.1 6.2,7.1 6.2,7.1 8.7,5.7 10.7,4.1 11.6,3.5 13.2,2.7 15.4,1.1 16.5,0.9 
		19.4,0.5 20.4,0.5 23.4,1.9 23.4,2.4 23,2.8 20.2,3.5 18.4,5.2 18.3,7.7 17.5,10 15.6,11.7 14.2,13.3 14.1,13.5 14.1,13.7 
		16.2,16.8 19.6,17.4 21.6,17.1 23.6,16.8 27,17.4 27.2,17.2 29.8,15.9 31.6,15.3 32.7,14.7 36,13.9 37.1,14.2 39.3,14.5 39.6,15.4 
		40.8,18.5 41,18.8 42,19.1 44.3,19.6 45.3,20 49.3,20.4 51.2,21 53.2,22.6 54.6,24.5 51.3,25.2 48.6,26.6 44.9,26.7 40.7,27.4 
		36.6,29.5 35.3,30.5 34.6,31.2 32.6,32.8 30.6,34.4 31.4,37.4 31.9,37.8 32.2,40.4 30.5,40.5 27.7,38.7 24.2,38.4 23.2,38.7 
		20.3,39 18.3,38.9 16.5,39.2 14.2,39.5 12.4,40 10.2,40.2 8.7,42.1 7.1,43.9 5.9,45.9 5.9,45.9 4.1,47.7 4.2,49.5 5.1,50.7 
		6.6,52.2 7.8,54.7 8.6,55.6 10.3,55.8 12,56.2 12.7,57 14.6,58.5 17.6,59.8 19,62.6 19,64.5 19,65.2 18.5,67.5 18.6,70.2 
		18.9,72.4 19.3,73.1 21,75.7 23.9,77.3 24.6,78.3 26.1,80.4 28.8,82.3 31.8,83.8 34.7,85.5 37.8,86.6 40.6,88.3 43.7,89.5 46.6,91 
		47.6,91.9 49.2,93.4 52.1,95 55.4,95.7 58.3,97.4 60.9,99.5 62.2,101.5 62.9,103 63.4,104.6 63.8,107.4 63.4,109.7 63.4,109.8 
		63.3,109.8 61.2,111.4 58.4,112.5 58.2,112.5 57,114.6 56.8,115.8 56.8,117.1 57.9,120.2 58.1,120.7 60.5,123.4 61.5,124.5 
		62.9,125.9 65.6,128.1 70.8,130.7 74.3,131.6 78.7,131.4 82.5,132.8 88.4,134.4 89.7,136.7 89,137.7 86.7,139.2 85.5,140.1 
		82.2,139.4 80.8,138.9 79,138.4 76.3,139.4 74.2,140.9 74,141 70.2,141.4 67.5,139.4 66.3,139.7 64.9,141.7 63.6,143.7 62.5,145.7 
		60.2,146.9 57.6,144.8 55.1,142.3 55.1,142.1 53.8,139 53.7,137.6 52.2,135.6 51.4,134.7 48.5,133 47.3,130.7 46.9,128.9 
		46.3,127.6 44.8,125.5 43.2,123.5 42.5,122.7 39.9,120.4 37.6,120.8 35.4,122.2 35.2,122.3 35.2,122.6 34.8,124.7 34.5,127.1 
		33.2,129.1 32.2,131.2 31.8,133.6 31.6,136.1 31.4,138.1 31.4,138.6 31,139 28.7,139.9 26.9,139.9 25.5,138.3 24.6,137.1 
		23.5,134.8 22.7,133.4 21.5,131.3 20.8,129.6 19.7,127.8 18.8,126.2 15.4,125.6 15.3,125.7 13.7,127.5 12,129.3 9.5,130.3 
		6.8,128.3 6.1,126.5 6.4,124 6.9,121.7 7.8,119.5 8.7,117.3 9.7,115.2 10.7,113.1 11.9,111.1 13.4,109.2 14.5,107.2 14.4,104.8 
		14.2,104.4 12.1,101.9 8.8,101.8 8.5,101.8 5.8,103 3.8,104 0.5,103.1 0.5,103.1 0.5,103.1 0.4,101.1 	"/>
	<polyline class="st10" points="0.4,23.6 1.8,22.9 2.9,22.2 3.3,23.6 4.1,25.6 5.7,24.8 7.8,23.8 7.8,23.8 7.9,23.9 9.9,25.4 
		11.1,25.4 13,24.7 13.4,24.5 16,24.3 17.3,24.4 18.7,24.5 20.9,25.9 23.5,26.2 24,25.6 23.9,25.4 23.7,23.5 24.3,21.8 25.6,20.5 
		26.4,20.1 28.8,20.9 29.9,22.5 30.5,23.3 32.8,24.4 34,24.5 35.8,24 37.5,24.2 38.4,24.4 38.6,24.7 38.2,24.8 36.2,25.5 34.6,26.4 
		34.3,26.6 31.5,27 31.1,27.1 28.7,27.1 27.2,27.2 25.4,28.2 24.7,27.9 24.2,29.7 21.6,30.4 21.4,30.6 20,31.7 18.2,32.8 17.2,33.4 
		14.7,32.8 12.4,31.8 11.7,31.7 9.7,31.5 7.9,31.8 6.7,31.9 5,32.4 3.2,33.4 3.1,33.5 1.8,34.8 1.3,36.6 0.4,37 	"/>
	<polyline class="st10" points="0.4,67.3 1.9,68.6 2.6,70.1 4.3,71.3 6.8,71.6 9,72.4 9.2,73.7 9.7,75.8 9.8,76.2 11.2,78.4 
		11.3,78.6 13.1,80.4 14.2,81.7 14.8,82.3 16.7,83.8 18.4,85.5 15.7,85.8 15.2,85.8 13,85.9 12.1,86.2 10.3,87.2 9.5,87.9 9,86.6 
		8.3,85 8.1,84.3 6.9,82.2 6.2,81.5 5.3,80.2 4.8,79 3.9,77.6 2.6,77.8 1.5,78.1 0.4,77.4 	"/>
	<polyline class="st10" points="0.4,59.5 2.2,61 3.2,62 3.3,62.1 5.5,64.2 8.1,65.4 10.9,64.9 11.5,64.9 14.2,66.1 15.2,67 
		16.2,68.6 16.1,69.7 16,71.9 15.9,74.2 16.1,75.4 16.5,76.7 17.7,78.8 19.3,80.3 19.9,80.9 22.3,82.6 24,84.8 24.3,85.2 26.4,87.3 
		28.8,89.2 31.4,90.3 34.4,90.8 37,92.1 39.4,93.7 42,95.1 44.7,96.2 47.4,97.3 50.3,97.8 52.9,99.1 55,101.3 55.5,102.2 
		56.2,104.8 55.9,106.2 55.8,106.9 55.4,107.2 53.6,108.1 51.5,109.4 50.6,110.6 50.2,111 50.1,111.6 49.8,113.1 50,115.5 
		50.8,116.9 51.5,118.4 52.4,120.2 54.7,122.2 54.8,122.3 56.7,124.7 57.9,127.1 56.7,128.1 56.7,129.5 56.1,130.5 53.6,130.1 
		53.6,128.5 52.9,125.9 52.9,125.9 50.6,124.1 48.5,121.6 48.5,121.5 47.6,118.8 47.1,117.9 44.5,116.7 42.1,114.9 41.2,113.5 
		40.2,112.2 37.9,110.3 35.5,110.8 34.2,111.3 32.6,111.7 30.3,112.9 29.4,114.7 29.6,117 29.7,119.4 30,120.1 30.5,122 29.6,123.8 
		28.5,125.6 27.2,127.2 26.5,127.5 26.1,126.7 24.6,124.6 24.2,123.5 24,121.2 24.1,119 24.1,118.9 22.5,115.9 22.5,115.7 
		20.4,114.9 19.8,114.7 17.8,115.9 15.9,117.3 14.8,118.3 13.4,116.1 13.7,114 13.7,114 13.7,113.9 14.8,112.2 16.1,110.6 17.5,109 
		19,107.4 19.6,105.4 19.1,102.9 19.1,102.7 18.5,100.4 17.9,98.4 17.4,97.6 16.1,95.6 14.9,96.4 12.4,97.4 11.9,97.5 9.7,98.4 
		7.9,99.3 6.7,97 6.2,96.1 5.9,94.4 5.6,91.9 5.4,91 5.1,89.4 4.2,86.8 4,86.6 3.2,86 0.4,86 	"/>
	<polygon class="st10" points="25.4,104.1 25.1,103 24.7,101.8 24.1,99.6 24.2,99.2 24.2,97.7 23.4,95.3 26,95.3 28.2,96.6 
		30.4,97.7 32.6,97.8 33.1,97.8 33.5,98.2 35,99.6 37.1,101 38.9,100.8 39.9,100.8 42.5,101.4 45,101.9 46.1,102.3 47.3,102.7 
		47.6,103 47,104.7 46.1,105.3 45.4,105.8 43.6,107 42.3,107.5 41.6,106 40.8,104.8 38.9,103 36.3,102.7 35.7,103.1 33.5,104.1 
		32.7,104.4 31.4,105 29.3,105.8 29.1,105.9 26.7,106.7 26,106.9 25.9,106.3 	"/>
	<polygon class="st10" points="316.6,150.2 318.3,148 318.4,147.8 321,147.1 321.1,147.1 322.3,148.7 322.3,148.9 322.1,152.4 
		321.9,153 320.6,155.8 319.4,156.5 318,156.8 317,156.7 315.9,154.9 316,154 316.2,151.1 	"/>
	<polygon class="st10" points="258.2,200.2 259.1,199.1 259.4,198.7 260,197.9 261,196.8 262.3,195.9 262.8,195.6 264,195.1 
		264.8,195.1 266.4,195.1 266.6,195 266.7,194.8 267.3,193.7 268.1,192.5 269.9,191.8 269.9,191.8 270.9,192.3 271.2,192.6 
		271.7,193 272.5,193.7 273.4,193.8 274,193.8 275.1,194.1 276.6,194.2 276.9,194.2 278.4,193.4 279.6,192.4 280.9,191.4 
		282.1,190.5 282.2,190.5 283.9,190.3 284.5,190.1 285.8,189.9 287,189.9 287.4,189.8 289.2,189.5 289.5,189.4 291.1,188.9 
		292.5,188 292.5,188 293.9,187.1 295.6,186.4 295.7,186.4 297.4,186.3 297,187.2 296,188.4 294.8,189.3 293.6,190.3 292.4,191.3 
		291.3,192.4 290.2,193.4 289.1,194.4 287.9,195.1 287.6,195.3 285.7,195.7 285.5,195.7 283.7,196.1 283.4,196.2 281.8,197 
		280.5,197.9 280.1,198 278.6,198.5 277.9,198.7 276.6,199 275.4,199.5 274.9,199.7 273.2,200.2 272.9,200.3 271.3,201 270.6,201.2 
		269.3,201.5 268.1,202.1 267.7,202.3 266.2,203.2 264.7,204 264.4,204.1 263,203.9 262.3,203.1 261.7,202.3 260.2,202.2 259,202.4 
		258.4,202.5 257.2,202.2 257.5,201.5 	"/>
	<polygon class="st10" points="237.4,211 235.1,211.6 235.2,208.8 235.2,208.6 236.6,206.3 237.9,203.7 238.9,202 239.3,201.3 
		240.9,199 242.8,196.9 244.6,194.7 246.3,192.5 248.4,190.7 250.8,189.1 251.5,188.8 254.3,188.7 254.4,188.7 256.7,187.1 
		258.3,184.9 260.5,183.1 263.4,182 263.5,182 265.8,182.5 266.7,184.3 267.9,186 271,185.6 272.2,187.2 273.8,188.3 273.9,188.3 
		276,186.4 277.9,184.4 277.9,184 277.2,182 276.7,179.7 276.6,179.3 277.2,179.1 279.7,178.5 280.7,178.4 283.4,178.3 283.9,180.7 
		285.3,182.1 287.4,182 288.1,182 291.1,181.6 291.2,181.6 294.4,181 294.6,180.9 296.7,179.3 298.6,177.4 300.6,175.3 303,173.8 
		305.2,172.7 305.7,172.5 308.2,172.4 309.8,172.7 310.7,172.6 313.6,172.4 313.6,172.4 315.6,173.3 316.2,175 316.2,175.4 
		315.2,177.8 313.3,179.8 311.5,182 309.6,184 307.2,185.6 305.8,188 304.3,190.5 302.1,192.2 299.6,193.7 297.5,194.9 297.1,195.2 
		295,196.9 292.5,198.4 290.6,199.3 289.8,199.6 286.7,200.6 286.6,200.6 283.7,201.5 282.7,201.8 280.8,202.5 278.3,203.6 
		278,203.7 274.8,204.5 274.6,204.6 272.1,205.8 270,206.6 269.1,206.8 266.2,207.8 266.1,207.8 263.2,208.8 262,209.2 260.3,209.8 
		257.6,211.1 257.2,211.4 255.2,212.6 252.4,213.8 252.1,213.8 249,214.2 248.5,214 247.1,213.4 247,212.5 246.7,210.9 245.7,209.1 
		243.3,208.8 243.2,208.8 240.1,209.7 238.9,210.5 	"/>
	<polyline class="st10" points="394.8,0 394.8,0.7 394.8,1.6 394.8,5 394.9,5.3 395.2,8.9 395.2,9.4 395.8,12.7 395.9,14 
		395.6,17.2 395.6,17.2 396,21.1 396,21.4 396.1,25.2 396.1,25.3 396.7,29.1 396.7,29.7 396.6,33.1 396.5,33.5 396.3,36.5 
		396.1,38.1 396,39.8 395.8,42.6 395.8,43.2 395.1,46 394.2,48.2 394.1,48.5 393.1,51 392.1,53.4 390.7,55.3 390.7,55.3 389,56.9 
		387.2,58.5 386,59.2 385.1,59.6 381.8,58.3 381.4,55 381.3,54.5 381.1,51 381.1,50.4 381,47.1 381,46.2 380.9,43.3 380.8,42.1 
		380.4,39.1 380.3,38.2 379.6,34.5 379.6,34.4 378.7,31 378.8,29.7 379.1,26.4 379.1,26.4 379.6,23.4 380.1,21.3 380.3,20.5 
		380.7,17.4 380.8,16.4 381.1,14.2 381.8,11.4 381.8,11.4 382,8 382,6.9 382.3,4.7 382.6,2.1 382.7,1.4 382.8,0 	"/>
	<polyline class="st10" points="0.4,379.8 0.7,379.7 4,378.8 5.2,377.6 6.2,375 6.5,374.6 7.2,374.9 7.5,377.2 7.1,377.6 4.7,380.1 
		4.4,381.4 3.7,382.7 1.6,384.6 0.4,383.8 	"/>
	<polyline class="st10" points="0.4,353.8 1.6,354.4 0.4,357 0.4,357 	"/>
	<polyline class="st10" points="22.9,397.2 21.8,396.1 20.4,395.4 17,395.4 13.8,396.2 10.6,397 9.9,397.2 	"/>
	<polyline class="st10" points="0.4,392.9 0.5,392.8 1.7,390.2 2.5,389.2 5.5,387.3 8.9,387.7 12,386.3 14.9,385.4 15.2,385.3 
		18.1,382.8 18.5,382.4 20.7,379.6 20.9,379.4 22.7,376.9 23.5,375.2 24,374.2 25.2,371.6 26,370.4 27.6,368.8 28.9,367.9 
		31.3,368.2 32.3,368.3 35.6,367.6 36.6,367.2 38.7,366.4 41.2,364 41.5,363.5 44.5,361.5 47.6,362.8 45.2,364.9 44.4,365.8 
		43.9,368.3 43.8,370.7 43,371.8 39.8,372.5 36.4,372.3 33.2,373.3 30,374 26.9,375.3 25.3,376.4 25.1,378.8 26.5,380.9 26.2,383.4 
		25.3,385.5 25.2,385.9 25.6,388.3 26,389.5 26.4,390.5 27.1,392.8 28.3,394.9 30,397 30.1,397.2 	"/>
	<polyline class="st10" points="0.4,365.1 1.5,365.1 3.7,363.6 4.5,363.2 6.2,363.1 7.8,363.1 9.6,364.9 11.9,366.9 11.9,366.9 
		15.4,367.9 18.7,367.6 19.9,365.4 21.4,363.6 22.1,362.6 24.1,359.9 24.1,359.9 27.5,360.1 29.8,361.2 31.2,361.9 34.4,361 
		35.1,360.3 37.2,357.8 37.4,357.5 39.5,354.7 39.9,354.4 43.1,353.6 44.3,351.5 45.3,348.9 45.6,348.6 48.7,347.3 52,347.1 
		54.8,347.2 53.6,349.8 52.8,351.4 52.7,352.4 52.3,354.8 51.7,357.3 52.5,359.6 54.5,360.9 55.4,361.4 58.1,362.3 59.6,363.1 
		61.6,365.1 59.7,367.8 59.2,368.4 56.2,370.1 53.1,371.4 53.5,373.7 54,376 54.5,378.3 54.5,379.7 51.3,380.3 49.4,379.2 
		47.4,377.5 45.5,377.5 44.1,377.6 43.6,377.9 41,379.2 38,380.9 36.9,381.5 34.9,382.6 32.3,384.7 33.6,386.8 36,388.6 36.1,388.8 
		36.5,391.1 37,393.4 38.5,395.5 40.6,395.6 44,395.8 45.6,396.6 46,397.2 	"/>
	<polyline class="st10" points="258.8,397.2 258.8,397 262,396.1 262,396.1 264.6,393.1 264.7,392.9 267.1,390.1 267.4,389.8 
		267.7,390 270.2,391.8 271.3,392.2 274.6,391.5 275.9,390.5 277.5,389.4 280.8,388.8 281.5,389.3 284.1,391.1 283.6,393.6 
		282.2,395.2 280.5,396.8 280.2,397.2 	"/>
	<polyline class="st10" points="247.5,397.2 247.6,396.9 248.2,394.9 248.6,394.3 250.3,391.5 250.7,391.1 253.8,389.7 256.9,388.4 
		258.2,387.3 259.3,384.6 259.4,384.4 261.9,381.6 262.2,381.5 265.3,380.3 268.6,380.1 268.6,380.1 272.3,381.5 275.5,380.5 
		276.6,380.8 279.1,381.4 282.5,381.3 283.7,381.6 285,383.7 286.4,385.8 287,386.2 288.8,387.7 289.7,389.9 289,392.4 288.5,393 
		286.7,395.4 285.9,396.6 285.4,397.2 	"/>
	<polyline class="st10" points="356.5,397.2 357.1,396.6 358,396.2 360.2,395.2 363.1,393.2 364.7,392.3 366.1,391.4 366.5,391.9 
		366.4,392.6 365.4,394.5 363.8,396.1 363.2,397.2 	"/>
	<polyline class="st10" points="342.9,397.2 343.4,396.1 346.6,395.2 349.3,393.4 349.5,392.8 350.8,390.6 352.2,389.6 354.3,389.8 
		355.6,389.8 356.3,389.4 358.5,387.5 359.1,386.3 360.8,383.6 360.9,383.3 361.8,380.9 362.3,378.4 362.8,376.6 365,377.8 
		365.9,380 367,382.2 367.6,382.9 368.7,384.2 370.3,386.2 371.9,387.1 373.8,387.9 374.5,390.1 373.3,392.8 373.2,392.9 
		371.3,395.6 371.5,397.2 	"/>
	<polyline class="st10" points="307.6,397.2 307.8,395.4 308,393 308.4,391.3 311.5,390 315.1,390.7 316,391.2 318,393.2 
		319.2,393.8 322.4,392.9 325.7,392.5 329,392.2 329.8,392.9 330.5,395.2 330.4,397.2 	"/>
	<polyline class="st10" points="393.4,397.2 394.2,395.8 394.8,395.2 397,392.8 397.2,392.4 	"/>
	<polyline class="st10" points="397.2,383.5 396.6,382.7 395.1,380.7 393.8,378.7 393.7,378.6 393.7,378.5 395.2,375.8 396.2,374.1 
		396.6,373.1 395.6,371.5 395.3,371 393.1,369.1 391.9,367 390.9,364.8 392.2,362.1 393.1,360.7 395.7,358.9 396.1,358.5 397,356.2 
		397.2,355.9 	"/>
	<polyline class="st10" points="397,397.2 397,397.1 397.2,396.9 	"/>
	<polyline class="st10" points="0.4,6.1 2,5.1 4.1,3.9 4.4,3.7 4.5,2.9 4.9,1.3 5.6,0.6 6,0.3 	"/>
	<polygon class="st10" points="279.5,337.8 277.7,337.2 275.7,336 275.2,335.3 274.8,333 274.8,332 275.2,330.5 277.4,328.4 
		278.6,327.3 280.2,325.7 282.5,324.1 283.1,323.6 286.1,321.6 289.4,321.2 292.5,320.1 296.1,321 299.2,319.6 302.3,318.2 
		305.3,316.6 305.3,316.6 305.3,316.6 308.9,317.5 309.5,318 311.4,320 313.2,321.6 314.2,321.8 316.7,321.9 317.5,321.1 
		319.3,318.7 322.7,318.5 325.2,319.3 326.4,319.9 327.6,318.8 327.6,316.4 327.2,314.1 326,311.9 325.6,309.6 327,307.4 
		327.3,306.8 327.5,304.4 327.6,302 329.1,301.5 330.2,301.4 332.4,301.2 332.7,300.8 334.1,298.1 334.8,297 335.9,295.3 
		337.3,292.9 340.6,292.6 344.1,293 347.1,291.3 348.3,290.1 349.9,288.6 353.2,288 356.5,287.7 359.6,286.3 362.8,285.7 366.3,286 
		366.5,286.1 369.9,286.9 371.6,287.3 372.5,289.5 372.6,291.9 372.1,294.4 371.7,295.2 368.7,297 366.2,298.2 365.7,298.4 
		363.4,301.2 363.1,302.3 363.1,303.7 363.8,305.3 364.1,305.8 366,307.8 367.8,309.8 368.5,311.1 369.1,311.9 370.7,314 
		372.9,315.8 373,315.9 374.9,317.9 376.4,319.9 377.5,321.1 378.4,321.9 378.2,324.1 378.2,324.3 376.8,327.1 378,329.2 
		379.7,331.2 379.1,333.7 378.1,336.4 377.7,337 376,339.3 375,340.2 373.8,339.7 371.2,338.5 370.6,338.1 368.9,336 367,334.9 
		365.7,334.4 363.3,333.3 361.4,335.3 360.6,336.4 359.3,338.2 357.9,339.7 354.9,341.1 351.3,340.4 348.3,342.1 347.2,343.3 
		345.5,344.6 342.2,345 340.8,347.1 339.7,349 339.2,349.9 337.6,352.7 337.2,353.3 334.4,355.7 331,355.9 329.2,354.5 328.6,352.3 
		326.6,351.1 323.4,352.1 320.2,353 317.4,352.4 316.6,352.2 314.6,350.6 312.5,348.6 312.4,348.6 309.1,347 308.7,346.9 
		305.4,347.2 301.8,346.3 301.7,346.2 298.9,344.5 297.8,343.9 294.7,345.1 291.5,346 290.6,346.3 288.4,347.2 287.9,346.9 
		286.9,344.7 286,342.5 284.3,340.5 283.3,339.5 281.8,338.7 	"/>
	<polygon class="st10" points="287.3,330.2 287.8,329.5 290.9,328.2 294.3,328.1 297.6,327.9 297.7,327.9 301,327.8 304.1,326.6 
		305,326.2 307.2,325.3 308,325.6 310.9,326.4 312.5,327 314.5,327.6 318,328 318.4,328.1 321.7,329.5 322.2,329.6 325.5,330.9 
		326.3,331.1 328.9,331.4 332.3,331.3 334.6,329.3 334.9,327.5 334.8,326.8 335,324.4 335.2,321.9 335.4,319.5 335.1,317.1 
		334.5,314.8 334.2,312.5 334.4,310.5 337.8,310.5 338.6,309.1 340.5,307.4 341.5,306.1 343.3,304.5 344,303.1 343.8,300.7 
		345.5,299.1 348.5,297.4 348.7,297.2 351.5,295.7 354.6,294.6 358,294.3 361.3,294.1 362,294.3 361.4,294.6 359.3,297.3 358.8,298 
		357.9,300 357.3,302.6 357.1,305 357.7,307.3 358.9,309.4 359.4,311.7 360.9,313.8 359.3,315.4 358.1,314.4 357.9,312 356.9,309.8 
		356.4,307.6 354.1,307.3 353.4,308.2 351.4,310.3 348.3,311.6 344.8,311.2 341.7,310.8 341.2,310.4 340,311.2 338.4,313.2 
		338.4,314 338.1,316.5 339.5,317.8 340,318.4 342.4,320.3 343.3,322.5 343.3,324.9 341.5,327 340,328.1 338.6,329.2 336.1,331.3 
		336.6,333.6 338.4,335.6 340.3,336.6 341.9,337.3 343.1,339.4 341.1,340.4 337.8,340.8 335.5,343.5 335.2,344.2 332.9,344.1 
		331.8,344.1 328.5,344.6 325.2,344.9 323.3,346.2 322.2,346.9 319.1,347.8 317.9,347.5 315.4,345.6 315,344.9 314.2,343.4 
		312.1,341.5 310.6,340.4 308.2,340 307.1,339.7 303.7,339.9 302,339 300.1,337 299.6,336.7 296.2,336.8 293.2,338.2 289.7,337.7 
		289,337.1 287.3,335 285.8,332.9 	"/>
	<polygon class="st10" points="241.7,221.5 240.7,221.7 237.6,221.5 235.8,220 234.7,217.7 233.9,215.1 231.2,216 228.5,218 
		227.7,218.2 224.3,218.4 224.1,218.4 220.3,219.3 220,219.4 216.6,220.4 215.7,220.6 212.5,220.5 213.6,217.6 216,215.3 
		218.2,212.8 220.4,210.3 222.4,207.6 224,205.1 224.2,204.8 226,201.9 228,199.2 229.9,196.5 232.1,194 234.3,191.5 235,190.3 
		236,188.6 238.4,186.3 239.3,185.8 241.4,184.6 244.4,182.9 245.4,182.8 248.7,182.5 249.9,181.5 251.3,180.3 253.6,178 
		256.7,176.3 258.8,175.7 260.5,175.4 262.1,175.6 264.5,176.6 265.9,178.4 268.7,178.9 269,179 269.2,178.5 270.5,175.9 
		271.5,172.6 271.6,172.3 272.1,172 274.5,170.5 277.5,169.8 278.5,169.8 280.9,167.5 283.6,166.8 285,166.8 286.3,167.4 
		287.8,169.2 287.9,169.6 287.5,172.9 288.3,174.6 288.6,175.1 288.8,175.1 292.6,174.4 292.8,174.3 296.2,173 298.6,170.7 
		300.7,168.1 303.5,166.2 303.9,165.9 306.5,164.5 309.8,163.1 308.9,160.7 307.3,159.1 305,158.1 304,157.5 302.9,156.8 
		302.2,155.8 304.2,153.1 307.2,151.4 309.4,148.9 312,146.9 314.4,144.6 315.5,141.1 318.3,139.2 320.9,138.1 321.7,137.8 
		325.2,137 325.6,137 328.6,136.9 330.6,137.2 331.4,137.4 332,138.5 332.2,139.8 332,143.2 331.9,143.5 330.4,146.1 328.7,149.2 
		327.8,151.2 327.6,152.6 327.3,155.2 327,156.7 326.7,159.1 326.7,161 326.6,162.6 327.5,165.1 327.3,166.1 327.1,168.9 
		327.4,170.8 327.3,172.1 326.8,174.8 324.8,177.5 323,180 322.8,180.2 320.6,182.6 318.7,184.5 318.2,184.9 315.7,187.1 
		313.6,189.7 311.2,192 308.7,194.2 305.7,195.9 303.7,196.7 302.5,197.3 299.7,199.2 296.9,201.2 295.3,202 293.8,202.8 
		290.5,204.2 289.7,204.5 286.8,205.3 285.4,205.6 283.2,206.4 281,206.8 279.5,207.4 276.3,208.9 275,209.7 273.2,210.5 
		269.8,211.9 269.4,212.1 266.6,213.4 263.9,214.4 263.2,214.7 259.9,216.1 258.8,216.4 256.2,217.1 253.7,219.3 252,220 
		250.5,220.9 247.7,221.1 246.2,221.3 244.4,221.2 	"/>
	<polygon class="st10" points="243.2,259.8 243.2,259.7 244.6,256.4 246.8,254 247.6,251.8 248.1,250.6 249.6,247.5 252.3,245.5 
		253.8,245.4 256,244.5 258.3,242.1 261.1,241.1 261.9,240.9 264.8,240.6 266.2,240.5 269.1,239.5 270.9,241.1 269.6,243.7 
		267.7,246.6 265.1,248.6 262.6,250.8 260.2,253.1 257.5,255.1 255.9,258.1 253.8,260.7 251.5,263.1 249.1,265.3 247.8,265.2 
		246.3,263.3 244.7,261.6 	"/>
	<polygon class="st10" points="237.3,259.2 237.5,258.8 239.3,256 240.9,252.9 242.8,250.1 242.8,250 243.6,246.3 243.6,245.8 
		243.5,242.5 243.8,241.9 244.2,241.8 247,240.5 249.4,239.8 251.1,239.8 252.6,239.8 255,239 257,238.6 258.7,237.9 261.6,237.2 
		262.6,237.1 266,235.8 266.6,235.4 268.8,233.9 272,232.3 274.4,230 276.8,227.7 278.3,226.6 279.6,225.9 282.3,223.8 284.6,221.5 
		287.8,220 287.9,220 291.1,218.5 293.2,216 295.8,213.9 298,212.8 299,212.3 302.1,210.8 304.5,209.4 305.1,209.1 308.3,207.5 
		310.1,207 312,206.5 314.3,206 314.5,208.8 311.9,211 308.9,212.7 306.3,214.8 303.9,217.1 303.3,217.4 300.9,218.8 298.5,221 
		295.5,222.7 294.4,223.4 292.4,224.4 292,225.8 291.3,227.9 289.5,228.5 287.4,228.8 285.3,229.4 284,230.1 282,232.7 281.5,233.4 
		280.1,235.5 278.7,238.7 278.3,240.2 278.5,243.1 275.1,244.4 272.9,246.9 270.3,249 268.8,250 267.4,250.8 264.7,252.8 263,255.8 
		261.2,258 260.9,258.3 259.1,261.2 257.4,264.2 254.7,266.2 252.4,268.6 250.6,271.4 248.1,273.5 245.4,274.4 244.5,274.7 
		241.5,275.2 241,272.2 240.9,271.3 241.5,268.3 241.1,266.9 240.7,265.8 238.7,264.4 237.2,262.6 	"/>
	<polyline class="st10" points="397.2,164.4 395.9,164.2 394.1,163.6 391.6,161.5 391.1,158.2 391.3,157.4 392,155.6 393.4,153.7 
		394.4,151.2 394.3,150.7 393.8,150.5 390.3,149.7 389.2,146.3 389.3,145 389.5,141.8 389.5,141.6 390.4,141 391.6,140.4 
		394.1,139.8 394.9,137.4 392.2,135.3 390.8,132.2 390.8,132.2 391.6,129.4 392.3,126.7 392.3,126.6 393.6,124.5 395.3,124.2 
		396.3,124.1 396.6,123.2 394.8,120.4 393.8,117.4 394.2,116.6 395.1,115.3 396,112.7 395.5,111.3 395.7,108.6 395.6,106.9 
		395.9,105.2 396.9,102.7 397.2,102.5 	"/>
	<polygon class="st10" points="387.8,36.7 387.8,36.6 387.4,33 386.6,30.6 386.4,30 385.9,26.4 385.9,25.4 385.8,22.3 385.9,21.6 
		385.9,18 385.9,17.9 386.5,15.6 387.2,13.4 387.7,11.2 387.8,10.8 387.9,7.4 389.4,8.9 389.7,11 389.8,12.7 390.2,15.6 390.3,16.3 
		390.5,19.9 390.5,20.3 390.7,24 390.7,24.2 391.1,27.9 391.2,28.7 390.6,31.2 389.8,33.2 388.9,35.2 388.9,35.2 387.8,36.7 	"/>
	<polyline class="st10" points="230.3,0.3 229.9,2 229.5,3 228.8,5 228,8 227.5,11 226.8,12.7 226.3,13.9 225.3,16.9 224.8,19.9 
		224.1,21.9 223.9,22.9 223.8,26 223.6,29 223.7,29.3 224.3,32.1 223.4,33.9 222.7,35 221.1,37.4 219,36.1 216.9,35.6 215,37.6 
		214.6,38.2 213.5,40.5 212.2,43.3 212,43.5 210.4,46.4 211.4,49.5 211.7,51.7 211.8,52.6 211.7,52.9 210,55.5 209.3,56.7 
		207.9,58.5 207,59.8 205.8,61.4 204.6,63.2 204,64.3 202.3,67.2 202.3,67.2 201.2,70.2 199.8,72.9 199.5,73.2 197.5,75.5 
		197.2,76.1 195.2,78.7 195,79 192.9,80.9 192,81.8 190.7,82.9 188.4,84.3 186.4,83.3 185.7,81.5 184.9,78.4 185.2,75.4 185.6,72.3 
		185,70.1 183.8,69.2 183.4,66.1 183.2,63.7 183.2,63.1 183.3,63 185.1,60.2 185.6,59.8 187.8,57.3 187.9,57 189.7,54.4 190.2,54 
		192.1,51.4 192.6,49.2 192.8,48.5 194.6,45.5 195,44.5 195.9,42.6 196.2,39.5 195.9,36.5 197,33.5 197.9,32.2 199.1,30.6 
		200.2,29.3 201.2,27.7 202.5,25.9 203.1,24.7 204.9,22.1 205.1,21.8 207.2,19.5 207.7,18.9 209.5,17.2 210.5,16.1 211.7,14.9 
		213,13.2 214,12 215.6,10.3 216.3,9.5 218.6,7.8 218.9,7.4 220.9,4.5 220.9,4.5 223.2,2 223.7,1.6 225.4,0.7 226,0.3 	"/>
	<polygon class="st10" points="190.1,72.6 190,69.7 191.2,67.1 192.4,64.6 192.5,64.5 192.4,64.3 192.6,61.6 191.8,59 191.6,58.3 
		192.2,57.9 193.9,56 195.1,54.9 197.2,54 197.4,53.9 199.5,53.9 200.8,55 201,56.1 200.8,57.9 200.3,60.7 199,63.2 198.9,63.3 
		196.6,65.6 196.1,66 194.3,68 192.9,70.5 192.8,70.6 	"/>
</g>
<g id="PLAN::FOND">
</g>
<g id="INFOS::CADRES_2" class="st0">
	<g class="st12">
		<path class="st13" d="M396.5,1v395.5H1.1V1H396.5 M397.2,0.3H0.4v396.9h396.9V0.3L397.2,0.3z"/>
	</g>
</g>
<g id="BLOCK_SPECTIFIQUES::MEUBLE_FITNESS">
</g>
<g id="BLOCK_SPECTIFIQUES::POTAGER">
</g>
<g id="PLAN::POTEAU">
</g>
<g id="PLAN::FOND_SOL">
</g>
</svg>
