<?xml version="1.0" encoding="utf-8"?>
<!-- Generator: Adobe Illustrator 22.0.1, SVG Export Plug-In . SVG Version: 6.00 Build 0)  -->
<svg version="1.1" xmlns="http://www.w3.org/2000/svg" xmlns:xlink="http://www.w3.org/1999/xlink" x="0px" y="0px" width="397.4px"
	 height="397.5px" viewBox="0 0 397.4 397.5" style="enable-background:new 0 0 397.4 397.5;" xml:space="preserve">
<style type="text/css">
	.st0{display:none;}
	.st1{display:inline;stroke:#FFFFFF;stroke-linecap:round;stroke-linejoin:round;}
	.st2{fill:#FFFFFF;stroke:#FFFFFF;stroke-width:0.4;stroke-miterlimit:10;}
	.st3{fill:none;stroke:#FFFFFF;stroke-linecap:square;}
	.st4{fill:none;stroke:#FFFFFF;stroke-width:0.7;stroke-linecap:square;}
	.st5{fill:none;stroke:#FFFFFF;stroke-width:0.55;stroke-linecap:square;}
	.st6{fill:none;stroke:#FFFFFF;stroke-width:0.6;stroke-linecap:square;stroke-dasharray:2,3;}
	.st7{fill:none;stroke:#FFFFFF;stroke-width:0.2;stroke-linecap:square;stroke-dasharray:2,3;}
	.st8{fill:none;stroke:#FFFFFF;stroke-width:0.3;stroke-linecap:square;}
	.st9{fill:none;stroke:#FFFFFF;stroke-width:0.5;stroke-linecap:square;}
	.st10{fill:none;stroke:#FFFFFF;stroke-width:0.7;stroke-linecap:square;stroke-dasharray:2,3;}
	.st11{fill:none;stroke:#FFFFFF;stroke-width:0.4;stroke-linecap:square;}
	.st12{display:inline;}
	.st13{fill:#FFFFFF;}
	.st14{display:inline;fill:none;stroke:#000000;stroke-linecap:round;stroke-linejoin:round;}
</style>
<g id="FOND" class="st0">
	<rect x="-49.4" y="-52" class="st1" width="1470.6" height="1969.9"/>
</g>
<g id="Calque_1" class="st0">
</g>
<g id="PLAN::STRUCTURE_1.1">
	<rect x="56.7" y="170.2" class="st2" width="0.6" height="0.6"/>
	<rect x="28.3" y="170.2" class="st2" width="0.6" height="0.6"/>
	<rect x="0" y="170.2" class="st2" width="0.6" height="0.6"/>
	<rect x="283.4" y="198.5" class="st2" width="0.6" height="0.6"/>
	<rect x="311.8" y="198.5" class="st2" width="0.6" height="0.6"/>
	<rect x="340.1" y="198.5" class="st2" width="0.6" height="0.6"/>
	<rect x="368.5" y="198.5" class="st2" width="0.6" height="0.6"/>
	<rect x="396.8" y="198.5" class="st2" width="0.6" height="0.6"/>
	<rect x="141.7" y="198.5" class="st2" width="0.6" height="0.6"/>
	<rect x="170.1" y="198.5" class="st2" width="0.6" height="0.6"/>
	<rect x="198.4" y="198.5" class="st2" width="0.6" height="0.6"/>
	<rect x="226.8" y="198.5" class="st2" width="0.6" height="0.6"/>
	<rect x="255.1" y="198.5" class="st2" width="0.6" height="0.6"/>
	<rect x="113.4" y="198.5" class="st2" width="0.6" height="0.6"/>
	<rect x="85" y="198.5" class="st2" width="0.6" height="0.6"/>
	<rect x="56.7" y="198.5" class="st2" width="0.6" height="0.6"/>
	<rect x="28.3" y="198.5" class="st2" width="0.6" height="0.6"/>
	<rect x="0" y="198.5" class="st2" width="0.6" height="0.6"/>
	<rect x="283.4" y="226.9" class="st2" width="0.6" height="0.6"/>
	<rect x="311.8" y="226.9" class="st2" width="0.6" height="0.6"/>
	<rect x="340.1" y="226.9" class="st2" width="0.6" height="0.6"/>
	<rect x="368.5" y="226.9" class="st2" width="0.6" height="0.6"/>
	<rect x="396.8" y="226.9" class="st2" width="0.6" height="0.6"/>
	<rect x="141.7" y="226.9" class="st2" width="0.6" height="0.6"/>
	<rect x="170.1" y="226.9" class="st2" width="0.6" height="0.6"/>
	<rect x="198.4" y="226.9" class="st2" width="0.6" height="0.6"/>
	<rect x="226.8" y="226.9" class="st2" width="0.6" height="0.6"/>
	<rect x="255.1" y="226.9" class="st2" width="0.6" height="0.6"/>
	<rect x="113.4" y="226.9" class="st2" width="0.6" height="0.6"/>
	<rect x="85" y="226.9" class="st2" width="0.6" height="0.6"/>
	<rect x="56.7" y="226.9" class="st2" width="0.6" height="0.6"/>
	<rect x="28.3" y="226.9" class="st2" width="0.6" height="0.6"/>
	<rect x="0" y="226.9" class="st2" width="0.6" height="0.6"/>
	<rect x="283.4" y="255.2" class="st2" width="0.6" height="0.6"/>
	<rect x="311.8" y="255.2" class="st2" width="0.6" height="0.6"/>
	<rect x="340.1" y="255.2" class="st2" width="0.6" height="0.6"/>
	<rect x="368.5" y="255.2" class="st2" width="0.6" height="0.6"/>
	<rect x="396.8" y="255.2" class="st2" width="0.6" height="0.6"/>
	<rect x="141.7" y="255.2" class="st2" width="0.6" height="0.6"/>
	<rect x="170.1" y="255.2" class="st2" width="0.6" height="0.6"/>
	<rect x="198.4" y="255.2" class="st2" width="0.6" height="0.6"/>
	<rect x="226.8" y="255.2" class="st2" width="0.6" height="0.6"/>
	<rect x="255.1" y="255.2" class="st2" width="0.6" height="0.6"/>
	<rect x="113.4" y="255.2" class="st2" width="0.6" height="0.6"/>
	<rect x="85" y="255.2" class="st2" width="0.6" height="0.6"/>
	<rect x="56.7" y="255.2" class="st2" width="0.6" height="0.6"/>
	<rect x="28.3" y="255.2" class="st2" width="0.6" height="0.6"/>
	<rect x="0" y="255.2" class="st2" width="0.6" height="0.6"/>
	<rect x="283.4" y="283.5" class="st2" width="0.6" height="0.6"/>
	<rect x="311.8" y="283.5" class="st2" width="0.6" height="0.6"/>
	<rect x="340.1" y="283.5" class="st2" width="0.6" height="0.6"/>
	<rect x="368.5" y="283.5" class="st2" width="0.6" height="0.6"/>
	<rect x="396.8" y="283.5" class="st2" width="0.6" height="0.6"/>
	<rect x="141.7" y="283.5" class="st2" width="0.6" height="0.6"/>
	<rect x="170.1" y="283.5" class="st2" width="0.6" height="0.6"/>
	<rect x="198.4" y="283.5" class="st2" width="0.6" height="0.6"/>
	<rect x="226.8" y="283.5" class="st2" width="0.6" height="0.6"/>
	<rect x="255.1" y="283.5" class="st2" width="0.6" height="0.6"/>
	<rect x="113.4" y="283.5" class="st2" width="0.6" height="0.6"/>
	<rect x="85" y="283.5" class="st2" width="0.6" height="0.6"/>
	<rect x="56.7" y="283.5" class="st2" width="0.6" height="0.6"/>
	<rect x="28.3" y="283.5" class="st2" width="0.6" height="0.6"/>
	<rect x="0" y="283.5" class="st2" width="0.6" height="0.6"/>
	<rect x="283.4" y="311.9" class="st2" width="0.6" height="0.6"/>
	<rect x="311.8" y="311.9" class="st2" width="0.6" height="0.6"/>
	<rect x="340.1" y="311.9" class="st2" width="0.6" height="0.6"/>
	<rect x="368.5" y="311.9" class="st2" width="0.6" height="0.6"/>
	<rect x="396.8" y="311.9" class="st2" width="0.6" height="0.6"/>
	<rect x="141.7" y="311.9" class="st2" width="0.6" height="0.6"/>
	<rect x="170.1" y="311.9" class="st2" width="0.6" height="0.6"/>
	<rect x="198.4" y="311.9" class="st2" width="0.6" height="0.6"/>
	<rect x="226.8" y="311.9" class="st2" width="0.6" height="0.6"/>
	<rect x="255.1" y="311.9" class="st2" width="0.6" height="0.6"/>
	<rect x="113.4" y="311.9" class="st2" width="0.6" height="0.6"/>
	<rect x="85" y="311.9" class="st2" width="0.6" height="0.6"/>
	<rect x="56.7" y="311.9" class="st2" width="0.6" height="0.6"/>
	<rect x="28.3" y="311.9" class="st2" width="0.6" height="0.6"/>
	<rect x="0" y="311.9" class="st2" width="0.6" height="0.6"/>
	<rect x="283.4" y="340.2" class="st2" width="0.6" height="0.6"/>
	<rect x="311.8" y="340.2" class="st2" width="0.6" height="0.6"/>
	<rect x="340.1" y="340.2" class="st2" width="0.6" height="0.6"/>
	<rect x="368.5" y="340.2" class="st2" width="0.6" height="0.6"/>
	<rect x="396.8" y="340.2" class="st2" width="0.6" height="0.6"/>
	<rect x="141.7" y="340.2" class="st2" width="0.6" height="0.6"/>
	<rect x="170.1" y="340.2" class="st2" width="0.6" height="0.6"/>
	<rect x="198.4" y="340.2" class="st2" width="0.6" height="0.6"/>
	<rect x="226.8" y="340.2" class="st2" width="0.6" height="0.6"/>
	<rect x="255.1" y="340.2" class="st2" width="0.6" height="0.6"/>
	<rect x="113.4" y="340.2" class="st2" width="0.6" height="0.6"/>
	<rect x="85" y="340.2" class="st2" width="0.6" height="0.6"/>
	<rect x="56.7" y="340.2" class="st2" width="0.6" height="0.6"/>
	<rect x="28.3" y="340.2" class="st2" width="0.6" height="0.6"/>
	<rect x="0" y="340.2" class="st2" width="0.6" height="0.6"/>
	<rect x="283.4" y="368.6" class="st2" width="0.6" height="0.6"/>
	<rect x="311.8" y="368.6" class="st2" width="0.6" height="0.6"/>
	<rect x="340.1" y="368.6" class="st2" width="0.6" height="0.6"/>
	<rect x="368.5" y="368.6" class="st2" width="0.6" height="0.6"/>
	<rect x="396.8" y="368.6" class="st2" width="0.6" height="0.6"/>
	<rect x="141.7" y="368.6" class="st2" width="0.6" height="0.6"/>
	<rect x="170.1" y="368.6" class="st2" width="0.6" height="0.6"/>
	<rect x="198.4" y="368.6" class="st2" width="0.6" height="0.6"/>
	<rect x="226.8" y="368.6" class="st2" width="0.6" height="0.6"/>
	<rect x="255.1" y="368.6" class="st2" width="0.6" height="0.6"/>
	<rect x="113.4" y="368.6" class="st2" width="0.6" height="0.6"/>
	<rect x="85" y="368.6" class="st2" width="0.6" height="0.6"/>
	<rect x="56.7" y="368.6" class="st2" width="0.6" height="0.6"/>
	<rect x="28.3" y="368.6" class="st2" width="0.6" height="0.6"/>
	<rect x="0" y="368.6" class="st2" width="0.6" height="0.6"/>
	<rect x="283.4" y="396.9" class="st2" width="0.6" height="0.6"/>
	<rect x="311.8" y="396.9" class="st2" width="0.6" height="0.6"/>
	<rect x="340.1" y="396.9" class="st2" width="0.6" height="0.6"/>
	<rect x="368.5" y="396.9" class="st2" width="0.6" height="0.6"/>
	<rect x="396.8" y="396.9" class="st2" width="0.6" height="0.6"/>
	<rect x="141.7" y="396.9" class="st2" width="0.6" height="0.6"/>
	<rect x="170.1" y="396.9" class="st2" width="0.6" height="0.6"/>
	<rect x="198.4" y="396.9" class="st2" width="0.6" height="0.6"/>
	<rect x="226.8" y="396.9" class="st2" width="0.6" height="0.6"/>
	<rect x="255.1" y="396.9" class="st2" width="0.6" height="0.6"/>
	<rect x="113.4" y="396.9" class="st2" width="0.6" height="0.6"/>
	<rect x="85" y="396.9" class="st2" width="0.6" height="0.6"/>
	<rect x="56.7" y="396.9" class="st2" width="0.6" height="0.6"/>
	<rect x="28.3" y="396.9" class="st2" width="0.6" height="0.6"/>
	<rect x="0" y="396.9" class="st2" width="0.6" height="0.6"/>
	<rect x="113.4" y="28.4" class="st2" width="0.6" height="0.6"/>
	<rect x="0" y="0.1" class="st2" width="0.6" height="0.6"/>
	<rect x="28.3" y="0.1" class="st2" width="0.6" height="0.6"/>
	<rect x="56.7" y="0.1" class="st2" width="0.6" height="0.6"/>
	<rect x="85" y="0.1" class="st2" width="0.6" height="0.6"/>
	<rect x="113.4" y="0.1" class="st2" width="0.6" height="0.6"/>
	<rect x="255.1" y="0.1" class="st2" width="0.6" height="0.6"/>
	<rect x="226.8" y="0.1" class="st2" width="0.6" height="0.6"/>
	<rect x="198.4" y="0.1" class="st2" width="0.6" height="0.6"/>
	<rect x="170.1" y="0.1" class="st2" width="0.6" height="0.6"/>
	<rect x="141.7" y="0.1" class="st2" width="0.6" height="0.6"/>
	<rect x="396.8" y="0.1" class="st2" width="0.6" height="0.6"/>
	<rect x="368.5" y="0.1" class="st2" width="0.6" height="0.6"/>
	<rect x="340.1" y="0.1" class="st2" width="0.6" height="0.6"/>
	<rect x="311.8" y="0.1" class="st2" width="0.6" height="0.6"/>
	<rect x="283.4" y="0.1" class="st2" width="0.6" height="0.6"/>
	<rect x="283.4" y="28.4" class="st2" width="0.6" height="0.6"/>
	<rect x="311.8" y="28.4" class="st2" width="0.6" height="0.6"/>
	<rect x="340.1" y="28.4" class="st2" width="0.6" height="0.6"/>
	<rect x="368.5" y="28.4" class="st2" width="0.6" height="0.6"/>
	<rect x="396.8" y="28.4" class="st2" width="0.6" height="0.6"/>
	<rect x="141.7" y="28.4" class="st2" width="0.6" height="0.6"/>
	<rect x="170.1" y="28.4" class="st2" width="0.6" height="0.6"/>
	<rect x="198.4" y="28.4" class="st2" width="0.6" height="0.6"/>
	<rect x="226.8" y="28.4" class="st2" width="0.6" height="0.6"/>
	<rect x="255.1" y="28.4" class="st2" width="0.6" height="0.6"/>
	<rect x="85" y="28.4" class="st2" width="0.6" height="0.6"/>
	<rect x="56.7" y="28.4" class="st2" width="0.6" height="0.6"/>
	<rect x="28.3" y="28.4" class="st2" width="0.6" height="0.6"/>
	<rect x="0" y="28.4" class="st2" width="0.6" height="0.6"/>
	<rect x="283.4" y="56.8" class="st2" width="0.6" height="0.6"/>
	<rect x="311.8" y="56.8" class="st2" width="0.6" height="0.6"/>
	<rect x="340.1" y="56.8" class="st2" width="0.6" height="0.6"/>
	<rect x="368.5" y="56.8" class="st2" width="0.6" height="0.6"/>
	<rect x="396.8" y="56.8" class="st2" width="0.6" height="0.6"/>
	<rect x="141.7" y="56.8" class="st2" width="0.6" height="0.6"/>
	<rect x="170.1" y="56.8" class="st2" width="0.6" height="0.6"/>
	<rect x="198.4" y="56.8" class="st2" width="0.6" height="0.6"/>
	<rect x="226.8" y="56.8" class="st2" width="0.6" height="0.6"/>
	<rect x="255.1" y="56.8" class="st2" width="0.6" height="0.6"/>
	<rect x="113.4" y="56.8" class="st2" width="0.6" height="0.6"/>
	<rect x="85" y="56.8" class="st2" width="0.6" height="0.6"/>
	<rect x="56.7" y="56.8" class="st2" width="0.6" height="0.6"/>
	<rect x="28.3" y="56.8" class="st2" width="0.6" height="0.6"/>
	<rect x="0" y="56.8" class="st2" width="0.6" height="0.6"/>
	<rect x="283.4" y="85.1" class="st2" width="0.6" height="0.6"/>
	<rect x="311.8" y="85.1" class="st2" width="0.6" height="0.6"/>
	<rect x="340.1" y="85.1" class="st2" width="0.6" height="0.6"/>
	<rect x="368.5" y="85.1" class="st2" width="0.6" height="0.6"/>
	<rect x="396.8" y="85.1" class="st2" width="0.6" height="0.6"/>
	<rect x="141.7" y="85.1" class="st2" width="0.6" height="0.6"/>
	<rect x="170.1" y="85.1" class="st2" width="0.6" height="0.6"/>
	<rect x="198.4" y="85.1" class="st2" width="0.6" height="0.6"/>
	<rect x="226.8" y="85.1" class="st2" width="0.6" height="0.6"/>
	<rect x="255.1" y="85.1" class="st2" width="0.6" height="0.6"/>
	<rect x="113.4" y="85.1" class="st2" width="0.6" height="0.6"/>
	<rect x="85" y="85.1" class="st2" width="0.6" height="0.6"/>
	<rect x="56.7" y="85.1" class="st2" width="0.6" height="0.6"/>
	<rect x="28.3" y="85.1" class="st2" width="0.6" height="0.6"/>
	<rect x="0" y="85.1" class="st2" width="0.6" height="0.6"/>
	<rect x="283.4" y="113.5" class="st2" width="0.6" height="0.6"/>
	<rect x="311.8" y="113.5" class="st2" width="0.6" height="0.6"/>
	<rect x="340.1" y="113.5" class="st2" width="0.6" height="0.6"/>
	<rect x="368.5" y="113.5" class="st2" width="0.6" height="0.6"/>
	<rect x="396.8" y="113.5" class="st2" width="0.6" height="0.6"/>
	<rect x="141.7" y="113.5" class="st2" width="0.6" height="0.6"/>
	<rect x="170.1" y="113.5" class="st2" width="0.6" height="0.6"/>
	<rect x="198.4" y="113.5" class="st2" width="0.6" height="0.6"/>
	<rect x="226.8" y="113.5" class="st2" width="0.6" height="0.6"/>
	<rect x="255.1" y="113.5" class="st2" width="0.6" height="0.6"/>
	<rect x="113.4" y="113.5" class="st2" width="0.6" height="0.6"/>
	<rect x="85" y="113.5" class="st2" width="0.6" height="0.6"/>
	<rect x="56.7" y="113.5" class="st2" width="0.6" height="0.6"/>
	<rect x="28.3" y="113.5" class="st2" width="0.6" height="0.6"/>
	<rect x="0" y="113.5" class="st2" width="0.6" height="0.6"/>
	<rect x="283.4" y="141.8" class="st2" width="0.6" height="0.6"/>
	<rect x="311.8" y="141.8" class="st2" width="0.6" height="0.6"/>
	<rect x="340.1" y="141.8" class="st2" width="0.6" height="0.6"/>
	<rect x="368.5" y="141.8" class="st2" width="0.6" height="0.6"/>
	<rect x="396.8" y="141.8" class="st2" width="0.6" height="0.6"/>
	<rect x="141.7" y="141.8" class="st2" width="0.6" height="0.6"/>
	<rect x="170.1" y="141.8" class="st2" width="0.6" height="0.6"/>
	<rect x="198.4" y="141.8" class="st2" width="0.6" height="0.6"/>
	<rect x="226.8" y="141.8" class="st2" width="0.6" height="0.6"/>
	<rect x="255.1" y="141.8" class="st2" width="0.6" height="0.6"/>
	<rect x="113.4" y="141.8" class="st2" width="0.6" height="0.6"/>
	<rect x="85" y="141.8" class="st2" width="0.6" height="0.6"/>
	<rect x="56.7" y="141.8" class="st2" width="0.6" height="0.6"/>
	<rect x="28.3" y="141.8" class="st2" width="0.6" height="0.6"/>
	<rect x="0" y="141.8" class="st2" width="0.6" height="0.6"/>
	<rect x="283.4" y="170.2" class="st2" width="0.6" height="0.6"/>
	<rect x="311.8" y="170.2" class="st2" width="0.6" height="0.6"/>
	<rect x="340.1" y="170.2" class="st2" width="0.6" height="0.6"/>
	<rect x="368.5" y="170.2" class="st2" width="0.6" height="0.6"/>
	<rect x="396.8" y="170.2" class="st2" width="0.6" height="0.6"/>
	<rect x="141.7" y="170.2" class="st2" width="0.6" height="0.6"/>
	<rect x="170.1" y="170.2" class="st2" width="0.6" height="0.6"/>
	<rect x="198.4" y="170.2" class="st2" width="0.6" height="0.6"/>
	<rect x="226.8" y="170.2" class="st2" width="0.6" height="0.6"/>
	<rect x="255.1" y="170.2" class="st2" width="0.6" height="0.6"/>
	<rect x="113.4" y="170.2" class="st2" width="0.6" height="0.6"/>
	<rect x="85" y="170.2" class="st2" width="0.6" height="0.6"/>
</g>
<g id="PLAN::IPN">
</g>
<g id="PLAN::STRUCTURE_2.3">
</g>
<g id="PLAN::POINTILLE">
</g>
<g id="PLAN::POINTILLE_PROGRAMME">
</g>
<g id="PLAN::TRAME_2">
</g>
<g id="PLAN::DETAIL">
</g>
<g id="PLAN::TOPO">
	<path class="st10" d="M397.1,147.1c-45.9,0-91.9,0-137.8,0c-23.7,0-42.9-19.2-42.9-42.9c0-13.9,0-27.7,0-41.6c0-20.5,0-40.9,0-61.4
		c0-0.3,0-0.6,0-0.9"/>
	<path class="st10" d="M168.9,192.4c-13.3-0.1-26.7,1-38.5,6.4c-11.7,5.4-21.8,15.2-27.4,26.2c-5.6,11-6.9,23.4-0.6,30.9
		c6.3,7.6,20.2,10.4,29.7,4.8c9.6-5.6,14.9-19.7,23-25.4c8.1-5.7,19.1-2.9,30.8-3.7c11.7-0.8,24.1-5.2,28-11.9
		c3.9-6.7-0.8-15.8-9.7-21C195.4,193.7,182.2,192.5,168.9,192.4z"/>
	<path class="st10" d="M0.3,280c39.5-0.5,70.7,11.2,93.7,34.9c6.4,7.5,5.8,14.1-1.8,19.8c-6.4,4.8-12.8,4.7-19.1-0.5
		c0,0-0.1-0.1-0.1-0.1c-0.4-0.4-0.8-0.8-1.2-1.2c-0.4-0.4-0.8-0.8-1.2-1.1c-0.4-0.4-0.8-0.7-1.2-1.1c-0.4-0.4-0.8-0.7-1.2-1.1
		c-0.4-0.4-0.8-0.7-1.2-1c-0.8-0.7-1.7-1.4-2.5-2c-0.8-0.6-1.7-1.3-2.6-1.9c-0.9-0.6-1.8-1.2-2.6-1.8c-0.4-0.3-0.9-0.6-1.4-0.9
		c-0.5-0.3-0.9-0.6-1.4-0.8c-0.5-0.3-0.9-0.5-1.4-0.8c-0.5-0.3-0.9-0.5-1.4-0.8c-0.5-0.3-1-0.5-1.4-0.8c-0.5-0.2-1-0.5-1.5-0.7
		c-0.5-0.2-1-0.5-1.5-0.7c-0.5-0.2-1-0.5-1.5-0.7c-0.5-0.2-1-0.4-1.5-0.7c-0.5-0.2-1-0.4-1.6-0.6c-0.5-0.2-1.1-0.4-1.6-0.6
		c-0.5-0.2-1.1-0.4-1.6-0.6c-1.1-0.4-2.2-0.7-3.3-1.1c-1.1-0.3-2.3-0.7-3.4-1c-1.2-0.3-2.3-0.6-3.5-0.9c-1.2-0.3-2.4-0.5-3.6-0.8
		c-1.2-0.2-2.5-0.5-3.8-0.7c-1.3-0.2-2.6-0.4-3.9-0.6c-1.3-0.2-2.7-0.3-4-0.4c-0.7-0.1-1.4-0.1-2-0.2c-0.7-0.1-1.4-0.1-2.1-0.1
		c-0.7,0-1.4-0.1-2.1-0.1c-0.7,0-1.4-0.1-2.1-0.1c-0.7,0-1.5,0-2.2-0.1c-0.7,0-1.5,0-2.2,0c-0.7,0-1.5,0-2.2,0c-0.3,0-0.6,0-0.9,0"
		/>
	<path class="st10" d="M52.4,397.2c3.3-22.7-3.3-36.6-8.4-45.6c-6.5-11.4-10.6-14.8-16.7-18c-5-2.6-11.3-5-27-5.1"/>
	<path class="st10" d="M23.8,0.4C17.1,9.1,9.2,16.9,0.3,24.1"/>
	<path class="st10" d="M41.9,0.4c-11.5,13.9-25.2,27.5-41.6,41"/>
	<path class="st10" d="M67.7,0.4C50.1,18.2,27.6,37,0.3,56.9"/>
	<path class="st10" d="M133.9,0.4C90.4,18.4,76.5,29.2,64.7,40C48.4,54.8,36.2,69.5,20.2,95.5c-5.9,9.6-12.3,20.8-20,32.7"/>
	<path class="st10" d="M0.3,82.7c20-17.6,31.3-28.6,45.8-41.5c12.1-10.8,26.6-23,47.8-40.8"/>
	<path class="st10" d="M397.1,133c-45.9,0-91.9,0-137.8,0c-15.9,0-28.7-12.8-28.7-28.7c0-34.6,0-69.3,0-103.9"/>
	<path class="st10" d="M0.3,204.2c28.3-33.1,39.8-46,51.1-54.4c14.1-10.6,27.9-14.4,43.5-16.3s32.9-1.9,48.4-6.9
		c15.5-5,29.1-15,38.2-25.1c9.2-10.1,14-20.2,16.5-29.9c2.3-9,2.7-17.6,3.1-24.7c0-14,0-28,0-42c0-1.5,0-3.1,0-4.6"/>
	<path class="st10" d="M0.3,174.6c26.1-35.7,35.1-58,42.2-74.3C51.9,78.9,58.1,68.1,64,59.7c6-8.4,11.7-14.4,16.9-19
		c5.3-4.6,10.1-7.8,17.4-10.6c6.3-2.4,14.4-4.5,25.8-6.9c21.2-5.5,38.4-11.5,51.8-18.2c3.1-1.5,6.1-3.1,9.2-4.6"/>
	<path class="st10" d="M82.1,87.3c-1,4.5-0.3,9.2,2.2,13.2c2.5,4,6.7,7.2,12.3,8.7c5.6,1.4,12.7,1,19.8-1.1
		c7.2-2.1,14.4-5.8,18.2-12.1c3.8-6.2,4.2-14.9,0.1-20.1c-4.2-5.1-12.9-6.7-21.4-6.4c-8.5,0.3-16.7,2.5-22.1,5.7
		C85.8,78.5,83.1,82.8,82.1,87.3z"/>
	<path class="st10" d="M175.2,90.4c-1.1,1-2.2,2-3.5,3c-13.8,11.2-38.8,22.2-57,24.8c-18.1,2.5-29.3-3.4-36-14.2S69.9,77.4,75.5,64
		c4.2-10,12.9-18.7,25.6-22.6c30.9-9.4,52.5-10.9,65-10.2c12.5,0.7,16,3.6,18.5,8.3s4.1,11.3,4,20C188.5,68.3,186.7,79.3,175.2,90.4
		z"/>
	<path class="st10" d="M310.6,397.2c0-3.3,0-6.5,0-9.8c0-12.5-10.1-22.6-22.6-22.6c-12.5,0-22.6,10.1-22.6,22.6c0,3.3,0,6.5,0,9.8"
		/>
	<path class="st10" d="M302.4,397.2c0-2.1,0-4.2,0-6.3c0-8-6.4-14.4-14.4-14.4c-8,0-14.4,6.4-14.4,14.4c0,2.1,0,4.2,0,6.3"/>
	<path class="st10" d="M314.2,397.2c0-4.1,0-8.2,0-12.3c0-15.7-12.7-28.4-28.4-28.4c-15.7,0-28.4,12.7-28.4,28.4c0,4.1,0,8.2,0,12.3
		"/>
	<path class="st10" d="M85.6,397.5c-3.7-27.3-14.4-48.7-32-64.2c-2.8-2.4-5.3-4.4-8-6.3c-6.2-4.2-13.5-7.4-21.9-9.3
		c-5.7-1.3-12-2-23.5-1.9"/>
	<path class="st10" d="M130.5,397.2c-6.7-40.3-15.3-64.9-32.7-88.7c-19.2-20.4-44.3-34.3-71.8-39.6c-17.3-8.7-13.1-28.3,1.1-48.6
		c0.9-1.4,1.7-2.8,2.6-4.1c10.2-16.3,19.5-32,27.6-41.4c8.1-9.5,15-12.8,21.9-15.4c6.9-2.6,13.8-4.4,27.1-6.5
		c13.3-2.1,33.2-4.4,49.8-6.2s30.1-3.3,41.2,0.4c11.1,3.7,19.7,12.4,31.7,16.1c12.1,3.7,27.6,2.4,45.2,1.9
		c17.7-0.5,37.5-0.2,63.8,6.6c17.2,4.4,37.1,11.7,59.2,25.3"/>
	<path class="st10" d="M70.3,397.2c-0.9-15.7-3.1-32-9.3-42c-3.9-5-7.9-9.1-11.3-12.8c-11.4-12.3-15.7-19.6-49.5-19.6"/>
	<path class="st10" d="M330.4,397.2c-3.2-36.8-12.8-42.7-19.9-46.5c-8.6-4.7-13.5-6.3-16.1-11.5c-2.6-5.2-3-13.9-5.6-22.7
		c-2.7-8.8-7.7-17.8-16.1-24.9c-8.4-7.1-20.3-12.3-29.2-18.3c-9-5.9-15-12.6-18.6-18c-3.6-5.4-4.8-9.6-4.4-12.5
		c0.3-2.9,2.1-4.4,4.4-4.4c2.3,0,5.2,1.6,8.8,4.4c3.6,2.8,8.1,6.9,12.7,11c4.6,4.1,9.2,8.2,16.3,12.9c7.1,4.7,16.6,10,29.5,17.1
		c1.2,0.6,2.4,1.3,3.6,2c53.7,30,70.2,35.2,101.5,61.4"/>
	<path class="st10" d="M151.8,397.2c-4.7-29-14-61.2-34.2-99.2c-0.3-0.5-0.7-1-1-1.5c-10-14.4-20.2-28.6-25.1-39.3
		c-5-10.7-4.7-17.9-2.1-27.1c2.5-9.2,7.4-20.4,16.8-29.3s23.5-15.5,40.3-18.9c16.9-3.4,36.5-3.5,50.8,1.1
		c14.2,4.7,23.1,14.1,30.1,26.2c7.1,12.1,12.5,26.7,36.5,40.7c18.2,10.6,47.1,20.8,92.2,48.4c13,7.2,25.9,14.5,38.9,21.7
		c0.7,0.4,1.5,0.7,2.2,1.1"/>
	<path class="st10" d="M397.1,292.4c-2.1-1-4.3-2-6.4-3c-24.7-11.5-49.5-23-74.2-34.6c-7-3.4-13-6.1-18.3-8.6
		c-21-9.9-32.3-17.1-40.6-26.6c-8.4-9.5-13.8-21.2-19.7-30.1c-5.9-8.9-12.4-14.9-22.5-19.4c-10.1-4.5-23.7-7.4-38-7.8
		c-14.3-0.4-29.1,1.6-42.2,5.2c-13,3.5-24.3,8.6-34.7,17.5c-10.5,9-20.3,21.9-23.7,36.1c-3.5,14.3-0.6,29.9,5.1,42.4
		c5.1,11,12.5,19.6,23.2,32.5c20,25.5,28.8,54.1,36.9,101.3"/>
	<path class="st10" d="M324.8,23c-6.2-0.2-13.6-1.1-20.2-3c-6.6-1.9-12.3-4.8-17.7-4.6c-5.4,0.3-10.4,3.8-14.4,9.1
		c-4,5.3-6.8,12.5-5.8,18.9c1.1,6.3,6,11.8,12.4,16c6.4,4.3,14.3,7.4,22.1,7.3c7.8-0.1,15.6-3.3,22.2-5.8c6.6-2.5,12-4.2,17.2-7.3
		c5.2-3.1,10.3-7.5,10.4-13c0.1-5.5-4.8-11.9-9.8-14.9S331,23.2,324.8,23z"/>
	<path class="st10" d="M164.8,397.2c-3-24.3-8.3-39.4-13.4-52.8c-6.3-16.6-12.3-30.6-14-40.9c-0.2-1.1-0.3-2.1-0.4-3.1
		c-1.1-10.1,0.4-17.2,4.7-21.4c2.8-3.1,5.4-5.8,7.8-8.2c13.9-11.5,20.6-12.7,28.1-12.7c7.5,0,15.7,1.2,35,18.9
		c11,11.8,25.6,33.2,36.3,88.8c1,7.4,1.7,17.9,2.3,31.5"/>
	<path class="st10" d="M314.1,176c18.2,0.3,38.1,5,50.8,14.9s18.2,25,14.5,38.1c-3.7,13.1-16.7,24.2-30.3,23.4
		c-13.6-0.8-27.9-13.5-42.3-22.1c-14.4-8.6-28.9-13-36.3-20c-7.3-7-7.5-16.7,0.7-23.6C279.4,179.8,295.9,175.7,314.1,176z"/>
	<path class="st10" d="M164.3,318.5c-1.1-4.1-2.1-8.6-1.1-12.6c1-4,3.9-7.4,7.2-9.8c3.3-2.5,6.9-4,11.5-3.3
		c4.5,0.6,9.9,3.3,12.6,6.8c2.7,3.5,2.6,7.7,2.8,12.7c0.1,4.9,0.5,10.6,2.3,15.3c1.8,4.7,5,8.4,4.9,12.3c-0.1,3.9-3.7,7.8-8.5,8.8
		c-4.8,0.9-11-1.2-15.9-4.8c-4.9-3.6-8.6-8.7-11-13.1C166.4,326.2,165.3,322.5,164.3,318.5z"/>
	<path class="st10" d="M397.1,122.7c-37.4,0-74.8,0-112.2,0c-13.4,0-24.3-10.9-24.3-24.3c0-1.9,0-3.8,0-5.7c0-13.3-4.2-23-7.7-31.7
		s-6.2-16.3-7.3-23.5c-1.1-7.2-0.6-13.9,1.4-20.6c1.4-4.6,3.5-9.2,10.4-16.7"/>
	<path class="st10" d="M397.1,108.7c-29.4,0-58.8,0-88.2,0c-12.1,0-21.9-9.8-21.9-21.9c-2.5-9.6-7.6-12.1-11.8-14.8
		c-4.2-2.7-7.4-5.4-10.7-10.9c-3.4-5.4-6.9-13.5-9.1-19.8c-2.2-6.3-3.1-10.9-2.7-15.6c0.4-4.7,2.1-9.6,5.7-13.1
		c3.6-3.5,9.2-5.5,17.6-6.1c6.9-0.4,15.9,0.1,26.1-6.2"/>
	<path class="st10" d="M177.4,397.2c0.3-6.9,0-14.2-1-21.9c-2-16.2-5.5-26.3-8.9-35.2c-4.2-11-8.2-20.4-9.3-27.2
		c-0.1-0.7-0.2-1.4-0.3-2.1c-0.8-6.7,0.3-11.5,3.1-14.3c1.8-2,3.6-3.8,5.2-5.4c9.2-7.7,13.7-8.5,18.7-8.5c5,0,10.5,0.8,23.3,12.6
		c7.3,7.9,17.1,22.1,24.2,59.1c0.7,5,1.2,11.9,1.5,21c0,7.3,0,14.6,0,21.9"/>
</g>
<g id="PLAN::FOND">
</g>
<g id="INFOS::CADRES_2" class="st0">
	<g class="st12">
		<path class="st13" d="M396.4,1.1v395.5H1V1.1H396.4 M397.1,0.4H0.3v396.9h396.9V0.4L397.1,0.4z"/>
	</g>
</g>
<g id="BLOCK_SPECTIFIQUES::MEUBLE_FITNESS">
	<rect x="134.6" y="204.6" transform="matrix(0.9408 -0.339 0.339 0.9408 -62.6571 58.8)" class="st4" width="4.7" height="8.3"/>
	
		<rect x="320.7" y="185.7" transform="matrix(0.9408 -0.339 0.339 0.9408 -45.2202 120.7251)" class="st4" width="4.7" height="8.3"/>
	
		<rect x="287.9" y="267.5" transform="matrix(0.9408 -0.339 0.339 0.9408 -74.8913 114.4834)" class="st4" width="4.7" height="8.3"/>
	
		<rect x="183.7" y="305.4" transform="matrix(0.9408 -0.339 0.339 0.9408 -93.9006 81.3993)" class="st4" width="4.7" height="8.3"/>
	<rect x="37.3" y="8.8" transform="matrix(0.4903 -0.8716 0.8716 0.4903 11.4047 41.7632)" class="st4" width="8.3" height="4.7"/>
	
		<rect x="298.6" y="54.9" transform="matrix(0.4903 -0.8716 0.8716 0.4903 104.4728 293.0391)" class="st4" width="8.3" height="4.7"/>
	
		<rect x="271.1" y="196.5" transform="matrix(0.4903 -0.8716 0.8716 0.4903 -33.0407 341.2262)" class="st4" width="8.3" height="4.7"/>
	
		<rect x="94.5" y="76.4" transform="matrix(0.4903 -0.8716 0.8716 0.4903 -18.323 126.1326)" class="st4" width="8.3" height="4.7"/>
	
		<rect x="12.5" y="213.1" transform="matrix(0.4903 -0.8716 0.8716 0.4903 -179.2752 124.3319)" class="st4" width="8.3" height="4.7"/>
	
		<rect x="16.3" y="193.7" transform="matrix(0.9681 -0.2506 0.2506 0.9681 -48.9963 10.9959)" class="st4" width="4.7" height="8.3"/>
	<rect x="375.9" y="35.9" transform="matrix(0.9614 -0.2753 0.2753 0.9614 3.73 106.076)" class="st4" width="7.8" height="7.8"/>
	<rect x="50" y="212.3" transform="matrix(0.9614 -0.2753 0.2753 0.9614 -57.4394 23.1947)" class="st4" width="7.8" height="7.8"/>
	
		<rect x="157.8" y="59.2" transform="matrix(0.9614 -0.2753 0.2753 0.9614 -11.125 46.9452)" class="st4" width="7.8" height="7.8"/>
	
		<rect x="240.6" y="106.4" transform="matrix(0.9614 -0.2753 0.2753 0.9614 -20.9133 71.5488)" class="st4" width="7.8" height="7.8"/>
	
		<rect x="368.2" y="352.4" transform="matrix(0.9614 -0.2753 0.2753 0.9614 -83.7109 116.2034)" class="st4" width="7.8" height="7.8"/>
	
		<rect x="303.8" y="321.1" transform="matrix(0.9614 -0.2753 0.2753 0.9614 -77.5668 97.261)" class="st4" width="7.8" height="7.8"/>
	
		<rect x="336.3" y="208.1" transform="matrix(0.9614 -0.2753 0.2753 0.9614 -45.2093 101.8444)" class="st4" width="7.8" height="7.8"/>
	
		<rect x="105.2" y="231.5" transform="matrix(4.622353e-02 -0.9989 0.9989 4.622353e-02 -131.0856 333.5689)" class="st4" width="7.8" height="7.8"/>
	
		<rect x="207.3" y="354.9" transform="matrix(4.622349e-02 -0.9989 0.9989 4.622349e-02 -156.9517 553.1503)" class="st4" width="7.8" height="7.8"/>
	
		<rect x="16.5" y="350.3" transform="matrix(4.623574e-02 -0.9989 0.9989 4.623574e-02 -334.398 358.1459)" class="st4" width="7.8" height="7.8"/>
	
		<rect x="350.6" y="87.7" transform="matrix(0.9084 -0.4181 0.4181 0.9084 -5.8175 156.5872)" class="st4" width="7.8" height="7.8"/>
	
		<rect x="45.4" y="116.3" transform="matrix(0.9084 -0.4181 0.4181 0.9084 -45.7268 31.6203)" class="st4" width="7.8" height="7.8"/>
	
		<rect x="149.1" y="210.5" transform="matrix(0.9084 -0.4181 0.4181 0.9084 -75.6485 83.5949)" class="st4" width="7.8" height="7.8"/>
	<rect x="169.7" y="205.8" class="st4" width="7.8" height="7.8"/>
	<rect x="42.7" y="231.6" class="st4" width="7.8" height="7.8"/>
	<path class="st4" d="M324.9,39.4c0.2,3,2.9,5.3,5.9,5.1s5.3-2.9,5.1-5.9c-0.2-3-2.9-5.3-5.9-5.1C326.9,33.7,324.7,36.3,324.9,39.4z
		"/>
	<path class="st4" d="M377.5,265.3c0.2,3,2.9,5.3,5.9,5.1s5.3-2.9,5.1-5.9s-2.9-5.3-5.9-5.1C379.6,259.6,377.3,262.2,377.5,265.3z"
		/>
	<path class="st4" d="M343.5,357.2c0.2,3,2.9,5.3,5.9,5.1c3-0.2,5.3-2.9,5.1-5.9c-0.2-3-2.9-5.3-5.9-5.1S343.3,354.2,343.5,357.2z"
		/>
	<path class="st4" d="M3.5,90.9c0.2,3,2.9,5.3,5.9,5.1c3-0.2,5.3-2.9,5.1-5.9c-0.2-3-2.9-5.3-5.9-5.1S3.3,87.8,3.5,90.9z"/>
	<path class="st4" d="M92.8,171.4c0.2,3,2.9,5.3,5.9,5.1c3-0.2,5.3-2.9,5.1-5.9c-0.2-3-2.9-5.3-5.9-5.1
		C94.8,165.7,92.6,168.4,92.8,171.4z"/>
	<path class="st4" d="M145.6,44.3c0.2,3,2.9,5.3,5.9,5.1c3-0.2,5.3-2.9,5.1-5.9c-0.2-3-2.9-5.3-5.9-5.1
		C147.7,38.6,145.4,41.2,145.6,44.3z"/>
	<path class="st4" d="M119.6,88.9c0.2,3,2.9,5.3,5.9,5.1c3-0.2,5.3-2.9,5.1-5.9c-0.2-3-2.9-5.3-5.9-5.1S119.4,85.9,119.6,88.9z"/>
	<path class="st4" d="M296.2,93.4c0.2,3,2.9,5.3,5.9,5.1c3-0.2,5.3-2.9,5.1-5.9c-0.2-3-2.9-5.3-5.9-5.1
		C298.2,87.7,296,90.4,296.2,93.4z"/>
	<path class="st4" d="M292.2,191.5c0.2,3,2.9,5.3,5.9,5.1s5.3-2.9,5.1-5.9s-2.9-5.3-5.9-5.1C294.3,185.8,292,188.4,292.2,191.5z"/>
	<path class="st4" d="M14.5,381.3c0.2,3,2.9,5.3,5.9,5.1s5.3-2.9,5.1-5.9c-0.2-3-2.9-5.3-5.9-5.1C16.6,375.6,14.3,378.3,14.5,381.3z
		"/>
	<path class="st4" d="M63.4,311.2c0.2,3,2.9,5.3,5.9,5.1c3-0.2,5.3-2.9,5.1-5.9c-0.2-3-2.9-5.3-5.9-5.1
		C65.4,305.5,63.2,308.2,63.4,311.2z"/>
	<path class="st4" d="M117.1,242.6c0.2,3,2.9,5.3,5.9,5.1s5.3-2.9,5.1-5.9c-0.2-3-2.9-5.3-5.9-5.1
		C119.1,236.9,116.9,239.5,117.1,242.6z"/>
	<path class="st4" d="M172.2,322.5c0.2,3,2.9,5.3,5.9,5.1c3-0.2,5.3-2.9,5.1-5.9c-0.2-3-2.9-5.3-5.9-5.1
		C174.2,316.8,171.9,319.5,172.2,322.5z"/>
	
		<rect x="381.5" y="80.8" transform="matrix(0.9948 -0.1015 0.1015 0.9948 -6.3568 39.4814)" class="st4" width="6.7" height="2.7"/>
	<rect x="241.8" y="64.3" transform="matrix(0.5236 -0.852 0.852 0.5236 60.843 240.1148)" class="st4" width="6.7" height="2.7"/>
	
		<rect x="3.6" y="229.9" transform="matrix(0.5944 -0.8042 0.8042 0.5944 -183.1867 99.4179)" class="st4" width="6.7" height="2.7"/>
	
		<rect x="9.3" y="233.5" transform="matrix(0.5236 -0.852 0.852 0.5236 -194.0852 122.6496)" class="st4" width="6.7" height="2.7"/>
	
		<rect x="62.7" y="265.4" transform="matrix(0.9993 -3.680267e-02 3.680267e-02 0.9993 -9.7741 2.6128)" class="st4" width="6.7" height="2.7"/>
	
		<rect x="63.5" y="272.1" transform="matrix(0.9925 -0.1219 0.1219 0.9925 -32.8376 10.1859)" class="st4" width="6.7" height="2.7"/>
	
		<rect x="112.7" y="378.4" transform="matrix(0.9993 -3.680322e-02 3.680322e-02 0.9993 -13.8991 4.5297)" class="st4" width="6.7" height="2.7"/>
	
		<rect x="113.5" y="385.1" transform="matrix(0.9925 -0.1219 0.1219 0.9925 -46.2398 17.1242)" class="st4" width="6.7" height="2.7"/>
	
		<rect x="205.4" y="318.3" transform="matrix(0.9993 -3.680322e-02 3.680322e-02 0.9993 -11.6218 7.8991)" class="st4" width="6.7" height="2.7"/>
	
		<rect x="206.1" y="324.9" transform="matrix(0.9925 -0.1219 0.1219 0.9925 -38.213 27.9705)" class="st4" width="6.7" height="2.7"/>
	
		<rect x="93.2" y="140.2" transform="matrix(0.562 -0.8272 0.8272 0.562 -75.7387 140.4758)" class="st4" width="3.1" height="3.1"/>
	
		<rect x="59.2" y="159.7" transform="matrix(0.562 -0.8272 0.8272 0.562 -106.7483 120.8356)" class="st4" width="3.1" height="3.1"/>
	
		<rect x="147.1" y="128.2" transform="matrix(0.562 -0.8272 0.8272 0.562 -42.1823 179.7644)" class="st4" width="3.1" height="3.1"/>
	<rect x="65.7" y="62.4" transform="matrix(0.562 -0.8272 0.8272 0.562 -23.4012 83.6496)" class="st4" width="3.1" height="3.1"/>
	<rect x="71.5" y="4.2" transform="matrix(0.562 -0.8272 0.8272 0.562 27.1798 62.923)" class="st4" width="3.1" height="3.1"/>
	
		<rect x="350.5" y="136.6" transform="matrix(0.9948 -0.1016 0.1016 0.9948 -12.2133 36.482)" class="st4" width="3.1" height="3.1"/>
	
		<rect x="320" y="126.4" transform="matrix(0.5148 -0.8573 0.8573 0.5148 46.2958 337.7229)" class="st4" width="3.1" height="3.1"/>
	
		<rect x="242.9" y="154.4" transform="matrix(0.5148 -0.8573 0.8573 0.5148 -15.0953 285.2269)" class="st4" width="3.1" height="3.1"/>
	<rect x="385" y="175.9" transform="matrix(0.5148 -0.8573 0.8573 0.5148 35.388 417.4832)" class="st4" width="3.1" height="3.1"/>
	
		<rect x="72.4" y="186.3" transform="matrix(0.5148 -0.8573 0.8573 0.5148 -125.1449 154.508)" class="st4" width="3.1" height="3.1"/>
	
		<rect x="127.1" y="176.4" transform="matrix(0.986 -0.1669 0.1669 0.986 -27.8927 23.9638)" class="st4" width="3.1" height="3.1"/>
	
		<rect x="148.9" y="278.1" transform="matrix(0.986 -0.1669 0.1669 0.986 -44.5612 29.0281)" class="st4" width="3.1" height="3.1"/>
	
		<rect x="205.9" y="281.3" transform="matrix(0.7509 -0.6604 0.6604 0.7509 -135.0876 207.4832)" class="st4" width="3.1" height="3.1"/>
	
		<rect x="155.9" y="283.5" transform="matrix(0.7509 -0.6604 0.6604 0.7509 -149.0036 174.9837)" class="st4" width="3.1" height="3.1"/>
	<rect x="149.8" y="295.6" transform="matrix(0.986 -0.1669 0.1669 0.986 -47.474 29.4355)" class="st4" width="3.1" height="3.1"/>
	
		<rect x="121" y="271.2" transform="matrix(0.6039 -0.797 0.797 0.6039 -170.5918 207.3787)" class="st4" width="4.7" height="8.3"/>
	
		<rect x="102.7" y="351.4" transform="matrix(0.6039 -0.797 0.797 0.6039 -241.8105 224.5195)" class="st4" width="4.7" height="8.3"/>
	<rect x="104.4" y="156.8" transform="matrix(0.6039 -0.797 0.797 0.6039 -86.01 148.8097)" class="st4" width="4.7" height="8.3"/>
	
		<rect x="35" y="85.4" transform="matrix(8.497591e-02 -0.9964 0.9964 8.497591e-02 -51.6318 119.2758)" class="st4" width="8.3" height="4.7"/>
	
		<rect x="380.2" y="154.8" transform="matrix(0.4829 -0.8757 0.8757 0.4829 58.5841 417.1687)" class="st4" width="4.7" height="8.3"/>
	
		<rect x="368.2" y="156.8" transform="matrix(0.9461 -0.3239 0.3239 0.9461 -32.1417 128.6898)" class="st4" width="4.7" height="8.3"/>
	
		<rect x="300.8" y="155.2" transform="matrix(0.5148 -0.8573 0.8573 0.5148 12.3492 335.2736)" class="st4" width="3.1" height="3.1"/>
	
		<rect x="308" y="153.5" transform="matrix(0.5148 -0.8573 0.8573 0.5148 17.2817 340.6533)" class="st4" width="3.1" height="3.1"/>
	
		<rect x="328.2" y="162.6" transform="matrix(0.5148 -0.8573 0.8573 0.5148 19.3044 362.3899)" class="st4" width="3.1" height="3.1"/>
	
		<rect x="342.5" y="154.4" transform="matrix(0.5148 -0.8573 0.8573 0.5148 33.215 370.6588)" class="st4" width="3.1" height="3.1"/>
	
		<rect x="314.2" y="244.2" transform="matrix(0.4164 -0.9092 0.9092 0.4164 -39.1766 430.5237)" class="st4" width="3.1" height="3.1"/>
	
		<rect x="299" y="241.1" transform="matrix(0.4164 -0.9092 0.9092 0.4164 -45.2536 414.841)" class="st4" width="3.1" height="3.1"/>
	
		<rect x="366.3" y="291.1" transform="matrix(4.622294e-02 -0.9989 0.9989 4.622294e-02 58.3341 651.1707)" class="st4" width="7.8" height="7.8"/>
	
		<rect x="46.2" y="260.1" transform="matrix(4.623633e-02 -0.9989 0.9989 4.623633e-02 -215.901 301.7999)" class="st4" width="7.8" height="7.8"/>
	
		<rect x="200.2" y="95.7" transform="matrix(4.622353e-02 -0.9989 0.9989 4.622353e-02 95.183 298.7861)" class="st4" width="7.8" height="7.8"/>
	<rect x="78.9" y="20.5" transform="matrix(0.8783 -0.478 0.478 0.8783 -0.7536 41.1157)" class="st4" width="3.1" height="3.1"/>
	<rect x="91.5" y="88.6" transform="matrix(0.8784 -0.478 0.478 0.8784 -31.8009 55.4327)" class="st4" width="3.1" height="3.1"/>
	
		<rect x="301.4" y="274.2" transform="matrix(0.8783 -0.478 0.478 0.8783 -94.9543 178.3744)" class="st4" width="3.1" height="3.1"/>
	
		<rect x="179.6" y="263.6" transform="matrix(0.3748 -0.9271 0.9271 0.3748 -132.563 333.7726)" class="st4" width="3.1" height="3.1"/>
	
		<rect x="178.8" y="268.8" transform="matrix(6.717671e-02 -0.9977 0.9977 6.717671e-02 -103.2886 435.3756)" class="st4" width="4.7" height="8.3"/>
	<circle class="st4" cx="212.7" cy="180.6" r="2.7"/>
	
		<rect x="188.1" y="124.3" transform="matrix(0.7853 -0.6191 0.6191 0.7853 -37.179 144.4324)" class="st4" width="3.1" height="3.1"/>
	
		<rect x="171.4" y="124.3" transform="matrix(0.866 -0.5001 0.5001 0.866 -40.6864 103.5086)" class="st4" width="2.7" height="6.7"/>
	
		<rect x="176.9" y="120.5" transform="matrix(0.8202 -0.5721 0.5721 0.8202 -38.8139 124.2923)" class="st4" width="2.7" height="6.7"/>
	
		<rect x="198.6" y="116.6" transform="matrix(0.988 -0.1546 0.1546 0.988 -15.9465 32.7607)" class="st4" width="8.3" height="4.7"/>
	<path class="st4" d="M201.9,134.1c0.2,3,2.9,5.3,5.9,5.1c3-0.2,5.3-2.9,5.1-5.9c-0.2-3-2.9-5.3-5.9-5.1S201.6,131,201.9,134.1z"/>
	
		<rect x="204.8" y="8.4" transform="matrix(0.7853 -0.6191 0.6191 0.7853 38.1349 129.9187)" class="st4" width="3.1" height="3.1"/>
	
		<rect x="209.1" y="13.8" transform="matrix(0.7853 -0.6191 0.6191 0.7853 35.7248 133.7154)" class="st4" width="3.1" height="3.1"/>
	
		<rect x="221.9" y="18.8" transform="matrix(0.7853 -0.6191 0.6191 0.7853 35.3698 142.7039)" class="st4" width="3.1" height="3.1"/>
	
		<rect x="207.8" y="50.1" transform="matrix(0.7853 -0.6191 0.6191 0.7853 12.9531 140.7079)" class="st4" width="3.1" height="3.1"/>
	<circle class="st4" cx="222.3" cy="32.9" r="2.7"/>
	<rect x="24.3" y="161" transform="matrix(0.7853 -0.6191 0.6191 0.7853 -95.0918 50.8777)" class="st4" width="3.1" height="3.1"/>
	
		<rect x="121.4" y="282.2" transform="matrix(0.7853 -0.6191 0.6191 0.7853 -149.2585 137.06)" class="st4" width="3.1" height="3.1"/>
	
		<rect x="157.6" y="347.4" transform="matrix(0.7853 -0.6191 0.6191 0.7853 -181.8996 173.4634)" class="st4" width="3.1" height="3.1"/>
	
		<rect x="158.2" y="337.3" transform="matrix(0.7853 -0.6191 0.6191 0.7853 -175.4786 171.623)" class="st4" width="3.1" height="3.1"/>
	
		<rect x="59.6" y="382.8" transform="matrix(0.7853 -0.6191 0.6191 0.7853 -224.8033 120.3492)" class="st4" width="3.1" height="3.1"/>
	
		<rect x="243.4" y="295.1" transform="matrix(0.9937 -0.1119 0.1119 0.9937 -31.6521 29.2683)" class="st4" width="3.1" height="3.1"/>
	
		<rect x="236.3" y="295.9" transform="matrix(0.9937 -0.1119 0.1119 0.9937 -31.7854 28.4784)" class="st4" width="3.1" height="3.1"/>
	
		<rect x="256.3" y="321.3" transform="matrix(0.2609 -0.9654 0.9654 0.2609 -119.938 490.5905)" class="st4" width="8.3" height="4.7"/>
	
		<rect x="249.5" y="319.4" transform="matrix(0.2609 -0.9654 0.9654 0.2609 -123.1948 482.6545)" class="st4" width="8.3" height="4.7"/>
	
		<rect x="140.7" y="155.8" transform="matrix(0.7853 -0.6191 0.6191 0.7853 -66.8964 121.8254)" class="st4" width="3.1" height="3.1"/>
	
		<rect x="131.6" y="156.2" transform="matrix(0.7853 -0.6191 0.6191 0.7853 -69.1052 116.3248)" class="st4" width="3.1" height="3.1"/>
	<rect x="128.3" y="43.2" transform="matrix(0.8784 -0.478 0.478 0.8784 -5.6078 67.5397)" class="st4" width="3.1" height="3.1"/>
	<rect x="134.6" y="39.5" transform="matrix(0.8783 -0.478 0.478 0.8783 -3.0689 70.1029)" class="st4" width="3.1" height="3.1"/>
	<rect x="138.2" y="46" transform="matrix(0.8784 -0.478 0.478 0.8784 -5.7418 72.5736)" class="st4" width="3.1" height="3.1"/>
	<rect x="178.2" y="41.9" transform="matrix(0.8783 -0.478 0.478 0.8783 1.0787 91.2195)" class="st4" width="3.1" height="3.1"/>
	
		<rect x="177.9" y="148.3" transform="matrix(0.3033 -0.9529 0.9529 0.3033 -17.7277 275.4237)" class="st4" width="3.1" height="3.1"/>
	
		<rect x="193.8" y="187" transform="matrix(0.3033 -0.9529 0.9529 0.3033 -43.5853 317.4616)" class="st4" width="3.1" height="3.1"/>
	
		<rect x="218.9" y="179.4" transform="matrix(0.3033 -0.9529 0.9529 0.3033 -18.7945 336.1154)" class="st4" width="3.1" height="3.1"/>
	<path class="st4" d="M188.8,327.3c0,1.5,1.2,2.7,2.7,2.7c1.5,0,2.7-1.2,2.7-2.7c0-1.5-1.2-2.7-2.7-2.7
		C190,324.6,188.8,325.8,188.8,327.3z"/>
	<path class="st4" d="M323.4,331.9c0,1.5,1.2,2.7,2.7,2.7c1.5,0,2.7-1.2,2.7-2.7c0-1.5-1.2-2.7-2.7-2.7
		C324.6,329.2,323.4,330.4,323.4,331.9z"/>
	<path class="st4" d="M327.9,322.8c0,1.5,1.2,2.7,2.7,2.7c1.5,0,2.7-1.2,2.7-2.7c0-1.5-1.2-2.7-2.7-2.7
		C329.1,320.1,327.9,321.3,327.9,322.8z"/>
	<path class="st4" d="M273,348.1c0,1.5,1.2,2.7,2.7,2.7c1.5,0,2.7-1.2,2.7-2.7c0-1.5-1.2-2.7-2.7-2.7
		C274.2,345.4,273,346.6,273,348.1z"/>
	<path class="st4" d="M212.3,262.3c0,1.5,1.2,2.7,2.7,2.7c1.5,0,2.7-1.2,2.7-2.7c0-1.5-1.2-2.7-2.7-2.7
		C213.5,259.6,212.3,260.8,212.3,262.3z"/>
	<path class="st4" d="M204.3,245.9c0,1.5,1.2,2.7,2.7,2.7c1.5,0,2.7-1.2,2.7-2.7c0-1.5-1.2-2.7-2.7-2.7
		C205.5,243.2,204.3,244.4,204.3,245.9z"/>
	<path class="st4" d="M183.7,243.1c0,1.5,1.2,2.7,2.7,2.7c1.5,0,2.7-1.2,2.7-2.7c0-1.5-1.2-2.7-2.7-2.7
		C184.9,240.4,183.7,241.6,183.7,243.1z"/>
	<path class="st4" d="M381.4,244.5c0,1.5,1.2,2.7,2.7,2.7c1.5,0,2.7-1.2,2.7-2.7c0-1.5-1.2-2.7-2.7-2.7
		C382.6,241.8,381.4,243,381.4,244.5z"/>
	<path class="st4" d="M362.9,99.7c0,1.5,1.2,2.7,2.7,2.7c1.5,0,2.7-1.2,2.7-2.7c0-1.5-1.2-2.7-2.7-2.7
		C364.1,97.1,362.9,98.3,362.9,99.7z"/>
	<circle class="st4" cx="289.9" cy="36.3" r="2.7"/>
	<circle class="st4" cx="23.5" cy="152.1" r="2.7"/>
	<path class="st4" d="M32,152.3c0,1.5,1.2,2.7,2.7,2.7c1.5,0,2.7-1.2,2.7-2.7c0-1.5-1.2-2.7-2.7-2.7C33.2,149.6,32,150.8,32,152.3z"
		/>
	<path class="st4" d="M17,76.6c0,1.5,1.2,2.7,2.7,2.7c1.5,0,2.7-1.2,2.7-2.7c0-1.5-1.2-2.7-2.7-2.7C18.2,73.9,17,75.1,17,76.6z"/>
	<path class="st4" d="M101.4,86.7c0,1.5,1.2,2.7,2.7,2.7c1.5,0,2.7-1.2,2.7-2.7c0-1.5-1.2-2.7-2.7-2.7
		C102.6,84.1,101.4,85.3,101.4,86.7z"/>
	<path class="st4" d="M147.1,72.8c0,1.5,1.2,2.7,2.7,2.7c1.5,0,2.7-1.2,2.7-2.7c0-1.5-1.2-2.7-2.7-2.7
		C148.3,70.1,147.1,71.3,147.1,72.8z"/>
	<circle class="st4" cx="140" cy="67.9" r="2.7"/>
	
		<rect x="296.2" y="389.1" transform="matrix(0.9024 -0.4309 0.4309 0.9024 -139.2572 166.409)" class="st4" width="3.1" height="3.1"/>
	
		<rect x="275.9" y="372.2" transform="matrix(0.9024 -0.4309 0.4309 0.9024 -133.9796 156.0214)" class="st4" width="3.1" height="3.1"/>
	
		<rect x="210.8" y="378" transform="matrix(0.9927 -0.1209 0.1209 0.9927 -44.3226 28.4507)" class="st4" width="3.1" height="3.1"/>
	
		<rect x="166.9" y="301.4" transform="matrix(0.1963 -0.9805 0.9805 0.1963 -161.6799 408.7168)" class="st4" width="3.1" height="3.1"/>
	
		<rect x="175.8" y="308.4" transform="matrix(0.1963 -0.9805 0.9805 0.1963 -161.4129 423.0294)" class="st4" width="3.1" height="3.1"/>
	
		<rect x="184.4" y="335.8" transform="matrix(0.1963 -0.9805 0.9805 0.1963 -181.3759 453.4402)" class="st4" width="3.1" height="3.1"/>
	
		<rect x="66.6" y="321.1" transform="matrix(0.8442 -0.536 0.536 0.8442 -162.3421 86.7814)" class="st4" width="3.1" height="3.1"/>
	<rect x="59.5" y="295.8" transform="matrix(0.8442 -0.536 0.536 0.8442 -149.883 79.0604)" class="st4" width="3.1" height="3.1"/>
	
		<rect x="33.7" y="301.4" transform="matrix(0.132 -0.9912 0.9912 0.132 -269.7275 297.9557)" class="st4" width="3.1" height="3.1"/>
	
		<rect x="82.6" y="328.4" transform="matrix(0.1321 -0.9912 0.9912 0.1321 -254.0582 369.8347)" class="st4" width="3.1" height="3.1"/>
	
		<rect x="78.4" y="318.2" transform="matrix(0.1321 -0.9912 0.9912 0.1321 -247.6268 356.7498)" class="st4" width="3.1" height="3.1"/>
	<rect x="7" y="282" transform="matrix(0.8232 -0.5677 0.5677 0.8232 -159.4645 54.9612)" class="st4" width="3.1" height="3.1"/>
	
		<rect x="13" y="301.4" transform="matrix(0.8232 -0.5677 0.5677 0.8232 -169.4497 61.8241)" class="st4" width="3.1" height="3.1"/>
	
		<rect x="27.7" y="293.8" transform="matrix(0.8232 -0.5677 0.5677 0.8232 -162.4986 68.8235)" class="st4" width="3.1" height="3.1"/>
	
		<rect x="46.9" y="289.2" transform="matrix(0.8232 -0.5677 0.5677 0.8232 -156.4727 78.9096)" class="st4" width="3.1" height="3.1"/>
	<rect x="47.6" y="307.2" class="st4" width="3.1" height="3.1"/>
	
		<rect x="348.9" y="242.6" transform="matrix(9.803221e-02 -0.9952 0.9952 9.803221e-02 73.1441 568.9108)" class="st4" width="3.1" height="3.1"/>
	
		<rect x="330.6" y="235" transform="matrix(9.802906e-02 -0.9952 0.9952 9.802906e-02 64.095 543.9131)" class="st4" width="3.1" height="3.1"/>
	
		<rect x="348.9" y="187.2" transform="matrix(9.803221e-02 -0.9952 0.9952 9.803221e-02 128.2757 518.9432)" class="st4" width="3.1" height="3.1"/>
	
		<rect x="358.8" y="211.3" transform="matrix(9.803221e-02 -0.9952 0.9952 9.803221e-02 113.1583 550.6057)" class="st4" width="3.1" height="3.1"/>
	
		<rect x="369" y="208.3" transform="matrix(9.803221e-02 -0.9952 0.9952 9.803221e-02 125.3546 558.0573)" class="st4" width="3.1" height="3.1"/>
	
		<rect x="330.4" y="195.4" transform="matrix(9.806105e-02 -0.9952 0.9952 9.806105e-02 103.3933 508.0071)" class="st4" width="3.1" height="3.1"/>
	
		<rect x="336.1" y="202" transform="matrix(9.802907e-02 -0.9952 0.9952 9.802907e-02 101.9886 519.6526)" class="st4" width="3.1" height="3.1"/>
	
		<rect x="329.4" y="204.6" transform="matrix(9.806413e-02 -0.9952 0.9952 9.806413e-02 93.3875 515.2884)" class="st4" width="3.1" height="3.1"/>
	
		<rect x="313.3" y="183.9" transform="matrix(9.806394e-02 -0.9952 0.9952 9.806394e-02 99.4031 480.5554)" class="st4" width="3.1" height="3.1"/>
	
		<rect x="290.2" y="214.7" transform="matrix(0.936 -0.3519 0.3519 0.936 -57.4416 116.5033)" class="st4" width="3.1" height="3.1"/>
	
		<rect x="301.3" y="220.9" transform="matrix(0.936 -0.3519 0.3519 0.936 -58.9209 120.7868)" class="st4" width="3.1" height="3.1"/>
	
		<rect x="293.8" y="209.2" transform="matrix(0.936 -0.3519 0.3519 0.936 -55.2747 117.4019)" class="st4" width="3.1" height="3.1"/>
	
		<rect x="283.7" y="211" transform="matrix(0.1773 -0.9842 0.9842 0.1773 25.4669 455.6303)" class="st4" width="3.1" height="3.1"/>
	
		<rect x="277.7" y="205.1" transform="matrix(0.1773 -0.9842 0.9842 0.1773 26.4274 444.8803)" class="st4" width="3.1" height="3.1"/>
	
		<rect x="286.9" y="205.1" transform="matrix(0.1773 -0.9842 0.9842 0.1773 33.9564 453.8869)" class="st4" width="3.1" height="3.1"/>
	
		<rect x="291.9" y="199.6" transform="matrix(0.1773 -0.9842 0.9842 0.1773 43.5027 454.3229)" class="st4" width="3.1" height="3.1"/>
	<rect x="301.3" y="206" transform="matrix(0.1773 -0.9842 0.9842 0.1773 44.916 468.8275)" class="st4" width="3.1" height="3.1"/>
	
		<rect x="282.1" y="95.7" transform="matrix(0.1772 -0.9842 0.9842 0.1772 137.6567 359.174)" class="st4" width="3.1" height="3.1"/>
	
		<rect x="265.6" y="79.5" transform="matrix(0.1773 -0.9842 0.9842 0.1773 140.0203 329.5774)" class="st4" width="3.1" height="3.1"/>
	
		<rect x="268.6" y="107.4" transform="matrix(0.1773 -0.9842 0.9842 0.1773 115.0623 355.5609)" class="st4" width="3.1" height="3.1"/>
	<rect x="277.3" y="107" transform="matrix(0.8783 -0.478 0.478 0.8783 -17.9623 146.4814)" class="st4" width="3.1" height="3.1"/>
	
		<rect x="263.9" y="96.6" transform="matrix(0.8784 -0.478 0.478 0.8784 -14.6474 138.8357)" class="st4" width="3.1" height="3.1"/>
	
		<rect x="273.5" y="92.2" transform="matrix(0.8784 -0.478 0.478 0.8784 -11.3746 142.8714)" class="st4" width="3.1" height="3.1"/>
	<rect x="18.6" y="30.2" transform="matrix(0.8784 -0.478 0.478 0.8784 -12.7432 13.4901)" class="st4" width="3.1" height="3.1"/>
	<rect x="30.2" y="39.7" transform="matrix(0.8784 -0.478 0.478 0.8784 -15.8567 20.1987)" class="st4" width="3.1" height="3.1"/>
	<rect x="69" y="109.5" transform="matrix(0.8784 -0.478 0.478 0.8784 -44.4854 47.208)" class="st4" width="3.1" height="3.1"/>
	<rect x="60.8" y="104.4" class="st4" width="3.1" height="3.1"/>
	<rect x="63.3" y="124.4" class="st4" width="3.1" height="3.1"/>
	<rect x="76.3" y="122.5" class="st4" width="3.1" height="3.1"/>
	
		<rect x="5.2" y="337.6" transform="matrix(1.724905e-03 -1 1 1.724905e-03 -330.4204 347.0309)" class="st4" width="6.7" height="2.7"/>
	
		<rect x="11.9" y="337.7" transform="matrix(8.700370e-02 -0.9962 0.9962 8.700370e-02 -323.8366 324.8458)" class="st4" width="6.7" height="2.7"/>
	
		<rect x="0.9" y="131.8" transform="matrix(1.724905e-03 -1 1 1.724905e-03 -128.9054 137.2666)" class="st4" width="6.7" height="2.7"/>
	
		<rect x="7.6" y="131.9" transform="matrix(8.700499e-02 -0.9962 0.9962 8.700499e-02 -122.7346 132.6491)" class="st4" width="6.7" height="2.7"/>
	
		<rect x="172.3" y="13.4" transform="matrix(1.724054e-03 -1 1 1.724054e-03 160.5741 190.431)" class="st4" width="6.7" height="2.7"/>
	
		<rect x="179" y="13.5" transform="matrix(8.701975e-02 -0.9962 0.9962 8.701975e-02 151.6791 195.2613)" class="st4" width="6.7" height="2.7"/>
	
		<rect x="217.1" y="216.7" transform="matrix(0.9438 -0.3304 0.3304 0.9438 -60.4373 84.545)" class="st4" width="2.7" height="6.7"/>
	
		<rect x="223.4" y="214.5" transform="matrix(0.9686 -0.2487 0.2487 0.9686 -47.1306 62.762)" class="st4" width="2.7" height="6.7"/>
	
		<rect x="283.6" y="385.5" transform="matrix(0.9438 -0.3304 0.3304 0.9438 -112.4729 115.9969)" class="st4" width="2.7" height="6.7"/>
	
		<rect x="289.9" y="383.3" transform="matrix(0.9686 -0.2487 0.2487 0.9686 -87.0249 84.6099)" class="st4" width="2.7" height="6.7"/>
	
		<rect x="355.6" y="259.9" transform="matrix(0.7909 -0.612 0.612 0.7909 -86.4483 273.4846)" class="st4" width="2.7" height="6.7"/>
	
		<rect x="360.9" y="255.8" transform="matrix(0.8402 -0.5423 0.5423 0.8402 -82.6601 237.8823)" class="st4" width="2.7" height="6.7"/>
	
		<rect x="349.5" y="225.4" transform="matrix(0.7909 -0.612 0.612 0.7909 -66.6294 262.5927)" class="st4" width="2.7" height="6.7"/>
	
		<rect x="354.9" y="221.4" transform="matrix(0.8402 -0.5423 0.5423 0.8402 -64.9445 229.1044)" class="st4" width="2.7" height="6.7"/>
	
		<rect x="284.1" y="46.5" transform="matrix(0.1471 -0.9891 0.9891 0.1471 197.7831 325.1208)" class="st4" width="6.7" height="2.7"/>
	
		<rect x="290.7" y="47.6" transform="matrix(0.2309 -0.973 0.973 0.2309 178.5262 323.7242)" class="st4" width="6.7" height="2.7"/>
	
		<rect x="97.2" y="97.7" transform="matrix(0.1471 -0.9891 0.9891 0.1471 -12.2691 183.987)" class="st4" width="6.7" height="2.7"/>
	
		<rect x="103.8" y="98.8" transform="matrix(0.2309 -0.973 0.973 0.2309 -15.0394 181.3123)" class="st4" width="6.7" height="2.7"/>
	
		<rect x="154" y="241.6" transform="matrix(0.6387 -0.7695 0.7695 0.6387 -130.0904 208.8461)" class="st4" width="6.7" height="2.7"/>
	
		<rect x="159.1" y="245.9" transform="matrix(0.702 -0.7122 0.7122 0.702 -127.7036 189.3908)" class="st4" width="6.7" height="2.7"/>
	
		<rect x="79.9" y="348.4" transform="matrix(0.6387 -0.7695 0.7695 0.6387 -239.0164 190.4425)" class="st4" width="6.7" height="2.7"/>
	<rect x="85" y="352.7" transform="matrix(0.702 -0.7122 0.7122 0.702 -225.823 168.4637)" class="st4" width="6.7" height="2.7"/>
	
		<rect x="356.8" y="17.8" transform="matrix(0.2609 -0.9654 0.9654 0.2609 247.2515 363.2997)" class="st4" width="8.3" height="4.7"/>
	
		<rect x="368.4" y="14.8" transform="matrix(0.2609 -0.9654 0.9654 0.2609 258.7532 372.2949)" class="st4" width="8.3" height="4.7"/>
	
		<rect x="98.4" y="47.1" transform="matrix(0.2609 -0.9654 0.9654 0.2609 28.0517 135.5448)" class="st4" width="8.3" height="4.7"/>
	
		<rect x="113.1" y="42.4" transform="matrix(0.2609 -0.9654 0.9654 0.2609 43.4435 146.1767)" class="st4" width="8.3" height="4.7"/>
	
		<rect x="120.4" y="50.5" transform="matrix(0.2609 -0.9654 0.9654 0.2609 40.9559 159.2892)" class="st4" width="8.3" height="4.7"/>
	
		<rect x="324.5" y="214.6" transform="matrix(0.2609 -0.9654 0.9654 0.2609 33.4294 477.5544)" class="st4" width="8.3" height="4.7"/>
	
		<rect x="318.9" y="203" transform="matrix(0.2609 -0.9654 0.9654 0.2609 40.5166 463.5603)" class="st4" width="8.3" height="4.7"/>
	
		<rect x="352" y="372.6" transform="matrix(0.2609 -0.9654 0.9654 0.2609 -98.7554 620.9357)" class="st4" width="8.3" height="4.7"/>
	
		<rect x="340.4" y="379.5" transform="matrix(0.2609 -0.9654 0.9654 0.2609 -113.9929 614.814)" class="st4" width="8.3" height="4.7"/>
	
		<rect x="200.5" y="381.2" transform="matrix(0.2609 -0.9654 0.9654 0.2609 -219.0788 480.9983)" class="st4" width="8.3" height="4.7"/>
	
		<rect x="218.5" y="381.2" transform="matrix(0.2609 -0.9654 0.9654 0.2609 -205.7133 498.4559)" class="st4" width="8.3" height="4.7"/>
	
		<rect x="36" y="382.1" transform="matrix(0.2609 -0.9654 0.9654 0.2609 -341.4721 322.8539)" class="st4" width="8.3" height="4.7"/>
	
		<rect x="244.2" y="302.1" transform="matrix(0.9937 -0.1119 0.1119 0.9937 -32.4378 29.4011)" class="st4" width="3.1" height="3.1"/>
	
		<rect x="339.9" y="328.4" transform="matrix(0.9937 -0.1119 0.1119 0.9937 -34.7677 40.2709)" class="st4" width="3.1" height="3.1"/>
	
		<rect x="289.9" y="301.3" transform="matrix(0.9937 -0.1119 0.1119 0.9937 -32.0563 34.5174)" class="st4" width="3.1" height="3.1"/>
	
		<rect x="290.5" y="293.7" transform="matrix(0.9937 -0.1119 0.1119 0.9937 -31.1986 34.5319)" class="st4" width="3.1" height="3.1"/>
	
		<rect x="301.2" y="298.8" transform="matrix(0.8334 -0.5526 0.5526 0.8334 -115.5209 217.3529)" class="st4" width="3.1" height="3.1"/>
	
		<rect x="238.8" y="257.8" transform="matrix(0.8334 -0.5527 0.5527 0.8334 -103.2857 176.0364)" class="st4" width="3.1" height="3.1"/>
	
		<rect x="232.6" y="250.7" transform="matrix(0.4164 -0.9092 0.9092 0.4164 -92.7276 360.0891)" class="st4" width="3.1" height="3.1"/>
	
		<rect x="251.2" y="185.5" transform="matrix(0.4164 -0.9092 0.9092 0.4164 -22.5174 338.9584)" class="st4" width="3.1" height="3.1"/>
	
		<rect x="240.2" y="171.3" transform="matrix(0.4164 -0.9092 0.9092 0.4164 -16.105 320.6986)" class="st4" width="3.1" height="3.1"/>
	
		<rect x="268.7" y="170.8" transform="matrix(0.9888 -0.1496 0.1496 0.9888 -22.7356 42.3684)" class="st4" width="3.1" height="3.1"/>
	<rect x="373.1" y="49.9" transform="matrix(0.936 -0.3519 0.3519 0.936 5.8707 135.1458)" class="st4" width="3.1" height="3.1"/>
	
		<rect x="366.3" y="45.8" transform="matrix(0.1773 -0.9842 0.9842 0.1773 256.0721 400.927)" class="st4" width="3.1" height="3.1"/>
	<circle class="st4" cx="358.1" cy="36.4" r="2.7"/>
	<rect x="363.1" y="51.7" transform="matrix(0.7916 -0.611 0.611 0.7916 43.4409 233.8881)" class="st4" width="3.1" height="3.1"/>
	
		<rect x="322.3" y="81.3" transform="matrix(0.154 -0.9881 0.9881 0.154 192.0466 390.0949)" class="st4" width="3.1" height="3.1"/>
	
		<rect x="306.7" y="35.9" transform="matrix(0.154 -0.9881 0.9881 0.154 223.7449 336.2948)" class="st4" width="3.1" height="3.1"/>
	
		<rect x="317.8" y="46.3" transform="matrix(0.154 -0.9881 0.9881 0.154 222.8977 356.0641)" class="st4" width="3.1" height="3.1"/>
	
		<rect x="298.9" y="44.3" transform="matrix(0.154 -0.9881 0.9881 0.154 208.9188 335.6595)" class="st4" width="3.1" height="3.1"/>
	<rect x="327.3" y="88" transform="matrix(0.154 -0.9881 0.9881 0.154 189.689 400.6852)" class="st4" width="3.1" height="3.1"/>
	<rect x="265.4" y="17.2" transform="matrix(0.154 -0.9881 0.9881 0.154 207.2742 279.618)" class="st4" width="3.1" height="3.1"/>
	<rect x="305.6" y="6.7" transform="matrix(0.154 -0.9881 0.9881 0.154 251.7397 310.4207)" class="st4" width="3.1" height="3.1"/>
	
		<rect x="153.8" y="80.7" transform="matrix(0.9999 -1.625282e-02 1.625282e-02 0.9999 -1.3126 2.5644)" class="st4" width="6.7" height="2.7"/>
	
		<rect x="154.4" y="87.3" transform="matrix(0.9948 -0.1015 0.1015 0.9948 -8.1879 16.4623)" class="st4" width="6.7" height="2.7"/>
	
		<rect x="295.8" y="25.3" transform="matrix(0.9999 -1.625308e-02 1.625308e-02 0.9999 -0.3939 4.8666)" class="st4" width="6.7" height="2.7"/>
	<rect x="296.5" y="32" transform="matrix(0.9948 -0.1015 0.1015 0.9948 -1.8359 30.595)" class="st4" width="6.7" height="2.7"/>
	
		<rect x="380.9" y="74.2" transform="matrix(0.9999 -1.625284e-02 1.625284e-02 0.9999 -1.177 6.255)" class="st4" width="6.7" height="2.7"/>
	
		<rect x="236.1" y="60.7" transform="matrix(0.5944 -0.8042 0.8042 0.5944 47.2084 217.7502)" class="st4" width="6.7" height="2.7"/>
	<path class="st4" d="M42.3,300.1c0,1.5,1.2,2.7,2.7,2.7c1.5,0,2.7-1.2,2.7-2.7c0-1.5-1.2-2.7-2.7-2.7
		C43.5,297.4,42.3,298.6,42.3,300.1z"/>
	<path class="st4" d="M15.5,287.2c0,1.5,1.2,2.7,2.7,2.7c1.5,0,2.7-1.2,2.7-2.7c0-1.5-1.2-2.7-2.7-2.7
		C16.7,284.5,15.5,285.7,15.5,287.2z"/>
	<circle class="st4" cx="12.9" cy="365.3" r="2.7"/>
	<path class="st4" d="M90.4,381.4c0,1.5,1.2,2.7,2.7,2.7c1.5,0,2.7-1.2,2.7-2.7c0-1.5-1.2-2.7-2.7-2.7
		C91.6,378.7,90.4,379.9,90.4,381.4z"/>
	<path class="st4" d="M141.7,97.5c0,1.5,1.2,2.7,2.7,2.7c1.5,0,2.7-1.2,2.7-2.7c0-1.5-1.2-2.7-2.7-2.7
		C142.9,94.8,141.7,96,141.7,97.5z"/>
	<path class="st4" d="M184.3,117.7c0,1.5,1.2,2.7,2.7,2.7c1.5,0,2.7-1.2,2.7-2.7c0-1.5-1.2-2.7-2.7-2.7
		C185.5,115,184.3,116.2,184.3,117.7z"/>
	<path class="st4" d="M205.2,74.8c0,1.5,1.2,2.7,2.7,2.7c1.5,0,2.7-1.2,2.7-2.7s-1.2-2.7-2.7-2.7C206.4,72.1,205.2,73.3,205.2,74.8z
		"/>
	<path class="st4" d="M240.8,89.8c0,1.5,1.2,2.7,2.7,2.7c1.5,0,2.7-1.2,2.7-2.7c0-1.5-1.2-2.7-2.7-2.7
		C242,87.1,240.8,88.3,240.8,89.8z"/>
	<path class="st4" d="M250.5,99.9c0,1.5,1.2,2.7,2.7,2.7c1.5,0,2.7-1.2,2.7-2.7c0-1.5-1.2-2.7-2.7-2.7
		C251.7,97.2,250.5,98.4,250.5,99.9z"/>
	<circle class="st4" cx="20.6" cy="51.1" r="2.7"/>
	<circle class="st4" cx="8.4" cy="203.5" r="2.7"/>
	<path class="st4" d="M255.4,302.2c0,1.5,1.2,2.7,2.7,2.7c1.5,0,2.7-1.2,2.7-2.7c0-1.5-1.2-2.7-2.7-2.7
		C256.6,299.5,255.4,300.7,255.4,302.2z"/>
	<path class="st4" d="M372.6,377.2c0,1.5,1.2,2.7,2.7,2.7c1.5,0,2.7-1.2,2.7-2.7c0-1.5-1.2-2.7-2.7-2.7
		C373.8,374.5,372.6,375.7,372.6,377.2z"/>
	<path class="st4" d="M19.3,119.1c0,1.5,1.2,2.7,2.7,2.7c1.5,0,2.7-1.2,2.7-2.7c0-1.5-1.2-2.7-2.7-2.7
		C20.5,116.4,19.3,117.6,19.3,119.1z"/>
	<path class="st4" d="M29.4,240.5c0,1.5,1.2,2.7,2.7,2.7c1.5,0,2.7-1.2,2.7-2.7c0-1.5-1.2-2.7-2.7-2.7
		C30.6,237.8,29.4,239,29.4,240.5z"/>
	<circle class="st4" cx="54.4" cy="246.8" r="2.7"/>
	
		<rect x="182.5" y="297.9" transform="matrix(0.9115 -0.4113 0.4113 0.9115 -106.8604 102.2006)" class="st4" width="3.1" height="3.1"/>
	
		<rect x="130.6" y="223.7" transform="matrix(0.9115 -0.4113 0.4113 0.9115 -80.9659 74.3027)" class="st4" width="3.1" height="3.1"/>
	
		<rect x="149.7" y="202.2" transform="matrix(0.9115 -0.4113 0.4113 0.9115 -70.4314 80.2484)" class="st4" width="3.1" height="3.1"/>
	
		<rect x="165.3" y="217.4" transform="matrix(0.9115 -0.4113 0.4113 0.9115 -75.3028 87.9934)" class="st4" width="3.1" height="3.1"/>
	
		<rect x="186.6" y="211.7" transform="matrix(0.6529 -0.7575 0.7575 0.6529 -96.2156 216.5396)" class="st4" width="3.1" height="3.1"/>
	
		<rect x="40.4" y="127.4" transform="matrix(0.6529 -0.7575 0.7575 0.6529 -83.0989 76.4963)" class="st4" width="3.1" height="3.1"/>
	
		<rect x="116.9" y="11.8" transform="matrix(0.2648 -0.9643 0.9643 0.2648 74.2089 124.0755)" class="st4" width="3.1" height="3.1"/>
	<rect x="127.9" y="5.9" transform="matrix(0.2648 -0.9643 0.9643 0.2648 88.0302 130.338)" class="st4" width="3.1" height="3.1"/>
	<rect x="126" y="14.6" transform="matrix(0.9736 -0.2284 0.2284 0.9736 -0.3293 29.5508)" class="st4" width="3.1" height="3.1"/>
	<rect x="49.7" y="7.6" transform="matrix(0.9736 -0.2284 0.2284 0.9736 -0.7323 11.9435)" class="st4" width="3.1" height="3.1"/>
	<rect x="8.4" y="141.5" transform="matrix(0.9736 -0.2284 0.2284 0.9736 -32.4054 6.0627)" class="st4" width="3.1" height="3.1"/>
	
		<rect x="174.8" y="199.7" transform="matrix(0.9736 -0.2284 0.2284 0.9736 -41.2985 45.6033)" class="st4" width="3.1" height="3.1"/>
	
		<rect x="205.6" y="214.4" transform="matrix(0.2312 -0.9729 0.9729 0.2312 -50.7984 367.5643)" class="st4" width="3.1" height="3.1"/>
	
		<rect x="119" y="227.4" transform="matrix(0.2312 -0.9729 0.9729 0.2312 -130.0592 293.2528)" class="st4" width="3.1" height="3.1"/>
	
		<rect x="158" y="223.4" transform="matrix(0.2312 -0.9729 0.9729 0.2312 -96.2404 328.1389)" class="st4" width="3.1" height="3.1"/>
	
		<rect x="21.5" y="362.1" transform="matrix(0.2312 -0.9729 0.9729 0.2312 -336.0891 302.0266)" class="st4" width="3.1" height="3.1"/>
	
		<rect x="29.4" y="350.8" transform="matrix(0.2312 -0.9729 0.9729 0.2312 -319.0125 301.0238)" class="st4" width="3.1" height="3.1"/>
	
		<rect x="30.3" y="384.2" transform="matrix(0.9937 -0.1119 0.1119 0.9937 -42.9579 5.9824)" class="st4" width="3.1" height="3.1"/>
	
		<rect x="262.5" y="338" transform="matrix(0.9937 -0.1119 0.1119 0.9937 -36.3263 31.6707)" class="st4" width="3.1" height="3.1"/>
	
		<rect x="249" y="289.4" transform="matrix(0.9937 -0.1119 0.1119 0.9937 -30.9862 29.8597)" class="st4" width="3.1" height="3.1"/>
</g>
<g id="BLOCK_SPECTIFIQUES::POTAGER">
</g>
<g id="PLAN::POTEAU">
</g>
<g id="PLAN::FOND_SOL">
</g>
</svg>
