<?xml version="1.0" encoding="utf-8"?>
<!-- Generator: Adobe Illustrator 22.0.1, SVG Export Plug-In . SVG Version: 6.00 Build 0)  -->
<svg version="1.1" xmlns="http://www.w3.org/2000/svg" xmlns:xlink="http://www.w3.org/1999/xlink" x="0px" y="0px" width="429px"
	 height="300.1px" viewBox="0 0 429 300.1" style="enable-background:new 0 0 429 300.1;" xml:space="preserve">
<style type="text/css">
	.st0{fill:none;stroke:#FFFFFF;stroke-width:1.3;stroke-miterlimit:10;}
	.st1{fill:none;}
	.st2{fill:#FFFFFF;}
	.st3{font-family:'Arial-BoldMT';}
	.st4{font-size:12px;}
	.st5{font-family:'ArialMT';}
</style>
<g id="cadre">
</g>
<g id="Calque_3">
	<polygon class="st0" points="113.2,13.7 416.8,13.7 416.8,287.5 12,287.5 12,68.4 113.2,68.4 	"/>
	<line class="st0" x1="214.4" y1="13.7" x2="214.4" y2="287.5"/>
	<line class="st0" x1="315.6" y1="13.7" x2="315.6" y2="287.5"/>
	<polyline class="st0" points="113.2,287.5 113.2,68.4 416.8,68.4 	"/>
	<line class="st0" x1="12" y1="123.2" x2="416.8" y2="123.2"/>
	<line class="st0" x1="416.8" y1="178" x2="12" y2="178"/>
	<line class="st0" x1="12" y1="232.7" x2="416.8" y2="232.7"/>
</g>
<g id="Calque_1">
	<rect x="12" y="123.2" class="st1" width="101.2" height="54.8"/>
	<text transform="matrix(1 0 0 1 26.2435 151.8006)" class="st2 st3 st4">haven-space</text>
	<rect x="12" y="68.4" class="st1" width="101.2" height="54.8"/>
	<text transform="matrix(1 0 0 1 20.5834 97.0387)" class="st2 st3 st4">mobility-space</text>
	<rect x="113.2" y="68.4" class="st1" width="101.2" height="54.8"/>
	<text transform="matrix(1 0 0 1 146.4447 91.0384)"><tspan x="0" y="0" class="st2 st5 st4">fitness </tspan><tspan x="-8" y="14" class="st2 st5 st4">associate</tspan></text>
	<rect x="113.2" y="123.2" class="st1" width="101.2" height="54.8"/>
	<text transform="matrix(1 0 0 1 134.4359 145.8006)"><tspan x="0" y="0" class="st2 st5 st4">mens sana</tspan><tspan x="-12" y="14" class="st2 st5 st4">in corpore sano</tspan></text>
	<rect x="214.4" y="68.4" class="st1" width="101.2" height="54.8"/>
	<text transform="matrix(1 0 0 1 236.2504 98.0384)" class="st2 st5 st4">corridoor</text>
	<text transform="matrix(0.583 0 0 0.583 283.6004 94.0423)" class="st2 st5 st4">TM</text>
	<rect x="214.4" y="123.2" class="st1" width="101.2" height="54.8"/>
	<text transform="matrix(1 0 0 1 225.6302 145.8006)"><tspan x="0" y="0" class="st2 st5 st4">souvenirs from</tspan><tspan x="24.3" y="14" class="st2 st5 st4">home</tspan></text>
	<rect x="315.6" y="68.4" class="st1" width="101.2" height="54.8"/>
	<text transform="matrix(1 0 0 1 333.1512 91.0384)"><tspan x="0" y="0" class="st2 st5 st4">“alexa, meet </tspan><tspan x="10.3" y="14" class="st2 st5 st4">palladio”</tspan></text>
	<rect x="113.2" y="13.7" class="st1" width="101.2" height="54.8"/>
	<text transform="matrix(1 0 0 1 135.7836 36.6765)"><tspan x="0" y="0" class="st2 st3 st4">individual </tspan><tspan x="-7.3" y="14.4" class="st2 st3 st4">optimization</tspan></text>
	<rect x="214.4" y="13.7" class="st1" width="101.2" height="54.8"/>
	<text transform="matrix(1 0 0 1 220.6468 36.6765)"><tspan x="0" y="0" class="st2 st3 st4">monetization of </tspan><tspan x="23.3" y="14.4" class="st2 st3 st4">the self</tspan></text>
	<rect x="315.6" y="13.7" class="st1" width="101.2" height="54.8"/>
	<text transform="matrix(1 0 0 1 339.8172 36.6765)"><tspan x="0" y="0" class="st2 st3 st4">creativity </tspan><tspan x="-4" y="14.4" class="st2 st3 st4">harvesting</tspan></text>
	<rect x="315.6" y="123.2" class="st1" width="101.2" height="54.8"/>
	<text transform="matrix(1 0 0 1 350.1532 145.8006)"><tspan x="0" y="0" class="st2 st5 st4">pleine </tspan><tspan x="-26" y="14" class="st2 st5 st4">conscience&amp;co.</tspan></text>
	<rect x="12" y="178" class="st1" width="101.2" height="54.8"/>
	<text transform="matrix(1 0 0 1 16.2357 206.5623)" class="st2 st3 st4">collective-space</text>
	<rect x="113.2" y="178" class="st1" width="101.2" height="54.8"/>
	<text transform="matrix(1 0 0 1 134.4359 200.5623)"><tspan x="0" y="0" class="st2 st5 st4">tokenarchy </tspan><tspan x="15" y="14" class="st2 st5 st4">Ðapp</tspan></text>
	<rect x="214.4" y="178" class="st1" width="101.2" height="54.8"/>
	<text transform="matrix(1 0 0 1 247.3011 200.5623)"><tspan x="0" y="0" class="st2 st5 st4">public-</tspan><tspan x="-12" y="14" class="st2 st5 st4">space4free</tspan></text>
	<rect x="315.6" y="178" class="st1" width="101.2" height="54.8"/>
	<text transform="matrix(1 0 0 1 349.4852 200.5623)"><tspan x="0" y="0" class="st2 st5 st4">about:</tspan><tspan x="-13.7" y="14" class="st2 st5 st4">blankspace</tspan></text>
	<rect x="12" y="232.7" class="st1" width="101.2" height="54.8"/>
	<text transform="matrix(1 0 0 1 22.9066 261.324)" class="st2 st3 st4">society-space</text>
	<rect x="113.2" y="232.7" class="st1" width="101.2" height="54.8"/>
	<text transform="matrix(1 0 0 1 142.7709 262.324)" class="st2 st5 st4">self.edu</text>
	<rect x="214.4" y="232.7" class="st1" width="101.2" height="54.8"/>
	<text transform="matrix(1 0 0 1 243.8763 262.324)" class="st2 st5 st4">@home</text>
	<rect x="315.6" y="232.7" class="st1" width="101.2" height="54.8"/>
	<text transform="matrix(1 0 0 1 328.8192 262.324)" class="st2 st5 st4">zero-hour turk</text>
</g>
</svg>
