<?xml version="1.0" encoding="utf-8"?>
<!-- Generator: Adobe Illustrator 22.0.1, SVG Export Plug-In . SVG Version: 6.00 Build 0)  -->
<svg version="1.1" xmlns="http://www.w3.org/2000/svg" xmlns:xlink="http://www.w3.org/1999/xlink" x="0px" y="0px" width="397.6px"
	 height="397.6px" viewBox="0 0 397.6 397.6" style="enable-background:new 0 0 397.6 397.6;" xml:space="preserve">
<style type="text/css">
	.st0{display:none;}
	.st1{display:inline;stroke:#FFFFFF;stroke-linecap:round;stroke-linejoin:round;}
	.st2{fill:#FFFFFF;stroke:#FFFFFF;stroke-width:0.4;stroke-miterlimit:10;}
	.st3{fill:none;stroke:#FFFFFF;stroke-linecap:square;}
	.st4{fill:none;stroke:#FFFFFF;stroke-width:0.7;stroke-linecap:square;}
	.st5{fill:none;stroke:#FFFFFF;stroke-width:0.55;stroke-linecap:square;}
	.st6{fill:none;stroke:#FFFFFF;stroke-width:0.6;stroke-linecap:square;stroke-dasharray:2,3;}
	.st7{fill:none;stroke:#FFFFFF;stroke-width:0.2;stroke-linecap:square;stroke-dasharray:2,3;}
	.st8{fill:none;stroke:#FFFFFF;stroke-width:0.3;stroke-linecap:square;}
	.st9{fill:none;stroke:#FFFFFF;stroke-width:0.5;stroke-linecap:square;}
	.st10{fill:none;stroke:#FFFFFF;stroke-width:0.7;stroke-linecap:square;stroke-dasharray:2,3;}
	.st11{fill:none;stroke:#FFFFFF;stroke-width:0.4;stroke-linecap:square;}
	.st12{display:inline;}
	.st13{fill:#FFFFFF;}
	.st14{display:inline;fill:none;stroke:#000000;stroke-linecap:round;stroke-linejoin:round;}
</style>
<g id="FOND" class="st0">
	<rect x="-49.9" y="-1017.5" class="st1" width="1470.6" height="1969.9"/>
</g>
<g id="Calque_1" class="st0">
</g>
<g id="PLAN::STRUCTURE_1.1">
	<rect x="56.8" y="226.8" class="st2" width="0.6" height="0.6"/>
	<rect x="56.8" y="226.8" class="st2" width="0.6" height="0.6"/>
	<rect x="56.8" y="198.5" class="st2" width="0.6" height="0.6"/>
	<rect x="56.8" y="198.5" class="st2" width="0.6" height="0.6"/>
	<rect x="56.8" y="170.1" class="st2" width="0.6" height="0.6"/>
	<rect x="56.8" y="170.1" class="st2" width="0.6" height="0.6"/>
	<rect x="85.1" y="255.2" class="st2" width="0.6" height="0.6"/>
	<rect x="85.1" y="255.2" class="st2" width="0.6" height="0.6"/>
	<rect x="85.1" y="226.8" class="st2" width="0.6" height="0.6"/>
	<rect x="85.1" y="226.8" class="st2" width="0.6" height="0.6"/>
	<rect x="85.1" y="198.5" class="st2" width="0.6" height="0.6"/>
	<rect x="85.1" y="198.5" class="st2" width="0.6" height="0.6"/>
	<rect x="85.1" y="170.1" class="st2" width="0.6" height="0.6"/>
	<rect x="85.1" y="170.1" class="st2" width="0.6" height="0.6"/>
	<rect x="85.1" y="141.8" class="st2" width="0.6" height="0.6"/>
	<rect x="85.1" y="141.8" class="st2" width="0.6" height="0.6"/>
	<rect x="113.5" y="226.8" class="st2" width="0.6" height="0.6"/>
	<rect x="113.5" y="226.8" class="st2" width="0.6" height="0.6"/>
	<rect x="113.5" y="198.5" class="st2" width="0.6" height="0.6"/>
	<rect x="113.5" y="198.5" class="st2" width="0.6" height="0.6"/>
	<rect x="113.5" y="170.1" class="st2" width="0.6" height="0.6"/>
	<rect x="113.5" y="170.1" class="st2" width="0.6" height="0.6"/>
	<rect x="141.8" y="85.1" class="st2" width="0.6" height="0.6"/>
	<rect x="141.8" y="85.1" class="st2" width="0.6" height="0.6"/>
	<rect x="141.8" y="226.8" class="st2" width="0.6" height="0.6"/>
	<rect x="141.8" y="226.8" class="st2" width="0.6" height="0.6"/>
	<rect x="141.8" y="198.5" class="st2" width="0.6" height="0.6"/>
	<rect x="141.8" y="198.5" class="st2" width="0.6" height="0.6"/>
	<rect x="141.8" y="170.1" class="st2" width="0.6" height="0.6"/>
	<rect x="141.8" y="170.1" class="st2" width="0.6" height="0.6"/>
	<rect x="141.8" y="141.8" class="st2" width="0.6" height="0.6"/>
	<rect x="141.8" y="141.8" class="st2" width="0.6" height="0.6"/>
	<rect x="141.8" y="311.9" class="st2" width="0.6" height="0.6"/>
	<rect x="141.8" y="311.9" class="st2" width="0.6" height="0.6"/>
	<rect x="170.1" y="113.5" class="st2" width="0.6" height="0.6"/>
	<rect x="170.1" y="113.5" class="st2" width="0.6" height="0.6"/>
	<rect x="170.1" y="85.1" class="st2" width="0.6" height="0.6"/>
	<rect x="170.1" y="85.1" class="st2" width="0.6" height="0.6"/>
	<rect x="170.1" y="56.8" class="st2" width="0.6" height="0.6"/>
	<rect x="170.1" y="56.8" class="st2" width="0.6" height="0.6"/>
	<rect x="170.1" y="255.2" class="st2" width="0.6" height="0.6"/>
	<rect x="170.1" y="255.2" class="st2" width="0.6" height="0.6"/>
	<rect x="170.1" y="226.8" class="st2" width="0.6" height="0.6"/>
	<rect x="170.1" y="226.8" class="st2" width="0.6" height="0.6"/>
	<rect x="170.1" y="198.5" class="st2" width="0.6" height="0.6"/>
	<rect x="170.1" y="198.5" class="st2" width="0.6" height="0.6"/>
	<rect x="170.1" y="170.1" class="st2" width="0.6" height="0.6"/>
	<rect x="170.1" y="170.1" class="st2" width="0.6" height="0.6"/>
	<rect x="170.1" y="141.8" class="st2" width="0.6" height="0.6"/>
	<rect x="170.1" y="141.8" class="st2" width="0.6" height="0.6"/>
	<rect x="170.1" y="283.5" class="st2" width="0.6" height="0.6"/>
	<rect x="170.1" y="283.5" class="st2" width="0.6" height="0.6"/>
	<rect x="170.1" y="311.9" class="st2" width="0.6" height="0.6"/>
	<rect x="170.1" y="311.9" class="st2" width="0.6" height="0.6"/>
	<rect x="170.1" y="340.2" class="st2" width="0.6" height="0.6"/>
	<rect x="170.1" y="340.2" class="st2" width="0.6" height="0.6"/>
	<rect x="198.5" y="113.5" class="st2" width="0.6" height="0.6"/>
	<rect x="198.5" y="113.5" class="st2" width="0.6" height="0.6"/>
	<rect x="198.5" y="85.1" class="st2" width="0.6" height="0.6"/>
	<rect x="198.5" y="85.1" class="st2" width="0.6" height="0.6"/>
	<rect x="198.5" y="56.8" class="st2" width="0.6" height="0.6"/>
	<rect x="198.5" y="56.8" class="st2" width="0.6" height="0.6"/>
	<rect x="198.5" y="255.2" class="st2" width="0.6" height="0.6"/>
	<rect x="198.5" y="255.2" class="st2" width="0.6" height="0.6"/>
	<rect x="198.5" y="226.8" class="st2" width="0.6" height="0.6"/>
	<rect x="198.5" y="226.8" class="st2" width="0.6" height="0.6"/>
	<rect x="198.5" y="198.5" class="st2" width="0.6" height="0.6"/>
	<rect x="198.5" y="198.5" class="st2" width="0.6" height="0.6"/>
	<rect x="198.5" y="170.1" class="st2" width="0.6" height="0.6"/>
	<rect x="198.5" y="170.1" class="st2" width="0.6" height="0.6"/>
	<rect x="198.5" y="141.8" class="st2" width="0.6" height="0.6"/>
	<rect x="198.5" y="141.8" class="st2" width="0.6" height="0.6"/>
	<rect x="198.5" y="283.5" class="st2" width="0.6" height="0.6"/>
	<rect x="198.5" y="283.5" class="st2" width="0.6" height="0.6"/>
	<rect x="198.5" y="311.9" class="st2" width="0.6" height="0.6"/>
	<rect x="198.5" y="311.9" class="st2" width="0.6" height="0.6"/>
	<rect x="198.5" y="340.2" class="st2" width="0.6" height="0.6"/>
	<rect x="198.5" y="340.2" class="st2" width="0.6" height="0.6"/>
	<rect x="226.8" y="113.5" class="st2" width="0.6" height="0.6"/>
	<rect x="226.8" y="113.5" class="st2" width="0.6" height="0.6"/>
	<rect x="226.8" y="85.1" class="st2" width="0.6" height="0.6"/>
	<rect x="226.8" y="85.1" class="st2" width="0.6" height="0.6"/>
	<rect x="226.8" y="56.8" class="st2" width="0.6" height="0.6"/>
	<rect x="226.8" y="56.8" class="st2" width="0.6" height="0.6"/>
	<rect x="226.8" y="226.8" class="st2" width="0.6" height="0.6"/>
	<rect x="226.8" y="226.8" class="st2" width="0.6" height="0.6"/>
	<rect x="226.8" y="198.5" class="st2" width="0.6" height="0.6"/>
	<rect x="226.8" y="198.5" class="st2" width="0.6" height="0.6"/>
	<rect x="226.8" y="170.1" class="st2" width="0.6" height="0.6"/>
	<rect x="226.8" y="170.1" class="st2" width="0.6" height="0.6"/>
	<rect x="226.8" y="141.8" class="st2" width="0.6" height="0.6"/>
	<rect x="226.8" y="141.8" class="st2" width="0.6" height="0.6"/>
	<rect x="226.8" y="283.5" class="st2" width="0.6" height="0.6"/>
	<rect x="226.8" y="283.5" class="st2" width="0.6" height="0.6"/>
	<rect x="226.8" y="311.9" class="st2" width="0.6" height="0.6"/>
	<rect x="226.8" y="311.9" class="st2" width="0.6" height="0.6"/>
	<rect x="226.8" y="340.2" class="st2" width="0.6" height="0.6"/>
	<rect x="226.8" y="340.2" class="st2" width="0.6" height="0.6"/>
	<rect x="255.2" y="85.1" class="st2" width="0.6" height="0.6"/>
	<rect x="255.2" y="85.1" class="st2" width="0.6" height="0.6"/>
	<rect x="255.2" y="255.2" class="st2" width="0.6" height="0.6"/>
	<rect x="255.2" y="255.2" class="st2" width="0.6" height="0.6"/>
	<rect x="255.2" y="198.5" class="st2" width="0.6" height="0.6"/>
	<rect x="255.2" y="198.5" class="st2" width="0.6" height="0.6"/>
	<rect x="255.2" y="170.1" class="st2" width="0.6" height="0.6"/>
	<rect x="255.2" y="170.1" class="st2" width="0.6" height="0.6"/>
	<rect x="255.2" y="141.8" class="st2" width="0.6" height="0.6"/>
	<rect x="255.2" y="141.8" class="st2" width="0.6" height="0.6"/>
	<rect x="255.2" y="311.9" class="st2" width="0.6" height="0.6"/>
	<rect x="255.2" y="311.9" class="st2" width="0.6" height="0.6"/>
	<rect x="283.5" y="226.8" class="st2" width="0.6" height="0.6"/>
	<rect x="283.5" y="226.8" class="st2" width="0.6" height="0.6"/>
	<rect x="283.5" y="198.5" class="st2" width="0.6" height="0.6"/>
	<rect x="283.5" y="198.5" class="st2" width="0.6" height="0.6"/>
	<rect x="283.5" y="170.1" class="st2" width="0.6" height="0.6"/>
	<rect x="283.5" y="170.1" class="st2" width="0.6" height="0.6"/>
	<rect x="311.9" y="255.2" class="st2" width="0.6" height="0.6"/>
	<rect x="311.9" y="255.2" class="st2" width="0.6" height="0.6"/>
	<rect x="311.9" y="226.8" class="st2" width="0.6" height="0.6"/>
	<rect x="311.9" y="226.8" class="st2" width="0.6" height="0.6"/>
	<rect x="311.9" y="198.5" class="st2" width="0.6" height="0.6"/>
	<rect x="311.9" y="198.5" class="st2" width="0.6" height="0.6"/>
	<rect x="311.9" y="170.1" class="st2" width="0.6" height="0.6"/>
	<rect x="311.9" y="170.1" class="st2" width="0.6" height="0.6"/>
	<rect x="311.9" y="141.8" class="st2" width="0.6" height="0.6"/>
	<rect x="311.9" y="141.8" class="st2" width="0.6" height="0.6"/>
	<rect x="340.2" y="226.8" class="st2" width="0.6" height="0.6"/>
	<rect x="340.2" y="226.8" class="st2" width="0.6" height="0.6"/>
	<rect x="340.2" y="198.5" class="st2" width="0.6" height="0.6"/>
	<rect x="340.2" y="198.5" class="st2" width="0.6" height="0.6"/>
	<rect x="340.2" y="170.1" class="st2" width="0.6" height="0.6"/>
	<rect x="340.2" y="170.1" class="st2" width="0.6" height="0.6"/>
	<rect x="226.8" y="255.2" class="st2" width="0.6" height="0.6"/>
	<rect x="226.8" y="255.2" class="st2" width="0.6" height="0.6"/>
	<rect x="255.2" y="226.8" class="st2" width="0.6" height="0.6"/>
	<rect x="255.2" y="226.8" class="st2" width="0.6" height="0.6"/>
	<rect x="141.8" y="255.2" class="st2" width="0.6" height="0.6"/>
	<rect x="141.8" y="255.2" class="st2" width="0.6" height="0.6"/>
	
		<rect x="99.3" y="269.4" transform="matrix(0.7071 -0.7071 0.7071 0.7071 -161.5058 149.3817)" class="st2" width="0.6" height="0.6"/>
	
		<rect x="99.3" y="269.4" transform="matrix(0.707 -0.7072 0.7072 0.707 -161.5208 149.4142)" class="st2" width="0.6" height="0.6"/>
	
		<rect x="113.5" y="255.2" transform="matrix(0.7072 -0.707 0.707 0.7072 -147.32 155.2198)" class="st2" width="0.6" height="0.6"/>
	
		<rect x="113.5" y="255.2" transform="matrix(0.7071 -0.7071 0.7071 0.7071 -147.3325 155.2524)" class="st2" width="0.6" height="0.6"/>
	
		<rect x="127.6" y="269.4" transform="matrix(0.707 -0.7072 0.7072 0.707 -153.2158 169.4607)" class="st2" width="0.6" height="0.6"/>
	
		<rect x="127.6" y="269.4" transform="matrix(0.7071 -0.7071 0.7071 0.7071 -153.2033 169.4256)" class="st2" width="0.6" height="0.6"/>
	
		<rect x="141.8" y="283.5" transform="matrix(0.7071 -0.7071 0.7071 0.7071 -159.074 183.5989)" class="st2" width="0.6" height="0.6"/>
	
		<rect x="141.8" y="283.5" transform="matrix(0.7071 -0.7071 0.7071 0.7071 -159.074 183.5989)" class="st2" width="0.6" height="0.6"/>
	
		<rect x="127.6" y="297.7" transform="matrix(0.707 -0.7072 0.7072 0.707 -173.2622 177.7657)" class="st2" width="0.6" height="0.6"/>
	
		<rect x="127.6" y="297.7" transform="matrix(0.7072 -0.707 0.707 0.7072 -173.2322 177.6906)" class="st2" width="0.6" height="0.6"/>
	
		<rect x="113.5" y="311.9" transform="matrix(0.7071 -0.7071 0.7071 0.7071 -187.4205 171.8574)" class="st2" width="0.6" height="0.6"/>
	
		<rect x="113.5" y="311.9" transform="matrix(0.707 -0.7072 0.7072 0.707 -187.438 171.8949)" class="st2" width="0.6" height="0.6"/>
	
		<rect x="99.3" y="297.7" transform="matrix(0.7071 -0.7071 0.7071 0.7071 -181.5497 157.6842)" class="st2" width="0.6" height="0.6"/>
	
		<rect x="99.3" y="297.7" transform="matrix(0.7071 -0.7071 0.7071 0.7071 -181.5497 157.6842)" class="st2" width="0.6" height="0.6"/>
	
		<rect x="85.1" y="283.5" transform="matrix(0.7071 -0.7071 0.7071 0.7071 -175.679 143.5109)" class="st2" width="0.6" height="0.6"/>
	
		<rect x="85.1" y="283.5" transform="matrix(0.7071 -0.7071 0.7071 0.7071 -175.679 143.5109)" class="st2" width="0.6" height="0.6"/>
	
		<rect x="311.9" y="283.5" transform="matrix(0.7071 -0.7071 0.7071 0.7071 -109.2591 303.8627)" class="st2" width="0.6" height="0.6"/>
	
		<rect x="311.9" y="283.5" transform="matrix(0.7071 -0.7071 0.7071 0.7071 -109.2591 303.8627)" class="st2" width="0.6" height="0.6"/>
	
		<rect x="297.7" y="297.7" transform="matrix(0.7071 -0.7071 0.7071 0.7071 -123.4323 297.9966)" class="st2" width="0.6" height="0.6"/>
	
		<rect x="297.7" y="297.7" transform="matrix(0.7071 -0.7071 0.7071 0.7071 -123.4323 297.9873)" class="st2" width="0.6" height="0.6"/>
	
		<rect x="283.5" y="311.9" transform="matrix(0.7072 -0.707 0.707 0.7072 -137.6031 292.0687)" class="st2" width="0.6" height="0.6"/>
	
		<rect x="283.5" y="311.9" transform="matrix(0.7071 -0.7071 0.7071 0.7071 -137.6056 292.1212)" class="st2" width="0.6" height="0.6"/>
	
		<rect x="269.4" y="297.7" transform="matrix(0.7071 -0.7071 0.7071 0.7071 -131.735 277.952)" class="st2" width="0.6" height="0.6"/>
	
		<rect x="269.4" y="297.7" transform="matrix(0.7071 -0.7071 0.7071 0.7071 -131.7346 277.9439)" class="st2" width="0.6" height="0.6"/>
	
		<rect x="255.2" y="283.5" transform="matrix(0.7071 -0.7071 0.7071 0.7071 -125.8641 263.7747)" class="st2" width="0.6" height="0.6"/>
	
		<rect x="255.2" y="283.5" transform="matrix(0.7071 -0.7071 0.7071 0.7071 -125.8641 263.7747)" class="st2" width="0.6" height="0.6"/>
	
		<rect x="269.4" y="269.4" transform="matrix(0.7071 -0.7071 0.7071 0.7071 -111.6909 269.6493)" class="st2" width="0.6" height="0.6"/>
	
		<rect x="269.4" y="269.4" transform="matrix(0.7072 -0.707 0.707 0.7072 -111.6909 269.5941)" class="st2" width="0.6" height="0.6"/>
	
		<rect x="283.5" y="255.2" transform="matrix(0.7071 -0.7071 0.7071 0.7071 -97.5176 275.5163)" class="st2" width="0.6" height="0.6"/>
	
		<rect x="283.5" y="255.2" transform="matrix(0.707 -0.7072 0.7072 0.707 -97.5151 275.5638)" class="st2" width="0.6" height="0.6"/>
	
		<rect x="297.7" y="269.4" transform="matrix(0.7071 -0.7071 0.7071 0.7071 -103.3881 289.6939)" class="st2" width="0.6" height="0.6"/>
	
		<rect x="297.7" y="269.4" transform="matrix(0.7072 -0.707 0.707 0.7072 -103.3911 289.635)" class="st2" width="0.6" height="0.6"/>
	
		<rect x="297.7" y="127.6" transform="matrix(0.7071 -0.7071 0.7071 0.7071 -3.1698 248.1738)" class="st2" width="0.6" height="0.6"/>
	
		<rect x="297.7" y="127.6" transform="matrix(0.7071 -0.7071 0.7071 0.7071 -3.1672 248.1804)" class="st2" width="0.6" height="0.6"/>
	
		<rect x="283.5" y="141.8" transform="matrix(0.707 -0.7072 0.7072 0.707 -17.3292 242.3439)" class="st2" width="0.6" height="0.6"/>
	
		<rect x="283.5" y="141.8" transform="matrix(0.7072 -0.707 0.707 0.7072 -17.3542 242.2688)" class="st2" width="0.6" height="0.6"/>
	
		<rect x="269.4" y="127.6" transform="matrix(0.7071 -0.7071 0.7071 0.7071 -11.472 228.1302)" class="st2" width="0.6" height="0.6"/>
	
		<rect x="269.4" y="127.6" transform="matrix(0.7071 -0.7071 0.7071 0.7071 -11.47 228.1359)" class="st2" width="0.6" height="0.6"/>
	
		<rect x="255.2" y="113.5" transform="matrix(0.7072 -0.707 0.707 0.7072 -5.6128 213.9273)" class="st2" width="0.6" height="0.6"/>
	
		<rect x="255.2" y="113.5" transform="matrix(0.7071 -0.7071 0.7071 0.7071 -5.6003 213.9599)" class="st2" width="0.6" height="0.6"/>
	
		<rect x="269.4" y="99.3" transform="matrix(0.7071 -0.7071 0.7071 0.7071 8.5718 219.8279)" class="st2" width="0.6" height="0.6"/>
	
		<rect x="269.4" y="99.3" transform="matrix(0.7071 -0.7071 0.7071 0.7071 8.5742 219.8332)" class="st2" width="0.6" height="0.6"/>
	<rect x="283.5" y="85.1" transform="matrix(0.707 -0.7072 0.7072 0.707 22.7637 225.7339)" class="st2" width="0.6" height="0.6"/>
	<rect x="283.5" y="85.1" transform="matrix(0.7072 -0.707 0.707 0.7072 22.7287 225.6688)" class="st2" width="0.6" height="0.6"/>
	
		<rect x="297.7" y="99.3" transform="matrix(0.7071 -0.7071 0.7071 0.7071 16.874 239.8715)" class="st2" width="0.6" height="0.6"/>
	
		<rect x="297.7" y="99.3" transform="matrix(0.7071 -0.7071 0.7071 0.7071 16.877 239.8777)" class="st2" width="0.6" height="0.6"/>
	
		<rect x="311.9" y="113.5" transform="matrix(0.7072 -0.707 0.707 0.7072 10.9872 254.0102)" class="st2" width="0.6" height="0.6"/>
	
		<rect x="311.9" y="113.5" transform="matrix(0.7071 -0.7071 0.7071 0.7071 11.0047 254.0478)" class="st2" width="0.6" height="0.6"/>
	<rect x="85.1" y="113.5" transform="matrix(0.707 -0.7072 0.7072 0.707 -55.4177 93.7136)" class="st2" width="0.6" height="0.6"/>
	
		<rect x="85.1" y="113.5" transform="matrix(0.7071 -0.7071 0.7071 0.7071 -55.4152 93.696)" class="st2" width="0.6" height="0.6"/>
	
		<rect x="99.3" y="99.3" transform="matrix(0.7071 -0.7071 0.7071 0.7071 -41.2419 99.5668)" class="st2" width="0.6" height="0.6"/>
	
		<rect x="99.3" y="99.3" transform="matrix(0.7071 -0.7071 0.7071 0.7071 -41.2419 99.5668)" class="st2" width="0.6" height="0.6"/>
	
		<rect x="113.5" y="85.1" transform="matrix(0.7071 -0.7071 0.7071 0.7071 -27.0687 105.4375)" class="st2" width="0.6" height="0.6"/>
	
		<rect x="113.5" y="85.1" transform="matrix(0.7071 -0.7071 0.7071 0.7071 -27.0687 105.4375)" class="st2" width="0.6" height="0.6"/>
	
		<rect x="127.6" y="99.3" transform="matrix(0.7072 -0.707 0.707 0.7072 -32.9419 119.5907)" class="st2" width="0.6" height="0.6"/>
	
		<rect x="127.6" y="99.3" transform="matrix(0.707 -0.7072 0.7072 0.707 -32.9369 119.6308)" class="st2" width="0.6" height="0.6"/>
	
		<rect x="141.8" y="113.5" transform="matrix(0.707 -0.7072 0.7072 0.707 -38.8077 133.8065)" class="st2" width="0.6" height="0.6"/>
	
		<rect x="141.8" y="113.5" transform="matrix(0.7071 -0.7071 0.7071 0.7071 -38.8102 133.784)" class="st2" width="0.6" height="0.6"/>
	
		<rect x="127.6" y="127.6" transform="matrix(0.7072 -0.707 0.707 0.7072 -52.9834 127.8906)" class="st2" width="0.6" height="0.6"/>
	
		<rect x="127.6" y="127.6" transform="matrix(0.707 -0.7072 0.7072 0.707 -52.9834 127.9358)" class="st2" width="0.6" height="0.6"/>
	
		<rect x="113.5" y="141.8" transform="matrix(0.7071 -0.7071 0.7071 0.7071 -67.1566 122.0425)" class="st2" width="0.6" height="0.6"/>
	
		<rect x="113.5" y="141.8" transform="matrix(0.7071 -0.7071 0.7071 0.7071 -67.1566 122.0425)" class="st2" width="0.6" height="0.6"/>
	
		<rect x="99.3" y="127.6" transform="matrix(0.7071 -0.7071 0.7071 0.7071 -61.2859 107.8693)" class="st2" width="0.6" height="0.6"/>
	
		<rect x="99.3" y="127.6" transform="matrix(0.7071 -0.7071 0.7071 0.7071 -61.2859 107.8693)" class="st2" width="0.6" height="0.6"/>
</g>
<g id="PLAN::IPN">
</g>
<g id="PLAN::STRUCTURE_2.3">
	<line class="st4" x1="48.6" y1="258.3" x2="40.6" y2="261.4"/>
	<line class="st4" x1="52.6" y1="267.6" x2="44.9" y2="271.2"/>
	<line class="st4" x1="57.2" y1="276.6" x2="49.7" y2="280.7"/>
	<line class="st4" x1="62.4" y1="285.4" x2="55.2" y2="289.9"/>
	<line class="st4" x1="68.1" y1="293.8" x2="61.2" y2="298.7"/>
	<line class="st4" x1="74.3" y1="301.8" x2="67.7" y2="307.2"/>
	<line class="st4" x1="81" y1="309.4" x2="74.8" y2="315.2"/>
	<line class="st4" x1="88.2" y1="316.6" x2="82.4" y2="322.8"/>
	<line class="st4" x1="95.8" y1="323.3" x2="90.4" y2="329.8"/>
	<line class="st4" x1="103.8" y1="329.5" x2="98.8" y2="336.4"/>
	<line class="st4" x1="112.2" y1="335.2" x2="107.6" y2="342.4"/>
	<line class="st4" x1="120.9" y1="340.4" x2="116.8" y2="347.8"/>
	<line class="st4" x1="130" y1="345" x2="126.4" y2="352.7"/>
	<line class="st4" x1="139.3" y1="349" x2="136.2" y2="356.9"/>
	<line class="st4" x1="148.8" y1="352.4" x2="146.2" y2="360.5"/>
	<line class="st4" x1="158.6" y1="355.3" x2="156.5" y2="363.5"/>
	<line class="st4" x1="168.5" y1="357.5" x2="166.9" y2="365.8"/>
	<line class="st4" x1="178.5" y1="359.1" x2="177.5" y2="367.5"/>
	<line class="st4" x1="188.6" y1="360" x2="188.1" y2="368.5"/>
	<line class="st4" x1="208.9" y1="360" x2="209.5" y2="368.5"/>
	<line class="st4" x1="219" y1="359.1" x2="220.1" y2="367.5"/>
	<line class="st4" x1="229.1" y1="357.5" x2="230.6" y2="365.8"/>
	<line class="st4" x1="239" y1="355.3" x2="241.1" y2="363.5"/>
	<line class="st4" x1="248.7" y1="352.4" x2="251.3" y2="360.5"/>
	<line class="st4" x1="258.3" y1="349" x2="261.4" y2="356.9"/>
	<line class="st4" x1="267.6" y1="345" x2="271.2" y2="352.7"/>
	<line class="st4" x1="276.6" y1="340.4" x2="280.7" y2="347.8"/>
	<line class="st4" x1="285.4" y1="335.2" x2="289.9" y2="342.4"/>
	<line class="st4" x1="293.8" y1="329.5" x2="298.7" y2="336.4"/>
	<line class="st4" x1="301.8" y1="323.3" x2="307.2" y2="329.8"/>
	<line class="st4" x1="309.4" y1="316.6" x2="315.2" y2="322.8"/>
	<line class="st4" x1="316.6" y1="309.4" x2="322.8" y2="315.2"/>
	<line class="st4" x1="323.3" y1="301.8" x2="329.8" y2="307.2"/>
	<line class="st4" x1="329.5" y1="293.8" x2="336.4" y2="298.7"/>
	<line class="st4" x1="335.2" y1="285.4" x2="342.4" y2="289.9"/>
	<line class="st4" x1="340.4" y1="276.6" x2="347.8" y2="280.7"/>
	<line class="st4" x1="345" y1="267.6" x2="352.7" y2="271.2"/>
	<line class="st4" x1="349" y1="258.3" x2="356.9" y2="261.4"/>
	<line class="st4" x1="352.4" y1="248.7" x2="360.5" y2="251.3"/>
	<line class="st4" x1="355.3" y1="239" x2="363.5" y2="241.1"/>
	<line class="st4" x1="355.3" y1="158.6" x2="363.5" y2="156.5"/>
	<line class="st4" x1="352.4" y1="148.9" x2="360.5" y2="146.2"/>
	<line class="st4" x1="349" y1="139.3" x2="356.9" y2="136.2"/>
	<line class="st4" x1="345" y1="130" x2="352.7" y2="126.4"/>
	<line class="st4" x1="340.4" y1="120.9" x2="347.8" y2="116.8"/>
	<line class="st4" x1="335.2" y1="112.2" x2="342.4" y2="107.6"/>
	<line class="st4" x1="329.5" y1="103.8" x2="336.4" y2="98.8"/>
	<line class="st4" x1="323.3" y1="95.8" x2="329.8" y2="90.4"/>
	<line class="st4" x1="316.6" y1="88.2" x2="322.8" y2="82.4"/>
	<line class="st4" x1="309.4" y1="81" x2="315.2" y2="74.8"/>
	<line class="st4" x1="301.8" y1="74.3" x2="307.2" y2="67.7"/>
	<line class="st4" x1="293.8" y1="68.1" x2="298.7" y2="61.2"/>
	<line class="st4" x1="285.4" y1="62.4" x2="289.9" y2="55.2"/>
	<line class="st4" x1="276.6" y1="57.2" x2="280.7" y2="49.7"/>
	<line class="st4" x1="267.6" y1="52.6" x2="271.2" y2="44.9"/>
	<line class="st4" x1="258.3" y1="48.6" x2="261.4" y2="40.6"/>
	<line class="st4" x1="248.7" y1="45.1" x2="251.3" y2="37"/>
	<line class="st4" x1="239" y1="42.3" x2="241.1" y2="34"/>
	<line class="st4" x1="229.1" y1="40.1" x2="230.6" y2="31.7"/>
	<line class="st4" x1="219" y1="38.5" x2="220.1" y2="30"/>
	<line class="st4" x1="208.9" y1="37.5" x2="209.5" y2="29"/>
	
		<ellipse transform="matrix(0.7071 -0.7071 0.7071 0.7071 -82.3371 198.7794)" class="st4" cx="198.8" cy="198.8" rx="170.1" ry="170.1"/>
	<circle class="st4" cx="198.8" cy="198.8" r="161.6"/>
	<line class="st4" x1="198.8" y1="37.2" x2="198.8" y2="28.7"/>
	<line class="st4" x1="198.8" y1="360.4" x2="198.8" y2="368.9"/>
	<line class="st4" x1="357.5" y1="229.1" x2="365.8" y2="230.6"/>
	<line class="st4" x1="359.1" y1="219" x2="367.5" y2="220.1"/>
	<line class="st4" x1="360" y1="208.9" x2="368.5" y2="209.5"/>
	<line class="st4" x1="360.4" y1="198.8" x2="368.9" y2="198.8"/>
	<line class="st4" x1="360" y1="188.6" x2="368.5" y2="188.1"/>
	<line class="st4" x1="359.1" y1="178.5" x2="367.5" y2="177.5"/>
	<line class="st4" x1="357.5" y1="168.5" x2="365.8" y2="166.9"/>
	<line class="st4" x1="130" y1="52.6" x2="126.4" y2="44.9"/>
	<line class="st4" x1="120.9" y1="57.2" x2="116.8" y2="49.7"/>
	<line class="st4" x1="112.2" y1="62.4" x2="107.6" y2="55.2"/>
	<line class="st4" x1="103.8" y1="68.1" x2="98.8" y2="61.2"/>
	<line class="st4" x1="95.8" y1="74.3" x2="90.4" y2="67.7"/>
	<line class="st4" x1="88.2" y1="81" x2="82.4" y2="74.8"/>
	<line class="st4" x1="81" y1="88.2" x2="74.8" y2="82.4"/>
	<line class="st4" x1="74.3" y1="95.8" x2="67.7" y2="90.4"/>
	<line class="st4" x1="68.1" y1="103.8" x2="61.2" y2="98.8"/>
	<line class="st4" x1="62.4" y1="112.2" x2="55.2" y2="107.6"/>
	<line class="st4" x1="57.2" y1="120.9" x2="49.7" y2="116.8"/>
	<line class="st4" x1="52.6" y1="130" x2="44.9" y2="126.4"/>
	<line class="st4" x1="48.6" y1="139.3" x2="40.6" y2="136.2"/>
	<line class="st4" x1="45.1" y1="148.9" x2="37" y2="146.2"/>
	<line class="st4" x1="42.3" y1="158.6" x2="34" y2="156.5"/>
	<line class="st4" x1="40.1" y1="168.5" x2="31.7" y2="166.9"/>
	<line class="st4" x1="38.5" y1="178.5" x2="30" y2="177.5"/>
	<line class="st4" x1="37.5" y1="188.6" x2="29" y2="188.1"/>
	<line class="st4" x1="37.2" y1="198.8" x2="28.7" y2="198.8"/>
	<line class="st4" x1="37.5" y1="208.9" x2="29" y2="209.5"/>
	<line class="st4" x1="38.5" y1="219" x2="30" y2="220.1"/>
	<line class="st4" x1="40.1" y1="229.1" x2="31.7" y2="230.6"/>
	<line class="st4" x1="42.3" y1="239" x2="34" y2="241.1"/>
	<path class="st4" d="M266,187.1c-5.2,7.9-4.5,18.2,1.5,25.4c6.1,7.2,16.2,9.5,24.8,5.7c8.6-3.8,13.7-12.8,12.6-22.1
		c-1.2-9.3-8.3-16.8-17.6-18.3"/>
	
		<rect x="104.4" y="273.3" transform="matrix(0.7071 -0.7071 0.7071 0.7071 -166.7652 163.8069)" class="st4" width="19.8" height="19.8"/>
	
		<rect x="104.4" y="104.4" transform="matrix(0.7071 -0.7071 0.7071 0.7071 -47.3657 114.3508)" class="st4" width="19.8" height="19.8"/>
	
		<rect x="273.3" y="104.4" transform="matrix(0.7071 -0.7071 0.7071 0.7071 2.0914 233.7508)" class="st4" width="19.8" height="19.8"/>
	
		<rect x="273.3" y="273.3" transform="matrix(0.7071 -0.7071 0.7071 0.7071 -117.3086 283.2093)" class="st4" width="19.8" height="19.8"/>
	<line class="st4" x1="45.1" y1="248.7" x2="37" y2="251.3"/>
	<line class="st4" x1="188.6" y1="37.5" x2="188.1" y2="29"/>
	<line class="st4" x1="178.5" y1="38.5" x2="177.5" y2="30"/>
	<line class="st4" x1="168.5" y1="40.1" x2="166.9" y2="31.7"/>
	<line class="st4" x1="158.6" y1="42.3" x2="156.5" y2="34"/>
	<line class="st4" x1="148.8" y1="45.1" x2="146.2" y2="37"/>
	<line class="st4" x1="139.3" y1="48.6" x2="136.2" y2="40.6"/>
</g>
<g id="PLAN::POINTILLE">
	<polyline class="st6" points="156.3,144.8 196.2,144.8 196.2,148.2 196.2,164.1 196.2,167.7 156.3,167.7 	"/>
</g>
<g id="PLAN::POINTILLE_PROGRAMME">
</g>
<g id="PLAN::TRAME_2">
</g>
<g id="PLAN::DETAIL">
	<polyline class="st9" points="156.3,164.2 156.3,164.1 156.3,167.7 93.8,167.7 93.8,144.8 156.3,144.8 156.3,148 156.3,164.1 	"/>
	<polyline class="st9" points="116.8,144.8 116.8,148 116.8,164.1 116.8,167.7 	"/>
	
		<ellipse transform="matrix(0.1156 -0.9933 0.9933 0.1156 -106.1183 448.4509)" class="st9" cx="198.8" cy="283.8" rx="28.3" ry="28.3"/>
	<line class="st9" x1="194.2" y1="113.7" x2="175" y2="113.7"/>
	<polyline class="st9" points="194.2,113.7 198.8,113.7 198.8,85.4 170.4,85.4 170.4,113.7 175,113.7 	"/>
	<path class="st9" d="M81.4,109.7c-13.6,17.9-22.9,38.7-27.2,60.7c-8.1,41.2,1.8,84,27.2,117.4c10.8-10.8,21.6-21.6,32.4-32.4
		c9.4,9.4,18.9,18.9,28.3,28.3c-10.8,10.8-21.6,21.6-32.4,32.4c52.7,40,125.5,40,178.2,0c-10.8-10.8-21.6-21.6-32.4-32.4
		c9.4-9.4,18.9-18.9,28.3-28.3c10.8,10.8,21.6,21.6,32.4,32.4c40-52.7,40-125.5,0-178.2c-10.8,10.8-21.6,21.6-32.4,32.4
		c-9.4-9.4-18.9-18.9-28.3-28.3c10.8-10.8,21.6-21.6,32.4-32.4C242.8,47.1,182,41.8,131.6,67.6C124,71.5,116.8,76,110,81.1
		c-2.8,2.1-5.6,4.4-8.2,6.7c2.6-2.3,5.3-4.5,8.1-6.6c51.1-38.6,121.3-39.8,173.7-2.9"/>
</g>
<g id="PLAN::TOPO">
	<path class="st10" d="M309.7,281.3c3.8-4.5,6.2-9.5,5.8-14.4c-0.6-6.8-6.5-13.2-12.7-17.3s-12.8-6-18.9-10
		c-6.1-4-11.8-10-16.7-13.7c-4.9-3.7-9.1-5-13.6-3.9c-4.6,1.1-9.5,4.4-16,6.9c-6.5,2.5-14.7,4.1-21.1,5.5c-6.4,1.4-11.2,2.6-15,5.3
		c-3.8,2.7-6.8,6.8-8.5,11.4c-0.6,1.7-1.1,3.5-1.3,5.4"/>
	<path class="st10" d="M194.4,311.8c-4.4,8-11.9,17.9-26.2,31.1"/>
	<path class="st10" d="M199.3,255.5c0.4-1.5,0.9-3,1.5-4.2c1.7-3.3,4.2-5.3,7.5-6.7c3.3-1.4,7.4-2.3,11.8-3.2
		c4.5-0.8,9.4-1.7,14.2-3.2c4.8-1.5,9.6-3.8,13.8-5c4.2-1.2,7.9-1.3,11.6-0.2c3.7,1.1,7.4,3.4,11.3,6.6c3.9,3.2,7.9,7.3,12.5,11.2
		c4.6,3.9,9.8,7.5,13.5,10.5c3.6,3.1,5.8,5.6,5.6,9.3c0,1-0.2,2.1-0.6,3.2"/>
	<path class="st10" d="M263,291.4c-6.4,0.9-12.5,2.4-17.2,3.6c-4.9,1.3-8.4,2.4-11.2,2.6c-2.7,0.3-4.7-0.1-7.8-1
		c-0.7-0.2-1.6-0.4-2.4-0.7"/>
	<path class="st10" d="M227.1,285.9c0.9,0.4,1.8,0.7,2.7,1c5.3,1.6,10.5,1.5,16.3,1c3.9-0.3,8.1-0.9,12.1-1.4"/>
	<path class="st10" d="M282.3,257c-3.2-2.4-7.3-4.4-12.4-6.1c-7.1-2.5-16-4.4-22.8-5.1c-6.8-0.6-11.6,0-16.7,0.6
		c-5,0.6-10.3,1.1-14.5,2.1c-4.2,1-7.3,2.6-9.3,4.8c-0.7,0.9-1.3,1.8-1.7,2.8"/>
	<path class="st10" d="M274.3,265c-0.7-0.6-1.4-1.1-2.3-1.7c-5.3-3.5-12.9-6-19.3-6.2c-6.4-0.2-11.6,2-14.2,4.4
		c-2.6,2.4-2.6,5-2.1,8.3c0.5,3.4,1.6,7.5,5,9s9.1,0.5,15.1,0.2c1.2-0.1,2.4-0.1,3.6-0.1"/>
	<path class="st10" d="M265.6,273.7c-1.6,0.2-3.4,0.4-5.2,0.6c-3.9,0.5-7.3,1-9.9,1.1c-2.6,0.1-4.2-0.3-5.3-1.4
		c-1.1-1-1.5-2.7-0.5-4.6c1-1.9,3.6-4.1,6.4-5.2c2.8-1,5.9-0.9,9.4,0.1c3.5,1,7.3,3,9.4,4.6c0.1,0.1,0.1,0.1,0.2,0.2"/>
	<path class="st10" d="M210.3,257.9c0.5-0.7,1-1.5,1.7-2.1c1.9-1.8,4.5-3,7.1-3.3c2.6-0.3,5,0.4,6.9,2.5c1.9,2.1,3.1,5.6,3.3,9.2
		c0.2,3.6-0.7,7.3-2.3,9.8c-0.3,0.5-0.7,1-1.1,1.4"/>
	<path class="st10" d="M170.4,113.4c-4,1.7-7.9,3.7-11.5,5.9c-6.4,3.9-12,8.5-18.7,14.1c-4.4,3.6-9.3,7.7-14.3,11.4"/>
	<path class="st10" d="M93.8,157.8c-0.7,0.1-1.4,0.1-2.2,0.2c-9.3,0.8-20.5,0.1-34.6,0.3"/>
	<path class="st10" d="M53.4,174.6c24.9,4.2,32.7,3.1,40.2,1.4c8-1.9,15.7-4.5,23.2-8.2"/>
	<path class="st10" d="M199.5,51.4c-20.9,11.1-31.6,14.2-40.5,17c-11.6,3.6-20.4,6.7-28.5,9.6c-8.2,2.9-15.7,5.5-23.4,8.1
		c-1.7,0.5-3.3,1.1-5.3,1.7"/>
	<path class="st10" d="M104.6,110c-7.8,3-17.6,6.8-30.3,11.7c-0.5,0.2-1,0.4-1.5,0.6"/>
	<path class="st10" d="M240.9,57.5c-22.9,13.3-38.5,19.1-51.1,23.4c-4.9,1.7-9.4,3.1-13.5,4.5"/>
	<path class="st10" d="M170.4,87.2c-4.2,1.3-8.1,2.5-11.9,3.6c-8.9,2.7-17.1,5.3-28.9,9.6c-3.2,1.2-6.7,2.5-11,4.2"/>
	<path class="st10" d="M294,180.1c-8.8,10.5-16.5,12-23.3,12.1c-2.5,0-4.8-0.1-7-0.2"/>
	<path class="st10" d="M301.4,210.7c-12.9,2-17.5,1-21.6,0.6c-3.5-0.4-6.7-0.3-10.3,3.1"/>
	<path class="st10" d="M304.7,194.8c-9.5,6.8-17.2,7.8-23.4,9.2c-5.9,1.3-10.6,3.1-14.6,7.4"/>
	<path class="st10" d="M263.5,205.1c6.9-4.8,12.1-6.7,16.9-8c6-1.6,11.5-2.5,19.8-11.8"/>
	<path class="st10" d="M222.5,53.3c-31.5,15.6-49.3,20.4-62.1,24.1c-13.1,3.7-21,6.2-33.2,11.1c-2.5,1-5.1,2-8,3.3
		c-10.3,3.3-15.5,4.8-19.2,6c-3.7,1.3-5.9,2.3-9,4.4c-3.2,2-7.4,5.1-9.6,7.6"/>
	<path class="st10" d="M278.1,136.4c-5.3,15.6,2.2,23.3,9.4,28.7c7.2,5.4,14.1,8.4,19.1,12.7c5,4.3,8,9.8,9.5,15.7
		c1.5,5.9,1.6,12-0.1,17.1c-1.7,5.1-5.3,9-7.1,13.4c-1.8,4.4-1.8,9.1,0.4,13.3c2.2,4.2,6.6,7.8,11.7,16.2c2.7,4.5,5.5,10.3,6.2,17.7
		"/>
	<path class="st10" d="M51.4,198c60.8,14.5,82-0.1,94.1-10.8c0.7-0.7,1.5-1.3,2.1-1.9c13.3-11.7,19.5-15.5,25-17.5"/>
	<path class="st10" d="M51.5,205.7c19.2,1,31.8,1.7,40.5,2.2c1.7,0.1,3.3,0.2,5,0.3c6.6,0.4,10.2,0.8,13.1,1.3
		c7,1.2,9.6,3.2,11.7,5.5c2,2.2,3.4,4.6,2.2,8.5c-1.2,3.9-5.1,9.2-10,11.7c-4.9,2.4-10.7,2-20.5,1.8c-7.7-0.1-17.9,0-39.1-8.5"/>
	<path class="st10" d="M264.9,123.2c-0.6,0.6-1.1,1.2-1.7,1.9c-4.8,5.4-9.1,11.5-12.7,18c-0.7,1.2-1.3,2.4-2,3.7
		c-1.6,3.1-3.2,6.3-4.7,9.4c-1.4,2.7-2.9,5.5-4.6,8.5c-4.7,8.2-11.3,17.5-17.4,23.8c-6.1,6.4-11.9,9.8-17.4,14.4
		s-10.8,10.3-15.4,16.9c-4.6,6.5-8.5,13.8-11.3,20.4c-2.8,6.6-4.4,12.5-7.1,19.4c-2.7,6.9-6.5,15-18.8,20.9c-2.8,1.3-6,2.6-10.2,3.8
		"/>
	<path class="st10" d="M259.9,109.3c-24.6,15.5-30.8,20.7-36.4,26.4c-6.3,6.5-11.5,13.7-16.3,18.5c-3.1,3.1-6,5.2-8.9,6.6
		c-0.7,0.3-1.5,0.7-2.2,1"/>
	<path class="st10" d="M344.9,218L344.9,218c-8-12.6-10.9-23.4-14.2-31.5c-4.8-12-10.6-18.1-17-22.9c-6.5-4.8-13.6-8.3-17.7-11.4
		c-4-3-4.8-5.6-4.9-9c-0.1-2.4,0.2-5.3,2.1-10.5"/>
	<path class="st10" d="M174.8,144.8c7.9-2.4,15.5-6.1,22.6-11.2c7.7-6.6,16.1-13.5,32-18.7c0.1,0,0.1,0,0.2-0.1
		c4.3-1.4,8.6-1.7,12.9-2.5c4.3-0.8,8.5-2,18.2-8.1c3.4-2.1,7.4-4.8,12.8-8.6"/>
	<path class="st10" d="M283.2,77.9c-25.7,20.6-33.9,24-40.7,26.3c-8.1,2.8-14.1,4-20.9,4.3c-6.8,0.3-14.4-0.3-21.5-0.4
		c-0.5,0-0.9,0-1.3,0"/>
	<path class="st10" d="M60.2,148.4c29.5-2.1,37.3-7.7,45.5-13c8.3-5.4,17-10.6,24.1-14.9c7.1-4.2,12.5-7.5,18.6-10.2
		c6.1-2.6,12.9-4.7,21.4-6.6c0.2,0,0.4-0.1,0.6-0.1"/>
	<path class="st10" d="M198.8,98.8c9.8-1.2,19.5-1.8,30.4-4.7c8.6-2.3,18.1-6,46.5-21.1"/>
	<path class="st10" d="M263.1,66.1C247.6,76,240.6,78.7,234.2,81c-8.9,3.2-16.8,5.6-26.1,7.6c-3,0.7-6.1,1.3-9.3,1.8"/>
	<path class="st10" d="M170.4,95.7c-6.1,1.3-12,2.8-18.3,4.7c-8,2.3-16.8,5.3-28,9.6"/>
	<path class="st10" d="M104.2,118.2c-10.6,4.6-23.2,10.4-39,18.4"/>
	<path class="st10" d="M59,245.7c37.1,10.5,49,8.9,58.3,7.1c10.5-2.1,17.6-4.6,25.1-9.6c7.5-4.9,15.4-12.3,23.4-21.4
		c8.1-9.1,16.3-20,25.2-31.8c8.9-11.8,18.5-24.4,25.8-33.3c7.4-8.9,12.5-14,21.2-22.3c5.6-5.4,12.7-12.1,20-18.2"/>
	<path class="st10" d="M138.2,333.1c27.2-15.9,31.7-21.4,34.9-27.3c1-1.8,1.9-3.7,2.6-5.5"/>
	<path class="st10" d="M180.4,262.2c0.7-5.3,2-10.6,4-15.4c2.5-6,6.1-11.1,10.6-15.6c4.5-4.5,9.9-8.3,15.4-10.3
		c5.5-1.9,11.1-1.9,16.6-2.9c5.5-1,10.9-3,15-6.4c4.1-3.4,7-8.2,8.8-16c1.9-7.8,2.8-18.6,4.6-28.5c1.9-9.9,4.7-18.9,8.7-25.7
		c2.5-4.3,5.5-7.6,8.7-10.3"/>
	<path class="st10" d="M227.4,343.4c8.4-9.3,14.6-14.1,21-18c11.1-6.8,22.4-10.6,31.7-13.1c1.1-0.3,2.1-0.5,3.1-0.8"/>
	<path class="st10" d="M198.9,346.2c10.9-17.4,19.4-27.4,27.4-33.7c10-8,19.2-10.5,28.2-11.8c5.4-0.8,10.7-1.2,16-1.8"/>
</g>
<g id="PLAN::FOND">
</g>
<g id="INFOS::CADRES_2" class="st0">
	<g class="st12">
		<path class="st13" d="M396.5,1.1v395.5H1.1V1.1H396.5 M397.2,0.4H0.4v396.9h396.9V0.4L397.2,0.4z"/>
	</g>
</g>
<g id="BLOCK_SPECTIFIQUES::MEUBLE_FITNESS">
</g>
<g id="BLOCK_SPECTIFIQUES::POTAGER">
</g>
<g id="PLAN::POTEAU">
</g>
<g id="PLAN::FOND_SOL">
</g>
</svg>
