<?xml version="1.0" encoding="utf-8"?>
<!-- Generator: Adobe Illustrator 22.0.1, SVG Export Plug-In . SVG Version: 6.00 Build 0)  -->
<svg version="1.1" xmlns="http://www.w3.org/2000/svg" xmlns:xlink="http://www.w3.org/1999/xlink" x="0px" y="0px" width="397.6px"
	 height="397.6px" viewBox="0 0 397.6 397.6" style="enable-background:new 0 0 397.6 397.6;" xml:space="preserve">
<style type="text/css">
	.st0{display:none;}
	.st1{display:inline;stroke:#FFFFFF;stroke-linecap:round;stroke-linejoin:round;}
	.st2{fill:#FFFFFF;stroke:#FFFFFF;stroke-width:0.4;stroke-miterlimit:10;}
	.st3{fill:none;stroke:#FFFFFF;stroke-linecap:square;}
	.st4{fill:none;stroke:#FFFFFF;stroke-width:0.7;stroke-linecap:square;}
	.st5{fill:none;stroke:#FFFFFF;stroke-width:0.55;stroke-linecap:square;}
	.st6{fill:none;stroke:#FFFFFF;stroke-width:0.6;stroke-linecap:square;stroke-dasharray:2,3;}
	.st7{fill:none;stroke:#FFFFFF;stroke-width:0.2;stroke-linecap:square;stroke-dasharray:2,3;}
	.st8{fill:none;stroke:#FFFFFF;stroke-width:0.3;stroke-linecap:square;}
	.st9{fill:none;stroke:#FFFFFF;stroke-width:0.5;stroke-linecap:square;}
	.st10{fill:none;stroke:#FFFFFF;stroke-width:0.7;stroke-linecap:square;stroke-dasharray:2,3;}
	.st11{fill:none;stroke:#FFFFFF;stroke-width:0.4;stroke-linecap:square;}
	.st12{display:inline;}
	.st13{fill:#FFFFFF;}
	.st14{display:inline;fill:none;stroke:#000000;stroke-linecap:round;stroke-linejoin:round;}
</style>
<g id="FOND" class="st0">
	<rect x="-516.8" y="-51.8" class="st1" width="1470.6" height="1969.9"/>
</g>
<g id="Calque_1" class="st0">
</g>
<g id="PLAN::STRUCTURE_1.1">
	<rect x="232.6" y="140.1" class="st2" width="1.1" height="1.1"/>
	
		<rect x="246.6" y="45.9" transform="matrix(0.7071 -0.7071 0.7071 0.7071 39.5217 188.3907)" class="st2" width="1.1" height="1.1"/>
	<rect x="286.7" y="86" transform="matrix(0.7071 -0.7071 0.7071 0.7071 22.9167 228.4786)" class="st2" width="1.1" height="1.1"/>
	
		<rect x="306.7" y="106.1" transform="matrix(0.7071 -0.7071 0.7071 0.7071 14.6142 248.5226)" class="st2" width="1.1" height="1.1"/>
	
		<rect x="206.5" y="45.9" transform="matrix(0.7071 -0.7072 0.7072 0.7071 27.7873 160.0555)" class="st2" width="1.1" height="1.1"/>
	<rect x="226.6" y="66" transform="matrix(0.7072 -0.7071 0.7071 0.7072 19.4706 180.0753)" class="st2" width="1.1" height="1.1"/>
	<rect x="246.6" y="86" transform="matrix(0.7071 -0.7071 0.7071 0.7071 11.1752 200.1322)" class="st2" width="1.1" height="1.1"/>
	
		<rect x="266.6" y="106.1" transform="matrix(0.7071 -0.7072 0.7072 0.7071 2.8798 220.1927)" class="st2" width="1.1" height="1.1"/>
	
		<rect x="379.1" y="322.8" transform="matrix(0.5001 -0.866 0.866 0.5001 -90.2405 490.4149)" class="st2" width="1.1" height="1.1"/>
	<rect x="382.9" y="259.5" transform="matrix(0.5 -0.866 0.866 0.5 -33.5348 462.1044)" class="st2" width="1.1" height="1.1"/>
	<rect x="354.5" y="308.6" transform="matrix(0.5 -0.866 0.866 0.5 -90.221 462.124)" class="st2" width="1.1" height="1.1"/>
	<rect x="358.3" y="245.4" transform="matrix(0.5 -0.866 0.866 0.5 -33.5265 433.7752)" class="st2" width="1.1" height="1.1"/>
	<rect x="330" y="294.5" transform="matrix(0.5 -0.866 0.866 0.5 -90.2277 433.7579)" class="st2" width="1.1" height="1.1"/>
	
		<rect x="333.8" y="231.2" transform="matrix(0.5001 -0.866 0.866 0.5001 -33.5481 405.3834)" class="st2" width="1.1" height="1.1"/>
	
		<rect x="305.4" y="280.3" transform="matrix(0.5001 -0.866 0.866 0.5001 -90.2372 405.3812)" class="st2" width="1.1" height="1.1"/>
	<rect x="309.2" y="217" transform="matrix(0.5 -0.866 0.866 0.5 -33.5278 377.0801)" class="st2" width="1.1" height="1.1"/>
	<rect x="280.9" y="266.1" transform="matrix(0.5 -0.866 0.866 0.5 -90.2229 377.0814)" class="st2" width="1.1" height="1.1"/>
	<rect x="284.7" y="202.8" transform="matrix(0.5 -0.866 0.866 0.5 -33.5348 348.7185)" class="st2" width="1.1" height="1.1"/>
	<rect x="256.3" y="251.9" transform="matrix(0.5 -0.866 0.866 0.5 -90.2277 348.7185)" class="st2" width="1.1" height="1.1"/>
	<rect x="260.1" y="188.7" transform="matrix(0.5 -0.866 0.866 0.5 -33.529 320.385)" class="st2" width="1.1" height="1.1"/>
	<rect x="231.8" y="237.8" transform="matrix(0.5 -0.866 0.866 0.5 -90.2241 320.3863)" class="st2" width="1.1" height="1.1"/>
	<rect x="249.7" y="149.9" transform="matrix(0.5 -0.866 0.866 0.5 -5.1884 292.0256)" class="st2" width="1.1" height="1.1"/>
	<rect x="235.6" y="174.5" transform="matrix(0.5 -0.866 0.866 0.5 -33.5386 292.0169)" class="st2" width="1.1" height="1.1"/>
	
		<rect x="207.2" y="223.6" transform="matrix(0.5001 -0.866 0.866 0.5001 -90.2329 292.0028)" class="st2" width="1.1" height="1.1"/>
	<rect x="225.2" y="135.8" transform="matrix(0.5 -0.866 0.866 0.5 -5.1925 263.6717)" class="st2" width="1.1" height="1.1"/>
	<rect x="211" y="160.3" transform="matrix(0.5 -0.866 0.866 0.5 -33.5348 263.6791)" class="st2" width="1.1" height="1.1"/>
	<rect x="182.7" y="209.4" transform="matrix(0.5 -0.866 0.866 0.5 -90.2254 263.6912)" class="st2" width="1.1" height="1.1"/>
	<rect x="172.3" y="170.7" transform="matrix(0.5 -0.866 0.866 0.5 -61.8834 235.3251)" class="st2" width="1.1" height="1.1"/>
	
		<rect x="144" y="219.8" transform="matrix(0.5001 -0.866 0.866 0.5001 -118.5754 235.3126)" class="st2" width="1.1" height="1.1"/>
	<rect x="133.6" y="181.1" transform="matrix(0.5 -0.866 0.866 0.5 -90.2286 206.979)" class="st2" width="1.1" height="1.1"/>
	<rect x="123.2" y="142.3" transform="matrix(0.5 -0.866 0.866 0.5 -61.8797 178.6479)" class="st2" width="1.1" height="1.1"/>
	<rect x="109" y="166.9" transform="matrix(0.5 -0.866 0.866 0.5 -90.2277 178.6398)" class="st2" width="1.1" height="1.1"/>
	<rect x="94.9" y="191.4" transform="matrix(0.5 -0.866 0.866 0.5 -118.5742 178.6398)" class="st2" width="1.1" height="1.1"/>
	<rect x="127" y="79.1" transform="matrix(0.5 -0.866 0.866 0.5 -5.1907 150.289)" class="st2" width="1.1" height="1.1"/>
	<rect x="112.8" y="103.6" transform="matrix(0.5 -0.866 0.866 0.5 -33.5348 150.2933)" class="st2" width="1.1" height="1.1"/>
	<rect x="98.7" y="128.2" transform="matrix(0.5001 -0.866 0.866 0.5001 -61.8829 150.281)" class="st2" width="1.1" height="1.1"/>
	<rect x="84.5" y="152.7" transform="matrix(0.5 -0.866 0.866 0.5 -90.2279 150.301)" class="st2" width="1.1" height="1.1"/>
	<rect x="88.3" y="89.4" transform="matrix(0.5 -0.866 0.866 0.5 -33.5334 121.9522)" class="st2" width="1.1" height="1.1"/>
	<rect x="74.1" y="114" transform="matrix(0.5 -0.866 0.866 0.5 -61.881 121.9529)" class="st2" width="1.1" height="1.1"/>
	<rect x="59.9" y="138.5" transform="matrix(0.5 -0.866 0.866 0.5 -90.2278 121.9468)" class="st2" width="1.1" height="1.1"/>
	<rect x="77.9" y="50.7" transform="matrix(0.5 -0.866 0.866 0.5 -5.1865 93.6041)" class="st2" width="1.1" height="1.1"/>
	<rect x="63.7" y="75.3" transform="matrix(0.5001 -0.866 0.866 0.5001 -33.5362 93.5929)" class="st2" width="1.1" height="1.1"/>
	<rect x="49.6" y="99.8" transform="matrix(0.5 -0.866 0.866 0.5 -61.8813 93.6004)" class="st2" width="1.1" height="1.1"/>
	<rect x="35.4" y="124.4" transform="matrix(0.5 -0.866 0.866 0.5 -90.2267 93.5963)" class="st2" width="1.1" height="1.1"/>
	<rect x="39.2" y="61.1" transform="matrix(0.5 -0.866 0.866 0.5 -33.5347 65.2571)" class="st2" width="1.1" height="1.1"/>
	<rect x="25" y="85.7" transform="matrix(0.5 -0.866 0.866 0.5 -61.8822 65.2578)" class="st2" width="1.1" height="1.1"/>
	
		<rect x="286.7" y="126.1" transform="matrix(0.7072 -0.7071 0.7071 0.7072 -5.4368 240.2019)" class="st2" width="1.1" height="1.1"/>
	<rect x="206.5" y="86" transform="matrix(0.7071 -0.7072 0.7072 0.7071 -0.5609 171.7987)" class="st2" width="1.1" height="1.1"/>
	
		<rect x="226.6" y="106.1" transform="matrix(0.7071 -0.7071 0.7071 0.7071 -8.8688 191.8297)" class="st2" width="1.1" height="1.1"/>
	
		<rect x="246.6" y="126.1" transform="matrix(0.7072 -0.7071 0.7071 0.7072 -17.1765 211.8572)" class="st2" width="1.1" height="1.1"/>
	
		<rect x="206.5" y="126.1" transform="matrix(0.7071 -0.7071 0.7071 0.7071 -28.9127 183.5272)" class="st2" width="1.1" height="1.1"/>
	<rect x="10.8" y="110.2" transform="matrix(0.5 -0.866 0.866 0.5 -90.2278 65.2539)" class="st2" width="1.1" height="1.1"/>
	<rect x="14.6" y="46.9" transform="matrix(0.5 -0.866 0.866 0.5 -33.5349 36.9075)" class="st2" width="1.1" height="1.1"/>
	<rect x="28.1" y="117.8" class="st2" width="1.1" height="1.1"/>
	<rect x="28.1" y="89.4" class="st2" width="1.1" height="1.1"/>
	<rect x="28.1" y="61.1" class="st2" width="1.1" height="1.1"/>
	<rect x="28.1" y="32.8" class="st2" width="1.1" height="1.1"/>
	<rect x="56.5" y="146.1" class="st2" width="1.1" height="1.1"/>
	<rect x="56.5" y="117.8" class="st2" width="1.1" height="1.1"/>
	<rect x="56.5" y="89.4" class="st2" width="1.1" height="1.1"/>
	<rect x="56.5" y="61.1" class="st2" width="1.1" height="1.1"/>
	<rect x="84.8" y="146.1" class="st2" width="1.1" height="1.1"/>
	<rect x="84.8" y="117.8" class="st2" width="1.1" height="1.1"/>
	<rect x="84.8" y="89.4" class="st2" width="1.1" height="1.1"/>
	<rect x="113.2" y="146.1" class="st2" width="1.1" height="1.1"/>
	<rect x="113.2" y="117.8" class="st2" width="1.1" height="1.1"/>
	<rect x="113.2" y="89.4" class="st2" width="1.1" height="1.1"/>
	<rect x="226.6" y="146.1" class="st2" width="1.1" height="1.1"/>
	<rect x="226.6" y="117.8" class="st2" width="1.1" height="1.1"/>
	<rect x="226.6" y="89.4" class="st2" width="1.1" height="1.1"/>
	<rect x="226.6" y="61.1" class="st2" width="1.1" height="1.1"/>
	<rect x="254.9" y="117.8" class="st2" width="1.1" height="1.1"/>
	<rect x="254.9" y="89.4" class="st2" width="1.1" height="1.1"/>
	<rect x="254.9" y="61.1" class="st2" width="1.1" height="1.1"/>
	<rect x="254.9" y="32.8" class="st2" width="1.1" height="1.1"/>
	<rect x="283.3" y="117.8" class="st2" width="1.1" height="1.1"/>
	<rect x="283.3" y="89.4" class="st2" width="1.1" height="1.1"/>
	<rect x="283.3" y="61.1" class="st2" width="1.1" height="1.1"/>
	<rect x="283.3" y="32.8" class="st2" width="1.1" height="1.1"/>
	<rect x="311.6" y="117.8" class="st2" width="1.1" height="1.1"/>
	<rect x="311.6" y="89.4" class="st2" width="1.1" height="1.1"/>
	<rect x="311.6" y="61.1" class="st2" width="1.1" height="1.1"/>
	<rect x="311.6" y="32.8" class="st2" width="1.1" height="1.1"/>
	<rect x="339.9" y="117.8" class="st2" width="1.1" height="1.1"/>
	<rect x="339.9" y="61.1" class="st2" width="1.1" height="1.1"/>
	<rect x="339.9" y="32.8" class="st2" width="1.1" height="1.1"/>
	<rect x="368.3" y="117.8" class="st2" width="1.1" height="1.1"/>
	<rect x="368.3" y="61.1" class="st2" width="1.1" height="1.1"/>
	
		<rect x="366.9" y="5.8" transform="matrix(0.7072 -0.7071 0.7071 0.7072 103.0766 261.6721)" class="st2" width="1.1" height="1.1"/>
	
		<rect x="326.8" y="5.8" transform="matrix(0.7071 -0.7071 0.7071 0.7071 91.3511 233.3421)" class="st2" width="1.1" height="1.1"/>
	
		<rect x="346.8" y="25.9" transform="matrix(0.7071 -0.7072 0.7072 0.7071 83.0628 253.4026)" class="st2" width="1.1" height="1.1"/>
	
		<rect x="366.9" y="45.9" transform="matrix(0.7071 -0.7071 0.7071 0.7071 74.7461 273.4301)" class="st2" width="1.1" height="1.1"/>
	
		<rect x="286.7" y="5.8" transform="matrix(0.7072 -0.7071 0.7071 0.7072 79.5972 204.9827)" class="st2" width="1.1" height="1.1"/>
	
		<rect x="306.7" y="25.9" transform="matrix(0.7071 -0.7071 0.7071 0.7071 71.3071 225.0397)" class="st2" width="1.1" height="1.1"/>
	
		<rect x="326.8" y="45.9" transform="matrix(0.7071 -0.7072 0.7072 0.7071 63.017 245.1001)" class="st2" width="1.1" height="1.1"/>
	<rect x="346.8" y="66" transform="matrix(0.7071 -0.7071 0.7071 0.7071 54.7022 265.1276)" class="st2" width="1.1" height="1.1"/>
	
		<rect x="286.7" y="45.9" transform="matrix(0.7071 -0.7071 0.7071 0.7071 51.2631 216.7372)" class="st2" width="1.1" height="1.1"/>
	
		<rect x="226.6" y="146.1" transform="matrix(0.7072 -0.7071 0.7071 0.7072 -37.2188 203.5547)" class="st2" width="1.1" height="1.1"/>
	
		<rect x="246.6" y="166.2" transform="matrix(0.7071 -0.7071 0.7071 0.7071 -45.5177 223.6152)" class="st2" width="1.1" height="1.1"/>
	
		<rect x="206.5" y="166.2" transform="matrix(0.7071 -0.7072 0.7072 0.7071 -57.2574 195.2852)" class="st2" width="1.1" height="1.1"/>
	
		<rect x="126.3" y="126.1" transform="matrix(0.7071 -0.7071 0.7071 0.7071 -52.3957 126.8343)" class="st2" width="1.1" height="1.1"/>
	
		<rect x="166.4" y="166.2" transform="matrix(0.7071 -0.7071 0.7071 0.7071 -69.0007 166.9223)" class="st2" width="1.1" height="1.1"/>
	
		<rect x="106.3" y="146.1" transform="matrix(0.7072 -0.7071 0.7071 0.7072 -72.4379 118.5207)" class="st2" width="1.1" height="1.1"/>
	
		<rect x="126.3" y="166.2" transform="matrix(0.7071 -0.7072 0.7072 0.7071 -80.7439 138.5887)" class="st2" width="1.1" height="1.1"/>
	
		<rect x="186.5" y="226.3" transform="matrix(0.7071 -0.7072 0.7072 0.7071 -105.6514 198.726)" class="st2" width="1.1" height="1.1"/>
	
		<rect x="86.2" y="166.2" transform="matrix(0.7071 -0.7071 0.7071 0.7071 -92.4836 110.2293)" class="st2" width="1.1" height="1.1"/>
	<rect x="306.7" y="66" transform="matrix(0.7072 -0.7071 0.7071 0.7072 42.9501 236.7647)" class="st2" width="1.1" height="1.1"/>
	
		<rect x="146.4" y="226.3" transform="matrix(0.7071 -0.7071 0.7071 0.7071 -117.3911 170.3612)" class="st2" width="1.1" height="1.1"/>
	
		<rect x="86.2" y="206.3" transform="matrix(0.7072 -0.7071 0.7071 0.7072 -120.8248 121.9579)" class="st2" width="1.1" height="1.1"/>
	
		<rect x="126.3" y="246.4" transform="matrix(0.7071 -0.7072 0.7072 0.7071 -137.4404 162.0753)" class="st2" width="1.1" height="1.1"/>
	
		<rect x="66.2" y="226.3" transform="matrix(0.7071 -0.7072 0.7072 0.7071 -140.8811 113.6813)" class="st2" width="1.1" height="1.1"/>
	
		<rect x="106.3" y="266.4" transform="matrix(0.7072 -0.7071 0.7071 0.7072 -157.472 153.7398)" class="st2" width="1.1" height="1.1"/>
	
		<rect x="46.2" y="246.4" transform="matrix(0.7071 -0.7072 0.7072 0.7071 -160.9269 105.3788)" class="st2" width="1.1" height="1.1"/>
	
		<rect x="86.2" y="286.4" transform="matrix(0.7072 -0.7071 0.7071 0.7072 -177.5142 145.4373)" class="st2" width="1.1" height="1.1"/>
	
		<rect x="26.1" y="266.4" transform="matrix(0.7072 -0.7071 0.7071 0.7072 -180.9514 97.0504)" class="st2" width="1.1" height="1.1"/>
	
		<rect x="66.2" y="306.5" transform="matrix(0.7071 -0.7072 0.7072 0.7071 -197.5776 137.1678)" class="st2" width="1.1" height="1.1"/>
	
		<rect x="6.1" y="286.4" transform="matrix(0.7072 -0.7071 0.7071 0.7072 -200.9936 88.7479)" class="st2" width="1.1" height="1.1"/>
	
		<rect x="46.2" y="326.5" transform="matrix(0.7071 -0.7072 0.7072 0.7071 -217.6233 128.8653)" class="st2" width="1.1" height="1.1"/>
	
		<rect x="26.1" y="346.6" transform="matrix(0.7072 -0.7071 0.7071 0.7072 -237.6408 120.5299)" class="st2" width="1.1" height="1.1"/>
	
		<rect x="6.1" y="366.6" transform="matrix(0.7071 -0.7071 0.7071 0.7071 -257.6989 112.2439)" class="st2" width="1.1" height="1.1"/>
	<rect x="170.4" y="202.3" class="st2" width="1.1" height="1.1"/>
	<rect x="198.2" y="125.8" class="st2" width="1.1" height="1.1"/>
	<rect x="198.2" y="136.6" class="st2" width="1.1" height="1.1"/>
	<rect x="169.9" y="129.5" class="st2" width="1.1" height="1.1"/>
	<rect x="169.9" y="136.6" class="st2" width="1.1" height="1.1"/>
	<rect x="135.6" y="116.8" class="st2" width="1.1" height="1.1"/>
	<rect x="71.9" y="61.1" class="st2" width="1.1" height="1.1"/>
	<rect x="28.1" y="80.2" class="st2" width="1.1" height="1.1"/>
	<rect x="39.2" y="117.8" class="st2" width="1.1" height="1.1"/>
	<rect x="28.1" y="136.9" class="st2" width="1.1" height="1.1"/>
	<rect x="353.7" y="32.8" class="st2" width="1.1" height="1.1"/>
	<rect x="351.7" y="61.1" class="st2" width="1.1" height="1.1"/>
	<rect x="311.6" y="101.2" class="st2" width="1.1" height="1.1"/>
	<rect x="254.9" y="94.3" class="st2" width="1.1" height="1.1"/>
	<rect x="283.3" y="82.6" class="st2" width="1.1" height="1.1"/>
	<rect x="311.6" y="70.8" class="st2" width="1.1" height="1.1"/>
	<rect x="299.9" y="32.8" class="st2" width="1.1" height="1.1"/>
	<rect x="273.5" y="32.8" class="st2" width="1.1" height="1.1"/>
	<rect x="283.3" y="49.4" class="st2" width="1.1" height="1.1"/>
	<rect x="219.2" y="146.1" class="st2" width="1.1" height="1.1"/>
	<rect x="242.6" y="162.2" class="st2" width="1.1" height="1.1"/>
	<rect x="283.3" y="129.5" class="st2" width="1.1" height="1.1"/>
	<rect x="278.4" y="117.8" class="st2" width="1.1" height="1.1"/>
	<rect x="295" y="117.8" class="st2" width="1.1" height="1.1"/>
	<rect x="290.1" y="89.4" class="st2" width="1.1" height="1.1"/>
	<rect x="339.9" y="72.8" class="st2" width="1.1" height="1.1"/>
	<rect x="254.9" y="37.6" class="st2" width="1.1" height="1.1"/>
	<rect x="233.4" y="32.8" class="st2" width="1.1" height="1.1"/>
	<rect x="254.9" y="54.2" class="st2" width="1.1" height="1.1"/>
	<rect x="271.5" y="61.1" class="st2" width="1.1" height="1.1"/>
	<rect x="254.9" y="77.7" class="st2" width="1.1" height="1.1"/>
	<rect x="210" y="89.4" class="st2" width="1.1" height="1.1"/>
	<rect x="214.8" y="117.8" class="st2" width="1.1" height="1.1"/>
	<rect x="238.3" y="117.8" class="st2" width="1.1" height="1.1"/>
	<rect x="254.9" y="134.4" class="st2" width="1.1" height="1.1"/>
	<rect x="198.2" y="77.7" class="st2" width="1.1" height="1.1"/>
	<rect x="221.7" y="61.1" class="st2" width="1.1" height="1.1"/>
	<rect x="231.4" y="61.1" class="st2" width="1.1" height="1.1"/>
	<rect x="198.2" y="54.2" class="st2" width="1.1" height="1.1"/>
	<rect x="169.9" y="82.6" class="st2" width="1.1" height="1.1"/>
	<rect x="198.2" y="94.3" class="st2" width="1.1" height="1.1"/>
	<rect x="169.9" y="103.8" class="st2" width="1.1" height="1.1"/>
	<rect x="181.8" y="110.7" class="st2" width="1.1" height="1.1"/>
	<rect x="169.9" y="122.7" class="st2" width="1.1" height="1.1"/>
	<rect x="174.7" y="117.8" class="st2" width="1.1" height="1.1"/>
	<rect x="158.1" y="117.8" class="st2" width="1.1" height="1.1"/>
	<rect x="141.5" y="110.9" class="st2" width="1.1" height="1.1"/>
	<rect x="156.4" y="96" class="st2" width="1.1" height="1.1"/>
	<rect x="163" y="89.4" class="st2" width="1.1" height="1.1"/>
	<rect x="145" y="89.4" class="st2" width="1.1" height="1.1"/>
	<rect x="121" y="89.4" class="st2" width="1.1" height="1.1"/>
	<rect x="113.2" y="71.1" class="st2" width="1.1" height="1.1"/>
	<rect x="84.8" y="95.4" class="st2" width="1.1" height="1.1"/>
	<rect x="104.6" y="117.8" class="st2" width="1.1" height="1.1"/>
	<rect x="130.3" y="130.1" class="st2" width="1.1" height="1.1"/>
	<rect x="71.9" y="117.8" class="st2" width="1.1" height="1.1"/>
	<rect x="80.7" y="117.8" class="st2" width="1.1" height="1.1"/>
	<rect x="84.8" y="120.2" class="st2" width="1.1" height="1.1"/>
	<rect x="56.5" y="103.8" class="st2" width="1.1" height="1.1"/>
	<rect x="56.5" y="71.1" class="st2" width="1.1" height="1.1"/>
	<rect x="22.8" y="89.4" class="st2" width="1.1" height="1.1"/>
	<rect x="28.1" y="54.7" class="st2" width="1.1" height="1.1"/>
	<rect x="6.4" y="61.1" class="st2" width="1.1" height="1.1"/>
	<rect x="141.5" y="141.3" class="st2" width="1.1" height="1.1"/>
	<rect x="114.9" y="137.5" class="st2" width="1.1" height="1.1"/>
	<rect x="113.2" y="139.3" class="st2" width="1.1" height="1.1"/>
	<rect x="94.1" y="158.3" class="st2" width="1.1" height="1.1"/>
	<rect x="115.6" y="155.5" class="st2" width="1.1" height="1.1"/>
	<rect x="100.9" y="180.9" class="st2" width="1.1" height="1.1"/>
	<rect x="136.4" y="176.2" class="st2" width="1.1" height="1.1"/>
	<rect x="140.3" y="152.2" class="st2" width="1.1" height="1.1"/>
	<rect x="151" y="150.8" class="st2" width="1.1" height="1.1"/>
	<rect x="149.6" y="223.1" class="st2" width="1.1" height="1.1"/>
	<rect x="177.9" y="217.7" class="st2" width="1.1" height="1.1"/>
	<rect x="192.5" y="192.3" class="st2" width="1.1" height="1.1"/>
	<rect x="231.8" y="181" class="st2" width="1.1" height="1.1"/>
	<rect x="195.8" y="217" class="st2" width="1.1" height="1.1"/>
	<rect x="191.1" y="181.6" class="st2" width="1.1" height="1.1"/>
	<rect x="221.9" y="141.5" class="st2" width="1.1" height="1.1"/>
</g>
<g id="PLAN::IPN">
</g>
<g id="PLAN::STRUCTURE_2.3">
	<line class="st4" x1="52.2" y1="292.5" x2="41.1" y2="281.4"/>
	<line class="st4" x1="126.9" y1="206.8" x2="0.4" y2="333.4"/>
	<polyline class="st4" points="5.7,397.2 174.3,228.6 397.2,357.2 	"/>
	<polyline class="st4" points="397.2,366.1 175.6,238.1 16.5,397.2 	"/>
	<line class="st4" x1="26.6" y1="387.1" x2="21.2" y2="381.7"/>
	<line class="st4" x1="46.6" y1="367.1" x2="41.2" y2="361.7"/>
	<line class="st4" x1="66.7" y1="347" x2="61.3" y2="341.6"/>
	<line class="st4" x1="86.7" y1="327" x2="81.3" y2="321.6"/>
	<line class="st4" x1="106.8" y1="307" x2="101.4" y2="301.6"/>
	<line class="st4" x1="126.8" y1="286.9" x2="121.4" y2="281.5"/>
	<line class="st4" x1="146.8" y1="266.9" x2="141.4" y2="261.5"/>
	<line class="st4" x1="166.9" y1="246.8" x2="161.5" y2="241.4"/>
	<line class="st4" x1="156.8" y1="256.9" x2="151.4" y2="251.5"/>
	<line class="st4" x1="136.8" y1="276.9" x2="131.4" y2="271.5"/>
	<line class="st4" x1="116.7" y1="297" x2="111.3" y2="291.6"/>
	<line class="st4" x1="96.7" y1="317" x2="91.3" y2="311.6"/>
	<line class="st4" x1="76.6" y1="337.1" x2="71.2" y2="331.7"/>
	<line class="st4" x1="56.6" y1="357.1" x2="51.2" y2="351.7"/>
	<line class="st4" x1="36.6" y1="377.2" x2="31.2" y2="371.8"/>
	<line class="st4" x1="16.5" y1="397.2" x2="11.1" y2="391.8"/>
	<line class="st4" x1="175.6" y1="238.1" x2="168.7" y2="234.2"/>
	<line class="st4" x1="180.1" y1="231.9" x2="176.3" y2="238.6"/>
	<line class="st4" x1="197.5" y1="242" x2="193.7" y2="248.6"/>
	<line class="st4" x1="209.8" y1="249" x2="206" y2="255.7"/>
	<line class="st4" x1="234.3" y1="263.2" x2="230.5" y2="269.8"/>
	<line class="st4" x1="222.1" y1="256.1" x2="218.2" y2="262.8"/>
	<line class="st4" x1="258.9" y1="277.4" x2="255.1" y2="284"/>
	<line class="st4" x1="246.6" y1="270.3" x2="242.8" y2="276.9"/>
	<line class="st4" x1="283.4" y1="291.6" x2="279.6" y2="298.2"/>
	<line class="st4" x1="271.2" y1="284.5" x2="267.3" y2="291.1"/>
	<line class="st4" x1="308" y1="305.7" x2="304.2" y2="312.4"/>
	<line class="st4" x1="295.7" y1="298.6" x2="291.9" y2="305.3"/>
	<line class="st4" x1="332.5" y1="319.9" x2="328.7" y2="326.5"/>
	<line class="st4" x1="320.3" y1="312.8" x2="316.4" y2="319.4"/>
	<line class="st4" x1="357.1" y1="334.1" x2="353.3" y2="340.7"/>
	<line class="st4" x1="344.8" y1="327" x2="341" y2="333.6"/>
	<line class="st4" x1="381.6" y1="348.2" x2="377.8" y2="354.9"/>
	<line class="st4" x1="369.4" y1="341.2" x2="365.5" y2="347.8"/>
	<line class="st4" x1="393.9" y1="355.3" x2="390.1" y2="362"/>
	<polyline class="st4" points="0.4,264.2 86.7,177.9 19,138.9 0.4,138.9 	"/>
	<polyline class="st4" points="0.4,146.6 17,146.6 74.2,179.6 0.4,253.4 	"/>
	<line class="st4" x1="12.2" y1="252.4" x2="6.7" y2="247"/>
	<line class="st4" x1="22.2" y1="242.4" x2="16.8" y2="237"/>
	<line class="st4" x1="42.2" y1="222.4" x2="36.8" y2="217"/>
	<line class="st4" x1="32.2" y1="232.4" x2="26.8" y2="227"/>
	<line class="st4" x1="62.3" y1="202.3" x2="56.9" y2="196.9"/>
	<line class="st4" x1="52.2" y1="212.4" x2="46.8" y2="206.9"/>
	<line class="st4" x1="72.3" y1="192.3" x2="66.9" y2="186.9"/>
	<line class="st4" x1="74.2" y1="179.6" x2="81.1" y2="183.5"/>
	<line class="st4" x1="74.8" y1="171.1" x2="70.9" y2="177.7"/>
	<line class="st4" x1="62.5" y1="164" x2="58.7" y2="170.6"/>
	<line class="st4" x1="37.9" y1="149.8" x2="34.1" y2="156.5"/>
	<line class="st4" x1="50.2" y1="156.9" x2="46.4" y2="163.5"/>
	<line class="st4" x1="25.7" y1="142.7" x2="21.8" y2="149.4"/>
	<line class="st4" x1="9.7" y1="146.6" x2="9.7" y2="138.9"/>
	<polyline class="st4" points="397.2,244.3 245.9,156.9 263.9,138.9 397.2,138.9 	"/>
	<polyline class="st4" points="397.2,146.6 267.1,146.6 258.3,155.3 397,235.4 397.2,235.5 	"/>
	<line class="st4" x1="283.8" y1="138.9" x2="283.8" y2="146.6"/>
	<line class="st4" x1="298" y1="138.9" x2="298" y2="146.6"/>
	<line class="st4" x1="326.3" y1="138.9" x2="326.3" y2="146.6"/>
	<line class="st4" x1="312.2" y1="138.9" x2="312.2" y2="146.6"/>
	<line class="st4" x1="354.7" y1="138.9" x2="354.7" y2="146.6"/>
	<line class="st4" x1="340.5" y1="138.9" x2="340.5" y2="146.6"/>
	<line class="st4" x1="383" y1="138.9" x2="383" y2="146.6"/>
	<line class="st4" x1="368.9" y1="138.9" x2="368.9" y2="146.6"/>
	<line class="st4" x1="267.1" y1="146.6" x2="261.7" y2="141.2"/>
	<line class="st4" x1="258.3" y1="155.3" x2="251.6" y2="151.2"/>
	<line class="st4" x1="262.5" y1="157.7" x2="258.7" y2="164.3"/>
	<line class="st4" x1="271" y1="171.4" x2="274.8" y2="164.8"/>
	<line class="st4" x1="295.5" y1="185.6" x2="299.3" y2="179"/>
	<line class="st4" x1="287.1" y1="171.9" x2="283.2" y2="178.5"/>
	<line class="st4" x1="320.1" y1="199.8" x2="323.9" y2="193.1"/>
	<line class="st4" x1="311.6" y1="186.1" x2="307.8" y2="192.7"/>
	<line class="st4" x1="344.6" y1="213.9" x2="348.4" y2="207.3"/>
	<line class="st4" x1="336.2" y1="200.2" x2="332.3" y2="206.9"/>
	<line class="st4" x1="369.2" y1="228.1" x2="373" y2="221.5"/>
	<line class="st4" x1="360.7" y1="214.4" x2="356.9" y2="221"/>
	<line class="st4" x1="385.3" y1="228.6" x2="381.4" y2="235.2"/>
	<line class="st4" x1="393.7" y1="242.3" x2="397.2" y2="236.2"/>
	<polyline class="st4" points="0.4,15.2 45.3,41.1 223.5,41.1 264.2,0.4 	"/>
	<polyline class="st4" points="253.4,0.4 220.3,33.5 47.3,33.5 0.4,6.4 	"/>
	<line class="st4" x1="0.9" y1="15.5" x2="4.7" y2="8.9"/>
	<line class="st4" x1="17" y1="16" x2="13.2" y2="22.6"/>
	<line class="st4" x1="25.5" y1="29.7" x2="29.3" y2="23.1"/>
	<line class="st4" x1="41.6" y1="30.2" x2="37.7" y2="36.8"/>
	<line class="st4" x1="46.2" y1="32.8" x2="42.3" y2="39.4"/>
	<line class="st4" x1="57" y1="41.1" x2="57" y2="33.5"/>
	<line class="st4" x1="85.4" y1="41.1" x2="85.4" y2="33.5"/>
	<line class="st4" x1="71.2" y1="41.1" x2="71.2" y2="33.5"/>
	<line class="st4" x1="99.6" y1="41.1" x2="99.6" y2="33.5"/>
	<line class="st4" x1="113.7" y1="41.1" x2="113.7" y2="33.5"/>
	<line class="st4" x1="127.9" y1="41.1" x2="127.9" y2="33.5"/>
	<line class="st4" x1="142.1" y1="41.1" x2="142.1" y2="33.5"/>
	<line class="st4" x1="156.3" y1="41.1" x2="156.3" y2="33.5"/>
	<line class="st4" x1="170.4" y1="41.1" x2="170.4" y2="33.5"/>
	<line class="st4" x1="184.6" y1="41.1" x2="184.6" y2="33.5"/>
	<line class="st4" x1="198.8" y1="41.1" x2="198.8" y2="33.5"/>
	<line class="st4" x1="213" y1="41.1" x2="213" y2="33.5"/>
	<line class="st4" x1="232.6" y1="32" x2="227.2" y2="26.5"/>
	<line class="st4" x1="242.7" y1="21.9" x2="237.2" y2="16.5"/>
	<line class="st4" x1="252.7" y1="11.9" x2="247.3" y2="6.5"/>
	<line class="st4" x1="262.7" y1="1.9" x2="261.2" y2="0.4"/>
	<polyline class="st4" points="397.2,41.1 361.8,41.1 397.2,5.7 	"/>
	<polyline class="st4" points="397.2,33.5 380.3,33.5 397.2,16.5 	"/>
	<line class="st4" x1="392" y1="10.9" x2="397.2" y2="16.1"/>
	<line class="st4" x1="382" y1="20.9" x2="387.4" y2="26.3"/>
	<line class="st4" x1="380.3" y1="33.5" x2="369.4" y2="33.5"/>
	<line class="st4" x1="383" y1="33.5" x2="383" y2="41.1"/>
	<line class="st4" x1="368.9" y1="41.1" x2="368.9" y2="34"/>
	<polyline class="st4" points="397.2,82.2 320.6,82.2 305,97.8 397.2,97.8 	"/>
	<line class="st4" x1="397.2" y1="90" x2="312.7" y2="90.1"/>
	<line class="st4" x1="326.3" y1="97.8" x2="326.3" y2="82.2"/>
	<line class="st4" x1="312.2" y1="97.8" x2="312.2" y2="90.6"/>
	<line class="st4" x1="340.5" y1="97.8" x2="340.5" y2="82.2"/>
	<line class="st4" x1="354.7" y1="97.8" x2="354.7" y2="82.2"/>
	<line class="st4" x1="368.9" y1="97.8" x2="368.9" y2="82.2"/>
	<line class="st4" x1="383" y1="97.8" x2="383" y2="82.2"/>
	<polygon class="st4" points="85.2,61.4 85.2,64.2 94.3,69.5 195.1,69.5 198.9,65.7 198.9,61.4 	"/>
	<line class="st4" x1="113.7" y1="69.5" x2="113.7" y2="61.4"/>
	<line class="st4" x1="100.2" y1="61.4" x2="100.2" y2="69.5"/>
	<line class="st4" x1="127.9" y1="61.4" x2="127.9" y2="69.5"/>
	<line class="st4" x1="142.1" y1="69.5" x2="142.1" y2="61.4"/>
	<line class="st4" x1="156.3" y1="69.5" x2="156.3" y2="61.4"/>
	<line class="st4" x1="170.4" y1="69.5" x2="170.4" y2="61.4"/>
	<line class="st4" x1="184.6" y1="69.5" x2="184.6" y2="61.4"/>
	<polyline class="st4" points="0.4,344.4 137.5,207.2 123.5,199.2 0.4,322.4 	"/>
	<line class="st4" x1="132.4" y1="212.4" x2="121.4" y2="201.3"/>
	<line class="st4" x1="122.4" y1="222.4" x2="111.4" y2="211.4"/>
	<line class="st4" x1="112.4" y1="232.4" x2="101.1" y2="221.6"/>
	<line class="st4" x1="102.4" y1="242.4" x2="91.3" y2="231.4"/>
	<line class="st4" x1="92.3" y1="252.4" x2="81.3" y2="241.4"/>
	<line class="st4" x1="82.3" y1="262.5" x2="71.3" y2="251.4"/>
	<line class="st4" x1="72.3" y1="272.5" x2="61.3" y2="261.5"/>
	<line class="st4" x1="62.3" y1="282.5" x2="51.2" y2="271.5"/>
	<line class="st4" x1="42.2" y1="302.6" x2="31.2" y2="291.5"/>
	<line class="st4" x1="32.2" y1="312.6" x2="21.2" y2="301.4"/>
	<line class="st4" x1="22.2" y1="322.6" x2="11.2" y2="311.6"/>
	<line class="st4" x1="12.2" y1="332.6" x2="1.1" y2="321.6"/>
	<line class="st4" x1="2.1" y1="262.5" x2="0.4" y2="260.7"/>
	<polyline class="st4" points="397.3,309.8 204.5,198.6 216,187.1 397.2,291.8 	"/>
	<line class="st4" x1="210.3" y1="192.8" x2="397.2" y2="300.8"/>
	<line class="st4" x1="389.9" y1="305.6" x2="397.2" y2="293"/>
	<line class="st4" x1="377.6" y1="298.5" x2="385.4" y2="285"/>
	<line class="st4" x1="373.2" y1="277.9" x2="365.4" y2="291.4"/>
	<line class="st4" x1="360.9" y1="270.8" x2="353.1" y2="284.3"/>
	<line class="st4" x1="348.6" y1="263.7" x2="340.8" y2="277.2"/>
	<line class="st4" x1="336.3" y1="256.6" x2="328.5" y2="270.1"/>
	<line class="st4" x1="324.1" y1="249.5" x2="316.3" y2="263"/>
	<line class="st4" x1="311.8" y1="242.5" x2="304" y2="256"/>
	<line class="st4" x1="299.5" y1="235.4" x2="291.7" y2="248.9"/>
	<line class="st4" x1="287.2" y1="228.3" x2="279.4" y2="241.8"/>
	<line class="st4" x1="275" y1="221.2" x2="267.2" y2="234.7"/>
	<line class="st4" x1="262.7" y1="214.1" x2="254.9" y2="227.6"/>
	<line class="st4" x1="250.4" y1="207" x2="242.6" y2="220.5"/>
	<line class="st4" x1="238.1" y1="199.9" x2="230.3" y2="213.4"/>
	<line class="st4" x1="225.9" y1="192.9" x2="218.1" y2="206.4"/>
</g>
<g id="PLAN::POINTILLE">
	<line class="st7" x1="0.4" y1="118.4" x2="397.2" y2="118.4"/>
	<line class="st7" x1="312.2" y1="90.6" x2="312.2" y2="33.3"/>
	<line class="st7" x1="57" y1="146.7" x2="57" y2="41.1"/>
	<line class="st7" x1="28.7" y1="144.5" x2="28.7" y2="33.3"/>
	<line class="st7" x1="142.1" y1="61.4" x2="142.1" y2="41.1"/>
	<line class="st7" x1="113.7" y1="61.4" x2="113.7" y2="41.1"/>
	<line class="st7" x1="85.4" y1="61.4" x2="85.4" y2="41.1"/>
	<line class="st7" x1="85.4" y1="146.7" x2="85.4" y2="64.3"/>
	<line class="st7" x1="170.4" y1="61.4" x2="170.4" y2="41.1"/>
	<line class="st7" x1="198.8" y1="61.4" x2="198.8" y2="41.1"/>
	<line class="st7" x1="250.4" y1="207" x2="271" y2="171.4"/>
	<line class="st7" x1="222.1" y1="256.1" x2="242.6" y2="220.5"/>
	<line class="st7" x1="247.6" y1="155.2" x2="250.3" y2="150.5"/>
	<line class="st7" x1="225.9" y1="192.9" x2="246.4" y2="157.3"/>
	<line class="st7" x1="197.5" y1="242" x2="218.1" y2="206.4"/>
	<line class="st7" x1="50.2" y1="156.9" x2="100.7" y2="69.5"/>
	<line class="st7" x1="25.7" y1="142.7" x2="78.5" y2="51.3"/>
	<line class="st7" x1="275" y1="221.2" x2="295.5" y2="185.6"/>
	<line class="st7" x1="246.6" y1="270.3" x2="267.2" y2="234.7"/>
	<line class="st7" x1="299.5" y1="235.4" x2="320.1" y2="199.8"/>
	<line class="st7" x1="271.2" y1="284.5" x2="291.7" y2="248.9"/>
	<line class="st7" x1="324.1" y1="249.5" x2="344.6" y2="213.9"/>
	<line class="st7" x1="295.7" y1="298.6" x2="316.3" y2="263"/>
	<line class="st7" x1="348.6" y1="263.7" x2="369.2" y2="228.1"/>
	<line class="st7" x1="320.3" y1="312.8" x2="340.8" y2="277.2"/>
	<line class="st7" x1="211.4" y1="202.5" x2="181.3" y2="232.6"/>
	<line class="st7" x1="252.9" y1="161" x2="222.8" y2="191.1"/>
	<line class="st7" x1="372.8" y1="41.1" x2="331.7" y2="82.2"/>
	<line class="st7" x1="252.7" y1="11.9" x2="323" y2="82.2"/>
	<line class="st7" x1="72.3" y1="192.3" x2="101.3" y2="221.4"/>
	<line class="st7" x1="52.2" y1="212.4" x2="81.3" y2="241.4"/>
	<line class="st7" x1="32.2" y1="232.4" x2="61.3" y2="261.5"/>
	<line class="st7" x1="12.2" y1="252.4" x2="41.2" y2="281.5"/>
	<line class="st7" x1="0.4" y1="360.9" x2="21.2" y2="381.7"/>
	<line class="st7" x1="12.2" y1="332.6" x2="41.2" y2="361.7"/>
	<line class="st7" x1="0.4" y1="280.7" x2="21.2" y2="301.5"/>
	<line class="st7" x1="362.1" y1="41.1" x2="367.4" y2="46.5"/>
	<line class="st7" x1="321.3" y1="0.4" x2="361.9" y2="41"/>
	<line class="st7" x1="361.4" y1="0.4" x2="382" y2="20.9"/>
	<line class="st7" x1="212.5" y1="41.1" x2="192.2" y2="61.4"/>
	<line class="st7" x1="369.4" y1="341.2" x2="389.9" y2="305.6"/>
	<line class="st7" x1="373.2" y1="277.9" x2="393.7" y2="242.3"/>
	<line class="st7" x1="344.8" y1="327" x2="365.4" y2="291.4"/>
	<line class="st7" x1="0.4" y1="129.9" x2="51.6" y2="41.1"/>
	<line class="st7" x1="0.4" y1="73.2" x2="25.5" y2="29.7"/>
	<line class="st7" x1="80.9" y1="183.7" x2="117.8" y2="204.9"/>
	<line class="st7" x1="0.4" y1="137.1" x2="3.5" y2="138.9"/>
	<line class="st7" x1="60.8" y1="41.1" x2="95.9" y2="61.4"/>
	<line class="st7" x1="231.3" y1="33.3" x2="369.6" y2="33.3"/>
	<line class="st7" x1="0.4" y1="33.3" x2="31.7" y2="33.3"/>
	<line class="st7" x1="198.9" y1="61.7" x2="397.2" y2="61.7"/>
	<line class="st7" x1="0.4" y1="61.7" x2="85.2" y2="61.7"/>
	<line class="st7" x1="281.2" y1="0.4" x2="347.4" y2="66.5"/>
	<line class="st7" x1="32.5" y1="146.7" x2="256.1" y2="146.7"/>
	<line class="st7" x1="190" y1="69.5" x2="261.7" y2="141.1"/>
	<line class="st7" x1="316.1" y1="97.8" x2="275" y2="138.9"/>
	<line class="st7" x1="74.8" y1="171.1" x2="127.6" y2="79.6"/>
	<line class="st7" x1="123.9" y1="199.4" x2="176.7" y2="108"/>
	<line class="st7" x1="170" y1="232.9" x2="225.8" y2="136.3"/>
	<line class="st7" x1="283.8" y1="138.9" x2="283.8" y2="33.3"/>
	<line class="st7" x1="227.1" y1="146.7" x2="227.1" y2="37.5"/>
	<line class="st7" x1="198.8" y1="146.7" x2="198.8" y2="65.8"/>
	<line class="st7" x1="170.4" y1="146.7" x2="170.4" y2="69.5"/>
	<line class="st7" x1="113.7" y1="146.7" x2="113.7" y2="69.5"/>
	<line class="st7" x1="142.1" y1="146.7" x2="142.1" y2="69.5"/>
	<line class="st7" x1="312.2" y1="138.9" x2="312.2" y2="97.8"/>
	<line class="st7" x1="340.5" y1="138.9" x2="340.5" y2="97.8"/>
	<line class="st7" x1="368.9" y1="138.9" x2="368.9" y2="97.8"/>
	<line class="st7" x1="368.9" y1="82.2" x2="368.9" y2="41.1"/>
	<line class="st7" x1="144.5" y1="220.4" x2="201.2" y2="122.2"/>
	<line class="st7" x1="95.4" y1="192" x2="152.1" y2="93.8"/>
	<line class="st7" x1="106.9" y1="146.7" x2="187" y2="226.9"/>
	<line class="st7" x1="126.9" y1="126.7" x2="207.1" y2="206.8"/>
	<line class="st7" x1="146.9" y1="106.6" x2="227.1" y2="186.8"/>
	<line class="st7" x1="167" y1="86.6" x2="247.2" y2="166.8"/>
	<line class="st7" x1="207.1" y1="46.5" x2="287.3" y2="126.7"/>
	<line class="st7" x1="255.5" y1="146.7" x2="255.5" y2="33.3"/>
	<line class="st7" x1="293.3" y1="0.4" x2="0.4" y2="293.3"/>
	<line class="st7" x1="0.4" y1="104.4" x2="397.2" y2="333.5"/>
	<line class="st7" x1="340.5" y1="82.2" x2="340.5" y2="33.3"/>
	<line class="st7" x1="0.4" y1="38.9" x2="397.2" y2="268"/>
	<line class="st7" x1="373.5" y1="0.4" x2="0.4" y2="373.5"/>
	<line class="st7" x1="0.4" y1="71.7" x2="210.3" y2="192.8"/>
	<line class="st7" x1="0.4" y1="90" x2="312.8" y2="90"/>
	<line class="st7" x1="109.9" y1="69.5" x2="251.6" y2="151.2"/>
	<line class="st7" x1="131.8" y1="213" x2="168.6" y2="234.3"/>
	<line class="st7" x1="333.4" y1="0.4" x2="130.5" y2="203.2"/>
	<line class="st7" x1="184.1" y1="69.5" x2="79.7" y2="173.9"/>
	<line class="st7" x1="32.2" y1="312.6" x2="61.3" y2="341.6"/>
	<line class="st7" x1="52.2" y1="292.5" x2="81.3" y2="321.6"/>
	<line class="st7" x1="72.3" y1="272.5" x2="101.3" y2="301.5"/>
	<line class="st7" x1="92.3" y1="252.4" x2="121.4" y2="281.5"/>
	<line class="st7" x1="112.4" y1="232.4" x2="141.4" y2="261.5"/>
	<line class="st7" x1="86.8" y1="166.8" x2="121.4" y2="201.3"/>
	<line class="st7" x1="132.4" y1="212.4" x2="161.5" y2="241.4"/>
	<line class="st7" x1="232.6" y1="32" x2="307.3" y2="106.6"/>
</g>
<g id="PLAN::POINTILLE_PROGRAMME">
</g>
<g id="PLAN::TRAME_2">
</g>
<g id="PLAN::DETAIL">
</g>
<g id="PLAN::TOPO">
</g>
<g id="PLAN::FOND">
</g>
<g id="INFOS::CADRES_2" class="st0">
	<g class="st12">
		<path class="st13" d="M396.5,1.1v395.5H1.1V1.1H396.5 M397.2,0.4H0.4v396.9h396.9V0.4L397.2,0.4z"/>
	</g>
</g>
<g id="BLOCK_SPECTIFIQUES::MEUBLE_FITNESS">
</g>
<g id="BLOCK_SPECTIFIQUES::POTAGER">
</g>
<g id="PLAN::POTEAU">
</g>
<g id="PLAN::FOND_SOL">
</g>
</svg>
