<?xml version="1.0" encoding="utf-8"?>
<!-- Generator: Adobe Illustrator 22.0.1, SVG Export Plug-In . SVG Version: 6.00 Build 0)  -->
<svg version="1.1" xmlns="http://www.w3.org/2000/svg" xmlns:xlink="http://www.w3.org/1999/xlink" x="0px" y="0px" width="397.6px"
	 height="397.6px" viewBox="0 0 397.6 397.6" style="enable-background:new 0 0 397.6 397.6;" xml:space="preserve">
<style type="text/css">
	.st0{display:none;}
	.st1{display:inline;stroke:#FFFFFF;stroke-linecap:round;stroke-linejoin:round;}
	.st2{fill:#FFFFFF;stroke:#FFFFFF;stroke-width:0.4;stroke-miterlimit:10;}
	.st3{fill:none;stroke:#FFFFFF;stroke-linecap:square;}
	.st4{fill:none;stroke:#FFFFFF;stroke-width:0.7;stroke-linecap:square;}
	.st5{fill:none;stroke:#FFFFFF;stroke-width:0.55;stroke-linecap:square;}
	.st6{fill:none;stroke:#FFFFFF;stroke-width:0.6;stroke-linecap:square;stroke-dasharray:2,3;}
	.st7{fill:none;stroke:#FFFFFF;stroke-width:0.2;stroke-linecap:square;stroke-dasharray:2,3;}
	.st8{fill:none;stroke:#FFFFFF;stroke-width:0.3;stroke-linecap:square;}
	.st9{fill:none;stroke:#FFFFFF;stroke-width:0.5;stroke-linecap:square;}
	.st10{fill:none;stroke:#FFFFFF;stroke-width:0.7;stroke-linecap:square;stroke-dasharray:2,3;}
	.st11{fill:none;stroke:#FFFFFF;stroke-width:0.4;stroke-linecap:square;}
	.st12{display:inline;}
	.st13{fill:#FFFFFF;}
	.st14{display:inline;fill:none;stroke:#000000;stroke-linecap:round;stroke-linejoin:round;}
</style>
<g id="FOND" class="st0">
	<rect x="-1015.2" y="-1017.5" class="st1" width="1470.6" height="1969.9"/>
</g>
<g id="Calque_1" class="st0">
</g>
<g id="PLAN::STRUCTURE_1.1">
</g>
<g id="PLAN::IPN">
</g>
<g id="PLAN::STRUCTURE_2.3">
	<polyline class="st4" points="309,139.9 309,101.7 313.8,96.8 	"/>
	<line class="st4" x1="252.4" y1="88.8" x2="201.3" y2="88.8"/>
	<polyline class="st4" points="258,88.8 296.2,88.8 301,84.1 	"/>
	<line class="st4" x1="144.6" y1="88.8" x2="195.7" y2="88.8"/>
	<polyline class="st4" points="139,88.8 100.8,88.8 96,84.1 	"/>
	<rect x="82.3" y="196.6" class="st4" width="5.7" height="5.7"/>
	<rect x="82.3" y="139.9" class="st4" width="5.7" height="5.7"/>
	<rect x="82.3" y="253.2" class="st4" width="5.7" height="5.7"/>
	<rect x="309" y="253.2" class="st4" width="5.7" height="5.7"/>
	<rect x="309" y="139.9" class="st4" width="5.7" height="5.7"/>
	<rect x="309" y="196.6" class="st4" width="5.7" height="5.7"/>
	<rect x="195.7" y="309.9" class="st4" width="5.7" height="5.7"/>
	<rect x="252.4" y="309.9" class="st4" width="5.7" height="5.7"/>
	<rect x="139" y="309.9" class="st4" width="5.7" height="5.7"/>
	<rect x="139" y="83.2" class="st4" width="5.7" height="5.7"/>
	<rect x="252.4" y="83.2" class="st4" width="5.7" height="5.7"/>
	<rect x="195.7" y="83.2" class="st4" width="5.7" height="5.7"/>
	<rect x="252.4" y="253.2" class="st4" width="5.7" height="5.7"/>
	<rect x="195.7" y="253.2" class="st4" width="5.7" height="5.7"/>
	<rect x="139" y="253.2" class="st4" width="5.7" height="5.7"/>
	<rect x="139" y="196.6" class="st4" width="5.7" height="5.7"/>
	<rect x="139" y="139.9" class="st4" width="5.7" height="5.7"/>
	<rect x="195.7" y="139.9" class="st4" width="5.7" height="5.7"/>
	<rect x="252.4" y="139.9" class="st4" width="5.7" height="5.7"/>
	<rect x="252.4" y="196.6" class="st4" width="5.7" height="5.7"/>
	<rect x="195.7" y="196.6" class="st4" width="5.7" height="5.7"/>
	<line class="st4" x1="87.9" y1="253.2" x2="87.9" y2="202.2"/>
	<polyline class="st4" points="87.9,258.9 87.9,297.1 83.2,301.9 	"/>
	<line class="st4" x1="144.6" y1="309.9" x2="195.7" y2="309.9"/>
	<polyline class="st4" points="139,309.9 100.8,309.9 96,314.7 	"/>
	<line class="st4" x1="252.4" y1="309.9" x2="201.3" y2="309.9"/>
	<polyline class="st4" points="258,309.9 296.2,309.9 301,314.7 	"/>
	<line class="st4" x1="87.9" y1="145.5" x2="87.9" y2="196.6"/>
	<polyline class="st4" points="87.9,139.9 87.9,101.7 83.2,96.8 	"/>
	<line class="st4" x1="309" y1="253.2" x2="309" y2="202.2"/>
	<polyline class="st4" points="309,258.9 309,297.1 313.8,301.9 	"/>
	<line class="st4" x1="309" y1="145.5" x2="309" y2="196.6"/>
</g>
<g id="PLAN::POINTILLE">
	<line class="st6" x1="87.9" y1="145.5" x2="139" y2="145.5"/>
	<line class="st6" x1="139" y1="139.9" x2="87.9" y2="139.9"/>
	<line class="st6" x1="195.7" y1="139.9" x2="195.7" y2="88.8"/>
	<line class="st6" x1="252.4" y1="196.6" x2="252.4" y2="145.5"/>
	<line class="st6" x1="195.7" y1="196.6" x2="144.6" y2="196.6"/>
	<line class="st6" x1="139" y1="196.6" x2="87.9" y2="196.6"/>
	<line class="st6" x1="195.7" y1="253.2" x2="144.6" y2="253.2"/>
	<line class="st6" x1="144.6" y1="258.9" x2="195.7" y2="258.9"/>
	<line class="st6" x1="87.9" y1="258.9" x2="139" y2="258.9"/>
	<line class="st6" x1="139" y1="253.2" x2="87.9" y2="253.2"/>
	<line class="st6" x1="252.4" y1="202.2" x2="252.4" y2="253.2"/>
	<line class="st6" x1="258" y1="253.2" x2="258" y2="202.2"/>
	<line class="st6" x1="258" y1="309.9" x2="258" y2="258.9"/>
	<line class="st6" x1="252.4" y1="258.9" x2="252.4" y2="309.9"/>
	<line class="st6" x1="195.7" y1="202.2" x2="195.7" y2="253.2"/>
	<line class="st6" x1="201.3" y1="253.2" x2="201.3" y2="202.2"/>
	<line class="st6" x1="201.3" y1="309.9" x2="201.3" y2="258.9"/>
	<line class="st6" x1="195.7" y1="258.9" x2="195.7" y2="309.9"/>
	<polyline class="st6" points="139,83.2 96.9,83.2 96,84.1 	"/>
	<line class="st6" x1="83.2" y1="96.8" x2="96" y2="84.1"/>
	<line class="st6" x1="144.6" y1="83.2" x2="195.7" y2="83.2"/>
	<line class="st6" x1="252.4" y1="83.2" x2="201.3" y2="83.2"/>
	<line class="st6" x1="313.8" y1="96.8" x2="301" y2="84.1"/>
	<polyline class="st6" points="258,83.2 300.1,83.2 301,84.1 	"/>
	<polyline class="st6" points="258,315.6 300.1,315.6 301,314.7 	"/>
	<line class="st6" x1="252.4" y1="315.6" x2="201.3" y2="315.6"/>
	<line class="st6" x1="144.6" y1="315.6" x2="195.7" y2="315.6"/>
	<polyline class="st6" points="139,315.6 96.9,315.6 96,314.7 	"/>
	<polyline class="st6" points="314.7,258.9 314.7,301 313.8,301.9 	"/>
	<line class="st6" x1="301" y1="314.7" x2="313.8" y2="301.9"/>
	<line class="st6" x1="314.7" y1="253.2" x2="314.7" y2="202.2"/>
	<line class="st6" x1="314.7" y1="145.5" x2="314.7" y2="196.6"/>
	<polyline class="st6" points="314.7,139.9 314.7,97.8 313.8,96.9 	"/>
	<polyline class="st6" points="82.3,139.9 82.3,97.8 83.2,96.9 	"/>
	<line class="st6" x1="82.3" y1="145.5" x2="82.3" y2="196.6"/>
	<line class="st6" x1="82.3" y1="253.2" x2="82.3" y2="202.2"/>
	<line class="st6" x1="96" y1="314.7" x2="83.2" y2="301.9"/>
	<polyline class="st6" points="82.3,258.9 82.3,301 83.2,301.9 	"/>
	<line class="st6" x1="258" y1="145.5" x2="258" y2="196.6"/>
	<line class="st6" x1="258" y1="88.8" x2="258" y2="139.9"/>
	<line class="st6" x1="252.4" y1="139.9" x2="252.4" y2="88.8"/>
	<line class="st6" x1="201.3" y1="253.2" x2="252.4" y2="253.2"/>
	<line class="st6" x1="252.4" y1="258.9" x2="201.3" y2="258.9"/>
	<line class="st6" x1="309" y1="258.9" x2="258" y2="258.9"/>
	<line class="st6" x1="258" y1="253.2" x2="309" y2="253.2"/>
	<line class="st6" x1="201.3" y1="196.6" x2="252.4" y2="196.6"/>
	<line class="st6" x1="252.4" y1="202.2" x2="201.3" y2="202.2"/>
	<line class="st6" x1="309" y1="202.2" x2="258" y2="202.2"/>
	<line class="st6" x1="258" y1="196.6" x2="309" y2="196.6"/>
	<line class="st6" x1="201.3" y1="139.9" x2="252.4" y2="139.9"/>
	<line class="st6" x1="252.4" y1="145.5" x2="201.3" y2="145.5"/>
	<line class="st6" x1="309" y1="145.5" x2="258" y2="145.5"/>
	<line class="st6" x1="258" y1="139.9" x2="309" y2="139.9"/>
	<line class="st6" x1="144.6" y1="145.5" x2="144.6" y2="196.6"/>
	<line class="st6" x1="139" y1="139.9" x2="139" y2="88.8"/>
	<line class="st6" x1="195.7" y1="196.6" x2="195.7" y2="145.5"/>
	<line class="st6" x1="201.3" y1="145.5" x2="201.3" y2="196.6"/>
	<line class="st6" x1="201.3" y1="88.8" x2="201.3" y2="139.9"/>
	<line class="st6" x1="144.6" y1="88.8" x2="144.6" y2="139.9"/>
	<line class="st6" x1="144.6" y1="202.2" x2="195.7" y2="202.2"/>
	<line class="st6" x1="87.9" y1="202.2" x2="139" y2="202.2"/>
	<line class="st6" x1="139" y1="202.2" x2="139" y2="253.2"/>
	<line class="st6" x1="144.6" y1="253.2" x2="144.6" y2="202.2"/>
	<line class="st6" x1="144.6" y1="309.9" x2="144.6" y2="258.9"/>
	<line class="st6" x1="139" y1="258.9" x2="139" y2="309.9"/>
	<line class="st6" x1="195.7" y1="139.9" x2="144.6" y2="139.9"/>
	<line class="st6" x1="144.6" y1="145.5" x2="195.7" y2="145.5"/>
	<line class="st6" x1="139" y1="196.6" x2="139" y2="145.5"/>
</g>
<g id="PLAN::POINTILLE_PROGRAMME">
</g>
<g id="PLAN::TRAME_2">
</g>
<g id="PLAN::DETAIL">
	<line class="st9" x1="396.7" y1="214.7" x2="396.9" y2="214.7"/>
	<line class="st9" x1="396.8" y1="193.7" x2="396.9" y2="193.7"/>
</g>
<g id="PLAN::TOPO">
</g>
<g id="PLAN::FOND">
</g>
<g id="INFOS::CADRES_2" class="st0">
	<g class="st12">
		<path class="st13" d="M396.5,1.1v395.5H1.1V1.1H396.5 M397.2,0.4H0.4v396.9h396.9V0.4L397.2,0.4z"/>
	</g>
</g>
<g id="BLOCK_SPECTIFIQUES::MEUBLE_FITNESS">
</g>
<g id="BLOCK_SPECTIFIQUES::POTAGER">
</g>
<g id="PLAN::POTEAU">
</g>
<g id="PLAN::FOND_SOL">
</g>
</svg>
