<?xml version="1.0" encoding="utf-8"?>
<!-- Generator: Adobe Illustrator 22.0.1, SVG Export Plug-In . SVG Version: 6.00 Build 0)  -->
<svg version="1.1" xmlns="http://www.w3.org/2000/svg" xmlns:xlink="http://www.w3.org/1999/xlink" x="0px" y="0px" width="397.5px"
	 height="397.6px" viewBox="0 0 397.5 397.6" style="enable-background:new 0 0 397.5 397.6;" xml:space="preserve">
<style type="text/css">
	.st0{display:none;}
	.st1{display:inline;stroke:#FFFFFF;stroke-linecap:round;stroke-linejoin:round;}
	.st2{fill:#FFFFFF;stroke:#FFFFFF;stroke-width:0.4;stroke-miterlimit:10;}
	.st3{fill:none;stroke:#FFFFFF;stroke-linecap:square;}
	.st4{fill:none;stroke:#FFFFFF;stroke-width:0.7;stroke-linecap:square;}
	.st5{fill:none;stroke:#FFFFFF;stroke-width:0.55;stroke-linecap:square;}
	.st6{fill:none;stroke:#FFFFFF;stroke-width:0.6;stroke-linecap:square;stroke-dasharray:2,3;}
	.st7{fill:none;stroke:#FFFFFF;stroke-width:0.2;stroke-linecap:square;stroke-dasharray:2,3;}
	.st8{fill:none;stroke:#FFFFFF;stroke-width:0.3;stroke-linecap:square;}
	.st9{fill:none;stroke:#FFFFFF;stroke-width:0.5;stroke-linecap:square;}
	.st10{fill:none;stroke:#FFFFFF;stroke-width:0.7;stroke-linecap:square;stroke-dasharray:2,3;}
	.st11{fill:none;stroke:#FFFFFF;stroke-width:0.4;stroke-linecap:square;}
	.st12{display:inline;}
	.st13{fill:#FFFFFF;}
	.st14{display:inline;fill:none;stroke:#000000;stroke-linecap:round;stroke-linejoin:round;}
</style>
<g id="FOND" class="st0">
	<rect x="-1015.2" y="-1500.9" class="st1" width="1470.6" height="1969.9"/>
</g>
<g id="Calque_1" class="st0">
</g>
<g id="PLAN::STRUCTURE_1.1">
	<rect x="283.5" y="127.7" class="st2" width="0.6" height="0.6"/>
	<rect x="283.5" y="127.7" class="st2" width="0.6" height="0.6"/>
	<rect x="283.5" y="141.8" class="st2" width="0.6" height="0.6"/>
	<rect x="283.5" y="141.8" class="st2" width="0.6" height="0.6"/>
	<rect x="283.5" y="156" class="st2" width="0.6" height="0.6"/>
	<rect x="283.5" y="156" class="st2" width="0.6" height="0.6"/>
	<rect x="283.5" y="184.4" class="st2" width="0.6" height="0.6"/>
	<rect x="283.5" y="184.4" class="st2" width="0.6" height="0.6"/>
	<rect x="283.5" y="198.5" class="st2" width="0.6" height="0.6"/>
	<rect x="283.5" y="198.5" class="st2" width="0.6" height="0.6"/>
	<rect x="283.5" y="212.7" class="st2" width="0.6" height="0.6"/>
	<rect x="283.5" y="212.7" class="st2" width="0.6" height="0.6"/>
	<rect x="283.5" y="241.1" class="st2" width="0.6" height="0.6"/>
	<rect x="283.5" y="241.1" class="st2" width="0.6" height="0.6"/>
	<rect x="283.5" y="255.2" class="st2" width="0.6" height="0.6"/>
	<rect x="283.5" y="255.2" class="st2" width="0.6" height="0.6"/>
	<rect x="283.5" y="269.4" class="st2" width="0.6" height="0.6"/>
	<rect x="283.5" y="269.4" class="st2" width="0.6" height="0.6"/>
	<rect x="283.5" y="226.9" class="st2" width="0.6" height="0.6"/>
	<rect x="283.5" y="226.9" class="st2" width="0.6" height="0.6"/>
	<rect x="269.3" y="226.9" class="st2" width="0.6" height="0.6"/>
	<rect x="269.3" y="226.9" class="st2" width="0.6" height="0.6"/>
	<rect x="255.1" y="226.9" class="st2" width="0.6" height="0.6"/>
	<rect x="255.1" y="226.9" class="st2" width="0.6" height="0.6"/>
	<rect x="241" y="226.9" class="st2" width="0.6" height="0.6"/>
	<rect x="241" y="226.9" class="st2" width="0.6" height="0.6"/>
	<rect x="226.8" y="226.9" class="st2" width="0.6" height="0.6"/>
	<rect x="226.8" y="226.9" class="st2" width="0.6" height="0.6"/>
	<rect x="212.6" y="226.9" class="st2" width="0.6" height="0.6"/>
	<rect x="212.6" y="226.9" class="st2" width="0.6" height="0.6"/>
	<rect x="198.5" y="226.9" class="st2" width="0.6" height="0.6"/>
	<rect x="198.5" y="226.9" class="st2" width="0.6" height="0.6"/>
	<rect x="184.3" y="226.9" class="st2" width="0.6" height="0.6"/>
	<rect x="184.3" y="226.9" class="st2" width="0.6" height="0.6"/>
	<rect x="170.1" y="226.9" class="st2" width="0.6" height="0.6"/>
	<rect x="170.1" y="226.9" class="st2" width="0.6" height="0.6"/>
	<rect x="155.9" y="226.9" class="st2" width="0.6" height="0.6"/>
	<rect x="155.9" y="226.9" class="st2" width="0.6" height="0.6"/>
	<rect x="141.8" y="226.9" class="st2" width="0.6" height="0.6"/>
	<rect x="141.8" y="226.9" class="st2" width="0.6" height="0.6"/>
	<rect x="127.6" y="226.9" class="st2" width="0.6" height="0.6"/>
	<rect x="127.6" y="226.9" class="st2" width="0.6" height="0.6"/>
	<rect x="113.4" y="226.9" class="st2" width="0.6" height="0.6"/>
	<rect x="113.4" y="226.9" class="st2" width="0.6" height="0.6"/>
	<rect x="283.5" y="170.2" class="st2" width="0.6" height="0.6"/>
	<rect x="283.5" y="170.2" class="st2" width="0.6" height="0.6"/>
	<rect x="269.3" y="170.2" class="st2" width="0.6" height="0.6"/>
	<rect x="269.3" y="170.2" class="st2" width="0.6" height="0.6"/>
	<rect x="255.1" y="170.2" class="st2" width="0.6" height="0.6"/>
	<rect x="255.1" y="170.2" class="st2" width="0.6" height="0.6"/>
	<rect x="241" y="170.2" class="st2" width="0.6" height="0.6"/>
	<rect x="241" y="170.2" class="st2" width="0.6" height="0.6"/>
	<rect x="226.8" y="170.2" class="st2" width="0.6" height="0.6"/>
	<rect x="226.8" y="170.2" class="st2" width="0.6" height="0.6"/>
	<rect x="212.6" y="170.2" class="st2" width="0.6" height="0.6"/>
	<rect x="212.6" y="170.2" class="st2" width="0.6" height="0.6"/>
	<rect x="198.5" y="170.2" class="st2" width="0.6" height="0.6"/>
	<rect x="198.5" y="170.2" class="st2" width="0.6" height="0.6"/>
	<rect x="184.3" y="170.2" class="st2" width="0.6" height="0.6"/>
	<rect x="184.3" y="170.2" class="st2" width="0.6" height="0.6"/>
	<rect x="170.1" y="170.2" class="st2" width="0.6" height="0.6"/>
	<rect x="170.1" y="170.2" class="st2" width="0.6" height="0.6"/>
	<rect x="155.9" y="170.2" class="st2" width="0.6" height="0.6"/>
	<rect x="155.9" y="170.2" class="st2" width="0.6" height="0.6"/>
	<rect x="141.8" y="170.2" class="st2" width="0.6" height="0.6"/>
	<rect x="141.8" y="170.2" class="st2" width="0.6" height="0.6"/>
	<rect x="127.6" y="170.2" class="st2" width="0.6" height="0.6"/>
	<rect x="127.6" y="170.2" class="st2" width="0.6" height="0.6"/>
	<rect x="113.4" y="170.2" class="st2" width="0.6" height="0.6"/>
	<rect x="113.4" y="170.2" class="st2" width="0.6" height="0.6"/>
	<rect x="113.4" y="283.6" class="st2" width="0.6" height="0.6"/>
	<rect x="113.4" y="283.6" class="st2" width="0.6" height="0.6"/>
	<rect x="127.6" y="283.6" class="st2" width="0.6" height="0.6"/>
	<rect x="127.6" y="283.6" class="st2" width="0.6" height="0.6"/>
	<rect x="141.8" y="283.6" class="st2" width="0.6" height="0.6"/>
	<rect x="141.8" y="283.6" class="st2" width="0.6" height="0.6"/>
	<rect x="155.9" y="283.6" class="st2" width="0.6" height="0.6"/>
	<rect x="155.9" y="283.6" class="st2" width="0.6" height="0.6"/>
	<rect x="170.1" y="283.6" class="st2" width="0.6" height="0.6"/>
	<rect x="170.1" y="283.6" class="st2" width="0.6" height="0.6"/>
	<rect x="184.3" y="283.6" class="st2" width="0.6" height="0.6"/>
	<rect x="184.3" y="283.6" class="st2" width="0.6" height="0.6"/>
	<rect x="198.5" y="283.6" class="st2" width="0.6" height="0.6"/>
	<rect x="198.5" y="283.6" class="st2" width="0.6" height="0.6"/>
	<rect x="212.6" y="283.6" class="st2" width="0.6" height="0.6"/>
	<rect x="212.6" y="283.6" class="st2" width="0.6" height="0.6"/>
	<rect x="226.8" y="283.6" class="st2" width="0.6" height="0.6"/>
	<rect x="226.8" y="283.6" class="st2" width="0.6" height="0.6"/>
	<rect x="241" y="283.6" class="st2" width="0.6" height="0.6"/>
	<rect x="241" y="283.6" class="st2" width="0.6" height="0.6"/>
	<rect x="255.1" y="283.6" class="st2" width="0.6" height="0.6"/>
	<rect x="255.1" y="283.6" class="st2" width="0.6" height="0.6"/>
	<rect x="269.3" y="283.6" class="st2" width="0.6" height="0.6"/>
	<rect x="269.3" y="283.6" class="st2" width="0.6" height="0.6"/>
	<rect x="283.5" y="283.6" class="st2" width="0.6" height="0.6"/>
	<rect x="283.5" y="283.6" class="st2" width="0.6" height="0.6"/>
	<rect x="113.4" y="127.7" class="st2" width="0.6" height="0.6"/>
	<rect x="113.4" y="127.7" class="st2" width="0.6" height="0.6"/>
	<rect x="113.4" y="141.8" class="st2" width="0.6" height="0.6"/>
	<rect x="113.4" y="141.8" class="st2" width="0.6" height="0.6"/>
	<rect x="113.4" y="156" class="st2" width="0.6" height="0.6"/>
	<rect x="113.4" y="156" class="st2" width="0.6" height="0.6"/>
	<rect x="113.4" y="170.2" class="st2" width="0.6" height="0.6"/>
	<rect x="113.4" y="170.2" class="st2" width="0.6" height="0.6"/>
	<rect x="113.4" y="184.4" class="st2" width="0.6" height="0.6"/>
	<rect x="113.4" y="184.4" class="st2" width="0.6" height="0.6"/>
	<rect x="113.4" y="198.5" class="st2" width="0.6" height="0.6"/>
	<rect x="113.4" y="198.5" class="st2" width="0.6" height="0.6"/>
	<rect x="113.4" y="212.7" class="st2" width="0.6" height="0.6"/>
	<rect x="113.4" y="212.7" class="st2" width="0.6" height="0.6"/>
	<rect x="113.4" y="226.9" class="st2" width="0.6" height="0.6"/>
	<rect x="113.4" y="226.9" class="st2" width="0.6" height="0.6"/>
	<rect x="113.4" y="241.1" class="st2" width="0.6" height="0.6"/>
	<rect x="113.4" y="241.1" class="st2" width="0.6" height="0.6"/>
	<rect x="113.4" y="255.2" class="st2" width="0.6" height="0.6"/>
	<rect x="113.4" y="255.2" class="st2" width="0.6" height="0.6"/>
	<rect x="113.4" y="269.4" class="st2" width="0.6" height="0.6"/>
	<rect x="113.4" y="269.4" class="st2" width="0.6" height="0.6"/>
	<rect x="170.1" y="269.4" class="st2" width="0.6" height="0.6"/>
	<rect x="170.1" y="269.4" class="st2" width="0.6" height="0.6"/>
	<rect x="170.1" y="255.2" class="st2" width="0.6" height="0.6"/>
	<rect x="170.1" y="255.2" class="st2" width="0.6" height="0.6"/>
	<rect x="170.1" y="241.1" class="st2" width="0.6" height="0.6"/>
	<rect x="170.1" y="241.1" class="st2" width="0.6" height="0.6"/>
	<rect x="170.1" y="226.9" class="st2" width="0.6" height="0.6"/>
	<rect x="170.1" y="226.9" class="st2" width="0.6" height="0.6"/>
	<rect x="170.1" y="212.7" class="st2" width="0.6" height="0.6"/>
	<rect x="170.1" y="212.7" class="st2" width="0.6" height="0.6"/>
	<rect x="170.1" y="198.5" class="st2" width="0.6" height="0.6"/>
	<rect x="170.1" y="198.5" class="st2" width="0.6" height="0.6"/>
	<rect x="170.1" y="184.4" class="st2" width="0.6" height="0.6"/>
	<rect x="170.1" y="184.4" class="st2" width="0.6" height="0.6"/>
	<rect x="170.1" y="170.2" class="st2" width="0.6" height="0.6"/>
	<rect x="170.1" y="170.2" class="st2" width="0.6" height="0.6"/>
	<rect x="170.1" y="156" class="st2" width="0.6" height="0.6"/>
	<rect x="170.1" y="156" class="st2" width="0.6" height="0.6"/>
	<rect x="170.1" y="141.8" class="st2" width="0.6" height="0.6"/>
	<rect x="170.1" y="141.8" class="st2" width="0.6" height="0.6"/>
	<rect x="170.1" y="127.7" class="st2" width="0.6" height="0.6"/>
	<rect x="170.1" y="127.7" class="st2" width="0.6" height="0.6"/>
	<rect x="226.8" y="269.4" class="st2" width="0.6" height="0.6"/>
	<rect x="226.8" y="269.4" class="st2" width="0.6" height="0.6"/>
	<rect x="226.8" y="255.2" class="st2" width="0.6" height="0.6"/>
	<rect x="226.8" y="255.2" class="st2" width="0.6" height="0.6"/>
	<rect x="226.8" y="241.1" class="st2" width="0.6" height="0.6"/>
	<rect x="226.8" y="241.1" class="st2" width="0.6" height="0.6"/>
	<rect x="226.8" y="226.9" class="st2" width="0.6" height="0.6"/>
	<rect x="226.8" y="226.9" class="st2" width="0.6" height="0.6"/>
	<rect x="226.8" y="212.7" class="st2" width="0.6" height="0.6"/>
	<rect x="226.8" y="212.7" class="st2" width="0.6" height="0.6"/>
	<rect x="226.8" y="198.5" class="st2" width="0.6" height="0.6"/>
	<rect x="226.8" y="198.5" class="st2" width="0.6" height="0.6"/>
	<rect x="226.8" y="184.4" class="st2" width="0.6" height="0.6"/>
	<rect x="226.8" y="184.4" class="st2" width="0.6" height="0.6"/>
	<rect x="226.8" y="170.2" class="st2" width="0.6" height="0.6"/>
	<rect x="226.8" y="170.2" class="st2" width="0.6" height="0.6"/>
	<rect x="226.8" y="156" class="st2" width="0.6" height="0.6"/>
	<rect x="226.8" y="156" class="st2" width="0.6" height="0.6"/>
	<rect x="226.8" y="141.8" class="st2" width="0.6" height="0.6"/>
	<rect x="226.8" y="141.8" class="st2" width="0.6" height="0.6"/>
	<rect x="226.8" y="127.7" class="st2" width="0.6" height="0.6"/>
	<rect x="226.8" y="127.7" class="st2" width="0.6" height="0.6"/>
	<rect x="113.4" y="113.5" class="st2" width="0.6" height="0.6"/>
	<rect x="113.4" y="113.5" class="st2" width="0.6" height="0.6"/>
	<rect x="127.6" y="113.5" class="st2" width="0.6" height="0.6"/>
	<rect x="127.6" y="113.5" class="st2" width="0.6" height="0.6"/>
	<rect x="141.8" y="113.5" class="st2" width="0.6" height="0.6"/>
	<rect x="141.8" y="113.5" class="st2" width="0.6" height="0.6"/>
	<rect x="155.9" y="113.5" class="st2" width="0.6" height="0.6"/>
	<rect x="155.9" y="113.5" class="st2" width="0.6" height="0.6"/>
	<rect x="170.1" y="113.5" class="st2" width="0.6" height="0.6"/>
	<rect x="170.1" y="113.5" class="st2" width="0.6" height="0.6"/>
	<rect x="184.3" y="113.5" class="st2" width="0.6" height="0.6"/>
	<rect x="184.3" y="113.5" class="st2" width="0.6" height="0.6"/>
	<rect x="198.5" y="113.5" class="st2" width="0.6" height="0.6"/>
	<rect x="198.5" y="113.5" class="st2" width="0.6" height="0.6"/>
	<rect x="212.6" y="113.5" class="st2" width="0.6" height="0.6"/>
	<rect x="212.6" y="113.5" class="st2" width="0.6" height="0.6"/>
	<rect x="226.8" y="113.5" class="st2" width="0.6" height="0.6"/>
	<rect x="226.8" y="113.5" class="st2" width="0.6" height="0.6"/>
	<rect x="241" y="113.5" class="st2" width="0.6" height="0.6"/>
	<rect x="241" y="113.5" class="st2" width="0.6" height="0.6"/>
	<rect x="255.1" y="113.5" class="st2" width="0.6" height="0.6"/>
	<rect x="255.1" y="113.5" class="st2" width="0.6" height="0.6"/>
	<rect x="269.3" y="113.5" class="st2" width="0.6" height="0.6"/>
	<rect x="269.3" y="113.5" class="st2" width="0.6" height="0.6"/>
	<rect x="283.5" y="113.5" class="st2" width="0.6" height="0.6"/>
	<rect x="283.5" y="113.5" class="st2" width="0.6" height="0.6"/>
</g>
<g id="PLAN::IPN">
</g>
<g id="PLAN::STRUCTURE_2.3">
	<line class="st4" x1="113.7" y1="113.8" x2="109.7" y2="109.8"/>
	<line class="st4" x1="113.7" y1="283.9" x2="109.7" y2="287.8"/>
	<line class="st4" x1="283.8" y1="113.8" x2="287.8" y2="109.7"/>
	<polyline class="st4" points="201,283.9 201,289.5 196.4,289.5 196.4,283.9 	"/>
	<polyline class="st4" points="229.4,283.9 229.4,289.5 224.8,289.5 224.8,283.9 	"/>
	<polyline class="st4" points="257.7,283.9 257.7,289.5 253.1,289.5 253.1,283.9 	"/>
	<polyline class="st4" points="283.8,253.2 289.4,253.2 289.4,257.8 283.8,257.8 	"/>
	<polyline class="st4" points="283.8,224.9 289.4,224.9 289.4,229.5 283.8,229.5 	"/>
	<polyline class="st4" points="283.8,196.5 289.4,196.5 289.4,201.1 283.8,201.1 	"/>
	<polyline class="st4" points="283.8,168.2 289.4,168.2 289.4,172.8 283.8,172.8 	"/>
	<polyline class="st4" points="283.8,139.8 289.4,139.8 289.4,144.4 283.8,144.4 	"/>
	<polyline class="st4" points="253.1,113.8 253.1,108.1 257.7,108.1 257.7,113.8 	"/>
	<polyline class="st4" points="224.8,113.8 224.8,108.1 229.4,108.1 229.4,113.8 	"/>
	<polyline class="st4" points="196.4,113.8 196.4,108.1 201,108.1 201,113.8 	"/>
	<polyline class="st4" points="168.1,113.8 168.1,108.1 172.7,108.1 172.7,113.8 	"/>
	<polyline class="st4" points="139.7,113.8 139.7,108.1 144.4,108.1 144.4,113.8 	"/>
	<path class="st4" d="M278.7,289.5c1.7,0,3.4,0,5.1,0c3.1,0,5.7-2.5,5.7-5.7c0-1.6,0-3.3,0-4.9c-1.9,0-3.8,0-5.7,0
		c0,1.6,0,3.3,0,4.9c-1.7,0-3.4,0-5.1,0C278.7,285.7,278.7,287.6,278.7,289.5z"/>
	<line class="st4" x1="283.8" y1="283.9" x2="287.8" y2="287.9"/>
	<path class="st4" d="M108,278.8c0,1.7,0,3.4,0,5.1c0,3.1,2.5,5.7,5.7,5.7c1.6,0,3.3,0,4.9,0c0-1.9,0-3.8,0-5.7c-1.6,0-3.3,0-4.9,0
		c0-1.7,0-3.4,0-5.1C111.8,278.8,109.9,278.8,108,278.8z"/>
	<path class="st4" d="M278.7,108.1c1.7,0,3.4,0,5.1,0c3.1,0,5.7,2.5,5.7,5.7c0,1.6,0,3.3,0,4.9c-1.9,0-3.8,0-5.7,0
		c0-1.6,0-3.3,0-4.9c-1.7,0-3.4,0-5.1,0C278.7,111.9,278.7,110,278.7,108.1z"/>
	<path class="st4" d="M108,118.9c0-1.7,0-3.4,0-5.1c0-3.1,2.5-5.7,5.7-5.7c1.6,0,3.3,0,4.9,0c0,1.9,0,3.8,0,5.7c-1.6,0-3.3,0-4.9,0
		c0,1.7,0,3.4,0,5.1C111.8,118.9,109.9,118.9,108,118.9z"/>
	<polyline class="st4" points="113.7,144.4 108,144.4 108,139.8 113.7,139.8 	"/>
	<polyline class="st4" points="113.7,172.8 108,172.8 108,168.2 113.7,168.2 	"/>
	<polyline class="st4" points="113.7,201.1 108,201.1 108,196.5 113.7,196.5 	"/>
	<polyline class="st4" points="113.7,229.5 108,229.5 108,224.9 113.7,224.9 	"/>
	<polyline class="st4" points="113.7,257.8 108,257.8 108,253.2 113.7,253.2 	"/>
	<polyline class="st4" points="144.4,283.9 144.4,289.5 139.7,289.5 139.7,283.9 	"/>
	<polyline class="st4" points="172.7,283.9 172.7,289.5 168.1,289.5 168.1,283.9 	"/>
</g>
<g id="PLAN::POINTILLE">
</g>
<g id="PLAN::POINTILLE_PROGRAMME">
</g>
<g id="PLAN::TRAME_2">
</g>
<g id="PLAN::DETAIL">
	<polyline class="st9" points="287.8,234 287.8,234.3 287.8,234.5 	"/>
	<rect x="113.7" y="113.8" class="st9" width="170.1" height="170.1"/>
	<path class="st9" d="M113.7,289.5c56.7,0,113.4,0,170.1,0c3.1,0,5.7-2.5,5.7-5.7c0-56.7,0-113.4,0-170.1c0-3.1-2.5-5.7-5.7-5.7
		c-56.7,0-113.4,0-170.1,0c-3.1,0-5.7,2.5-5.7,5.7c0,56.7,0,113.4,0,170.1C108,287,110.6,289.5,113.7,289.5z"/>
	<polyline class="st9" points="109.7,192 109.7,191.7 109.7,191.4 	"/>
	<line class="st9" x1="111.1" y1="191.7" x2="109.7" y2="191.7"/>
	<polyline class="st9" points="109.7,184.9 109.7,184.6 109.7,184.4 	"/>
	<line class="st9" x1="111.1" y1="184.6" x2="109.7" y2="184.6"/>
	<polyline class="st9" points="109.7,177.8 109.7,177.6 109.7,177.3 	"/>
	<line class="st9" x1="111.1" y1="177.6" x2="109.7" y2="177.6"/>
	<polyline class="st9" points="109.7,163.7 109.7,163.4 109.7,163.1 	"/>
	<line class="st9" x1="111.1" y1="163.4" x2="109.7" y2="163.4"/>
	<polyline class="st9" points="109.7,156.6 109.7,156.3 109.7,156 	"/>
	<line class="st9" x1="111.1" y1="156.3" x2="109.7" y2="156.3"/>
	<polyline class="st9" points="109.7,149.5 109.7,149.2 109.7,148.9 	"/>
	<line class="st9" x1="111.1" y1="149.2" x2="109.7" y2="149.2"/>
	<polyline class="st9" points="109.7,135.3 109.7,135 109.7,134.8 	"/>
	<line class="st9" x1="111.1" y1="135" x2="109.7" y2="135"/>
	<polyline class="st9" points="109.7,128.2 109.7,128 109.7,127.7 	"/>
	<line class="st9" x1="111.1" y1="128" x2="109.7" y2="128"/>
	<polyline class="st9" points="109.7,121.2 109.7,120.9 109.7,120.6 	"/>
	<line class="st9" x1="111.1" y1="120.9" x2="109.7" y2="120.9"/>
	<polyline class="st9" points="120.5,109.8 120.8,109.8 121.1,109.8 	"/>
	<line class="st9" x1="120.8" y1="111.2" x2="120.8" y2="109.8"/>
	<polyline class="st9" points="127.6,109.8 127.9,109.8 128.2,109.8 	"/>
	<line class="st9" x1="127.9" y1="111.2" x2="127.9" y2="109.8"/>
	<polyline class="st9" points="134.7,109.8 135,109.8 135.2,109.8 	"/>
	<line class="st9" x1="135" y1="111.2" x2="135" y2="109.8"/>
	<polyline class="st9" points="148.8,109.8 149.1,109.8 149.4,109.8 	"/>
	<line class="st9" x1="149.1" y1="111.2" x2="149.1" y2="109.8"/>
	<polyline class="st9" points="155.9,109.8 156.2,109.8 156.5,109.8 	"/>
	<line class="st9" x1="156.2" y1="111.2" x2="156.2" y2="109.8"/>
	<polyline class="st9" points="163,109.8 163.3,109.8 163.6,109.8 	"/>
	<line class="st9" x1="163.3" y1="111.2" x2="163.3" y2="109.8"/>
	<polyline class="st9" points="177.2,109.8 177.5,109.8 177.8,109.8 	"/>
	<line class="st9" x1="177.5" y1="111.2" x2="177.5" y2="109.8"/>
	<polyline class="st9" points="184.3,109.8 184.6,109.8 184.8,109.8 	"/>
	<line class="st9" x1="184.6" y1="111.2" x2="184.6" y2="109.8"/>
	<polyline class="st9" points="191.4,109.8 191.6,109.8 191.9,109.8 	"/>
	<line class="st9" x1="191.6" y1="111.2" x2="191.6" y2="109.8"/>
	<polyline class="st9" points="205.5,109.8 205.8,109.8 206.1,109.8 	"/>
	<line class="st9" x1="205.8" y1="111.2" x2="205.8" y2="109.8"/>
	<polyline class="st9" points="212.6,109.8 212.9,109.8 213.2,109.8 	"/>
	<line class="st9" x1="212.9" y1="111.2" x2="212.9" y2="109.8"/>
	<polyline class="st9" points="219.7,109.8 220,109.8 220.3,109.8 	"/>
	<line class="st9" x1="220" y1="111.2" x2="220" y2="109.8"/>
	<polyline class="st9" points="233.9,109.8 234.2,109.8 234.5,109.8 	"/>
	<line class="st9" x1="234.2" y1="111.2" x2="234.2" y2="109.8"/>
	<polyline class="st9" points="241,109.8 241.3,109.8 241.5,109.8 	"/>
	<line class="st9" x1="241.3" y1="111.2" x2="241.3" y2="109.8"/>
	<polyline class="st9" points="248.1,109.8 248.3,109.8 248.6,109.8 	"/>
	<line class="st9" x1="248.3" y1="111.2" x2="248.3" y2="109.8"/>
	<polyline class="st9" points="262.2,109.8 262.5,109.8 262.8,109.8 	"/>
	<line class="st9" x1="262.5" y1="111.2" x2="262.5" y2="109.8"/>
	<polyline class="st9" points="269.3,109.8 269.6,109.8 269.9,109.8 	"/>
	<line class="st9" x1="269.6" y1="111.2" x2="269.6" y2="109.8"/>
	<polyline class="st9" points="276.4,109.8 276.7,109.8 277,109.8 	"/>
	<line class="st9" x1="276.7" y1="111.2" x2="276.7" y2="109.8"/>
	<polyline class="st9" points="287.8,120.6 287.8,120.9 287.8,121.2 	"/>
	<line class="st9" x1="286.4" y1="120.9" x2="287.8" y2="120.9"/>
	<polyline class="st9" points="287.8,127.7 287.8,128 287.8,128.2 	"/>
	<line class="st9" x1="286.4" y1="128" x2="287.8" y2="128"/>
	<polyline class="st9" points="287.8,134.8 287.8,135 287.8,135.3 	"/>
	<line class="st9" x1="286.4" y1="135" x2="287.8" y2="135"/>
	<polyline class="st9" points="287.8,148.9 287.8,149.2 287.8,149.5 	"/>
	<line class="st9" x1="286.4" y1="149.2" x2="287.8" y2="149.2"/>
	<polyline class="st9" points="287.8,156 287.8,156.3 287.8,156.6 	"/>
	<line class="st9" x1="286.4" y1="156.3" x2="287.8" y2="156.3"/>
	<polyline class="st9" points="287.8,163.1 287.8,163.4 287.8,163.7 	"/>
	<line class="st9" x1="286.4" y1="163.4" x2="287.8" y2="163.4"/>
	<polyline class="st9" points="287.8,177.3 287.8,177.6 287.8,177.8 	"/>
	<line class="st9" x1="286.4" y1="177.6" x2="287.8" y2="177.6"/>
	<polyline class="st9" points="287.8,184.4 287.8,184.6 287.8,184.9 	"/>
	<line class="st9" x1="286.4" y1="184.6" x2="287.8" y2="184.6"/>
	<polyline class="st9" points="287.8,191.4 287.8,191.7 287.8,192 	"/>
	<line class="st9" x1="286.4" y1="191.7" x2="287.8" y2="191.7"/>
	<polyline class="st9" points="287.8,205.6 287.8,205.9 287.8,206.2 	"/>
	<line class="st9" x1="286.4" y1="205.9" x2="287.8" y2="205.9"/>
	<polyline class="st9" points="287.8,212.7 287.8,213 287.8,213.3 	"/>
	<line class="st9" x1="286.4" y1="213" x2="287.8" y2="213"/>
	<polyline class="st9" points="287.8,219.8 287.8,220.1 287.8,220.4 	"/>
	<line class="st9" x1="286.4" y1="220.1" x2="287.8" y2="220.1"/>
	<line class="st9" x1="286.4" y1="234.3" x2="287.8" y2="234.3"/>
	<polyline class="st9" points="287.8,241.1 287.8,241.3 287.8,241.6 	"/>
	<line class="st9" x1="286.4" y1="241.3" x2="287.8" y2="241.3"/>
	<polyline class="st9" points="287.8,248.1 287.8,248.4 287.8,248.7 	"/>
	<line class="st9" x1="286.4" y1="248.4" x2="287.8" y2="248.4"/>
	<polyline class="st9" points="287.8,262.3 287.8,262.6 287.8,262.9 	"/>
	<line class="st9" x1="286.4" y1="262.6" x2="287.8" y2="262.6"/>
	<polyline class="st9" points="287.8,269.4 287.8,269.7 287.8,270 	"/>
	<line class="st9" x1="286.4" y1="269.7" x2="287.8" y2="269.7"/>
	<polyline class="st9" points="287.8,276.5 287.8,276.8 287.8,277.1 	"/>
	<line class="st9" x1="286.4" y1="276.8" x2="287.8" y2="276.8"/>
	<polyline class="st9" points="277,287.9 276.7,287.9 276.4,287.9 	"/>
	<line class="st9" x1="276.7" y1="286.5" x2="276.7" y2="287.9"/>
	<polyline class="st9" points="269.9,287.9 269.6,287.9 269.3,287.9 	"/>
	<line class="st9" x1="269.6" y1="286.5" x2="269.6" y2="287.9"/>
	<polyline class="st9" points="262.8,287.9 262.5,287.9 262.2,287.9 	"/>
	<line class="st9" x1="262.5" y1="286.5" x2="262.5" y2="287.9"/>
	<polyline class="st9" points="248.6,287.9 248.3,287.9 248.1,287.9 	"/>
	<line class="st9" x1="248.3" y1="286.5" x2="248.3" y2="287.9"/>
	<polyline class="st9" points="241.5,287.9 241.3,287.9 241,287.9 	"/>
	<line class="st9" x1="241.3" y1="286.5" x2="241.3" y2="287.9"/>
	<polyline class="st9" points="234.5,287.9 234.2,287.9 233.9,287.9 	"/>
	<line class="st9" x1="234.2" y1="286.5" x2="234.2" y2="287.9"/>
	<polyline class="st9" points="220.3,287.9 220,287.9 219.7,287.9 	"/>
	<line class="st9" x1="220" y1="286.5" x2="220" y2="287.9"/>
	<polyline class="st9" points="213.2,287.9 212.9,287.9 212.6,287.9 	"/>
	<line class="st9" x1="212.9" y1="286.5" x2="212.9" y2="287.9"/>
	<polyline class="st9" points="206.1,287.9 205.8,287.9 205.5,287.9 	"/>
	<line class="st9" x1="205.8" y1="286.5" x2="205.8" y2="287.9"/>
	<polyline class="st9" points="191.9,287.9 191.6,287.9 191.4,287.9 	"/>
	<line class="st9" x1="191.6" y1="286.5" x2="191.6" y2="287.9"/>
	<polyline class="st9" points="184.8,287.9 184.6,287.9 184.3,287.9 	"/>
	<line class="st9" x1="184.6" y1="286.5" x2="184.6" y2="287.9"/>
	<polyline class="st9" points="177.8,287.9 177.5,287.9 177.2,287.9 	"/>
	<line class="st9" x1="177.5" y1="286.5" x2="177.5" y2="287.9"/>
	<polyline class="st9" points="163.6,287.9 163.3,287.9 163,287.9 	"/>
	<line class="st9" x1="163.3" y1="286.5" x2="163.3" y2="287.9"/>
	<polyline class="st9" points="156.5,287.9 156.2,287.9 155.9,287.9 	"/>
	<line class="st9" x1="156.2" y1="286.5" x2="156.2" y2="287.9"/>
	<polyline class="st9" points="149.4,287.9 149.1,287.9 148.8,287.9 	"/>
	<line class="st9" x1="149.1" y1="286.5" x2="149.1" y2="287.9"/>
	<polyline class="st9" points="135.2,287.9 135,287.9 134.7,287.9 	"/>
	<line class="st9" x1="135" y1="286.5" x2="135" y2="287.9"/>
	<polyline class="st9" points="128.2,287.9 127.9,287.9 127.6,287.9 	"/>
	<line class="st9" x1="127.9" y1="286.5" x2="127.9" y2="287.9"/>
	<polyline class="st9" points="121.1,287.9 120.8,287.9 120.5,287.9 	"/>
	<line class="st9" x1="120.8" y1="286.5" x2="120.8" y2="287.9"/>
	<polyline class="st9" points="109.7,277.1 109.7,276.8 109.7,276.5 	"/>
	<line class="st9" x1="111.1" y1="276.8" x2="109.7" y2="276.8"/>
	<polyline class="st9" points="109.7,270 109.7,269.7 109.7,269.4 	"/>
	<line class="st9" x1="111.1" y1="269.7" x2="109.7" y2="269.7"/>
	<polyline class="st9" points="109.7,262.9 109.7,262.6 109.7,262.3 	"/>
	<line class="st9" x1="111.1" y1="262.6" x2="109.7" y2="262.6"/>
	<polyline class="st9" points="109.7,248.7 109.7,248.4 109.7,248.1 	"/>
	<line class="st9" x1="111.1" y1="248.4" x2="109.7" y2="248.4"/>
	<polyline class="st9" points="109.7,241.6 109.7,241.3 109.7,241.1 	"/>
	<line class="st9" x1="111.1" y1="241.3" x2="109.7" y2="241.3"/>
	<polyline class="st9" points="109.7,234.5 109.7,234.3 109.7,234 	"/>
	<line class="st9" x1="111.1" y1="234.3" x2="109.7" y2="234.3"/>
	<polyline class="st9" points="109.7,220.4 109.7,220.1 109.7,219.8 	"/>
	<line class="st9" x1="111.1" y1="220.1" x2="109.7" y2="220.1"/>
	<polyline class="st9" points="109.7,213.3 109.7,213 109.7,212.7 	"/>
	<line class="st9" x1="111.1" y1="213" x2="109.7" y2="213"/>
	<polyline class="st9" points="109.7,206.2 109.7,205.9 109.7,205.6 	"/>
	<line class="st9" x1="111.1" y1="205.9" x2="109.7" y2="205.9"/>
</g>
<g id="PLAN::TOPO">
</g>
<g id="PLAN::FOND">
</g>
<g id="INFOS::CADRES_2" class="st0">
	<g class="st12">
		<path class="st13" d="M396.5,1.1v395.5H1V1.1H396.5 M397.2,0.4H0.3v396.9h396.9V0.4L397.2,0.4z"/>
	</g>
</g>
<g id="BLOCK_SPECTIFIQUES::MEUBLE_FITNESS">
</g>
<g id="BLOCK_SPECTIFIQUES::POTAGER">
</g>
<g id="PLAN::POTEAU">
</g>
<g id="PLAN::FOND_SOL">
</g>
</svg>
