<?xml version="1.0" encoding="utf-8"?>
<!-- Generator: Adobe Illustrator 22.0.1, SVG Export Plug-In . SVG Version: 6.00 Build 0)  -->
<svg version="1.1" xmlns="http://www.w3.org/2000/svg" xmlns:xlink="http://www.w3.org/1999/xlink" x="0px" y="0px" width="397.6px"
	 height="397.6px" viewBox="0 0 397.6 397.6" style="enable-background:new 0 0 397.6 397.6;" xml:space="preserve">
<style type="text/css">
	.st0{display:none;}
	.st1{display:inline;stroke:#FFFFFF;stroke-linecap:round;stroke-linejoin:round;}
	.st2{fill:#FFFFFF;stroke:#FFFFFF;stroke-width:0.4;stroke-miterlimit:10;}
	.st3{fill:none;stroke:#FFFFFF;stroke-linecap:square;}
	.st4{fill:none;stroke:#FFFFFF;stroke-width:0.7;stroke-linecap:square;}
	.st5{fill:none;stroke:#FFFFFF;stroke-width:0.55;stroke-linecap:square;}
	.st6{fill:none;stroke:#FFFFFF;stroke-width:0.6;stroke-linecap:square;stroke-dasharray:2,3;}
	.st7{fill:none;stroke:#FFFFFF;stroke-width:0.2;stroke-linecap:square;stroke-dasharray:2,3;}
	.st8{fill:none;stroke:#FFFFFF;stroke-width:0.3;stroke-linecap:square;}
	.st9{fill:none;stroke:#FFFFFF;stroke-width:0.5;stroke-linecap:square;}
	.st10{fill:none;stroke:#FFFFFF;stroke-width:0.7;stroke-linecap:square;stroke-dasharray:2,3;}
	.st11{fill:none;stroke:#FFFFFF;stroke-width:0.4;stroke-linecap:square;}
	.st12{display:inline;}
	.st13{fill:#FFFFFF;}
	.st14{display:inline;fill:none;stroke:#000000;stroke-linecap:round;stroke-linejoin:round;}
</style>
<g id="FOND" class="st0">
	<rect x="-1014.6" y="-535.3" class="st1" width="1470.6" height="1969.9"/>
</g>
<g id="Calque_1" class="st0">
</g>
<g id="PLAN::STRUCTURE_1.1">
</g>
<g id="PLAN::IPN">
	<path class="st3" d="M42.3,14.8c0-0.2,0-0.3,0-0.5c0,0,0.1,0,0.1,0c0,0,0,0.1,0,0.1c0,0,0,0.1,0.1,0.1c0.1,0,0.3,0,0.4,0
		c0.1,0,0.3,0,0.4,0c0,0,0.1,0,0.1-0.1c0,0,0-0.1,0-0.1c0,0,0.1,0,0.1,0c0,0.2,0,0.3,0,0.5c0,0-0.1,0-0.1,0c0,0,0-0.1,0-0.1
		c0,0,0-0.1-0.1-0.1c-0.1,0-0.3,0-0.4,0c-0.1,0-0.3,0-0.4,0c0,0-0.1,0-0.1,0.1c0,0,0,0.1,0,0.1C42.4,14.8,42.4,14.8,42.3,14.8z"/>
	<path class="st3" d="M326.1,15.1c0.2,0,0.3,0,0.5,0c0,0,0-0.1,0-0.1c0,0-0.1,0-0.1,0c0,0-0.1,0-0.1-0.1c0-0.1,0-0.3,0-0.4
		c0-0.1,0-0.3,0-0.4c0,0,0-0.1,0.1-0.1c0,0,0.1,0,0.1,0c0,0,0-0.1,0-0.1c-0.2,0-0.3,0-0.5,0c0,0,0,0.1,0,0.1c0,0,0.1,0,0.1,0
		c0,0,0.1,0,0.1,0.1c0,0.1,0,0.3,0,0.4c0,0.1,0,0.3,0,0.4c0,0,0,0.1-0.1,0.1c0,0-0.1,0-0.1,0C326.1,15,326.1,15.1,326.1,15.1z"/>
	<path class="st3" d="M297.7,15.1c0.2,0,0.3,0,0.5,0c0,0,0-0.1,0-0.1c0,0-0.1,0-0.1,0c0,0-0.1,0-0.1-0.1c0-0.1,0-0.3,0-0.4
		c0-0.1,0-0.3,0-0.4c0,0,0-0.1,0.1-0.1c0,0,0.1,0,0.1,0c0,0,0-0.1,0-0.1c-0.2,0-0.3,0-0.5,0c0,0,0,0.1,0,0.1c0,0,0.1,0,0.1,0
		c0,0,0.1,0,0.1,0.1c0,0.1,0,0.3,0,0.4c0,0.1,0,0.3,0,0.4c0,0,0,0.1-0.1,0.1c0,0-0.1,0-0.1,0C297.7,15,297.7,15.1,297.7,15.1z"/>
	<path class="st3" d="M269.4,15.1c0.2,0,0.3,0,0.5,0c0,0,0-0.1,0-0.1c0,0-0.1,0-0.1,0c0,0-0.1,0-0.1-0.1c0-0.1,0-0.3,0-0.4
		c0-0.1,0-0.3,0-0.4c0,0,0-0.1,0.1-0.1c0,0,0.1,0,0.1,0c0,0,0-0.1,0-0.1c-0.2,0-0.3,0-0.5,0c0,0,0,0.1,0,0.1c0,0,0.1,0,0.1,0
		c0,0,0.1,0,0.1,0.1c0,0.1,0,0.3,0,0.4c0,0.1,0,0.3,0,0.4c0,0,0,0.1-0.1,0.1c0,0-0.1,0-0.1,0C269.4,15,269.4,15.1,269.4,15.1z"/>
	<path class="st3" d="M241,15.1c0.2,0,0.3,0,0.5,0c0,0,0-0.1,0-0.1c0,0-0.1,0-0.1,0c0,0-0.1,0-0.1-0.1c0-0.1,0-0.3,0-0.4
		c0-0.1,0-0.3,0-0.4c0,0,0-0.1,0.1-0.1c0,0,0.1,0,0.1,0c0,0,0-0.1,0-0.1c-0.2,0-0.3,0-0.5,0c0,0,0,0.1,0,0.1c0,0,0.1,0,0.1,0
		c0,0,0.1,0,0.1,0.1c0,0.1,0,0.3,0,0.4c0,0.1,0,0.3,0,0.4c0,0,0,0.1-0.1,0.1c0,0-0.1,0-0.1,0C241,15,241,15.1,241,15.1z"/>
	<path class="st3" d="M212.7,15.1c0.2,0,0.3,0,0.5,0c0,0,0-0.1,0-0.1c0,0-0.1,0-0.1,0c0,0-0.1,0-0.1-0.1c0-0.1,0-0.3,0-0.4
		c0-0.1,0-0.3,0-0.4c0,0,0-0.1,0.1-0.1c0,0,0.1,0,0.1,0c0,0,0-0.1,0-0.1c-0.2,0-0.3,0-0.5,0c0,0,0,0.1,0,0.1c0,0,0.1,0,0.1,0
		c0,0,0.1,0,0.1,0.1c0,0.1,0,0.3,0,0.4c0,0.1,0,0.3,0,0.4c0,0,0,0.1-0.1,0.1c0,0-0.1,0-0.1,0C212.7,15,212.7,15.1,212.7,15.1z"/>
	<path class="st3" d="M184.3,15.1c0.2,0,0.3,0,0.5,0c0,0,0-0.1,0-0.1c0,0-0.1,0-0.1,0c0,0-0.1,0-0.1-0.1c0-0.1,0-0.3,0-0.4
		c0-0.1,0-0.3,0-0.4c0,0,0-0.1,0.1-0.1c0,0,0.1,0,0.1,0c0,0,0-0.1,0-0.1c-0.2,0-0.3,0-0.5,0c0,0,0,0.1,0,0.1c0,0,0.1,0,0.1,0
		c0,0,0.1,0,0.1,0.1c0,0.1,0,0.3,0,0.4c0,0.1,0,0.3,0,0.4c0,0,0,0.1-0.1,0.1c0,0-0.1,0-0.1,0C184.3,15,184.3,15.1,184.3,15.1z"/>
	<path class="st3" d="M156,15.1c0.2,0,0.3,0,0.5,0c0,0,0-0.1,0-0.1c0,0-0.1,0-0.1,0c0,0-0.1,0-0.1-0.1c0-0.1,0-0.3,0-0.4
		c0-0.1,0-0.3,0-0.4c0,0,0-0.1,0.1-0.1c0,0,0.1,0,0.1,0c0,0,0-0.1,0-0.1c-0.2,0-0.3,0-0.5,0c0,0,0,0.1,0,0.1c0,0,0.1,0,0.1,0
		c0,0,0.1,0,0.1,0.1c0,0.1,0,0.3,0,0.4c0,0.1,0,0.3,0,0.4c0,0,0,0.1-0.1,0.1c0,0-0.1,0-0.1,0C156,15,156,15.1,156,15.1z"/>
	<path class="st3" d="M127.6,15.1c0.2,0,0.3,0,0.5,0c0,0,0-0.1,0-0.1c0,0-0.1,0-0.1,0c0,0-0.1,0-0.1-0.1c0-0.1,0-0.3,0-0.4
		c0-0.1,0-0.3,0-0.4c0,0,0-0.1,0.1-0.1c0,0,0.1,0,0.1,0c0,0,0-0.1,0-0.1c-0.2,0-0.3,0-0.5,0c0,0,0,0.1,0,0.1c0,0,0.1,0,0.1,0
		c0,0,0.1,0,0.1,0.1c0,0.1,0,0.3,0,0.4c0,0.1,0,0.3,0,0.4c0,0,0,0.1-0.1,0.1c0,0-0.1,0-0.1,0C127.6,15,127.6,15.1,127.6,15.1z"/>
	<path class="st3" d="M99.3,15.1c0.2,0,0.3,0,0.5,0c0,0,0-0.1,0-0.1c0,0-0.1,0-0.1,0c0,0-0.1,0-0.1-0.1c0-0.1,0-0.3,0-0.4
		c0-0.1,0-0.3,0-0.4c0,0,0-0.1,0.1-0.1c0,0,0.1,0,0.1,0c0,0,0-0.1,0-0.1c-0.2,0-0.3,0-0.5,0c0,0,0,0.1,0,0.1c0,0,0.1,0,0.1,0
		c0,0,0.1,0,0.1,0.1c0,0.1,0,0.3,0,0.4c0,0.1,0,0.3,0,0.4c0,0,0,0.1-0.1,0.1c0,0-0.1,0-0.1,0C99.3,15,99.3,15.1,99.3,15.1z"/>
	<path class="st3" d="M99.3,382.5c0.2,0,0.3,0,0.5,0c0,0,0,0.1,0,0.1c0,0-0.1,0-0.1,0c0,0-0.1,0-0.1,0.1c0,0.1,0,0.3,0,0.4
		c0,0.1,0,0.3,0,0.4c0,0,0,0.1,0.1,0.1c0,0,0.1,0,0.1,0c0,0,0,0.1,0,0.1c-0.2,0-0.3,0-0.5,0c0,0,0-0.1,0-0.1c0,0,0.1,0,0.1,0
		c0,0,0.1,0,0.1-0.1c0-0.1,0-0.3,0-0.4c0-0.1,0-0.3,0-0.4c0,0,0-0.1-0.1-0.1c0,0-0.1,0-0.1,0C99.3,382.6,99.3,382.5,99.3,382.5z"/>
	<path class="st3" d="M127.6,382.5c0.2,0,0.3,0,0.5,0c0,0,0,0.1,0,0.1c0,0-0.1,0-0.1,0c0,0-0.1,0-0.1,0.1c0,0.1,0,0.3,0,0.4
		c0,0.1,0,0.3,0,0.4c0,0,0,0.1,0.1,0.1c0,0,0.1,0,0.1,0c0,0,0,0.1,0,0.1c-0.2,0-0.3,0-0.5,0c0,0,0-0.1,0-0.1c0,0,0.1,0,0.1,0
		c0,0,0.1,0,0.1-0.1c0-0.1,0-0.3,0-0.4c0-0.1,0-0.3,0-0.4c0,0,0-0.1-0.1-0.1c0,0-0.1,0-0.1,0C127.6,382.6,127.6,382.5,127.6,382.5z"
		/>
	<path class="st3" d="M156,382.5c0.2,0,0.3,0,0.5,0c0,0,0,0.1,0,0.1c0,0-0.1,0-0.1,0c0,0-0.1,0-0.1,0.1c0,0.1,0,0.3,0,0.4
		c0,0.1,0,0.3,0,0.4c0,0,0,0.1,0.1,0.1c0,0,0.1,0,0.1,0c0,0,0,0.1,0,0.1c-0.2,0-0.3,0-0.5,0c0,0,0-0.1,0-0.1c0,0,0.1,0,0.1,0
		c0,0,0.1,0,0.1-0.1c0-0.1,0-0.3,0-0.4c0-0.1,0-0.3,0-0.4c0,0,0-0.1-0.1-0.1c0,0-0.1,0-0.1,0C156,382.6,156,382.5,156,382.5z"/>
	<path class="st3" d="M184.3,382.5c0.2,0,0.3,0,0.5,0c0,0,0,0.1,0,0.1c0,0-0.1,0-0.1,0c0,0-0.1,0-0.1,0.1c0,0.1,0,0.3,0,0.4
		c0,0.1,0,0.3,0,0.4c0,0,0,0.1,0.1,0.1c0,0,0.1,0,0.1,0c0,0,0,0.1,0,0.1c-0.2,0-0.3,0-0.5,0c0,0,0-0.1,0-0.1c0,0,0.1,0,0.1,0
		c0,0,0.1,0,0.1-0.1c0-0.1,0-0.3,0-0.4c0-0.1,0-0.3,0-0.4c0,0,0-0.1-0.1-0.1c0,0-0.1,0-0.1,0C184.3,382.6,184.3,382.5,184.3,382.5z"
		/>
	<path class="st3" d="M212.7,382.5c0.2,0,0.3,0,0.5,0c0,0,0,0.1,0,0.1c0,0-0.1,0-0.1,0c0,0-0.1,0-0.1,0.1c0,0.1,0,0.3,0,0.4
		c0,0.1,0,0.3,0,0.4c0,0,0,0.1,0.1,0.1c0,0,0.1,0,0.1,0c0,0,0,0.1,0,0.1c-0.2,0-0.3,0-0.5,0c0,0,0-0.1,0-0.1c0,0,0.1,0,0.1,0
		c0,0,0.1,0,0.1-0.1c0-0.1,0-0.3,0-0.4c0-0.1,0-0.3,0-0.4c0,0,0-0.1-0.1-0.1c0,0-0.1,0-0.1,0C212.7,382.6,212.7,382.5,212.7,382.5z"
		/>
	<path class="st3" d="M241,382.5c0.2,0,0.3,0,0.5,0c0,0,0,0.1,0,0.1c0,0-0.1,0-0.1,0c0,0-0.1,0-0.1,0.1c0,0.1,0,0.3,0,0.4
		c0,0.1,0,0.3,0,0.4c0,0,0,0.1,0.1,0.1c0,0,0.1,0,0.1,0c0,0,0,0.1,0,0.1c-0.2,0-0.3,0-0.5,0c0,0,0-0.1,0-0.1c0,0,0.1,0,0.1,0
		c0,0,0.1,0,0.1-0.1c0-0.1,0-0.3,0-0.4c0-0.1,0-0.3,0-0.4c0,0,0-0.1-0.1-0.1c0,0-0.1,0-0.1,0C241,382.6,241,382.5,241,382.5z"/>
	<path class="st3" d="M269.4,382.5c0.2,0,0.3,0,0.5,0c0,0,0,0.1,0,0.1c0,0-0.1,0-0.1,0c0,0-0.1,0-0.1,0.1c0,0.1,0,0.3,0,0.4
		c0,0.1,0,0.3,0,0.4c0,0,0,0.1,0.1,0.1c0,0,0.1,0,0.1,0c0,0,0,0.1,0,0.1c-0.2,0-0.3,0-0.5,0c0,0,0-0.1,0-0.1c0,0,0.1,0,0.1,0
		c0,0,0.1,0,0.1-0.1c0-0.1,0-0.3,0-0.4c0-0.1,0-0.3,0-0.4c0,0,0-0.1-0.1-0.1c0,0-0.1,0-0.1,0C269.4,382.6,269.4,382.5,269.4,382.5z"
		/>
	<path class="st3" d="M297.7,382.5c0.2,0,0.3,0,0.5,0c0,0,0,0.1,0,0.1c0,0-0.1,0-0.1,0c0,0-0.1,0-0.1,0.1c0,0.1,0,0.3,0,0.4
		c0,0.1,0,0.3,0,0.4c0,0,0,0.1,0.1,0.1c0,0,0.1,0,0.1,0c0,0,0,0.1,0,0.1c-0.2,0-0.3,0-0.5,0c0,0,0-0.1,0-0.1c0,0,0.1,0,0.1,0
		c0,0,0.1,0,0.1-0.1c0-0.1,0-0.3,0-0.4c0-0.1,0-0.3,0-0.4c0,0,0-0.1-0.1-0.1c0,0-0.1,0-0.1,0C297.7,382.6,297.7,382.5,297.7,382.5z"
		/>
	<path class="st3" d="M326.1,382.5c0.2,0,0.3,0,0.5,0c0,0,0,0.1,0,0.1c0,0-0.1,0-0.1,0c0,0-0.1,0-0.1,0.1c0,0.1,0,0.3,0,0.4
		c0,0.1,0,0.3,0,0.4c0,0,0,0.1,0.1,0.1c0,0,0.1,0,0.1,0c0,0,0,0.1,0,0.1c-0.2,0-0.3,0-0.5,0c0,0,0-0.1,0-0.1c0,0,0.1,0,0.1,0
		c0,0,0.1,0,0.1-0.1c0-0.1,0-0.3,0-0.4c0-0.1,0-0.3,0-0.4c0,0,0-0.1-0.1-0.1c0,0-0.1,0-0.1,0C326.1,382.6,326.1,382.5,326.1,382.5z"
		/>
	<path class="st3" d="M71,382.5c0.2,0,0.3,0,0.5,0c0,0,0,0.1,0,0.1c0,0-0.1,0-0.1,0c0,0-0.1,0-0.1,0.1c0,0.1,0,0.3,0,0.4
		c0,0.1,0,0.3,0,0.4c0,0,0,0.1,0.1,0.1c0,0,0.1,0,0.1,0c0,0,0,0.1,0,0.1c-0.2,0-0.3,0-0.5,0c0,0,0-0.1,0-0.1c0,0,0.1,0,0.1,0
		c0,0,0.1,0,0.1-0.1c0-0.1,0-0.3,0-0.4c0-0.1,0-0.3,0-0.4c0,0,0-0.1-0.1-0.1c0,0-0.1,0-0.1,0C71,382.6,71,382.5,71,382.5z"/>
	<path class="st3" d="M383.3,382.5c-0.2,0-0.3,0-0.5,0c0,0,0,0.1,0,0.1c0,0,0.1,0,0.1,0c0,0,0.1,0,0.1,0.1c0,0.1,0,0.3,0,0.4
		c0,0.1,0,0.3,0,0.4c0,0,0,0.1-0.1,0.1c0,0-0.1,0-0.1,0c0,0,0,0.1,0,0.1c0.2,0,0.3,0,0.5,0c0,0,0-0.1,0-0.1c0,0-0.1,0-0.1,0
		c0,0-0.1,0-0.1-0.1c0-0.1,0-0.3,0-0.4c0-0.1,0-0.3,0-0.4c0,0,0-0.1,0.1-0.1c0,0,0.1,0,0.1,0C383.3,382.6,383.3,382.5,383.3,382.5z"
		/>
	<path class="st3" d="M14.3,382.5c0.2,0,0.3,0,0.5,0c0,0,0,0.1,0,0.1c0,0-0.1,0-0.1,0c0,0-0.1,0-0.1,0.1c0,0.1,0,0.3,0,0.4
		c0,0.1,0,0.3,0,0.4c0,0,0,0.1,0.1,0.1c0,0,0.1,0,0.1,0c0,0,0,0.1,0,0.1c-0.2,0-0.3,0-0.5,0c0,0,0-0.1,0-0.1c0,0,0.1,0,0.1,0
		c0,0,0.1,0,0.1-0.1c0-0.1,0-0.3,0-0.4c0-0.1,0-0.3,0-0.4c0,0,0-0.1-0.1-0.1c0,0-0.1,0-0.1,0C14.3,382.6,14.3,382.5,14.3,382.5z"/>
	<path class="st3" d="M383.3,15.1c-0.2,0-0.3,0-0.5,0c0,0,0-0.1,0-0.1c0,0,0.1,0,0.1,0c0,0,0.1,0,0.1-0.1c0-0.1,0-0.3,0-0.4
		c0-0.1,0-0.3,0-0.4c0,0,0-0.1-0.1-0.1c0,0-0.1,0-0.1,0c0,0,0-0.1,0-0.1c0.2,0,0.3,0,0.5,0c0,0,0,0.1,0,0.1c0,0-0.1,0-0.1,0
		c0,0-0.1,0-0.1,0.1c0,0.1,0,0.3,0,0.4c0,0.1,0,0.3,0,0.4c0,0,0,0.1,0.1,0.1c0,0,0.1,0,0.1,0C383.3,15,383.3,15.1,383.3,15.1z"/>
	<path class="st3" d="M14.3,15.1c0.2,0,0.3,0,0.5,0c0,0,0-0.1,0-0.1c0,0-0.1,0-0.1,0c0,0-0.1,0-0.1-0.1c0-0.1,0-0.3,0-0.4
		c0-0.1,0-0.3,0-0.4c0,0,0-0.1,0.1-0.1c0,0,0.1,0,0.1,0c0,0,0-0.1,0-0.1c-0.2,0-0.3,0-0.5,0c0,0,0,0.1,0,0.1c0,0,0.1,0,0.1,0
		c0,0,0.1,0,0.1,0.1c0,0.1,0,0.3,0,0.4c0,0.1,0,0.3,0,0.4c0,0,0,0.1-0.1,0.1c0,0-0.1,0-0.1,0C14.3,15,14.3,15.1,14.3,15.1z"/>
	<path class="st3" d="M383.3,325.8c-0.2,0-0.3,0-0.5,0c0,0,0,0.1,0,0.1c0,0,0.1,0,0.1,0c0,0,0.1,0,0.1,0.1c0,0.1,0,0.3,0,0.4
		c0,0.1,0,0.3,0,0.4c0,0,0,0.1-0.1,0.1c0,0-0.1,0-0.1,0c0,0,0,0.1,0,0.1c0.2,0,0.3,0,0.5,0c0,0,0-0.1,0-0.1c0,0-0.1,0-0.1,0
		c0,0-0.1,0-0.1-0.1c0-0.1,0-0.3,0-0.4c0-0.1,0-0.3,0-0.4c0,0,0-0.1,0.1-0.1c0,0,0.1,0,0.1,0C383.3,325.9,383.3,325.8,383.3,325.8z"
		/>
	<path class="st3" d="M383.3,297.4c-0.2,0-0.3,0-0.5,0c0,0,0,0.1,0,0.1c0,0,0.1,0,0.1,0c0,0,0.1,0,0.1,0.1c0,0.1,0,0.3,0,0.4
		s0,0.3,0,0.4c0,0,0,0.1-0.1,0.1c0,0-0.1,0-0.1,0c0,0,0,0.1,0,0.1c0.2,0,0.3,0,0.5,0c0,0,0-0.1,0-0.1c0,0-0.1,0-0.1,0
		c0,0-0.1,0-0.1-0.1c0-0.1,0-0.3,0-0.4s0-0.3,0-0.4c0,0,0-0.1,0.1-0.1c0,0,0.1,0,0.1,0C383.3,297.5,383.3,297.5,383.3,297.4z"/>
	<path class="st3" d="M383.3,269.1c-0.2,0-0.3,0-0.5,0c0,0,0,0.1,0,0.1c0,0,0.1,0,0.1,0c0,0,0.1,0,0.1,0.1c0,0.1,0,0.3,0,0.4
		c0,0.1,0,0.3,0,0.4c0,0,0,0.1-0.1,0.1c0,0-0.1,0-0.1,0c0,0,0,0.1,0,0.1c0.2,0,0.3,0,0.5,0c0,0,0-0.1,0-0.1c0,0-0.1,0-0.1,0
		c0,0-0.1,0-0.1-0.1c0-0.1,0-0.3,0-0.4c0-0.1,0-0.3,0-0.4c0,0,0-0.1,0.1-0.1c0,0,0.1,0,0.1,0C383.3,269.2,383.3,269.1,383.3,269.1z"
		/>
	<path class="st3" d="M383.3,240.8c-0.2,0-0.3,0-0.5,0c0,0,0,0.1,0,0.1c0,0,0.1,0,0.1,0c0,0,0.1,0,0.1,0.1c0,0.1,0,0.3,0,0.4
		c0,0.1,0,0.3,0,0.4c0,0,0,0.1-0.1,0.1c0,0-0.1,0-0.1,0c0,0,0,0.1,0,0.1c0.2,0,0.3,0,0.5,0c0,0,0-0.1,0-0.1c0,0-0.1,0-0.1,0
		c0,0-0.1,0-0.1-0.1c0-0.1,0-0.3,0-0.4c0-0.1,0-0.3,0-0.4c0,0,0-0.1,0.1-0.1c0,0,0.1,0,0.1,0C383.3,240.8,383.3,240.8,383.3,240.8z"
		/>
	<path class="st3" d="M383.3,212.4c-0.2,0-0.3,0-0.5,0c0,0,0,0.1,0,0.1c0,0,0.1,0,0.1,0c0,0,0.1,0,0.1,0.1c0,0.1,0,0.3,0,0.4
		s0,0.3,0,0.4c0,0,0,0.1-0.1,0.1c0,0-0.1,0-0.1,0c0,0,0,0.1,0,0.1c0.2,0,0.3,0,0.5,0c0,0,0-0.1,0-0.1c0,0-0.1,0-0.1,0
		c0,0-0.1,0-0.1-0.1c0-0.1,0-0.3,0-0.4s0-0.3,0-0.4c0,0,0-0.1,0.1-0.1c0,0,0.1,0,0.1,0C383.3,212.5,383.3,212.4,383.3,212.4z"/>
	<path class="st3" d="M383.3,184.1c-0.2,0-0.3,0-0.5,0c0,0,0,0.1,0,0.1c0,0,0.1,0,0.1,0c0,0,0.1,0,0.1,0.1c0,0.1,0,0.3,0,0.4
		c0,0.1,0,0.3,0,0.4c0,0,0,0.1-0.1,0.1c0,0-0.1,0-0.1,0c0,0,0,0.1,0,0.1c0.2,0,0.3,0,0.5,0c0,0,0-0.1,0-0.1c0,0-0.1,0-0.1,0
		c0,0-0.1,0-0.1-0.1c0-0.1,0-0.3,0-0.4c0-0.1,0-0.3,0-0.4c0,0,0-0.1,0.1-0.1c0,0,0.1,0,0.1,0C383.3,184.1,383.3,184.1,383.3,184.1z"
		/>
	<path class="st3" d="M383.3,155.7c-0.2,0-0.3,0-0.5,0c0,0,0,0.1,0,0.1c0,0,0.1,0,0.1,0c0,0,0.1,0,0.1,0.1c0,0.1,0,0.3,0,0.4
		c0,0.1,0,0.3,0,0.4c0,0,0,0.1-0.1,0.1c0,0-0.1,0-0.1,0c0,0,0,0.1,0,0.1c0.2,0,0.3,0,0.5,0c0,0,0-0.1,0-0.1c0,0-0.1,0-0.1,0
		c0,0-0.1,0-0.1-0.1c0-0.1,0-0.3,0-0.4c0-0.1,0-0.3,0-0.4c0,0,0-0.1,0.1-0.1c0,0,0.1,0,0.1,0C383.3,155.8,383.3,155.8,383.3,155.7z"
		/>
	<path class="st3" d="M383.3,127.4c-0.2,0-0.3,0-0.5,0c0,0,0,0.1,0,0.1c0,0,0.1,0,0.1,0c0,0,0.1,0,0.1,0.1c0,0.1,0,0.3,0,0.4
		c0,0.1,0,0.3,0,0.4c0,0,0,0.1-0.1,0.1c0,0-0.1,0-0.1,0c0,0,0,0.1,0,0.1c0.2,0,0.3,0,0.5,0c0,0,0-0.1,0-0.1c0,0-0.1,0-0.1,0
		c0,0-0.1,0-0.1-0.1c0-0.1,0-0.3,0-0.4c0-0.1,0-0.3,0-0.4c0,0,0-0.1,0.1-0.1c0,0,0.1,0,0.1,0C383.3,127.4,383.3,127.4,383.3,127.4z"
		/>
	<path class="st3" d="M383.3,99c-0.2,0-0.3,0-0.5,0c0,0,0,0.1,0,0.1c0,0,0.1,0,0.1,0c0,0,0.1,0,0.1,0.1c0,0.1,0,0.3,0,0.4
		s0,0.3,0,0.4c0,0,0,0.1-0.1,0.1c0,0-0.1,0-0.1,0c0,0,0,0.1,0,0.1c0.2,0,0.3,0,0.5,0c0,0,0-0.1,0-0.1c0,0-0.1,0-0.1,0
		c0,0-0.1,0-0.1-0.1c0-0.1,0-0.3,0-0.4s0-0.3,0-0.4c0,0,0-0.1,0.1-0.1c0,0,0.1,0,0.1,0C383.3,99.1,383.3,99.1,383.3,99z"/>
	<path class="st3" d="M383.3,70.7c-0.2,0-0.3,0-0.5,0c0,0,0,0.1,0,0.1c0,0,0.1,0,0.1,0c0,0,0.1,0,0.1,0.1c0,0.1,0,0.3,0,0.4
		c0,0.1,0,0.3,0,0.4c0,0,0,0.1-0.1,0.1c0,0-0.1,0-0.1,0c0,0,0,0.1,0,0.1c0.2,0,0.3,0,0.5,0c0,0,0-0.1,0-0.1c0,0-0.1,0-0.1,0
		c0,0-0.1,0-0.1-0.1c0-0.1,0-0.3,0-0.4c0-0.1,0-0.3,0-0.4c0,0,0-0.1,0.1-0.1c0,0,0.1,0,0.1,0C383.3,70.7,383.3,70.7,383.3,70.7z"/>
	<path class="st3" d="M14.3,70.7c0.2,0,0.3,0,0.5,0c0,0,0,0.1,0,0.1c0,0-0.1,0-0.1,0c0,0-0.1,0-0.1,0.1c0,0.1,0,0.3,0,0.4
		c0,0.1,0,0.3,0,0.4c0,0,0,0.1,0.1,0.1c0,0,0.1,0,0.1,0c0,0,0,0.1,0,0.1c-0.2,0-0.3,0-0.5,0c0,0,0-0.1,0-0.1c0,0,0.1,0,0.1,0
		c0,0,0.1,0,0.1-0.1c0-0.1,0-0.3,0-0.4c0-0.1,0-0.3,0-0.4c0,0,0-0.1-0.1-0.1c0,0-0.1,0-0.1,0C14.3,70.7,14.3,70.7,14.3,70.7z"/>
	<path class="st3" d="M14.3,99c0.2,0,0.3,0,0.5,0c0,0,0,0.1,0,0.1c0,0-0.1,0-0.1,0c0,0-0.1,0-0.1,0.1c0,0.1,0,0.3,0,0.4s0,0.3,0,0.4
		c0,0,0,0.1,0.1,0.1c0,0,0.1,0,0.1,0c0,0,0,0.1,0,0.1c-0.2,0-0.3,0-0.5,0c0,0,0-0.1,0-0.1c0,0,0.1,0,0.1,0c0,0,0.1,0,0.1-0.1
		c0-0.1,0-0.3,0-0.4s0-0.3,0-0.4c0,0,0-0.1-0.1-0.1c0,0-0.1,0-0.1,0C14.3,99.1,14.3,99.1,14.3,99z"/>
	<path class="st3" d="M14.3,127.4c0.2,0,0.3,0,0.5,0c0,0,0,0.1,0,0.1c0,0-0.1,0-0.1,0c0,0-0.1,0-0.1,0.1c0,0.1,0,0.3,0,0.4
		c0,0.1,0,0.3,0,0.4c0,0,0,0.1,0.1,0.1c0,0,0.1,0,0.1,0c0,0,0,0.1,0,0.1c-0.2,0-0.3,0-0.5,0c0,0,0-0.1,0-0.1c0,0,0.1,0,0.1,0
		c0,0,0.1,0,0.1-0.1c0-0.1,0-0.3,0-0.4c0-0.1,0-0.3,0-0.4c0,0,0-0.1-0.1-0.1c0,0-0.1,0-0.1,0C14.3,127.4,14.3,127.4,14.3,127.4z"/>
	<path class="st3" d="M14.3,155.7c0.2,0,0.3,0,0.5,0c0,0,0,0.1,0,0.1c0,0-0.1,0-0.1,0c0,0-0.1,0-0.1,0.1c0,0.1,0,0.3,0,0.4
		c0,0.1,0,0.3,0,0.4c0,0,0,0.1,0.1,0.1c0,0,0.1,0,0.1,0c0,0,0,0.1,0,0.1c-0.2,0-0.3,0-0.5,0c0,0,0-0.1,0-0.1c0,0,0.1,0,0.1,0
		c0,0,0.1,0,0.1-0.1c0-0.1,0-0.3,0-0.4c0-0.1,0-0.3,0-0.4c0,0,0-0.1-0.1-0.1c0,0-0.1,0-0.1,0C14.3,155.8,14.3,155.8,14.3,155.7z"/>
	<path class="st3" d="M14.3,184.1c0.2,0,0.3,0,0.5,0c0,0,0,0.1,0,0.1c0,0-0.1,0-0.1,0c0,0-0.1,0-0.1,0.1c0,0.1,0,0.3,0,0.4
		c0,0.1,0,0.3,0,0.4c0,0,0,0.1,0.1,0.1c0,0,0.1,0,0.1,0c0,0,0,0.1,0,0.1c-0.2,0-0.3,0-0.5,0c0,0,0-0.1,0-0.1c0,0,0.1,0,0.1,0
		c0,0,0.1,0,0.1-0.1c0-0.1,0-0.3,0-0.4c0-0.1,0-0.3,0-0.4c0,0,0-0.1-0.1-0.1c0,0-0.1,0-0.1,0C14.3,184.1,14.3,184.1,14.3,184.1z"/>
	<path class="st3" d="M14.3,212.4c0.2,0,0.3,0,0.5,0c0,0,0,0.1,0,0.1c0,0-0.1,0-0.1,0c0,0-0.1,0-0.1,0.1c0,0.1,0,0.3,0,0.4
		s0,0.3,0,0.4c0,0,0,0.1,0.1,0.1c0,0,0.1,0,0.1,0c0,0,0,0.1,0,0.1c-0.2,0-0.3,0-0.5,0c0,0,0-0.1,0-0.1c0,0,0.1,0,0.1,0
		c0,0,0.1,0,0.1-0.1c0-0.1,0-0.3,0-0.4s0-0.3,0-0.4c0,0,0-0.1-0.1-0.1c0,0-0.1,0-0.1,0C14.3,212.5,14.3,212.4,14.3,212.4z"/>
	<path class="st3" d="M14.3,240.8c0.2,0,0.3,0,0.5,0c0,0,0,0.1,0,0.1c0,0-0.1,0-0.1,0c0,0-0.1,0-0.1,0.1c0,0.1,0,0.3,0,0.4
		c0,0.1,0,0.3,0,0.4c0,0,0,0.1,0.1,0.1c0,0,0.1,0,0.1,0c0,0,0,0.1,0,0.1c-0.2,0-0.3,0-0.5,0c0,0,0-0.1,0-0.1c0,0,0.1,0,0.1,0
		c0,0,0.1,0,0.1-0.1c0-0.1,0-0.3,0-0.4c0-0.1,0-0.3,0-0.4c0,0,0-0.1-0.1-0.1c0,0-0.1,0-0.1,0C14.3,240.8,14.3,240.8,14.3,240.8z"/>
	<path class="st3" d="M14.3,269.1c0.2,0,0.3,0,0.5,0c0,0,0,0.1,0,0.1c0,0-0.1,0-0.1,0c0,0-0.1,0-0.1,0.1c0,0.1,0,0.3,0,0.4
		c0,0.1,0,0.3,0,0.4c0,0,0,0.1,0.1,0.1c0,0,0.1,0,0.1,0c0,0,0,0.1,0,0.1c-0.2,0-0.3,0-0.5,0c0,0,0-0.1,0-0.1c0,0,0.1,0,0.1,0
		c0,0,0.1,0,0.1-0.1c0-0.1,0-0.3,0-0.4c0-0.1,0-0.3,0-0.4c0,0,0-0.1-0.1-0.1c0,0-0.1,0-0.1,0C14.3,269.2,14.3,269.1,14.3,269.1z"/>
	<path class="st3" d="M14.3,297.4c0.2,0,0.3,0,0.5,0c0,0,0,0.1,0,0.1c0,0-0.1,0-0.1,0c0,0-0.1,0-0.1,0.1c0,0.1,0,0.3,0,0.4
		s0,0.3,0,0.4c0,0,0,0.1,0.1,0.1c0,0,0.1,0,0.1,0c0,0,0,0.1,0,0.1c-0.2,0-0.3,0-0.5,0c0,0,0-0.1,0-0.1c0,0,0.1,0,0.1,0
		c0,0,0.1,0,0.1-0.1c0-0.1,0-0.3,0-0.4s0-0.3,0-0.4c0,0,0-0.1-0.1-0.1c0,0-0.1,0-0.1,0C14.3,297.5,14.3,297.5,14.3,297.4z"/>
	<path class="st3" d="M355.2,184.9c0-0.2,0-0.3,0-0.5c0,0-0.1,0-0.1,0c0,0,0,0.1,0,0.1c0,0,0,0.1-0.1,0.1c-0.1,0-0.3,0-0.4,0
		s-0.3,0-0.4,0c0,0-0.1,0-0.1-0.1c0,0,0-0.1,0-0.1c0,0-0.1,0-0.1,0c0,0.2,0,0.3,0,0.5c0,0,0.1,0,0.1,0c0,0,0-0.1,0-0.1
		c0,0,0-0.1,0.1-0.1c0.1,0,0.3,0,0.4,0s0.3,0,0.4,0c0,0,0.1,0,0.1,0.1c0,0,0,0.1,0,0.1C355.2,184.9,355.2,184.9,355.2,184.9z"/>
	<path class="st3" d="M355.2,212.7c0,0.2,0,0.3,0,0.5c0,0-0.1,0-0.1,0c0,0,0-0.1,0-0.1c0,0,0-0.1-0.1-0.1c-0.1,0-0.3,0-0.4,0
		s-0.3,0-0.4,0c0,0-0.1,0-0.1,0.1c0,0,0,0.1,0,0.1c0,0-0.1,0-0.1,0c0-0.2,0-0.3,0-0.5c0,0,0.1,0,0.1,0c0,0,0,0.1,0,0.1
		c0,0,0,0.1,0.1,0.1c0.1,0,0.3,0,0.4,0s0.3,0,0.4,0c0,0,0.1,0,0.1-0.1c0,0,0-0.1,0-0.1C355.2,212.7,355.2,212.7,355.2,212.7z"/>
	<path class="st3" d="M212.7,355.2c0.2,0,0.3,0,0.5,0c0,0,0-0.1,0-0.1c0,0-0.1,0-0.1,0c0,0-0.1,0-0.1-0.1c0-0.1,0-0.3,0-0.4
		c0-0.1,0-0.3,0-0.4c0,0,0-0.1,0.1-0.1c0,0,0.1,0,0.1,0c0,0,0-0.1,0-0.1c-0.2,0-0.3,0-0.5,0c0,0,0,0.1,0,0.1c0,0,0.1,0,0.1,0
		c0,0,0.1,0,0.1,0.1c0,0.1,0,0.3,0,0.4c0,0.1,0,0.3,0,0.4c0,0,0,0.1-0.1,0.1c0,0-0.1,0-0.1,0C212.7,355.2,212.7,355.2,212.7,355.2z"
		/>
	<path class="st3" d="M184.8,355.2c-0.2,0-0.3,0-0.5,0c0,0,0-0.1,0-0.1c0,0,0.1,0,0.1,0c0,0,0.1,0,0.1-0.1c0-0.1,0-0.3,0-0.4
		c0-0.1,0-0.3,0-0.4c0,0,0-0.1-0.1-0.1c0,0-0.1,0-0.1,0c0,0,0-0.1,0-0.1c0.2,0,0.3,0,0.5,0c0,0,0,0.1,0,0.1c0,0-0.1,0-0.1,0
		c0,0-0.1,0-0.1,0.1c0,0.1,0,0.3,0,0.4c0,0.1,0,0.3,0,0.4c0,0,0,0.1,0.1,0.1c0,0,0.1,0,0.1,0C184.8,355.2,184.8,355.2,184.8,355.2z"
		/>
	<path class="st3" d="M42.3,212.7c0,0.2,0,0.3,0,0.5c0,0,0.1,0,0.1,0c0,0,0-0.1,0-0.1c0,0,0-0.1,0.1-0.1c0.1,0,0.3,0,0.4,0
		c0.1,0,0.3,0,0.4,0c0,0,0.1,0,0.1,0.1c0,0,0,0.1,0,0.1c0,0,0.1,0,0.1,0c0-0.2,0-0.3,0-0.5c0,0-0.1,0-0.1,0c0,0,0,0.1,0,0.1
		c0,0,0,0.1-0.1,0.1c-0.1,0-0.3,0-0.4,0c-0.1,0-0.3,0-0.4,0c0,0-0.1,0-0.1-0.1c0,0,0-0.1,0-0.1C42.4,212.7,42.3,212.7,42.3,212.7z"
		/>
	<path class="st3" d="M42.3,184.9c0-0.2,0-0.3,0-0.5c0,0,0.1,0,0.1,0c0,0,0,0.1,0,0.1c0,0,0,0.1,0.1,0.1c0.1,0,0.3,0,0.4,0
		c0.1,0,0.3,0,0.4,0c0,0,0.1,0,0.1-0.1c0,0,0-0.1,0-0.1c0,0,0.1,0,0.1,0c0,0.2,0,0.3,0,0.5c0,0-0.1,0-0.1,0c0,0,0-0.1,0-0.1
		c0,0,0-0.1-0.1-0.1c-0.1,0-0.3,0-0.4,0c-0.1,0-0.3,0-0.4,0c0,0-0.1,0-0.1,0.1c0,0,0,0.1,0,0.1C42.4,184.9,42.3,184.9,42.3,184.9z"
		/>
	<path class="st3" d="M184.8,42.3c-0.2,0-0.3,0-0.5,0c0,0,0,0.1,0,0.1c0,0,0.1,0,0.1,0c0,0,0.1,0,0.1,0.1c0,0.1,0,0.3,0,0.4
		c0,0.1,0,0.3,0,0.4c0,0,0,0.1-0.1,0.1c0,0-0.1,0-0.1,0c0,0,0,0.1,0,0.1c0.2,0,0.3,0,0.5,0c0,0,0-0.1,0-0.1c0,0-0.1,0-0.1,0
		c0,0-0.1,0-0.1-0.1c0-0.1,0-0.3,0-0.4c0-0.1,0-0.3,0-0.4c0,0,0-0.1,0.1-0.1c0,0,0.1,0,0.1,0C184.8,42.4,184.8,42.4,184.8,42.3z"/>
	<path class="st3" d="M212.7,42.3c0.2,0,0.3,0,0.5,0c0,0,0,0.1,0,0.1c0,0-0.1,0-0.1,0c0,0-0.1,0-0.1,0.1c0,0.1,0,0.3,0,0.4
		c0,0.1,0,0.3,0,0.4c0,0,0,0.1,0.1,0.1c0,0,0.1,0,0.1,0c0,0,0,0.1,0,0.1c-0.2,0-0.3,0-0.5,0c0,0,0-0.1,0-0.1c0,0,0.1,0,0.1,0
		c0,0,0.1,0,0.1-0.1c0-0.1,0-0.3,0-0.4c0-0.1,0-0.3,0-0.4c0,0,0-0.1-0.1-0.1c0,0-0.1,0-0.1,0C212.7,42.4,212.7,42.4,212.7,42.3z"/>
	<path class="st3" d="M99.3,70.7c0.2,0,0.3,0,0.5,0c0,0,0,0.1,0,0.1c0,0-0.1,0-0.1,0c0,0-0.1,0-0.1,0.1c0,0.1,0,0.3,0,0.4
		c0,0.1,0,0.3,0,0.4c0,0,0,0.1,0.1,0.1c0,0,0.1,0,0.1,0c0,0,0,0.1,0,0.1c-0.2,0-0.3,0-0.5,0c0,0,0-0.1,0-0.1c0,0,0.1,0,0.1,0
		c0,0,0.1,0,0.1-0.1c0-0.1,0-0.3,0-0.4c0-0.1,0-0.3,0-0.4c0,0,0-0.1-0.1-0.1c0,0-0.1,0-0.1,0C99.3,70.7,99.3,70.7,99.3,70.7z"/>
	<path class="st3" d="M127.6,70.7c0.2,0,0.3,0,0.5,0c0,0,0,0.1,0,0.1c0,0-0.1,0-0.1,0c0,0-0.1,0-0.1,0.1c0,0.1,0,0.3,0,0.4
		c0,0.1,0,0.3,0,0.4c0,0,0,0.1,0.1,0.1c0,0,0.1,0,0.1,0c0,0,0,0.1,0,0.1c-0.2,0-0.3,0-0.5,0c0,0,0-0.1,0-0.1c0,0,0.1,0,0.1,0
		c0,0,0.1,0,0.1-0.1c0-0.1,0-0.3,0-0.4c0-0.1,0-0.3,0-0.4c0,0,0-0.1-0.1-0.1c0,0-0.1,0-0.1,0C127.6,70.7,127.6,70.7,127.6,70.7z"/>
	<path class="st3" d="M156,70.7c0.2,0,0.3,0,0.5,0c0,0,0,0.1,0,0.1c0,0-0.1,0-0.1,0c0,0-0.1,0-0.1,0.1c0,0.1,0,0.3,0,0.4
		c0,0.1,0,0.3,0,0.4c0,0,0,0.1,0.1,0.1c0,0,0.1,0,0.1,0c0,0,0,0.1,0,0.1c-0.2,0-0.3,0-0.5,0c0,0,0-0.1,0-0.1c0,0,0.1,0,0.1,0
		c0,0,0.1,0,0.1-0.1c0-0.1,0-0.3,0-0.4c0-0.1,0-0.3,0-0.4c0,0,0-0.1-0.1-0.1c0,0-0.1,0-0.1,0C156,70.7,156,70.7,156,70.7z"/>
	<path class="st3" d="M184.3,70.7c0.2,0,0.3,0,0.5,0c0,0,0,0.1,0,0.1c0,0-0.1,0-0.1,0c0,0-0.1,0-0.1,0.1c0,0.1,0,0.3,0,0.4
		c0,0.1,0,0.3,0,0.4c0,0,0,0.1,0.1,0.1c0,0,0.1,0,0.1,0c0,0,0,0.1,0,0.1c-0.2,0-0.3,0-0.5,0c0,0,0-0.1,0-0.1c0,0,0.1,0,0.1,0
		c0,0,0.1,0,0.1-0.1c0-0.1,0-0.3,0-0.4c0-0.1,0-0.3,0-0.4c0,0,0-0.1-0.1-0.1c0,0-0.1,0-0.1,0C184.3,70.7,184.3,70.7,184.3,70.7z"/>
	<path class="st3" d="M212.7,70.7c0.2,0,0.3,0,0.5,0c0,0,0,0.1,0,0.1c0,0-0.1,0-0.1,0c0,0-0.1,0-0.1,0.1c0,0.1,0,0.3,0,0.4
		c0,0.1,0,0.3,0,0.4c0,0,0,0.1,0.1,0.1c0,0,0.1,0,0.1,0c0,0,0,0.1,0,0.1c-0.2,0-0.3,0-0.5,0c0,0,0-0.1,0-0.1c0,0,0.1,0,0.1,0
		c0,0,0.1,0,0.1-0.1c0-0.1,0-0.3,0-0.4c0-0.1,0-0.3,0-0.4c0,0,0-0.1-0.1-0.1c0,0-0.1,0-0.1,0C212.7,70.7,212.7,70.7,212.7,70.7z"/>
	<path class="st3" d="M241,70.7c0.2,0,0.3,0,0.5,0c0,0,0,0.1,0,0.1c0,0-0.1,0-0.1,0c0,0-0.1,0-0.1,0.1c0,0.1,0,0.3,0,0.4
		c0,0.1,0,0.3,0,0.4c0,0,0,0.1,0.1,0.1c0,0,0.1,0,0.1,0c0,0,0,0.1,0,0.1c-0.2,0-0.3,0-0.5,0c0,0,0-0.1,0-0.1c0,0,0.1,0,0.1,0
		c0,0,0.1,0,0.1-0.1c0-0.1,0-0.3,0-0.4c0-0.1,0-0.3,0-0.4c0,0,0-0.1-0.1-0.1c0,0-0.1,0-0.1,0C241,70.7,241,70.7,241,70.7z"/>
	<path class="st3" d="M269.4,70.7c0.2,0,0.3,0,0.5,0c0,0,0,0.1,0,0.1c0,0-0.1,0-0.1,0c0,0-0.1,0-0.1,0.1c0,0.1,0,0.3,0,0.4
		c0,0.1,0,0.3,0,0.4c0,0,0,0.1,0.1,0.1c0,0,0.1,0,0.1,0c0,0,0,0.1,0,0.1c-0.2,0-0.3,0-0.5,0c0,0,0-0.1,0-0.1c0,0,0.1,0,0.1,0
		c0,0,0.1,0,0.1-0.1c0-0.1,0-0.3,0-0.4c0-0.1,0-0.3,0-0.4c0,0,0-0.1-0.1-0.1c0,0-0.1,0-0.1,0C269.4,70.7,269.4,70.7,269.4,70.7z"/>
	<path class="st3" d="M297.7,70.7c0.2,0,0.3,0,0.5,0c0,0,0,0.1,0,0.1c0,0-0.1,0-0.1,0c0,0-0.1,0-0.1,0.1c0,0.1,0,0.3,0,0.4
		c0,0.1,0,0.3,0,0.4c0,0,0,0.1,0.1,0.1c0,0,0.1,0,0.1,0c0,0,0,0.1,0,0.1c-0.2,0-0.3,0-0.5,0c0,0,0-0.1,0-0.1c0,0,0.1,0,0.1,0
		c0,0,0.1,0,0.1-0.1c0-0.1,0-0.3,0-0.4c0-0.1,0-0.3,0-0.4c0,0,0-0.1-0.1-0.1c0,0-0.1,0-0.1,0C297.7,70.7,297.7,70.7,297.7,70.7z"/>
	<path class="st3" d="M326.1,70.7c0.2,0,0.3,0,0.5,0c0,0,0,0.1,0,0.1c0,0-0.1,0-0.1,0c0,0-0.1,0-0.1,0.1c0,0.1,0,0.3,0,0.4
		c0,0.1,0,0.3,0,0.4c0,0,0,0.1,0.1,0.1c0,0,0.1,0,0.1,0c0,0,0,0.1,0,0.1c-0.2,0-0.3,0-0.5,0c0,0,0-0.1,0-0.1c0,0,0.1,0,0.1,0
		c0,0,0.1,0,0.1-0.1c0-0.1,0-0.3,0-0.4c0-0.1,0-0.3,0-0.4c0,0,0-0.1-0.1-0.1c0,0-0.1,0-0.1,0C326.1,70.7,326.1,70.7,326.1,70.7z"/>
	<path class="st3" d="M99.3,99c0.2,0,0.3,0,0.5,0c0,0,0,0.1,0,0.1c0,0-0.1,0-0.1,0c0,0-0.1,0-0.1,0.1c0,0.1,0,0.3,0,0.4s0,0.3,0,0.4
		c0,0,0,0.1,0.1,0.1c0,0,0.1,0,0.1,0c0,0,0,0.1,0,0.1c-0.2,0-0.3,0-0.5,0c0,0,0-0.1,0-0.1c0,0,0.1,0,0.1,0c0,0,0.1,0,0.1-0.1
		c0-0.1,0-0.3,0-0.4s0-0.3,0-0.4c0,0,0-0.1-0.1-0.1c0,0-0.1,0-0.1,0C99.3,99.1,99.3,99.1,99.3,99z"/>
	<path class="st3" d="M127.6,99c0.2,0,0.3,0,0.5,0c0,0,0,0.1,0,0.1c0,0-0.1,0-0.1,0c0,0-0.1,0-0.1,0.1c0,0.1,0,0.3,0,0.4
		s0,0.3,0,0.4c0,0,0,0.1,0.1,0.1c0,0,0.1,0,0.1,0c0,0,0,0.1,0,0.1c-0.2,0-0.3,0-0.5,0c0,0,0-0.1,0-0.1c0,0,0.1,0,0.1,0
		c0,0,0.1,0,0.1-0.1c0-0.1,0-0.3,0-0.4s0-0.3,0-0.4c0,0,0-0.1-0.1-0.1c0,0-0.1,0-0.1,0C127.6,99.1,127.6,99.1,127.6,99z"/>
	<path class="st3" d="M156,99c0.2,0,0.3,0,0.5,0c0,0,0,0.1,0,0.1c0,0-0.1,0-0.1,0c0,0-0.1,0-0.1,0.1c0,0.1,0,0.3,0,0.4s0,0.3,0,0.4
		c0,0,0,0.1,0.1,0.1c0,0,0.1,0,0.1,0c0,0,0,0.1,0,0.1c-0.2,0-0.3,0-0.5,0c0,0,0-0.1,0-0.1c0,0,0.1,0,0.1,0c0,0,0.1,0,0.1-0.1
		c0-0.1,0-0.3,0-0.4s0-0.3,0-0.4c0,0,0-0.1-0.1-0.1c0,0-0.1,0-0.1,0C156,99.1,156,99.1,156,99z"/>
	<path class="st3" d="M184.3,99c0.2,0,0.3,0,0.5,0c0,0,0,0.1,0,0.1c0,0-0.1,0-0.1,0c0,0-0.1,0-0.1,0.1c0,0.1,0,0.3,0,0.4
		s0,0.3,0,0.4c0,0,0,0.1,0.1,0.1c0,0,0.1,0,0.1,0c0,0,0,0.1,0,0.1c-0.2,0-0.3,0-0.5,0c0,0,0-0.1,0-0.1c0,0,0.1,0,0.1,0
		c0,0,0.1,0,0.1-0.1c0-0.1,0-0.3,0-0.4s0-0.3,0-0.4c0,0,0-0.1-0.1-0.1c0,0-0.1,0-0.1,0C184.3,99.1,184.3,99.1,184.3,99z"/>
	<path class="st3" d="M212.7,99c0.2,0,0.3,0,0.5,0c0,0,0,0.1,0,0.1c0,0-0.1,0-0.1,0c0,0-0.1,0-0.1,0.1c0,0.1,0,0.3,0,0.4
		s0,0.3,0,0.4c0,0,0,0.1,0.1,0.1c0,0,0.1,0,0.1,0c0,0,0,0.1,0,0.1c-0.2,0-0.3,0-0.5,0c0,0,0-0.1,0-0.1c0,0,0.1,0,0.1,0
		c0,0,0.1,0,0.1-0.1c0-0.1,0-0.3,0-0.4s0-0.3,0-0.4c0,0,0-0.1-0.1-0.1c0,0-0.1,0-0.1,0C212.7,99.1,212.7,99.1,212.7,99z"/>
	<path class="st3" d="M241,99c0.2,0,0.3,0,0.5,0c0,0,0,0.1,0,0.1c0,0-0.1,0-0.1,0c0,0-0.1,0-0.1,0.1c0,0.1,0,0.3,0,0.4s0,0.3,0,0.4
		c0,0,0,0.1,0.1,0.1c0,0,0.1,0,0.1,0c0,0,0,0.1,0,0.1c-0.2,0-0.3,0-0.5,0c0,0,0-0.1,0-0.1c0,0,0.1,0,0.1,0c0,0,0.1,0,0.1-0.1
		c0-0.1,0-0.3,0-0.4s0-0.3,0-0.4c0,0,0-0.1-0.1-0.1c0,0-0.1,0-0.1,0C241,99.1,241,99.1,241,99z"/>
	<path class="st3" d="M269.4,99c0.2,0,0.3,0,0.5,0c0,0,0,0.1,0,0.1c0,0-0.1,0-0.1,0c0,0-0.1,0-0.1,0.1c0,0.1,0,0.3,0,0.4
		s0,0.3,0,0.4c0,0,0,0.1,0.1,0.1c0,0,0.1,0,0.1,0c0,0,0,0.1,0,0.1c-0.2,0-0.3,0-0.5,0c0,0,0-0.1,0-0.1c0,0,0.1,0,0.1,0
		c0,0,0.1,0,0.1-0.1c0-0.1,0-0.3,0-0.4s0-0.3,0-0.4c0,0,0-0.1-0.1-0.1c0,0-0.1,0-0.1,0C269.4,99.1,269.4,99.1,269.4,99z"/>
	<path class="st3" d="M297.7,99c0.2,0,0.3,0,0.5,0c0,0,0,0.1,0,0.1c0,0-0.1,0-0.1,0c0,0-0.1,0-0.1,0.1c0,0.1,0,0.3,0,0.4
		s0,0.3,0,0.4c0,0,0,0.1,0.1,0.1c0,0,0.1,0,0.1,0c0,0,0,0.1,0,0.1c-0.2,0-0.3,0-0.5,0c0,0,0-0.1,0-0.1c0,0,0.1,0,0.1,0
		c0,0,0.1,0,0.1-0.1c0-0.1,0-0.3,0-0.4s0-0.3,0-0.4c0,0,0-0.1-0.1-0.1c0,0-0.1,0-0.1,0C297.7,99.1,297.7,99.1,297.7,99z"/>
	<path class="st3" d="M326.1,99c0.2,0,0.3,0,0.5,0c0,0,0,0.1,0,0.1c0,0-0.1,0-0.1,0c0,0-0.1,0-0.1,0.1c0,0.1,0,0.3,0,0.4
		s0,0.3,0,0.4c0,0,0,0.1,0.1,0.1c0,0,0.1,0,0.1,0c0,0,0,0.1,0,0.1c-0.2,0-0.3,0-0.5,0c0,0,0-0.1,0-0.1c0,0,0.1,0,0.1,0
		c0,0,0.1,0,0.1-0.1c0-0.1,0-0.3,0-0.4s0-0.3,0-0.4c0,0,0-0.1-0.1-0.1c0,0-0.1,0-0.1,0C326.1,99.1,326.1,99.1,326.1,99z"/>
	<path class="st3" d="M99.3,127.4c0.2,0,0.3,0,0.5,0c0,0,0,0.1,0,0.1c0,0-0.1,0-0.1,0c0,0-0.1,0-0.1,0.1c0,0.1,0,0.3,0,0.4
		c0,0.1,0,0.3,0,0.4c0,0,0,0.1,0.1,0.1c0,0,0.1,0,0.1,0c0,0,0,0.1,0,0.1c-0.2,0-0.3,0-0.5,0c0,0,0-0.1,0-0.1c0,0,0.1,0,0.1,0
		c0,0,0.1,0,0.1-0.1c0-0.1,0-0.3,0-0.4c0-0.1,0-0.3,0-0.4c0,0,0-0.1-0.1-0.1c0,0-0.1,0-0.1,0C99.3,127.4,99.3,127.4,99.3,127.4z"/>
	<path class="st3" d="M127.6,127.4c0.2,0,0.3,0,0.5,0c0,0,0,0.1,0,0.1c0,0-0.1,0-0.1,0c0,0-0.1,0-0.1,0.1c0,0.1,0,0.3,0,0.4
		c0,0.1,0,0.3,0,0.4c0,0,0,0.1,0.1,0.1c0,0,0.1,0,0.1,0c0,0,0,0.1,0,0.1c-0.2,0-0.3,0-0.5,0c0,0,0-0.1,0-0.1c0,0,0.1,0,0.1,0
		c0,0,0.1,0,0.1-0.1c0-0.1,0-0.3,0-0.4c0-0.1,0-0.3,0-0.4c0,0,0-0.1-0.1-0.1c0,0-0.1,0-0.1,0C127.6,127.4,127.6,127.4,127.6,127.4z"
		/>
	<path class="st3" d="M156,127.4c0.2,0,0.3,0,0.5,0c0,0,0,0.1,0,0.1c0,0-0.1,0-0.1,0c0,0-0.1,0-0.1,0.1c0,0.1,0,0.3,0,0.4
		c0,0.1,0,0.3,0,0.4c0,0,0,0.1,0.1,0.1c0,0,0.1,0,0.1,0c0,0,0,0.1,0,0.1c-0.2,0-0.3,0-0.5,0c0,0,0-0.1,0-0.1c0,0,0.1,0,0.1,0
		c0,0,0.1,0,0.1-0.1c0-0.1,0-0.3,0-0.4c0-0.1,0-0.3,0-0.4c0,0,0-0.1-0.1-0.1c0,0-0.1,0-0.1,0C156,127.4,156,127.4,156,127.4z"/>
	<path class="st3" d="M184.3,127.4c0.2,0,0.3,0,0.5,0c0,0,0,0.1,0,0.1c0,0-0.1,0-0.1,0c0,0-0.1,0-0.1,0.1c0,0.1,0,0.3,0,0.4
		c0,0.1,0,0.3,0,0.4c0,0,0,0.1,0.1,0.1c0,0,0.1,0,0.1,0c0,0,0,0.1,0,0.1c-0.2,0-0.3,0-0.5,0c0,0,0-0.1,0-0.1c0,0,0.1,0,0.1,0
		c0,0,0.1,0,0.1-0.1c0-0.1,0-0.3,0-0.4c0-0.1,0-0.3,0-0.4c0,0,0-0.1-0.1-0.1c0,0-0.1,0-0.1,0C184.3,127.4,184.3,127.4,184.3,127.4z"
		/>
	<path class="st3" d="M14.3,325.8c0.2,0,0.3,0,0.5,0c0,0,0,0.1,0,0.1c0,0-0.1,0-0.1,0c0,0-0.1,0-0.1,0.1c0,0.1,0,0.3,0,0.4
		c0,0.1,0,0.3,0,0.4c0,0,0,0.1,0.1,0.1c0,0,0.1,0,0.1,0c0,0,0,0.1,0,0.1c-0.2,0-0.3,0-0.5,0c0,0,0-0.1,0-0.1c0,0,0.1,0,0.1,0
		c0,0,0.1,0,0.1-0.1c0-0.1,0-0.3,0-0.4c0-0.1,0-0.3,0-0.4c0,0,0-0.1-0.1-0.1c0,0-0.1,0-0.1,0C14.3,325.9,14.3,325.8,14.3,325.8z"/>
	<path class="st3" d="M212.7,127.4c0.2,0,0.3,0,0.5,0c0,0,0,0.1,0,0.1c0,0-0.1,0-0.1,0c0,0-0.1,0-0.1,0.1c0,0.1,0,0.3,0,0.4
		c0,0.1,0,0.3,0,0.4c0,0,0,0.1,0.1,0.1c0,0,0.1,0,0.1,0c0,0,0,0.1,0,0.1c-0.2,0-0.3,0-0.5,0c0,0,0-0.1,0-0.1c0,0,0.1,0,0.1,0
		c0,0,0.1,0,0.1-0.1c0-0.1,0-0.3,0-0.4c0-0.1,0-0.3,0-0.4c0,0,0-0.1-0.1-0.1c0,0-0.1,0-0.1,0C212.7,127.4,212.7,127.4,212.7,127.4z"
		/>
	<path class="st3" d="M241,127.4c0.2,0,0.3,0,0.5,0c0,0,0,0.1,0,0.1c0,0-0.1,0-0.1,0c0,0-0.1,0-0.1,0.1c0,0.1,0,0.3,0,0.4
		c0,0.1,0,0.3,0,0.4c0,0,0,0.1,0.1,0.1c0,0,0.1,0,0.1,0c0,0,0,0.1,0,0.1c-0.2,0-0.3,0-0.5,0c0,0,0-0.1,0-0.1c0,0,0.1,0,0.1,0
		c0,0,0.1,0,0.1-0.1c0-0.1,0-0.3,0-0.4c0-0.1,0-0.3,0-0.4c0,0,0-0.1-0.1-0.1c0,0-0.1,0-0.1,0C241,127.4,241,127.4,241,127.4z"/>
	<path class="st3" d="M269.4,127.4c0.2,0,0.3,0,0.5,0c0,0,0,0.1,0,0.1c0,0-0.1,0-0.1,0c0,0-0.1,0-0.1,0.1c0,0.1,0,0.3,0,0.4
		c0,0.1,0,0.3,0,0.4c0,0,0,0.1,0.1,0.1c0,0,0.1,0,0.1,0c0,0,0,0.1,0,0.1c-0.2,0-0.3,0-0.5,0c0,0,0-0.1,0-0.1c0,0,0.1,0,0.1,0
		c0,0,0.1,0,0.1-0.1c0-0.1,0-0.3,0-0.4c0-0.1,0-0.3,0-0.4c0,0,0-0.1-0.1-0.1c0,0-0.1,0-0.1,0C269.4,127.4,269.4,127.4,269.4,127.4z"
		/>
	<path class="st3" d="M297.7,127.4c0.2,0,0.3,0,0.5,0c0,0,0,0.1,0,0.1c0,0-0.1,0-0.1,0c0,0-0.1,0-0.1,0.1c0,0.1,0,0.3,0,0.4
		c0,0.1,0,0.3,0,0.4c0,0,0,0.1,0.1,0.1c0,0,0.1,0,0.1,0c0,0,0,0.1,0,0.1c-0.2,0-0.3,0-0.5,0c0,0,0-0.1,0-0.1c0,0,0.1,0,0.1,0
		c0,0,0.1,0,0.1-0.1c0-0.1,0-0.3,0-0.4c0-0.1,0-0.3,0-0.4c0,0,0-0.1-0.1-0.1c0,0-0.1,0-0.1,0C297.7,127.4,297.7,127.4,297.7,127.4z"
		/>
	<path class="st3" d="M326.1,127.4c0.2,0,0.3,0,0.5,0c0,0,0,0.1,0,0.1c0,0-0.1,0-0.1,0c0,0-0.1,0-0.1,0.1c0,0.1,0,0.3,0,0.4
		c0,0.1,0,0.3,0,0.4c0,0,0,0.1,0.1,0.1c0,0,0.1,0,0.1,0c0,0,0,0.1,0,0.1c-0.2,0-0.3,0-0.5,0c0,0,0-0.1,0-0.1c0,0,0.1,0,0.1,0
		c0,0,0.1,0,0.1-0.1c0-0.1,0-0.3,0-0.4c0-0.1,0-0.3,0-0.4c0,0,0-0.1-0.1-0.1c0,0-0.1,0-0.1,0C326.1,127.4,326.1,127.4,326.1,127.4z"
		/>
	<path class="st3" d="M99.3,155.7c0.2,0,0.3,0,0.5,0c0,0,0,0.1,0,0.1c0,0-0.1,0-0.1,0c0,0-0.1,0-0.1,0.1c0,0.1,0,0.3,0,0.4
		c0,0.1,0,0.3,0,0.4c0,0,0,0.1,0.1,0.1c0,0,0.1,0,0.1,0c0,0,0,0.1,0,0.1c-0.2,0-0.3,0-0.5,0c0,0,0-0.1,0-0.1c0,0,0.1,0,0.1,0
		c0,0,0.1,0,0.1-0.1c0-0.1,0-0.3,0-0.4c0-0.1,0-0.3,0-0.4c0,0,0-0.1-0.1-0.1c0,0-0.1,0-0.1,0C99.3,155.8,99.3,155.8,99.3,155.7z"/>
	<path class="st3" d="M127.6,155.7c0.2,0,0.3,0,0.5,0c0,0,0,0.1,0,0.1c0,0-0.1,0-0.1,0c0,0-0.1,0-0.1,0.1c0,0.1,0,0.3,0,0.4
		c0,0.1,0,0.3,0,0.4c0,0,0,0.1,0.1,0.1c0,0,0.1,0,0.1,0c0,0,0,0.1,0,0.1c-0.2,0-0.3,0-0.5,0c0,0,0-0.1,0-0.1c0,0,0.1,0,0.1,0
		c0,0,0.1,0,0.1-0.1c0-0.1,0-0.3,0-0.4c0-0.1,0-0.3,0-0.4c0,0,0-0.1-0.1-0.1c0,0-0.1,0-0.1,0C127.6,155.8,127.6,155.8,127.6,155.7z"
		/>
	<path class="st3" d="M156,155.7c0.2,0,0.3,0,0.5,0c0,0,0,0.1,0,0.1c0,0-0.1,0-0.1,0c0,0-0.1,0-0.1,0.1c0,0.1,0,0.3,0,0.4
		c0,0.1,0,0.3,0,0.4c0,0,0,0.1,0.1,0.1c0,0,0.1,0,0.1,0c0,0,0,0.1,0,0.1c-0.2,0-0.3,0-0.5,0c0,0,0-0.1,0-0.1c0,0,0.1,0,0.1,0
		c0,0,0.1,0,0.1-0.1c0-0.1,0-0.3,0-0.4c0-0.1,0-0.3,0-0.4c0,0,0-0.1-0.1-0.1c0,0-0.1,0-0.1,0C156,155.8,156,155.8,156,155.7z"/>
	<path class="st3" d="M184.3,155.7c0.2,0,0.3,0,0.5,0c0,0,0,0.1,0,0.1c0,0-0.1,0-0.1,0c0,0-0.1,0-0.1,0.1c0,0.1,0,0.3,0,0.4
		c0,0.1,0,0.3,0,0.4c0,0,0,0.1,0.1,0.1c0,0,0.1,0,0.1,0c0,0,0,0.1,0,0.1c-0.2,0-0.3,0-0.5,0c0,0,0-0.1,0-0.1c0,0,0.1,0,0.1,0
		c0,0,0.1,0,0.1-0.1c0-0.1,0-0.3,0-0.4c0-0.1,0-0.3,0-0.4c0,0,0-0.1-0.1-0.1c0,0-0.1,0-0.1,0C184.3,155.8,184.3,155.8,184.3,155.7z"
		/>
	<path class="st3" d="M212.7,155.7c0.2,0,0.3,0,0.5,0c0,0,0,0.1,0,0.1c0,0-0.1,0-0.1,0c0,0-0.1,0-0.1,0.1c0,0.1,0,0.3,0,0.4
		c0,0.1,0,0.3,0,0.4c0,0,0,0.1,0.1,0.1c0,0,0.1,0,0.1,0c0,0,0,0.1,0,0.1c-0.2,0-0.3,0-0.5,0c0,0,0-0.1,0-0.1c0,0,0.1,0,0.1,0
		c0,0,0.1,0,0.1-0.1c0-0.1,0-0.3,0-0.4c0-0.1,0-0.3,0-0.4c0,0,0-0.1-0.1-0.1c0,0-0.1,0-0.1,0C212.7,155.8,212.7,155.8,212.7,155.7z"
		/>
	<path class="st3" d="M241,155.7c0.2,0,0.3,0,0.5,0c0,0,0,0.1,0,0.1c0,0-0.1,0-0.1,0c0,0-0.1,0-0.1,0.1c0,0.1,0,0.3,0,0.4
		c0,0.1,0,0.3,0,0.4c0,0,0,0.1,0.1,0.1c0,0,0.1,0,0.1,0c0,0,0,0.1,0,0.1c-0.2,0-0.3,0-0.5,0c0,0,0-0.1,0-0.1c0,0,0.1,0,0.1,0
		c0,0,0.1,0,0.1-0.1c0-0.1,0-0.3,0-0.4c0-0.1,0-0.3,0-0.4c0,0,0-0.1-0.1-0.1c0,0-0.1,0-0.1,0C241,155.8,241,155.8,241,155.7z"/>
	<path class="st3" d="M269.4,155.7c0.2,0,0.3,0,0.5,0c0,0,0,0.1,0,0.1c0,0-0.1,0-0.1,0c0,0-0.1,0-0.1,0.1c0,0.1,0,0.3,0,0.4
		c0,0.1,0,0.3,0,0.4c0,0,0,0.1,0.1,0.1c0,0,0.1,0,0.1,0c0,0,0,0.1,0,0.1c-0.2,0-0.3,0-0.5,0c0,0,0-0.1,0-0.1c0,0,0.1,0,0.1,0
		c0,0,0.1,0,0.1-0.1c0-0.1,0-0.3,0-0.4c0-0.1,0-0.3,0-0.4c0,0,0-0.1-0.1-0.1c0,0-0.1,0-0.1,0C269.4,155.8,269.4,155.8,269.4,155.7z"
		/>
	<path class="st3" d="M297.7,155.7c0.2,0,0.3,0,0.5,0c0,0,0,0.1,0,0.1c0,0-0.1,0-0.1,0c0,0-0.1,0-0.1,0.1c0,0.1,0,0.3,0,0.4
		c0,0.1,0,0.3,0,0.4c0,0,0,0.1,0.1,0.1c0,0,0.1,0,0.1,0c0,0,0,0.1,0,0.1c-0.2,0-0.3,0-0.5,0c0,0,0-0.1,0-0.1c0,0,0.1,0,0.1,0
		c0,0,0.1,0,0.1-0.1c0-0.1,0-0.3,0-0.4c0-0.1,0-0.3,0-0.4c0,0,0-0.1-0.1-0.1c0,0-0.1,0-0.1,0C297.7,155.8,297.7,155.8,297.7,155.7z"
		/>
	<path class="st3" d="M326.1,155.7c0.2,0,0.3,0,0.5,0c0,0,0,0.1,0,0.1c0,0-0.1,0-0.1,0c0,0-0.1,0-0.1,0.1c0,0.1,0,0.3,0,0.4
		c0,0.1,0,0.3,0,0.4c0,0,0,0.1,0.1,0.1c0,0,0.1,0,0.1,0c0,0,0,0.1,0,0.1c-0.2,0-0.3,0-0.5,0c0,0,0-0.1,0-0.1c0,0,0.1,0,0.1,0
		c0,0,0.1,0,0.1-0.1c0-0.1,0-0.3,0-0.4c0-0.1,0-0.3,0-0.4c0,0,0-0.1-0.1-0.1c0,0-0.1,0-0.1,0C326.1,155.8,326.1,155.8,326.1,155.7z"
		/>
	<path class="st3" d="M99.3,184.1c0.2,0,0.3,0,0.5,0c0,0,0,0.1,0,0.1c0,0-0.1,0-0.1,0c0,0-0.1,0-0.1,0.1c0,0.1,0,0.3,0,0.4
		c0,0.1,0,0.3,0,0.4c0,0,0,0.1,0.1,0.1c0,0,0.1,0,0.1,0c0,0,0,0.1,0,0.1c-0.2,0-0.3,0-0.5,0c0,0,0-0.1,0-0.1c0,0,0.1,0,0.1,0
		c0,0,0.1,0,0.1-0.1c0-0.1,0-0.3,0-0.4c0-0.1,0-0.3,0-0.4c0,0,0-0.1-0.1-0.1c0,0-0.1,0-0.1,0C99.3,184.1,99.3,184.1,99.3,184.1z"/>
	<path class="st3" d="M127.6,184.1c0.2,0,0.3,0,0.5,0c0,0,0,0.1,0,0.1c0,0-0.1,0-0.1,0c0,0-0.1,0-0.1,0.1c0,0.1,0,0.3,0,0.4
		c0,0.1,0,0.3,0,0.4c0,0,0,0.1,0.1,0.1c0,0,0.1,0,0.1,0c0,0,0,0.1,0,0.1c-0.2,0-0.3,0-0.5,0c0,0,0-0.1,0-0.1c0,0,0.1,0,0.1,0
		c0,0,0.1,0,0.1-0.1c0-0.1,0-0.3,0-0.4c0-0.1,0-0.3,0-0.4c0,0,0-0.1-0.1-0.1c0,0-0.1,0-0.1,0C127.6,184.1,127.6,184.1,127.6,184.1z"
		/>
	<path class="st3" d="M156,184.1c0.2,0,0.3,0,0.5,0c0,0,0,0.1,0,0.1c0,0-0.1,0-0.1,0c0,0-0.1,0-0.1,0.1c0,0.1,0,0.3,0,0.4
		c0,0.1,0,0.3,0,0.4c0,0,0,0.1,0.1,0.1c0,0,0.1,0,0.1,0c0,0,0,0.1,0,0.1c-0.2,0-0.3,0-0.5,0c0,0,0-0.1,0-0.1c0,0,0.1,0,0.1,0
		c0,0,0.1,0,0.1-0.1c0-0.1,0-0.3,0-0.4c0-0.1,0-0.3,0-0.4c0,0,0-0.1-0.1-0.1c0,0-0.1,0-0.1,0C156,184.1,156,184.1,156,184.1z"/>
	<path class="st3" d="M184.3,184.1c0.2,0,0.3,0,0.5,0c0,0,0,0.1,0,0.1c0,0-0.1,0-0.1,0c0,0-0.1,0-0.1,0.1c0,0.1,0,0.3,0,0.4
		c0,0.1,0,0.3,0,0.4c0,0,0,0.1,0.1,0.1c0,0,0.1,0,0.1,0c0,0,0,0.1,0,0.1c-0.2,0-0.3,0-0.5,0c0,0,0-0.1,0-0.1c0,0,0.1,0,0.1,0
		c0,0,0.1,0,0.1-0.1c0-0.1,0-0.3,0-0.4c0-0.1,0-0.3,0-0.4c0,0,0-0.1-0.1-0.1c0,0-0.1,0-0.1,0C184.3,184.1,184.3,184.1,184.3,184.1z"
		/>
	<path class="st3" d="M212.7,184.1c0.2,0,0.3,0,0.5,0c0,0,0,0.1,0,0.1c0,0-0.1,0-0.1,0c0,0-0.1,0-0.1,0.1c0,0.1,0,0.3,0,0.4
		c0,0.1,0,0.3,0,0.4c0,0,0,0.1,0.1,0.1c0,0,0.1,0,0.1,0c0,0,0,0.1,0,0.1c-0.2,0-0.3,0-0.5,0c0,0,0-0.1,0-0.1c0,0,0.1,0,0.1,0
		c0,0,0.1,0,0.1-0.1c0-0.1,0-0.3,0-0.4c0-0.1,0-0.3,0-0.4c0,0,0-0.1-0.1-0.1c0,0-0.1,0-0.1,0C212.7,184.1,212.7,184.1,212.7,184.1z"
		/>
	<path class="st3" d="M241,184.1c0.2,0,0.3,0,0.5,0c0,0,0,0.1,0,0.1c0,0-0.1,0-0.1,0c0,0-0.1,0-0.1,0.1c0,0.1,0,0.3,0,0.4
		c0,0.1,0,0.3,0,0.4c0,0,0,0.1,0.1,0.1c0,0,0.1,0,0.1,0c0,0,0,0.1,0,0.1c-0.2,0-0.3,0-0.5,0c0,0,0-0.1,0-0.1c0,0,0.1,0,0.1,0
		c0,0,0.1,0,0.1-0.1c0-0.1,0-0.3,0-0.4c0-0.1,0-0.3,0-0.4c0,0,0-0.1-0.1-0.1c0,0-0.1,0-0.1,0C241,184.1,241,184.1,241,184.1z"/>
	<path class="st3" d="M269.4,184.1c0.2,0,0.3,0,0.5,0c0,0,0,0.1,0,0.1c0,0-0.1,0-0.1,0c0,0-0.1,0-0.1,0.1c0,0.1,0,0.3,0,0.4
		c0,0.1,0,0.3,0,0.4c0,0,0,0.1,0.1,0.1c0,0,0.1,0,0.1,0c0,0,0,0.1,0,0.1c-0.2,0-0.3,0-0.5,0c0,0,0-0.1,0-0.1c0,0,0.1,0,0.1,0
		c0,0,0.1,0,0.1-0.1c0-0.1,0-0.3,0-0.4c0-0.1,0-0.3,0-0.4c0,0,0-0.1-0.1-0.1c0,0-0.1,0-0.1,0C269.4,184.1,269.4,184.1,269.4,184.1z"
		/>
	<path class="st3" d="M297.7,184.1c0.2,0,0.3,0,0.5,0c0,0,0,0.1,0,0.1c0,0-0.1,0-0.1,0c0,0-0.1,0-0.1,0.1c0,0.1,0,0.3,0,0.4
		c0,0.1,0,0.3,0,0.4c0,0,0,0.1,0.1,0.1c0,0,0.1,0,0.1,0c0,0,0,0.1,0,0.1c-0.2,0-0.3,0-0.5,0c0,0,0-0.1,0-0.1c0,0,0.1,0,0.1,0
		c0,0,0.1,0,0.1-0.1c0-0.1,0-0.3,0-0.4c0-0.1,0-0.3,0-0.4c0,0,0-0.1-0.1-0.1c0,0-0.1,0-0.1,0C297.7,184.1,297.7,184.1,297.7,184.1z"
		/>
	<path class="st3" d="M326.1,184.1c0.2,0,0.3,0,0.5,0c0,0,0,0.1,0,0.1c0,0-0.1,0-0.1,0c0,0-0.1,0-0.1,0.1c0,0.1,0,0.3,0,0.4
		c0,0.1,0,0.3,0,0.4c0,0,0,0.1,0.1,0.1c0,0,0.1,0,0.1,0c0,0,0,0.1,0,0.1c-0.2,0-0.3,0-0.5,0c0,0,0-0.1,0-0.1c0,0,0.1,0,0.1,0
		c0,0,0.1,0,0.1-0.1c0-0.1,0-0.3,0-0.4c0-0.1,0-0.3,0-0.4c0,0,0-0.1-0.1-0.1c0,0-0.1,0-0.1,0C326.1,184.1,326.1,184.1,326.1,184.1z"
		/>
	<path class="st3" d="M99.3,212.4c0.2,0,0.3,0,0.5,0c0,0,0,0.1,0,0.1c0,0-0.1,0-0.1,0c0,0-0.1,0-0.1,0.1c0,0.1,0,0.3,0,0.4
		s0,0.3,0,0.4c0,0,0,0.1,0.1,0.1c0,0,0.1,0,0.1,0c0,0,0,0.1,0,0.1c-0.2,0-0.3,0-0.5,0c0,0,0-0.1,0-0.1c0,0,0.1,0,0.1,0
		c0,0,0.1,0,0.1-0.1c0-0.1,0-0.3,0-0.4s0-0.3,0-0.4c0,0,0-0.1-0.1-0.1c0,0-0.1,0-0.1,0C99.3,212.5,99.3,212.4,99.3,212.4z"/>
	<path class="st3" d="M127.6,212.4c0.2,0,0.3,0,0.5,0c0,0,0,0.1,0,0.1c0,0-0.1,0-0.1,0c0,0-0.1,0-0.1,0.1c0,0.1,0,0.3,0,0.4
		s0,0.3,0,0.4c0,0,0,0.1,0.1,0.1c0,0,0.1,0,0.1,0c0,0,0,0.1,0,0.1c-0.2,0-0.3,0-0.5,0c0,0,0-0.1,0-0.1c0,0,0.1,0,0.1,0
		c0,0,0.1,0,0.1-0.1c0-0.1,0-0.3,0-0.4s0-0.3,0-0.4c0,0,0-0.1-0.1-0.1c0,0-0.1,0-0.1,0C127.6,212.5,127.6,212.4,127.6,212.4z"/>
	<path class="st3" d="M156,212.4c0.2,0,0.3,0,0.5,0c0,0,0,0.1,0,0.1c0,0-0.1,0-0.1,0c0,0-0.1,0-0.1,0.1c0,0.1,0,0.3,0,0.4
		s0,0.3,0,0.4c0,0,0,0.1,0.1,0.1c0,0,0.1,0,0.1,0c0,0,0,0.1,0,0.1c-0.2,0-0.3,0-0.5,0c0,0,0-0.1,0-0.1c0,0,0.1,0,0.1,0
		c0,0,0.1,0,0.1-0.1c0-0.1,0-0.3,0-0.4s0-0.3,0-0.4c0,0,0-0.1-0.1-0.1c0,0-0.1,0-0.1,0C156,212.5,156,212.4,156,212.4z"/>
	<path class="st3" d="M184.3,212.4c0.2,0,0.3,0,0.5,0c0,0,0,0.1,0,0.1c0,0-0.1,0-0.1,0c0,0-0.1,0-0.1,0.1c0,0.1,0,0.3,0,0.4
		s0,0.3,0,0.4c0,0,0,0.1,0.1,0.1c0,0,0.1,0,0.1,0c0,0,0,0.1,0,0.1c-0.2,0-0.3,0-0.5,0c0,0,0-0.1,0-0.1c0,0,0.1,0,0.1,0
		c0,0,0.1,0,0.1-0.1c0-0.1,0-0.3,0-0.4s0-0.3,0-0.4c0,0,0-0.1-0.1-0.1c0,0-0.1,0-0.1,0C184.3,212.5,184.3,212.4,184.3,212.4z"/>
	<path class="st3" d="M212.7,212.4c0.2,0,0.3,0,0.5,0c0,0,0,0.1,0,0.1c0,0-0.1,0-0.1,0c0,0-0.1,0-0.1,0.1c0,0.1,0,0.3,0,0.4
		s0,0.3,0,0.4c0,0,0,0.1,0.1,0.1c0,0,0.1,0,0.1,0c0,0,0,0.1,0,0.1c-0.2,0-0.3,0-0.5,0c0,0,0-0.1,0-0.1c0,0,0.1,0,0.1,0
		c0,0,0.1,0,0.1-0.1c0-0.1,0-0.3,0-0.4s0-0.3,0-0.4c0,0,0-0.1-0.1-0.1c0,0-0.1,0-0.1,0C212.7,212.5,212.7,212.4,212.7,212.4z"/>
	<path class="st3" d="M241,212.4c0.2,0,0.3,0,0.5,0c0,0,0,0.1,0,0.1c0,0-0.1,0-0.1,0c0,0-0.1,0-0.1,0.1c0,0.1,0,0.3,0,0.4
		s0,0.3,0,0.4c0,0,0,0.1,0.1,0.1c0,0,0.1,0,0.1,0c0,0,0,0.1,0,0.1c-0.2,0-0.3,0-0.5,0c0,0,0-0.1,0-0.1c0,0,0.1,0,0.1,0
		c0,0,0.1,0,0.1-0.1c0-0.1,0-0.3,0-0.4s0-0.3,0-0.4c0,0,0-0.1-0.1-0.1c0,0-0.1,0-0.1,0C241,212.5,241,212.4,241,212.4z"/>
	<path class="st3" d="M269.4,212.4c0.2,0,0.3,0,0.5,0c0,0,0,0.1,0,0.1c0,0-0.1,0-0.1,0c0,0-0.1,0-0.1,0.1c0,0.1,0,0.3,0,0.4
		s0,0.3,0,0.4c0,0,0,0.1,0.1,0.1c0,0,0.1,0,0.1,0c0,0,0,0.1,0,0.1c-0.2,0-0.3,0-0.5,0c0,0,0-0.1,0-0.1c0,0,0.1,0,0.1,0
		c0,0,0.1,0,0.1-0.1c0-0.1,0-0.3,0-0.4s0-0.3,0-0.4c0,0,0-0.1-0.1-0.1c0,0-0.1,0-0.1,0C269.4,212.5,269.4,212.4,269.4,212.4z"/>
	<path class="st3" d="M297.7,212.4c0.2,0,0.3,0,0.5,0c0,0,0,0.1,0,0.1c0,0-0.1,0-0.1,0c0,0-0.1,0-0.1,0.1c0,0.1,0,0.3,0,0.4
		s0,0.3,0,0.4c0,0,0,0.1,0.1,0.1c0,0,0.1,0,0.1,0c0,0,0,0.1,0,0.1c-0.2,0-0.3,0-0.5,0c0,0,0-0.1,0-0.1c0,0,0.1,0,0.1,0
		c0,0,0.1,0,0.1-0.1c0-0.1,0-0.3,0-0.4s0-0.3,0-0.4c0,0,0-0.1-0.1-0.1c0,0-0.1,0-0.1,0C297.7,212.5,297.7,212.4,297.7,212.4z"/>
	<path class="st3" d="M326.1,212.4c0.2,0,0.3,0,0.5,0c0,0,0,0.1,0,0.1c0,0-0.1,0-0.1,0c0,0-0.1,0-0.1,0.1c0,0.1,0,0.3,0,0.4
		s0,0.3,0,0.4c0,0,0,0.1,0.1,0.1c0,0,0.1,0,0.1,0c0,0,0,0.1,0,0.1c-0.2,0-0.3,0-0.5,0c0,0,0-0.1,0-0.1c0,0,0.1,0,0.1,0
		c0,0,0.1,0,0.1-0.1c0-0.1,0-0.3,0-0.4s0-0.3,0-0.4c0,0,0-0.1-0.1-0.1c0,0-0.1,0-0.1,0C326.1,212.5,326.1,212.4,326.1,212.4z"/>
	<path class="st3" d="M99.3,240.8c0.2,0,0.3,0,0.5,0c0,0,0,0.1,0,0.1c0,0-0.1,0-0.1,0c0,0-0.1,0-0.1,0.1c0,0.1,0,0.3,0,0.4
		c0,0.1,0,0.3,0,0.4c0,0,0,0.1,0.1,0.1c0,0,0.1,0,0.1,0c0,0,0,0.1,0,0.1c-0.2,0-0.3,0-0.5,0c0,0,0-0.1,0-0.1c0,0,0.1,0,0.1,0
		c0,0,0.1,0,0.1-0.1c0-0.1,0-0.3,0-0.4c0-0.1,0-0.3,0-0.4c0,0,0-0.1-0.1-0.1c0,0-0.1,0-0.1,0C99.3,240.8,99.3,240.8,99.3,240.8z"/>
	<path class="st3" d="M127.6,240.8c0.2,0,0.3,0,0.5,0c0,0,0,0.1,0,0.1c0,0-0.1,0-0.1,0c0,0-0.1,0-0.1,0.1c0,0.1,0,0.3,0,0.4
		c0,0.1,0,0.3,0,0.4c0,0,0,0.1,0.1,0.1c0,0,0.1,0,0.1,0c0,0,0,0.1,0,0.1c-0.2,0-0.3,0-0.5,0c0,0,0-0.1,0-0.1c0,0,0.1,0,0.1,0
		c0,0,0.1,0,0.1-0.1c0-0.1,0-0.3,0-0.4c0-0.1,0-0.3,0-0.4c0,0,0-0.1-0.1-0.1c0,0-0.1,0-0.1,0C127.6,240.8,127.6,240.8,127.6,240.8z"
		/>
	<path class="st3" d="M156,240.8c0.2,0,0.3,0,0.5,0c0,0,0,0.1,0,0.1c0,0-0.1,0-0.1,0c0,0-0.1,0-0.1,0.1c0,0.1,0,0.3,0,0.4
		c0,0.1,0,0.3,0,0.4c0,0,0,0.1,0.1,0.1c0,0,0.1,0,0.1,0c0,0,0,0.1,0,0.1c-0.2,0-0.3,0-0.5,0c0,0,0-0.1,0-0.1c0,0,0.1,0,0.1,0
		c0,0,0.1,0,0.1-0.1c0-0.1,0-0.3,0-0.4c0-0.1,0-0.3,0-0.4c0,0,0-0.1-0.1-0.1c0,0-0.1,0-0.1,0C156,240.8,156,240.8,156,240.8z"/>
	<path class="st3" d="M184.3,240.8c0.2,0,0.3,0,0.5,0c0,0,0,0.1,0,0.1c0,0-0.1,0-0.1,0c0,0-0.1,0-0.1,0.1c0,0.1,0,0.3,0,0.4
		c0,0.1,0,0.3,0,0.4c0,0,0,0.1,0.1,0.1c0,0,0.1,0,0.1,0c0,0,0,0.1,0,0.1c-0.2,0-0.3,0-0.5,0c0,0,0-0.1,0-0.1c0,0,0.1,0,0.1,0
		c0,0,0.1,0,0.1-0.1c0-0.1,0-0.3,0-0.4c0-0.1,0-0.3,0-0.4c0,0,0-0.1-0.1-0.1c0,0-0.1,0-0.1,0C184.3,240.8,184.3,240.8,184.3,240.8z"
		/>
	<path class="st3" d="M212.7,240.8c0.2,0,0.3,0,0.5,0c0,0,0,0.1,0,0.1c0,0-0.1,0-0.1,0c0,0-0.1,0-0.1,0.1c0,0.1,0,0.3,0,0.4
		c0,0.1,0,0.3,0,0.4c0,0,0,0.1,0.1,0.1c0,0,0.1,0,0.1,0c0,0,0,0.1,0,0.1c-0.2,0-0.3,0-0.5,0c0,0,0-0.1,0-0.1c0,0,0.1,0,0.1,0
		c0,0,0.1,0,0.1-0.1c0-0.1,0-0.3,0-0.4c0-0.1,0-0.3,0-0.4c0,0,0-0.1-0.1-0.1c0,0-0.1,0-0.1,0C212.7,240.8,212.7,240.8,212.7,240.8z"
		/>
	<path class="st3" d="M241,240.8c0.2,0,0.3,0,0.5,0c0,0,0,0.1,0,0.1c0,0-0.1,0-0.1,0c0,0-0.1,0-0.1,0.1c0,0.1,0,0.3,0,0.4
		c0,0.1,0,0.3,0,0.4c0,0,0,0.1,0.1,0.1c0,0,0.1,0,0.1,0c0,0,0,0.1,0,0.1c-0.2,0-0.3,0-0.5,0c0,0,0-0.1,0-0.1c0,0,0.1,0,0.1,0
		c0,0,0.1,0,0.1-0.1c0-0.1,0-0.3,0-0.4c0-0.1,0-0.3,0-0.4c0,0,0-0.1-0.1-0.1c0,0-0.1,0-0.1,0C241,240.8,241,240.8,241,240.8z"/>
	<path class="st3" d="M269.4,240.8c0.2,0,0.3,0,0.5,0c0,0,0,0.1,0,0.1c0,0-0.1,0-0.1,0c0,0-0.1,0-0.1,0.1c0,0.1,0,0.3,0,0.4
		c0,0.1,0,0.3,0,0.4c0,0,0,0.1,0.1,0.1c0,0,0.1,0,0.1,0c0,0,0,0.1,0,0.1c-0.2,0-0.3,0-0.5,0c0,0,0-0.1,0-0.1c0,0,0.1,0,0.1,0
		c0,0,0.1,0,0.1-0.1c0-0.1,0-0.3,0-0.4c0-0.1,0-0.3,0-0.4c0,0,0-0.1-0.1-0.1c0,0-0.1,0-0.1,0C269.4,240.8,269.4,240.8,269.4,240.8z"
		/>
	<path class="st3" d="M297.7,240.8c0.2,0,0.3,0,0.5,0c0,0,0,0.1,0,0.1c0,0-0.1,0-0.1,0c0,0-0.1,0-0.1,0.1c0,0.1,0,0.3,0,0.4
		c0,0.1,0,0.3,0,0.4c0,0,0,0.1,0.1,0.1c0,0,0.1,0,0.1,0c0,0,0,0.1,0,0.1c-0.2,0-0.3,0-0.5,0c0,0,0-0.1,0-0.1c0,0,0.1,0,0.1,0
		c0,0,0.1,0,0.1-0.1c0-0.1,0-0.3,0-0.4c0-0.1,0-0.3,0-0.4c0,0,0-0.1-0.1-0.1c0,0-0.1,0-0.1,0C297.7,240.8,297.7,240.8,297.7,240.8z"
		/>
	<path class="st3" d="M326.1,240.8c0.2,0,0.3,0,0.5,0c0,0,0,0.1,0,0.1c0,0-0.1,0-0.1,0c0,0-0.1,0-0.1,0.1c0,0.1,0,0.3,0,0.4
		c0,0.1,0,0.3,0,0.4c0,0,0,0.1,0.1,0.1c0,0,0.1,0,0.1,0c0,0,0,0.1,0,0.1c-0.2,0-0.3,0-0.5,0c0,0,0-0.1,0-0.1c0,0,0.1,0,0.1,0
		c0,0,0.1,0,0.1-0.1c0-0.1,0-0.3,0-0.4c0-0.1,0-0.3,0-0.4c0,0,0-0.1-0.1-0.1c0,0-0.1,0-0.1,0C326.1,240.8,326.1,240.8,326.1,240.8z"
		/>
	<path class="st3" d="M99.3,269.1c0.2,0,0.3,0,0.5,0c0,0,0,0.1,0,0.1c0,0-0.1,0-0.1,0c0,0-0.1,0-0.1,0.1c0,0.1,0,0.3,0,0.4
		c0,0.1,0,0.3,0,0.4c0,0,0,0.1,0.1,0.1c0,0,0.1,0,0.1,0c0,0,0,0.1,0,0.1c-0.2,0-0.3,0-0.5,0c0,0,0-0.1,0-0.1c0,0,0.1,0,0.1,0
		c0,0,0.1,0,0.1-0.1c0-0.1,0-0.3,0-0.4c0-0.1,0-0.3,0-0.4c0,0,0-0.1-0.1-0.1c0,0-0.1,0-0.1,0C99.3,269.2,99.3,269.1,99.3,269.1z"/>
	<path class="st3" d="M127.6,269.1c0.2,0,0.3,0,0.5,0c0,0,0,0.1,0,0.1c0,0-0.1,0-0.1,0c0,0-0.1,0-0.1,0.1c0,0.1,0,0.3,0,0.4
		c0,0.1,0,0.3,0,0.4c0,0,0,0.1,0.1,0.1c0,0,0.1,0,0.1,0c0,0,0,0.1,0,0.1c-0.2,0-0.3,0-0.5,0c0,0,0-0.1,0-0.1c0,0,0.1,0,0.1,0
		c0,0,0.1,0,0.1-0.1c0-0.1,0-0.3,0-0.4c0-0.1,0-0.3,0-0.4c0,0,0-0.1-0.1-0.1c0,0-0.1,0-0.1,0C127.6,269.2,127.6,269.1,127.6,269.1z"
		/>
	<path class="st3" d="M156,269.1c0.2,0,0.3,0,0.5,0c0,0,0,0.1,0,0.1c0,0-0.1,0-0.1,0c0,0-0.1,0-0.1,0.1c0,0.1,0,0.3,0,0.4
		c0,0.1,0,0.3,0,0.4c0,0,0,0.1,0.1,0.1c0,0,0.1,0,0.1,0c0,0,0,0.1,0,0.1c-0.2,0-0.3,0-0.5,0c0,0,0-0.1,0-0.1c0,0,0.1,0,0.1,0
		c0,0,0.1,0,0.1-0.1c0-0.1,0-0.3,0-0.4c0-0.1,0-0.3,0-0.4c0,0,0-0.1-0.1-0.1c0,0-0.1,0-0.1,0C156,269.2,156,269.1,156,269.1z"/>
	<path class="st3" d="M184.3,269.1c0.2,0,0.3,0,0.5,0c0,0,0,0.1,0,0.1c0,0-0.1,0-0.1,0c0,0-0.1,0-0.1,0.1c0,0.1,0,0.3,0,0.4
		c0,0.1,0,0.3,0,0.4c0,0,0,0.1,0.1,0.1c0,0,0.1,0,0.1,0c0,0,0,0.1,0,0.1c-0.2,0-0.3,0-0.5,0c0,0,0-0.1,0-0.1c0,0,0.1,0,0.1,0
		c0,0,0.1,0,0.1-0.1c0-0.1,0-0.3,0-0.4c0-0.1,0-0.3,0-0.4c0,0,0-0.1-0.1-0.1c0,0-0.1,0-0.1,0C184.3,269.2,184.3,269.1,184.3,269.1z"
		/>
	<path class="st3" d="M212.7,269.1c0.2,0,0.3,0,0.5,0c0,0,0,0.1,0,0.1c0,0-0.1,0-0.1,0c0,0-0.1,0-0.1,0.1c0,0.1,0,0.3,0,0.4
		c0,0.1,0,0.3,0,0.4c0,0,0,0.1,0.1,0.1c0,0,0.1,0,0.1,0c0,0,0,0.1,0,0.1c-0.2,0-0.3,0-0.5,0c0,0,0-0.1,0-0.1c0,0,0.1,0,0.1,0
		c0,0,0.1,0,0.1-0.1c0-0.1,0-0.3,0-0.4c0-0.1,0-0.3,0-0.4c0,0,0-0.1-0.1-0.1c0,0-0.1,0-0.1,0C212.7,269.2,212.7,269.1,212.7,269.1z"
		/>
	<path class="st3" d="M241,269.1c0.2,0,0.3,0,0.5,0c0,0,0,0.1,0,0.1c0,0-0.1,0-0.1,0c0,0-0.1,0-0.1,0.1c0,0.1,0,0.3,0,0.4
		c0,0.1,0,0.3,0,0.4c0,0,0,0.1,0.1,0.1c0,0,0.1,0,0.1,0c0,0,0,0.1,0,0.1c-0.2,0-0.3,0-0.5,0c0,0,0-0.1,0-0.1c0,0,0.1,0,0.1,0
		c0,0,0.1,0,0.1-0.1c0-0.1,0-0.3,0-0.4c0-0.1,0-0.3,0-0.4c0,0,0-0.1-0.1-0.1c0,0-0.1,0-0.1,0C241,269.2,241,269.1,241,269.1z"/>
	<path class="st3" d="M269.4,269.1c0.2,0,0.3,0,0.5,0c0,0,0,0.1,0,0.1c0,0-0.1,0-0.1,0c0,0-0.1,0-0.1,0.1c0,0.1,0,0.3,0,0.4
		c0,0.1,0,0.3,0,0.4c0,0,0,0.1,0.1,0.1c0,0,0.1,0,0.1,0c0,0,0,0.1,0,0.1c-0.2,0-0.3,0-0.5,0c0,0,0-0.1,0-0.1c0,0,0.1,0,0.1,0
		c0,0,0.1,0,0.1-0.1c0-0.1,0-0.3,0-0.4c0-0.1,0-0.3,0-0.4c0,0,0-0.1-0.1-0.1c0,0-0.1,0-0.1,0C269.4,269.2,269.4,269.1,269.4,269.1z"
		/>
	<path class="st3" d="M297.7,269.1c0.2,0,0.3,0,0.5,0c0,0,0,0.1,0,0.1c0,0-0.1,0-0.1,0c0,0-0.1,0-0.1,0.1c0,0.1,0,0.3,0,0.4
		c0,0.1,0,0.3,0,0.4c0,0,0,0.1,0.1,0.1c0,0,0.1,0,0.1,0c0,0,0,0.1,0,0.1c-0.2,0-0.3,0-0.5,0c0,0,0-0.1,0-0.1c0,0,0.1,0,0.1,0
		c0,0,0.1,0,0.1-0.1c0-0.1,0-0.3,0-0.4c0-0.1,0-0.3,0-0.4c0,0,0-0.1-0.1-0.1c0,0-0.1,0-0.1,0C297.7,269.2,297.7,269.1,297.7,269.1z"
		/>
	<path class="st3" d="M326.1,269.1c0.2,0,0.3,0,0.5,0c0,0,0,0.1,0,0.1c0,0-0.1,0-0.1,0c0,0-0.1,0-0.1,0.1c0,0.1,0,0.3,0,0.4
		c0,0.1,0,0.3,0,0.4c0,0,0,0.1,0.1,0.1c0,0,0.1,0,0.1,0c0,0,0,0.1,0,0.1c-0.2,0-0.3,0-0.5,0c0,0,0-0.1,0-0.1c0,0,0.1,0,0.1,0
		c0,0,0.1,0,0.1-0.1c0-0.1,0-0.3,0-0.4c0-0.1,0-0.3,0-0.4c0,0,0-0.1-0.1-0.1c0,0-0.1,0-0.1,0C326.1,269.2,326.1,269.1,326.1,269.1z"
		/>
	<path class="st3" d="M99.3,297.4c0.2,0,0.3,0,0.5,0c0,0,0,0.1,0,0.1c0,0-0.1,0-0.1,0c0,0-0.1,0-0.1,0.1c0,0.1,0,0.3,0,0.4
		s0,0.3,0,0.4c0,0,0,0.1,0.1,0.1c0,0,0.1,0,0.1,0c0,0,0,0.1,0,0.1c-0.2,0-0.3,0-0.5,0c0,0,0-0.1,0-0.1c0,0,0.1,0,0.1,0
		c0,0,0.1,0,0.1-0.1c0-0.1,0-0.3,0-0.4s0-0.3,0-0.4c0,0,0-0.1-0.1-0.1c0,0-0.1,0-0.1,0C99.3,297.5,99.3,297.5,99.3,297.4z"/>
	<path class="st3" d="M127.6,297.4c0.2,0,0.3,0,0.5,0c0,0,0,0.1,0,0.1c0,0-0.1,0-0.1,0c0,0-0.1,0-0.1,0.1c0,0.1,0,0.3,0,0.4
		s0,0.3,0,0.4c0,0,0,0.1,0.1,0.1c0,0,0.1,0,0.1,0c0,0,0,0.1,0,0.1c-0.2,0-0.3,0-0.5,0c0,0,0-0.1,0-0.1c0,0,0.1,0,0.1,0
		c0,0,0.1,0,0.1-0.1c0-0.1,0-0.3,0-0.4s0-0.3,0-0.4c0,0,0-0.1-0.1-0.1c0,0-0.1,0-0.1,0C127.6,297.5,127.6,297.5,127.6,297.4z"/>
	<path class="st3" d="M156,297.4c0.2,0,0.3,0,0.5,0c0,0,0,0.1,0,0.1c0,0-0.1,0-0.1,0c0,0-0.1,0-0.1,0.1c0,0.1,0,0.3,0,0.4
		s0,0.3,0,0.4c0,0,0,0.1,0.1,0.1c0,0,0.1,0,0.1,0c0,0,0,0.1,0,0.1c-0.2,0-0.3,0-0.5,0c0,0,0-0.1,0-0.1c0,0,0.1,0,0.1,0
		c0,0,0.1,0,0.1-0.1c0-0.1,0-0.3,0-0.4s0-0.3,0-0.4c0,0,0-0.1-0.1-0.1c0,0-0.1,0-0.1,0C156,297.5,156,297.5,156,297.4z"/>
	<path class="st3" d="M184.3,297.4c0.2,0,0.3,0,0.5,0c0,0,0,0.1,0,0.1c0,0-0.1,0-0.1,0c0,0-0.1,0-0.1,0.1c0,0.1,0,0.3,0,0.4
		s0,0.3,0,0.4c0,0,0,0.1,0.1,0.1c0,0,0.1,0,0.1,0c0,0,0,0.1,0,0.1c-0.2,0-0.3,0-0.5,0c0,0,0-0.1,0-0.1c0,0,0.1,0,0.1,0
		c0,0,0.1,0,0.1-0.1c0-0.1,0-0.3,0-0.4s0-0.3,0-0.4c0,0,0-0.1-0.1-0.1c0,0-0.1,0-0.1,0C184.3,297.5,184.3,297.5,184.3,297.4z"/>
	<path class="st3" d="M212.7,297.4c0.2,0,0.3,0,0.5,0c0,0,0,0.1,0,0.1c0,0-0.1,0-0.1,0c0,0-0.1,0-0.1,0.1c0,0.1,0,0.3,0,0.4
		s0,0.3,0,0.4c0,0,0,0.1,0.1,0.1c0,0,0.1,0,0.1,0c0,0,0,0.1,0,0.1c-0.2,0-0.3,0-0.5,0c0,0,0-0.1,0-0.1c0,0,0.1,0,0.1,0
		c0,0,0.1,0,0.1-0.1c0-0.1,0-0.3,0-0.4s0-0.3,0-0.4c0,0,0-0.1-0.1-0.1c0,0-0.1,0-0.1,0C212.7,297.5,212.7,297.5,212.7,297.4z"/>
	<path class="st3" d="M241,297.4c0.2,0,0.3,0,0.5,0c0,0,0,0.1,0,0.1c0,0-0.1,0-0.1,0c0,0-0.1,0-0.1,0.1c0,0.1,0,0.3,0,0.4
		s0,0.3,0,0.4c0,0,0,0.1,0.1,0.1c0,0,0.1,0,0.1,0c0,0,0,0.1,0,0.1c-0.2,0-0.3,0-0.5,0c0,0,0-0.1,0-0.1c0,0,0.1,0,0.1,0
		c0,0,0.1,0,0.1-0.1c0-0.1,0-0.3,0-0.4s0-0.3,0-0.4c0,0,0-0.1-0.1-0.1c0,0-0.1,0-0.1,0C241,297.5,241,297.5,241,297.4z"/>
	<path class="st3" d="M269.4,297.4c0.2,0,0.3,0,0.5,0c0,0,0,0.1,0,0.1c0,0-0.1,0-0.1,0c0,0-0.1,0-0.1,0.1c0,0.1,0,0.3,0,0.4
		s0,0.3,0,0.4c0,0,0,0.1,0.1,0.1c0,0,0.1,0,0.1,0c0,0,0,0.1,0,0.1c-0.2,0-0.3,0-0.5,0c0,0,0-0.1,0-0.1c0,0,0.1,0,0.1,0
		c0,0,0.1,0,0.1-0.1c0-0.1,0-0.3,0-0.4s0-0.3,0-0.4c0,0,0-0.1-0.1-0.1c0,0-0.1,0-0.1,0C269.4,297.5,269.4,297.5,269.4,297.4z"/>
	<path class="st3" d="M297.7,297.4c0.2,0,0.3,0,0.5,0c0,0,0,0.1,0,0.1c0,0-0.1,0-0.1,0c0,0-0.1,0-0.1,0.1c0,0.1,0,0.3,0,0.4
		s0,0.3,0,0.4c0,0,0,0.1,0.1,0.1c0,0,0.1,0,0.1,0c0,0,0,0.1,0,0.1c-0.2,0-0.3,0-0.5,0c0,0,0-0.1,0-0.1c0,0,0.1,0,0.1,0
		c0,0,0.1,0,0.1-0.1c0-0.1,0-0.3,0-0.4s0-0.3,0-0.4c0,0,0-0.1-0.1-0.1c0,0-0.1,0-0.1,0C297.7,297.5,297.7,297.5,297.7,297.4z"/>
	<path class="st3" d="M326.1,297.4c0.2,0,0.3,0,0.5,0c0,0,0,0.1,0,0.1c0,0-0.1,0-0.1,0c0,0-0.1,0-0.1,0.1c0,0.1,0,0.3,0,0.4
		s0,0.3,0,0.4c0,0,0,0.1,0.1,0.1c0,0,0.1,0,0.1,0c0,0,0,0.1,0,0.1c-0.2,0-0.3,0-0.5,0c0,0,0-0.1,0-0.1c0,0,0.1,0,0.1,0
		c0,0,0.1,0,0.1-0.1c0-0.1,0-0.3,0-0.4s0-0.3,0-0.4c0,0,0-0.1-0.1-0.1c0,0-0.1,0-0.1,0C326.1,297.5,326.1,297.5,326.1,297.4z"/>
	<path class="st3" d="M99.3,325.8c0.2,0,0.3,0,0.5,0c0,0,0,0.1,0,0.1c0,0-0.1,0-0.1,0c0,0-0.1,0-0.1,0.1c0,0.1,0,0.3,0,0.4
		c0,0.1,0,0.3,0,0.4c0,0,0,0.1,0.1,0.1c0,0,0.1,0,0.1,0c0,0,0,0.1,0,0.1c-0.2,0-0.3,0-0.5,0c0,0,0-0.1,0-0.1c0,0,0.1,0,0.1,0
		c0,0,0.1,0,0.1-0.1c0-0.1,0-0.3,0-0.4c0-0.1,0-0.3,0-0.4c0,0,0-0.1-0.1-0.1c0,0-0.1,0-0.1,0C99.3,325.9,99.3,325.8,99.3,325.8z"/>
	<path class="st3" d="M127.6,325.8c0.2,0,0.3,0,0.5,0c0,0,0,0.1,0,0.1c0,0-0.1,0-0.1,0c0,0-0.1,0-0.1,0.1c0,0.1,0,0.3,0,0.4
		c0,0.1,0,0.3,0,0.4c0,0,0,0.1,0.1,0.1c0,0,0.1,0,0.1,0c0,0,0,0.1,0,0.1c-0.2,0-0.3,0-0.5,0c0,0,0-0.1,0-0.1c0,0,0.1,0,0.1,0
		c0,0,0.1,0,0.1-0.1c0-0.1,0-0.3,0-0.4c0-0.1,0-0.3,0-0.4c0,0,0-0.1-0.1-0.1c0,0-0.1,0-0.1,0C127.6,325.9,127.6,325.8,127.6,325.8z"
		/>
	<path class="st3" d="M156,325.8c0.2,0,0.3,0,0.5,0c0,0,0,0.1,0,0.1c0,0-0.1,0-0.1,0c0,0-0.1,0-0.1,0.1c0,0.1,0,0.3,0,0.4
		c0,0.1,0,0.3,0,0.4c0,0,0,0.1,0.1,0.1c0,0,0.1,0,0.1,0c0,0,0,0.1,0,0.1c-0.2,0-0.3,0-0.5,0c0,0,0-0.1,0-0.1c0,0,0.1,0,0.1,0
		c0,0,0.1,0,0.1-0.1c0-0.1,0-0.3,0-0.4c0-0.1,0-0.3,0-0.4c0,0,0-0.1-0.1-0.1c0,0-0.1,0-0.1,0C156,325.9,156,325.8,156,325.8z"/>
	<path class="st3" d="M184.3,325.8c0.2,0,0.3,0,0.5,0c0,0,0,0.1,0,0.1c0,0-0.1,0-0.1,0c0,0-0.1,0-0.1,0.1c0,0.1,0,0.3,0,0.4
		c0,0.1,0,0.3,0,0.4c0,0,0,0.1,0.1,0.1c0,0,0.1,0,0.1,0c0,0,0,0.1,0,0.1c-0.2,0-0.3,0-0.5,0c0,0,0-0.1,0-0.1c0,0,0.1,0,0.1,0
		c0,0,0.1,0,0.1-0.1c0-0.1,0-0.3,0-0.4c0-0.1,0-0.3,0-0.4c0,0,0-0.1-0.1-0.1c0,0-0.1,0-0.1,0C184.3,325.9,184.3,325.8,184.3,325.8z"
		/>
	<path class="st3" d="M212.7,325.8c0.2,0,0.3,0,0.5,0c0,0,0,0.1,0,0.1c0,0-0.1,0-0.1,0c0,0-0.1,0-0.1,0.1c0,0.1,0,0.3,0,0.4
		c0,0.1,0,0.3,0,0.4c0,0,0,0.1,0.1,0.1c0,0,0.1,0,0.1,0c0,0,0,0.1,0,0.1c-0.2,0-0.3,0-0.5,0c0,0,0-0.1,0-0.1c0,0,0.1,0,0.1,0
		c0,0,0.1,0,0.1-0.1c0-0.1,0-0.3,0-0.4c0-0.1,0-0.3,0-0.4c0,0,0-0.1-0.1-0.1c0,0-0.1,0-0.1,0C212.7,325.9,212.7,325.8,212.7,325.8z"
		/>
	<path class="st3" d="M241,325.8c0.2,0,0.3,0,0.5,0c0,0,0,0.1,0,0.1c0,0-0.1,0-0.1,0c0,0-0.1,0-0.1,0.1c0,0.1,0,0.3,0,0.4
		c0,0.1,0,0.3,0,0.4c0,0,0,0.1,0.1,0.1c0,0,0.1,0,0.1,0c0,0,0,0.1,0,0.1c-0.2,0-0.3,0-0.5,0c0,0,0-0.1,0-0.1c0,0,0.1,0,0.1,0
		c0,0,0.1,0,0.1-0.1c0-0.1,0-0.3,0-0.4c0-0.1,0-0.3,0-0.4c0,0,0-0.1-0.1-0.1c0,0-0.1,0-0.1,0C241,325.9,241,325.8,241,325.8z"/>
	<path class="st3" d="M269.4,325.8c0.2,0,0.3,0,0.5,0c0,0,0,0.1,0,0.1c0,0-0.1,0-0.1,0c0,0-0.1,0-0.1,0.1c0,0.1,0,0.3,0,0.4
		c0,0.1,0,0.3,0,0.4c0,0,0,0.1,0.1,0.1c0,0,0.1,0,0.1,0c0,0,0,0.1,0,0.1c-0.2,0-0.3,0-0.5,0c0,0,0-0.1,0-0.1c0,0,0.1,0,0.1,0
		c0,0,0.1,0,0.1-0.1c0-0.1,0-0.3,0-0.4c0-0.1,0-0.3,0-0.4c0,0,0-0.1-0.1-0.1c0,0-0.1,0-0.1,0C269.4,325.9,269.4,325.8,269.4,325.8z"
		/>
	<path class="st3" d="M297.7,325.8c0.2,0,0.3,0,0.5,0c0,0,0,0.1,0,0.1c0,0-0.1,0-0.1,0c0,0-0.1,0-0.1,0.1c0,0.1,0,0.3,0,0.4
		c0,0.1,0,0.3,0,0.4c0,0,0,0.1,0.1,0.1c0,0,0.1,0,0.1,0c0,0,0,0.1,0,0.1c-0.2,0-0.3,0-0.5,0c0,0,0-0.1,0-0.1c0,0,0.1,0,0.1,0
		c0,0,0.1,0,0.1-0.1c0-0.1,0-0.3,0-0.4c0-0.1,0-0.3,0-0.4c0,0,0-0.1-0.1-0.1c0,0-0.1,0-0.1,0C297.7,325.9,297.7,325.8,297.7,325.8z"
		/>
	<path class="st3" d="M326.1,325.8c0.2,0,0.3,0,0.5,0c0,0,0,0.1,0,0.1c0,0-0.1,0-0.1,0c0,0-0.1,0-0.1,0.1c0,0.1,0,0.3,0,0.4
		c0,0.1,0,0.3,0,0.4c0,0,0,0.1,0.1,0.1c0,0,0.1,0,0.1,0c0,0,0,0.1,0,0.1c-0.2,0-0.3,0-0.5,0c0,0,0-0.1,0-0.1c0,0,0.1,0,0.1,0
		c0,0,0.1,0,0.1-0.1c0-0.1,0-0.3,0-0.4c0-0.1,0-0.3,0-0.4c0,0,0-0.1-0.1-0.1c0,0-0.1,0-0.1,0C326.1,325.9,326.1,325.8,326.1,325.8z"
		/>
	<path class="st3" d="M354.4,354.1c0,0,0,0.1,0,0.1c0,0,0.1,0,0.1,0c0,0,0.1,0,0.1,0.1c0,0.1,0,0.2,0,0.4c-0.1,0-0.2,0-0.4,0
		c0,0-0.1,0-0.1-0.1c0,0,0-0.1,0-0.1c0,0-0.1,0-0.1,0c0,0.2,0,0.3,0,0.5c0,0,0.1,0,0.1,0c0,0,0-0.1,0-0.1c0,0,0-0.1,0.1-0.1
		c0.1,0,0.2,0,0.4,0c0,0.1,0,0.2,0,0.4c0,0,0,0.1-0.1,0.1c0,0-0.1,0-0.1,0c0,0,0,0.1,0,0.1c0.2,0,0.3,0,0.5,0c0,0,0-0.1,0-0.1
		c0,0-0.1,0-0.1,0c0,0-0.1,0-0.1-0.1c0-0.1,0-0.2,0-0.4c0.1,0,0.2,0,0.4,0c0,0,0.1,0,0.1,0.1c0,0,0,0.1,0,0.1c0,0,0.1,0,0.1,0
		c0-0.2,0-0.3,0-0.5c0,0-0.1,0-0.1,0c0,0,0,0.1,0,0.1c0,0,0,0.1-0.1,0.1c-0.1,0-0.2,0-0.4,0c0-0.1,0-0.2,0-0.4c0,0,0-0.1,0.1-0.1
		c0,0,0.1,0,0.1,0c0,0,0-0.1,0-0.1C354.8,354.1,354.6,354.1,354.4,354.1z"/>
	<path class="st3" d="M43.1,354.1c0,0,0,0.1,0,0.1c0,0-0.1,0-0.1,0c0,0-0.1,0-0.1,0.1c0,0.1,0,0.2,0,0.4c0.1,0,0.2,0,0.4,0
		c0,0,0.1,0,0.1-0.1c0,0,0-0.1,0-0.1c0,0,0.1,0,0.1,0c0,0.2,0,0.3,0,0.5c0,0-0.1,0-0.1,0c0,0,0-0.1,0-0.1c0,0,0-0.1-0.1-0.1
		c-0.1,0-0.2,0-0.4,0c0,0.1,0,0.2,0,0.4c0,0,0,0.1,0.1,0.1c0,0,0.1,0,0.1,0c0,0,0,0.1,0,0.1c-0.2,0-0.3,0-0.5,0c0,0,0-0.1,0-0.1
		c0,0,0.1,0,0.1,0c0,0,0.1,0,0.1-0.1c0-0.1,0-0.2,0-0.4c-0.1,0-0.2,0-0.4,0c0,0-0.1,0-0.1,0.1c0,0,0,0.1,0,0.1c0,0-0.1,0-0.1,0
		c0-0.2,0-0.3,0-0.5c0,0,0.1,0,0.1,0c0,0,0,0.1,0,0.1c0,0,0,0.1,0.1,0.1c0.1,0,0.2,0,0.4,0c0-0.1,0-0.2,0-0.4c0,0,0-0.1-0.1-0.1
		c0,0-0.1,0-0.1,0c0,0,0-0.1,0-0.1C42.8,354.1,42.9,354.1,43.1,354.1z"/>
	<path class="st3" d="M354.1,43.1c0,0,0.1,0,0.1,0c0,0,0-0.1,0-0.1c0,0,0-0.1,0.1-0.1c0.1,0,0.2,0,0.4,0c0,0.1,0,0.2,0,0.4
		c0,0,0,0.1-0.1,0.1c0,0-0.1,0-0.1,0c0,0,0,0.1,0,0.1c0.2,0,0.3,0,0.5,0c0,0,0-0.1,0-0.1c0,0-0.1,0-0.1,0c0,0-0.1,0-0.1-0.1
		c0-0.1,0-0.2,0-0.4c0.1,0,0.2,0,0.4,0c0,0,0.1,0,0.1,0.1c0,0,0,0.1,0,0.1c0,0,0.1,0,0.1,0c0-0.2,0-0.3,0-0.5c0,0-0.1,0-0.1,0
		c0,0,0,0.1,0,0.1c0,0,0,0.1-0.1,0.1c-0.1,0-0.2,0-0.4,0c0-0.1,0-0.2,0-0.4c0,0,0-0.1,0.1-0.1c0,0,0.1,0,0.1,0c0,0,0-0.1,0-0.1
		c-0.2,0-0.3,0-0.5,0c0,0,0,0.1,0,0.1c0,0,0.1,0,0.1,0c0,0,0.1,0,0.1,0.1c0,0.1,0,0.2,0,0.4c-0.1,0-0.2,0-0.4,0c0,0-0.1,0-0.1-0.1
		c0,0,0-0.1,0-0.1c0,0-0.1,0-0.1,0C354.1,42.8,354.1,43,354.1,43.1z"/>
	<path class="st3" d="M43.4,43.1c0,0-0.1,0-0.1,0c0,0,0-0.1,0-0.1c0,0,0-0.1-0.1-0.1c-0.1,0-0.2,0-0.4,0c0,0.1,0,0.2,0,0.4
		c0,0,0,0.1,0.1,0.1c0,0,0.1,0,0.1,0c0,0,0,0.1,0,0.1c-0.2,0-0.3,0-0.5,0c0,0,0-0.1,0-0.1c0,0,0.1,0,0.1,0c0,0,0.1,0,0.1-0.1
		c0-0.1,0-0.2,0-0.4c-0.1,0-0.2,0-0.4,0c0,0-0.1,0-0.1,0.1c0,0,0,0.1,0,0.1c0,0-0.1,0-0.1,0c0-0.2,0-0.3,0-0.5c0,0,0.1,0,0.1,0
		c0,0,0,0.1,0,0.1c0,0,0,0.1,0.1,0.1c0.1,0,0.2,0,0.4,0c0-0.1,0-0.2,0-0.4c0,0,0-0.1-0.1-0.1c0,0-0.1,0-0.1,0c0,0,0-0.1,0-0.1
		c0.2,0,0.3,0,0.5,0c0,0,0,0.1,0,0.1c0,0-0.1,0-0.1,0c0,0-0.1,0-0.1,0.1c0,0.1,0,0.2,0,0.4c0.1,0,0.2,0,0.4,0c0,0,0.1,0,0.1-0.1
		c0,0,0-0.1,0-0.1c0,0,0.1,0,0.1,0C43.4,42.8,43.4,43,43.4,43.1z"/>
	<path class="st3" d="M71,42.4c0.2,0,0.3,0,0.5,0c0,0,0,0.1,0,0.1c0,0-0.1,0-0.1,0c0,0-0.1,0-0.1,0.1c0,0.1,0,0.3,0,0.4
		c0,0.1,0,0.3,0,0.4c0,0,0,0.1,0.1,0.1c0,0,0.1,0,0.1,0c0,0,0,0.1,0,0.1c-0.2,0-0.3,0-0.5,0c0,0,0-0.1,0-0.1c0,0,0.1,0,0.1,0
		c0,0,0.1,0,0.1-0.1c0-0.1,0-0.3,0-0.4c0-0.1,0-0.3,0-0.4c0,0,0-0.1-0.1-0.1c0,0-0.1,0-0.1,0C71,42.4,71,42.4,71,42.4z"/>
	<path class="st3" d="M99.3,42.4c0.2,0,0.3,0,0.5,0c0,0,0,0.1,0,0.1c0,0-0.1,0-0.1,0c0,0-0.1,0-0.1,0.1c0,0.1,0,0.3,0,0.4
		c0,0.1,0,0.3,0,0.4c0,0,0,0.1,0.1,0.1c0,0,0.1,0,0.1,0c0,0,0,0.1,0,0.1c-0.2,0-0.3,0-0.5,0c0,0,0-0.1,0-0.1c0,0,0.1,0,0.1,0
		c0,0,0.1,0,0.1-0.1c0-0.1,0-0.3,0-0.4c0-0.1,0-0.3,0-0.4c0,0,0-0.1-0.1-0.1c0,0-0.1,0-0.1,0C99.3,42.4,99.3,42.4,99.3,42.4z"/>
	<path class="st3" d="M127.6,42.4c0.2,0,0.3,0,0.5,0c0,0,0,0.1,0,0.1c0,0-0.1,0-0.1,0c0,0-0.1,0-0.1,0.1c0,0.1,0,0.3,0,0.4
		c0,0.1,0,0.3,0,0.4c0,0,0,0.1,0.1,0.1c0,0,0.1,0,0.1,0c0,0,0,0.1,0,0.1c-0.2,0-0.3,0-0.5,0c0,0,0-0.1,0-0.1c0,0,0.1,0,0.1,0
		c0,0,0.1,0,0.1-0.1c0-0.1,0-0.3,0-0.4c0-0.1,0-0.3,0-0.4c0,0,0-0.1-0.1-0.1c0,0-0.1,0-0.1,0C127.6,42.4,127.6,42.4,127.6,42.4z"/>
	<path class="st3" d="M156,42.4c0.2,0,0.3,0,0.5,0c0,0,0,0.1,0,0.1c0,0-0.1,0-0.1,0c0,0-0.1,0-0.1,0.1c0,0.1,0,0.3,0,0.4
		c0,0.1,0,0.3,0,0.4c0,0,0,0.1,0.1,0.1c0,0,0.1,0,0.1,0c0,0,0,0.1,0,0.1c-0.2,0-0.3,0-0.5,0c0,0,0-0.1,0-0.1c0,0,0.1,0,0.1,0
		c0,0,0.1,0,0.1-0.1c0-0.1,0-0.3,0-0.4c0-0.1,0-0.3,0-0.4c0,0,0-0.1-0.1-0.1c0,0-0.1,0-0.1,0C156,42.4,156,42.4,156,42.4z"/>
	<path class="st3" d="M241,42.4c0.2,0,0.3,0,0.5,0c0,0,0,0.1,0,0.1c0,0-0.1,0-0.1,0c0,0-0.1,0-0.1,0.1c0,0.1,0,0.3,0,0.4
		c0,0.1,0,0.3,0,0.4c0,0,0,0.1,0.1,0.1c0,0,0.1,0,0.1,0c0,0,0,0.1,0,0.1c-0.2,0-0.3,0-0.5,0c0,0,0-0.1,0-0.1c0,0,0.1,0,0.1,0
		c0,0,0.1,0,0.1-0.1c0-0.1,0-0.3,0-0.4c0-0.1,0-0.3,0-0.4c0,0,0-0.1-0.1-0.1c0,0-0.1,0-0.1,0C241,42.4,241,42.4,241,42.4z"/>
	<path class="st3" d="M269.4,42.4c0.2,0,0.3,0,0.5,0c0,0,0,0.1,0,0.1c0,0-0.1,0-0.1,0c0,0-0.1,0-0.1,0.1c0,0.1,0,0.3,0,0.4
		c0,0.1,0,0.3,0,0.4c0,0,0,0.1,0.1,0.1c0,0,0.1,0,0.1,0c0,0,0,0.1,0,0.1c-0.2,0-0.3,0-0.5,0c0,0,0-0.1,0-0.1c0,0,0.1,0,0.1,0
		c0,0,0.1,0,0.1-0.1c0-0.1,0-0.3,0-0.4c0-0.1,0-0.3,0-0.4c0,0,0-0.1-0.1-0.1c0,0-0.1,0-0.1,0C269.4,42.4,269.4,42.4,269.4,42.4z"/>
	<path class="st3" d="M297.7,42.4c0.2,0,0.3,0,0.5,0c0,0,0,0.1,0,0.1c0,0-0.1,0-0.1,0c0,0-0.1,0-0.1,0.1c0,0.1,0,0.3,0,0.4
		c0,0.1,0,0.3,0,0.4c0,0,0,0.1,0.1,0.1c0,0,0.1,0,0.1,0c0,0,0,0.1,0,0.1c-0.2,0-0.3,0-0.5,0c0,0,0-0.1,0-0.1c0,0,0.1,0,0.1,0
		c0,0,0.1,0,0.1-0.1c0-0.1,0-0.3,0-0.4c0-0.1,0-0.3,0-0.4c0,0,0-0.1-0.1-0.1c0,0-0.1,0-0.1,0C297.7,42.4,297.7,42.4,297.7,42.4z"/>
	<path class="st3" d="M326.1,42.4c0.2,0,0.3,0,0.5,0c0,0,0,0.1,0,0.1c0,0-0.1,0-0.1,0c0,0-0.1,0-0.1,0.1c0,0.1,0,0.3,0,0.4
		c0,0.1,0,0.3,0,0.4c0,0,0,0.1,0.1,0.1c0,0,0.1,0,0.1,0c0,0,0,0.1,0,0.1c-0.2,0-0.3,0-0.5,0c0,0,0-0.1,0-0.1c0,0,0.1,0,0.1,0
		c0,0,0.1,0,0.1-0.1c0-0.1,0-0.3,0-0.4c0-0.1,0-0.3,0-0.4c0,0,0-0.1-0.1-0.1c0,0-0.1,0-0.1,0C326.1,42.4,326.1,42.4,326.1,42.4z"/>
	<path class="st3" d="M326.1,355.2c0.2,0,0.3,0,0.5,0c0,0,0-0.1,0-0.1c0,0-0.1,0-0.1,0c0,0-0.1,0-0.1-0.1c0-0.1,0-0.3,0-0.4
		c0-0.1,0-0.3,0-0.4c0,0,0-0.1,0.1-0.1c0,0,0.1,0,0.1,0c0,0,0-0.1,0-0.1c-0.2,0-0.3,0-0.5,0c0,0,0,0.1,0,0.1c0,0,0.1,0,0.1,0
		c0,0,0.1,0,0.1,0.1c0,0.1,0,0.3,0,0.4c0,0.1,0,0.3,0,0.4c0,0,0,0.1-0.1,0.1c0,0-0.1,0-0.1,0C326.1,355.2,326.1,355.2,326.1,355.2z"
		/>
	<path class="st3" d="M297.7,355.2c0.2,0,0.3,0,0.5,0c0,0,0-0.1,0-0.1c0,0-0.1,0-0.1,0c0,0-0.1,0-0.1-0.1c0-0.1,0-0.3,0-0.4
		c0-0.1,0-0.3,0-0.4c0,0,0-0.1,0.1-0.1c0,0,0.1,0,0.1,0c0,0,0-0.1,0-0.1c-0.2,0-0.3,0-0.5,0c0,0,0,0.1,0,0.1c0,0,0.1,0,0.1,0
		c0,0,0.1,0,0.1,0.1c0,0.1,0,0.3,0,0.4c0,0.1,0,0.3,0,0.4c0,0,0,0.1-0.1,0.1c0,0-0.1,0-0.1,0C297.7,355.2,297.7,355.2,297.7,355.2z"
		/>
	<path class="st3" d="M269.4,355.2c0.2,0,0.3,0,0.5,0c0,0,0-0.1,0-0.1c0,0-0.1,0-0.1,0c0,0-0.1,0-0.1-0.1c0-0.1,0-0.3,0-0.4
		c0-0.1,0-0.3,0-0.4c0,0,0-0.1,0.1-0.1c0,0,0.1,0,0.1,0c0,0,0-0.1,0-0.1c-0.2,0-0.3,0-0.5,0c0,0,0,0.1,0,0.1c0,0,0.1,0,0.1,0
		c0,0,0.1,0,0.1,0.1c0,0.1,0,0.3,0,0.4c0,0.1,0,0.3,0,0.4c0,0,0,0.1-0.1,0.1c0,0-0.1,0-0.1,0C269.4,355.2,269.4,355.2,269.4,355.2z"
		/>
	<path class="st3" d="M241,355.2c0.2,0,0.3,0,0.5,0c0,0,0-0.1,0-0.1c0,0-0.1,0-0.1,0c0,0-0.1,0-0.1-0.1c0-0.1,0-0.3,0-0.4
		c0-0.1,0-0.3,0-0.4c0,0,0-0.1,0.1-0.1c0,0,0.1,0,0.1,0c0,0,0-0.1,0-0.1c-0.2,0-0.3,0-0.5,0c0,0,0,0.1,0,0.1c0,0,0.1,0,0.1,0
		c0,0,0.1,0,0.1,0.1c0,0.1,0,0.3,0,0.4c0,0.1,0,0.3,0,0.4c0,0,0,0.1-0.1,0.1c0,0-0.1,0-0.1,0C241,355.2,241,355.2,241,355.2z"/>
	<path class="st3" d="M156,355.2c0.2,0,0.3,0,0.5,0c0,0,0-0.1,0-0.1c0,0-0.1,0-0.1,0c0,0-0.1,0-0.1-0.1c0-0.1,0-0.3,0-0.4
		c0-0.1,0-0.3,0-0.4c0,0,0-0.1,0.1-0.1c0,0,0.1,0,0.1,0c0,0,0-0.1,0-0.1c-0.2,0-0.3,0-0.5,0c0,0,0,0.1,0,0.1c0,0,0.1,0,0.1,0
		c0,0,0.1,0,0.1,0.1c0,0.1,0,0.3,0,0.4c0,0.1,0,0.3,0,0.4c0,0,0,0.1-0.1,0.1c0,0-0.1,0-0.1,0C156,355.2,156,355.2,156,355.2z"/>
	<path class="st3" d="M127.6,355.2c0.2,0,0.3,0,0.5,0c0,0,0-0.1,0-0.1c0,0-0.1,0-0.1,0c0,0-0.1,0-0.1-0.1c0-0.1,0-0.3,0-0.4
		c0-0.1,0-0.3,0-0.4c0,0,0-0.1,0.1-0.1c0,0,0.1,0,0.1,0c0,0,0-0.1,0-0.1c-0.2,0-0.3,0-0.5,0c0,0,0,0.1,0,0.1c0,0,0.1,0,0.1,0
		c0,0,0.1,0,0.1,0.1c0,0.1,0,0.3,0,0.4c0,0.1,0,0.3,0,0.4c0,0,0,0.1-0.1,0.1c0,0-0.1,0-0.1,0C127.6,355.2,127.6,355.2,127.6,355.2z"
		/>
	<path class="st3" d="M99.3,355.2c0.2,0,0.3,0,0.5,0c0,0,0-0.1,0-0.1c0,0-0.1,0-0.1,0c0,0-0.1,0-0.1-0.1c0-0.1,0-0.3,0-0.4
		c0-0.1,0-0.3,0-0.4c0,0,0-0.1,0.1-0.1c0,0,0.1,0,0.1,0c0,0,0-0.1,0-0.1c-0.2,0-0.3,0-0.5,0c0,0,0,0.1,0,0.1c0,0,0.1,0,0.1,0
		c0,0,0.1,0,0.1,0.1c0,0.1,0,0.3,0,0.4c0,0.1,0,0.3,0,0.4c0,0,0,0.1-0.1,0.1c0,0-0.1,0-0.1,0C99.3,355.2,99.3,355.2,99.3,355.2z"/>
	<path class="st3" d="M71,355.2c0.2,0,0.3,0,0.5,0c0,0,0-0.1,0-0.1c0,0-0.1,0-0.1,0c0,0-0.1,0-0.1-0.1c0-0.1,0-0.3,0-0.4
		c0-0.1,0-0.3,0-0.4c0,0,0-0.1,0.1-0.1c0,0,0.1,0,0.1,0c0,0,0-0.1,0-0.1c-0.2,0-0.3,0-0.5,0c0,0,0,0.1,0,0.1c0,0,0.1,0,0.1,0
		c0,0,0.1,0,0.1,0.1c0,0.1,0,0.3,0,0.4c0,0.1,0,0.3,0,0.4c0,0,0,0.1-0.1,0.1c0,0-0.1,0-0.1,0C71,355.2,71,355.2,71,355.2z"/>
	<path class="st3" d="M355.2,298.3c0-0.2,0-0.3,0-0.5c0,0-0.1,0-0.1,0c0,0,0,0.1,0,0.1c0,0,0,0.1-0.1,0.1c-0.1,0-0.3,0-0.4,0
		c-0.1,0-0.3,0-0.4,0c0,0-0.1,0-0.1-0.1c0,0,0-0.1,0-0.1c0,0-0.1,0-0.1,0c0,0.2,0,0.3,0,0.5c0,0,0.1,0,0.1,0c0,0,0-0.1,0-0.1
		c0,0,0-0.1,0.1-0.1c0.1,0,0.3,0,0.4,0c0.1,0,0.3,0,0.4,0c0,0,0.1,0,0.1,0.1c0,0,0,0.1,0,0.1C355.1,298.3,355.2,298.3,355.2,298.3z"
		/>
	<path class="st3" d="M355.2,269.9c0-0.2,0-0.3,0-0.5c0,0-0.1,0-0.1,0c0,0,0,0.1,0,0.1c0,0,0,0.1-0.1,0.1c-0.1,0-0.3,0-0.4,0
		c-0.1,0-0.3,0-0.4,0c0,0-0.1,0-0.1-0.1c0,0,0-0.1,0-0.1c0,0-0.1,0-0.1,0c0,0.2,0,0.3,0,0.5c0,0,0.1,0,0.1,0c0,0,0-0.1,0-0.1
		c0,0,0-0.1,0.1-0.1c0.1,0,0.3,0,0.4,0c0.1,0,0.3,0,0.4,0c0,0,0.1,0,0.1,0.1c0,0,0,0.1,0,0.1C355.1,269.9,355.2,269.9,355.2,269.9z"
		/>
	<path class="st3" d="M355.2,241.6c0-0.2,0-0.3,0-0.5c0,0-0.1,0-0.1,0c0,0,0,0.1,0,0.1c0,0,0,0.1-0.1,0.1c-0.1,0-0.3,0-0.4,0
		c-0.1,0-0.3,0-0.4,0c0,0-0.1,0-0.1-0.1c0,0,0-0.1,0-0.1c0,0-0.1,0-0.1,0c0,0.2,0,0.3,0,0.5c0,0,0.1,0,0.1,0c0,0,0-0.1,0-0.1
		c0,0,0-0.1,0.1-0.1c0.1,0,0.3,0,0.4,0c0.1,0,0.3,0,0.4,0c0,0,0.1,0,0.1,0.1c0,0,0,0.1,0,0.1C355.1,241.6,355.2,241.6,355.2,241.6z"
		/>
	<path class="st3" d="M355.2,156.5c0-0.2,0-0.3,0-0.5c0,0-0.1,0-0.1,0c0,0,0,0.1,0,0.1c0,0,0,0.1-0.1,0.1c-0.1,0-0.3,0-0.4,0
		c-0.1,0-0.3,0-0.4,0c0,0-0.1,0-0.1-0.1c0,0,0-0.1,0-0.1c0,0-0.1,0-0.1,0c0,0.2,0,0.3,0,0.5c0,0,0.1,0,0.1,0c0,0,0-0.1,0-0.1
		c0,0,0-0.1,0.1-0.1c0.1,0,0.3,0,0.4,0c0.1,0,0.3,0,0.4,0c0,0,0.1,0,0.1,0.1c0,0,0,0.1,0,0.1C355.1,156.5,355.2,156.5,355.2,156.5z"
		/>
	<path class="st3" d="M355.2,128.2c0-0.2,0-0.3,0-0.5c0,0-0.1,0-0.1,0c0,0,0,0.1,0,0.1c0,0,0,0.1-0.1,0.1c-0.1,0-0.3,0-0.4,0
		c-0.1,0-0.3,0-0.4,0c0,0-0.1,0-0.1-0.1c0,0,0-0.1,0-0.1c0,0-0.1,0-0.1,0c0,0.2,0,0.3,0,0.5c0,0,0.1,0,0.1,0c0,0,0-0.1,0-0.1
		c0,0,0-0.1,0.1-0.1c0.1,0,0.3,0,0.4,0c0.1,0,0.3,0,0.4,0c0,0,0.1,0,0.1,0.1c0,0,0,0.1,0,0.1C355.1,128.2,355.2,128.2,355.2,128.2z"
		/>
	<path class="st3" d="M355.2,99.8c0-0.2,0-0.3,0-0.5c0,0-0.1,0-0.1,0c0,0,0,0.1,0,0.1c0,0,0,0.1-0.1,0.1c-0.1,0-0.3,0-0.4,0
		c-0.1,0-0.3,0-0.4,0c0,0-0.1,0-0.1-0.1c0,0,0-0.1,0-0.1c0,0-0.1,0-0.1,0c0,0.2,0,0.3,0,0.5c0,0,0.1,0,0.1,0c0,0,0-0.1,0-0.1
		c0,0,0-0.1,0.1-0.1c0.1,0,0.3,0,0.4,0c0.1,0,0.3,0,0.4,0c0,0,0.1,0,0.1,0.1c0,0,0,0.1,0,0.1C355.1,99.8,355.2,99.8,355.2,99.8z"/>
	<path class="st3" d="M355.2,71.5c0-0.2,0-0.3,0-0.5c0,0-0.1,0-0.1,0c0,0,0,0.1,0,0.1c0,0,0,0.1-0.1,0.1c-0.1,0-0.3,0-0.4,0
		c-0.1,0-0.3,0-0.4,0c0,0-0.1,0-0.1-0.1c0,0,0-0.1,0-0.1c0,0-0.1,0-0.1,0c0,0.2,0,0.3,0,0.5c0,0,0.1,0,0.1,0c0,0,0-0.1,0-0.1
		c0,0,0-0.1,0.1-0.1c0.1,0,0.3,0,0.4,0c0.1,0,0.3,0,0.4,0c0,0,0.1,0,0.1,0.1c0,0,0,0.1,0,0.1C355.1,71.5,355.2,71.5,355.2,71.5z"/>
	<path class="st3" d="M355.2,326.6c0-0.2,0-0.3,0-0.5c0,0-0.1,0-0.1,0c0,0,0,0.1,0,0.1c0,0,0,0.1-0.1,0.1c-0.1,0-0.3,0-0.4,0
		c-0.1,0-0.3,0-0.4,0c0,0-0.1,0-0.1-0.1c0,0,0-0.1,0-0.1c0,0-0.1,0-0.1,0c0,0.2,0,0.3,0,0.5c0,0,0.1,0,0.1,0c0,0,0-0.1,0-0.1
		c0,0,0-0.1,0.1-0.1c0.1,0,0.3,0,0.4,0c0.1,0,0.3,0,0.4,0c0,0,0.1,0,0.1,0.1c0,0,0,0.1,0,0.1C355.1,326.6,355.2,326.6,355.2,326.6z"
		/>
	<path class="st3" d="M42.3,326.6c0-0.2,0-0.3,0-0.5c0,0,0.1,0,0.1,0c0,0,0,0.1,0,0.1c0,0,0,0.1,0.1,0.1c0.1,0,0.3,0,0.4,0
		c0.1,0,0.3,0,0.4,0c0,0,0.1,0,0.1-0.1c0,0,0-0.1,0-0.1c0,0,0.1,0,0.1,0c0,0.2,0,0.3,0,0.5c0,0-0.1,0-0.1,0c0,0,0-0.1,0-0.1
		c0,0,0-0.1-0.1-0.1c-0.1,0-0.3,0-0.4,0c-0.1,0-0.3,0-0.4,0c0,0-0.1,0-0.1,0.1c0,0,0,0.1,0,0.1C42.4,326.6,42.4,326.6,42.3,326.6z"
		/>
	<path class="st3" d="M42.3,71.5c0-0.2,0-0.3,0-0.5c0,0,0.1,0,0.1,0c0,0,0,0.1,0,0.1c0,0,0,0.1,0.1,0.1c0.1,0,0.3,0,0.4,0
		c0.1,0,0.3,0,0.4,0c0,0,0.1,0,0.1-0.1c0,0,0-0.1,0-0.1c0,0,0.1,0,0.1,0c0,0.2,0,0.3,0,0.5c0,0-0.1,0-0.1,0c0,0,0-0.1,0-0.1
		c0,0,0-0.1-0.1-0.1c-0.1,0-0.3,0-0.4,0c-0.1,0-0.3,0-0.4,0c0,0-0.1,0-0.1,0.1c0,0,0,0.1,0,0.1C42.4,71.5,42.4,71.5,42.3,71.5z"/>
	<path class="st3" d="M42.3,99.8c0-0.2,0-0.3,0-0.5c0,0,0.1,0,0.1,0c0,0,0,0.1,0,0.1c0,0,0,0.1,0.1,0.1c0.1,0,0.3,0,0.4,0
		c0.1,0,0.3,0,0.4,0c0,0,0.1,0,0.1-0.1c0,0,0-0.1,0-0.1c0,0,0.1,0,0.1,0c0,0.2,0,0.3,0,0.5c0,0-0.1,0-0.1,0c0,0,0-0.1,0-0.1
		c0,0,0-0.1-0.1-0.1c-0.1,0-0.3,0-0.4,0c-0.1,0-0.3,0-0.4,0c0,0-0.1,0-0.1,0.1c0,0,0,0.1,0,0.1C42.4,99.8,42.4,99.8,42.3,99.8z"/>
	<path class="st3" d="M42.3,128.2c0-0.2,0-0.3,0-0.5c0,0,0.1,0,0.1,0c0,0,0,0.1,0,0.1c0,0,0,0.1,0.1,0.1c0.1,0,0.3,0,0.4,0
		c0.1,0,0.3,0,0.4,0c0,0,0.1,0,0.1-0.1c0,0,0-0.1,0-0.1c0,0,0.1,0,0.1,0c0,0.2,0,0.3,0,0.5c0,0-0.1,0-0.1,0c0,0,0-0.1,0-0.1
		c0,0,0-0.1-0.1-0.1c-0.1,0-0.3,0-0.4,0c-0.1,0-0.3,0-0.4,0c0,0-0.1,0-0.1,0.1c0,0,0,0.1,0,0.1C42.4,128.2,42.4,128.2,42.3,128.2z"
		/>
	<path class="st3" d="M42.3,156.5c0-0.2,0-0.3,0-0.5c0,0,0.1,0,0.1,0c0,0,0,0.1,0,0.1c0,0,0,0.1,0.1,0.1c0.1,0,0.3,0,0.4,0
		c0.1,0,0.3,0,0.4,0c0,0,0.1,0,0.1-0.1c0,0,0-0.1,0-0.1c0,0,0.1,0,0.1,0c0,0.2,0,0.3,0,0.5c0,0-0.1,0-0.1,0c0,0,0-0.1,0-0.1
		c0,0,0-0.1-0.1-0.1c-0.1,0-0.3,0-0.4,0c-0.1,0-0.3,0-0.4,0c0,0-0.1,0-0.1,0.1c0,0,0,0.1,0,0.1C42.4,156.5,42.4,156.5,42.3,156.5z"
		/>
	<path class="st3" d="M42.3,241.6c0-0.2,0-0.3,0-0.5c0,0,0.1,0,0.1,0c0,0,0,0.1,0,0.1c0,0,0,0.1,0.1,0.1c0.1,0,0.3,0,0.4,0
		c0.1,0,0.3,0,0.4,0c0,0,0.1,0,0.1-0.1c0,0,0-0.1,0-0.1c0,0,0.1,0,0.1,0c0,0.2,0,0.3,0,0.5c0,0-0.1,0-0.1,0c0,0,0-0.1,0-0.1
		c0,0,0-0.1-0.1-0.1c-0.1,0-0.3,0-0.4,0c-0.1,0-0.3,0-0.4,0c0,0-0.1,0-0.1,0.1c0,0,0,0.1,0,0.1C42.4,241.6,42.4,241.6,42.3,241.6z"
		/>
	<path class="st3" d="M42.3,269.9c0-0.2,0-0.3,0-0.5c0,0,0.1,0,0.1,0c0,0,0,0.1,0,0.1c0,0,0,0.1,0.1,0.1c0.1,0,0.3,0,0.4,0
		c0.1,0,0.3,0,0.4,0c0,0,0.1,0,0.1-0.1c0,0,0-0.1,0-0.1c0,0,0.1,0,0.1,0c0,0.2,0,0.3,0,0.5c0,0-0.1,0-0.1,0c0,0,0-0.1,0-0.1
		c0,0,0-0.1-0.1-0.1c-0.1,0-0.3,0-0.4,0c-0.1,0-0.3,0-0.4,0c0,0-0.1,0-0.1,0.1c0,0,0,0.1,0,0.1C42.4,269.9,42.4,269.9,42.3,269.9z"
		/>
	<path class="st3" d="M42.3,298.3c0-0.2,0-0.3,0-0.5c0,0,0.1,0,0.1,0c0,0,0,0.1,0,0.1c0,0,0,0.1,0.1,0.1c0.1,0,0.3,0,0.4,0
		c0.1,0,0.3,0,0.4,0c0,0,0.1,0,0.1-0.1c0,0,0-0.1,0-0.1c0,0,0.1,0,0.1,0c0,0.2,0,0.3,0,0.5c0,0-0.1,0-0.1,0c0,0,0-0.1,0-0.1
		c0,0,0-0.1-0.1-0.1c-0.1,0-0.3,0-0.4,0c-0.1,0-0.3,0-0.4,0c0,0-0.1,0-0.1,0.1c0,0,0,0.1,0,0.1C42.4,298.3,42.4,298.3,42.3,298.3z"
		/>
	<path class="st3" d="M71,325.8c0.2,0,0.3,0,0.5,0c0,0,0,0.1,0,0.1c0,0-0.1,0-0.1,0c0,0-0.1,0-0.1,0.1c0,0.1,0,0.3,0,0.4
		c0,0.1,0,0.3,0,0.4c0,0,0,0.1,0.1,0.1c0,0,0.1,0,0.1,0c0,0,0,0.1,0,0.1c-0.2,0-0.3,0-0.5,0c0,0,0-0.1,0-0.1c0,0,0.1,0,0.1,0
		c0,0,0.1,0,0.1-0.1c0-0.1,0-0.3,0-0.4c0-0.1,0-0.3,0-0.4c0,0,0-0.1-0.1-0.1c0,0-0.1,0-0.1,0C71,325.9,71,325.8,71,325.8z"/>
	<path class="st3" d="M71,297.4c0.2,0,0.3,0,0.5,0c0,0,0,0.1,0,0.1c0,0-0.1,0-0.1,0c0,0-0.1,0-0.1,0.1c0,0.1,0,0.3,0,0.4
		s0,0.3,0,0.4c0,0,0,0.1,0.1,0.1c0,0,0.1,0,0.1,0c0,0,0,0.1,0,0.1c-0.2,0-0.3,0-0.5,0c0,0,0-0.1,0-0.1c0,0,0.1,0,0.1,0
		c0,0,0.1,0,0.1-0.1c0-0.1,0-0.3,0-0.4s0-0.3,0-0.4c0,0,0-0.1-0.1-0.1c0,0-0.1,0-0.1,0C71,297.5,71,297.5,71,297.4z"/>
	<path class="st3" d="M71,269.1c0.2,0,0.3,0,0.5,0c0,0,0,0.1,0,0.1c0,0-0.1,0-0.1,0c0,0-0.1,0-0.1,0.1c0,0.1,0,0.3,0,0.4
		c0,0.1,0,0.3,0,0.4c0,0,0,0.1,0.1,0.1c0,0,0.1,0,0.1,0c0,0,0,0.1,0,0.1c-0.2,0-0.3,0-0.5,0c0,0,0-0.1,0-0.1c0,0,0.1,0,0.1,0
		c0,0,0.1,0,0.1-0.1c0-0.1,0-0.3,0-0.4c0-0.1,0-0.3,0-0.4c0,0,0-0.1-0.1-0.1c0,0-0.1,0-0.1,0C71,269.2,71,269.1,71,269.1z"/>
	<path class="st3" d="M71,240.8c0.2,0,0.3,0,0.5,0c0,0,0,0.1,0,0.1c0,0-0.1,0-0.1,0c0,0-0.1,0-0.1,0.1c0,0.1,0,0.3,0,0.4
		c0,0.1,0,0.3,0,0.4c0,0,0,0.1,0.1,0.1c0,0,0.1,0,0.1,0c0,0,0,0.1,0,0.1c-0.2,0-0.3,0-0.5,0c0,0,0-0.1,0-0.1c0,0,0.1,0,0.1,0
		c0,0,0.1,0,0.1-0.1c0-0.1,0-0.3,0-0.4c0-0.1,0-0.3,0-0.4c0,0,0-0.1-0.1-0.1c0,0-0.1,0-0.1,0C71,240.8,71,240.8,71,240.8z"/>
	<path class="st3" d="M71,212.4c0.2,0,0.3,0,0.5,0c0,0,0,0.1,0,0.1c0,0-0.1,0-0.1,0c0,0-0.1,0-0.1,0.1c0,0.1,0,0.3,0,0.4
		s0,0.3,0,0.4c0,0,0,0.1,0.1,0.1c0,0,0.1,0,0.1,0c0,0,0,0.1,0,0.1c-0.2,0-0.3,0-0.5,0c0,0,0-0.1,0-0.1c0,0,0.1,0,0.1,0
		c0,0,0.1,0,0.1-0.1c0-0.1,0-0.3,0-0.4s0-0.3,0-0.4c0,0,0-0.1-0.1-0.1c0,0-0.1,0-0.1,0C71,212.5,71,212.4,71,212.4z"/>
	<path class="st3" d="M71,184.1c0.2,0,0.3,0,0.5,0c0,0,0,0.1,0,0.1c0,0-0.1,0-0.1,0c0,0-0.1,0-0.1,0.1c0,0.1,0,0.3,0,0.4
		c0,0.1,0,0.3,0,0.4c0,0,0,0.1,0.1,0.1c0,0,0.1,0,0.1,0c0,0,0,0.1,0,0.1c-0.2,0-0.3,0-0.5,0c0,0,0-0.1,0-0.1c0,0,0.1,0,0.1,0
		c0,0,0.1,0,0.1-0.1c0-0.1,0-0.3,0-0.4c0-0.1,0-0.3,0-0.4c0,0,0-0.1-0.1-0.1c0,0-0.1,0-0.1,0C71,184.1,71,184.1,71,184.1z"/>
	<path class="st3" d="M71,155.7c0.2,0,0.3,0,0.5,0c0,0,0,0.1,0,0.1c0,0-0.1,0-0.1,0c0,0-0.1,0-0.1,0.1c0,0.1,0,0.3,0,0.4
		c0,0.1,0,0.3,0,0.4c0,0,0,0.1,0.1,0.1c0,0,0.1,0,0.1,0c0,0,0,0.1,0,0.1c-0.2,0-0.3,0-0.5,0c0,0,0-0.1,0-0.1c0,0,0.1,0,0.1,0
		c0,0,0.1,0,0.1-0.1c0-0.1,0-0.3,0-0.4c0-0.1,0-0.3,0-0.4c0,0,0-0.1-0.1-0.1c0,0-0.1,0-0.1,0C71,155.8,71,155.8,71,155.7z"/>
	<path class="st3" d="M71,127.4c0.2,0,0.3,0,0.5,0c0,0,0,0.1,0,0.1c0,0-0.1,0-0.1,0c0,0-0.1,0-0.1,0.1c0,0.1,0,0.3,0,0.4
		c0,0.1,0,0.3,0,0.4c0,0,0,0.1,0.1,0.1c0,0,0.1,0,0.1,0c0,0,0,0.1,0,0.1c-0.2,0-0.3,0-0.5,0c0,0,0-0.1,0-0.1c0,0,0.1,0,0.1,0
		c0,0,0.1,0,0.1-0.1c0-0.1,0-0.3,0-0.4c0-0.1,0-0.3,0-0.4c0,0,0-0.1-0.1-0.1c0,0-0.1,0-0.1,0C71,127.4,71,127.4,71,127.4z"/>
	<path class="st3" d="M71,99c0.2,0,0.3,0,0.5,0c0,0,0,0.1,0,0.1c0,0-0.1,0-0.1,0c0,0-0.1,0-0.1,0.1c0,0.1,0,0.3,0,0.4s0,0.3,0,0.4
		c0,0,0,0.1,0.1,0.1c0,0,0.1,0,0.1,0c0,0,0,0.1,0,0.1c-0.2,0-0.3,0-0.5,0c0,0,0-0.1,0-0.1c0,0,0.1,0,0.1,0c0,0,0.1,0,0.1-0.1
		c0-0.1,0-0.3,0-0.4s0-0.3,0-0.4c0,0,0-0.1-0.1-0.1c0,0-0.1,0-0.1,0C71,99.1,71,99.1,71,99z"/>
	<path class="st3" d="M71,70.7c0.2,0,0.3,0,0.5,0c0,0,0,0.1,0,0.1c0,0-0.1,0-0.1,0c0,0-0.1,0-0.1,0.1c0,0.1,0,0.3,0,0.4
		c0,0.1,0,0.3,0,0.4c0,0,0,0.1,0.1,0.1c0,0,0.1,0,0.1,0c0,0,0,0.1,0,0.1c-0.2,0-0.3,0-0.5,0c0,0,0-0.1,0-0.1c0,0,0.1,0,0.1,0
		c0,0,0.1,0,0.1-0.1c0-0.1,0-0.3,0-0.4c0-0.1,0-0.3,0-0.4c0,0,0-0.1-0.1-0.1c0,0-0.1,0-0.1,0C71,70.7,71,70.7,71,70.7z"/>
	<path class="st3" d="M383.3,355.2c-0.2,0-0.3,0-0.5,0c0,0,0-0.1,0-0.1c0,0,0.1,0,0.1,0c0,0,0.1,0,0.1-0.1c0-0.1,0-0.3,0-0.4
		c0-0.1,0-0.3,0-0.4c0,0,0-0.1-0.1-0.1c0,0-0.1,0-0.1,0c0,0,0-0.1,0-0.1c0.2,0,0.3,0,0.5,0c0,0,0,0.1,0,0.1c0,0-0.1,0-0.1,0
		c0,0-0.1,0-0.1,0.1c0,0.1,0,0.3,0,0.4c0,0.1,0,0.3,0,0.4c0,0,0,0.1,0.1,0.1c0,0,0.1,0,0.1,0C383.3,355.2,383.3,355.2,383.3,355.2z"
		/>
	<path class="st3" d="M355.2,382.8c0,0.2,0,0.3,0,0.5c0,0-0.1,0-0.1,0c0,0,0-0.1,0-0.1c0,0,0-0.1-0.1-0.1c-0.1,0-0.3,0-0.4,0
		c-0.1,0-0.3,0-0.4,0c0,0-0.1,0-0.1,0.1c0,0,0,0.1,0,0.1c0,0-0.1,0-0.1,0c0-0.2,0-0.3,0-0.5c0,0,0.1,0,0.1,0c0,0,0,0.1,0,0.1
		c0,0,0,0.1,0.1,0.1c0.1,0,0.3,0,0.4,0c0.1,0,0.3,0,0.4,0c0,0,0.1,0,0.1-0.1c0,0,0-0.1,0-0.1C355.1,382.8,355.2,382.8,355.2,382.8z"
		/>
	<path class="st3" d="M355.2,14.8c0-0.2,0-0.3,0-0.5c0,0-0.1,0-0.1,0c0,0,0,0.1,0,0.1c0,0,0,0.1-0.1,0.1c-0.1,0-0.3,0-0.4,0
		c-0.1,0-0.3,0-0.4,0c0,0-0.1,0-0.1-0.1c0,0,0-0.1,0-0.1c0,0-0.1,0-0.1,0c0,0.2,0,0.3,0,0.5c0,0,0.1,0,0.1,0c0,0,0-0.1,0-0.1
		c0,0,0-0.1,0.1-0.1c0.1,0,0.3,0,0.4,0c0.1,0,0.3,0,0.4,0c0,0,0.1,0,0.1,0.1c0,0,0,0.1,0,0.1C355.1,14.8,355.2,14.8,355.2,14.8z"/>
	<path class="st3" d="M383.3,42.4c-0.2,0-0.3,0-0.5,0c0,0,0,0.1,0,0.1c0,0,0.1,0,0.1,0c0,0,0.1,0,0.1,0.1c0,0.1,0,0.3,0,0.4
		c0,0.1,0,0.3,0,0.4c0,0,0,0.1-0.1,0.1c0,0-0.1,0-0.1,0c0,0,0,0.1,0,0.1c0.2,0,0.3,0,0.5,0c0,0,0-0.1,0-0.1c0,0-0.1,0-0.1,0
		c0,0-0.1,0-0.1-0.1c0-0.1,0-0.3,0-0.4c0-0.1,0-0.3,0-0.4c0,0,0-0.1,0.1-0.1c0,0,0.1,0,0.1,0C383.3,42.4,383.3,42.4,383.3,42.4z"/>
	<path class="st3" d="M42.3,382.8c0,0.2,0,0.3,0,0.5c0,0,0.1,0,0.1,0c0,0,0-0.1,0-0.1c0,0,0-0.1,0.1-0.1c0.1,0,0.3,0,0.4,0
		c0.1,0,0.3,0,0.4,0c0,0,0.1,0,0.1,0.1c0,0,0,0.1,0,0.1c0,0,0.1,0,0.1,0c0-0.2,0-0.3,0-0.5c0,0-0.1,0-0.1,0c0,0,0,0.1,0,0.1
		c0,0,0,0.1-0.1,0.1c-0.1,0-0.3,0-0.4,0c-0.1,0-0.3,0-0.4,0c0,0-0.1,0-0.1-0.1c0,0,0-0.1,0-0.1C42.4,382.8,42.4,382.8,42.3,382.8z"
		/>
	<path class="st3" d="M14.3,355.2c0.2,0,0.3,0,0.5,0c0,0,0-0.1,0-0.1c0,0-0.1,0-0.1,0c0,0-0.1,0-0.1-0.1c0-0.1,0-0.3,0-0.4
		c0-0.1,0-0.3,0-0.4c0,0,0-0.1,0.1-0.1c0,0,0.1,0,0.1,0c0,0,0-0.1,0-0.1c-0.2,0-0.3,0-0.5,0c0,0,0,0.1,0,0.1c0,0,0.1,0,0.1,0
		c0,0,0.1,0,0.1,0.1c0,0.1,0,0.3,0,0.4c0,0.1,0,0.3,0,0.4c0,0,0,0.1-0.1,0.1c0,0-0.1,0-0.1,0C14.3,355.2,14.3,355.2,14.3,355.2z"/>
	<path class="st3" d="M14.3,42.4c0.2,0,0.3,0,0.5,0c0,0,0,0.1,0,0.1c0,0-0.1,0-0.1,0c0,0-0.1,0-0.1,0.1c0,0.1,0,0.3,0,0.4
		c0,0.1,0,0.3,0,0.4c0,0,0,0.1,0.1,0.1c0,0,0.1,0,0.1,0c0,0,0,0.1,0,0.1c-0.2,0-0.3,0-0.5,0c0,0,0-0.1,0-0.1c0,0,0.1,0,0.1,0
		c0,0,0.1,0,0.1-0.1c0-0.1,0-0.3,0-0.4c0-0.1,0-0.3,0-0.4c0,0,0-0.1-0.1-0.1c0,0-0.1,0-0.1,0C14.3,42.4,14.3,42.4,14.3,42.4z"/>
	<path class="st3" d="M71,15.1c0.2,0,0.3,0,0.5,0c0,0,0-0.1,0-0.1c0,0-0.1,0-0.1,0c0,0-0.1,0-0.1-0.1c0-0.1,0-0.3,0-0.4
		c0-0.1,0-0.3,0-0.4c0,0,0-0.1,0.1-0.1c0,0,0.1,0,0.1,0c0,0,0-0.1,0-0.1c-0.2,0-0.3,0-0.5,0c0,0,0,0.1,0,0.1c0,0,0.1,0,0.1,0
		c0,0,0.1,0,0.1,0.1c0,0.1,0,0.3,0,0.4c0,0.1,0,0.3,0,0.4c0,0,0,0.1-0.1,0.1c0,0-0.1,0-0.1,0C71,15,71,15.1,71,15.1z"/>
</g>
<g id="PLAN::STRUCTURE_2.3">
</g>
<g id="PLAN::POINTILLE">
</g>
<g id="PLAN::POINTILLE_PROGRAMME">
</g>
<g id="PLAN::TRAME_2">
</g>
<g id="PLAN::DETAIL">
	<line class="st9" x1="353.3" y1="197.3" x2="354.5" y2="198.6"/>
	<line class="st9" x1="356.1" y1="197.3" x2="354.9" y2="198.6"/>
	<polyline class="st9" points="354.1,170.4 354.1,196.8 354.1,196.8 	"/>
	<line class="st9" x1="355.2" y1="170.4" x2="355.2" y2="196.8"/>
	<line class="st9" x1="353.3" y1="200.2" x2="354.5" y2="198.9"/>
	<line class="st9" x1="356.1" y1="200.2" x2="354.9" y2="198.9"/>
	<polyline class="st9" points="354.1,227.1 354.1,200.7 354.1,200.7 	"/>
	<line class="st9" x1="355.2" y1="227.1" x2="355.2" y2="200.7"/>
	<line class="st9" x1="200.2" y1="353.3" x2="198.9" y2="354.5"/>
	<line class="st9" x1="200.2" y1="356.1" x2="198.9" y2="354.9"/>
	<line class="st9" x1="197.3" y1="353.3" x2="198.6" y2="354.5"/>
	<line class="st9" x1="197.3" y1="356.1" x2="198.6" y2="354.9"/>
	<polyline class="st9" points="170.4,354.1 196.8,354.1 196.8,354.1 	"/>
	<line class="st9" x1="170.4" y1="355.2" x2="196.8" y2="355.2"/>
	<line class="st9" x1="44.3" y1="200.2" x2="43" y2="199"/>
	<line class="st9" x1="41.4" y1="200.2" x2="42.7" y2="199"/>
	<polyline class="st9" points="43.4,227.1 43.4,200.7 43.4,200.7 	"/>
	<line class="st9" x1="42.3" y1="227.1" x2="42.3" y2="200.8"/>
	<line class="st9" x1="44.3" y1="197.4" x2="43" y2="198.6"/>
	<line class="st9" x1="41.4" y1="197.4" x2="42.7" y2="198.6"/>
	<polyline class="st9" points="43.4,170.5 43.4,196.9 43.4,196.9 	"/>
	<line class="st9" x1="42.3" y1="170.5" x2="42.3" y2="196.9"/>
	<line class="st9" x1="197.3" y1="44.3" x2="198.6" y2="43"/>
	<line class="st9" x1="197.3" y1="41.4" x2="198.6" y2="42.7"/>
	<polyline class="st9" points="170.4,43.5 196.8,43.5 196.8,43.5 	"/>
	<line class="st9" x1="170.4" y1="42.3" x2="196.8" y2="42.3"/>
	<line class="st9" x1="200.2" y1="44.3" x2="198.9" y2="43"/>
	<line class="st9" x1="200.2" y1="41.4" x2="198.9" y2="42.7"/>
	<polyline class="st9" points="227.1,43.5 200.7,43.5 200.7,43.5 	"/>
	<line class="st9" x1="227.1" y1="42.3" x2="200.7" y2="42.3"/>
	<polygon class="st9" points="354.1,355.3 354.1,368.9 355.2,368.9 355.2,368.9 355.2,355.2 368.8,355.2 368.8,354.1 355.3,354.1 
		355.2,354.1 355.2,340.6 355.2,340.5 354.1,340.5 354.1,354.1 340.5,354.1 340.5,355.2 354.1,355.2 	"/>
	<polygon class="st9" points="43.5,355.3 43.5,368.9 42.3,368.9 42.3,368.9 42.3,355.2 28.7,355.2 28.7,354.1 42.2,354.1 
		42.3,354.1 42.3,340.6 42.3,340.5 43.5,340.5 43.5,354.1 57,354.1 57,355.2 43.5,355.2 	"/>
	<polygon class="st9" points="355.3,43.5 368.8,43.5 368.8,42.4 368.8,42.4 355.2,42.4 355.2,28.7 354.1,28.7 354.1,42.3 
		354.1,42.4 340.5,42.4 340.5,42.4 340.5,43.5 354.1,43.5 354.1,57.1 355.2,57.1 355.2,43.5 	"/>
	<polygon class="st9" points="42.2,43.5 28.7,43.5 28.7,42.4 28.7,42.4 42.3,42.4 42.3,28.7 43.5,28.7 43.5,42.3 43.5,42.4 57,42.4 
		57,42.4 57,43.5 43.5,43.5 43.5,57.1 42.3,57.1 42.3,43.5 	"/>
	<line class="st9" x1="312.2" y1="42.4" x2="283.8" y2="42.4"/>
	<polyline class="st9" points="355.2,85.4 355.2,57.1 354.1,57.1 354.1,85.4 	"/>
	<polyline class="st9" points="0.3,355.2 28.7,355.2 28.7,354.1 0.3,354.1 	"/>
	<polyline class="st9" points="397.2,355.2 368.8,355.2 368.8,354.1 397.2,354.1 	"/>
	<polyline class="st9" points="57,42.4 85.4,42.4 85.4,43.5 57,43.5 	"/>
	<polyline class="st9" points="42.3,113.8 42.3,85.4 43.5,85.4 43.5,113.8 	"/>
	<polyline class="st9" points="42.3,312.2 42.3,283.8 43.5,283.8 43.5,312.2 	"/>
	<polyline class="st9" points="42.3,85.4 42.3,57.1 43.5,57.1 43.5,85.4 	"/>
	<polyline class="st9" points="42.3,368.9 42.3,397.2 43.5,397.2 43.5,368.9 	"/>
	<polyline class="st9" points="42.3,340.5 42.3,312.2 43.5,312.2 43.5,340.5 	"/>
	<polyline class="st9" points="0.3,42.4 28.7,42.4 28.7,43.5 0.3,43.5 	"/>
	<polyline class="st9" points="355.2,340.5 355.2,312.2 354.1,312.2 354.1,340.5 	"/>
	<polyline class="st9" points="42.3,283.8 42.3,255.5 43.5,255.5 43.5,283.8 	"/>
	<polyline class="st9" points="355.2,113.8 355.2,85.4 354.1,85.4 354.1,113.8 	"/>
	<polyline class="st9" points="397.2,42.4 368.8,42.4 368.8,43.5 397.2,43.5 	"/>
	<polyline class="st9" points="355.2,142.1 355.2,113.8 354.1,113.8 354.1,142.1 	"/>
	<polyline class="st9" points="355.2,28.7 355.2,0.4 354.1,0.4 354.1,28.7 	"/>
	<polyline class="st9" points="355.2,170.5 355.2,142.1 354.1,142.1 354.1,170.5 	"/>
	<polyline class="st9" points="42.3,255.5 42.3,227.1 43.5,227.1 43.5,255.5 	"/>
	<polyline class="st9" points="355.2,255.5 355.2,227.1 354.1,227.1 354.1,255.5 	"/>
	<polyline class="st9" points="42.3,170.5 42.3,142.1 43.5,142.1 43.5,170.5 	"/>
	<polyline class="st9" points="355.2,283.8 355.2,255.5 354.1,255.5 354.1,283.8 	"/>
	<polyline class="st9" points="355.2,312.2 355.2,283.8 354.1,283.8 354.1,312.2 	"/>
	<polyline class="st9" points="57,355.2 85.4,355.2 85.4,354.1 57,354.1 	"/>
	<polyline class="st9" points="355.2,368.9 355.2,397.2 354.1,397.2 354.1,368.9 	"/>
	<polyline class="st9" points="85.4,355.2 113.7,355.2 113.7,354.1 85.4,354.1 	"/>
	<polyline class="st9" points="113.7,355.2 142.1,355.2 142.1,354.1 113.7,354.1 	"/>
	<polyline class="st9" points="142.1,355.2 170.4,355.2 170.4,354.1 142.1,354.1 	"/>
	<polyline class="st9" points="200.7,355.2 227.1,355.2 255.5,355.2 255.5,354.1 227.1,354.1 200.7,354.1 200.7,354.1 	"/>
	<polyline class="st9" points="255.5,355.2 283.8,355.2 283.8,354.1 255.5,354.1 	"/>
	<polyline class="st9" points="42.3,28.7 42.3,0.4 43.5,0.4 43.5,28.7 	"/>
	<polyline class="st9" points="42.3,142.1 42.3,113.8 43.5,113.8 43.5,142.1 	"/>
	<polyline class="st9" points="283.8,355.2 312.2,355.2 312.2,354.1 283.8,354.1 	"/>
	<polyline class="st9" points="312.2,355.2 340.5,355.2 340.5,354.1 312.2,354.1 	"/>
	<polyline class="st9" points="312.2,43.5 340.5,43.5 340.5,42.4 312.2,42.4 312.2,43.5 283.8,43.5 	"/>
	<polyline class="st9" points="255.5,42.4 283.8,42.4 283.8,43.5 255.5,43.5 	"/>
	<polyline class="st9" points="227.1,42.4 255.5,42.4 255.5,43.5 227.1,43.5 	"/>
	<polyline class="st9" points="142.1,42.4 170.4,42.4 170.4,43.5 142.1,43.5 	"/>
	<polyline class="st9" points="113.7,42.4 142.1,42.4 142.1,43.5 113.7,43.5 	"/>
	<polyline class="st9" points="85.4,42.4 113.7,42.4 113.7,43.5 85.4,43.5 	"/>
	<path class="st9" d="M44.9,198.8c0-1.1-0.9-2-2-2c-1.1,0-2,0.9-2,2c0,1.1,0.9,2,2,2C44,200.8,44.9,199.9,44.9,198.8z"/>
	<path class="st9" d="M354.5,198.8c0,0.2,0.1,0.2,0.2,0.2c0.2,0,0.2-0.1,0.2-0.2c0-0.2-0.1-0.2-0.2-0.2
		C354.5,198.5,354.5,198.6,354.5,198.8z"/>
	<path class="st9" d="M352.7,198.8c0,1.1,0.9,2,2,2s2-0.9,2-2c0-1.1-0.9-2-2-2S352.7,197.7,352.7,198.8z"/>
	<circle class="st9" cx="42.8" cy="198.8" r="0.2"/>
	<path class="st9" d="M198.8,354.5c-0.2,0-0.2,0.1-0.2,0.2c0,0.2,0.1,0.2,0.2,0.2c0.2,0,0.2-0.1,0.2-0.2
		C199,354.5,198.9,354.5,198.8,354.5z"/>
	<path class="st9" d="M198.8,352.7c-1.1,0-2,0.9-2,2s0.9,2,2,2c1.1,0,2-0.9,2-2S199.9,352.7,198.8,352.7z"/>
	<path class="st9" d="M198.8,43.1c0.2,0,0.2-0.1,0.2-0.2c0-0.2-0.1-0.2-0.2-0.2c-0.2,0-0.2,0.1-0.2,0.2
		C198.5,43,198.6,43.1,198.8,43.1z"/>
	<path class="st9" d="M198.8,44.9c1.1,0,2-0.9,2-2c0-1.1-0.9-2-2-2c-1.1,0-2,0.9-2,2C196.7,44,197.6,44.9,198.8,44.9z"/>
</g>
<g id="PLAN::TOPO">
</g>
<g id="PLAN::FOND">
</g>
<g id="INFOS::CADRES_2" class="st0">
	<g class="st12">
		<path class="st13" d="M396.5,1.1v395.5H1V1.1H396.5 M397.2,0.4H0.3v396.9h396.9V0.4L397.2,0.4z"/>
	</g>
</g>
<g id="BLOCK_SPECTIFIQUES::MEUBLE_FITNESS">
</g>
<g id="BLOCK_SPECTIFIQUES::POTAGER">
</g>
<g id="PLAN::POTEAU">
</g>
<g id="PLAN::FOND_SOL">
</g>
</svg>
