<?xml version="1.0" encoding="utf-8"?>
<!-- Generator: Adobe Illustrator 22.0.1, SVG Export Plug-In . SVG Version: 6.00 Build 0)  -->
<svg version="1.1" xmlns="http://www.w3.org/2000/svg" xmlns:xlink="http://www.w3.org/1999/xlink" x="0px" y="0px" width="397.6px"
	 height="397.5px" viewBox="0 0 397.6 397.5" style="enable-background:new 0 0 397.6 397.5;" xml:space="preserve">
<style type="text/css">
	.st0{display:none;}
	.st1{display:inline;stroke:#FFFFFF;stroke-linecap:round;stroke-linejoin:round;}
	.st2{fill:#FFFFFF;stroke:#FFFFFF;stroke-width:0.4;stroke-miterlimit:10;}
	.st3{fill:none;stroke:#FFFFFF;stroke-linecap:square;}
	.st4{fill:none;stroke:#FFFFFF;stroke-width:0.7;stroke-linecap:square;}
	.st5{fill:none;stroke:#FFFFFF;stroke-width:0.55;stroke-linecap:square;}
	.st6{fill:none;stroke:#FFFFFF;stroke-width:0.6;stroke-linecap:square;stroke-dasharray:2,3;}
	.st7{fill:none;stroke:#FFFFFF;stroke-width:0.2;stroke-linecap:square;stroke-dasharray:2,3;}
	.st8{fill:none;stroke:#FFFFFF;stroke-width:0.3;stroke-linecap:square;}
	.st9{fill:none;stroke:#FFFFFF;stroke-width:0.5;stroke-linecap:square;}
	.st10{fill:none;stroke:#FFFFFF;stroke-width:0.7;stroke-linecap:square;stroke-dasharray:2,3;}
	.st11{fill:none;stroke:#FFFFFF;stroke-width:0.4;stroke-linecap:square;}
	.st12{display:inline;}
	.st13{fill:#FFFFFF;}
	.st14{display:inline;fill:none;stroke:#000000;stroke-linecap:round;stroke-linejoin:round;}
</style>
<g id="FOND" class="st0">
	<rect x="-1012" y="-52.3" class="st1" width="1470.6" height="1969.9"/>
</g>
<g id="Calque_1" class="st0">
</g>
<g id="PLAN::STRUCTURE_1.1">
</g>
<g id="PLAN::IPN">
</g>
<g id="PLAN::STRUCTURE_2.3">
	<line class="st4" x1="396.5" y1="390.8" x2="388.1" y2="390.8"/>
	<line class="st4" x1="396.5" y1="370.1" x2="388.1" y2="370.1"/>
	<line class="st4" x1="338.8" y1="308" x2="346.3" y2="308"/>
	<line class="st4" x1="137.2" y1="63.7" x2="134.1" y2="63.7"/>
	<line class="st4" x1="137.2" y1="28.5" x2="134.1" y2="28.5"/>
	<line class="st4" x1="50.1" y1="251.7" x2="27.1" y2="251.7"/>
	<line class="st4" x1="101.6" y1="245.1" x2="101.6" y2="251.7"/>
	<line class="st4" x1="37.4" y1="245.1" x2="37.4" y2="251.7"/>
	<line class="st4" x1="0.5" y1="251.7" x2="23.5" y2="251.7"/>
	<line class="st4" x1="230.9" y1="337.3" x2="230.9" y2="306.6"/>
	<line class="st4" x1="234" y1="329.8" x2="230.9" y2="329.8"/>
	<line class="st4" x1="234" y1="294.5" x2="230.9" y2="294.5"/>
	<line class="st4" x1="230.9" y1="241.1" x2="230.9" y2="193.2"/>
	<line class="st4" x1="245.3" y1="179.1" x2="277.5" y2="179.1"/>
	<line class="st4" x1="281.1" y1="179.1" x2="313.2" y2="179.1"/>
	<line class="st4" x1="327.6" y1="193.2" x2="327.6" y2="225.3"/>
	<line class="st4" x1="331.6" y1="219.2" x2="327.6" y2="219.2"/>
	<line class="st4" x1="346.3" y1="254.7" x2="346.3" y2="251.7"/>
	<line class="st4" x1="391.8" y1="75.8" x2="391.8" y2="82.4"/>
	<line class="st4" x1="327.6" y1="128.9" x2="327.6" y2="94.5"/>
	<line class="st4" x1="346.3" y1="85.4" x2="346.3" y2="82.4"/>
	<line class="st4" x1="327.6" y1="44" x2="327.6" y2="24.2"/>
	<line class="st4" x1="327.6" y1="337.3" x2="327.6" y2="317.7"/>
	<line class="st4" x1="327.6" y1="314" x2="327.6" y2="301.9"/>
	<line class="st4" x1="327.6" y1="340.9" x2="327.6" y2="348.4"/>
	<line class="st4" x1="324" y1="359.2" x2="324" y2="348.4"/>
	<line class="st4" x1="291.4" y1="348.4" x2="308.6" y2="348.4"/>
	<line class="st4" x1="355.5" y1="359.2" x2="355.5" y2="348.4"/>
	<line class="st4" x1="48.2" y1="336.3" x2="2.9" y2="336.3"/>
	<line class="st4" x1="37.4" y1="354.6" x2="37.4" y2="398.4"/>
	<line class="st4" x1="138.1" y1="219.2" x2="134.1" y2="219.2"/>
	<line class="st4" x1="277.5" y1="275.9" x2="245.1" y2="275.9"/>
	<line class="st4" x1="134.1" y1="120.5" x2="134.1" y2="92.7"/>
	<line class="st4" x1="61.6" y1="144.4" x2="61.6" y2="154.9"/>
	<line class="st4" x1="61.6" y1="140.8" x2="61.6" y2="108.4"/>
	<line class="st4" x1="37.4" y1="161.5" x2="37.4" y2="154.9"/>
	<line class="st4" x1="61.6" y1="104.7" x2="61.6" y2="71"/>
	<polyline class="st4" points="37.4,241.5 37.4,234.9 37.4,220.9 	"/>
	<polyline class="st4" points="134.1,124.1 134.1,132.2 134.1,186.6 134.1,189.6 	"/>
	<polyline class="st4" points="138.1,251.7 134.1,251.7 134.1,259.6 	"/>
	<polyline class="st4" points="230.9,244.8 230.9,262.8 230.9,266.4 230.9,275.9 	"/>
	<polyline class="st4" points="180.7,251.7 152.2,251.7 141.7,251.7 	"/>
	<polyline class="st4" points="241.4,275.9 230.9,275.9 230.9,303 	"/>
	<polyline class="st4" points="134.1,348.4 134.1,335.5 134.1,327.3 	"/>
	<polyline class="st4" points="37.4,351 37.4,344.8 37.4,336.3 	"/>
	<polyline class="st4" points="241.7,179.1 231.9,179.1 184.3,179.1 	"/>
	<polyline class="st4" points="327.6,262.2 327.6,251.7 327.6,228.9 	"/>
	<polyline class="st4" points="327.6,298.3 327.6,282.5 327.6,265.8 	"/>
	<polyline class="st4" points="184.3,251.7 212.8,251.7 216.4,251.7 230.9,251.7 	"/>
	<polyline class="st4" points="51.8,336.3 73.7,336.3 73.7,325.8 73.7,322.2 73.7,306.2 73.7,258.6 	"/>
	<polyline class="st4" points="291.4,351.7 291.4,348.4 244.8,348.4 	"/>
	<polyline class="st4" points="313.2,82.4 327.6,82.4 327.6,52.2 327.6,47.7 	"/>
	<polyline class="st4" points="295.1,90.8 295.1,82.4 295.1,71.8 	"/>
	<polyline class="st4" points="362.1,82.4 338.8,82.4 327.6,82.4 327.6,90.8 	"/>
	<polyline class="st4" points="230.9,189.6 230.9,173.9 230.9,169.6 	"/>
	<polyline class="st4" points="230.9,340.9 230.9,348.4 277.5,348.4 	"/>
	<polyline class="st4" points="230.9,348.4 223.4,348.4 218.2,348.4 	"/>
	<polyline class="st4" points="214.5,348.4 194.6,348.4 194.6,351.7 	"/>
	<polyline class="st4" points="194.6,348.4 180.1,348.4 176.5,348.4 148.1,348.4 146.2,348.4 	"/>
	<polyline class="st4" points="142.6,348.4 134.1,348.4 134.1,357.5 	"/>
	<polyline class="st4" points="316.9,179.1 320.1,179.1 327.6,179.1 327.6,148.4 327.6,132.6 	"/>
	<polyline class="st4" points="134.1,241.5 134.1,238 134.1,222.3 134.1,193.2 	"/>
	<polyline class="st4" points="134.1,260.2 134.1,250.8 134.1,245.2 	"/>
	<polyline class="st4" points="73.7,336.3 134.1,336.3 134.1,344.8 	"/>
	<polyline class="st4" points="37.4,217.3 37.4,176.1 37.4,166.1 	"/>
	<polyline class="st4" points="53.8,251.7 55.5,251.7 84,251.7 	"/>
	<polyline class="st4" points="134.1,323.7 134.1,302.5 134.1,264.3 	"/>
	<polyline class="st4" points="207.5,358.6 202.9,358.6 207.5,358.6 	"/>
	<polyline class="st4" points="207.5,377 207.5,355.3 207.4,376.9 	"/>
	<polyline class="st4" points="194.6,377 241.2,377 194.6,376.8 	"/>
	<polyline class="st4" points="145.7,225.9 145.7,203.6 145.7,193.2 	"/>
	<polyline class="st4" points="339.2,225.9 339.2,203.6 339.2,193.2 	"/>
	<polyline class="st4" points="123,82.9 115.5,82.9 99.7,82.9 	"/>
	<polyline class="st4" points="303,337.3 303,329.8 303,314 	"/>
	<polyline class="st4" points="230.9,166 230.9,162.6 230.9,94.5 	"/>
	<polyline class="st4" points="230.9,135.9 220.1,135.9 230.7,135.9 	"/>
	<polyline class="st4" points="206.2,47.9 206.2,63.7 206.2,71.2 	"/>
	<polyline class="st4" points="230.9,115.3 220.1,115.3 230.7,115.3 	"/>
	<polyline class="st4" points="313.2,34 327.6,34 342.1,34 	"/>
	<polyline class="st4" points="263.5,71.8 263.5,82.4 263.5,90.8 	"/>
	<polyline class="st4" points="119.7,251.7 134.1,251.7 73.7,251.7 73.7,255 	"/>
	<polyline class="st4" points="230.9,47.9 230.9,82.4 230.9,90.8 	"/>
	<polyline class="st4" points="180.7,179.1 134.1,179.1 134.1,169.6 	"/>
	<line class="st4" x1="355.5" y1="397.2" x2="355.5" y2="387"/>
	<line class="st4" x1="324" y1="387" x2="324" y2="397.2"/>
	<line class="st4" x1="225.2" y1="392.6" x2="225.2" y2="397.2"/>
	<line class="st4" x1="260.8" y1="392.6" x2="260.8" y2="397.2"/>
	<line class="st4" x1="18.7" y1="397.2" x2="18.7" y2="386.5"/>
	<line class="st4" x1="291.4" y1="355.3" x2="291.4" y2="397.2"/>
	<line class="st4" x1="134.1" y1="361.1" x2="134.1" y2="397.2"/>
	<line class="st4" x1="194.6" y1="397.2" x2="194.6" y2="361.1"/>
	<line class="st4" x1="397.2" y1="65.6" x2="391.8" y2="65.6"/>
	<line class="st4" x1="397.2" y1="34" x2="391.8" y2="34"/>
	<line class="st4" x1="397.2" y1="2.4" x2="391.8" y2="2.4"/>
	<line class="st4" x1="377.8" y1="203.6" x2="397.2" y2="203.6"/>
	<polyline class="st4" points="327.6,251.7 374.2,251.7 397.2,251.7 	"/>
	<line class="st4" x1="12.2" y1="0.3" x2="12.2" y2="23.4"/>
	<line class="st4" x1="37.4" y1="41.7" x2="37.4" y2="0.3"/>
	<line class="st4" x1="134.1" y1="17.3" x2="134.1" y2="0.3"/>
	<line class="st4" x1="164.8" y1="0.3" x2="164.8" y2="9.8"/>
	<line class="st4" x1="230.9" y1="0.3" x2="230.9" y2="17.3"/>
	<line class="st4" x1="200.3" y1="0.3" x2="200.3" y2="9.8"/>
	<line class="st4" x1="123" y1="58.2" x2="0.4" y2="58.2"/>
	<line class="st4" x1="23" y1="187.9" x2="0.4" y2="187.9"/>
	<line class="st4" x1="0.4" y1="307.8" x2="7.5" y2="307.8"/>
	<line class="st4" x1="23.5" y1="280.2" x2="0.4" y2="280.2"/>
	<line class="st4" x1="11.4" y1="80.2" x2="0.4" y2="80.2"/>
	<line class="st4" x1="11.4" y1="111.8" x2="0.4" y2="111.8"/>
	<line class="st4" x1="51.9" y1="154.9" x2="0.4" y2="154.9"/>
	<line class="st4" x1="391.8" y1="72.2" x2="391.8" y2="0.3"/>
	<line class="st4" x1="360.2" y1="72.2" x2="360.2" y2="0.3"/>
	<polyline class="st4" points="327.6,20.6 327.6,6.7 327.6,0.3 	"/>
	<line class="st4" x1="392.7" y1="169.4" x2="397.2" y2="169.4"/>
	<line class="st4" x1="392.7" y1="92.1" x2="397.2" y2="92.1"/>
	<line class="st4" x1="392.7" y1="107.1" x2="397.2" y2="107.1"/>
	<line class="st4" x1="392.7" y1="123" x2="397.2" y2="123"/>
	<line class="st4" x1="392.7" y1="138.5" x2="397.2" y2="138.5"/>
	<line class="st4" x1="392.7" y1="154.4" x2="397.2" y2="154.4"/>
	<polyline class="st4" points="345.8,82.4 374.2,82.4 377.8,82.4 397.2,82.4 	"/>
	<polyline class="st4" points="397.2,179.1 392.7,179.1 389.1,179.1 338.8,179.1 327.6,179.1 327.6,187.6 327.6,189.6 	"/>
	<line class="st4" x1="392.7" y1="338.7" x2="397.2" y2="338.7"/>
	<line class="st4" x1="392.7" y1="276.4" x2="397.2" y2="276.4"/>
	<line class="st4" x1="392.7" y1="292.3" x2="397.2" y2="292.3"/>
	<line class="st4" x1="392.7" y1="307.8" x2="397.2" y2="307.8"/>
	<line class="st4" x1="392.7" y1="323.7" x2="397.2" y2="323.7"/>
	<line class="st4" x1="392.7" y1="261.4" x2="397.2" y2="261.4"/>
	<polyline class="st4" points="397.2,348.4 389.1,348.4 338.8,348.4 312.2,348.4 	"/>
	<line class="st4" x1="388.1" y1="397.2" x2="388.1" y2="348.4"/>
	<line class="st4" x1="154.6" y1="361.1" x2="154.6" y2="397.2"/>
	<line class="st4" x1="174.1" y1="361.1" x2="174.1" y2="397.2"/>
	<line class="st4" x1="119.7" y1="390.8" x2="108.9" y2="390.8"/>
	<line class="st4" x1="123.4" y1="390.8" x2="134.1" y2="390.8"/>
	<line class="st4" x1="147" y1="0.3" x2="147" y2="9.8"/>
	<line class="st4" x1="218" y1="0.3" x2="218" y2="9.8"/>
	<line class="st4" x1="94.2" y1="264.3" x2="94.2" y2="302.5"/>
	<line class="st4" x1="146.2" y1="370.1" x2="162.6" y2="370.1"/>
	<line class="st4" x1="23" y1="15" x2="12.2" y2="15"/>
	<line class="st4" x1="180.7" y1="63.7" x2="140.8" y2="63.7"/>
	<line class="st4" x1="184.3" y1="63.7" x2="224.2" y2="63.7"/>
	<line class="st4" x1="12.2" y1="27.1" x2="12.2" y2="58.2"/>
	<line class="st4" x1="23" y1="35.6" x2="12.2" y2="35.6"/>
	<line class="st4" x1="26.6" y1="35.6" x2="37.4" y2="35.6"/>
	<line class="st4" x1="26.6" y1="15" x2="37.4" y2="15"/>
	<line class="st4" x1="37.4" y1="45.3" x2="37.4" y2="58.2"/>
	<line class="st4" x1="47.9" y1="28.8" x2="37.4" y2="28.8"/>
	<line class="st4" x1="316.9" y1="232.7" x2="327.6" y2="232.7"/>
	<line class="st4" x1="316.9" y1="212" x2="327.6" y2="212"/>
	<line class="st4" x1="316.9" y1="253.3" x2="327.6" y2="253.3"/>
	<line class="st4" x1="313.2" y1="253.3" x2="302.5" y2="253.3"/>
	<line class="st4" x1="302.5" y1="244.8" x2="302.5" y2="275.9"/>
	<line class="st4" x1="245.3" y1="253.3" x2="256.1" y2="253.3"/>
	<line class="st4" x1="256.1" y1="244.8" x2="256.1" y2="275.9"/>
	<line class="st4" x1="241.7" y1="253.3" x2="230.9" y2="253.3"/>
	<line class="st4" x1="241.7" y1="232.7" x2="230.9" y2="232.7"/>
	<line class="st4" x1="241.7" y1="212" x2="230.9" y2="212"/>
	<line class="st4" x1="245.3" y1="232.7" x2="256.1" y2="232.7"/>
	<line class="st4" x1="256.1" y1="197.4" x2="256.1" y2="241.1"/>
	<line class="st4" x1="277.5" y1="212" x2="245.3" y2="212"/>
	<line class="st4" x1="313.2" y1="212" x2="281.1" y2="212"/>
	<line class="st4" x1="313.2" y1="232.7" x2="302.5" y2="232.7"/>
	<line class="st4" x1="302.5" y1="197.4" x2="302.5" y2="241.1"/>
	<line class="st4" x1="302.5" y1="193.8" x2="302.5" y2="179.1"/>
	<line class="st4" x1="256.1" y1="193.8" x2="256.1" y2="179.1"/>
	<line class="st4" x1="230.9" y1="187.6" x2="230.9" y2="179.1"/>
	<line class="st4" x1="26.6" y1="208.5" x2="37.4" y2="208.5"/>
	<line class="st4" x1="26.6" y1="187.9" x2="37.4" y2="187.9"/>
	<line class="st4" x1="26.6" y1="229.1" x2="37.4" y2="229.1"/>
	<line class="st4" x1="23" y1="229.1" x2="12.2" y2="229.1"/>
	<line class="st4" x1="12.2" y1="220.6" x2="12.2" y2="251.7"/>
	<line class="st4" x1="23" y1="208.5" x2="12.2" y2="208.5"/>
	<line class="st4" x1="12.2" y1="173.2" x2="12.2" y2="217"/>
	<line class="st4" x1="12.2" y1="169.6" x2="12.2" y2="154.9"/>
	<line class="st4" x1="123.4" y1="369.3" x2="134.1" y2="369.3"/>
	<line class="st4" x1="48.2" y1="389.9" x2="37.4" y2="389.9"/>
	<line class="st4" x1="48.2" y1="369.3" x2="37.4" y2="369.3"/>
	<line class="st4" x1="51.8" y1="389.9" x2="62.6" y2="389.9"/>
	<line class="st4" x1="62.6" y1="354.6" x2="62.6" y2="398.4"/>
	<line class="st4" x1="84" y1="369.3" x2="51.8" y2="369.3"/>
	<line class="st4" x1="119.7" y1="369.3" x2="87.6" y2="369.3"/>
	<line class="st4" x1="108.9" y1="354.6" x2="108.9" y2="398.4"/>
	<line class="st4" x1="108.9" y1="351" x2="108.9" y2="336.3"/>
	<line class="st4" x1="62.6" y1="351" x2="62.6" y2="336.3"/>
	<line class="st4" x1="84" y1="28.8" x2="51.6" y2="28.8"/>
	<line class="st4" x1="62.1" y1="41.7" x2="62.1" y2="16.4"/>
	<line class="st4" x1="62.1" y1="12.7" x2="62.1" y2="0.3"/>
	<line class="st4" x1="87.6" y1="28.8" x2="120" y2="28.8"/>
	<line class="st4" x1="109.5" y1="16.4" x2="109.5" y2="41.7"/>
	<line class="st4" x1="109.5" y1="45.3" x2="109.5" y2="58.2"/>
	<line class="st4" x1="62.1" y1="45.3" x2="62.1" y2="58.2"/>
	<line class="st4" x1="80.2" y1="61.2" x2="80.2" y2="58.2"/>
	<line class="st4" x1="61.6" y1="67.4" x2="61.6" y2="58.2"/>
	<line class="st4" x1="109.5" y1="12.7" x2="109.5" y2="0.3"/>
	<line class="st4" x1="123.6" y1="28.8" x2="134.1" y2="28.8"/>
	<line class="st4" x1="134.1" y1="20.9" x2="134.1" y2="89"/>
	<line class="st4" x1="126.6" y1="58.2" x2="134.1" y2="58.2"/>
	<line class="st4" x1="180.7" y1="9.8" x2="134.1" y2="9.8"/>
	<line class="st4" x1="184.3" y1="9.8" x2="230.9" y2="9.8"/>
	<line class="st4" x1="206.2" y1="17.3" x2="206.2" y2="9.8"/>
	<line class="st4" x1="190.4" y1="17.3" x2="190.4" y2="9.8"/>
	<line class="st4" x1="60.8" y1="320.3" x2="60.8" y2="307.8"/>
	<line class="st4" x1="60.8" y1="323.9" x2="60.8" y2="336.3"/>
	<line class="st4" x1="43.1" y1="295.8" x2="43.1" y2="336.3"/>
	<line class="st4" x1="7.5" y1="295.8" x2="7.5" y2="336.3"/>
	<line class="st4" x1="43.1" y1="255" x2="43.1" y2="251.7"/>
	<line class="st4" x1="60.8" y1="255" x2="60.8" y2="251.7"/>
	<line class="st4" x1="60.8" y1="258.6" x2="60.8" y2="280.2"/>
	<line class="st4" x1="65.4" y1="261.9" x2="60.8" y2="261.9"/>
	<line class="st4" x1="69.1" y1="261.9" x2="73.7" y2="261.9"/>
	<line class="st4" x1="43.1" y1="292.2" x2="43.1" y2="258.6"/>
	<line class="st4" x1="7.5" y1="258.6" x2="7.5" y2="292.2"/>
	<line class="st4" x1="7.5" y1="255" x2="7.5" y2="251.7"/>
	<line class="st4" x1="65.4" y1="307.8" x2="43.1" y2="307.8"/>
	<line class="st4" x1="69.1" y1="307.8" x2="73.7" y2="307.8"/>
	<line class="st4" x1="27.1" y1="280.2" x2="73.7" y2="280.2"/>
	<line class="st4" x1="263.5" y1="94.5" x2="263.5" y2="121.3"/>
	<line class="st4" x1="317.1" y1="149.7" x2="327.6" y2="149.7"/>
	<line class="st4" x1="295.1" y1="94.5" x2="295.1" y2="121.3"/>
	<line class="st4" x1="303" y1="133.7" x2="303" y2="121.3"/>
	<line class="st4" x1="281.1" y1="121.3" x2="327.6" y2="121.3"/>
	<line class="st4" x1="255.6" y1="166.2" x2="255.6" y2="179.1"/>
	<line class="st4" x1="303" y1="166.2" x2="303" y2="179.1"/>
	<line class="st4" x1="303" y1="137.3" x2="303" y2="162.6"/>
	<line class="st4" x1="281.1" y1="149.7" x2="313.5" y2="149.7"/>
	<line class="st4" x1="255.6" y1="133.7" x2="255.6" y2="121.3"/>
	<line class="st4" x1="255.6" y1="162.6" x2="255.6" y2="137.3"/>
	<line class="st4" x1="277.5" y1="149.7" x2="245.1" y2="149.7"/>
	<line class="st4" x1="277.5" y1="121.3" x2="230.9" y2="121.3"/>
	<line class="st4" x1="241.4" y1="149.7" x2="230.9" y2="149.7"/>
	<line class="st4" x1="245.4" y1="102.9" x2="230.9" y2="102.9"/>
	<line class="st4" x1="249" y1="102.9" x2="263.5" y2="102.9"/>
	<line class="st4" x1="309.5" y1="102.9" x2="295.1" y2="102.9"/>
	<line class="st4" x1="313.2" y1="102.9" x2="327.6" y2="102.9"/>
	<line class="st4" x1="281.1" y1="82.4" x2="309.5" y2="82.4"/>
	<line class="st4" x1="249" y1="82.4" x2="277.5" y2="82.4"/>
	<line class="st4" x1="166.7" y1="260.2" x2="166.7" y2="251.7"/>
	<line class="st4" x1="166.7" y1="263.8" x2="166.7" y2="290.6"/>
	<line class="st4" x1="220.4" y1="319" x2="230.9" y2="319"/>
	<line class="st4" x1="198.3" y1="263.8" x2="198.3" y2="290.6"/>
	<line class="st4" x1="206.2" y1="303" x2="206.2" y2="290.6"/>
	<line class="st4" x1="184.3" y1="290.6" x2="230.9" y2="290.6"/>
	<line class="st4" x1="158.8" y1="335.5" x2="158.8" y2="348.4"/>
	<line class="st4" x1="206.2" y1="335.5" x2="206.2" y2="348.4"/>
	<line class="st4" x1="206.2" y1="306.6" x2="206.2" y2="331.9"/>
	<line class="st4" x1="184.3" y1="319" x2="216.7" y2="319"/>
	<line class="st4" x1="158.8" y1="303" x2="158.8" y2="290.6"/>
	<line class="st4" x1="158.8" y1="331.9" x2="158.8" y2="306.6"/>
	<line class="st4" x1="180.7" y1="319" x2="148.3" y2="319"/>
	<line class="st4" x1="180.7" y1="290.6" x2="134.1" y2="290.6"/>
	<line class="st4" x1="144.7" y1="319" x2="134.1" y2="319"/>
	<line class="st4" x1="148.6" y1="272.3" x2="134.1" y2="272.3"/>
	<line class="st4" x1="152.2" y1="272.3" x2="166.7" y2="272.3"/>
	<line class="st4" x1="212.8" y1="272.3" x2="198.3" y2="272.3"/>
	<line class="st4" x1="216.4" y1="272.3" x2="230.9" y2="272.3"/>
	<line class="st4" x1="377.8" y1="57.7" x2="391.8" y2="57.7"/>
	<line class="st4" x1="377.8" y1="10.3" x2="391.8" y2="10.3"/>
	<line class="st4" x1="374.2" y1="10.3" x2="360.2" y2="10.3"/>
	<line class="st4" x1="345.8" y1="34" x2="360.2" y2="34"/>
	<line class="st4" x1="345.8" y1="2.4" x2="360.2" y2="2.4"/>
	<line class="st4" x1="342.1" y1="2.4" x2="327.6" y2="2.4"/>
	<line class="st4" x1="342.1" y1="65.6" x2="327.6" y2="65.6"/>
	<line class="st4" x1="345.8" y1="65.6" x2="360.2" y2="65.6"/>
	<line class="st4" x1="374.2" y1="57.7" x2="360.2" y2="57.7"/>
	<line class="st4" x1="360.2" y1="82.4" x2="360.2" y2="75.8"/>
	<line class="st4" x1="119.7" y1="171.7" x2="134.1" y2="171.7"/>
	<line class="st4" x1="134.1" y1="185.7" x2="134.1" y2="166.1"/>
	<line class="st4" x1="119.7" y1="203.3" x2="134.1" y2="203.3"/>
	<line class="st4" x1="119.7" y1="234.9" x2="134.1" y2="234.9"/>
	<line class="st4" x1="116" y1="234.9" x2="101.6" y2="234.9"/>
	<line class="st4" x1="116" y1="203.3" x2="101.6" y2="203.3"/>
	<line class="st4" x1="116" y1="171.7" x2="101.6" y2="171.7"/>
	<line class="st4" x1="101.6" y1="241.5" x2="101.6" y2="166.1"/>
	<line class="st4" x1="87.6" y1="227" x2="101.6" y2="227"/>
	<line class="st4" x1="87.6" y1="179.6" x2="101.6" y2="179.6"/>
	<line class="st4" x1="84" y1="179.6" x2="70" y2="179.6"/>
	<line class="st4" x1="51.9" y1="203.3" x2="37.4" y2="203.3"/>
	<line class="st4" x1="55.5" y1="203.3" x2="70" y2="203.3"/>
	<line class="st4" x1="55.5" y1="171.7" x2="70" y2="171.7"/>
	<line class="st4" x1="51.9" y1="171.7" x2="37.4" y2="171.7"/>
	<line class="st4" x1="51.9" y1="234.9" x2="37.4" y2="234.9"/>
	<line class="st4" x1="55.5" y1="234.9" x2="70" y2="234.9"/>
	<line class="st4" x1="84" y1="227" x2="70" y2="227"/>
	<line class="st4" x1="70" y1="241.5" x2="70" y2="166.1"/>
	<line class="st4" x1="70" y1="251.7" x2="70" y2="245.1"/>
	<line class="st4" x1="87.6" y1="251.7" x2="116" y2="251.7"/>
	<line class="st4" x1="373.6" y1="373.6" x2="388.1" y2="373.6"/>
	<line class="st4" x1="355.5" y1="362.9" x2="355.5" y2="383.4"/>
	<line class="st4" x1="341.6" y1="373.6" x2="370" y2="373.6"/>
	<line class="st4" x1="337.9" y1="373.6" x2="309.5" y2="373.6"/>
	<line class="st4" x1="324" y1="362.9" x2="324" y2="383.4"/>
	<line class="st4" x1="305.8" y1="373.6" x2="291.4" y2="373.6"/>
	<line class="st4" x1="113.6" y1="260.7" x2="113.6" y2="251.7"/>
	<line class="st4" x1="94.2" y1="260.7" x2="94.2" y2="251.7"/>
	<line class="st4" x1="125.7" y1="294" x2="134.1" y2="294"/>
	<line class="st4" x1="125.7" y1="273.4" x2="134.1" y2="273.4"/>
	<line class="st4" x1="125.7" y1="314.7" x2="134.1" y2="314.7"/>
	<line class="st4" x1="122.1" y1="314.7" x2="113.6" y2="314.7"/>
	<line class="st4" x1="113.6" y1="306.2" x2="113.6" y2="336.3"/>
	<line class="st4" x1="82.1" y1="314.7" x2="73.7" y2="314.7"/>
	<line class="st4" x1="85.7" y1="314.7" x2="94.2" y2="314.7"/>
	<line class="st4" x1="94.2" y1="306.2" x2="94.2" y2="336.3"/>
	<line class="st4" x1="122.1" y1="273.4" x2="105.7" y2="273.4"/>
	<line class="st4" x1="113.6" y1="264.3" x2="113.6" y2="302.5"/>
	<line class="st4" x1="102.1" y1="294" x2="85.7" y2="294"/>
	<line class="st4" x1="85.7" y1="273.4" x2="102.1" y2="273.4"/>
	<line class="st4" x1="82.1" y1="273.4" x2="73.7" y2="273.4"/>
	<line class="st4" x1="82.1" y1="294" x2="73.7" y2="294"/>
	<line class="st4" x1="244.8" y1="377" x2="291.4" y2="377"/>
	<line class="st4" x1="194.6" y1="371" x2="194.6" y2="355.3"/>
	<line class="st4" x1="225.2" y1="355.3" x2="225.2" y2="389"/>
	<line class="st4" x1="260.8" y1="389" x2="260.8" y2="355.3"/>
	<line class="st4" x1="286.8" y1="358.6" x2="291.4" y2="358.6"/>
	<line class="st4" x1="283.1" y1="358.6" x2="278.5" y2="358.6"/>
	<line class="st4" x1="278.5" y1="355.3" x2="278.5" y2="377"/>
	<line class="st4" x1="278.5" y1="351.7" x2="278.5" y2="348.4"/>
	<line class="st4" x1="260.8" y1="351.7" x2="260.8" y2="348.4"/>
	<line class="st4" x1="225.2" y1="351.7" x2="225.2" y2="348.4"/>
	<line class="st4" x1="207.5" y1="351.7" x2="207.5" y2="348.4"/>
	<line class="st4" x1="199.2" y1="358.6" x2="194.6" y2="358.6"/>
	<line class="st4" x1="226.9" y1="235" x2="230.9" y2="235"/>
	<line class="st4" x1="219.4" y1="229.5" x2="219.4" y2="251.7"/>
	<line class="st4" x1="223.3" y1="235" x2="219.4" y2="235"/>
	<line class="st4" x1="223.3" y1="219.2" x2="219.4" y2="219.2"/>
	<line class="st4" x1="226.9" y1="219.2" x2="230.9" y2="219.2"/>
	<line class="st4" x1="219.4" y1="193.2" x2="219.4" y2="225.9"/>
	<line class="st4" x1="219.4" y1="189.6" x2="219.4" y2="179.1"/>
	<line class="st4" x1="198.3" y1="189.6" x2="198.3" y2="179.1"/>
	<line class="st4" x1="198.3" y1="193.2" x2="198.3" y2="203.6"/>
	<line class="st4" x1="145.7" y1="189.6" x2="145.7" y2="179.1"/>
	<line class="st4" x1="166.7" y1="189.6" x2="166.7" y2="179.1"/>
	<line class="st4" x1="166.7" y1="193.2" x2="166.7" y2="203.6"/>
	<line class="st4" x1="141.7" y1="235" x2="145.7" y2="235"/>
	<line class="st4" x1="145.7" y1="229.5" x2="145.7" y2="251.7"/>
	<line class="st4" x1="138.1" y1="235" x2="134.1" y2="235"/>
	<line class="st4" x1="184.3" y1="203.6" x2="230.9" y2="203.6"/>
	<line class="st4" x1="180.7" y1="203.6" x2="134.1" y2="203.6"/>
	<line class="st4" x1="141.7" y1="219.2" x2="145.7" y2="219.2"/>
	<line class="st4" x1="391.8" y1="189.6" x2="391.8" y2="179.1"/>
	<line class="st4" x1="391.8" y1="193.2" x2="391.8" y2="203.6"/>
	<line class="st4" x1="339.2" y1="189.6" x2="339.2" y2="179.1"/>
	<line class="st4" x1="360.2" y1="189.6" x2="360.2" y2="179.1"/>
	<line class="st4" x1="360.2" y1="193.2" x2="360.2" y2="203.6"/>
	<line class="st4" x1="335.2" y1="235" x2="339.2" y2="235"/>
	<line class="st4" x1="339.2" y1="229.5" x2="339.2" y2="251.7"/>
	<line class="st4" x1="331.6" y1="235" x2="327.6" y2="235"/>
	<line class="st4" x1="374.2" y1="203.6" x2="327.6" y2="203.6"/>
	<line class="st4" x1="335.2" y1="219.2" x2="339.2" y2="219.2"/>
	<line class="st4" x1="159.3" y1="97" x2="159.3" y2="82.4"/>
	<line class="st4" x1="205.7" y1="97" x2="205.7" y2="82.4"/>
	<line class="st4" x1="205.7" y1="100.6" x2="205.7" y2="144.4"/>
	<line class="st4" x1="216.5" y1="135.9" x2="205.7" y2="135.9"/>
	<line class="st4" x1="216.5" y1="115.3" x2="184.3" y2="115.3"/>
	<line class="st4" x1="180.7" y1="115.3" x2="148.6" y2="115.3"/>
	<line class="st4" x1="159.3" y1="100.6" x2="159.3" y2="144.4"/>
	<line class="st4" x1="144.9" y1="115.3" x2="134.1" y2="115.3"/>
	<line class="st4" x1="144.9" y1="135.9" x2="134.1" y2="135.9"/>
	<line class="st4" x1="144.9" y1="156.5" x2="134.1" y2="156.5"/>
	<line class="st4" x1="159.3" y1="148" x2="159.3" y2="179.1"/>
	<line class="st4" x1="148.6" y1="156.5" x2="159.3" y2="156.5"/>
	<line class="st4" x1="205.7" y1="148" x2="205.7" y2="179.1"/>
	<line class="st4" x1="216.5" y1="156.5" x2="205.7" y2="156.5"/>
	<line class="st4" x1="220.1" y1="156.5" x2="230.9" y2="156.5"/>
	<line class="st4" x1="148.6" y1="135.9" x2="159.3" y2="135.9"/>
	<line class="st4" x1="158.8" y1="17.3" x2="158.8" y2="9.8"/>
	<line class="st4" x1="174.6" y1="17.3" x2="174.6" y2="9.8"/>
	<line class="st4" x1="180.7" y1="28.5" x2="140.8" y2="28.5"/>
	<line class="st4" x1="158.8" y1="20.9" x2="158.8" y2="44.3"/>
	<line class="st4" x1="158.8" y1="47.9" x2="158.8" y2="71.2"/>
	<line class="st4" x1="174.8" y1="71.2" x2="174.8" y2="63.7"/>
	<line class="st4" x1="143.9" y1="71.2" x2="143.9" y2="63.7"/>
	<line class="st4" x1="143.9" y1="74.9" x2="143.9" y2="82.4"/>
	<line class="st4" x1="158.8" y1="74.9" x2="158.8" y2="82.4"/>
	<line class="st4" x1="174.8" y1="74.9" x2="174.8" y2="82.4"/>
	<line class="st4" x1="190.2" y1="74.9" x2="190.2" y2="82.4"/>
	<line class="st4" x1="206.2" y1="74.9" x2="206.2" y2="82.4"/>
	<line class="st4" x1="221.2" y1="74.9" x2="221.2" y2="82.4"/>
	<line class="st4" x1="221.2" y1="71.2" x2="221.2" y2="63.7"/>
	<line class="st4" x1="190.2" y1="71.2" x2="190.2" y2="63.7"/>
	<line class="st4" x1="206.2" y1="44.3" x2="206.2" y2="20.9"/>
	<line class="st4" x1="224.2" y1="28.5" x2="184.3" y2="28.5"/>
	<line class="st4" x1="190.4" y1="20.9" x2="190.4" y2="28.5"/>
	<line class="st4" x1="174.6" y1="20.9" x2="174.6" y2="28.5"/>
	<line class="st4" x1="230.9" y1="20.9" x2="230.9" y2="44.3"/>
	<line class="st4" x1="227.8" y1="28.5" x2="230.9" y2="28.5"/>
	<line class="st4" x1="227.8" y1="63.7" x2="230.9" y2="63.7"/>
	<line class="st4" x1="184.3" y1="82.4" x2="245.4" y2="82.4"/>
	<line class="st4" x1="180.7" y1="82.4" x2="134.1" y2="82.4"/>
	<line class="st4" x1="324.6" y1="329.8" x2="327.6" y2="329.8"/>
	<line class="st4" x1="324.6" y1="294.5" x2="327.6" y2="294.5"/>
	<line class="st4" x1="271.4" y1="287" x2="271.4" y2="294.5"/>
	<line class="st4" x1="287.2" y1="287" x2="287.2" y2="294.5"/>
	<line class="st4" x1="321" y1="294.5" x2="281.1" y2="294.5"/>
	<line class="st4" x1="303" y1="310.3" x2="303" y2="287"/>
	<line class="st4" x1="287" y1="337.3" x2="287" y2="329.8"/>
	<line class="st4" x1="317.9" y1="337.3" x2="317.9" y2="329.8"/>
	<line class="st4" x1="317.9" y1="340.9" x2="317.9" y2="348.4"/>
	<line class="st4" x1="303" y1="340.9" x2="303" y2="348.4"/>
	<line class="st4" x1="287" y1="340.9" x2="287" y2="348.4"/>
	<line class="st4" x1="271.5" y1="340.9" x2="271.5" y2="348.4"/>
	<line class="st4" x1="255.6" y1="340.9" x2="255.6" y2="348.4"/>
	<line class="st4" x1="240.6" y1="340.9" x2="240.6" y2="348.4"/>
	<line class="st4" x1="240.6" y1="337.3" x2="240.6" y2="329.8"/>
	<line class="st4" x1="271.5" y1="337.3" x2="271.5" y2="329.8"/>
	<line class="st4" x1="255.6" y1="314" x2="255.6" y2="337.3"/>
	<line class="st4" x1="255.6" y1="287" x2="255.6" y2="310.3"/>
	<line class="st4" x1="277.5" y1="294.5" x2="237.6" y2="294.5"/>
	<line class="st4" x1="271.4" y1="283.4" x2="271.4" y2="275.9"/>
	<line class="st4" x1="255.6" y1="283.4" x2="255.6" y2="275.9"/>
	<line class="st4" x1="287.2" y1="283.4" x2="287.2" y2="275.9"/>
	<line class="st4" x1="303" y1="283.4" x2="303" y2="275.9"/>
	<line class="st4" x1="281.1" y1="275.9" x2="327.6" y2="275.9"/>
	<line class="st4" x1="281.1" y1="329.8" x2="321" y2="329.8"/>
	<line class="st4" x1="277.5" y1="329.8" x2="237.6" y2="329.8"/>
	<line class="st4" x1="115.5" y1="61.2" x2="115.5" y2="58.2"/>
	<line class="st4" x1="72.7" y1="58.2" x2="96" y2="58.2"/>
	<line class="st4" x1="72.7" y1="114.5" x2="80.2" y2="114.5"/>
	<line class="st4" x1="72.7" y1="98.7" x2="80.2" y2="98.7"/>
	<line class="st4" x1="80.2" y1="64.9" x2="80.2" y2="104.7"/>
	<line class="st4" x1="96" y1="82.9" x2="72.7" y2="82.9"/>
	<line class="st4" x1="123" y1="98.8" x2="115.5" y2="98.8"/>
	<line class="st4" x1="123" y1="67.9" x2="115.5" y2="67.9"/>
	<line class="st4" x1="126.6" y1="67.9" x2="134.1" y2="67.9"/>
	<line class="st4" x1="126.6" y1="82.9" x2="134.1" y2="82.9"/>
	<line class="st4" x1="126.6" y1="98.8" x2="134.1" y2="98.8"/>
	<line class="st4" x1="126.6" y1="114.3" x2="134.1" y2="114.3"/>
	<line class="st4" x1="126.6" y1="130.2" x2="134.1" y2="130.2"/>
	<line class="st4" x1="126.6" y1="145.2" x2="134.1" y2="145.2"/>
	<line class="st4" x1="123" y1="145.2" x2="115.5" y2="145.2"/>
	<line class="st4" x1="123" y1="114.3" x2="115.5" y2="114.3"/>
	<line class="st4" x1="99.7" y1="130.2" x2="123" y2="130.2"/>
	<line class="st4" x1="72.7" y1="130.2" x2="96" y2="130.2"/>
	<line class="st4" x1="80.2" y1="108.4" x2="80.2" y2="148.3"/>
	<line class="st4" x1="69.1" y1="114.5" x2="61.6" y2="114.5"/>
	<line class="st4" x1="69.1" y1="130.2" x2="61.6" y2="130.2"/>
	<line class="st4" x1="69.1" y1="98.7" x2="61.6" y2="98.7"/>
	<line class="st4" x1="69.1" y1="82.9" x2="61.6" y2="82.9"/>
	<line class="st4" x1="115.5" y1="104.7" x2="115.5" y2="64.9"/>
	<line class="st4" x1="115.5" y1="108.4" x2="115.5" y2="148.3"/>
	<line class="st4" x1="313.2" y1="57.7" x2="327.6" y2="57.7"/>
	<line class="st4" x1="313.2" y1="10.8" x2="327.6" y2="10.8"/>
	<line class="st4" x1="309.5" y1="57.7" x2="281.1" y2="57.7"/>
	<line class="st4" x1="309.5" y1="34" x2="295.1" y2="34"/>
	<line class="st4" x1="295.1" y1="68.2" x2="295.1" y2="24.2"/>
	<line class="st4" x1="249" y1="34" x2="263.5" y2="34"/>
	<line class="st4" x1="277.5" y1="57.7" x2="249" y2="57.7"/>
	<line class="st4" x1="263.5" y1="24.2" x2="263.5" y2="68.2"/>
	<line class="st4" x1="295.1" y1="0" x2="295.1" y2="20.6"/>
	<line class="st4" x1="281.1" y1="10.8" x2="309.5" y2="10.8"/>
	<line class="st4" x1="277.5" y1="10.8" x2="249" y2="10.8"/>
	<line class="st4" x1="263.5" y1="0" x2="263.5" y2="20.6"/>
	<line class="st4" x1="245.4" y1="10.8" x2="230.9" y2="10.8"/>
	<line class="st4" x1="245.4" y1="34" x2="230.9" y2="34"/>
	<line class="st4" x1="245.4" y1="57.7" x2="230.9" y2="57.7"/>
	<line class="st4" x1="51.4" y1="80.2" x2="15" y2="80.2"/>
	<line class="st4" x1="29" y1="71" x2="29" y2="80.2"/>
	<line class="st4" x1="44.8" y1="71" x2="44.8" y2="83.7"/>
	<line class="st4" x1="55" y1="80.2" x2="61.6" y2="80.2"/>
	<line class="st4" x1="55" y1="90.8" x2="61.6" y2="90.8"/>
	<line class="st4" x1="51.4" y1="90.8" x2="44.8" y2="90.8"/>
	<line class="st4" x1="44.8" y1="87.3" x2="44.8" y2="111.8"/>
	<line class="st4" x1="15" y1="111.8" x2="61.6" y2="111.8"/>
	<line class="st4" x1="29" y1="131.6" x2="29" y2="111.8"/>
	<line class="st4" x1="29" y1="135.2" x2="29" y2="154.9"/>
	<line class="st4" x1="381.6" y1="345.4" x2="381.6" y2="348.4"/>
	<line class="st4" x1="346.3" y1="345.4" x2="346.3" y2="348.4"/>
	<line class="st4" x1="389.1" y1="338.7" x2="381.6" y2="338.7"/>
	<line class="st4" x1="389.1" y1="307.8" x2="381.6" y2="307.8"/>
	<line class="st4" x1="381.6" y1="341.8" x2="381.6" y2="301.9"/>
	<line class="st4" x1="365.7" y1="323.7" x2="389.1" y2="323.7"/>
	<line class="st4" x1="335.2" y1="323.7" x2="327.6" y2="323.7"/>
	<line class="st4" x1="362.1" y1="323.7" x2="338.8" y2="323.7"/>
	<line class="st4" x1="346.3" y1="301.9" x2="346.3" y2="341.8"/>
	<line class="st4" x1="335.2" y1="308" x2="327.6" y2="308"/>
	<line class="st4" x1="335.2" y1="276.4" x2="327.6" y2="276.4"/>
	<line class="st4" x1="335.2" y1="292.2" x2="327.6" y2="292.2"/>
	<line class="st4" x1="338.8" y1="292.2" x2="346.3" y2="292.2"/>
	<line class="st4" x1="346.3" y1="258.4" x2="346.3" y2="298.3"/>
	<line class="st4" x1="362.1" y1="276.4" x2="338.8" y2="276.4"/>
	<line class="st4" x1="381.6" y1="254.7" x2="381.6" y2="251.7"/>
	<line class="st4" x1="389.1" y1="292.3" x2="381.6" y2="292.3"/>
	<line class="st4" x1="381.6" y1="258.4" x2="381.6" y2="298.3"/>
	<line class="st4" x1="389.1" y1="276.4" x2="365.7" y2="276.4"/>
	<line class="st4" x1="389.1" y1="261.4" x2="381.6" y2="261.4"/>
	<line class="st4" x1="362.1" y1="251.7" x2="338.8" y2="251.7"/>
	<line class="st4" x1="381.6" y1="176.1" x2="381.6" y2="179.1"/>
	<line class="st4" x1="346.3" y1="176.1" x2="346.3" y2="179.1"/>
	<line class="st4" x1="389.1" y1="169.4" x2="381.6" y2="169.4"/>
	<line class="st4" x1="389.1" y1="138.5" x2="381.6" y2="138.5"/>
	<line class="st4" x1="381.6" y1="172.4" x2="381.6" y2="132.6"/>
	<line class="st4" x1="365.7" y1="154.4" x2="389.1" y2="154.4"/>
	<line class="st4" x1="335.2" y1="154.4" x2="327.6" y2="154.4"/>
	<line class="st4" x1="362.1" y1="154.4" x2="338.8" y2="154.4"/>
	<line class="st4" x1="346.3" y1="132.6" x2="346.3" y2="172.4"/>
	<line class="st4" x1="338.8" y1="138.6" x2="347.3" y2="138.6"/>
	<line class="st4" x1="335.2" y1="138.6" x2="327.6" y2="138.6"/>
	<line class="st4" x1="335.2" y1="107.1" x2="327.6" y2="107.1"/>
	<line class="st4" x1="335.2" y1="122.9" x2="327.6" y2="122.9"/>
	<line class="st4" x1="338.8" y1="122.9" x2="346.3" y2="122.9"/>
	<line class="st4" x1="346.3" y1="89.1" x2="346.3" y2="128.9"/>
	<line class="st4" x1="362.1" y1="107.1" x2="338.8" y2="107.1"/>
	<line class="st4" x1="381.6" y1="85.4" x2="381.6" y2="82.4"/>
	<line class="st4" x1="389.1" y1="123" x2="381.6" y2="123"/>
	<line class="st4" x1="381.6" y1="89.1" x2="381.6" y2="128.9"/>
	<line class="st4" x1="389.1" y1="107.1" x2="365.7" y2="107.1"/>
	<line class="st4" x1="389.1" y1="92.1" x2="381.6" y2="92.1"/>
	<line class="st4" x1="26.3" y1="392.4" x2="18.7" y2="392.4"/>
	<line class="st4" x1="18.7" y1="339.4" x2="18.7" y2="336.3"/>
	<line class="st4" x1="26.3" y1="377" x2="18.7" y2="377"/>
	<line class="st4" x1="18.7" y1="343" x2="18.7" y2="382.9"/>
	<line class="st4" x1="26.3" y1="361" x2="2.9" y2="361"/>
	<line class="st4" x1="26.3" y1="346.1" x2="18.7" y2="346.1"/>
	<line class="st4" x1="29.9" y1="346.1" x2="37.4" y2="346.1"/>
	<line class="st4" x1="29.9" y1="361" x2="37.4" y2="361"/>
	<line class="st4" x1="29.9" y1="377" x2="37.4" y2="377"/>
	<line class="st4" x1="29.9" y1="392.4" x2="37.4" y2="392.4"/>
	<line class="st4" x1="198.3" y1="260.2" x2="198.3" y2="251.7"/>
	<line class="st4" x1="44.8" y1="67.4" x2="44.8" y2="58.2"/>
	<line class="st4" x1="29" y1="67.4" x2="29" y2="58.2"/>
	<line class="st4" x1="55.5" y1="154.9" x2="134.1" y2="154.9"/>
	<line class="st4" x1="80.2" y1="151.9" x2="80.2" y2="154.9"/>
	<line class="st4" x1="70" y1="161.5" x2="70" y2="154.9"/>
	<line class="st4" x1="101.6" y1="161.5" x2="101.6" y2="154.9"/>
	<line class="st4" x1="115.5" y1="151.9" x2="115.5" y2="154.9"/>
	<line class="st4" x1="142.6" y1="390.8" x2="134.1" y2="390.8"/>
	<line class="st4" x1="142.6" y1="370.1" x2="134.1" y2="370.1"/>
	<line class="st4" x1="162.6" y1="390.8" x2="146.2" y2="390.8"/>
	<line class="st4" x1="166.2" y1="390.8" x2="182.6" y2="390.8"/>
	<line class="st4" x1="186.2" y1="370.1" x2="194.6" y2="370.1"/>
	<line class="st4" x1="186.2" y1="390.8" x2="194.6" y2="390.8"/>
	<line class="st4" x1="154.6" y1="357.5" x2="154.6" y2="348.4"/>
	<line class="st4" x1="174.1" y1="357.5" x2="174.1" y2="348.4"/>
	<line class="st4" x1="182.6" y1="370.1" x2="166.2" y2="370.1"/>
	<line class="st4" x1="105.7" y1="294" x2="122.1" y2="294"/>
</g>
<g id="PLAN::POINTILLE">
</g>
<g id="PLAN::POINTILLE_PROGRAMME">
</g>
<g id="PLAN::TRAME_2">
</g>
<g id="PLAN::DETAIL">
</g>
<g id="PLAN::TOPO">
</g>
<g id="PLAN::FOND">
</g>
<g id="INFOS::CADRES_2" class="st0">
	<g class="st12">
		<path class="st13" d="M396.5,1v395.5H1.1V1H396.5 M397.2,0.3H0.4v396.9h396.9V0.3L397.2,0.3z"/>
	</g>
</g>
<g id="BLOCK_SPECTIFIQUES::MEUBLE_FITNESS">
</g>
<g id="BLOCK_SPECTIFIQUES::POTAGER">
</g>
<g id="PLAN::POTEAU">
</g>
<g id="PLAN::FOND_SOL">
</g>
</svg>
