<?xml version="1.0" encoding="utf-8"?>
<!-- Generator: Adobe Illustrator 22.0.1, SVG Export Plug-In . SVG Version: 6.00 Build 0)  -->
<svg version="1.1" xmlns="http://www.w3.org/2000/svg" xmlns:xlink="http://www.w3.org/1999/xlink" x="0px" y="0px" width="397.7px"
	 height="397.6px" viewBox="0 0 397.7 397.6" style="enable-background:new 0 0 397.7 397.6;" xml:space="preserve">
<style type="text/css">
	.st0{display:none;}
	.st1{display:inline;stroke:#FFFFFF;stroke-linecap:round;stroke-linejoin:round;}
	.st2{fill:#FFFFFF;stroke:#FFFFFF;stroke-width:0.4;stroke-miterlimit:10;}
	.st3{fill:none;stroke:#FFFFFF;stroke-linecap:square;}
	.st4{fill:none;stroke:#FFFFFF;stroke-width:0.7;stroke-linecap:square;}
	.st5{fill:none;stroke:#FFFFFF;stroke-width:0.55;stroke-linecap:square;}
	.st6{fill:none;stroke:#FFFFFF;stroke-width:0.6;stroke-linecap:square;stroke-dasharray:2,3;}
	.st7{fill:none;stroke:#FFFFFF;stroke-width:0.2;stroke-linecap:square;stroke-dasharray:2,3;}
	.st8{fill:none;stroke:#FFFFFF;stroke-width:0.3;stroke-linecap:square;}
	.st9{fill:none;stroke:#FFFFFF;stroke-width:0.5;stroke-linecap:square;}
	.st10{fill:none;stroke:#FFFFFF;stroke-width:0.7;stroke-linecap:square;stroke-dasharray:2,3;}
	.st11{fill:none;stroke:#FFFFFF;stroke-width:0.4;stroke-linecap:square;}
	.st12{display:inline;}
	.st13{fill:#FFFFFF;}
	.st14{display:inline;fill:none;stroke:#000000;stroke-linecap:round;stroke-linejoin:round;}
</style>
<g id="FOND" class="st0">
	<rect x="-49.6" y="-534.8" class="st1" width="1470.6" height="1969.9"/>
</g>
<g id="Calque_1" class="st0">
</g>
<g id="PLAN::STRUCTURE_1.1">
	<rect x="198.5" y="255.2" class="st2" width="0.6" height="0.6"/>
	<rect x="198.5" y="255.2" class="st2" width="0.6" height="0.6"/>
	<rect x="170.2" y="255.2" class="st2" width="0.6" height="0.6"/>
	<rect x="170.2" y="255.2" class="st2" width="0.6" height="0.6"/>
	<rect x="141.8" y="255.2" class="st2" width="0.6" height="0.6"/>
	<rect x="141.8" y="255.2" class="st2" width="0.6" height="0.6"/>
	<rect x="311.9" y="255.2" class="st2" width="0.6" height="0.6"/>
	<rect x="311.9" y="255.2" class="st2" width="0.6" height="0.6"/>
	<rect x="283.6" y="255.2" class="st2" width="0.6" height="0.6"/>
	<rect x="283.6" y="255.2" class="st2" width="0.6" height="0.6"/>
	<rect x="85.1" y="226.8" class="st2" width="0.6" height="0.6"/>
	<rect x="85.1" y="226.8" class="st2" width="0.6" height="0.6"/>
	<rect x="113.5" y="226.8" class="st2" width="0.6" height="0.6"/>
	<rect x="113.5" y="226.8" class="st2" width="0.6" height="0.6"/>
	<rect x="255.2" y="226.8" class="st2" width="0.6" height="0.6"/>
	<rect x="255.2" y="226.8" class="st2" width="0.6" height="0.6"/>
	<rect x="226.9" y="226.8" class="st2" width="0.6" height="0.6"/>
	<rect x="226.9" y="226.8" class="st2" width="0.6" height="0.6"/>
	<rect x="198.5" y="226.8" class="st2" width="0.6" height="0.6"/>
	<rect x="198.5" y="226.8" class="st2" width="0.6" height="0.6"/>
	<rect x="170.2" y="226.8" class="st2" width="0.6" height="0.6"/>
	<rect x="170.2" y="226.8" class="st2" width="0.6" height="0.6"/>
	<rect x="141.8" y="226.8" class="st2" width="0.6" height="0.6"/>
	<rect x="141.8" y="226.8" class="st2" width="0.6" height="0.6"/>
	<rect x="311.9" y="226.8" class="st2" width="0.6" height="0.6"/>
	<rect x="311.9" y="226.8" class="st2" width="0.6" height="0.6"/>
	<rect x="283.6" y="226.8" class="st2" width="0.6" height="0.6"/>
	<rect x="283.6" y="226.8" class="st2" width="0.6" height="0.6"/>
	<rect x="85.1" y="198.5" class="st2" width="0.6" height="0.6"/>
	<rect x="85.1" y="198.5" class="st2" width="0.6" height="0.6"/>
	<rect x="113.5" y="198.5" class="st2" width="0.6" height="0.6"/>
	<rect x="113.5" y="198.5" class="st2" width="0.6" height="0.6"/>
	<rect x="255.2" y="198.5" class="st2" width="0.6" height="0.6"/>
	<rect x="255.2" y="198.5" class="st2" width="0.6" height="0.6"/>
	<rect x="226.9" y="198.5" class="st2" width="0.6" height="0.6"/>
	<rect x="226.9" y="198.5" class="st2" width="0.6" height="0.6"/>
	<rect x="198.5" y="198.5" class="st2" width="0.6" height="0.6"/>
	<rect x="198.5" y="198.5" class="st2" width="0.6" height="0.6"/>
	<rect x="170.2" y="198.5" class="st2" width="0.6" height="0.6"/>
	<rect x="170.2" y="198.5" class="st2" width="0.6" height="0.6"/>
	<rect x="141.8" y="198.5" class="st2" width="0.6" height="0.6"/>
	<rect x="141.8" y="198.5" class="st2" width="0.6" height="0.6"/>
	<rect x="311.9" y="198.5" class="st2" width="0.6" height="0.6"/>
	<rect x="311.9" y="198.5" class="st2" width="0.6" height="0.6"/>
	<rect x="283.6" y="198.5" class="st2" width="0.6" height="0.6"/>
	<rect x="283.6" y="198.5" class="st2" width="0.6" height="0.6"/>
	<rect x="85.1" y="170.1" class="st2" width="0.6" height="0.6"/>
	<rect x="85.1" y="170.1" class="st2" width="0.6" height="0.6"/>
	<rect x="113.5" y="170.1" class="st2" width="0.6" height="0.6"/>
	<rect x="113.5" y="170.1" class="st2" width="0.6" height="0.6"/>
	<rect x="255.2" y="170.1" class="st2" width="0.6" height="0.6"/>
	<rect x="255.2" y="170.1" class="st2" width="0.6" height="0.6"/>
	<rect x="226.9" y="170.1" class="st2" width="0.6" height="0.6"/>
	<rect x="226.9" y="170.1" class="st2" width="0.6" height="0.6"/>
	<rect x="198.5" y="170.1" class="st2" width="0.6" height="0.6"/>
	<rect x="198.5" y="170.1" class="st2" width="0.6" height="0.6"/>
	<rect x="170.2" y="170.1" class="st2" width="0.6" height="0.6"/>
	<rect x="170.2" y="170.1" class="st2" width="0.6" height="0.6"/>
	<rect x="141.8" y="170.1" class="st2" width="0.6" height="0.6"/>
	<rect x="141.8" y="170.1" class="st2" width="0.6" height="0.6"/>
	<rect x="311.9" y="170.1" class="st2" width="0.6" height="0.6"/>
	<rect x="311.9" y="170.1" class="st2" width="0.6" height="0.6"/>
	<rect x="283.6" y="170.1" class="st2" width="0.6" height="0.6"/>
	<rect x="283.6" y="170.1" class="st2" width="0.6" height="0.6"/>
	<rect x="85.1" y="141.8" class="st2" width="0.6" height="0.6"/>
	<rect x="85.1" y="141.8" class="st2" width="0.6" height="0.6"/>
	<rect x="113.5" y="141.8" class="st2" width="0.6" height="0.6"/>
	<rect x="113.5" y="141.8" class="st2" width="0.6" height="0.6"/>
	<rect x="255.2" y="141.8" class="st2" width="0.6" height="0.6"/>
	<rect x="255.2" y="141.8" class="st2" width="0.6" height="0.6"/>
	<rect x="226.9" y="141.8" class="st2" width="0.6" height="0.6"/>
	<rect x="226.9" y="141.8" class="st2" width="0.6" height="0.6"/>
	<rect x="198.5" y="141.8" class="st2" width="0.6" height="0.6"/>
	<rect x="198.5" y="141.8" class="st2" width="0.6" height="0.6"/>
	<rect x="170.2" y="141.8" class="st2" width="0.6" height="0.6"/>
	<rect x="170.2" y="141.8" class="st2" width="0.6" height="0.6"/>
	<rect x="141.8" y="141.8" class="st2" width="0.6" height="0.6"/>
	<rect x="141.8" y="141.8" class="st2" width="0.6" height="0.6"/>
	<rect x="311.9" y="141.8" class="st2" width="0.6" height="0.6"/>
	<rect x="311.9" y="141.8" class="st2" width="0.6" height="0.6"/>
	<rect x="283.6" y="141.8" class="st2" width="0.6" height="0.6"/>
	<rect x="283.6" y="141.8" class="st2" width="0.6" height="0.6"/>
	<rect x="85.1" y="113.4" class="st2" width="0.6" height="0.6"/>
	<rect x="85.1" y="113.4" class="st2" width="0.6" height="0.6"/>
	<rect x="113.5" y="113.4" class="st2" width="0.6" height="0.6"/>
	<rect x="113.5" y="113.4" class="st2" width="0.6" height="0.6"/>
	<rect x="255.2" y="113.4" class="st2" width="0.6" height="0.6"/>
	<rect x="255.2" y="113.4" class="st2" width="0.6" height="0.6"/>
	<rect x="226.9" y="113.4" class="st2" width="0.6" height="0.6"/>
	<rect x="226.9" y="113.4" class="st2" width="0.6" height="0.6"/>
	<rect x="198.5" y="113.4" class="st2" width="0.6" height="0.6"/>
	<rect x="198.5" y="113.4" class="st2" width="0.6" height="0.6"/>
	<rect x="170.2" y="113.4" class="st2" width="0.6" height="0.6"/>
	<rect x="170.2" y="113.4" class="st2" width="0.6" height="0.6"/>
	<rect x="141.8" y="113.4" class="st2" width="0.6" height="0.6"/>
	<rect x="141.8" y="113.4" class="st2" width="0.6" height="0.6"/>
	<rect x="311.9" y="113.4" class="st2" width="0.6" height="0.6"/>
	<rect x="311.9" y="113.4" class="st2" width="0.6" height="0.6"/>
	<rect x="283.6" y="113.4" class="st2" width="0.6" height="0.6"/>
	<rect x="283.6" y="113.4" class="st2" width="0.6" height="0.6"/>
	<rect x="85.1" y="85.1" class="st2" width="0.6" height="0.6"/>
	<rect x="85.1" y="85.1" class="st2" width="0.6" height="0.6"/>
	<rect x="113.5" y="85.1" class="st2" width="0.6" height="0.6"/>
	<rect x="113.5" y="85.1" class="st2" width="0.6" height="0.6"/>
	<rect x="255.2" y="85.1" class="st2" width="0.6" height="0.6"/>
	<rect x="255.2" y="85.1" class="st2" width="0.6" height="0.6"/>
	<rect x="226.9" y="85.1" class="st2" width="0.6" height="0.6"/>
	<rect x="226.9" y="85.1" class="st2" width="0.6" height="0.6"/>
	<rect x="198.5" y="85.1" class="st2" width="0.6" height="0.6"/>
	<rect x="198.5" y="85.1" class="st2" width="0.6" height="0.6"/>
	<rect x="170.2" y="85.1" class="st2" width="0.6" height="0.6"/>
	<rect x="170.2" y="85.1" class="st2" width="0.6" height="0.6"/>
	<rect x="141.8" y="85.1" class="st2" width="0.6" height="0.6"/>
	<rect x="141.8" y="85.1" class="st2" width="0.6" height="0.6"/>
	<rect x="311.9" y="85.1" class="st2" width="0.6" height="0.6"/>
	<rect x="311.9" y="85.1" class="st2" width="0.6" height="0.6"/>
	<rect x="283.6" y="85.1" class="st2" width="0.6" height="0.6"/>
	<rect x="283.6" y="85.1" class="st2" width="0.6" height="0.6"/>
	<rect x="113.5" y="56.8" class="st2" width="0.6" height="0.6"/>
	<rect x="113.5" y="56.8" class="st2" width="0.6" height="0.6"/>
	<rect x="255.2" y="56.8" class="st2" width="0.6" height="0.6"/>
	<rect x="255.2" y="56.8" class="st2" width="0.6" height="0.6"/>
	<rect x="226.9" y="56.8" class="st2" width="0.6" height="0.6"/>
	<rect x="226.9" y="56.8" class="st2" width="0.6" height="0.6"/>
	<rect x="198.5" y="56.8" class="st2" width="0.6" height="0.6"/>
	<rect x="198.5" y="56.8" class="st2" width="0.6" height="0.6"/>
	<rect x="170.2" y="56.8" class="st2" width="0.6" height="0.6"/>
	<rect x="170.2" y="56.8" class="st2" width="0.6" height="0.6"/>
	<rect x="141.8" y="56.8" class="st2" width="0.6" height="0.6"/>
	<rect x="141.8" y="56.8" class="st2" width="0.6" height="0.6"/>
	<rect x="283.6" y="56.8" class="st2" width="0.6" height="0.6"/>
	<rect x="283.6" y="56.8" class="st2" width="0.6" height="0.6"/>
	<rect x="113.5" y="340.2" class="st2" width="0.6" height="0.6"/>
	<rect x="113.5" y="340.2" class="st2" width="0.6" height="0.6"/>
	<rect x="255.2" y="340.2" class="st2" width="0.6" height="0.6"/>
	<rect x="255.2" y="340.2" class="st2" width="0.6" height="0.6"/>
	<rect x="226.9" y="340.2" class="st2" width="0.6" height="0.6"/>
	<rect x="226.9" y="340.2" class="st2" width="0.6" height="0.6"/>
	<rect x="198.5" y="340.2" class="st2" width="0.6" height="0.6"/>
	<rect x="198.5" y="340.2" class="st2" width="0.6" height="0.6"/>
	<rect x="170.2" y="340.2" class="st2" width="0.6" height="0.6"/>
	<rect x="170.2" y="340.2" class="st2" width="0.6" height="0.6"/>
	<rect x="141.8" y="340.2" class="st2" width="0.6" height="0.6"/>
	<rect x="141.8" y="340.2" class="st2" width="0.6" height="0.6"/>
	<rect x="283.6" y="340.2" class="st2" width="0.6" height="0.6"/>
	<rect x="283.6" y="340.2" class="st2" width="0.6" height="0.6"/>
	<rect x="85.1" y="311.9" class="st2" width="0.6" height="0.6"/>
	<rect x="85.1" y="311.9" class="st2" width="0.6" height="0.6"/>
	<rect x="113.5" y="311.9" class="st2" width="0.6" height="0.6"/>
	<rect x="113.5" y="311.9" class="st2" width="0.6" height="0.6"/>
	<rect x="255.2" y="311.9" class="st2" width="0.6" height="0.6"/>
	<rect x="255.2" y="311.9" class="st2" width="0.6" height="0.6"/>
	<rect x="226.9" y="311.9" class="st2" width="0.6" height="0.6"/>
	<rect x="226.9" y="311.9" class="st2" width="0.6" height="0.6"/>
	<rect x="198.5" y="311.9" class="st2" width="0.6" height="0.6"/>
	<rect x="198.5" y="311.9" class="st2" width="0.6" height="0.6"/>
	<rect x="170.2" y="311.9" class="st2" width="0.6" height="0.6"/>
	<rect x="170.2" y="311.9" class="st2" width="0.6" height="0.6"/>
	<rect x="141.8" y="311.9" class="st2" width="0.6" height="0.6"/>
	<rect x="141.8" y="311.9" class="st2" width="0.6" height="0.6"/>
	<rect x="311.9" y="311.9" class="st2" width="0.6" height="0.6"/>
	<rect x="311.9" y="311.9" class="st2" width="0.6" height="0.6"/>
	<rect x="283.6" y="311.9" class="st2" width="0.6" height="0.6"/>
	<rect x="283.6" y="311.9" class="st2" width="0.6" height="0.6"/>
	<rect x="85.1" y="283.5" class="st2" width="0.6" height="0.6"/>
	<rect x="85.1" y="283.5" class="st2" width="0.6" height="0.6"/>
	<rect x="113.5" y="283.5" class="st2" width="0.6" height="0.6"/>
	<rect x="113.5" y="283.5" class="st2" width="0.6" height="0.6"/>
	<rect x="255.2" y="283.5" class="st2" width="0.6" height="0.6"/>
	<rect x="255.2" y="283.5" class="st2" width="0.6" height="0.6"/>
	<rect x="226.9" y="283.5" class="st2" width="0.6" height="0.6"/>
	<rect x="226.9" y="283.5" class="st2" width="0.6" height="0.6"/>
	<rect x="198.5" y="283.5" class="st2" width="0.6" height="0.6"/>
	<rect x="198.5" y="283.5" class="st2" width="0.6" height="0.6"/>
	<rect x="170.2" y="283.5" class="st2" width="0.6" height="0.6"/>
	<rect x="170.2" y="283.5" class="st2" width="0.6" height="0.6"/>
	<rect x="141.8" y="283.5" class="st2" width="0.6" height="0.6"/>
	<rect x="141.8" y="283.5" class="st2" width="0.6" height="0.6"/>
	<rect x="311.9" y="283.5" class="st2" width="0.6" height="0.6"/>
	<rect x="311.9" y="283.5" class="st2" width="0.6" height="0.6"/>
	<rect x="283.6" y="283.5" class="st2" width="0.6" height="0.6"/>
	<rect x="283.6" y="283.5" class="st2" width="0.6" height="0.6"/>
	<rect x="85.1" y="255.2" class="st2" width="0.6" height="0.6"/>
	<rect x="85.1" y="255.2" class="st2" width="0.6" height="0.6"/>
	<rect x="113.5" y="255.2" class="st2" width="0.6" height="0.6"/>
	<rect x="113.5" y="255.2" class="st2" width="0.6" height="0.6"/>
	<rect x="255.2" y="255.2" class="st2" width="0.6" height="0.6"/>
	<rect x="255.2" y="255.2" class="st2" width="0.6" height="0.6"/>
	<rect x="226.9" y="255.2" class="st2" width="0.6" height="0.6"/>
	<rect x="226.9" y="255.2" class="st2" width="0.6" height="0.6"/>
</g>
<g id="PLAN::IPN">
</g>
<g id="PLAN::STRUCTURE_2.3">
	<polyline class="st4" points="255.5,262.5 255.5,205.9 248.4,205.9 248.4,262.5 	"/>
	<path class="st4" d="M234.2,255.5c0-37.8,0-75.6,0-113.4c0-3.9-3.2-7.1-7.1-7.1c-18.9,0-37.8,0-56.7,0c-3.9,0-7.1,3.2-7.1,7.1
		c0,37.8,0,75.6,0,113.4c0,3.9,3.2,7.1,7.1,7.1c18.9,0,37.8,0,56.7,0C231.1,262.5,234.2,259.4,234.2,255.5z"/>
	<path class="st4" d="M85.4,312.2c2.8,0,5.7,0,8.5,0c0,11,8.9,19.8,19.8,19.8c0,2.8,0,5.7,0,8.5"/>
	<path class="st4" d="M303.7,312.2c0-75.6,0-151.2,0-226.8c0-11-8.9-19.8-19.8-19.8c-56.7,0-113.4,0-170.1,0
		c-11,0-19.8,8.9-19.8,19.8c0,75.6,0,151.2,0,226.8c0,11,8.9,19.8,19.8,19.8c56.7,0,113.4,0,170.1,0
		C294.8,332,303.7,323.1,303.7,312.2z"/>
	<path class="st4" d="M312.2,312.2c0-75.6,0-151.2,0-226.8c0-15.7-12.7-28.3-28.3-28.3c-56.7,0-113.4,0-170.1,0
		c-15.7,0-28.3,12.7-28.3,28.3c0,75.6,0,151.2,0,226.8c0,15.7,12.7,28.3,28.3,28.3c56.7,0,113.4,0,170.1,0
		C299.5,340.5,312.2,327.8,312.2,312.2z"/>
	<line class="st4" x1="102.9" y1="59.2" x2="106.2" y2="67.1"/>
	<line class="st4" x1="93.7" y1="65.3" x2="99.7" y2="71.4"/>
	<line class="st4" x1="87.6" y1="74.5" x2="95.4" y2="77.8"/>
	<line class="st4" x1="310" y1="74.5" x2="302.2" y2="77.8"/>
	<line class="st4" x1="303.9" y1="65.3" x2="297.9" y2="71.4"/>
	<line class="st4" x1="294.7" y1="59.2" x2="291.4" y2="67.1"/>
	<line class="st4" x1="294.7" y1="338.3" x2="291.4" y2="330.5"/>
	<line class="st4" x1="303.9" y1="332.2" x2="297.9" y2="326.2"/>
	<line class="st4" x1="310" y1="323" x2="302.2" y2="319.7"/>
	<line class="st4" x1="87.6" y1="323" x2="95.4" y2="319.7"/>
	<line class="st4" x1="93.7" y1="332.2" x2="99.7" y2="326.2"/>
	<line class="st4" x1="102.9" y1="338.3" x2="106.2" y2="330.5"/>
	<line class="st4" x1="283.8" y1="57" x2="283.8" y2="65.5"/>
	<line class="st4" x1="255.5" y1="57" x2="255.5" y2="65.5"/>
	<line class="st4" x1="264.9" y1="57" x2="264.9" y2="65.5"/>
	<line class="st4" x1="274.4" y1="57" x2="274.4" y2="65.5"/>
	<line class="st4" x1="246" y1="57" x2="246" y2="65.5"/>
	<line class="st4" x1="236.6" y1="57" x2="236.6" y2="65.5"/>
	<line class="st4" x1="227.1" y1="57" x2="227.1" y2="65.5"/>
	<rect x="142.1" y="262.5" class="st4" width="14.2" height="21.3"/>
	<rect x="241.3" y="262.5" class="st4" width="14.2" height="21.3"/>
	<rect x="241.3" y="113.7" class="st4" width="14.2" height="21.3"/>
	<rect x="142.1" y="113.7" class="st4" width="14.2" height="21.3"/>
	<line class="st4" x1="217.7" y1="57" x2="217.7" y2="65.5"/>
	<line class="st4" x1="208.2" y1="57" x2="208.2" y2="65.5"/>
	<line class="st4" x1="198.8" y1="57" x2="198.8" y2="65.5"/>
	<line class="st4" x1="189.4" y1="57" x2="189.4" y2="65.5"/>
	<line class="st4" x1="179.9" y1="57" x2="179.9" y2="65.5"/>
	<line class="st4" x1="170.5" y1="57" x2="170.5" y2="65.5"/>
	<line class="st4" x1="161" y1="57" x2="161" y2="65.5"/>
	<line class="st4" x1="151.6" y1="57" x2="151.6" y2="65.5"/>
	<line class="st4" x1="142.1" y1="57" x2="142.1" y2="65.5"/>
	<line class="st4" x1="132.7" y1="57" x2="132.7" y2="65.5"/>
	<line class="st4" x1="123.2" y1="57" x2="123.2" y2="65.5"/>
	<line class="st4" x1="113.8" y1="57" x2="113.8" y2="65.5"/>
	<line class="st4" x1="85.4" y1="85.4" x2="93.9" y2="85.4"/>
	<line class="st4" x1="85.4" y1="94.8" x2="93.9" y2="94.8"/>
	<line class="st4" x1="85.4" y1="302.7" x2="93.9" y2="302.7"/>
	<line class="st4" x1="85.4" y1="293.3" x2="93.9" y2="293.3"/>
	<line class="st4" x1="85.4" y1="283.8" x2="93.9" y2="283.8"/>
	<line class="st4" x1="85.4" y1="274.4" x2="93.9" y2="274.4"/>
	<line class="st4" x1="85.4" y1="264.9" x2="93.9" y2="264.9"/>
	<line class="st4" x1="85.4" y1="217.7" x2="93.9" y2="217.7"/>
	<line class="st4" x1="85.4" y1="227.1" x2="93.9" y2="227.1"/>
	<line class="st4" x1="85.4" y1="236.6" x2="93.9" y2="236.6"/>
	<line class="st4" x1="85.4" y1="246" x2="93.9" y2="246"/>
	<line class="st4" x1="85.4" y1="255.5" x2="93.9" y2="255.5"/>
	<line class="st4" x1="85.4" y1="170.4" x2="93.9" y2="170.4"/>
	<line class="st4" x1="85.4" y1="179.9" x2="93.9" y2="179.9"/>
	<line class="st4" x1="85.4" y1="189.3" x2="93.9" y2="189.3"/>
	<line class="st4" x1="85.4" y1="198.8" x2="93.9" y2="198.8"/>
	<line class="st4" x1="85.4" y1="208.2" x2="93.9" y2="208.2"/>
	<line class="st4" x1="85.4" y1="123.2" x2="93.9" y2="123.2"/>
	<line class="st4" x1="85.4" y1="132.6" x2="93.9" y2="132.6"/>
	<line class="st4" x1="85.4" y1="142.1" x2="93.9" y2="142.1"/>
	<line class="st4" x1="85.4" y1="151.5" x2="93.9" y2="151.5"/>
	<line class="st4" x1="85.4" y1="161" x2="93.9" y2="161"/>
	<line class="st4" x1="85.4" y1="113.7" x2="93.9" y2="113.7"/>
	<line class="st4" x1="85.4" y1="104.3" x2="93.9" y2="104.3"/>
	<line class="st4" x1="312.2" y1="293.3" x2="303.7" y2="293.3"/>
	<line class="st4" x1="312.2" y1="283.8" x2="303.7" y2="283.8"/>
	<line class="st4" x1="312.2" y1="236.6" x2="303.7" y2="236.6"/>
	<line class="st4" x1="312.2" y1="246" x2="303.7" y2="246"/>
	<line class="st4" x1="312.2" y1="255.5" x2="303.7" y2="255.5"/>
	<line class="st4" x1="312.2" y1="264.9" x2="303.7" y2="264.9"/>
	<line class="st4" x1="312.2" y1="274.4" x2="303.7" y2="274.4"/>
	<line class="st4" x1="312.2" y1="189.3" x2="303.7" y2="189.3"/>
	<line class="st4" x1="312.2" y1="198.8" x2="303.7" y2="198.8"/>
	<line class="st4" x1="312.2" y1="208.2" x2="303.7" y2="208.2"/>
	<line class="st4" x1="312.2" y1="217.7" x2="303.7" y2="217.7"/>
	<line class="st4" x1="312.2" y1="227.1" x2="303.7" y2="227.1"/>
	<line class="st4" x1="312.2" y1="142.1" x2="303.7" y2="142.1"/>
	<line class="st4" x1="312.2" y1="151.5" x2="303.7" y2="151.5"/>
	<line class="st4" x1="312.2" y1="161" x2="303.7" y2="161"/>
	<line class="st4" x1="312.2" y1="170.4" x2="303.7" y2="170.4"/>
	<line class="st4" x1="312.2" y1="179.9" x2="303.7" y2="179.9"/>
	<line class="st4" x1="312.2" y1="132.6" x2="303.7" y2="132.6"/>
	<line class="st4" x1="312.2" y1="123.2" x2="303.7" y2="123.2"/>
	<line class="st4" x1="312.2" y1="113.7" x2="303.7" y2="113.7"/>
	<line class="st4" x1="312.2" y1="104.3" x2="303.7" y2="104.3"/>
	<line class="st4" x1="312.2" y1="94.8" x2="303.7" y2="94.8"/>
	<line class="st4" x1="312.2" y1="85.4" x2="303.7" y2="85.4"/>
	<line class="st4" x1="312.2" y1="302.7" x2="303.7" y2="302.7"/>
	<polyline class="st4" points="255.5,135 255.5,191.7 248.4,191.7 248.4,135 	"/>
	<polyline class="st4" points="142.1,262.5 142.1,205.9 149.2,205.9 149.2,262.5 	"/>
	<polyline class="st4" points="142.1,135 142.1,191.7 149.2,191.7 149.2,135 	"/>
	<polyline class="st4" points="156.3,276.7 191.7,276.7 191.7,283.8 163.4,283.8 156.3,283.8 	"/>
	<polyline class="st4" points="241.3,283.8 234.2,283.8 205.9,283.8 205.9,276.7 241.3,276.7 	"/>
	<polyline class="st4" points="241.3,113.7 234.2,113.7 205.9,113.7 205.9,120.8 241.3,120.8 	"/>
	<polyline class="st4" points="156.3,120.8 191.7,120.8 191.7,113.7 163.4,113.7 156.3,113.7 	"/>
	<line class="st4" x1="312.2" y1="312.2" x2="303.7" y2="312.2"/>
	<line class="st4" x1="283.8" y1="340.5" x2="283.8" y2="332"/>
	<line class="st4" x1="274.4" y1="340.5" x2="274.4" y2="332"/>
	<line class="st4" x1="264.9" y1="340.5" x2="264.9" y2="332"/>
	<line class="st4" x1="255.5" y1="340.5" x2="255.5" y2="332"/>
	<line class="st4" x1="246" y1="340.5" x2="246" y2="332"/>
	<line class="st4" x1="236.6" y1="340.5" x2="236.6" y2="332"/>
	<line class="st4" x1="227.1" y1="340.5" x2="227.1" y2="332"/>
	<line class="st4" x1="217.7" y1="340.5" x2="217.7" y2="332"/>
	<line class="st4" x1="208.2" y1="340.5" x2="208.2" y2="332"/>
	<line class="st4" x1="198.8" y1="340.5" x2="198.8" y2="332"/>
	<line class="st4" x1="189.4" y1="340.5" x2="189.4" y2="332"/>
	<line class="st4" x1="179.9" y1="340.5" x2="179.9" y2="332"/>
	<line class="st4" x1="170.5" y1="340.5" x2="170.5" y2="332"/>
	<line class="st4" x1="161" y1="340.5" x2="161" y2="332"/>
	<line class="st4" x1="151.6" y1="340.5" x2="151.6" y2="332"/>
	<line class="st4" x1="123.2" y1="340.5" x2="123.2" y2="332"/>
	<line class="st4" x1="132.7" y1="340.5" x2="132.7" y2="332"/>
	<line class="st4" x1="142.1" y1="340.5" x2="142.1" y2="332"/>
</g>
<g id="PLAN::POINTILLE">
	<line class="st6" x1="145.7" y1="251.9" x2="149.2" y2="251.9"/>
	<line class="st6" x1="251.9" y1="152.7" x2="248.4" y2="152.7"/>
	<line class="st6" x1="251.9" y1="145.6" x2="248.4" y2="145.6"/>
	<line class="st6" x1="251.9" y1="138.5" x2="248.4" y2="138.5"/>
	<line class="st6" x1="251.9" y1="181.1" x2="248.4" y2="181.1"/>
	<line class="st6" x1="251.9" y1="174" x2="248.4" y2="174"/>
	<line class="st6" x1="251.9" y1="166.9" x2="248.4" y2="166.9"/>
	<line class="st6" x1="251.9" y1="159.8" x2="248.4" y2="159.8"/>
	<line class="st6" x1="216.5" y1="276.7" x2="216.5" y2="280.3"/>
	<line class="st6" x1="223.6" y1="276.7" x2="223.6" y2="280.3"/>
	<line class="st6" x1="230.7" y1="276.7" x2="230.7" y2="280.3"/>
	<line class="st6" x1="237.8" y1="276.7" x2="237.8" y2="280.3"/>
	<line class="st6" x1="251.9" y1="156.2" x2="248.4" y2="156.2"/>
	<line class="st6" x1="251.9" y1="149.2" x2="248.4" y2="149.2"/>
	<line class="st6" x1="251.9" y1="142.1" x2="248.4" y2="142.1"/>
	<line class="st6" x1="251.9" y1="184.6" x2="248.4" y2="184.6"/>
	<line class="st6" x1="251.9" y1="177.5" x2="248.4" y2="177.5"/>
	<line class="st6" x1="251.9" y1="170.4" x2="248.4" y2="170.4"/>
	<line class="st6" x1="251.9" y1="163.3" x2="248.4" y2="163.3"/>
	<line class="st6" x1="213" y1="276.7" x2="213" y2="280.3"/>
	<line class="st6" x1="220.1" y1="276.7" x2="220.1" y2="280.3"/>
	<line class="st6" x1="227.1" y1="276.7" x2="227.1" y2="280.3"/>
	<line class="st6" x1="234.2" y1="276.7" x2="234.2" y2="280.3"/>
	<line class="st6" x1="209.4" y1="276.7" x2="209.4" y2="280.3"/>
	<line class="st6" x1="159.8" y1="276.7" x2="159.8" y2="280.3"/>
	<line class="st6" x1="184.6" y1="276.7" x2="184.6" y2="280.3"/>
	<line class="st6" x1="177.5" y1="276.7" x2="177.5" y2="280.3"/>
	<line class="st6" x1="170.5" y1="276.7" x2="170.5" y2="280.3"/>
	<line class="st6" x1="163.4" y1="276.7" x2="163.4" y2="280.3"/>
	<line class="st6" x1="188.2" y1="276.7" x2="188.2" y2="280.3"/>
	<line class="st6" x1="181.1" y1="276.7" x2="181.1" y2="280.3"/>
	<line class="st6" x1="174" y1="276.7" x2="174" y2="280.3"/>
	<line class="st6" x1="166.9" y1="276.7" x2="166.9" y2="280.3"/>
	<line class="st6" x1="166.9" y1="120.8" x2="166.9" y2="117.3"/>
	<line class="st6" x1="174" y1="120.8" x2="174" y2="117.3"/>
	<line class="st6" x1="181.1" y1="120.8" x2="181.1" y2="117.3"/>
	<line class="st6" x1="188.2" y1="120.8" x2="188.2" y2="117.3"/>
	<line class="st6" x1="163.4" y1="120.8" x2="163.4" y2="117.3"/>
	<line class="st6" x1="170.5" y1="120.8" x2="170.5" y2="117.3"/>
	<line class="st6" x1="177.5" y1="120.8" x2="177.5" y2="117.3"/>
	<line class="st6" x1="184.6" y1="120.8" x2="184.6" y2="117.3"/>
	<line class="st6" x1="159.8" y1="120.8" x2="159.8" y2="117.3"/>
	<line class="st6" x1="209.4" y1="120.8" x2="209.4" y2="117.3"/>
	<line class="st6" x1="234.2" y1="120.8" x2="234.2" y2="117.3"/>
	<line class="st6" x1="227.1" y1="120.8" x2="227.1" y2="117.3"/>
	<line class="st6" x1="220.1" y1="120.8" x2="220.1" y2="117.3"/>
	<line class="st6" x1="213" y1="120.8" x2="213" y2="117.3"/>
	<line class="st6" x1="237.8" y1="120.8" x2="237.8" y2="117.3"/>
	<line class="st6" x1="230.7" y1="120.8" x2="230.7" y2="117.3"/>
	<line class="st6" x1="223.6" y1="120.8" x2="223.6" y2="117.3"/>
	<line class="st6" x1="216.5" y1="120.8" x2="216.5" y2="117.3"/>
	<line class="st6" x1="251.9" y1="188.1" x2="248.4" y2="188.1"/>
	<line class="st6" x1="251.9" y1="209.4" x2="248.4" y2="209.4"/>
	<line class="st6" x1="251.9" y1="234.2" x2="248.4" y2="234.2"/>
	<line class="st6" x1="251.9" y1="227.1" x2="248.4" y2="227.1"/>
	<line class="st6" x1="251.9" y1="220" x2="248.4" y2="220"/>
	<line class="st6" x1="251.9" y1="212.9" x2="248.4" y2="212.9"/>
	<line class="st6" x1="251.9" y1="255.5" x2="248.4" y2="255.5"/>
	<line class="st6" x1="251.9" y1="248.4" x2="248.4" y2="248.4"/>
	<line class="st6" x1="251.9" y1="241.3" x2="248.4" y2="241.3"/>
	<line class="st6" x1="251.9" y1="237.7" x2="248.4" y2="237.7"/>
	<line class="st6" x1="251.9" y1="230.7" x2="248.4" y2="230.7"/>
	<line class="st6" x1="251.9" y1="223.6" x2="248.4" y2="223.6"/>
	<line class="st6" x1="251.9" y1="216.5" x2="248.4" y2="216.5"/>
	<line class="st6" x1="251.9" y1="259" x2="248.4" y2="259"/>
	<line class="st6" x1="251.9" y1="251.9" x2="248.4" y2="251.9"/>
	<line class="st6" x1="251.9" y1="244.8" x2="248.4" y2="244.8"/>
	<line class="st6" x1="145.7" y1="244.8" x2="149.2" y2="244.8"/>
	<line class="st6" x1="145.7" y1="259" x2="149.2" y2="259"/>
	<line class="st6" x1="145.7" y1="216.5" x2="149.2" y2="216.5"/>
	<line class="st6" x1="145.7" y1="223.6" x2="149.2" y2="223.6"/>
	<line class="st6" x1="145.7" y1="230.7" x2="149.2" y2="230.7"/>
	<line class="st6" x1="145.7" y1="237.7" x2="149.2" y2="237.7"/>
	<line class="st6" x1="145.7" y1="241.3" x2="149.2" y2="241.3"/>
	<line class="st6" x1="145.7" y1="248.4" x2="149.2" y2="248.4"/>
	<line class="st6" x1="145.7" y1="255.5" x2="149.2" y2="255.5"/>
	<line class="st6" x1="145.7" y1="212.9" x2="149.2" y2="212.9"/>
	<line class="st6" x1="145.7" y1="220" x2="149.2" y2="220"/>
	<line class="st6" x1="145.7" y1="227.1" x2="149.2" y2="227.1"/>
	<line class="st6" x1="145.7" y1="234.2" x2="149.2" y2="234.2"/>
	<line class="st6" x1="145.7" y1="209.4" x2="149.2" y2="209.4"/>
	<line class="st6" x1="145.7" y1="188.1" x2="149.2" y2="188.1"/>
	<line class="st6" x1="145.7" y1="163.3" x2="149.2" y2="163.3"/>
	<line class="st6" x1="145.7" y1="170.4" x2="149.2" y2="170.4"/>
	<line class="st6" x1="145.7" y1="177.5" x2="149.2" y2="177.5"/>
	<line class="st6" x1="145.7" y1="184.6" x2="149.2" y2="184.6"/>
	<line class="st6" x1="145.7" y1="142.1" x2="149.2" y2="142.1"/>
	<line class="st6" x1="145.7" y1="149.2" x2="149.2" y2="149.2"/>
	<line class="st6" x1="145.7" y1="156.2" x2="149.2" y2="156.2"/>
	<line class="st6" x1="145.7" y1="159.8" x2="149.2" y2="159.8"/>
	<line class="st6" x1="145.7" y1="166.9" x2="149.2" y2="166.9"/>
	<line class="st6" x1="145.7" y1="174" x2="149.2" y2="174"/>
	<line class="st6" x1="145.7" y1="181.1" x2="149.2" y2="181.1"/>
	<line class="st6" x1="145.7" y1="138.5" x2="149.2" y2="138.5"/>
	<line class="st6" x1="145.7" y1="145.6" x2="149.2" y2="145.6"/>
	<line class="st6" x1="145.7" y1="152.7" x2="149.2" y2="152.7"/>
</g>
<g id="PLAN::POINTILLE_PROGRAMME">
</g>
<g id="PLAN::TRAME_2">
</g>
<g id="PLAN::DETAIL">
</g>
<g id="PLAN::TOPO">
</g>
<g id="PLAN::FOND">
</g>
<g id="INFOS::CADRES_2" class="st0">
	<g class="st12">
		<path class="st13" d="M396.5,1v395.5H1.1V1H396.5 M397.2,0.3H0.4v396.9h396.9V0.3L397.2,0.3z"/>
	</g>
</g>
<g id="BLOCK_SPECTIFIQUES::MEUBLE_FITNESS">
</g>
<g id="BLOCK_SPECTIFIQUES::POTAGER">
	<line class="st11" x1="170.5" y1="262.5" x2="170.5" y2="135"/>
	<line class="st11" x1="177.5" y1="262.5" x2="177.5" y2="135"/>
	<line class="st11" x1="184.6" y1="262.5" x2="184.6" y2="135"/>
	<line class="st11" x1="191.7" y1="262.5" x2="191.7" y2="135"/>
	<line class="st11" x1="198.8" y1="262.5" x2="198.8" y2="135"/>
	<line class="st11" x1="205.9" y1="262.5" x2="205.9" y2="135"/>
	<line class="st11" x1="213" y1="262.5" x2="213" y2="135"/>
	<line class="st11" x1="220.1" y1="262.5" x2="220.1" y2="135"/>
	<line class="st11" x1="227.1" y1="262.5" x2="227.1" y2="135"/>
	<line class="st11" x1="163.4" y1="255.5" x2="234.2" y2="255.5"/>
	<line class="st11" x1="163.4" y1="227.1" x2="234.2" y2="227.1"/>
	<line class="st11" x1="163.4" y1="234.2" x2="234.2" y2="234.2"/>
	<line class="st11" x1="163.4" y1="241.3" x2="234.2" y2="241.3"/>
	<line class="st11" x1="163.4" y1="248.4" x2="234.2" y2="248.4"/>
	<line class="st11" x1="163.4" y1="198.8" x2="234.2" y2="198.8"/>
	<line class="st11" x1="163.4" y1="205.9" x2="234.2" y2="205.9"/>
	<line class="st11" x1="163.4" y1="212.9" x2="234.2" y2="212.9"/>
	<line class="st11" x1="163.4" y1="220" x2="234.2" y2="220"/>
	<line class="st11" x1="163.4" y1="170.4" x2="234.2" y2="170.4"/>
	<line class="st11" x1="163.4" y1="177.5" x2="234.2" y2="177.5"/>
	<line class="st11" x1="163.4" y1="184.6" x2="234.2" y2="184.6"/>
	<line class="st11" x1="163.4" y1="191.7" x2="234.2" y2="191.7"/>
	<line class="st11" x1="163.4" y1="163.3" x2="234.2" y2="163.3"/>
	<line class="st11" x1="163.4" y1="156.2" x2="234.2" y2="156.2"/>
	<line class="st11" x1="163.4" y1="149.2" x2="234.2" y2="149.2"/>
	<line class="st11" x1="163.4" y1="142.1" x2="234.2" y2="142.1"/>
</g>
<g id="PLAN::POTEAU">
</g>
<g id="PLAN::FOND_SOL">
</g>
</svg>
