<?xml version="1.0" encoding="utf-8"?>
<!-- Generator: Adobe Illustrator 22.0.1, SVG Export Plug-In . SVG Version: 6.00 Build 0)  -->
<svg version="1.1" id="Calque_1" xmlns="http://www.w3.org/2000/svg" xmlns:xlink="http://www.w3.org/1999/xlink" x="0px" y="0px"
	 viewBox="0 0 240.6 83" style="enable-background:new 0 0 240.6 83;" xml:space="preserve">
<style type="text/css">
	.st0{display:none;}
	.st1{display:inline;}
	.st2{fill:none;}
	.st3{fill:none;stroke:#000000;stroke-width:0.1;stroke-linecap:square;stroke-miterlimit:10;stroke-dasharray:0.5,0.5;}
	.st4{fill:none;stroke:#000000;stroke-width:5.000000e-02;stroke-linecap:square;stroke-miterlimit:10;}
	.st5{fill:none;stroke:#000000;stroke-width:8.000000e-02;stroke-linecap:square;stroke-miterlimit:10;}
	.st6{fill:none;stroke:#000000;stroke-width:0.27;stroke-linecap:square;stroke-miterlimit:10;}
	.st7{fill:none;stroke:#000000;stroke-width:0.41;stroke-linecap:square;stroke-miterlimit:10;}
</style>
<g id="Calque_1_1_">
</g>
<g id="INFOS_x24_A4" class="st0">
	<g id="POLYLINE_2479_" class="st1">
		<rect x="-173" y="-379.7" class="st2" width="595.3" height="841.9"/>
	</g>
</g>
<g id="PLAN_x24_FOND">
</g>
<g id="PLAN_x24_POINTILLE">
	<g id="POLYLINE_267_">
		<line class="st3" x1="212.7" y1="37.1" x2="206.1" y2="30.6"/>
	</g>
	<g id="POLYLINE_266_">
		<polyline class="st3" points="206.1,30.6 202,30.6 202,37.1 212.7,37.1 		"/>
	</g>
	<g id="POLYLINE_265_">
		<line class="st3" x1="32" y1="64.5" x2="37" y2="69.4"/>
	</g>
</g>
<g id="PLAN_x24_VITRAGE">
	<g id="POLYLINE_940_">
		<line class="st4" x1="188.1" y1="75.7" x2="181.8" y2="75.7"/>
	</g>
	<g id="POLYLINE_941_">
		<line class="st4" x1="207.6" y1="75.7" x2="201.3" y2="75.7"/>
	</g>
	<g id="POLYLINE_942_">
		<line class="st4" x1="226.8" y1="75.7" x2="220.5" y2="75.7"/>
	</g>
	<g id="POLYLINE_943_">
		<line class="st4" x1="168.3" y1="75.7" x2="162.1" y2="75.7"/>
	</g>
	<g id="POLYLINE_944_">
		<line class="st4" x1="149" y1="75.7" x2="142.8" y2="75.7"/>
	</g>
	<g id="POLYLINE_945_">
		<line class="st4" x1="129.8" y1="75.7" x2="123.6" y2="75.7"/>
	</g>
	<g id="POLYLINE_946_">
		<line class="st4" x1="111.2" y1="75.7" x2="105" y2="75.7"/>
	</g>
	<g id="POLYLINE_947_">
		<line class="st4" x1="90.9" y1="75.7" x2="84.6" y2="75.7"/>
	</g>
	<g id="POLYLINE_948_">
		<line class="st4" x1="71.7" y1="75.7" x2="65.4" y2="75.7"/>
	</g>
	<g id="POLYLINE_949_">
		<line class="st4" x1="232.9" y1="73.8" x2="232.9" y2="66.5"/>
	</g>
	<g id="POLYLINE_950_">
		<line class="st4" x1="232.9" y1="64.4" x2="232.9" y2="57.1"/>
	</g>
	<g id="POLYLINE_951_">
		<line class="st4" x1="232.9" y1="55" x2="232.9" y2="47.7"/>
	</g>
	<g id="POLYLINE_952_">
		<line class="st4" x1="232.9" y1="38.3" x2="232.9" y2="45.6"/>
	</g>
	<g id="POLYLINE_953_">
		<line class="st4" x1="232.9" y1="36.1" x2="232.9" y2="28.8"/>
	</g>
	<g id="POLYLINE_954_">
		<line class="st4" x1="232.9" y1="26.7" x2="232.9" y2="19.4"/>
	</g>
	<g id="POLYLINE_955_">
		<line class="st4" x1="232.9" y1="17.3" x2="232.9" y2="10.2"/>
	</g>
	<g id="POLYLINE_956_">
		<line class="st4" x1="221.2" y1="7.7" x2="214.9" y2="7.7"/>
	</g>
	<g id="POLYLINE_957_">
		<line class="st4" x1="201.8" y1="7.7" x2="195.6" y2="7.7"/>
	</g>
	<g id="POLYLINE_958_">
		<line class="st4" x1="182.2" y1="7.7" x2="175.9" y2="7.7"/>
	</g>
	<g id="POLYLINE_959_">
		<line class="st4" x1="162.5" y1="7.7" x2="156.3" y2="7.7"/>
	</g>
	<g id="POLYLINE_960_">
		<line class="st4" x1="143.6" y1="7.7" x2="137.3" y2="7.7"/>
	</g>
	<g id="POLYLINE_961_">
		<line class="st4" x1="124.7" y1="7.7" x2="118.4" y2="7.7"/>
	</g>
	<g id="POLYLINE_962_">
		<line class="st4" x1="106.2" y1="7.7" x2="99.9" y2="7.7"/>
	</g>
	<g id="POLYLINE_963_">
		<line class="st4" x1="88" y1="7.7" x2="81.7" y2="7.7"/>
	</g>
	<g id="POLYLINE_964_">
		<line class="st4" x1="69.1" y1="7.7" x2="62.9" y2="7.7"/>
	</g>
	<g id="POLYLINE_965_">
		<line class="st4" x1="6.6" y1="10.2" x2="6.6" y2="17.1"/>
	</g>
	<g id="POLYLINE_966_">
		<line class="st4" x1="6.6" y1="19.6" x2="6.6" y2="26.5"/>
	</g>
	<g id="POLYLINE_967_">
		<line class="st4" x1="6.6" y1="29" x2="6.6" y2="35.9"/>
	</g>
	<g id="POLYLINE_968_">
		<line class="st4" x1="6.6" y1="38.5" x2="6.6" y2="45.4"/>
	</g>
	<g id="POLYLINE_969_">
		<line class="st4" x1="6.6" y1="47.9" x2="6.6" y2="54.8"/>
	</g>
	<g id="POLYLINE_970_">
		<line class="st4" x1="6.6" y1="57.3" x2="6.6" y2="64.2"/>
	</g>
	<g id="POLYLINE_971_">
		<line class="st4" x1="6.6" y1="66.7" x2="6.6" y2="73.6"/>
	</g>
</g>
<g id="PLAN_x24_MOBILIER">
</g>
<g id="PLAN_x24_DETAIL">
	<g id="POLYLINE_169_">
		<line class="st5" x1="10.4" y1="65" x2="10.4" y2="60.5"/>
	</g>
	<g id="ARC_3_">
		<path class="st5" d="M14.9,65c0-2.5-2-4.5-4.5-4.5"/>
	</g>
	<g id="ARC_2_">
		<path class="st5" d="M19.4,60.5c-2.5,0-4.5,2-4.5,4.5"/>
	</g>
	<g id="POLYLINE_168_">
		<line class="st5" x1="19.4" y1="60.5" x2="19.4" y2="65"/>
	</g>
	<g id="POLYLINE_167_">
		<line class="st5" x1="212.7" y1="37.1" x2="214.6" y2="37.1"/>
	</g>
	<g id="POLYLINE_166_">
		<line class="st5" x1="214.6" y1="37.1" x2="214.6" y2="30.6"/>
	</g>
	<g id="POLYLINE_165_">
		<line class="st5" x1="214.6" y1="30.6" x2="206.1" y2="30.6"/>
	</g>
	<g id="POLYLINE_164_">
		<line class="st5" x1="37" y1="69.4" x2="29.7" y2="69.4"/>
	</g>
	<g id="POLYLINE_163_">
		<line class="st5" x1="29.7" y1="69.4" x2="29.7" y2="64.5"/>
	</g>
	<g id="POLYLINE_162_">
		<line class="st5" x1="31" y1="69.4" x2="31" y2="64.5"/>
	</g>
	<g id="POLYLINE_161_">
		<line class="st5" x1="32.2" y1="69.4" x2="32.2" y2="64.6"/>
	</g>
	<g id="POLYLINE_160_">
		<line class="st5" x1="33.4" y1="69.4" x2="33.4" y2="65.8"/>
	</g>
	<g id="POLYLINE_159_">
		<line class="st5" x1="34.6" y1="69.4" x2="34.6" y2="67"/>
	</g>
	<g id="POLYLINE_158_">
		<line class="st5" x1="35.8" y1="69.4" x2="35.8" y2="68.2"/>
	</g>
	<g id="POLYLINE_157_">
		<line class="st5" x1="71.7" y1="76.2" x2="65.4" y2="76.2"/>
	</g>
	<g id="POLYLINE_156_">
		<line class="st5" x1="71.7" y1="75.3" x2="65.4" y2="75.3"/>
	</g>
	<g id="POLYLINE_155_">
		<polyline class="st5" points="71.7,74.7 71.7,74 65.4,74 65.4,74.7 		"/>
	</g>
	<g id="POLYLINE_154_">
		<polyline class="st5" points="65.4,77.3 65.4,78.1 71.7,78.1 71.7,77.3 		"/>
	</g>
	<g id="POLYLINE_153_">
		<line class="st5" x1="90.9" y1="76.2" x2="84.6" y2="76.2"/>
	</g>
	<g id="POLYLINE_152_">
		<line class="st5" x1="90.9" y1="75.3" x2="84.6" y2="75.3"/>
	</g>
	<g id="POLYLINE_151_">
		<polyline class="st5" points="90.9,74.7 90.9,74 84.6,74 84.6,74.7 		"/>
	</g>
	<g id="POLYLINE_150_">
		<polyline class="st5" points="84.6,77.3 84.6,78.1 90.9,78.1 90.9,77.3 		"/>
	</g>
	<g id="POLYLINE_149_">
		<line class="st5" x1="111.2" y1="76.2" x2="105" y2="76.2"/>
	</g>
	<g id="POLYLINE_148_">
		<line class="st5" x1="111.2" y1="75.3" x2="105" y2="75.3"/>
	</g>
	<g id="POLYLINE_147_">
		<polyline class="st5" points="111.2,74.7 111.2,74 105,74 105,74.7 		"/>
	</g>
	<g id="POLYLINE_146_">
		<polyline class="st5" points="105,77.3 105,78.1 111.2,78.1 111.2,77.3 		"/>
	</g>
	<g id="POLYLINE_145_">
		<line class="st5" x1="129.8" y1="76.2" x2="123.6" y2="76.2"/>
	</g>
	<g id="POLYLINE_144_">
		<line class="st5" x1="129.8" y1="75.3" x2="123.6" y2="75.3"/>
	</g>
	<g id="POLYLINE_143_">
		<polyline class="st5" points="129.8,74.7 129.8,74 123.6,74 123.6,74.7 		"/>
	</g>
	<g id="POLYLINE_142_">
		<polyline class="st5" points="123.6,77.3 123.6,78.1 129.8,78.1 129.8,77.3 		"/>
	</g>
	<g id="POLYLINE_141_">
		<line class="st5" x1="149" y1="76.2" x2="142.8" y2="76.2"/>
	</g>
	<g id="POLYLINE_140_">
		<line class="st5" x1="149" y1="75.3" x2="142.8" y2="75.3"/>
	</g>
	<g id="POLYLINE_139_">
		<polyline class="st5" points="149,74.7 149,74 142.8,74 142.8,74.7 		"/>
	</g>
	<g id="POLYLINE_138_">
		<polyline class="st5" points="142.8,77.3 142.8,78.1 149,78.1 149,77.3 		"/>
	</g>
	<g id="POLYLINE_137_">
		<line class="st5" x1="168.3" y1="76.2" x2="162.1" y2="76.2"/>
	</g>
	<g id="POLYLINE_136_">
		<line class="st5" x1="168.3" y1="75.3" x2="162.1" y2="75.3"/>
	</g>
	<g id="POLYLINE_135_">
		<polyline class="st5" points="168.3,74.7 168.3,74 162.1,74 162.1,74.7 		"/>
	</g>
	<g id="POLYLINE_134_">
		<polyline class="st5" points="162.1,77.3 162.1,78.1 168.3,78.1 168.3,77.3 		"/>
	</g>
	<g id="POLYLINE_133_">
		<line class="st5" x1="188.1" y1="76.2" x2="181.8" y2="76.2"/>
	</g>
	<g id="POLYLINE_132_">
		<line class="st5" x1="188.1" y1="75.3" x2="181.8" y2="75.3"/>
	</g>
	<g id="POLYLINE_131_">
		<polyline class="st5" points="188.1,74.7 188.1,74 181.8,74 181.8,74.7 		"/>
	</g>
	<g id="POLYLINE_130_">
		<polyline class="st5" points="181.8,77.3 181.8,78.1 188.1,78.1 188.1,77.3 		"/>
	</g>
	<g id="POLYLINE_129_">
		<line class="st5" x1="207.6" y1="76.2" x2="201.3" y2="76.2"/>
	</g>
	<g id="POLYLINE_128_">
		<line class="st5" x1="207.6" y1="75.3" x2="201.3" y2="75.3"/>
	</g>
	<g id="POLYLINE_127_">
		<polyline class="st5" points="207.6,74.7 207.6,74 201.3,74 201.3,74.7 		"/>
	</g>
	<g id="POLYLINE_126_">
		<polyline class="st5" points="201.3,77.3 201.3,78.1 207.6,78.1 207.6,77.3 		"/>
	</g>
	<g id="POLYLINE_125_">
		<line class="st5" x1="226.8" y1="76.2" x2="220.5" y2="76.2"/>
	</g>
	<g id="POLYLINE_124_">
		<line class="st5" x1="226.8" y1="75.3" x2="220.5" y2="75.3"/>
	</g>
	<g id="POLYLINE_123_">
		<polyline class="st5" points="226.8,74.7 226.8,74 220.5,74 220.5,74.7 		"/>
	</g>
	<g id="POLYLINE_122_">
		<polyline class="st5" points="220.5,77.3 220.5,78.1 226.8,78.1 226.8,77.3 		"/>
	</g>
	<g id="POLYLINE_121_">
		<line class="st5" x1="221.2" y1="8.2" x2="214.9" y2="8.2"/>
	</g>
	<g id="POLYLINE_120_">
		<line class="st5" x1="221.2" y1="7.3" x2="214.9" y2="7.3"/>
	</g>
	<g id="POLYLINE_119_">
		<polyline class="st5" points="221.2,6.7 221.2,5.9 214.9,5.9 214.9,6.7 		"/>
	</g>
	<g id="POLYLINE_118_">
		<polyline class="st5" points="214.9,9.2 214.9,10.1 221.2,10.1 221.2,9.2 		"/>
	</g>
	<g id="POLYLINE_117_">
		<line class="st5" x1="201.8" y1="8.2" x2="195.6" y2="8.2"/>
	</g>
	<g id="POLYLINE_116_">
		<line class="st5" x1="201.8" y1="7.3" x2="195.6" y2="7.3"/>
	</g>
	<g id="POLYLINE_115_">
		<polyline class="st5" points="201.8,6.7 201.8,5.9 195.6,5.9 195.6,6.7 		"/>
	</g>
	<g id="POLYLINE_114_">
		<polyline class="st5" points="195.6,9.2 195.6,10.1 201.8,10.1 201.8,9.2 		"/>
	</g>
	<g id="POLYLINE_113_">
		<line class="st5" x1="182.2" y1="8.2" x2="175.9" y2="8.2"/>
	</g>
	<g id="POLYLINE_112_">
		<line class="st5" x1="182.2" y1="7.3" x2="175.9" y2="7.3"/>
	</g>
	<g id="POLYLINE_111_">
		<polyline class="st5" points="182.2,6.7 182.2,5.9 175.9,5.9 175.9,6.7 		"/>
	</g>
	<g id="POLYLINE_110_">
		<polyline class="st5" points="175.9,9.2 175.9,10.1 182.2,10.1 182.2,9.2 		"/>
	</g>
	<g id="POLYLINE_109_">
		<line class="st5" x1="162.5" y1="8.2" x2="156.3" y2="8.2"/>
	</g>
	<g id="POLYLINE_108_">
		<line class="st5" x1="162.5" y1="7.3" x2="156.3" y2="7.3"/>
	</g>
	<g id="POLYLINE_107_">
		<polyline class="st5" points="162.5,6.7 162.5,5.9 156.3,5.9 156.3,6.7 		"/>
	</g>
	<g id="POLYLINE_106_">
		<polyline class="st5" points="156.3,9.2 156.3,10.1 162.5,10.1 162.5,9.2 		"/>
	</g>
	<g id="POLYLINE_105_">
		<line class="st5" x1="143.6" y1="8.2" x2="137.3" y2="8.2"/>
	</g>
	<g id="POLYLINE_104_">
		<line class="st5" x1="143.6" y1="7.3" x2="137.3" y2="7.3"/>
	</g>
	<g id="POLYLINE_103_">
		<polyline class="st5" points="143.6,6.7 143.6,5.9 137.3,5.9 137.3,6.7 		"/>
	</g>
	<g id="POLYLINE_102_">
		<polyline class="st5" points="137.3,9.2 137.3,10.1 143.6,10.1 143.6,9.2 		"/>
	</g>
	<g id="POLYLINE_101_">
		<line class="st5" x1="124.7" y1="8.2" x2="118.4" y2="8.2"/>
	</g>
	<g id="POLYLINE_100_">
		<line class="st5" x1="124.7" y1="7.3" x2="118.4" y2="7.3"/>
	</g>
	<g id="POLYLINE_99_">
		<polyline class="st5" points="124.7,6.7 124.7,5.9 118.4,5.9 118.4,6.7 		"/>
	</g>
	<g id="POLYLINE_98_">
		<polyline class="st5" points="118.4,9.2 118.4,10.1 124.7,10.1 124.7,9.2 		"/>
	</g>
	<g id="POLYLINE_97_">
		<line class="st5" x1="106.2" y1="8.2" x2="99.9" y2="8.2"/>
	</g>
	<g id="POLYLINE_96_">
		<line class="st5" x1="106.2" y1="7.3" x2="99.9" y2="7.3"/>
	</g>
	<g id="POLYLINE_95_">
		<polyline class="st5" points="106.2,6.7 106.2,5.9 99.9,5.9 99.9,6.7 		"/>
	</g>
	<g id="POLYLINE_94_">
		<polyline class="st5" points="99.9,9.2 99.9,10.1 106.2,10.1 106.2,9.2 		"/>
	</g>
	<g id="POLYLINE_93_">
		<line class="st5" x1="88" y1="8.2" x2="81.7" y2="8.2"/>
	</g>
	<g id="POLYLINE_92_">
		<line class="st5" x1="88" y1="7.3" x2="81.7" y2="7.3"/>
	</g>
	<g id="POLYLINE_91_">
		<polyline class="st5" points="88,6.7 88,5.9 81.7,5.9 81.7,6.7 		"/>
	</g>
	<g id="POLYLINE_90_">
		<polyline class="st5" points="81.7,9.2 81.7,10.1 88,10.1 88,9.2 		"/>
	</g>
	<g id="POLYLINE_89_">
		<polyline class="st5" points="62.9,9.2 62.9,10.1 69.1,10.1 69.1,9.2 		"/>
	</g>
	<g id="POLYLINE_88_">
		<polyline class="st5" points="69.1,6.7 69.1,5.9 62.9,5.9 62.9,6.7 		"/>
	</g>
	<g id="POLYLINE_87_">
		<line class="st5" x1="4.8" y1="66.7" x2="4.8" y2="73.6"/>
	</g>
	<g id="POLYLINE_86_">
		<line class="st5" x1="6.2" y1="66.7" x2="6.2" y2="73.6"/>
	</g>
	<g id="POLYLINE_85_">
		<line class="st5" x1="7" y1="66.7" x2="7" y2="73.6"/>
	</g>
	<g id="POLYLINE_84_">
		<line class="st5" x1="8.3" y1="73.6" x2="8.3" y2="66.7"/>
	</g>
	<g id="POLYLINE_83_">
		<line class="st5" x1="4.8" y1="57.3" x2="4.8" y2="64.2"/>
	</g>
	<g id="POLYLINE_82_">
		<line class="st5" x1="6.2" y1="57.3" x2="6.2" y2="64.2"/>
	</g>
	<g id="POLYLINE_81_">
		<line class="st5" x1="7" y1="57.3" x2="7" y2="64.2"/>
	</g>
	<g id="POLYLINE_80_">
		<line class="st5" x1="8.3" y1="64.2" x2="8.3" y2="57.3"/>
	</g>
	<g id="POLYLINE_79_">
		<line class="st5" x1="4.8" y1="47.9" x2="4.8" y2="54.8"/>
	</g>
	<g id="POLYLINE_78_">
		<line class="st5" x1="6.2" y1="47.9" x2="6.2" y2="54.8"/>
	</g>
	<g id="POLYLINE_77_">
		<line class="st5" x1="7" y1="47.9" x2="7" y2="54.8"/>
	</g>
	<g id="POLYLINE_76_">
		<line class="st5" x1="8.3" y1="54.8" x2="8.3" y2="47.9"/>
	</g>
	<g id="POLYLINE_75_">
		<line class="st5" x1="4.8" y1="38.5" x2="4.8" y2="45.4"/>
	</g>
	<g id="POLYLINE_74_">
		<line class="st5" x1="6.2" y1="38.5" x2="6.2" y2="45.4"/>
	</g>
	<g id="POLYLINE_73_">
		<line class="st5" x1="7" y1="38.5" x2="7" y2="45.4"/>
	</g>
	<g id="POLYLINE_72_">
		<line class="st5" x1="8.3" y1="45.4" x2="8.3" y2="38.5"/>
	</g>
	<g id="POLYLINE_71_">
		<line class="st5" x1="4.8" y1="29" x2="4.8" y2="35.9"/>
	</g>
	<g id="POLYLINE_70_">
		<line class="st5" x1="6.2" y1="29" x2="6.2" y2="35.9"/>
	</g>
	<g id="POLYLINE_69_">
		<line class="st5" x1="7" y1="29" x2="7" y2="35.9"/>
	</g>
	<g id="POLYLINE_68_">
		<line class="st5" x1="8.3" y1="35.9" x2="8.3" y2="29"/>
	</g>
	<g id="POLYLINE_67_">
		<line class="st5" x1="4.8" y1="10.2" x2="4.8" y2="17.1"/>
	</g>
	<g id="POLYLINE_66_">
		<line class="st5" x1="6.2" y1="10.2" x2="6.2" y2="17.1"/>
	</g>
	<g id="POLYLINE_65_">
		<line class="st5" x1="7" y1="10.2" x2="7" y2="17.1"/>
	</g>
	<g id="POLYLINE_64_">
		<line class="st5" x1="8.3" y1="17.1" x2="8.3" y2="10.2"/>
	</g>
	<g id="POLYLINE_63_">
		<line class="st5" x1="8.3" y1="26.5" x2="8.3" y2="19.6"/>
	</g>
	<g id="POLYLINE_62_">
		<line class="st5" x1="7" y1="19.6" x2="7" y2="26.5"/>
	</g>
	<g id="POLYLINE_61_">
		<line class="st5" x1="6.2" y1="19.6" x2="6.2" y2="26.5"/>
	</g>
	<g id="POLYLINE_60_">
		<line class="st5" x1="4.8" y1="19.6" x2="4.8" y2="26.5"/>
	</g>
	<g id="POLYLINE_59_">
		<polyline class="st5" points="8.3,37.9 9.1,37.9 9.1,36.5 8.3,36.5 		"/>
	</g>
	<g id="POLYLINE_58_">
		<polyline class="st5" points="230.4,36.5 229.6,36.5 229.6,37.9 230.4,37.9 		"/>
	</g>
	<g id="POLYLINE_57_">
		<rect x="22.9" y="36.5" class="st5" width="1.4" height="1.4"/>
	</g>
	<g id="POLYLINE_56_">
		<rect x="37.6" y="36.5" class="st5" width="1.4" height="1.4"/>
	</g>
	<g id="POLYLINE_55_">
		<rect x="50.8" y="36.5" class="st5" width="1.4" height="1.4"/>
	</g>
	<g id="POLYLINE_54_">
		<rect x="67.3" y="36.5" class="st5" width="1.4" height="1.4"/>
	</g>
	<g id="POLYLINE_53_">
		<rect x="82.3" y="36.5" class="st5" width="1.4" height="1.4"/>
	</g>
	<g id="POLYLINE_47_">
		<rect x="97.8" y="36.5" class="st5" width="1.4" height="1.4"/>
	</g>
	<g id="POLYLINE_46_">
		<rect x="112.2" y="36.5" class="st5" width="1.4" height="1.4"/>
	</g>
	<g id="POLYLINE_45_">
		<rect x="128" y="36.5" class="st5" width="1.4" height="1.4"/>
	</g>
	<g id="POLYLINE_44_">
		<rect x="141.8" y="36.5" class="st5" width="1.4" height="1.4"/>
	</g>
	<g id="POLYLINE_43_">
		<rect x="156.8" y="36.5" class="st5" width="1.4" height="1.4"/>
	</g>
	<g id="POLYLINE_42_">
		<rect x="171.3" y="36.5" class="st5" width="1.4" height="1.4"/>
	</g>
	<g id="POLYLINE_41_">
		<rect x="185.8" y="36.5" class="st5" width="1.4" height="1.4"/>
	</g>
	<g id="POLYLINE_40_">
		<rect x="200.4" y="36.5" class="st5" width="1.4" height="1.4"/>
	</g>
	<g id="POLYLINE_39_">
		<rect x="215.8" y="36.5" class="st5" width="1.4" height="1.4"/>
	</g>
	<g id="POLYLINE_38_">
		<line class="st5" x1="69.1" y1="7.3" x2="62.9" y2="7.3"/>
	</g>
	<g id="POLYLINE_37_">
		<line class="st5" x1="69.1" y1="8.2" x2="62.9" y2="8.2"/>
	</g>
	<g id="POLYLINE_36_">
		<line class="st5" x1="233.3" y1="37.7" x2="233.3" y2="46.1"/>
	</g>
	<g id="POLYLINE_35_">
		<line class="st5" x1="233.3" y1="47.1" x2="233.3" y2="55.5"/>
	</g>
	<g id="POLYLINE_34_">
		<line class="st5" x1="233.3" y1="56.5" x2="233.3" y2="64.9"/>
	</g>
	<g id="POLYLINE_33_">
		<line class="st5" x1="233.3" y1="65.9" x2="233.3" y2="74.4"/>
	</g>
	<g id="POLYLINE_32_">
		<line class="st5" x1="232.5" y1="38.3" x2="232.5" y2="45.6"/>
	</g>
	<g id="POLYLINE_31_">
		<line class="st5" x1="232.5" y1="47.7" x2="232.5" y2="55"/>
	</g>
	<g id="POLYLINE_30_">
		<line class="st5" x1="232.5" y1="57.1" x2="232.5" y2="64.4"/>
	</g>
	<g id="POLYLINE_29_">
		<line class="st5" x1="232.5" y1="66.5" x2="232.5" y2="73.8"/>
	</g>
	<g id="POLYLINE_28_">
		<line class="st5" x1="232" y1="38.3" x2="232" y2="45.6"/>
	</g>
	<g id="POLYLINE_27_">
		<line class="st5" x1="232" y1="47.7" x2="232" y2="55"/>
	</g>
	<g id="POLYLINE_26_">
		<line class="st5" x1="232" y1="57.1" x2="232" y2="64.4"/>
	</g>
	<g id="POLYLINE_25_">
		<line class="st5" x1="232" y1="66.5" x2="232" y2="73.8"/>
	</g>
	<g id="POLYLINE_24_">
		<line class="st5" x1="233.9" y1="38.2" x2="233.9" y2="45.6"/>
	</g>
	<g id="POLYLINE_21_">
		<line class="st5" x1="233.9" y1="47.6" x2="233.9" y2="55"/>
	</g>
	<g id="POLYLINE_20_">
		<line class="st5" x1="233.9" y1="57" x2="233.9" y2="64.4"/>
	</g>
	<g id="POLYLINE_19_">
		<line class="st5" x1="233.9" y1="66.5" x2="233.9" y2="73.8"/>
	</g>
	<g id="POLYLINE_18_">
		<line class="st5" x1="232" y1="10.2" x2="232" y2="17.3"/>
	</g>
	<g id="POLYLINE_17_">
		<line class="st5" x1="232" y1="19.4" x2="232" y2="26.7"/>
	</g>
	<g id="POLYLINE_16_">
		<line class="st5" x1="232.5" y1="10.2" x2="232.5" y2="17.3"/>
	</g>
	<g id="POLYLINE_15_">
		<line class="st5" x1="232.5" y1="19.4" x2="232.5" y2="26.7"/>
	</g>
	<g id="POLYLINE_14_">
		<line class="st5" x1="233.3" y1="9.6" x2="233.3" y2="17.9"/>
	</g>
	<g id="POLYLINE_13_">
		<line class="st5" x1="233.3" y1="18.9" x2="233.3" y2="27.3"/>
	</g>
	<g id="POLYLINE_10_">
		<line class="st5" x1="233.9" y1="10.1" x2="233.9" y2="17.4"/>
	</g>
	<g id="POLYLINE_9_">
		<line class="st5" x1="233.9" y1="19.4" x2="233.9" y2="26.8"/>
	</g>
	<g id="POLYLINE_8_">
		<line class="st5" x1="207.3" y1="30.6" x2="207.3" y2="31.8"/>
	</g>
	<g id="POLYLINE_7_">
		<line class="st5" x1="208.5" y1="30.6" x2="208.5" y2="33"/>
	</g>
	<g id="POLYLINE_6_">
		<line class="st5" x1="209.7" y1="30.6" x2="209.7" y2="34.2"/>
	</g>
	<g id="POLYLINE_5_">
		<line class="st5" x1="210.9" y1="30.6" x2="210.9" y2="35.4"/>
	</g>
	<g id="POLYLINE_4_">
		<line class="st5" x1="213.4" y1="30.6" x2="213.4" y2="37.1"/>
	</g>
	<g id="POLYLINE_3_">
		<line class="st5" x1="212.2" y1="30.6" x2="212.2" y2="36.6"/>
	</g>
	<g id="ARC_1_">
		<path class="st5" d="M24.2,69.3c3.1,0,5.6-2.5,5.6-5.6"/>
	</g>
	<g id="POLYLINE_2_">
		<line class="st5" x1="24.2" y1="69.3" x2="24.2" y2="63.7"/>
	</g>
	<g id="POLYLINE_1_">
		<rect x="25.5" y="69.8" class="st5" width="3.4" height="3.4"/>
	</g>
	<g id="LINE_4_">
		<line class="st5" x1="233.3" y1="28.3" x2="233.3" y2="36.7"/>
	</g>
	<g id="LINE_3_">
		<line class="st5" x1="232.5" y1="28.8" x2="232.5" y2="36.1"/>
	</g>
	<g id="LINE_2_">
		<line class="st5" x1="232" y1="28.8" x2="232" y2="36.1"/>
	</g>
	<g id="LINE_1_">
		<line class="st5" x1="233.9" y1="28.8" x2="233.9" y2="36.2"/>
	</g>
</g>
<g id="PLAN_x24_CLOISON_TRANSLUCIDE">
</g>
<g id="PLAN_x24_CLOISON_1.3">
</g>
<g id="PLAN_x24_CLOISON_1.2">
</g>
<g id="PLAN_x24_CLOISON_1.1">
</g>
<g id="PLAN_x24_STRUCTURE_2.3">
	<g id="ARC_39_">
		<path class="st6" d="M230.4,36.8c-0.2,0-0.4,0.2-0.4,0.4s0.2,0.4,0.4,0.4"/>
	</g>
	<g id="CIRCLE_14_">
		<path class="st6" d="M128.3,37.2c0-0.2,0.2-0.4,0.4-0.4c0.2,0,0.4,0.2,0.4,0.4s-0.2,0.4-0.4,0.4C128.5,37.6,128.3,37.4,128.3,37.2
			L128.3,37.2z"/>
	</g>
	<g id="CIRCLE_13_">
		<path class="st6" d="M23.1,37.2c0-0.2,0.2-0.4,0.4-0.4S24,37,24,37.2s-0.2,0.4-0.4,0.4C23.4,37.6,23.1,37.4,23.1,37.2L23.1,37.2z"
			/>
	</g>
	<g id="CIRCLE_12_">
		<path class="st6" d="M37.9,37.2c0-0.2,0.2-0.4,0.4-0.4s0.4,0.2,0.4,0.4s-0.2,0.4-0.4,0.4C38.1,37.6,37.9,37.4,37.9,37.2L37.9,37.2
			z"/>
	</g>
	<g id="CIRCLE_11_">
		<path class="st6" d="M51.1,37.2c0-0.2,0.2-0.4,0.4-0.4S52,37,52,37.2s-0.2,0.4-0.4,0.4C51.3,37.6,51.1,37.4,51.1,37.2L51.1,37.2z"
			/>
	</g>
	<g id="CIRCLE_10_">
		<path class="st6" d="M67.5,37.2c0-0.2,0.2-0.4,0.4-0.4s0.4,0.2,0.4,0.4s-0.2,0.4-0.4,0.4S67.5,37.4,67.5,37.2L67.5,37.2z"/>
	</g>
	<g id="CIRCLE_9_">
		<path class="st6" d="M82.5,37.2c0-0.2,0.2-0.4,0.4-0.4s0.4,0.2,0.4,0.4s-0.2,0.4-0.4,0.4C82.7,37.6,82.5,37.4,82.5,37.2L82.5,37.2
			z"/>
	</g>
	<g id="CIRCLE_8_">
		<path class="st6" d="M98,37.2c0-0.2,0.2-0.4,0.4-0.4c0.2,0,0.4,0.2,0.4,0.4s-0.2,0.4-0.4,0.4C98.2,37.6,98,37.4,98,37.2L98,37.2z"
			/>
	</g>
	<g id="CIRCLE_7_">
		<path class="st6" d="M112.5,37.2c0-0.2,0.2-0.4,0.4-0.4c0.2,0,0.4,0.2,0.4,0.4s-0.2,0.4-0.4,0.4C112.7,37.6,112.5,37.4,112.5,37.2
			L112.5,37.2z"/>
	</g>
	<g id="CIRCLE_6_">
		<path class="st6" d="M142.1,37.2c0-0.2,0.2-0.4,0.4-0.4c0.2,0,0.4,0.2,0.4,0.4s-0.2,0.4-0.4,0.4C142.3,37.6,142.1,37.4,142.1,37.2
			L142.1,37.2z"/>
	</g>
	<g id="CIRCLE_5_">
		<path class="st6" d="M157,37.2c0-0.2,0.2-0.4,0.4-0.4s0.4,0.2,0.4,0.4s-0.2,0.4-0.4,0.4S157,37.4,157,37.2L157,37.2z"/>
	</g>
	<g id="CIRCLE_4_">
		<path class="st6" d="M171.6,37.2c0-0.2,0.2-0.4,0.4-0.4c0.2,0,0.4,0.2,0.4,0.4s-0.2,0.4-0.4,0.4C171.8,37.6,171.6,37.4,171.6,37.2
			L171.6,37.2z"/>
	</g>
	<g id="CIRCLE_3_">
		<path class="st6" d="M186,37.2c0-0.2,0.2-0.4,0.4-0.4c0.2,0,0.4,0.2,0.4,0.4s-0.2,0.4-0.4,0.4C186.2,37.6,186,37.4,186,37.2
			L186,37.2z"/>
	</g>
	<g id="CIRCLE_2_">
		<path class="st6" d="M200.6,37.2c0-0.2,0.2-0.4,0.4-0.4s0.4,0.2,0.4,0.4s-0.2,0.4-0.4,0.4S200.6,37.4,200.6,37.2L200.6,37.2z"/>
	</g>
	<g id="CIRCLE_1_">
		<path class="st6" d="M216,37.2c0-0.2,0.2-0.4,0.4-0.4c0.2,0,0.4,0.2,0.4,0.4s-0.2,0.4-0.4,0.4C216.2,37.6,216,37.4,216,37.2
			L216,37.2z"/>
	</g>
</g>
<g id="PLAN_x24_STRUCTURE_2.2">
</g>
<g id="PLAN_x24_STRUCTURE_2.1">
</g>
<g id="PLAN_x24_STRUCTURE_1.3">
	<g id="POLYLINE_827_">
		<rect x="69.1" y="6.7" class="st7" width="12.6" height="2.5"/>
	</g>
	<g id="POLYLINE_828_">
		<rect x="88" y="6.7" class="st7" width="12" height="2.5"/>
	</g>
	<g id="POLYLINE_829_">
		<rect x="106.2" y="6.7" class="st7" width="12.3" height="2.5"/>
	</g>
	<g id="POLYLINE_830_">
		<rect x="124.7" y="6.7" class="st7" width="12.7" height="2.5"/>
	</g>
	<g id="POLYLINE_831_">
		<rect x="143.6" y="6.7" class="st7" width="12.7" height="2.5"/>
	</g>
	<g id="POLYLINE_832_">
		<rect x="162.5" y="6.7" class="st7" width="13.4" height="2.5"/>
	</g>
	<g id="POLYLINE_833_">
		<rect x="182.2" y="6.7" class="st7" width="13.4" height="2.5"/>
	</g>
	<g id="POLYLINE_834_">
		<rect x="201.8" y="6.7" class="st7" width="13.1" height="2.5"/>
	</g>
	<g id="POLYLINE_835_">
		<rect x="207.6" y="74.7" class="st7" width="13" height="2.5"/>
	</g>
	<g id="POLYLINE_836_">
		<rect x="188.1" y="74.7" class="st7" width="13.3" height="2.5"/>
	</g>
	<g id="POLYLINE_837_">
		<rect x="168.3" y="74.7" class="st7" width="13.5" height="2.5"/>
	</g>
	<g id="POLYLINE_838_">
		<rect x="149" y="74.7" class="st7" width="13" height="2.5"/>
	</g>
	<g id="POLYLINE_839_">
		<rect x="129.8" y="74.7" class="st7" width="13" height="2.5"/>
	</g>
	<g id="POLYLINE_840_">
		<rect x="111.2" y="74.7" class="st7" width="12.3" height="2.5"/>
	</g>
	<g id="POLYLINE_841_">
		<rect x="90.9" y="74.7" class="st7" width="14.1" height="2.5"/>
	</g>
	<g id="POLYLINE_842_">
		<rect x="71.7" y="74.7" class="st7" width="12.9" height="2.5"/>
	</g>
	<g id="POLYLINE_843_">
		<rect x="4.8" y="54.8" class="st7" width="3.5" height="2.5"/>
	</g>
	<g id="POLYLINE_844_">
		<rect x="4.8" y="45.4" class="st7" width="3.5" height="2.5"/>
	</g>
	<g id="POLYLINE_845_">
		<rect x="4.8" y="35.9" class="st7" width="3.5" height="2.5"/>
	</g>
	<g id="POLYLINE_846_">
		<rect x="4.8" y="26.5" class="st7" width="3.5" height="2.5"/>
	</g>
	<g id="POLYLINE_847_">
		<rect x="4.8" y="17.1" class="st7" width="3.5" height="2.5"/>
	</g>
	<g id="ARC_50_">
		<path class="st7" d="M8.3,37.6c0.2,0,0.4-0.2,0.4-0.4s-0.2-0.4-0.4-0.4"/>
	</g>
	<g id="SPLINE_16_">
		<path class="st7" d="M234.9,37.6c-0.3,0-0.4,0-0.4,0.1"/>
	</g>
	<g id="ARC_52_">
		<path class="st7" d="M233.7,37.5c-0.1,0.2-0.1,0.5,0.1,0.6s0.5,0.1,0.6-0.1c0.1-0.1,0.1-0.2,0.1-0.3"/>
	</g>
	<g id="SPLINE_17_">
		<path class="st7" d="M233.7,37.5c-0.4,0-0.7,0.5-0.7,0.7"/>
	</g>
	<g id="POLYLINE_866_">
		<line class="st7" x1="232.9" y1="38.3" x2="232" y2="38.3"/>
	</g>
	<g id="SPLINE_18_">
		<path class="st7" d="M232,38.3c0-0.1-0.2-0.2-0.5-0.2"/>
	</g>
	<g id="POLYLINE_867_">
		<line class="st7" x1="231.5" y1="38.1" x2="230.4" y2="38.1"/>
	</g>
	<g id="POLYLINE_868_">
		<line class="st7" x1="230.4" y1="38.1" x2="230.4" y2="36.3"/>
	</g>
	<g id="POLYLINE_869_">
		<line class="st7" x1="230.4" y1="36.3" x2="231.5" y2="36.3"/>
	</g>
	<g id="SPLINE_19_">
		<path class="st7" d="M231.5,36.3c0.3,0,0.5-0.1,0.5-0.2"/>
	</g>
	<g id="POLYLINE_870_">
		<line class="st7" x1="232" y1="36.1" x2="232.9" y2="36.1"/>
	</g>
	<g id="SPLINE_20_">
		<path class="st7" d="M232.9,36.1c0,0.2,0.4,0.7,0.7,0.7"/>
	</g>
	<g id="ARC_53_">
		<path class="st7" d="M234.5,36.6c0-0.2-0.2-0.4-0.4-0.4s-0.4,0.2-0.4,0.4c0,0.1,0,0.2,0.1,0.3"/>
	</g>
	<g id="SPLINE_21_">
		<path class="st7" d="M234.5,36.6c0,0.1,0.1,0.1,0.4,0.1"/>
	</g>
	<g id="ARC_54_">
		<path class="st7" d="M235.3,37.2c0-0.2-0.2-0.4-0.4-0.4"/>
	</g>
	<g id="ARC_55_">
		<path class="st7" d="M234.9,37.6c0.2,0,0.4-0.2,0.4-0.4"/>
	</g>
	<g id="SPLINE_22_">
		<path class="st7" d="M234.9,28.2c-0.3,0-0.4,0-0.4,0.1"/>
	</g>
	<g id="ARC_56_">
		<path class="st7" d="M233.7,28.1c-0.1,0.2-0.1,0.5,0.1,0.6s0.5,0.1,0.6-0.1c0.1-0.1,0.1-0.2,0.1-0.3"/>
	</g>
	<g id="SPLINE_23_">
		<path class="st7" d="M233.7,28.1c-0.4,0-0.7,0.5-0.7,0.7"/>
	</g>
	<g id="POLYLINE_871_">
		<line class="st7" x1="232.9" y1="28.8" x2="232" y2="28.8"/>
	</g>
	<g id="SPLINE_24_">
		<path class="st7" d="M232,28.8c0-0.1-0.2-0.2-0.5-0.2"/>
	</g>
	<g id="POLYLINE_872_">
		<line class="st7" x1="231.5" y1="28.6" x2="230.4" y2="28.6"/>
	</g>
	<g id="POLYLINE_873_">
		<line class="st7" x1="230.4" y1="28.6" x2="230.4" y2="26.9"/>
	</g>
	<g id="POLYLINE_874_">
		<line class="st7" x1="230.4" y1="26.9" x2="231.5" y2="26.9"/>
	</g>
	<g id="SPLINE_25_">
		<path class="st7" d="M231.5,26.9c0.3,0,0.5-0.1,0.5-0.2"/>
	</g>
	<g id="POLYLINE_875_">
		<line class="st7" x1="232" y1="26.7" x2="232.9" y2="26.7"/>
	</g>
	<g id="SPLINE_26_">
		<path class="st7" d="M232.9,26.7c0,0.2,0.4,0.7,0.7,0.7"/>
	</g>
	<g id="ARC_57_">
		<path class="st7" d="M234.5,27.2c0-0.2-0.2-0.4-0.4-0.4s-0.4,0.2-0.4,0.4c0,0.1,0,0.2,0.1,0.3"/>
	</g>
	<g id="SPLINE_27_">
		<path class="st7" d="M234.5,27.2c0,0.1,0.1,0.1,0.4,0.1"/>
	</g>
	<g id="ARC_58_">
		<path class="st7" d="M235.3,27.8c0-0.2-0.2-0.4-0.4-0.4"/>
	</g>
	<g id="ARC_59_">
		<path class="st7" d="M234.9,28.2c0.2,0,0.4-0.2,0.4-0.4"/>
	</g>
	<g id="SPLINE_28_">
		<path class="st7" d="M234.9,18.8c-0.3,0-0.4,0-0.4,0.1"/>
	</g>
	<g id="ARC_60_">
		<path class="st7" d="M233.7,18.7c-0.1,0.2-0.1,0.5,0.1,0.6s0.5,0.1,0.6-0.1c0.1-0.1,0.1-0.2,0.1-0.3"/>
	</g>
	<g id="SPLINE_29_">
		<path class="st7" d="M233.7,18.7c-0.4,0-0.7,0.5-0.7,0.7"/>
	</g>
	<g id="POLYLINE_876_">
		<line class="st7" x1="232.9" y1="19.4" x2="232" y2="19.4"/>
	</g>
	<g id="SPLINE_30_">
		<path class="st7" d="M232,19.4c0-0.1-0.2-0.2-0.5-0.2"/>
	</g>
	<g id="POLYLINE_877_">
		<line class="st7" x1="231.5" y1="19.2" x2="230.4" y2="19.2"/>
	</g>
	<g id="POLYLINE_878_">
		<line class="st7" x1="230.4" y1="19.2" x2="230.4" y2="17.5"/>
	</g>
	<g id="POLYLINE_879_">
		<line class="st7" x1="230.4" y1="17.5" x2="231.5" y2="17.5"/>
	</g>
	<g id="SPLINE_31_">
		<path class="st7" d="M231.5,17.5c0.3,0,0.5-0.1,0.5-0.2"/>
	</g>
	<g id="POLYLINE_880_">
		<line class="st7" x1="232" y1="17.3" x2="232.9" y2="17.3"/>
	</g>
	<g id="SPLINE_32_">
		<path class="st7" d="M232.9,17.3c0,0.2,0.4,0.7,0.7,0.7"/>
	</g>
	<g id="ARC_61_">
		<path class="st7" d="M234.5,17.8c0-0.2-0.2-0.4-0.4-0.4s-0.4,0.2-0.4,0.4c0,0.1,0,0.2,0.1,0.3"/>
	</g>
	<g id="SPLINE_33_">
		<path class="st7" d="M234.5,17.8c0,0.1,0.1,0.1,0.4,0.1"/>
	</g>
	<g id="ARC_62_">
		<path class="st7" d="M235.3,18.4c0-0.2-0.2-0.4-0.4-0.4"/>
	</g>
	<g id="ARC_63_">
		<path class="st7" d="M234.9,18.8c0.2,0,0.4-0.2,0.4-0.4"/>
	</g>
	<g id="SPLINE_34_">
		<path class="st7" d="M234.9,47.1c-0.3,0-0.4,0-0.4,0.1"/>
	</g>
	<g id="ARC_64_">
		<path class="st7" d="M233.7,47c-0.1,0.2-0.1,0.5,0.1,0.6s0.5,0.1,0.6-0.1c0.1-0.1,0.1-0.2,0.1-0.3"/>
	</g>
	<g id="SPLINE_35_">
		<path class="st7" d="M233.7,47c-0.4,0-0.7,0.5-0.7,0.7"/>
	</g>
	<g id="POLYLINE_881_">
		<line class="st7" x1="232.9" y1="47.7" x2="232" y2="47.7"/>
	</g>
	<g id="SPLINE_36_">
		<path class="st7" d="M232,47.7c0-0.1-0.2-0.2-0.5-0.2"/>
	</g>
	<g id="POLYLINE_882_">
		<line class="st7" x1="231.5" y1="47.5" x2="230.4" y2="47.5"/>
	</g>
	<g id="POLYLINE_883_">
		<line class="st7" x1="230.4" y1="47.5" x2="230.4" y2="45.8"/>
	</g>
	<g id="POLYLINE_884_">
		<line class="st7" x1="230.4" y1="45.8" x2="231.5" y2="45.8"/>
	</g>
	<g id="SPLINE_37_">
		<path class="st7" d="M231.5,45.8c0.3,0,0.5-0.1,0.5-0.2"/>
	</g>
	<g id="POLYLINE_885_">
		<line class="st7" x1="232" y1="45.6" x2="232.9" y2="45.6"/>
	</g>
	<g id="SPLINE_38_">
		<path class="st7" d="M232.9,45.6c0,0.2,0.4,0.7,0.7,0.7"/>
	</g>
	<g id="ARC_65_">
		<path class="st7" d="M234.5,46c0-0.2-0.2-0.4-0.4-0.4s-0.4,0.2-0.4,0.4c0,0.1,0,0.2,0.1,0.3"/>
	</g>
	<g id="SPLINE_39_">
		<path class="st7" d="M234.5,46c0,0.1,0.1,0.1,0.4,0.1"/>
	</g>
	<g id="ARC_66_">
		<path class="st7" d="M235.3,46.6c0-0.2-0.2-0.4-0.4-0.4"/>
	</g>
	<g id="ARC_67_">
		<path class="st7" d="M234.9,47.1c0.2,0,0.4-0.2,0.4-0.4"/>
	</g>
	<g id="SPLINE_40_">
		<path class="st7" d="M234.9,56.5c-0.3,0-0.4,0-0.4,0.1"/>
	</g>
	<g id="ARC_68_">
		<path class="st7" d="M233.7,56.4c-0.1,0.2-0.1,0.5,0.1,0.6s0.5,0.1,0.6-0.1c0.1-0.1,0.1-0.2,0.1-0.3"/>
	</g>
	<g id="SPLINE_41_">
		<path class="st7" d="M233.7,56.4c-0.4,0-0.7,0.5-0.7,0.7"/>
	</g>
	<g id="POLYLINE_886_">
		<line class="st7" x1="232.9" y1="57.1" x2="232" y2="57.1"/>
	</g>
	<g id="SPLINE_42_">
		<path class="st7" d="M232,57.1c0-0.1-0.2-0.2-0.5-0.2"/>
	</g>
	<g id="POLYLINE_887_">
		<line class="st7" x1="231.5" y1="56.9" x2="230.4" y2="56.9"/>
	</g>
	<g id="POLYLINE_888_">
		<line class="st7" x1="230.4" y1="56.9" x2="230.4" y2="55.2"/>
	</g>
	<g id="POLYLINE_889_">
		<line class="st7" x1="230.4" y1="55.2" x2="231.5" y2="55.2"/>
	</g>
	<g id="SPLINE_43_">
		<path class="st7" d="M231.5,55.2c0.3,0,0.5-0.1,0.5-0.2"/>
	</g>
	<g id="POLYLINE_890_">
		<line class="st7" x1="232" y1="55" x2="232.9" y2="55"/>
	</g>
	<g id="SPLINE_44_">
		<path class="st7" d="M232.9,55c0,0.2,0.4,0.7,0.7,0.7"/>
	</g>
	<g id="ARC_69_">
		<path class="st7" d="M234.5,55.4c0-0.2-0.2-0.4-0.4-0.4s-0.4,0.2-0.4,0.4c0,0.1,0,0.2,0.1,0.3"/>
	</g>
	<g id="SPLINE_45_">
		<path class="st7" d="M234.5,55.4c0,0.1,0.1,0.1,0.4,0.1"/>
	</g>
	<g id="ARC_70_">
		<path class="st7" d="M235.3,56c0-0.2-0.2-0.4-0.4-0.4"/>
	</g>
	<g id="ARC_71_">
		<path class="st7" d="M234.9,56.5c0.2,0,0.4-0.2,0.4-0.4"/>
	</g>
	<g id="SPLINE_46_">
		<path class="st7" d="M234.9,65.9c-0.3,0-0.4,0-0.4,0.1"/>
	</g>
	<g id="ARC_72_">
		<path class="st7" d="M233.7,65.8c-0.1,0.2-0.1,0.5,0.1,0.6s0.5,0.1,0.6-0.1c0.1-0.1,0.1-0.2,0.1-0.3"/>
	</g>
	<g id="SPLINE_47_">
		<path class="st7" d="M233.7,65.8c-0.4,0-0.7,0.5-0.7,0.7"/>
	</g>
	<g id="POLYLINE_891_">
		<line class="st7" x1="232.9" y1="66.5" x2="232" y2="66.5"/>
	</g>
	<g id="SPLINE_48_">
		<path class="st7" d="M232,66.5c0-0.1-0.2-0.2-0.5-0.2"/>
	</g>
	<g id="POLYLINE_892_">
		<line class="st7" x1="231.5" y1="66.3" x2="230.4" y2="66.3"/>
	</g>
	<g id="POLYLINE_893_">
		<line class="st7" x1="230.4" y1="66.3" x2="230.4" y2="64.6"/>
	</g>
	<g id="POLYLINE_894_">
		<line class="st7" x1="230.4" y1="64.6" x2="231.5" y2="64.6"/>
	</g>
	<g id="SPLINE_49_">
		<path class="st7" d="M231.5,64.6c0.3,0,0.5-0.1,0.5-0.2"/>
	</g>
	<g id="POLYLINE_895_">
		<line class="st7" x1="232" y1="64.4" x2="232.9" y2="64.4"/>
	</g>
	<g id="SPLINE_50_">
		<path class="st7" d="M232.9,64.4c0,0.2,0.4,0.7,0.7,0.7"/>
	</g>
	<g id="ARC_73_">
		<path class="st7" d="M234.5,64.8c0-0.2-0.2-0.4-0.4-0.4s-0.4,0.2-0.4,0.4c0,0.1,0,0.2,0.1,0.3"/>
	</g>
	<g id="SPLINE_51_">
		<path class="st7" d="M234.5,64.8c0,0.1,0.1,0.1,0.4,0.1"/>
	</g>
	<g id="ARC_74_">
		<path class="st7" d="M235.3,65.4c0-0.2-0.2-0.4-0.4-0.4"/>
	</g>
	<g id="ARC_75_">
		<path class="st7" d="M234.9,65.9c0.2,0,0.4-0.2,0.4-0.4"/>
	</g>
	<g id="POLYLINE_927_">
		<polygon class="st7" points="8.3,64.2 4.8,64.2 4.8,66.7 8.3,66.7 8.3,65.8 10.4,65.8 10.4,64.2 		"/>
	</g>
	<g id="POLYLINE_928_">
		<polygon class="st7" points="24,62.9 22.4,62.9 22.4,64.2 19.4,64.2 19.4,65.8 24,65.8 		"/>
	</g>
	<g id="POLYLINE_929_">
		<polyline class="st7" points="235.3,75.9 235.3,77.3 226.8,77.3 226.8,74.7 230.4,74.7 		"/>
	</g>
	<g id="POLYLINE_930_">
		<line class="st7" x1="230.4" y1="74.7" x2="230.4" y2="74"/>
	</g>
	<g id="POLYLINE_931_">
		<line class="st7" x1="230.4" y1="74" x2="231.5" y2="74"/>
	</g>
	<g id="SPLINE_52_">
		<path class="st7" d="M231.5,74c0.3,0,0.5-0.1,0.5-0.2"/>
	</g>
	<g id="POLYLINE_932_">
		<line class="st7" x1="232" y1="73.8" x2="232.9" y2="73.8"/>
	</g>
	<g id="SPLINE_53_">
		<path class="st7" d="M232.9,73.8c0,0.2,0.4,0.7,0.7,0.7"/>
	</g>
	<g id="ARC_77_">
		<path class="st7" d="M234.5,74.2c0-0.2-0.2-0.4-0.4-0.4s-0.4,0.2-0.4,0.4c0,0.1,0,0.2,0.1,0.3"/>
	</g>
	<g id="SPLINE_54_">
		<path class="st7" d="M234.5,74.2c0,0.1,0.1,0.1,0.4,0.1"/>
	</g>
	<g id="ARC_78_">
		<path class="st7" d="M235.3,74.8c0-0.2-0.2-0.4-0.4-0.4"/>
	</g>
	<g id="ARC_79_">
		<path class="st7" d="M234.9,75.3c0.2,0,0.4-0.2,0.4-0.4"/>
	</g>
	<g id="SPLINE_55_">
		<path class="st7" d="M234.9,75.3c-0.2,0-0.3,0-0.4,0.1"/>
	</g>
	<g id="SPLINE_56_">
		<path class="st7" d="M234.5,75.4c0.1,0.1,0.2,0.1,0.4,0.1"/>
	</g>
	<g id="ARC_80_">
		<path class="st7" d="M235.3,75.9c0-0.2-0.2-0.4-0.4-0.4"/>
	</g>
	<g id="ARC_81_">
		<path class="st7" d="M234.9,8.5c0.2,0,0.4-0.2,0.4-0.4"/>
	</g>
	<g id="SPLINE_57_">
		<path class="st7" d="M234.9,8.5c-0.2,0-0.3,0-0.4,0.1"/>
	</g>
	<g id="SPLINE_58_">
		<path class="st7" d="M234.5,8.6c0.1,0.1,0.2,0.1,0.4,0.1"/>
	</g>
	<g id="ARC_82_">
		<path class="st7" d="M235.3,9.1c0-0.2-0.2-0.4-0.4-0.4"/>
	</g>
	<g id="ARC_83_">
		<path class="st7" d="M234.9,9.6c0.2,0,0.4-0.2,0.4-0.4"/>
	</g>
	<g id="SPLINE_59_">
		<path class="st7" d="M234.9,9.6c-0.3,0-0.4,0-0.4,0.1"/>
	</g>
	<g id="ARC_84_">
		<path class="st7" d="M233.7,9.5c-0.1,0.2-0.1,0.5,0.1,0.6s0.5,0.1,0.6-0.1c0.1-0.1,0.1-0.2,0.1-0.3"/>
	</g>
	<g id="SPLINE_60_">
		<path class="st7" d="M233.7,9.5c-0.4,0-0.7,0.5-0.7,0.7"/>
	</g>
	<g id="POLYLINE_933_">
		<line class="st7" x1="232.9" y1="10.2" x2="232" y2="10.2"/>
	</g>
	<g id="SPLINE_61_">
		<path class="st7" d="M232,10.2c0-0.1-0.2-0.2-0.5-0.2"/>
	</g>
	<g id="POLYLINE_934_">
		<line class="st7" x1="231.5" y1="10" x2="230.4" y2="10"/>
	</g>
	<g id="POLYLINE_935_">
		<line class="st7" x1="230.4" y1="10" x2="230.4" y2="9.2"/>
	</g>
	<g id="POLYLINE_936_">
		<polyline class="st7" points="230.4,9.2 221.2,9.2 221.2,6.7 235.3,6.7 235.3,8.1 		"/>
	</g>
	<g id="POLYLINE_937_">
		<polygon class="st7" points="49.3,74.7 49.3,62.9 29.7,62.9 29.7,64.5 47.5,64.5 47.5,74.7 8.3,74.7 8.3,73.6 4.8,73.6 4.8,74.7 
			4.8,77.3 65.4,77.3 65.4,74.7 		"/>
	</g>
	<g id="POLYLINE_938_">
		<polygon class="st7" points="8.3,9.2 62.9,9.2 62.9,6.7 4.8,6.7 4.8,9.1 4.8,10.2 8.3,10.2 		"/>
	</g>
</g>
<g id="PLAN_x24_STRUCTURE_1.2">
</g>
<g id="PLAN_x24_STRUCTURE_1.1">
</g>
</svg>
