<?xml version="1.0" encoding="utf-8"?>
<!-- Generator: Adobe Illustrator 22.0.1, SVG Export Plug-In . SVG Version: 6.00 Build 0)  -->
<svg version="1.1" id="Calque_1" xmlns="http://www.w3.org/2000/svg" xmlns:xlink="http://www.w3.org/1999/xlink" x="0px" y="0px"
	 viewBox="0 0 483.6 170" style="enable-background:new 0 0 483.6 170;" xml:space="preserve">
<style type="text/css">
	.st0{display:none;}
	.st1{display:inline;}
	.st2{fill:none;}
	.st3{fill:none;stroke:#000000;stroke-width:0.2;stroke-linecap:square;stroke-miterlimit:10;stroke-dasharray:1,1;}
	.st4{fill:none;stroke:#000000;stroke-width:0.1;stroke-linecap:square;stroke-miterlimit:10;}
	.st5{fill:none;stroke:#000000;stroke-width:0.16;stroke-linecap:square;stroke-miterlimit:10;}
	.st6{fill:none;stroke:#000000;stroke-width:0.54;stroke-linecap:square;stroke-miterlimit:10;}
	.st7{fill:none;stroke:#000000;stroke-width:0.82;stroke-linecap:square;stroke-miterlimit:10;}
</style>
<g id="Calque_1_1_">
</g>
<g id="INFOS_x24_A4" class="st0">
	<g id="POLYLINE_2479_" class="st1">
		<rect x="-52" y="-334.7" class="st2" width="595.3" height="841.9"/>
	</g>
</g>
<g id="PLAN_x24_FOND">
</g>
<g id="PLAN_x24_POINTILLE">
	<g id="POLYLINE_267_">
		<line class="st3" x1="426.4" y1="77.2" x2="413.2" y2="64.2"/>
	</g>
	<g id="POLYLINE_266_">
		<polyline class="st3" points="413.2,64.2 405,64.2 405,77.2 426.4,77.2 		"/>
	</g>
	<g id="POLYLINE_265_">
		<line class="st3" x1="64.9" y1="132" x2="74.9" y2="141.8"/>
	</g>
</g>
<g id="PLAN_x24_VITRAGE">
	<g id="POLYLINE_940_">
		<line class="st4" x1="377.2" y1="154.4" x2="364.6" y2="154.4"/>
	</g>
	<g id="POLYLINE_941_">
		<line class="st4" x1="416.2" y1="154.4" x2="403.6" y2="154.4"/>
	</g>
	<g id="POLYLINE_942_">
		<line class="st4" x1="454.6" y1="154.4" x2="442" y2="154.4"/>
	</g>
	<g id="POLYLINE_943_">
		<line class="st4" x1="337.6" y1="154.4" x2="325.2" y2="154.4"/>
	</g>
	<g id="POLYLINE_944_">
		<line class="st4" x1="299" y1="154.4" x2="286.6" y2="154.4"/>
	</g>
	<g id="POLYLINE_945_">
		<line class="st4" x1="260.6" y1="154.4" x2="248.1" y2="154.4"/>
	</g>
	<g id="POLYLINE_946_">
		<line class="st4" x1="223.3" y1="154.4" x2="210.9" y2="154.4"/>
	</g>
	<g id="POLYLINE_947_">
		<line class="st4" x1="182.8" y1="154.4" x2="170.1" y2="154.4"/>
	</g>
	<g id="POLYLINE_948_">
		<line class="st4" x1="144.3" y1="154.4" x2="131.8" y2="154.4"/>
	</g>
	<g id="POLYLINE_949_">
		<line class="st4" x1="466.8" y1="150.6" x2="466.8" y2="136"/>
	</g>
	<g id="POLYLINE_950_">
		<line class="st4" x1="466.8" y1="131.8" x2="466.8" y2="117.2"/>
	</g>
	<g id="POLYLINE_951_">
		<line class="st4" x1="466.8" y1="113" x2="466.8" y2="98.4"/>
	</g>
	<g id="POLYLINE_952_">
		<line class="st4" x1="466.8" y1="79.6" x2="466.8" y2="94.2"/>
	</g>
	<g id="POLYLINE_953_">
		<line class="st4" x1="466.8" y1="75.2" x2="466.8" y2="60.6"/>
	</g>
	<g id="POLYLINE_954_">
		<line class="st4" x1="466.8" y1="56.4" x2="466.8" y2="41.8"/>
	</g>
	<g id="POLYLINE_955_">
		<line class="st4" x1="466.8" y1="37.6" x2="466.8" y2="23.4"/>
	</g>
	<g id="POLYLINE_956_">
		<line class="st4" x1="443.4" y1="18.4" x2="430.8" y2="18.4"/>
	</g>
	<g id="POLYLINE_957_">
		<line class="st4" x1="404.6" y1="18.4" x2="392.2" y2="18.4"/>
	</g>
	<g id="POLYLINE_958_">
		<line class="st4" x1="365.4" y1="18.4" x2="352.8" y2="18.4"/>
	</g>
	<g id="POLYLINE_959_">
		<line class="st4" x1="326" y1="18.4" x2="313.6" y2="18.4"/>
	</g>
	<g id="POLYLINE_960_">
		<line class="st4" x1="288.2" y1="18.4" x2="275.6" y2="18.4"/>
	</g>
	<g id="POLYLINE_961_">
		<line class="st4" x1="250.3" y1="18.4" x2="237.8" y2="18.4"/>
	</g>
	<g id="POLYLINE_962_">
		<line class="st4" x1="213.3" y1="18.4" x2="200.8" y2="18.4"/>
	</g>
	<g id="POLYLINE_963_">
		<line class="st4" x1="176.9" y1="18.4" x2="164.3" y2="18.4"/>
	</g>
	<g id="POLYLINE_964_">
		<line class="st4" x1="139.1" y1="18.4" x2="126.8" y2="18.4"/>
	</g>
	<g id="POLYLINE_965_">
		<line class="st4" x1="14.1" y1="23.4" x2="14.1" y2="37.2"/>
	</g>
	<g id="POLYLINE_966_">
		<line class="st4" x1="14.1" y1="42.2" x2="14.1" y2="56"/>
	</g>
	<g id="POLYLINE_967_">
		<line class="st4" x1="14.1" y1="61" x2="14.1" y2="74.8"/>
	</g>
	<g id="POLYLINE_968_">
		<line class="st4" x1="14.1" y1="80" x2="14.1" y2="93.8"/>
	</g>
	<g id="POLYLINE_969_">
		<line class="st4" x1="14.1" y1="98.8" x2="14.1" y2="112.6"/>
	</g>
	<g id="POLYLINE_970_">
		<line class="st4" x1="14.1" y1="117.6" x2="14.1" y2="131.4"/>
	</g>
	<g id="POLYLINE_971_">
		<line class="st4" x1="14.1" y1="136.4" x2="14.1" y2="150.2"/>
	</g>
</g>
<g id="PLAN_x24_MOBILIER">
</g>
<g id="PLAN_x24_DETAIL">
	<g id="POLYLINE_169_">
		<line class="st5" x1="21.7" y1="133" x2="21.7" y2="124"/>
	</g>
	<g id="ARC_3_">
		<path class="st5" d="M30.7,133c0-5-4-9-9-9"/>
	</g>
	<g id="ARC_2_">
		<path class="st5" d="M39.7,124c-5,0-9,4-9,9"/>
	</g>
	<g id="POLYLINE_168_">
		<line class="st5" x1="39.7" y1="124" x2="39.7" y2="133"/>
	</g>
	<g id="POLYLINE_167_">
		<line class="st5" x1="426.4" y1="77.2" x2="430.2" y2="77.2"/>
	</g>
	<g id="POLYLINE_166_">
		<line class="st5" x1="430.2" y1="77.2" x2="430.2" y2="64.2"/>
	</g>
	<g id="POLYLINE_165_">
		<line class="st5" x1="430.2" y1="64.2" x2="413.2" y2="64.2"/>
	</g>
	<g id="POLYLINE_164_">
		<line class="st5" x1="74.9" y1="141.8" x2="60.3" y2="141.8"/>
	</g>
	<g id="POLYLINE_163_">
		<line class="st5" x1="60.3" y1="141.8" x2="60.3" y2="132"/>
	</g>
	<g id="POLYLINE_162_">
		<line class="st5" x1="62.9" y1="141.8" x2="62.9" y2="132"/>
	</g>
	<g id="POLYLINE_161_">
		<line class="st5" x1="65.3" y1="141.8" x2="65.3" y2="132.2"/>
	</g>
	<g id="POLYLINE_160_">
		<line class="st5" x1="67.8" y1="141.8" x2="67.8" y2="134.6"/>
	</g>
	<g id="POLYLINE_159_">
		<line class="st5" x1="70.1" y1="141.8" x2="70.1" y2="137"/>
	</g>
	<g id="POLYLINE_158_">
		<line class="st5" x1="72.5" y1="141.8" x2="72.5" y2="139.4"/>
	</g>
	<g id="POLYLINE_157_">
		<line class="st5" x1="144.3" y1="155.4" x2="131.8" y2="155.4"/>
	</g>
	<g id="POLYLINE_156_">
		<line class="st5" x1="144.3" y1="153.6" x2="131.8" y2="153.6"/>
	</g>
	<g id="POLYLINE_155_">
		<polyline class="st5" points="144.3,152.4 144.3,151 131.8,151 131.8,152.4 		"/>
	</g>
	<g id="POLYLINE_154_">
		<polyline class="st5" points="131.8,157.6 131.8,159.2 144.3,159.2 144.3,157.6 		"/>
	</g>
	<g id="POLYLINE_153_">
		<line class="st5" x1="182.8" y1="155.4" x2="170.1" y2="155.4"/>
	</g>
	<g id="POLYLINE_152_">
		<line class="st5" x1="182.8" y1="153.6" x2="170.1" y2="153.6"/>
	</g>
	<g id="POLYLINE_151_">
		<polyline class="st5" points="182.8,152.4 182.8,151 170.1,151 170.1,152.4 		"/>
	</g>
	<g id="POLYLINE_150_">
		<polyline class="st5" points="170.1,157.6 170.1,159.2 182.8,159.2 182.8,157.6 		"/>
	</g>
	<g id="POLYLINE_149_">
		<line class="st5" x1="223.3" y1="155.4" x2="210.9" y2="155.4"/>
	</g>
	<g id="POLYLINE_148_">
		<line class="st5" x1="223.3" y1="153.6" x2="210.9" y2="153.6"/>
	</g>
	<g id="POLYLINE_147_">
		<polyline class="st5" points="223.3,152.4 223.3,151 210.9,151 210.9,152.4 		"/>
	</g>
	<g id="POLYLINE_146_">
		<polyline class="st5" points="210.9,157.6 210.9,159.2 223.3,159.2 223.3,157.6 		"/>
	</g>
	<g id="POLYLINE_145_">
		<line class="st5" x1="260.6" y1="155.4" x2="248.1" y2="155.4"/>
	</g>
	<g id="POLYLINE_144_">
		<line class="st5" x1="260.6" y1="153.6" x2="248.1" y2="153.6"/>
	</g>
	<g id="POLYLINE_143_">
		<polyline class="st5" points="260.6,152.4 260.6,151 248.1,151 248.1,152.4 		"/>
	</g>
	<g id="POLYLINE_142_">
		<polyline class="st5" points="248.1,157.6 248.1,159.2 260.6,159.2 260.6,157.6 		"/>
	</g>
	<g id="POLYLINE_141_">
		<line class="st5" x1="299" y1="155.4" x2="286.6" y2="155.4"/>
	</g>
	<g id="POLYLINE_140_">
		<line class="st5" x1="299" y1="153.6" x2="286.6" y2="153.6"/>
	</g>
	<g id="POLYLINE_139_">
		<polyline class="st5" points="299,152.4 299,151 286.6,151 286.6,152.4 		"/>
	</g>
	<g id="POLYLINE_138_">
		<polyline class="st5" points="286.6,157.6 286.6,159.2 299,159.2 299,157.6 		"/>
	</g>
	<g id="POLYLINE_137_">
		<line class="st5" x1="337.6" y1="155.4" x2="325.2" y2="155.4"/>
	</g>
	<g id="POLYLINE_136_">
		<line class="st5" x1="337.6" y1="153.6" x2="325.2" y2="153.6"/>
	</g>
	<g id="POLYLINE_135_">
		<polyline class="st5" points="337.6,152.4 337.6,151 325.2,151 325.2,152.4 		"/>
	</g>
	<g id="POLYLINE_134_">
		<polyline class="st5" points="325.2,157.6 325.2,159.2 337.6,159.2 337.6,157.6 		"/>
	</g>
	<g id="POLYLINE_133_">
		<line class="st5" x1="377.2" y1="155.4" x2="364.6" y2="155.4"/>
	</g>
	<g id="POLYLINE_132_">
		<line class="st5" x1="377.2" y1="153.6" x2="364.6" y2="153.6"/>
	</g>
	<g id="POLYLINE_131_">
		<polyline class="st5" points="377.2,152.4 377.2,151 364.6,151 364.6,152.4 		"/>
	</g>
	<g id="POLYLINE_130_">
		<polyline class="st5" points="364.6,157.6 364.6,159.2 377.2,159.2 377.2,157.6 		"/>
	</g>
	<g id="POLYLINE_129_">
		<line class="st5" x1="416.2" y1="155.4" x2="403.6" y2="155.4"/>
	</g>
	<g id="POLYLINE_128_">
		<line class="st5" x1="416.2" y1="153.6" x2="403.6" y2="153.6"/>
	</g>
	<g id="POLYLINE_127_">
		<polyline class="st5" points="416.2,152.4 416.2,151 403.6,151 403.6,152.4 		"/>
	</g>
	<g id="POLYLINE_126_">
		<polyline class="st5" points="403.6,157.6 403.6,159.2 416.2,159.2 416.2,157.6 		"/>
	</g>
	<g id="POLYLINE_125_">
		<line class="st5" x1="454.6" y1="155.4" x2="442" y2="155.4"/>
	</g>
	<g id="POLYLINE_124_">
		<line class="st5" x1="454.6" y1="153.6" x2="442" y2="153.6"/>
	</g>
	<g id="POLYLINE_123_">
		<polyline class="st5" points="454.6,152.4 454.6,151 442,151 442,152.4 		"/>
	</g>
	<g id="POLYLINE_122_">
		<polyline class="st5" points="442,157.6 442,159.2 454.6,159.2 454.6,157.6 		"/>
	</g>
	<g id="POLYLINE_121_">
		<line class="st5" x1="443.4" y1="19.4" x2="430.8" y2="19.4"/>
	</g>
	<g id="POLYLINE_120_">
		<line class="st5" x1="443.4" y1="17.6" x2="430.8" y2="17.6"/>
	</g>
	<g id="POLYLINE_119_">
		<polyline class="st5" points="443.4,16.4 443.4,14.8 430.8,14.8 430.8,16.4 		"/>
	</g>
	<g id="POLYLINE_118_">
		<polyline class="st5" points="430.8,21.4 430.8,23.2 443.4,23.2 443.4,21.4 		"/>
	</g>
	<g id="POLYLINE_117_">
		<line class="st5" x1="404.6" y1="19.4" x2="392.2" y2="19.4"/>
	</g>
	<g id="POLYLINE_116_">
		<line class="st5" x1="404.6" y1="17.6" x2="392.2" y2="17.6"/>
	</g>
	<g id="POLYLINE_115_">
		<polyline class="st5" points="404.6,16.4 404.6,14.8 392.2,14.8 392.2,16.4 		"/>
	</g>
	<g id="POLYLINE_114_">
		<polyline class="st5" points="392.2,21.4 392.2,23.2 404.6,23.2 404.6,21.4 		"/>
	</g>
	<g id="POLYLINE_113_">
		<line class="st5" x1="365.4" y1="19.4" x2="352.8" y2="19.4"/>
	</g>
	<g id="POLYLINE_112_">
		<line class="st5" x1="365.4" y1="17.6" x2="352.8" y2="17.6"/>
	</g>
	<g id="POLYLINE_111_">
		<polyline class="st5" points="365.4,16.4 365.4,14.8 352.8,14.8 352.8,16.4 		"/>
	</g>
	<g id="POLYLINE_110_">
		<polyline class="st5" points="352.8,21.4 352.8,23.2 365.4,23.2 365.4,21.4 		"/>
	</g>
	<g id="POLYLINE_109_">
		<line class="st5" x1="326" y1="19.4" x2="313.6" y2="19.4"/>
	</g>
	<g id="POLYLINE_108_">
		<line class="st5" x1="326" y1="17.6" x2="313.6" y2="17.6"/>
	</g>
	<g id="POLYLINE_107_">
		<polyline class="st5" points="326,16.4 326,14.8 313.6,14.8 313.6,16.4 		"/>
	</g>
	<g id="POLYLINE_106_">
		<polyline class="st5" points="313.6,21.4 313.6,23.2 326,23.2 326,21.4 		"/>
	</g>
	<g id="POLYLINE_105_">
		<line class="st5" x1="288.2" y1="19.4" x2="275.6" y2="19.4"/>
	</g>
	<g id="POLYLINE_104_">
		<line class="st5" x1="288.2" y1="17.6" x2="275.6" y2="17.6"/>
	</g>
	<g id="POLYLINE_103_">
		<polyline class="st5" points="288.2,16.4 288.2,14.8 275.6,14.8 275.6,16.4 		"/>
	</g>
	<g id="POLYLINE_102_">
		<polyline class="st5" points="275.6,21.4 275.6,23.2 288.2,23.2 288.2,21.4 		"/>
	</g>
	<g id="POLYLINE_101_">
		<line class="st5" x1="250.3" y1="19.4" x2="237.8" y2="19.4"/>
	</g>
	<g id="POLYLINE_100_">
		<line class="st5" x1="250.3" y1="17.6" x2="237.8" y2="17.6"/>
	</g>
	<g id="POLYLINE_99_">
		<polyline class="st5" points="250.3,16.4 250.3,14.8 237.8,14.8 237.8,16.4 		"/>
	</g>
	<g id="POLYLINE_98_">
		<polyline class="st5" points="237.8,21.4 237.8,23.2 250.3,23.2 250.3,21.4 		"/>
	</g>
	<g id="POLYLINE_97_">
		<line class="st5" x1="213.3" y1="19.4" x2="200.8" y2="19.4"/>
	</g>
	<g id="POLYLINE_96_">
		<line class="st5" x1="213.3" y1="17.6" x2="200.8" y2="17.6"/>
	</g>
	<g id="POLYLINE_95_">
		<polyline class="st5" points="213.3,16.4 213.3,14.8 200.8,14.8 200.8,16.4 		"/>
	</g>
	<g id="POLYLINE_94_">
		<polyline class="st5" points="200.8,21.4 200.8,23.2 213.3,23.2 213.3,21.4 		"/>
	</g>
	<g id="POLYLINE_93_">
		<line class="st5" x1="176.9" y1="19.4" x2="164.3" y2="19.4"/>
	</g>
	<g id="POLYLINE_92_">
		<line class="st5" x1="176.9" y1="17.6" x2="164.3" y2="17.6"/>
	</g>
	<g id="POLYLINE_91_">
		<polyline class="st5" points="176.9,16.4 176.9,14.8 164.3,14.8 164.3,16.4 		"/>
	</g>
	<g id="POLYLINE_90_">
		<polyline class="st5" points="164.3,21.4 164.3,23.2 176.9,23.2 176.9,21.4 		"/>
	</g>
	<g id="POLYLINE_89_">
		<polyline class="st5" points="126.8,21.4 126.8,23.2 139.1,23.2 139.1,21.4 		"/>
	</g>
	<g id="POLYLINE_88_">
		<polyline class="st5" points="139.1,16.4 139.1,14.8 126.8,14.8 126.8,16.4 		"/>
	</g>
	<g id="POLYLINE_87_">
		<line class="st5" x1="10.5" y1="136.4" x2="10.5" y2="150.2"/>
	</g>
	<g id="POLYLINE_86_">
		<line class="st5" x1="13.3" y1="136.4" x2="13.3" y2="150.2"/>
	</g>
	<g id="POLYLINE_85_">
		<line class="st5" x1="14.9" y1="136.4" x2="14.9" y2="150.2"/>
	</g>
	<g id="POLYLINE_84_">
		<line class="st5" x1="17.5" y1="150.2" x2="17.5" y2="136.4"/>
	</g>
	<g id="POLYLINE_83_">
		<line class="st5" x1="10.5" y1="117.6" x2="10.5" y2="131.4"/>
	</g>
	<g id="POLYLINE_82_">
		<line class="st5" x1="13.3" y1="117.6" x2="13.3" y2="131.4"/>
	</g>
	<g id="POLYLINE_81_">
		<line class="st5" x1="14.9" y1="117.6" x2="14.9" y2="131.4"/>
	</g>
	<g id="POLYLINE_80_">
		<line class="st5" x1="17.5" y1="131.4" x2="17.5" y2="117.6"/>
	</g>
	<g id="POLYLINE_79_">
		<line class="st5" x1="10.5" y1="98.8" x2="10.5" y2="112.6"/>
	</g>
	<g id="POLYLINE_78_">
		<line class="st5" x1="13.3" y1="98.8" x2="13.3" y2="112.6"/>
	</g>
	<g id="POLYLINE_77_">
		<line class="st5" x1="14.9" y1="98.8" x2="14.9" y2="112.6"/>
	</g>
	<g id="POLYLINE_76_">
		<line class="st5" x1="17.5" y1="112.6" x2="17.5" y2="98.8"/>
	</g>
	<g id="POLYLINE_75_">
		<line class="st5" x1="10.5" y1="80" x2="10.5" y2="93.8"/>
	</g>
	<g id="POLYLINE_74_">
		<line class="st5" x1="13.3" y1="80" x2="13.3" y2="93.8"/>
	</g>
	<g id="POLYLINE_73_">
		<line class="st5" x1="14.9" y1="80" x2="14.9" y2="93.8"/>
	</g>
	<g id="POLYLINE_72_">
		<line class="st5" x1="17.5" y1="93.8" x2="17.5" y2="80"/>
	</g>
	<g id="POLYLINE_71_">
		<line class="st5" x1="10.5" y1="61" x2="10.5" y2="74.8"/>
	</g>
	<g id="POLYLINE_70_">
		<line class="st5" x1="13.3" y1="61" x2="13.3" y2="74.8"/>
	</g>
	<g id="POLYLINE_69_">
		<line class="st5" x1="14.9" y1="61" x2="14.9" y2="74.8"/>
	</g>
	<g id="POLYLINE_68_">
		<line class="st5" x1="17.5" y1="74.8" x2="17.5" y2="61"/>
	</g>
	<g id="POLYLINE_67_">
		<line class="st5" x1="10.5" y1="23.4" x2="10.5" y2="37.2"/>
	</g>
	<g id="POLYLINE_66_">
		<line class="st5" x1="13.3" y1="23.4" x2="13.3" y2="37.2"/>
	</g>
	<g id="POLYLINE_65_">
		<line class="st5" x1="14.9" y1="23.4" x2="14.9" y2="37.2"/>
	</g>
	<g id="POLYLINE_64_">
		<line class="st5" x1="17.5" y1="37.2" x2="17.5" y2="23.4"/>
	</g>
	<g id="POLYLINE_63_">
		<line class="st5" x1="17.5" y1="56" x2="17.5" y2="42.2"/>
	</g>
	<g id="POLYLINE_62_">
		<line class="st5" x1="14.9" y1="42.2" x2="14.9" y2="56"/>
	</g>
	<g id="POLYLINE_61_">
		<line class="st5" x1="13.3" y1="42.2" x2="13.3" y2="56"/>
	</g>
	<g id="POLYLINE_60_">
		<line class="st5" x1="10.5" y1="42.2" x2="10.5" y2="56"/>
	</g>
	<g id="POLYLINE_59_">
		<polyline class="st5" points="17.5,78.8 19.1,78.8 19.1,76 17.5,76 		"/>
	</g>
	<g id="POLYLINE_58_">
		<polyline class="st5" points="461.8,76 460.2,76 460.2,78.8 461.8,78.8 		"/>
	</g>
	<g id="POLYLINE_57_">
		<rect x="46.7" y="76" class="st5" width="2.8" height="2.8"/>
	</g>
	<g id="POLYLINE_56_">
		<rect x="76.1" y="76" class="st5" width="2.8" height="2.8"/>
	</g>
	<g id="POLYLINE_55_">
		<rect x="102.5" y="76" class="st5" width="2.8" height="2.8"/>
	</g>
	<g id="POLYLINE_54_">
		<rect x="135.6" y="76" class="st5" width="2.8" height="2.8"/>
	</g>
	<g id="POLYLINE_53_">
		<rect x="165.6" y="76" class="st5" width="2.8" height="2.8"/>
	</g>
	<g id="POLYLINE_47_">
		<rect x="196.6" y="76" class="st5" width="2.8" height="2.8"/>
	</g>
	<g id="POLYLINE_46_">
		<rect x="225.3" y="76" class="st5" width="2.8" height="2.8"/>
	</g>
	<g id="POLYLINE_45_">
		<rect x="257" y="76" class="st5" width="2.8" height="2.8"/>
	</g>
	<g id="POLYLINE_44_">
		<rect x="284.6" y="76" class="st5" width="2.8" height="2.8"/>
	</g>
	<g id="POLYLINE_43_">
		<rect x="314.6" y="76" class="st5" width="2.8" height="2.8"/>
	</g>
	<g id="POLYLINE_42_">
		<rect x="343.6" y="76" class="st5" width="2.8" height="2.8"/>
	</g>
	<g id="POLYLINE_41_">
		<rect x="372.6" y="76" class="st5" width="2.8" height="2.8"/>
	</g>
	<g id="POLYLINE_40_">
		<rect x="401.8" y="76" class="st5" width="2.8" height="2.8"/>
	</g>
	<g id="POLYLINE_39_">
		<rect x="432.6" y="76" class="st5" width="2.8" height="2.8"/>
	</g>
	<g id="POLYLINE_38_">
		<line class="st5" x1="139.1" y1="17.6" x2="126.8" y2="17.6"/>
	</g>
	<g id="POLYLINE_37_">
		<line class="st5" x1="139.1" y1="19.4" x2="126.8" y2="19.4"/>
	</g>
	<g id="POLYLINE_36_">
		<line class="st5" x1="467.6" y1="78.4" x2="467.6" y2="95.2"/>
	</g>
	<g id="POLYLINE_35_">
		<line class="st5" x1="467.6" y1="97.2" x2="467.6" y2="114"/>
	</g>
	<g id="POLYLINE_34_">
		<line class="st5" x1="467.6" y1="116" x2="467.6" y2="132.8"/>
	</g>
	<g id="POLYLINE_33_">
		<line class="st5" x1="467.6" y1="134.8" x2="467.6" y2="151.8"/>
	</g>
	<g id="POLYLINE_32_">
		<line class="st5" x1="466" y1="79.6" x2="466" y2="94.2"/>
	</g>
	<g id="POLYLINE_31_">
		<line class="st5" x1="466" y1="98.4" x2="466" y2="113"/>
	</g>
	<g id="POLYLINE_30_">
		<line class="st5" x1="466" y1="117.2" x2="466" y2="131.8"/>
	</g>
	<g id="POLYLINE_29_">
		<line class="st5" x1="466" y1="136" x2="466" y2="150.6"/>
	</g>
	<g id="POLYLINE_28_">
		<line class="st5" x1="465" y1="79.6" x2="465" y2="94.2"/>
	</g>
	<g id="POLYLINE_27_">
		<line class="st5" x1="465" y1="98.4" x2="465" y2="113"/>
	</g>
	<g id="POLYLINE_26_">
		<line class="st5" x1="465" y1="117.2" x2="465" y2="131.8"/>
	</g>
	<g id="POLYLINE_25_">
		<line class="st5" x1="465" y1="136" x2="465" y2="150.6"/>
	</g>
	<g id="POLYLINE_24_">
		<line class="st5" x1="468.8" y1="79.4" x2="468.8" y2="94.2"/>
	</g>
	<g id="POLYLINE_21_">
		<line class="st5" x1="468.8" y1="98.2" x2="468.8" y2="113"/>
	</g>
	<g id="POLYLINE_20_">
		<line class="st5" x1="468.8" y1="117" x2="468.8" y2="131.8"/>
	</g>
	<g id="POLYLINE_19_">
		<line class="st5" x1="468.8" y1="136" x2="468.8" y2="150.6"/>
	</g>
	<g id="POLYLINE_18_">
		<line class="st5" x1="465" y1="23.4" x2="465" y2="37.6"/>
	</g>
	<g id="POLYLINE_17_">
		<line class="st5" x1="465" y1="41.8" x2="465" y2="56.4"/>
	</g>
	<g id="POLYLINE_16_">
		<line class="st5" x1="466" y1="23.4" x2="466" y2="37.6"/>
	</g>
	<g id="POLYLINE_15_">
		<line class="st5" x1="466" y1="41.8" x2="466" y2="56.4"/>
	</g>
	<g id="POLYLINE_14_">
		<line class="st5" x1="467.6" y1="22.2" x2="467.6" y2="38.8"/>
	</g>
	<g id="POLYLINE_13_">
		<line class="st5" x1="467.6" y1="40.8" x2="467.6" y2="57.6"/>
	</g>
	<g id="POLYLINE_10_">
		<line class="st5" x1="468.8" y1="23.2" x2="468.8" y2="37.8"/>
	</g>
	<g id="POLYLINE_9_">
		<line class="st5" x1="468.8" y1="41.8" x2="468.8" y2="56.6"/>
	</g>
	<g id="POLYLINE_8_">
		<line class="st5" x1="415.6" y1="64.2" x2="415.6" y2="66.6"/>
	</g>
	<g id="POLYLINE_7_">
		<line class="st5" x1="418" y1="64.2" x2="418" y2="69"/>
	</g>
	<g id="POLYLINE_6_">
		<line class="st5" x1="420.4" y1="64.2" x2="420.4" y2="71.4"/>
	</g>
	<g id="POLYLINE_5_">
		<line class="st5" x1="422.8" y1="64.2" x2="422.8" y2="73.8"/>
	</g>
	<g id="POLYLINE_4_">
		<line class="st5" x1="427.8" y1="64.2" x2="427.8" y2="77.2"/>
	</g>
	<g id="POLYLINE_3_">
		<line class="st5" x1="425.4" y1="64.2" x2="425.4" y2="76.2"/>
	</g>
	<g id="ARC_1_">
		<path class="st5" d="M49.3,141.6c6.2,0,11.2-5,11.2-11.2"/>
	</g>
	<g id="POLYLINE_2_">
		<line class="st5" x1="49.3" y1="141.6" x2="49.3" y2="130.4"/>
	</g>
	<g id="POLYLINE_1_">
		<rect x="51.9" y="142.6" class="st5" width="6.8" height="6.8"/>
	</g>
	<g id="LINE_4_">
		<line class="st5" x1="467.6" y1="59.6" x2="467.6" y2="76.4"/>
	</g>
	<g id="LINE_3_">
		<line class="st5" x1="466" y1="60.6" x2="466" y2="75.2"/>
	</g>
	<g id="LINE_2_">
		<line class="st5" x1="465" y1="60.6" x2="465" y2="75.2"/>
	</g>
	<g id="LINE_1_">
		<line class="st5" x1="468.8" y1="60.6" x2="468.8" y2="75.4"/>
	</g>
</g>
<g id="PLAN_x24_CLOISON_TRANSLUCIDE">
</g>
<g id="PLAN_x24_CLOISON_1.3">
</g>
<g id="PLAN_x24_CLOISON_1.2">
</g>
<g id="PLAN_x24_CLOISON_1.1">
</g>
<g id="PLAN_x24_STRUCTURE_2.3">
	<g id="ARC_39_">
		<path class="st6" d="M461.8,76.6c-0.4,0-0.8,0.4-0.8,0.8s0.4,0.8,0.8,0.8"/>
	</g>
	<g id="CIRCLE_14_">
		<path class="st6" d="M257.6,77.4c0-0.4,0.4-0.8,0.8-0.8s0.8,0.4,0.8,0.8s-0.4,0.8-0.8,0.8C258,78.2,257.6,77.8,257.6,77.4
			L257.6,77.4z"/>
	</g>
	<g id="CIRCLE_13_">
		<path class="st6" d="M47.1,77.4c0-0.4,0.4-0.8,0.8-0.8s1,0.4,1,0.8s-0.4,0.8-0.8,0.8C47.7,78.2,47.1,77.8,47.1,77.4L47.1,77.4z"/>
	</g>
	<g id="CIRCLE_12_">
		<path class="st6" d="M76.8,77.4c0-0.4,0.4-0.8,0.8-0.8s0.8,0.4,0.8,0.8s-0.4,0.8-0.8,0.8C77.1,78.2,76.8,77.8,76.8,77.4L76.8,77.4
			z"/>
	</g>
	<g id="CIRCLE_11_">
		<path class="st6" d="M103.1,77.4c0-0.4,0.4-0.8,0.8-0.8s1,0.4,1,0.8s-0.4,0.8-0.8,0.8C103.5,78.2,103.1,77.8,103.1,77.4
			L103.1,77.4z"/>
	</g>
	<g id="CIRCLE_10_">
		<path class="st6" d="M135.9,77.4c0-0.4,0.4-0.8,0.8-0.8s0.8,0.4,0.8,0.8s-0.4,0.8-0.8,0.8S135.9,77.8,135.9,77.4L135.9,77.4z"/>
	</g>
	<g id="CIRCLE_9_">
		<path class="st6" d="M165.9,77.4c0-0.4,0.4-0.8,0.8-0.8s0.8,0.4,0.8,0.8s-0.4,0.8-0.8,0.8C166.3,78.2,165.9,77.8,165.9,77.4
			L165.9,77.4z"/>
	</g>
	<g id="CIRCLE_8_">
		<path class="st6" d="M196.9,77.4c0-0.4,0.4-0.8,0.8-0.8c0.4,0,0.8,0.4,0.8,0.8s-0.4,0.8-0.8,0.8C197.3,78.2,196.9,77.8,196.9,77.4
			L196.9,77.4z"/>
	</g>
	<g id="CIRCLE_7_">
		<path class="st6" d="M225.9,77.4c0-0.4,0.4-0.8,0.8-0.8c0.4,0,0.8,0.4,0.8,0.8s-0.4,0.8-0.8,0.8C226.3,78.2,225.9,77.8,225.9,77.4
			L225.9,77.4z"/>
	</g>
	<g id="CIRCLE_6_">
		<path class="st6" d="M285.2,77.4c0-0.4,0.4-0.8,0.8-0.8s0.8,0.4,0.8,0.8s-0.4,0.8-0.8,0.8C285.6,78.2,285.2,77.8,285.2,77.4
			L285.2,77.4z"/>
	</g>
	<g id="CIRCLE_5_">
		<path class="st6" d="M315,77.4c0-0.4,0.4-0.8,0.8-0.8s0.8,0.4,0.8,0.8s-0.4,0.8-0.8,0.8S315,77.8,315,77.4L315,77.4z"/>
	</g>
	<g id="CIRCLE_4_">
		<path class="st6" d="M344.2,77.4c0-0.4,0.4-0.8,0.8-0.8s0.8,0.4,0.8,0.8s-0.4,0.8-0.8,0.8C344.6,78.2,344.2,77.8,344.2,77.4
			L344.2,77.4z"/>
	</g>
	<g id="CIRCLE_3_">
		<path class="st6" d="M373,77.4c0-0.4,0.4-0.8,0.8-0.8s0.8,0.4,0.8,0.8s-0.4,0.8-0.8,0.8C373.4,78.2,373,77.8,373,77.4L373,77.4z"
			/>
	</g>
	<g id="CIRCLE_2_">
		<path class="st6" d="M402.2,77.4c0-0.4,0.4-0.8,0.8-0.8s0.8,0.4,0.8,0.8s-0.4,0.8-0.8,0.8S402.2,77.8,402.2,77.4L402.2,77.4z"/>
	</g>
	<g id="CIRCLE_1_">
		<path class="st6" d="M433,77.4c0-0.4,0.4-0.8,0.8-0.8s0.8,0.4,0.8,0.8s-0.4,0.8-0.8,0.8C433.4,78.2,433,77.8,433,77.4L433,77.4z"
			/>
	</g>
</g>
<g id="PLAN_x24_STRUCTURE_2.2">
</g>
<g id="PLAN_x24_STRUCTURE_2.1">
</g>
<g id="PLAN_x24_STRUCTURE_1.3">
	<g id="POLYLINE_827_">
		<rect x="139.1" y="16.4" class="st7" width="25.2" height="5"/>
	</g>
	<g id="POLYLINE_828_">
		<rect x="176.9" y="16.4" class="st7" width="24" height="5"/>
	</g>
	<g id="POLYLINE_829_">
		<rect x="213.3" y="16.4" class="st7" width="24.6" height="5"/>
	</g>
	<g id="POLYLINE_830_">
		<rect x="250.3" y="16.4" class="st7" width="25.4" height="5"/>
	</g>
	<g id="POLYLINE_831_">
		<rect x="288.2" y="16.4" class="st7" width="25.4" height="5"/>
	</g>
	<g id="POLYLINE_832_">
		<rect x="326" y="16.4" class="st7" width="26.8" height="5"/>
	</g>
	<g id="POLYLINE_833_">
		<rect x="365.4" y="16.4" class="st7" width="26.8" height="5"/>
	</g>
	<g id="POLYLINE_834_">
		<rect x="404.6" y="16.4" class="st7" width="26.2" height="5"/>
	</g>
	<g id="POLYLINE_835_">
		<rect x="416.2" y="152.4" class="st7" width="26" height="5"/>
	</g>
	<g id="POLYLINE_836_">
		<rect x="377.2" y="152.4" class="st7" width="26.6" height="5"/>
	</g>
	<g id="POLYLINE_837_">
		<rect x="337.6" y="152.4" class="st7" width="27" height="5"/>
	</g>
	<g id="POLYLINE_838_">
		<rect x="299" y="152.4" class="st7" width="26" height="5"/>
	</g>
	<g id="POLYLINE_839_">
		<rect x="260.6" y="152.4" class="st7" width="26" height="5"/>
	</g>
	<g id="POLYLINE_840_">
		<rect x="223.3" y="152.4" class="st7" width="24.6" height="5"/>
	</g>
	<g id="POLYLINE_841_">
		<rect x="182.8" y="152.4" class="st7" width="28.2" height="5"/>
	</g>
	<g id="POLYLINE_842_">
		<rect x="144.3" y="152.4" class="st7" width="25.8" height="5"/>
	</g>
	<g id="POLYLINE_843_">
		<rect x="10.5" y="112.6" class="st7" width="7" height="5"/>
	</g>
	<g id="POLYLINE_844_">
		<rect x="10.5" y="93.8" class="st7" width="7" height="5"/>
	</g>
	<g id="POLYLINE_845_">
		<rect x="10.5" y="74.8" class="st7" width="7" height="5"/>
	</g>
	<g id="POLYLINE_846_">
		<rect x="10.5" y="56" class="st7" width="7" height="5"/>
	</g>
	<g id="POLYLINE_847_">
		<rect x="10.5" y="37.2" class="st7" width="7" height="5"/>
	</g>
	<g id="ARC_50_">
		<path class="st7" d="M17.5,78.2c0.4,0,0.8-0.4,0.8-0.8s-0.4-0.8-0.8-0.8"/>
	</g>
	<g id="SPLINE_16_">
		<path class="st7" d="M470.8,78.2c-0.6,0-0.8,0-0.8,0.2"/>
	</g>
	<g id="ARC_52_">
		<path class="st7" d="M468.4,78c-0.2,0.4-0.2,1,0.2,1.2s1,0.2,1.2-0.2c0.2-0.2,0.2-0.4,0.2-0.6"/>
	</g>
	<g id="SPLINE_17_">
		<path class="st7" d="M468.4,78c-0.8,0-1.4,1-1.4,1.4"/>
	</g>
	<g id="POLYLINE_866_">
		<line class="st7" x1="466.8" y1="79.6" x2="465" y2="79.6"/>
	</g>
	<g id="SPLINE_18_">
		<path class="st7" d="M465,79.6c0-0.2-0.4-0.4-1-0.4"/>
	</g>
	<g id="POLYLINE_867_">
		<line class="st7" x1="464" y1="79.2" x2="461.8" y2="79.2"/>
	</g>
	<g id="POLYLINE_868_">
		<line class="st7" x1="461.8" y1="79.2" x2="461.8" y2="75.6"/>
	</g>
	<g id="POLYLINE_869_">
		<line class="st7" x1="461.8" y1="75.6" x2="464" y2="75.6"/>
	</g>
	<g id="SPLINE_19_">
		<path class="st7" d="M464,75.6c0.6,0,1-0.2,1-0.4"/>
	</g>
	<g id="POLYLINE_870_">
		<line class="st7" x1="465" y1="75.2" x2="466.8" y2="75.2"/>
	</g>
	<g id="SPLINE_20_">
		<path class="st7" d="M466.8,75.2c0,0.4,0.8,1.4,1.4,1.4"/>
	</g>
	<g id="ARC_53_">
		<path class="st7" d="M470,76.2c0-0.4-0.4-0.8-0.8-0.8s-0.8,0.4-0.8,0.8c0,0.2,0,0.4,0.2,0.6"/>
	</g>
	<g id="SPLINE_21_">
		<path class="st7" d="M470,76.2c0,0.2,0.2,0.2,0.8,0.2"/>
	</g>
	<g id="ARC_54_">
		<path class="st7" d="M471.6,77.4c0-0.4-0.4-0.8-0.8-0.8"/>
	</g>
	<g id="ARC_55_">
		<path class="st7" d="M470.8,78.2c0.4,0,0.8-0.4,0.8-0.8"/>
	</g>
	<g id="SPLINE_22_">
		<path class="st7" d="M470.8,59.4c-0.6,0-0.8,0-0.8,0.2"/>
	</g>
	<g id="ARC_56_">
		<path class="st7" d="M468.4,59.2c-0.2,0.4-0.2,1,0.2,1.2s1,0.2,1.2-0.2c0.2-0.2,0.2-0.4,0.2-0.6"/>
	</g>
	<g id="SPLINE_23_">
		<path class="st7" d="M468.4,59.2c-0.8,0-1.4,1-1.4,1.4"/>
	</g>
	<g id="POLYLINE_871_">
		<line class="st7" x1="466.8" y1="60.6" x2="465" y2="60.6"/>
	</g>
	<g id="SPLINE_24_">
		<path class="st7" d="M465,60.6c0-0.2-0.4-0.4-1-0.4"/>
	</g>
	<g id="POLYLINE_872_">
		<line class="st7" x1="464" y1="60.2" x2="461.8" y2="60.2"/>
	</g>
	<g id="POLYLINE_873_">
		<line class="st7" x1="461.8" y1="60.2" x2="461.8" y2="56.8"/>
	</g>
	<g id="POLYLINE_874_">
		<line class="st7" x1="461.8" y1="56.8" x2="464" y2="56.8"/>
	</g>
	<g id="SPLINE_25_">
		<path class="st7" d="M464,56.8c0.6,0,1-0.2,1-0.4"/>
	</g>
	<g id="POLYLINE_875_">
		<line class="st7" x1="465" y1="56.4" x2="466.8" y2="56.4"/>
	</g>
	<g id="SPLINE_26_">
		<path class="st7" d="M466.8,56.4c0,0.4,0.8,1.4,1.4,1.4"/>
	</g>
	<g id="ARC_57_">
		<path class="st7" d="M470,57.4c0-0.4-0.4-0.8-0.8-0.8s-0.8,0.4-0.8,0.8c0,0.2,0,0.4,0.2,0.6"/>
	</g>
	<g id="SPLINE_27_">
		<path class="st7" d="M470,57.4c0,0.2,0.2,0.2,0.8,0.2"/>
	</g>
	<g id="ARC_58_">
		<path class="st7" d="M471.6,58.6c0-0.4-0.4-0.8-0.8-0.8"/>
	</g>
	<g id="ARC_59_">
		<path class="st7" d="M470.8,59.4c0.4,0,0.8-0.4,0.8-0.8"/>
	</g>
	<g id="SPLINE_28_">
		<path class="st7" d="M470.8,40.6c-0.6,0-0.8,0-0.8,0.2"/>
	</g>
	<g id="ARC_60_">
		<path class="st7" d="M468.4,40.4c-0.2,0.4-0.2,1,0.2,1.2s1,0.2,1.2-0.2c0.2-0.2,0.2-0.4,0.2-0.6"/>
	</g>
	<g id="SPLINE_29_">
		<path class="st7" d="M468.4,40.4c-0.8,0-1.4,1-1.4,1.4"/>
	</g>
	<g id="POLYLINE_876_">
		<line class="st7" x1="466.8" y1="41.8" x2="465" y2="41.8"/>
	</g>
	<g id="SPLINE_30_">
		<path class="st7" d="M465,41.8c0-0.2-0.4-0.4-1-0.4"/>
	</g>
	<g id="POLYLINE_877_">
		<line class="st7" x1="464" y1="41.4" x2="461.8" y2="41.4"/>
	</g>
	<g id="POLYLINE_878_">
		<line class="st7" x1="461.8" y1="41.4" x2="461.8" y2="38"/>
	</g>
	<g id="POLYLINE_879_">
		<line class="st7" x1="461.8" y1="38" x2="464" y2="38"/>
	</g>
	<g id="SPLINE_31_">
		<path class="st7" d="M464,38c0.6,0,1-0.2,1-0.4"/>
	</g>
	<g id="POLYLINE_880_">
		<line class="st7" x1="465" y1="37.6" x2="466.8" y2="37.6"/>
	</g>
	<g id="SPLINE_32_">
		<path class="st7" d="M466.8,37.6c0,0.4,0.8,1.4,1.4,1.4"/>
	</g>
	<g id="ARC_61_">
		<path class="st7" d="M470,38.6c0-0.4-0.4-0.8-0.8-0.8s-0.8,0.4-0.8,0.8c0,0.2,0,0.4,0.2,0.6"/>
	</g>
	<g id="SPLINE_33_">
		<path class="st7" d="M470,38.6c0,0.2,0.2,0.2,0.8,0.2"/>
	</g>
	<g id="ARC_62_">
		<path class="st7" d="M471.6,39.8c0-0.4-0.4-0.8-0.8-0.8"/>
	</g>
	<g id="ARC_63_">
		<path class="st7" d="M470.8,40.6c0.4,0,0.8-0.4,0.8-0.8"/>
	</g>
	<g id="SPLINE_34_">
		<path class="st7" d="M470.8,97.2c-0.6,0-0.8,0-0.8,0.2"/>
	</g>
	<g id="ARC_64_">
		<path class="st7" d="M468.4,97c-0.2,0.4-0.2,1,0.2,1.2s1,0.2,1.2-0.2c0.2-0.2,0.2-0.4,0.2-0.6"/>
	</g>
	<g id="SPLINE_35_">
		<path class="st7" d="M468.4,97c-0.8,0-1.4,1-1.4,1.4"/>
	</g>
	<g id="POLYLINE_881_">
		<line class="st7" x1="466.8" y1="98.4" x2="465" y2="98.4"/>
	</g>
	<g id="SPLINE_36_">
		<path class="st7" d="M465,98.4c0-0.2-0.4-0.4-1-0.4"/>
	</g>
	<g id="POLYLINE_882_">
		<line class="st7" x1="464" y1="98" x2="461.8" y2="98"/>
	</g>
	<g id="POLYLINE_883_">
		<line class="st7" x1="461.8" y1="98" x2="461.8" y2="94.6"/>
	</g>
	<g id="POLYLINE_884_">
		<line class="st7" x1="461.8" y1="94.6" x2="464" y2="94.6"/>
	</g>
	<g id="SPLINE_37_">
		<path class="st7" d="M464,94.6c0.6,0,1-0.2,1-0.4"/>
	</g>
	<g id="POLYLINE_885_">
		<line class="st7" x1="465" y1="94.2" x2="466.8" y2="94.2"/>
	</g>
	<g id="SPLINE_38_">
		<path class="st7" d="M466.8,94.2c0,0.4,0.8,1.4,1.4,1.4"/>
	</g>
	<g id="ARC_65_">
		<path class="st7" d="M470,95c0-0.4-0.4-0.8-0.8-0.8s-0.8,0.4-0.8,0.8c0,0.2,0,0.4,0.2,0.6"/>
	</g>
	<g id="SPLINE_39_">
		<path class="st7" d="M470,95c0,0.2,0.2,0.2,0.8,0.2"/>
	</g>
	<g id="ARC_66_">
		<path class="st7" d="M471.6,96.2c0-0.4-0.4-0.8-0.8-0.8"/>
	</g>
	<g id="ARC_67_">
		<path class="st7" d="M470.8,97.2c0.4,0,0.8-0.4,0.8-0.8"/>
	</g>
	<g id="SPLINE_40_">
		<path class="st7" d="M470.8,116c-0.6,0-0.8,0-0.8,0.2"/>
	</g>
	<g id="ARC_68_">
		<path class="st7" d="M468.4,115.8c-0.2,0.4-0.2,1,0.2,1.2s1,0.2,1.2-0.2c0.2-0.2,0.2-0.4,0.2-0.6"/>
	</g>
	<g id="SPLINE_41_">
		<path class="st7" d="M468.4,115.8c-0.8,0-1.4,1-1.4,1.4"/>
	</g>
	<g id="POLYLINE_886_">
		<line class="st7" x1="466.8" y1="117.2" x2="465" y2="117.2"/>
	</g>
	<g id="SPLINE_42_">
		<path class="st7" d="M465,117.2c0-0.2-0.4-0.4-1-0.4"/>
	</g>
	<g id="POLYLINE_887_">
		<line class="st7" x1="464" y1="116.8" x2="461.8" y2="116.8"/>
	</g>
	<g id="POLYLINE_888_">
		<line class="st7" x1="461.8" y1="116.8" x2="461.8" y2="113.4"/>
	</g>
	<g id="POLYLINE_889_">
		<line class="st7" x1="461.8" y1="113.4" x2="464" y2="113.4"/>
	</g>
	<g id="SPLINE_43_">
		<path class="st7" d="M464,113.4c0.6,0,1-0.2,1-0.4"/>
	</g>
	<g id="POLYLINE_890_">
		<line class="st7" x1="465" y1="113" x2="466.8" y2="113"/>
	</g>
	<g id="SPLINE_44_">
		<path class="st7" d="M466.8,113c0,0.4,0.8,1.4,1.4,1.4"/>
	</g>
	<g id="ARC_69_">
		<path class="st7" d="M470,113.8c0-0.4-0.4-0.8-0.8-0.8s-0.8,0.4-0.8,0.8c0,0.2,0,0.4,0.2,0.6"/>
	</g>
	<g id="SPLINE_45_">
		<path class="st7" d="M470,113.8c0,0.2,0.2,0.2,0.8,0.2"/>
	</g>
	<g id="ARC_70_">
		<path class="st7" d="M471.6,115c0-0.4-0.4-0.8-0.8-0.8"/>
	</g>
	<g id="ARC_71_">
		<path class="st7" d="M470.8,116c0.4,0,0.8-0.4,0.8-0.8"/>
	</g>
	<g id="SPLINE_46_">
		<path class="st7" d="M470.8,134.8c-0.6,0-0.8,0-0.8,0.2"/>
	</g>
	<g id="ARC_72_">
		<path class="st7" d="M468.4,134.6c-0.2,0.4-0.2,1,0.2,1.2s1,0.2,1.2-0.2c0.2-0.2,0.2-0.4,0.2-0.6"/>
	</g>
	<g id="SPLINE_47_">
		<path class="st7" d="M468.4,134.6c-0.8,0-1.4,1-1.4,1.4"/>
	</g>
	<g id="POLYLINE_891_">
		<line class="st7" x1="466.8" y1="136" x2="465" y2="136"/>
	</g>
	<g id="SPLINE_48_">
		<path class="st7" d="M465,136c0-0.2-0.4-0.4-1-0.4"/>
	</g>
	<g id="POLYLINE_892_">
		<line class="st7" x1="464" y1="135.6" x2="461.8" y2="135.6"/>
	</g>
	<g id="POLYLINE_893_">
		<line class="st7" x1="461.8" y1="135.6" x2="461.8" y2="132.2"/>
	</g>
	<g id="POLYLINE_894_">
		<line class="st7" x1="461.8" y1="132.2" x2="464" y2="132.2"/>
	</g>
	<g id="SPLINE_49_">
		<path class="st7" d="M464,132.2c0.6,0,1-0.2,1-0.4"/>
	</g>
	<g id="POLYLINE_895_">
		<line class="st7" x1="465" y1="131.8" x2="466.8" y2="131.8"/>
	</g>
	<g id="SPLINE_50_">
		<path class="st7" d="M466.8,131.8c0,0.4,0.8,1.4,1.4,1.4"/>
	</g>
	<g id="ARC_73_">
		<path class="st7" d="M470,132.6c0-0.4-0.4-0.8-0.8-0.8s-0.8,0.4-0.8,0.8c0,0.2,0,0.4,0.2,0.6"/>
	</g>
	<g id="SPLINE_51_">
		<path class="st7" d="M470,132.6c0,0.2,0.2,0.2,0.8,0.2"/>
	</g>
	<g id="ARC_74_">
		<path class="st7" d="M471.6,133.8c0-0.4-0.4-0.8-0.8-0.8"/>
	</g>
	<g id="ARC_75_">
		<path class="st7" d="M470.8,134.8c0.4,0,0.8-0.4,0.8-0.8"/>
	</g>
	<g id="POLYLINE_927_">
		<polygon class="st7" points="17.5,131.4 10.5,131.4 10.5,136.4 17.5,136.4 17.5,134.6 21.7,134.6 21.7,131.4 		"/>
	</g>
	<g id="POLYLINE_928_">
		<polygon class="st7" points="48.9,128.8 45.7,128.8 45.7,131.4 39.7,131.4 39.7,134.6 48.9,134.6 		"/>
	</g>
	<g id="POLYLINE_929_">
		<polyline class="st7" points="471.6,154.8 471.6,157.6 454.6,157.6 454.6,152.4 461.8,152.4 		"/>
	</g>
	<g id="POLYLINE_930_">
		<line class="st7" x1="461.8" y1="152.4" x2="461.8" y2="151"/>
	</g>
	<g id="POLYLINE_931_">
		<line class="st7" x1="461.8" y1="151" x2="464" y2="151"/>
	</g>
	<g id="SPLINE_52_">
		<path class="st7" d="M464,151c0.6,0,1-0.2,1-0.4"/>
	</g>
	<g id="POLYLINE_932_">
		<line class="st7" x1="465" y1="150.6" x2="466.8" y2="150.6"/>
	</g>
	<g id="SPLINE_53_">
		<path class="st7" d="M466.8,150.6c0,0.4,0.8,1.4,1.4,1.4"/>
	</g>
	<g id="ARC_77_">
		<path class="st7" d="M470,151.4c0-0.4-0.4-0.8-0.8-0.8s-0.8,0.4-0.8,0.8c0,0.2,0,0.4,0.2,0.6"/>
	</g>
	<g id="SPLINE_54_">
		<path class="st7" d="M470,151.4c0,0.2,0.2,0.2,0.8,0.2"/>
	</g>
	<g id="ARC_78_">
		<path class="st7" d="M471.6,152.6c0-0.4-0.4-0.8-0.8-0.8"/>
	</g>
	<g id="ARC_79_">
		<path class="st7" d="M470.8,153.6c0.4,0,0.8-0.4,0.8-0.8"/>
	</g>
	<g id="SPLINE_55_">
		<path class="st7" d="M470.8,153.6c-0.4,0-0.6,0-0.8,0.2"/>
	</g>
	<g id="SPLINE_56_">
		<path class="st7" d="M470,153.8c0.2,0.2,0.4,0.2,0.8,0.2"/>
	</g>
	<g id="ARC_80_">
		<path class="st7" d="M471.6,154.8c0-0.4-0.4-0.8-0.8-0.8"/>
	</g>
	<g id="ARC_81_">
		<path class="st7" d="M470.8,20c0.4,0,0.8-0.4,0.8-0.8"/>
	</g>
	<g id="SPLINE_57_">
		<path class="st7" d="M470.8,20c-0.4,0-0.6,0-0.8,0.2"/>
	</g>
	<g id="SPLINE_58_">
		<path class="st7" d="M470,20.2c0.2,0.2,0.4,0.2,0.8,0.2"/>
	</g>
	<g id="ARC_82_">
		<path class="st7" d="M471.6,21.2c0-0.4-0.4-0.8-0.8-0.8"/>
	</g>
	<g id="ARC_83_">
		<path class="st7" d="M470.8,22.2c0.4,0,0.8-0.4,0.8-0.8"/>
	</g>
	<g id="SPLINE_59_">
		<path class="st7" d="M470.8,22.2c-0.6,0-0.8,0-0.8,0.2"/>
	</g>
	<g id="ARC_84_">
		<path class="st7" d="M468.4,22c-0.2,0.4-0.2,1,0.2,1.2s1,0.2,1.2-0.2c0.2-0.2,0.2-0.4,0.2-0.6"/>
	</g>
	<g id="SPLINE_60_">
		<path class="st7" d="M468.4,22c-0.8,0-1.4,1-1.4,1.4"/>
	</g>
	<g id="POLYLINE_933_">
		<line class="st7" x1="466.8" y1="23.4" x2="465" y2="23.4"/>
	</g>
	<g id="SPLINE_61_">
		<path class="st7" d="M465,23.4c0-0.2-0.4-0.4-1-0.4"/>
	</g>
	<g id="POLYLINE_934_">
		<line class="st7" x1="464" y1="23" x2="461.8" y2="23"/>
	</g>
	<g id="POLYLINE_935_">
		<line class="st7" x1="461.8" y1="23" x2="461.8" y2="21.4"/>
	</g>
	<g id="POLYLINE_936_">
		<polyline class="st7" points="461.8,21.4 443.4,21.4 443.4,16.4 471.6,16.4 471.6,19.2 		"/>
	</g>
	<g id="POLYLINE_937_">
		<polygon class="st7" points="99.5,152.4 99.5,128.8 60.3,128.8 60.3,132 95.9,132 95.9,152.4 17.5,152.4 17.5,150.2 10.5,150.2 
			10.5,152.4 10.5,157.6 131.8,157.6 131.8,152.4 		"/>
	</g>
	<g id="POLYLINE_938_">
		<polygon class="st7" points="17.5,21.4 126.8,21.4 126.8,16.4 10.5,16.4 10.5,21.2 10.5,23.4 17.5,23.4 		"/>
	</g>
</g>
<g id="PLAN_x24_STRUCTURE_1.2">
</g>
<g id="PLAN_x24_STRUCTURE_1.1">
</g>
</svg>
