<?xml version="1.0" encoding="utf-8"?>
<!-- Generator: Adobe Illustrator 22.0.1, SVG Export Plug-In . SVG Version: 6.00 Build 0)  -->
<svg version="1.1" id="Calque_1" xmlns="http://www.w3.org/2000/svg" xmlns:xlink="http://www.w3.org/1999/xlink" x="0px" y="0px"
	 viewBox="0 0 246.3 370" style="enable-background:new 0 0 246.3 370;" xml:space="preserve">
<style type="text/css">
	.st0{display:none;}
	.st1{display:inline;}
	.st2{fill:none;}
	.st3{fill:none;stroke:#000000;stroke-width:0.2;stroke-linecap:square;stroke-miterlimit:10;stroke-dasharray:1,1;}
	.st4{fill:none;stroke:#000000;stroke-width:0.1;stroke-linecap:square;stroke-miterlimit:10;}
	.st5{fill:none;stroke:#000000;stroke-width:0.16;stroke-linecap:square;stroke-miterlimit:10;}
	.st6{fill:none;stroke:#000000;stroke-width:0.54;stroke-linecap:square;stroke-miterlimit:10;}
	.st7{fill:none;stroke:#000000;stroke-width:0.82;stroke-linecap:square;stroke-miterlimit:10;}
</style>
<g id="Calque_1_1_">
</g>
<g id="INFOS_x24_A4" class="st0">
	<g id="POLYLINE_2481_" class="st1">
		<rect x="-166.8" y="-229.9" class="st2" width="595.3" height="841.9"/>
	</g>
</g>
<g id="PLAN_x24_FOND">
</g>
<g id="PLAN_x24_POINTILLE">
	<g id="POLYLINE_314_">
		<line class="st3" x1="35.8" y1="292.8" x2="19.6" y2="285.9"/>
	</g>
	<g id="LINE_109_">
		<line class="st3" x1="19.6" y1="285.9" x2="35.8" y2="285.9"/>
	</g>
	<g id="LINE_108_">
		<line class="st3" x1="35.8" y1="289.4" x2="27.6" y2="289.4"/>
	</g>
	<g id="LINE_107_">
		<line class="st3" x1="35.8" y1="265.5" x2="19.6" y2="265.5"/>
	</g>
	<g id="LINE_106_">
		<line class="st3" x1="35.8" y1="268.9" x2="19.6" y2="268.9"/>
	</g>
	<g id="LINE_105_">
		<line class="st3" x1="35.8" y1="272.4" x2="19.6" y2="272.4"/>
	</g>
	<g id="LINE_104_">
		<line class="st3" x1="35.8" y1="275.8" x2="19.6" y2="275.8"/>
	</g>
	<g id="LINE_103_">
		<line class="st3" x1="35.8" y1="279.1" x2="19.6" y2="279.1"/>
	</g>
	<g id="LINE_102_">
		<line class="st3" x1="35.8" y1="282.5" x2="19.6" y2="282.5"/>
	</g>
	<g id="LINE_101_">
		<line class="st3" x1="162.9" y1="29.3" x2="162.9" y2="21.1"/>
	</g>
	<g id="POLYLINE_313_">
		<line class="st3" x1="166.2" y1="29.3" x2="161" y2="16.5"/>
	</g>
	<g id="LINE_100_">
		<line class="st3" x1="139" y1="29.3" x2="139" y2="16.5"/>
	</g>
	<g id="LINE_99_">
		<line class="st3" x1="142.5" y1="29.3" x2="142.5" y2="16.5"/>
	</g>
	<g id="LINE_98_">
		<line class="st3" x1="145.9" y1="29.3" x2="145.9" y2="16.5"/>
	</g>
	<g id="LINE_97_">
		<line class="st3" x1="149.2" y1="29.3" x2="149.2" y2="16.5"/>
	</g>
	<g id="LINE_96_">
		<line class="st3" x1="152.6" y1="29.3" x2="152.6" y2="16.5"/>
	</g>
	<g id="LINE_95_">
		<line class="st3" x1="156" y1="29.3" x2="156" y2="16.5"/>
	</g>
	<g id="LINE_94_">
		<line class="st3" x1="159.5" y1="29.3" x2="159.5" y2="16.5"/>
	</g>
</g>
<g id="PLAN_x24_VITRAGE">
	<g id="LINE_152_">
		<line class="st4" x1="85.8" y1="18.7" x2="85.8" y2="37.1"/>
	</g>
	<g id="POLYLINE_628_">
		<line class="st4" x1="78.2" y1="39.9" x2="63.4" y2="39.9"/>
	</g>
	<g id="POLYLINE_629_">
		<line class="st4" x1="39" y1="39.9" x2="24.4" y2="39.9"/>
	</g>
	<g id="POLYLINE_630_">
		<line class="st4" x1="58.7" y1="39.9" x2="44" y2="39.9"/>
	</g>
	<g id="LINE_161_">
		<line class="st4" x1="222" y1="208.8" x2="221" y2="186.5"/>
	</g>
	<g id="LINE_165_">
		<line class="st4" x1="219" y1="136.1" x2="218" y2="113.8"/>
	</g>
	<g id="LINE_172_">
		<line class="st4" x1="218" y1="111.7" x2="217" y2="89.5"/>
	</g>
	<g id="LINE_174_">
		<line class="st4" x1="217" y1="87.5" x2="216" y2="65.3"/>
	</g>
	<g id="LINE_176_">
		<line class="st4" x1="227.9" y1="353.1" x2="227" y2="331.9"/>
	</g>
	<g id="LINE_180_">
		<line class="st4" x1="223" y1="232.9" x2="222" y2="210.8"/>
	</g>
	<g id="LINE_184_">
		<line class="st4" x1="224" y1="257.4" x2="223" y2="234.9"/>
	</g>
	<g id="LINE_188_">
		<line class="st4" x1="224.9" y1="281.5" x2="224" y2="259.1"/>
	</g>
	<g id="LINE_192_">
		<line class="st4" x1="225.9" y1="305.8" x2="225" y2="283.4"/>
	</g>
	<g id="LINE_193_">
		<line class="st4" x1="226.9" y1="329.9" x2="226" y2="307.8"/>
	</g>
	<g id="LINE_199_">
		<line class="st4" x1="207.5" y1="353.1" x2="227.5" y2="353.1"/>
	</g>
	<g id="LINE_202_">
		<line class="st4" x1="19.6" y1="352.9" x2="17.2" y2="352.9"/>
	</g>
	<g id="LINE_203_">
		<line class="st4" x1="38" y1="352.9" x2="33.6" y2="352.9"/>
	</g>
	<g id="LINE_212_">
		<line class="st4" x1="149.6" y1="352.9" x2="143" y2="352.9"/>
	</g>
	<g id="LINE_213_">
		<line class="st4" x1="140.2" y1="352.9" x2="133.9" y2="352.9"/>
	</g>
	<g id="LINE_214_">
		<line class="st4" x1="159.5" y1="353.1" x2="181.5" y2="353.1"/>
	</g>
	<g id="LINE_217_">
		<line class="st4" x1="183.5" y1="353.1" x2="205.5" y2="353.1"/>
	</g>
	<g id="LINE_218_">
		<line class="st4" x1="61.8" y1="353.1" x2="39.8" y2="353.1"/>
	</g>
	<g id="LINE_221_">
		<line class="st4" x1="85.8" y1="353.1" x2="63.8" y2="353.1"/>
	</g>
	<g id="LINE_222_">
		<line class="st4" x1="105" y1="352.9" x2="111.7" y2="352.9"/>
	</g>
	<g id="LINE_223_">
		<line class="st4" x1="95.8" y1="352.9" x2="102.4" y2="352.9"/>
	</g>
</g>
<g id="PLAN_x24_MOBILIER">
</g>
<g id="PLAN_x24_DETAIL">
	<g id="POLYLINE_238_">
		<line class="st5" x1="216" y1="36.1" x2="224.6" y2="35.7"/>
	</g>
	<g id="ARC_21_">
		<path class="st5" d="M224.6,35.7c-0.2-4.8-4.2-8.4-9-8.2"/>
	</g>
	<g id="ARC_20_">
		<path class="st5" d="M215.6,27.5c4.8-0.2,8.4-4.2,8.2-9"/>
	</g>
	<g id="POLYLINE_237_">
		<line class="st5" x1="223.9" y1="18.5" x2="215.2" y2="18.9"/>
	</g>
	<g id="POLYLINE_236_">
		<line class="st5" x1="217" y1="60.7" x2="208.5" y2="61.1"/>
	</g>
	<g id="ARC_19_">
		<path class="st5" d="M216.6,52.1c-4.8,0.2-8.4,4.2-8.2,9"/>
	</g>
	<g id="ARC_18_">
		<path class="st5" d="M207.6,43.9c0.2,4.8,4.2,8.4,9,8.2"/>
	</g>
	<g id="POLYLINE_235_">
		<line class="st5" x1="207.6" y1="43.9" x2="216.2" y2="43.5"/>
	</g>
	<g id="POLYLINE_234_">
		<line class="st5" x1="221.2" y1="164.8" x2="212.6" y2="165.1"/>
	</g>
	<g id="ARC_17_">
		<path class="st5" d="M212.6,165.1c0.2,4.8,4.2,8.4,9,8.2"/>
	</g>
	<g id="ARC_14_">
		<path class="st5" d="M221.6,173.3c-4.8,0.2-8.4,4.2-8.2,9"/>
	</g>
	<g id="POLYLINE_233_">
		<line class="st5" x1="213.5" y1="182.3" x2="222" y2="181.9"/>
	</g>
	<g id="POLYLINE_232_">
		<line class="st5" x1="167.9" y1="29.3" x2="185.5" y2="29.3"/>
	</g>
	<g id="POLYLINE_231_">
		<line class="st5" x1="185.5" y1="29.3" x2="185.5" y2="39.5"/>
	</g>
	<g id="POLYLINE_230_">
		<line class="st5" x1="185.5" y1="39.5" x2="173" y2="39.5"/>
	</g>
	<g id="POLYLINE_229_">
		<line class="st5" x1="173" y1="39.5" x2="173" y2="29.3"/>
	</g>
	<g id="POLYLINE_228_">
		<line class="st5" x1="173" y1="29.3" x2="173" y2="16.5"/>
	</g>
	<g id="POLYLINE_227_">
		<line class="st5" x1="131.2" y1="353.5" x2="131.2" y2="362.1"/>
	</g>
	<g id="ARC_9_">
		<path class="st5" d="M122.7,353.5c0,4.8,3.8,8.6,8.6,8.6"/>
	</g>
	<g id="ARC_8_">
		<path class="st5" d="M114,362.1c4.8,0,8.6-3.8,8.6-8.6"/>
	</g>
	<g id="POLYLINE_226_">
		<line class="st5" x1="114" y1="362.1" x2="114" y2="353.5"/>
	</g>
	<g id="POLYLINE_225_">
		<line class="st5" x1="35.8" y1="294.1" x2="35.8" y2="311.9"/>
	</g>
	<g id="POLYLINE_224_">
		<line class="st5" x1="35.8" y1="311.9" x2="46" y2="311.9"/>
	</g>
	<g id="POLYLINE_223_">
		<line class="st5" x1="46" y1="311.9" x2="46" y2="299.5"/>
	</g>
	<g id="POLYLINE_222_">
		<line class="st5" x1="46" y1="299.5" x2="35.8" y2="299.5"/>
	</g>
	<g id="POLYLINE_221_">
		<line class="st5" x1="35.8" y1="299.5" x2="19.6" y2="299.5"/>
	</g>
	<g id="LINE_35_">
		<line class="st5" x1="27.6" y1="289.4" x2="19.6" y2="289.4"/>
	</g>
	<g id="POLYLINE_220_">
		<line class="st5" x1="42.6" y1="311.9" x2="42.6" y2="299.5"/>
	</g>
	<g id="POLYLINE_219_">
		<line class="st5" x1="39.2" y1="311.9" x2="39.2" y2="299.5"/>
	</g>
	<g id="POLYLINE_218_">
		<line class="st5" x1="207.9" y1="42.5" x2="190.9" y2="42.5"/>
	</g>
	<g id="POLYLINE_217_">
		<line class="st5" x1="207.9" y1="40.3" x2="190.9" y2="40.3"/>
	</g>
	<g id="POLYLINE_216_">
		<line class="st5" x1="33.6" y1="332.4" x2="33.6" y2="323.4"/>
	</g>
	<g id="POLYLINE_215_">
		<line class="st5" x1="35.8" y1="323.4" x2="35.8" y2="332.4"/>
	</g>
	<g id="POLYLINE_214_">
		<line class="st5" x1="32.6" y1="315.5" x2="20.2" y2="333.8"/>
	</g>
	<g id="POLYLINE_213_">
		<line class="st5" x1="32.6" y1="333.8" x2="20.2" y2="315.5"/>
	</g>
	<g id="POLYLINE_212_">
		<rect x="20.2" y="315.5" class="st5" width="12.4" height="18.2"/>
	</g>
	<g id="POLYLINE_211_">
		<line class="st5" x1="209.9" y1="18.7" x2="189.6" y2="38.9"/>
	</g>
	<g id="POLYLINE_210_">
		<line class="st5" x1="189.6" y1="18.7" x2="209.9" y2="38.9"/>
	</g>
	<g id="POLYLINE_209_">
		<rect x="189.6" y="18.7" class="st5" width="20.2" height="20.2"/>
	</g>
	<g id="LINE_34_">
		<line class="st5" x1="35.8" y1="292.8" x2="19.6" y2="292.8"/>
	</g>
	<g id="LINE_33_">
		<line class="st5" x1="35.8" y1="296.1" x2="19.6" y2="296.1"/>
	</g>
	<g id="LINE_32_">
		<line class="st5" x1="89.8" y1="18.7" x2="89.8" y2="37.1"/>
	</g>
	<g id="LINE_31_">
		<line class="st5" x1="84.2" y1="18.7" x2="84.2" y2="37.1"/>
	</g>
	<g id="POLYLINE_208_">
		<line class="st5" x1="39" y1="42.3" x2="24.4" y2="42.3"/>
	</g>
	<g id="POLYLINE_207_">
		<line class="st5" x1="58.7" y1="42.3" x2="44" y2="42.3"/>
	</g>
	<g id="POLYLINE_206_">
		<line class="st5" x1="78.2" y1="42.3" x2="63.4" y2="42.3"/>
	</g>
	<g id="POLYLINE_205_">
		<line class="st5" x1="78.2" y1="38.3" x2="63.4" y2="38.3"/>
	</g>
	<g id="POLYLINE_204_">
		<line class="st5" x1="58.7" y1="38.3" x2="44" y2="38.3"/>
	</g>
	<g id="POLYLINE_203_">
		<line class="st5" x1="39" y1="38.3" x2="24.4" y2="38.3"/>
	</g>
	<g id="LINE_30_">
		<line class="st5" x1="223" y1="208.8" x2="222.2" y2="186.3"/>
	</g>
	<g id="POLYLINE_202_">
		<line class="st5" x1="218" y1="186.1" x2="219" y2="208.9"/>
	</g>
	<g id="LINE_29_">
		<line class="st5" x1="220" y1="135.9" x2="219.2" y2="113.8"/>
	</g>
	<g id="POLYLINE_201_">
		<line class="st5" x1="215" y1="113.5" x2="216" y2="136.1"/>
	</g>
	<g id="POLYLINE_200_">
		<line class="st5" x1="214" y1="89.3" x2="215" y2="111.9"/>
	</g>
	<g id="LINE_28_">
		<line class="st5" x1="219" y1="111.7" x2="218.2" y2="89.5"/>
	</g>
	<g id="POLYLINE_199_">
		<line class="st5" x1="213" y1="64.9" x2="214" y2="87.7"/>
	</g>
	<g id="LINE_27_">
		<line class="st5" x1="218.2" y1="87.5" x2="217.2" y2="65.1"/>
	</g>
	<g id="POLYLINE_198_">
		<line class="st5" x1="224" y1="331.5" x2="224.9" y2="350.1"/>
	</g>
	<g id="LINE_26_">
		<line class="st5" x1="229" y1="354.1" x2="228" y2="331.9"/>
	</g>
	<g id="POLYLINE_197_">
		<line class="st5" x1="219" y1="210.5" x2="220" y2="233.1"/>
	</g>
	<g id="LINE_25_">
		<line class="st5" x1="224" y1="232.9" x2="223.2" y2="210.8"/>
	</g>
	<g id="POLYLINE_196_">
		<line class="st5" x1="220" y1="234.8" x2="221" y2="257.4"/>
	</g>
	<g id="LINE_24_">
		<line class="st5" x1="225" y1="257.1" x2="224" y2="234.9"/>
	</g>
	<g id="POLYLINE_195_">
		<line class="st5" x1="221" y1="258.9" x2="222" y2="281.5"/>
	</g>
	<g id="LINE_23_">
		<line class="st5" x1="226" y1="281.4" x2="225" y2="259.1"/>
	</g>
	<g id="POLYLINE_194_">
		<line class="st5" x1="222" y1="283.1" x2="223" y2="305.9"/>
	</g>
	<g id="LINE_22_">
		<line class="st5" x1="227" y1="305.8" x2="226" y2="283.4"/>
	</g>
	<g id="LINE_21_">
		<line class="st5" x1="228" y1="329.9" x2="227" y2="307.5"/>
	</g>
	<g id="POLYLINE_193_">
		<line class="st5" x1="223" y1="307.4" x2="224" y2="330.1"/>
	</g>
	<g id="POLYLINE_192_">
		<line class="st5" x1="207.5" y1="350.1" x2="224.9" y2="350.1"/>
	</g>
	<g id="LINE_20_">
		<line class="st5" x1="207.5" y1="354.1" x2="227.5" y2="354.1"/>
	</g>
	<g id="POLYLINE_191_">
		<line class="st5" x1="19.6" y1="353.5" x2="17.2" y2="353.5"/>
	</g>
	<g id="LINE_19_">
		<line class="st5" x1="38" y1="353.5" x2="33.6" y2="353.5"/>
	</g>
	<g id="LINE_18_">
		<line class="st5" x1="19.6" y1="352.4" x2="17.2" y2="352.4"/>
	</g>
	<g id="LINE_17_">
		<line class="st5" x1="38" y1="352.4" x2="33.6" y2="352.4"/>
	</g>
	<g id="POLYLINE_190_">
		<line class="st5" x1="22.4" y1="352.4" x2="22.4" y2="343.8"/>
	</g>
	<g id="ARC_7_">
		<path class="st5" d="M31,352.4c0-4.8-3.8-8.6-8.6-8.6"/>
	</g>
	<g id="POLYLINE_189_">
		<line class="st5" x1="149.6" y1="352.4" x2="143" y2="352.4"/>
	</g>
	<g id="POLYLINE_188_">
		<line class="st5" x1="140.2" y1="352.4" x2="133.9" y2="352.4"/>
	</g>
	<g id="LINE_16_">
		<line class="st5" x1="149.6" y1="353.5" x2="143" y2="353.5"/>
	</g>
	<g id="LINE_15_">
		<line class="st5" x1="140.2" y1="353.5" x2="133.9" y2="353.5"/>
	</g>
	<g id="LINE_14_">
		<line class="st5" x1="159.5" y1="354.1" x2="181.5" y2="354.1"/>
	</g>
	<g id="LINE_13_">
		<line class="st5" x1="183.5" y1="354.1" x2="205.5" y2="354.1"/>
	</g>
	<g id="POLYLINE_187_">
		<line class="st5" x1="159.5" y1="350.1" x2="181.5" y2="350.1"/>
	</g>
	<g id="POLYLINE_186_">
		<line class="st5" x1="183.5" y1="350.1" x2="205.5" y2="350.1"/>
	</g>
	<g id="POLYLINE_185_">
		<line class="st5" x1="61.8" y1="350.1" x2="39.8" y2="350.1"/>
	</g>
	<g id="POLYLINE_184_">
		<line class="st5" x1="85.8" y1="350.1" x2="63.8" y2="350.1"/>
	</g>
	<g id="LINE_12_">
		<line class="st5" x1="61.8" y1="354.1" x2="39.8" y2="354.1"/>
	</g>
	<g id="LINE_11_">
		<line class="st5" x1="85.8" y1="354.1" x2="63.8" y2="354.1"/>
	</g>
	<g id="LINE_10_">
		<line class="st5" x1="105" y1="353.5" x2="111.7" y2="353.5"/>
	</g>
	<g id="LINE_9_">
		<line class="st5" x1="95.8" y1="353.5" x2="102.4" y2="353.5"/>
	</g>
	<g id="POLYLINE_183_">
		<line class="st5" x1="105" y1="352.4" x2="111.7" y2="352.4"/>
	</g>
	<g id="POLYLINE_182_">
		<line class="st5" x1="95.8" y1="352.4" x2="102.4" y2="352.4"/>
	</g>
	<g id="POLYLINE_181_">
		<line class="st5" x1="185.5" y1="36.1" x2="173" y2="36.1"/>
	</g>
	<g id="POLYLINE_180_">
		<line class="st5" x1="185.5" y1="32.7" x2="173" y2="32.7"/>
	</g>
	<g id="LINE_8_">
		<line class="st5" x1="162.9" y1="21.1" x2="162.9" y2="16.5"/>
	</g>
	<g id="LINE_7_">
		<line class="st5" x1="166.2" y1="29.3" x2="166.2" y2="16.5"/>
	</g>
	<g id="LINE_5_">
		<line class="st5" x1="169.6" y1="29.3" x2="169.6" y2="16.5"/>
	</g>
</g>
<g id="PLAN_x24_CLOISON_TRANSLUCIDE">
</g>
<g id="PLAN_x24_CLOISON_1.3">
</g>
<g id="PLAN_x24_CLOISON_1.2">
</g>
<g id="PLAN_x24_CLOISON_1.1">
</g>
<g id="PLAN_x24_STRUCTURE_2.3">
	<g id="POLYLINE_309_">
		<line class="st6" x1="94.8" y1="353.5" x2="95.8" y2="353.5"/>
	</g>
	<g id="POLYLINE_308_">
		<polyline class="st6" points="95.8,353.5 95.8,352.4 94.8,352.4 		"/>
	</g>
	<g id="CIRCLE_38_">
		<path class="st6" d="M157.9,78.5c0-0.6,0.6-1.2,1.2-1.2c0.6,0,1.2,0.6,1.2,1.2s-0.6,1.2-1.2,1.2C158.5,79.7,157.9,79.3,157.9,78.5
			L157.9,78.5z"/>
	</g>
	<g id="CIRCLE_37_">
		<path class="st6" d="M157.9,170.5c0-0.6,0.6-1.2,1.2-1.2c0.6,0,1.2,0.6,1.2,1.2s-0.6,1.2-1.2,1.2
			C158.5,171.7,157.9,171.1,157.9,170.5L157.9,170.5z"/>
	</g>
	<g id="CIRCLE_36_">
		<path class="st6" d="M157.9,124.5c0-0.6,0.6-1.2,1.2-1.2c0.6,0,1.2,0.6,1.2,1.2s-0.6,1.2-1.2,1.2
			C158.5,125.7,157.9,125.1,157.9,124.5L157.9,124.5z"/>
	</g>
	<g id="CIRCLE_35_">
		<path class="st6" d="M157.9,32.5c0-0.6,0.6-1.2,1.2-1.2c0.6,0,1.2,0.6,1.2,1.2s-0.6,1.2-1.2,1.2C158.5,33.7,157.9,33.3,157.9,32.5
			L157.9,32.5z"/>
	</g>
	<g id="CIRCLE_34_">
		<path class="st6" d="M85.8,308.4c0-0.6,0.6-1.2,1.2-1.2s1.2,0.6,1.2,1.2s-0.6,1.2-1.2,1.2S85.8,309.1,85.8,308.4L85.8,308.4z"/>
	</g>
	<g id="CIRCLE_33_">
		<path class="st6" d="M157.9,308.4c0-0.6,0.6-1.2,1.2-1.2c0.6,0,1.2,0.6,1.2,1.2s-0.6,1.2-1.2,1.2
			C158.5,309.6,157.9,309.1,157.9,308.4L157.9,308.4z"/>
	</g>
	<g id="CIRCLE_32_">
		<path class="st6" d="M85.8,262.5c0-0.6,0.6-1.2,1.2-1.2s1.2,0.6,1.2,1.2s-0.6,1.2-1.2,1.2S85.8,263.1,85.8,262.5L85.8,262.5z"/>
	</g>
	<g id="CIRCLE_31_">
		<path class="st6" d="M157.9,262.5c0-0.6,0.6-1.2,1.2-1.2c0.6,0,1.2,0.6,1.2,1.2s-0.6,1.2-1.2,1.2
			C158.5,263.8,157.9,263.1,157.9,262.5L157.9,262.5z"/>
	</g>
	<g id="CIRCLE_30_">
		<path class="st6" d="M85.8,216.5c0-0.6,0.6-1.2,1.2-1.2s1.2,0.6,1.2,1.2s-0.6,1.2-1.2,1.2S85.8,217.1,85.8,216.5L85.8,216.5z"/>
	</g>
	<g id="CIRCLE_29_">
		<path class="st6" d="M157.9,216.5c0-0.6,0.6-1.2,1.2-1.2c0.6,0,1.2,0.6,1.2,1.2s-0.6,1.2-1.2,1.2
			C158.5,217.7,157.9,217.1,157.9,216.5L157.9,216.5z"/>
	</g>
	<g id="CIRCLE_28_">
		<path class="st6" d="M85.8,170.5c0-0.6,0.6-1.2,1.2-1.2s1.2,0.6,1.2,1.2s-0.6,1.2-1.2,1.2S85.8,171.1,85.8,170.5L85.8,170.5z"/>
	</g>
	<g id="CIRCLE_27_">
		<path class="st6" d="M85.8,124.5c0-0.6,0.6-1.2,1.2-1.2s1.2,0.6,1.2,1.2s-0.6,1.2-1.2,1.2S85.8,125.1,85.8,124.5L85.8,124.5z"/>
	</g>
	<g id="POLYLINE_307_">
		<polyline class="st6" points="216.2,42.7 216.2,43.5 215.9,43.5 215.6,42.7 		"/>
	</g>
	<g id="POLYLINE_306_">
		<polyline class="st6" points="217,61.5 217,60.7 216.5,60.7 216.5,61.5 		"/>
	</g>
	<g id="POLYLINE_305_">
		
			<rect x="220.6" y="162.1" transform="matrix(0.9991 -4.210112e-02 4.210112e-02 0.9991 -6.6854 9.447)" class="st6" width="0.6" height="2.6"/>
	</g>
	<g id="POLYLINE_304_">
		
			<rect x="221.4" y="182" transform="matrix(0.9989 -4.660126e-02 4.660126e-02 0.9989 -8.2988 10.5328)" class="st6" width="0.6" height="2.6"/>
	</g>
	<g id="POLYLINE_303_">
		<polyline class="st6" points="229,352.5 229,351.9 227.9,351.9 227.9,353.1 227.5,353.1 227.5,354.1 228.9,354.1 		"/>
	</g>
	<g id="POLYLINE_302_">
		<rect x="31" y="352.4" class="st6" width="2.6" height="1.2"/>
	</g>
	<g id="POLYLINE_301_">
		<rect x="19.6" y="352.4" class="st6" width="2.6" height="1.2"/>
	</g>
	<g id="POLYLINE_300_">
		<rect x="102.4" y="352.4" class="st6" width="2.6" height="1.2"/>
	</g>
	<g id="POLYLINE_299_">
		<polyline class="st6" points="19.6,260.8 37.6,260.8 37.6,294.1 35.8,294.1 35.8,262.5 19.6,262.5 		"/>
	</g>
	<g id="POLYLINE_298_">
		<polyline class="st6" points="134.2,16.5 134.2,30.9 167.9,30.9 167.9,29.3 136,29.3 136,16.5 		"/>
	</g>
</g>
<g id="PLAN_x24_STRUCTURE_2.2">
</g>
<g id="PLAN_x24_STRUCTURE_2.1">
</g>
<g id="PLAN_x24_STRUCTURE_1.3">
	<g id="LINE_140_">
		<line class="st7" x1="207.9" y1="40.3" x2="211.6" y2="40.3"/>
	</g>
	<g id="LINE_141_">
		<line class="st7" x1="211.6" y1="40.3" x2="211.5" y2="36.3"/>
	</g>
	<g id="POLYLINE_616_">
		<line class="st7" x1="211.5" y1="36.3" x2="216" y2="36.1"/>
	</g>
	<g id="LINE_142_">
		<line class="st7" x1="216" y1="36.1" x2="216.2" y2="39.1"/>
	</g>
	<g id="ARC_28_">
		<path class="st7" d="M216.2,40.9c0.6,0.8,1.6,1,2.4,0.4s1-1.6,0.4-2.4c-0.6-0.8-1.6-1-2.4-0.4c-0.2,0.2-0.4,0.4-0.4,0.6"/>
	</g>
	<g id="POLYLINE_617_">
		<polyline class="st7" points="216.2,40.9 216.2,42.7 212.2,42.9 212.2,42.5 		"/>
	</g>
	<g id="POLYLINE_618_">
		<line class="st7" x1="212.2" y1="42.5" x2="207.9" y2="42.5"/>
	</g>
	<g id="POLYLINE_619_">
		<line class="st7" x1="207.9" y1="42.5" x2="207.9" y2="40.3"/>
	</g>
	<g id="POLYLINE_637_">
		<rect x="58.7" y="38.3" class="st7" width="4.8" height="4"/>
	</g>
	<g id="POLYLINE_638_">
		<line class="st7" x1="87.8" y1="350.1" x2="86.8" y2="350.1"/>
	</g>
	<g id="POLYLINE_639_">
		<line class="st7" x1="86.8" y1="350.1" x2="85.8" y2="350.1"/>
	</g>
	<g id="LINE_154_">
		<line class="st7" x1="85.8" y1="350.1" x2="85.8" y2="354.1"/>
	</g>
	<g id="ARC_29_">
		<path class="st7" d="M85.8,354.1c-0.8,0.6-1,1.6-0.4,2.4s1.6,1,2.4,0.4s1-1.6,0.4-2.4c-0.2-0.2-0.2-0.4-0.4-0.4"/>
	</g>
	<g id="POLYLINE_640_">
		<line class="st7" x1="87.8" y1="354.1" x2="90.7" y2="354.1"/>
	</g>
	<g id="ARC_30_">
		<path class="st7" d="M90.7,354.1c-0.8,0.6-1,1.6-0.4,2.4s1.6,1,2.4,0.4s1-1.6,0.4-2.4c-0.2-0.2-0.2-0.4-0.4-0.4"/>
	</g>
	<g id="POLYLINE_641_">
		<polyline class="st7" points="92.7,354.1 94.8,354.1 94.8,350.1 85.8,350.1 		"/>
	</g>
	<g id="POLYLINE_642_">
		<line class="st7" x1="157.6" y1="350.1" x2="158.6" y2="350.1"/>
	</g>
	<g id="POLYLINE_643_">
		<line class="st7" x1="158.6" y1="350.1" x2="159.5" y2="350.1"/>
	</g>
	<g id="LINE_155_">
		<line class="st7" x1="159.5" y1="350.1" x2="159.5" y2="354.1"/>
	</g>
	<g id="ARC_31_">
		<path class="st7" d="M157.6,354.1c-0.8,0.6-1,1.6-0.4,2.4s1.6,1,2.4,0.4c0.8-0.6,1-1.6,0.4-2.4c-0.2-0.2-0.2-0.4-0.4-0.4"/>
	</g>
	<g id="POLYLINE_644_">
		<line class="st7" x1="157.6" y1="354.1" x2="154.6" y2="354.1"/>
	</g>
	<g id="ARC_32_">
		<path class="st7" d="M152.9,354.1c-0.8,0.6-1,1.6-0.4,2.4s1.6,1,2.4,0.4s1-1.6,0.4-2.4c-0.2-0.2-0.2-0.4-0.4-0.4"/>
	</g>
	<g id="POLYLINE_645_">
		<polyline class="st7" points="152.9,354.1 150.5,354.1 150.5,350.1 159.5,350.1 		"/>
	</g>
	<g id="POLYLINE_646_">
		<line class="st7" x1="216" y1="137.8" x2="217" y2="160.3"/>
	</g>
	<g id="POLYLINE_647_">
		<line class="st7" x1="217" y1="160.3" x2="217" y2="161.3"/>
	</g>
	<g id="POLYLINE_648_">
		<line class="st7" x1="217" y1="161.3" x2="217" y2="162.3"/>
	</g>
	<g id="LINE_156_">
		<line class="st7" x1="217" y1="162.3" x2="221.2" y2="162.1"/>
	</g>
	<g id="ARC_33_">
		<path class="st7" d="M221.2,162.1c0.6,0.8,1.6,1,2.4,0.4s1-1.6,0.4-2.4c-0.6-0.8-1.6-1-2.4-0.4c-0.2,0.2-0.4,0.4-0.4,0.6"/>
	</g>
	<g id="LINE_157_">
		<line class="st7" x1="221" y1="160.3" x2="220.2" y2="137.9"/>
	</g>
	<g id="LINE_158_">
		<line class="st7" x1="220.2" y1="137.9" x2="220.2" y2="137.9"/>
	</g>
	<g id="ARC_34_">
		<path class="st7" d="M220.2,137.9c0.6,0.8,1.6,1,2.4,0.4s1-1.6,0.4-2.4c-0.6-0.8-1.6-1-2.4-0.4c-0.2,0.2-0.4,0.4-0.4,0.6"/>
	</g>
	<g id="LINE_159_">
		<line class="st7" x1="220" y1="135.9" x2="216" y2="136.1"/>
	</g>
	<g id="POLYLINE_649_">
		<line class="st7" x1="216" y1="136.1" x2="216" y2="137.1"/>
	</g>
	<g id="POLYLINE_650_">
		<line class="st7" x1="216" y1="137.1" x2="216" y2="137.8"/>
	</g>
	<g id="POLYLINE_651_">
		<polygon class="st7" points="89.8,85.5 89.8,76.7 84.2,76.7 84.2,79.1 81.2,79.1 81.2,85.5 		"/>
	</g>
	<g id="POLYLINE_652_">
		<polygon class="st7" points="89.8,50.7 89.8,37.1 84.2,37.1 84.2,38.3 78.2,38.3 78.2,42.3 84.2,42.3 84.2,50.7 		"/>
	</g>
	<g id="POLYLINE_653_">
		<polyline class="st7" points="39,38.3 39,42.3 44,42.3 44,38.3 39,38.3 39,42.3 		"/>
	</g>
	<g id="ARC_35_">
		<path class="st7" d="M217.2,65.1c0.6,0.8,1.6,1,2.4,0.4s1-1.6,0.4-2.4s-1.6-1-2.4-0.4c-0.2,0.2-0.4,0.4-0.4,0.6"/>
	</g>
	<g id="LINE_160_">
		<line class="st7" x1="217.2" y1="65.1" x2="213.2" y2="65.3"/>
	</g>
	<g id="POLYLINE_656_">
		<polyline class="st7" points="213.2,65.3 213,61.7 217,61.5 217.2,63.3 		"/>
	</g>
	<g id="POLYLINE_657_">
		<polyline class="st7" points="213.2,65.3 213,64.3 213,63.5 		"/>
	</g>
	<g id="POLYLINE_658_">
		<line class="st7" x1="218" y1="186.5" x2="218" y2="185.5"/>
	</g>
	<g id="POLYLINE_659_">
		<line class="st7" x1="218" y1="185.5" x2="218" y2="184.8"/>
	</g>
	<g id="LINE_163_">
		<line class="st7" x1="218" y1="184.8" x2="222" y2="184.5"/>
	</g>
	<g id="ARC_36_">
		<path class="st7" d="M222.2,186.3c0.6,0.8,1.6,1,2.4,0.4s1-1.6,0.4-2.4c-0.6-0.8-1.6-1-2.4-0.4c-0.2,0.2-0.4,0.4-0.4,0.6"/>
	</g>
	<g id="LINE_164_">
		<line class="st7" x1="222.2" y1="186.3" x2="218" y2="186.5"/>
	</g>
	<g id="POLYLINE_661_">
		<line class="st7" x1="215" y1="113.9" x2="215" y2="112.9"/>
	</g>
	<g id="POLYLINE_662_">
		<line class="st7" x1="215" y1="112.9" x2="215" y2="111.9"/>
	</g>
	<g id="LINE_167_">
		<line class="st7" x1="215" y1="111.9" x2="219" y2="111.7"/>
	</g>
	<g id="ARC_37_">
		<path class="st7" d="M219.2,113.8c0.6,0.8,1.6,1,2.4,0.4s1-1.6,0.4-2.4s-1.6-1-2.4-0.4c-0.2,0.2-0.4,0.4-0.4,0.6"/>
	</g>
	<g id="LINE_168_">
		<line class="st7" x1="219.2" y1="113.8" x2="215" y2="113.9"/>
	</g>
	<g id="POLYLINE_665_">
		<line class="st7" x1="214.2" y1="89.5" x2="214" y2="88.7"/>
	</g>
	<g id="POLYLINE_666_">
		<line class="st7" x1="214" y1="88.7" x2="214" y2="87.7"/>
	</g>
	<g id="LINE_169_">
		<line class="st7" x1="214" y1="87.7" x2="218.2" y2="87.5"/>
	</g>
	<g id="ARC_38_">
		<path class="st7" d="M218.2,89.5c0.6,0.8,1.6,1,2.4,0.4s1-1.6,0.4-2.4s-1.6-1-2.4-0.4c-0.2,0.2-0.4,0.4-0.4,0.6"/>
	</g>
	<g id="LINE_170_">
		<line class="st7" x1="218.2" y1="89.5" x2="214.2" y2="89.5"/>
	</g>
	<g id="POLYLINE_671_">
		<rect x="228.9" y="352.5" class="st7" width="3.6" height="5"/>
	</g>
	<g id="POLYLINE_674_">
		<line class="st7" x1="219" y1="210.8" x2="219" y2="209.9"/>
	</g>
	<g id="POLYLINE_675_">
		<line class="st7" x1="219" y1="209.9" x2="219" y2="208.9"/>
	</g>
	<g id="LINE_177_">
		<line class="st7" x1="219" y1="208.9" x2="223" y2="208.8"/>
	</g>
	<g id="ARC_4_">
		<path class="st7" d="M223.2,210.8c0.6,0.8,1.6,1,2.4,0.4s1-1.6,0.4-2.4c-0.6-0.8-1.6-1-2.4-0.4c-0.2,0.2-0.4,0.4-0.4,0.6"/>
	</g>
	<g id="LINE_178_">
		<line class="st7" x1="223.2" y1="210.8" x2="219" y2="210.8"/>
	</g>
	<g id="POLYLINE_677_">
		<line class="st7" x1="220" y1="235.1" x2="220" y2="234.1"/>
	</g>
	<g id="POLYLINE_678_">
		<line class="st7" x1="220" y1="234.1" x2="220" y2="233.1"/>
	</g>
	<g id="LINE_181_">
		<line class="st7" x1="220" y1="233.1" x2="224" y2="232.9"/>
	</g>
	<g id="ARC_40_">
		<path class="st7" d="M224.2,234.9c0.6,0.8,1.6,1,2.4,0.4s1-1.6,0.4-2.4c-0.6-0.8-1.6-1-2.4-0.4c-0.2,0.2-0.4,0.4-0.4,0.6"/>
	</g>
	<g id="LINE_182_">
		<line class="st7" x1="224.2" y1="234.9" x2="220" y2="235.1"/>
	</g>
	<g id="POLYLINE_680_">
		<line class="st7" x1="221" y1="259.4" x2="221" y2="258.4"/>
	</g>
	<g id="POLYLINE_681_">
		<line class="st7" x1="221" y1="258.4" x2="221" y2="257.4"/>
	</g>
	<g id="LINE_185_">
		<line class="st7" x1="221" y1="257.4" x2="225" y2="257.1"/>
	</g>
	<g id="ARC_41_">
		<path class="st7" d="M225.2,259.1c0.6,0.8,1.6,1,2.4,0.4s1-1.6,0.4-2.4s-1.6-1-2.4-0.4c-0.2,0.2-0.4,0.4-0.4,0.6"/>
	</g>
	<g id="LINE_186_">
		<line class="st7" x1="225.2" y1="259.1" x2="221" y2="259.4"/>
	</g>
	<g id="POLYLINE_683_">
		<line class="st7" x1="222" y1="283.5" x2="222" y2="282.5"/>
	</g>
	<g id="POLYLINE_684_">
		<line class="st7" x1="222" y1="282.5" x2="222" y2="281.5"/>
	</g>
	<g id="LINE_189_">
		<line class="st7" x1="222" y1="281.5" x2="226" y2="281.4"/>
	</g>
	<g id="ARC_42_">
		<path class="st7" d="M226.2,283.4c0.6,0.8,1.6,1,2.4,0.4s1-1.6,0.4-2.4s-1.6-1-2.4-0.4c-0.2,0.2-0.4,0.4-0.4,0.6"/>
	</g>
	<g id="LINE_190_">
		<line class="st7" x1="226.2" y1="283.4" x2="222" y2="283.5"/>
	</g>
	<g id="POLYLINE_685_">
		<line class="st7" x1="223" y1="307.8" x2="223" y2="306.8"/>
	</g>
	<g id="POLYLINE_686_">
		<line class="st7" x1="223" y1="306.8" x2="223" y2="305.9"/>
	</g>
	<g id="LINE_195_">
		<line class="st7" x1="223" y1="305.9" x2="227" y2="305.8"/>
	</g>
	<g id="ARC_43_">
		<path class="st7" d="M227,307.5c0.6,0.8,1.6,1,2.4,0.4c0.8-0.6,1-1.6,0.4-2.4s-1.6-1-2.4-0.4c-0.2,0.2-0.4,0.4-0.4,0.6"/>
	</g>
	<g id="LINE_196_">
		<line class="st7" x1="227" y1="307.5" x2="223" y2="307.8"/>
	</g>
	<g id="POLYLINE_688_">
		<line class="st7" x1="224" y1="331.9" x2="224" y2="331.1"/>
	</g>
	<g id="POLYLINE_689_">
		<line class="st7" x1="224" y1="331.1" x2="224" y2="330.1"/>
	</g>
	<g id="LINE_197_">
		<line class="st7" x1="224" y1="330.1" x2="228" y2="329.9"/>
	</g>
	<g id="ARC_44_">
		<path class="st7" d="M228,331.9c0.6,0.8,1.6,1,2.4,0.4c0.8-0.6,1-1.6,0.4-2.4s-1.6-1-2.4-0.4c-0.2,0.2-0.4,0.4-0.4,0.6"/>
	</g>
	<g id="LINE_198_">
		<line class="st7" x1="228" y1="331.9" x2="224" y2="331.9"/>
	</g>
	<g id="POLYLINE_695_">
		<line class="st7" x1="205.5" y1="350.1" x2="206.5" y2="350.1"/>
	</g>
	<g id="POLYLINE_696_">
		<line class="st7" x1="206.5" y1="350.1" x2="207.5" y2="350.1"/>
	</g>
	<g id="LINE_206_">
		<line class="st7" x1="207.5" y1="350.1" x2="207.5" y2="354.1"/>
	</g>
	<g id="ARC_46_">
		<path class="st7" d="M205.5,354.1c-0.8,0.6-1,1.6-0.4,2.4s1.6,1,2.4,0.4s1-1.6,0.4-2.4c-0.2-0.2-0.2-0.4-0.4-0.4"/>
	</g>
	<g id="LINE_207_">
		<line class="st7" x1="205.5" y1="354.1" x2="205.5" y2="350.1"/>
	</g>
	<g id="POLYLINE_697_">
		<line class="st7" x1="181.5" y1="350.1" x2="182.5" y2="350.1"/>
	</g>
	<g id="POLYLINE_698_">
		<line class="st7" x1="182.5" y1="350.1" x2="183.5" y2="350.1"/>
	</g>
	<g id="LINE_208_">
		<line class="st7" x1="183.5" y1="350.1" x2="183.5" y2="354.1"/>
	</g>
	<g id="ARC_47_">
		<path class="st7" d="M181.5,354.1c-0.8,0.6-1,1.6-0.4,2.4s1.6,1,2.4,0.4s1-1.6,0.4-2.4c-0.2-0.2-0.2-0.4-0.4-0.4"/>
	</g>
	<g id="LINE_209_">
		<line class="st7" x1="181.5" y1="354.1" x2="181.5" y2="350.1"/>
	</g>
	<g id="POLYLINE_699_">
		<polygon class="st7" points="133.9,353.5 132.5,353.5 132.5,354.8 131.2,354.8 131.2,352.4 133.9,352.4 		"/>
	</g>
	<g id="POLYLINE_702_">
		<polyline class="st7" points="152.9,350.1 153.6,350.1 154.6,350.1 		"/>
	</g>
	<g id="POLYLINE_707_">
		<polyline class="st7" points="92.7,350.1 91.7,350.1 90.7,350.1 		"/>
	</g>
	<g id="POLYLINE_711_">
		<polygon class="st7" points="111.7,353.5 113,353.5 113,354.8 114,354.8 114,352.4 111.7,352.4 		"/>
	</g>
	<g id="POLYLINE_712_">
		<line class="st7" x1="63.8" y1="350.1" x2="62.8" y2="350.1"/>
	</g>
	<g id="POLYLINE_713_">
		<line class="st7" x1="62.8" y1="350.1" x2="61.8" y2="350.1"/>
	</g>
	<g id="LINE_226_">
		<line class="st7" x1="61.8" y1="350.1" x2="61.8" y2="354.1"/>
	</g>
	<g id="ARC_48_">
		<path class="st7" d="M61.8,354.1c-0.8,0.6-1,1.6-0.4,2.4s1.6,1,2.4,0.4s1-1.6,0.4-2.4c-0.2-0.2-0.2-0.4-0.4-0.4"/>
	</g>
	<g id="LINE_227_">
		<line class="st7" x1="63.8" y1="354.1" x2="63.8" y2="350.1"/>
	</g>
	<g id="POLYLINE_714_">
		<line class="st7" x1="39.8" y1="350.1" x2="39" y2="350.1"/>
	</g>
	<g id="POLYLINE_715_">
		<line class="st7" x1="39" y1="350.1" x2="38" y2="350.1"/>
	</g>
	<g id="LINE_228_">
		<line class="st7" x1="38" y1="350.1" x2="38" y2="354.1"/>
	</g>
	<g id="ARC_49_">
		<path class="st7" d="M38,354.1c-0.8,0.6-1,1.6-0.4,2.4s1.6,1,2.4,0.4c0.8-0.6,1-1.6,0.4-2.4c-0.2-0.2-0.2-0.4-0.4-0.4"/>
	</g>
	<g id="LINE_229_">
		<line class="st7" x1="39.8" y1="354.1" x2="39.8" y2="350.1"/>
	</g>
	<g id="POLYLINE_719_">
		<polygon class="st7" points="190.9,42.5 185.5,42.5 185.5,16.5 95.4,16.5 95.4,17.9 89.8,17.9 89.8,18.7 84.2,18.7 84.2,11.5 
			218.5,11.5 218.6,16.5 215.2,16.5 215.2,18.9 210.9,19.1 210.6,16.5 187.6,16.5 187.6,40.3 190.9,40.3 		"/>
	</g>
	<g id="POLYLINE_722_">
		<polygon class="st7" points="19.6,260.8 19.6,262.5 19.6,311.9 35.8,311.9 35.8,323.4 33.6,323.4 33.6,314.1 19.6,314.1 
			19.6,334.4 33.6,334.4 33.6,332.4 35.8,332.4 35.8,336.5 19.6,336.5 17.2,351.4 17.2,357.1 13.8,357.1 13.8,38.3 24.4,38.3 
			24.4,42.3 19.6,42.3 19.6,53.5 20.6,53.5 20.6,67.7 19.6,67.7 19.6,79.1 22.6,79.1 22.6,85.5 19.6,85.5 19.6,142.8 20.6,142.8 
			20.6,147.8 19.6,147.8 		"/>
	</g>
</g>
<g id="PLAN_x24_STRUCTURE_1.2">
</g>
<g id="PLAN_x24_STRUCTURE_1.1">
</g>
</svg>
