<?xml version="1.0" encoding="utf-8"?>
<!-- Generator: Adobe Illustrator 22.0.1, SVG Export Plug-In . SVG Version: 6.00 Build 0)  -->
<svg version="1.1" id="Calque_1" xmlns="http://www.w3.org/2000/svg" xmlns:xlink="http://www.w3.org/1999/xlink" x="0px" y="0px"
	 viewBox="0 0 132.3 200" style="enable-background:new 0 0 132.3 200;" xml:space="preserve">
<style type="text/css">
	.st0{display:none;}
	.st1{display:inline;}
	.st2{fill:none;}
	.st3{fill:none;stroke:#000000;stroke-width:0.1;stroke-linecap:square;stroke-miterlimit:10;stroke-dasharray:0.5,0.5;}
	.st4{fill:none;stroke:#000000;stroke-width:5.000000e-02;stroke-linecap:square;stroke-miterlimit:10;}
	.st5{fill:none;stroke:#000000;stroke-width:8.000000e-02;stroke-linecap:square;stroke-miterlimit:10;}
	.st6{fill:none;stroke:#000000;stroke-width:0.27;stroke-linecap:square;stroke-miterlimit:10;}
	.st7{fill:none;stroke:#000000;stroke-width:0.41;stroke-linecap:square;stroke-miterlimit:10;}
</style>
<g id="Calque_1_1_">
</g>
<g id="INFOS_x24_A4" class="st0">
	<g id="POLYLINE_2481_" class="st1">
		<rect x="-222.8" y="-315.9" class="st2" width="595.3" height="841.9"/>
	</g>
</g>
<g id="PLAN_x24_FOND">
</g>
<g id="PLAN_x24_POINTILLE">
	<g id="POLYLINE_314_">
		<line class="st3" x1="23.5" y1="153.8" x2="15.4" y2="150.4"/>
	</g>
	<g id="LINE_109_">
		<line class="st3" x1="15.4" y1="150.4" x2="23.5" y2="150.4"/>
	</g>
	<g id="LINE_108_">
		<line class="st3" x1="23.5" y1="152.1" x2="19.4" y2="152.1"/>
	</g>
	<g id="LINE_107_">
		<line class="st3" x1="23.5" y1="140.2" x2="15.4" y2="140.2"/>
	</g>
	<g id="LINE_106_">
		<line class="st3" x1="23.5" y1="141.9" x2="15.4" y2="141.9"/>
	</g>
	<g id="LINE_105_">
		<line class="st3" x1="23.5" y1="143.6" x2="15.4" y2="143.6"/>
	</g>
	<g id="LINE_104_">
		<line class="st3" x1="23.5" y1="145.3" x2="15.4" y2="145.3"/>
	</g>
	<g id="LINE_103_">
		<line class="st3" x1="23.5" y1="147" x2="15.4" y2="147"/>
	</g>
	<g id="LINE_102_">
		<line class="st3" x1="23.5" y1="148.7" x2="15.4" y2="148.7"/>
	</g>
	<g id="LINE_101_">
		<line class="st3" x1="87" y1="22.1" x2="87" y2="18"/>
	</g>
	<g id="POLYLINE_313_">
		<line class="st3" x1="88.7" y1="22.1" x2="86.1" y2="15.7"/>
	</g>
	<g id="LINE_100_">
		<line class="st3" x1="75.1" y1="22.1" x2="75.1" y2="15.7"/>
	</g>
	<g id="LINE_99_">
		<line class="st3" x1="76.8" y1="22.1" x2="76.8" y2="15.7"/>
	</g>
	<g id="LINE_98_">
		<line class="st3" x1="78.5" y1="22.1" x2="78.5" y2="15.7"/>
	</g>
	<g id="LINE_97_">
		<line class="st3" x1="80.2" y1="22.1" x2="80.2" y2="15.7"/>
	</g>
	<g id="LINE_96_">
		<line class="st3" x1="81.9" y1="22.1" x2="81.9" y2="15.7"/>
	</g>
	<g id="LINE_95_">
		<line class="st3" x1="83.6" y1="22.1" x2="83.6" y2="15.7"/>
	</g>
	<g id="LINE_94_">
		<line class="st3" x1="85.3" y1="22.1" x2="85.3" y2="15.7"/>
	</g>
</g>
<g id="PLAN_x24_VITRAGE">
	<g id="LINE_152_">
		<line class="st4" x1="48.5" y1="16.8" x2="48.5" y2="26"/>
	</g>
	<g id="POLYLINE_628_">
		<line class="st4" x1="44.7" y1="27.4" x2="37.3" y2="27.4"/>
	</g>
	<g id="POLYLINE_629_">
		<line class="st4" x1="25.1" y1="27.4" x2="17.8" y2="27.4"/>
	</g>
	<g id="POLYLINE_630_">
		<line class="st4" x1="34.9" y1="27.4" x2="27.6" y2="27.4"/>
	</g>
	<g id="LINE_161_">
		<line class="st4" x1="116.6" y1="111.8" x2="116.1" y2="100.7"/>
	</g>
	<g id="LINE_165_">
		<line class="st4" x1="115.1" y1="75.5" x2="114.6" y2="64.3"/>
	</g>
	<g id="LINE_172_">
		<line class="st4" x1="114.6" y1="63.3" x2="114.1" y2="52.2"/>
	</g>
	<g id="LINE_174_">
		<line class="st4" x1="114.1" y1="51.2" x2="113.6" y2="40.1"/>
	</g>
	<g id="LINE_176_">
		<line class="st4" x1="119.5" y1="184" x2="119.1" y2="173.4"/>
	</g>
	<g id="LINE_180_">
		<line class="st4" x1="117.1" y1="123.9" x2="116.6" y2="112.8"/>
	</g>
	<g id="LINE_184_">
		<line class="st4" x1="117.6" y1="136.1" x2="117.1" y2="124.9"/>
	</g>
	<g id="LINE_188_">
		<line class="st4" x1="118" y1="148.2" x2="117.6" y2="137"/>
	</g>
	<g id="LINE_192_">
		<line class="st4" x1="118.5" y1="160.3" x2="118.1" y2="149.1"/>
	</g>
	<g id="LINE_193_">
		<line class="st4" x1="119" y1="172.4" x2="118.6" y2="161.3"/>
	</g>
	<g id="LINE_199_">
		<line class="st4" x1="109.3" y1="184" x2="119.3" y2="184"/>
	</g>
	<g id="LINE_202_">
		<line class="st4" x1="15.4" y1="183.9" x2="14.2" y2="183.9"/>
	</g>
	<g id="LINE_203_">
		<line class="st4" x1="24.6" y1="183.9" x2="22.4" y2="183.9"/>
	</g>
	<g id="LINE_212_">
		<line class="st4" x1="80.4" y1="183.9" x2="77.1" y2="183.9"/>
	</g>
	<g id="LINE_213_">
		<line class="st4" x1="75.7" y1="183.9" x2="72.5" y2="183.9"/>
	</g>
	<g id="LINE_214_">
		<line class="st4" x1="85.3" y1="184" x2="96.3" y2="184"/>
	</g>
	<g id="LINE_217_">
		<line class="st4" x1="97.3" y1="184" x2="108.3" y2="184"/>
	</g>
	<g id="LINE_218_">
		<line class="st4" x1="36.5" y1="184" x2="25.5" y2="184"/>
	</g>
	<g id="LINE_221_">
		<line class="st4" x1="48.5" y1="184" x2="37.5" y2="184"/>
	</g>
	<g id="LINE_222_">
		<line class="st4" x1="58.1" y1="183.9" x2="61.4" y2="183.9"/>
	</g>
	<g id="LINE_223_">
		<line class="st4" x1="53.5" y1="183.9" x2="56.8" y2="183.9"/>
	</g>
</g>
<g id="PLAN_x24_MOBILIER">
</g>
<g id="PLAN_x24_DETAIL">
	<g id="POLYLINE_238_">
		<line class="st5" x1="113.6" y1="25.5" x2="117.9" y2="25.3"/>
	</g>
	<g id="ARC_21_">
		<path class="st5" d="M117.9,25.3c-0.1-2.4-2.1-4.2-4.5-4.1"/>
	</g>
	<g id="ARC_20_">
		<path class="st5" d="M113.4,21.2c2.4-0.1,4.2-2.1,4.1-4.5"/>
	</g>
	<g id="POLYLINE_237_">
		<line class="st5" x1="117.5" y1="16.7" x2="113.2" y2="16.9"/>
	</g>
	<g id="POLYLINE_236_">
		<line class="st5" x1="114.1" y1="37.8" x2="109.8" y2="38"/>
	</g>
	<g id="ARC_19_">
		<path class="st5" d="M113.9,33.5c-2.4,0.1-4.2,2.1-4.1,4.5"/>
	</g>
	<g id="ARC_18_">
		<path class="st5" d="M109.4,29.4c0.1,2.4,2.1,4.2,4.5,4.1"/>
	</g>
	<g id="POLYLINE_235_">
		<line class="st5" x1="109.4" y1="29.4" x2="113.7" y2="29.2"/>
	</g>
	<g id="POLYLINE_234_">
		<line class="st5" x1="116.2" y1="89.8" x2="111.9" y2="90"/>
	</g>
	<g id="ARC_17_">
		<path class="st5" d="M111.9,90c0.1,2.4,2.1,4.2,4.5,4.1"/>
	</g>
	<g id="ARC_14_">
		<path class="st5" d="M116.4,94.1c-2.4,0.1-4.2,2.1-4.1,4.5"/>
	</g>
	<g id="POLYLINE_233_">
		<line class="st5" x1="112.3" y1="98.6" x2="116.6" y2="98.4"/>
	</g>
	<g id="POLYLINE_232_">
		<line class="st5" x1="89.5" y1="22.1" x2="98.3" y2="22.1"/>
	</g>
	<g id="POLYLINE_231_">
		<line class="st5" x1="98.3" y1="22.1" x2="98.3" y2="27.2"/>
	</g>
	<g id="POLYLINE_230_">
		<line class="st5" x1="98.3" y1="27.2" x2="92.1" y2="27.2"/>
	</g>
	<g id="POLYLINE_229_">
		<line class="st5" x1="92.1" y1="27.2" x2="92.1" y2="22.1"/>
	</g>
	<g id="POLYLINE_228_">
		<line class="st5" x1="92.1" y1="22.1" x2="92.1" y2="15.7"/>
	</g>
	<g id="POLYLINE_227_">
		<line class="st5" x1="71.2" y1="184.2" x2="71.2" y2="188.5"/>
	</g>
	<g id="ARC_9_">
		<path class="st5" d="M66.9,184.2c0,2.4,1.9,4.3,4.3,4.3"/>
	</g>
	<g id="ARC_8_">
		<path class="st5" d="M62.6,188.5c2.4,0,4.3-1.9,4.3-4.3"/>
	</g>
	<g id="POLYLINE_226_">
		<line class="st5" x1="62.6" y1="188.5" x2="62.6" y2="184.2"/>
	</g>
	<g id="POLYLINE_225_">
		<line class="st5" x1="23.5" y1="154.5" x2="23.5" y2="163.4"/>
	</g>
	<g id="POLYLINE_224_">
		<line class="st5" x1="23.5" y1="163.4" x2="28.6" y2="163.4"/>
	</g>
	<g id="POLYLINE_223_">
		<line class="st5" x1="28.6" y1="163.4" x2="28.6" y2="157.2"/>
	</g>
	<g id="POLYLINE_222_">
		<line class="st5" x1="28.6" y1="157.2" x2="23.5" y2="157.2"/>
	</g>
	<g id="POLYLINE_221_">
		<line class="st5" x1="23.5" y1="157.2" x2="15.4" y2="157.2"/>
	</g>
	<g id="LINE_35_">
		<line class="st5" x1="19.4" y1="152.1" x2="15.4" y2="152.1"/>
	</g>
	<g id="POLYLINE_220_">
		<line class="st5" x1="26.9" y1="163.4" x2="26.9" y2="157.2"/>
	</g>
	<g id="POLYLINE_219_">
		<line class="st5" x1="25.2" y1="163.4" x2="25.2" y2="157.2"/>
	</g>
	<g id="POLYLINE_218_">
		<line class="st5" x1="109.5" y1="28.7" x2="101" y2="28.7"/>
	</g>
	<g id="POLYLINE_217_">
		<line class="st5" x1="109.5" y1="27.6" x2="101" y2="27.6"/>
	</g>
	<g id="POLYLINE_216_">
		<line class="st5" x1="22.4" y1="173.6" x2="22.4" y2="169.1"/>
	</g>
	<g id="POLYLINE_215_">
		<line class="st5" x1="23.5" y1="169.1" x2="23.5" y2="173.6"/>
	</g>
	<g id="POLYLINE_214_">
		<line class="st5" x1="21.9" y1="165.2" x2="15.7" y2="174.3"/>
	</g>
	<g id="POLYLINE_213_">
		<line class="st5" x1="21.9" y1="174.3" x2="15.7" y2="165.2"/>
	</g>
	<g id="POLYLINE_212_">
		<rect x="15.7" y="165.2" class="st5" width="6.2" height="9.1"/>
	</g>
	<g id="POLYLINE_211_">
		<line class="st5" x1="110.5" y1="16.8" x2="100.4" y2="26.9"/>
	</g>
	<g id="POLYLINE_210_">
		<line class="st5" x1="100.4" y1="16.8" x2="110.5" y2="26.9"/>
	</g>
	<g id="POLYLINE_209_">
		<rect x="100.4" y="16.8" class="st5" width="10.1" height="10.1"/>
	</g>
	<g id="LINE_34_">
		<line class="st5" x1="23.5" y1="153.8" x2="15.4" y2="153.8"/>
	</g>
	<g id="LINE_33_">
		<line class="st5" x1="23.5" y1="155.5" x2="15.4" y2="155.5"/>
	</g>
	<g id="LINE_32_">
		<line class="st5" x1="50.5" y1="16.8" x2="50.5" y2="26"/>
	</g>
	<g id="LINE_31_">
		<line class="st5" x1="47.7" y1="16.8" x2="47.7" y2="26"/>
	</g>
	<g id="POLYLINE_208_">
		<line class="st5" x1="25.1" y1="28.6" x2="17.8" y2="28.6"/>
	</g>
	<g id="POLYLINE_207_">
		<line class="st5" x1="34.9" y1="28.6" x2="27.6" y2="28.6"/>
	</g>
	<g id="POLYLINE_206_">
		<line class="st5" x1="44.7" y1="28.6" x2="37.3" y2="28.6"/>
	</g>
	<g id="POLYLINE_205_">
		<line class="st5" x1="44.7" y1="26.6" x2="37.3" y2="26.6"/>
	</g>
	<g id="POLYLINE_204_">
		<line class="st5" x1="34.9" y1="26.6" x2="27.6" y2="26.6"/>
	</g>
	<g id="POLYLINE_203_">
		<line class="st5" x1="25.1" y1="26.6" x2="17.8" y2="26.6"/>
	</g>
	<g id="LINE_30_">
		<line class="st5" x1="117.1" y1="111.8" x2="116.7" y2="100.6"/>
	</g>
	<g id="POLYLINE_202_">
		<line class="st5" x1="114.6" y1="100.5" x2="115.1" y2="111.9"/>
	</g>
	<g id="LINE_29_">
		<line class="st5" x1="115.6" y1="75.4" x2="115.2" y2="64.3"/>
	</g>
	<g id="POLYLINE_201_">
		<line class="st5" x1="113.1" y1="64.2" x2="113.6" y2="75.5"/>
	</g>
	<g id="POLYLINE_200_">
		<line class="st5" x1="112.6" y1="52.1" x2="113.1" y2="63.4"/>
	</g>
	<g id="LINE_28_">
		<line class="st5" x1="115.1" y1="63.3" x2="114.7" y2="52.2"/>
	</g>
	<g id="POLYLINE_199_">
		<line class="st5" x1="112.1" y1="39.9" x2="112.6" y2="51.3"/>
	</g>
	<g id="LINE_27_">
		<line class="st5" x1="114.7" y1="51.2" x2="114.2" y2="40"/>
	</g>
	<g id="POLYLINE_198_">
		<line class="st5" x1="117.6" y1="173.2" x2="118" y2="182.5"/>
	</g>
	<g id="LINE_26_">
		<line class="st5" x1="120.1" y1="184.5" x2="119.6" y2="173.4"/>
	</g>
	<g id="POLYLINE_197_">
		<line class="st5" x1="115.1" y1="112.7" x2="115.6" y2="124"/>
	</g>
	<g id="LINE_25_">
		<line class="st5" x1="117.6" y1="123.9" x2="117.2" y2="112.8"/>
	</g>
	<g id="POLYLINE_196_">
		<line class="st5" x1="115.6" y1="124.8" x2="116.1" y2="136.1"/>
	</g>
	<g id="LINE_24_">
		<line class="st5" x1="118.1" y1="136" x2="117.6" y2="124.9"/>
	</g>
	<g id="POLYLINE_195_">
		<line class="st5" x1="116.1" y1="136.9" x2="116.6" y2="148.2"/>
	</g>
	<g id="LINE_23_">
		<line class="st5" x1="118.6" y1="148.1" x2="118.1" y2="137"/>
	</g>
	<g id="POLYLINE_194_">
		<line class="st5" x1="116.6" y1="149" x2="117.1" y2="160.4"/>
	</g>
	<g id="LINE_22_">
		<line class="st5" x1="119.1" y1="160.3" x2="118.6" y2="149.1"/>
	</g>
	<g id="LINE_21_">
		<line class="st5" x1="119.6" y1="172.4" x2="119.1" y2="161.2"/>
	</g>
	<g id="POLYLINE_193_">
		<line class="st5" x1="117.1" y1="161.1" x2="117.6" y2="172.5"/>
	</g>
	<g id="POLYLINE_192_">
		<line class="st5" x1="109.3" y1="182.5" x2="118" y2="182.5"/>
	</g>
	<g id="LINE_20_">
		<line class="st5" x1="109.3" y1="184.5" x2="119.3" y2="184.5"/>
	</g>
	<g id="POLYLINE_191_">
		<line class="st5" x1="15.4" y1="184.2" x2="14.2" y2="184.2"/>
	</g>
	<g id="LINE_19_">
		<line class="st5" x1="24.6" y1="184.2" x2="22.4" y2="184.2"/>
	</g>
	<g id="LINE_18_">
		<line class="st5" x1="15.4" y1="183.6" x2="14.2" y2="183.6"/>
	</g>
	<g id="LINE_17_">
		<line class="st5" x1="24.6" y1="183.6" x2="22.4" y2="183.6"/>
	</g>
	<g id="POLYLINE_190_">
		<line class="st5" x1="16.8" y1="183.6" x2="16.8" y2="179.3"/>
	</g>
	<g id="ARC_7_">
		<path class="st5" d="M21.1,183.6c0-2.4-1.9-4.3-4.3-4.3"/>
	</g>
	<g id="POLYLINE_189_">
		<line class="st5" x1="80.4" y1="183.6" x2="77.1" y2="183.6"/>
	</g>
	<g id="POLYLINE_188_">
		<line class="st5" x1="75.7" y1="183.6" x2="72.5" y2="183.6"/>
	</g>
	<g id="LINE_16_">
		<line class="st5" x1="80.4" y1="184.2" x2="77.1" y2="184.2"/>
	</g>
	<g id="LINE_15_">
		<line class="st5" x1="75.7" y1="184.2" x2="72.5" y2="184.2"/>
	</g>
	<g id="LINE_14_">
		<line class="st5" x1="85.3" y1="184.5" x2="96.3" y2="184.5"/>
	</g>
	<g id="LINE_13_">
		<line class="st5" x1="97.3" y1="184.5" x2="108.3" y2="184.5"/>
	</g>
	<g id="POLYLINE_187_">
		<line class="st5" x1="85.3" y1="182.5" x2="96.3" y2="182.5"/>
	</g>
	<g id="POLYLINE_186_">
		<line class="st5" x1="97.3" y1="182.5" x2="108.3" y2="182.5"/>
	</g>
	<g id="POLYLINE_185_">
		<line class="st5" x1="36.5" y1="182.5" x2="25.5" y2="182.5"/>
	</g>
	<g id="POLYLINE_184_">
		<line class="st5" x1="48.5" y1="182.5" x2="37.5" y2="182.5"/>
	</g>
	<g id="LINE_12_">
		<line class="st5" x1="36.5" y1="184.5" x2="25.5" y2="184.5"/>
	</g>
	<g id="LINE_11_">
		<line class="st5" x1="48.5" y1="184.5" x2="37.5" y2="184.5"/>
	</g>
	<g id="LINE_10_">
		<line class="st5" x1="58.1" y1="184.2" x2="61.4" y2="184.2"/>
	</g>
	<g id="LINE_9_">
		<line class="st5" x1="53.5" y1="184.2" x2="56.8" y2="184.2"/>
	</g>
	<g id="POLYLINE_183_">
		<line class="st5" x1="58.1" y1="183.6" x2="61.4" y2="183.6"/>
	</g>
	<g id="POLYLINE_182_">
		<line class="st5" x1="53.5" y1="183.6" x2="56.8" y2="183.6"/>
	</g>
	<g id="POLYLINE_181_">
		<line class="st5" x1="98.3" y1="25.5" x2="92.1" y2="25.5"/>
	</g>
	<g id="POLYLINE_180_">
		<line class="st5" x1="98.3" y1="23.8" x2="92.1" y2="23.8"/>
	</g>
	<g id="LINE_8_">
		<line class="st5" x1="87" y1="18" x2="87" y2="15.7"/>
	</g>
	<g id="LINE_7_">
		<line class="st5" x1="88.7" y1="22.1" x2="88.7" y2="15.7"/>
	</g>
	<g id="LINE_5_">
		<line class="st5" x1="90.4" y1="22.1" x2="90.4" y2="15.7"/>
	</g>
</g>
<g id="PLAN_x24_CLOISON_TRANSLUCIDE">
</g>
<g id="PLAN_x24_CLOISON_1.3">
</g>
<g id="PLAN_x24_CLOISON_1.2">
</g>
<g id="PLAN_x24_CLOISON_1.1">
</g>
<g id="PLAN_x24_STRUCTURE_2.3">
	<g id="POLYLINE_309_">
		<line class="st6" x1="53" y1="184.2" x2="53.5" y2="184.2"/>
	</g>
	<g id="POLYLINE_308_">
		<polyline class="st6" points="53.5,184.2 53.5,183.6 53,183.6 		"/>
	</g>
	<g id="CIRCLE_38_">
		<path class="st6" d="M84.5,46.7c0-0.3,0.3-0.6,0.6-0.6s0.6,0.3,0.6,0.6s-0.3,0.6-0.6,0.6S84.5,47.1,84.5,46.7L84.5,46.7z"/>
	</g>
	<g id="CIRCLE_37_">
		<path class="st6" d="M84.5,92.7c0-0.3,0.3-0.6,0.6-0.6s0.6,0.3,0.6,0.6s-0.3,0.6-0.6,0.6S84.5,93,84.5,92.7L84.5,92.7z"/>
	</g>
	<g id="CIRCLE_36_">
		<path class="st6" d="M84.5,69.7c0-0.3,0.3-0.6,0.6-0.6s0.6,0.3,0.6,0.6s-0.3,0.6-0.6,0.6S84.5,70,84.5,69.7L84.5,69.7z"/>
	</g>
	<g id="CIRCLE_35_">
		<path class="st6" d="M84.5,23.7c0-0.3,0.3-0.6,0.6-0.6s0.6,0.3,0.6,0.6s-0.3,0.6-0.6,0.6S84.5,24.1,84.5,23.7L84.5,23.7z"/>
	</g>
	<g id="CIRCLE_34_">
		<path class="st6" d="M48.5,161.6c0-0.3,0.3-0.6,0.6-0.6s0.6,0.3,0.6,0.6s-0.3,0.6-0.6,0.6S48.5,162,48.5,161.6L48.5,161.6z"/>
	</g>
	<g id="CIRCLE_33_">
		<path class="st6" d="M84.5,161.6c0-0.3,0.3-0.6,0.6-0.6s0.6,0.3,0.6,0.6s-0.3,0.6-0.6,0.6S84.5,162,84.5,161.6L84.5,161.6z"/>
	</g>
	<g id="CIRCLE_32_">
		<path class="st6" d="M48.5,138.7c0-0.3,0.3-0.6,0.6-0.6s0.6,0.3,0.6,0.6s-0.3,0.6-0.6,0.6S48.5,139,48.5,138.7L48.5,138.7z"/>
	</g>
	<g id="CIRCLE_31_">
		<path class="st6" d="M84.5,138.7c0-0.3,0.3-0.6,0.6-0.6s0.6,0.3,0.6,0.6s-0.3,0.6-0.6,0.6S84.5,139,84.5,138.7L84.5,138.7z"/>
	</g>
	<g id="CIRCLE_30_">
		<path class="st6" d="M48.5,115.7c0-0.3,0.3-0.6,0.6-0.6s0.6,0.3,0.6,0.6s-0.3,0.6-0.6,0.6S48.5,116,48.5,115.7L48.5,115.7z"/>
	</g>
	<g id="CIRCLE_29_">
		<path class="st6" d="M84.5,115.7c0-0.3,0.3-0.6,0.6-0.6s0.6,0.3,0.6,0.6s-0.3,0.6-0.6,0.6S84.5,116,84.5,115.7L84.5,115.7z"/>
	</g>
	<g id="CIRCLE_28_">
		<path class="st6" d="M48.5,92.7c0-0.3,0.3-0.6,0.6-0.6s0.6,0.3,0.6,0.6s-0.3,0.6-0.6,0.6S48.5,93,48.5,92.7L48.5,92.7z"/>
	</g>
	<g id="CIRCLE_27_">
		<path class="st6" d="M48.5,69.7c0-0.3,0.3-0.6,0.6-0.6s0.6,0.3,0.6,0.6s-0.3,0.6-0.6,0.6S48.5,70,48.5,69.7L48.5,69.7z"/>
	</g>
	<g id="POLYLINE_307_">
		<polyline class="st6" points="113.7,28.8 113.7,29.2 113.5,29.2 113.4,28.8 		"/>
	</g>
	<g id="POLYLINE_306_">
		<polyline class="st6" points="114.1,38.2 114.1,37.8 113.8,37.8 113.8,38.2 		"/>
	</g>
	<g id="POLYLINE_305_">
		
			<rect x="115.9" y="88.5" transform="matrix(0.9991 -4.210056e-02 4.210056e-02 0.9991 -3.6504 4.964)" class="st6" width="0.3" height="1.3"/>
	</g>
	<g id="POLYLINE_304_">
		
			<rect x="116.3" y="98.4" transform="matrix(0.9989 -4.660063e-02 4.660063e-02 0.9989 -4.4892 5.5358)" class="st6" width="0.3" height="1.3"/>
	</g>
	<g id="POLYLINE_303_">
		<polyline class="st6" points="120.1,183.7 120.1,183.4 119.5,183.4 119.5,184 119.3,184 119.3,184.5 120,184.5 		"/>
	</g>
	<g id="POLYLINE_302_">
		<rect x="21.1" y="183.6" class="st6" width="1.3" height="0.6"/>
	</g>
	<g id="POLYLINE_301_">
		<rect x="15.4" y="183.6" class="st6" width="1.3" height="0.6"/>
	</g>
	<g id="POLYLINE_300_">
		<rect x="56.8" y="183.6" class="st6" width="1.3" height="0.6"/>
	</g>
	<g id="POLYLINE_299_">
		<polyline class="st6" points="15.4,137.8 24.4,137.8 24.4,154.5 23.5,154.5 23.5,138.7 15.4,138.7 		"/>
	</g>
	<g id="POLYLINE_298_">
		<polyline class="st6" points="72.7,15.7 72.7,22.9 89.5,22.9 89.5,22.1 73.6,22.1 73.6,15.7 		"/>
	</g>
</g>
<g id="PLAN_x24_STRUCTURE_2.2">
</g>
<g id="PLAN_x24_STRUCTURE_2.1">
</g>
<g id="PLAN_x24_STRUCTURE_1.3">
	<g id="LINE_140_">
		<line class="st7" x1="109.5" y1="27.6" x2="111.4" y2="27.6"/>
	</g>
	<g id="LINE_141_">
		<line class="st7" x1="111.4" y1="27.6" x2="111.3" y2="25.6"/>
	</g>
	<g id="POLYLINE_616_">
		<line class="st7" x1="111.3" y1="25.6" x2="113.6" y2="25.5"/>
	</g>
	<g id="LINE_142_">
		<line class="st7" x1="113.6" y1="25.5" x2="113.7" y2="27"/>
	</g>
	<g id="ARC_28_">
		<path class="st7" d="M113.7,27.9c0.3,0.4,0.8,0.5,1.2,0.2c0.4-0.3,0.5-0.8,0.2-1.2c-0.3-0.4-0.8-0.5-1.2-0.2
			c-0.1,0.1-0.2,0.2-0.2,0.3"/>
	</g>
	<g id="POLYLINE_617_">
		<polyline class="st7" points="113.7,27.9 113.7,28.8 111.7,28.9 111.7,28.7 		"/>
	</g>
	<g id="POLYLINE_618_">
		<line class="st7" x1="111.7" y1="28.7" x2="109.5" y2="28.7"/>
	</g>
	<g id="POLYLINE_619_">
		<line class="st7" x1="109.5" y1="28.7" x2="109.5" y2="27.6"/>
	</g>
	<g id="POLYLINE_637_">
		<rect x="34.9" y="26.6" class="st7" width="2.4" height="2"/>
	</g>
	<g id="POLYLINE_638_">
		<line class="st7" x1="49.5" y1="182.5" x2="49" y2="182.5"/>
	</g>
	<g id="POLYLINE_639_">
		<line class="st7" x1="49" y1="182.5" x2="48.5" y2="182.5"/>
	</g>
	<g id="LINE_154_">
		<line class="st7" x1="48.5" y1="182.5" x2="48.5" y2="184.5"/>
	</g>
	<g id="ARC_29_">
		<path class="st7" d="M48.5,184.5c-0.4,0.3-0.5,0.8-0.2,1.2s0.8,0.5,1.2,0.2c0.4-0.3,0.5-0.8,0.2-1.2c-0.1-0.1-0.1-0.2-0.2-0.2"/>
	</g>
	<g id="POLYLINE_640_">
		<line class="st7" x1="49.5" y1="184.5" x2="50.9" y2="184.5"/>
	</g>
	<g id="ARC_30_">
		<path class="st7" d="M50.9,184.5c-0.4,0.3-0.5,0.8-0.2,1.2s0.8,0.5,1.2,0.2c0.4-0.3,0.5-0.8,0.2-1.2c-0.1-0.1-0.1-0.2-0.2-0.2"/>
	</g>
	<g id="POLYLINE_641_">
		<polyline class="st7" points="51.9,184.5 53,184.5 53,182.5 48.5,182.5 		"/>
	</g>
	<g id="POLYLINE_642_">
		<line class="st7" x1="84.4" y1="182.5" x2="84.9" y2="182.5"/>
	</g>
	<g id="POLYLINE_643_">
		<line class="st7" x1="84.9" y1="182.5" x2="85.3" y2="182.5"/>
	</g>
	<g id="LINE_155_">
		<line class="st7" x1="85.3" y1="182.5" x2="85.3" y2="184.5"/>
	</g>
	<g id="ARC_31_">
		<path class="st7" d="M84.4,184.5c-0.4,0.3-0.5,0.8-0.2,1.2c0.3,0.4,0.8,0.5,1.2,0.2c0.4-0.3,0.5-0.8,0.2-1.2
			c-0.1-0.1-0.1-0.2-0.2-0.2"/>
	</g>
	<g id="POLYLINE_644_">
		<line class="st7" x1="84.4" y1="184.5" x2="82.9" y2="184.5"/>
	</g>
	<g id="ARC_32_">
		<path class="st7" d="M82,184.5c-0.4,0.3-0.5,0.8-0.2,1.2s0.8,0.5,1.2,0.2c0.4-0.3,0.5-0.8,0.2-1.2c-0.1-0.1-0.1-0.2-0.2-0.2"/>
	</g>
	<g id="POLYLINE_645_">
		<polyline class="st7" points="82,184.5 80.8,184.5 80.8,182.5 85.3,182.5 		"/>
	</g>
	<g id="POLYLINE_646_">
		<line class="st7" x1="113.6" y1="76.3" x2="114.1" y2="87.6"/>
	</g>
	<g id="POLYLINE_647_">
		<line class="st7" x1="114.1" y1="87.6" x2="114.1" y2="88.1"/>
	</g>
	<g id="POLYLINE_648_">
		<line class="st7" x1="114.1" y1="88.1" x2="114.1" y2="88.6"/>
	</g>
	<g id="LINE_156_">
		<line class="st7" x1="114.1" y1="88.6" x2="116.2" y2="88.5"/>
	</g>
	<g id="ARC_33_">
		<path class="st7" d="M116.2,88.5c0.3,0.4,0.8,0.5,1.2,0.2c0.4-0.3,0.5-0.8,0.2-1.2c-0.3-0.4-0.8-0.5-1.2-0.2
			c-0.1,0.1-0.2,0.2-0.2,0.3"/>
	</g>
	<g id="LINE_157_">
		<line class="st7" x1="116.1" y1="87.6" x2="115.7" y2="76.4"/>
	</g>
	<g id="LINE_158_">
		<line class="st7" x1="115.7" y1="76.4" x2="115.7" y2="76.4"/>
	</g>
	<g id="ARC_34_">
		<path class="st7" d="M115.7,76.4c0.3,0.4,0.8,0.5,1.2,0.2c0.4-0.3,0.5-0.8,0.2-1.2c-0.3-0.4-0.8-0.5-1.2-0.2
			c-0.1,0.1-0.2,0.2-0.2,0.3"/>
	</g>
	<g id="LINE_159_">
		<line class="st7" x1="115.6" y1="75.4" x2="113.6" y2="75.5"/>
	</g>
	<g id="POLYLINE_649_">
		<line class="st7" x1="113.6" y1="75.5" x2="113.6" y2="76"/>
	</g>
	<g id="POLYLINE_650_">
		<line class="st7" x1="113.6" y1="76" x2="113.6" y2="76.3"/>
	</g>
	<g id="POLYLINE_651_">
		<polygon class="st7" points="50.5,50.2 50.5,45.8 47.7,45.8 47.7,47 46.2,47 46.2,50.2 		"/>
	</g>
	<g id="POLYLINE_652_">
		<polygon class="st7" points="50.5,32.8 50.5,26 47.7,26 47.7,26.6 44.7,26.6 44.7,28.6 47.7,28.6 47.7,32.8 		"/>
	</g>
	<g id="POLYLINE_653_">
		<polyline class="st7" points="25.1,26.6 25.1,28.6 27.6,28.6 27.6,26.6 25.1,26.6 25.1,28.6 		"/>
	</g>
	<g id="ARC_35_">
		<path class="st7" d="M114.2,40c0.3,0.4,0.8,0.5,1.2,0.2c0.4-0.3,0.5-0.8,0.2-1.2c-0.3-0.4-0.8-0.5-1.2-0.2
			c-0.1,0.1-0.2,0.2-0.2,0.3"/>
	</g>
	<g id="LINE_160_">
		<line class="st7" x1="114.2" y1="40" x2="112.2" y2="40.1"/>
	</g>
	<g id="POLYLINE_656_">
		<polyline class="st7" points="112.2,40.1 112.1,38.3 114.1,38.2 114.2,39.1 		"/>
	</g>
	<g id="POLYLINE_657_">
		<polyline class="st7" points="112.2,40.1 112.1,39.6 112.1,39.2 		"/>
	</g>
	<g id="POLYLINE_658_">
		<line class="st7" x1="114.6" y1="100.7" x2="114.6" y2="100.2"/>
	</g>
	<g id="POLYLINE_659_">
		<line class="st7" x1="114.6" y1="100.2" x2="114.6" y2="99.8"/>
	</g>
	<g id="LINE_163_">
		<line class="st7" x1="114.6" y1="99.8" x2="116.6" y2="99.7"/>
	</g>
	<g id="ARC_36_">
		<path class="st7" d="M116.7,100.6c0.3,0.4,0.8,0.5,1.2,0.2c0.4-0.3,0.5-0.8,0.2-1.2c-0.3-0.4-0.8-0.5-1.2-0.2
			c-0.1,0.1-0.2,0.2-0.2,0.3"/>
	</g>
	<g id="LINE_164_">
		<line class="st7" x1="116.7" y1="100.6" x2="114.6" y2="100.7"/>
	</g>
	<g id="POLYLINE_661_">
		<line class="st7" x1="113.1" y1="64.4" x2="113.1" y2="63.9"/>
	</g>
	<g id="POLYLINE_662_">
		<line class="st7" x1="113.1" y1="63.9" x2="113.1" y2="63.4"/>
	</g>
	<g id="LINE_167_">
		<line class="st7" x1="113.1" y1="63.4" x2="115.1" y2="63.3"/>
	</g>
	<g id="ARC_37_">
		<path class="st7" d="M115.2,64.3c0.3,0.4,0.8,0.5,1.2,0.2c0.4-0.3,0.5-0.8,0.2-1.2c-0.3-0.4-0.8-0.5-1.2-0.2
			c-0.1,0.1-0.2,0.2-0.2,0.3"/>
	</g>
	<g id="LINE_168_">
		<line class="st7" x1="115.2" y1="64.3" x2="113.1" y2="64.4"/>
	</g>
	<g id="POLYLINE_665_">
		<line class="st7" x1="112.7" y1="52.2" x2="112.6" y2="51.8"/>
	</g>
	<g id="POLYLINE_666_">
		<line class="st7" x1="112.6" y1="51.8" x2="112.6" y2="51.3"/>
	</g>
	<g id="LINE_169_">
		<line class="st7" x1="112.6" y1="51.3" x2="114.7" y2="51.2"/>
	</g>
	<g id="ARC_38_">
		<path class="st7" d="M114.7,52.2c0.3,0.4,0.8,0.5,1.2,0.2c0.4-0.3,0.5-0.8,0.2-1.2c-0.3-0.4-0.8-0.5-1.2-0.2
			c-0.1,0.1-0.2,0.2-0.2,0.3"/>
	</g>
	<g id="LINE_170_">
		<line class="st7" x1="114.7" y1="52.2" x2="112.7" y2="52.2"/>
	</g>
	<g id="POLYLINE_671_">
		<rect x="120" y="183.7" class="st7" width="1.8" height="2.5"/>
	</g>
	<g id="POLYLINE_674_">
		<line class="st7" x1="115.1" y1="112.8" x2="115.1" y2="112.4"/>
	</g>
	<g id="POLYLINE_675_">
		<line class="st7" x1="115.1" y1="112.4" x2="115.1" y2="111.9"/>
	</g>
	<g id="LINE_177_">
		<line class="st7" x1="115.1" y1="111.9" x2="117.1" y2="111.8"/>
	</g>
	<g id="ARC_4_">
		<path class="st7" d="M117.2,112.8c0.3,0.4,0.8,0.5,1.2,0.2c0.4-0.3,0.5-0.8,0.2-1.2c-0.3-0.4-0.8-0.5-1.2-0.2
			c-0.1,0.1-0.2,0.2-0.2,0.3"/>
	</g>
	<g id="LINE_178_">
		<line class="st7" x1="117.2" y1="112.8" x2="115.1" y2="112.8"/>
	</g>
	<g id="POLYLINE_677_">
		<line class="st7" x1="115.6" y1="125" x2="115.6" y2="124.5"/>
	</g>
	<g id="POLYLINE_678_">
		<line class="st7" x1="115.6" y1="124.5" x2="115.6" y2="124"/>
	</g>
	<g id="LINE_181_">
		<line class="st7" x1="115.6" y1="124" x2="117.6" y2="123.9"/>
	</g>
	<g id="ARC_40_">
		<path class="st7" d="M117.7,124.9c0.3,0.4,0.8,0.5,1.2,0.2c0.4-0.3,0.5-0.8,0.2-1.2c-0.3-0.4-0.8-0.5-1.2-0.2
			c-0.1,0.1-0.2,0.2-0.2,0.3"/>
	</g>
	<g id="LINE_182_">
		<line class="st7" x1="117.7" y1="124.9" x2="115.6" y2="125"/>
	</g>
	<g id="POLYLINE_680_">
		<line class="st7" x1="116.1" y1="137.1" x2="116.1" y2="136.6"/>
	</g>
	<g id="POLYLINE_681_">
		<line class="st7" x1="116.1" y1="136.6" x2="116.1" y2="136.1"/>
	</g>
	<g id="LINE_185_">
		<line class="st7" x1="116.1" y1="136.1" x2="118.1" y2="136"/>
	</g>
	<g id="ARC_41_">
		<path class="st7" d="M118.2,137c0.3,0.4,0.8,0.5,1.2,0.2c0.4-0.3,0.5-0.8,0.2-1.2c-0.3-0.4-0.8-0.5-1.2-0.2
			c-0.1,0.1-0.2,0.2-0.2,0.3"/>
	</g>
	<g id="LINE_186_">
		<line class="st7" x1="118.2" y1="137" x2="116.1" y2="137.1"/>
	</g>
	<g id="POLYLINE_683_">
		<line class="st7" x1="116.6" y1="149.2" x2="116.6" y2="148.7"/>
	</g>
	<g id="POLYLINE_684_">
		<line class="st7" x1="116.6" y1="148.7" x2="116.6" y2="148.2"/>
	</g>
	<g id="LINE_189_">
		<line class="st7" x1="116.6" y1="148.2" x2="118.6" y2="148.1"/>
	</g>
	<g id="ARC_42_">
		<path class="st7" d="M118.7,149.1c0.3,0.4,0.8,0.5,1.2,0.2c0.4-0.3,0.5-0.8,0.2-1.2c-0.3-0.4-0.8-0.5-1.2-0.2
			c-0.1,0.1-0.2,0.2-0.2,0.3"/>
	</g>
	<g id="LINE_190_">
		<line class="st7" x1="118.7" y1="149.1" x2="116.6" y2="149.2"/>
	</g>
	<g id="POLYLINE_685_">
		<line class="st7" x1="117.1" y1="161.3" x2="117.1" y2="160.8"/>
	</g>
	<g id="POLYLINE_686_">
		<line class="st7" x1="117.1" y1="160.8" x2="117.1" y2="160.4"/>
	</g>
	<g id="LINE_195_">
		<line class="st7" x1="117.1" y1="160.4" x2="119.1" y2="160.3"/>
	</g>
	<g id="ARC_43_">
		<path class="st7" d="M119.1,161.2c0.3,0.4,0.8,0.5,1.2,0.2c0.4-0.3,0.5-0.8,0.2-1.2c-0.3-0.4-0.8-0.5-1.2-0.2
			c-0.1,0.1-0.2,0.2-0.2,0.3"/>
	</g>
	<g id="LINE_196_">
		<line class="st7" x1="119.1" y1="161.2" x2="117.1" y2="161.3"/>
	</g>
	<g id="POLYLINE_688_">
		<line class="st7" x1="117.6" y1="173.4" x2="117.6" y2="173"/>
	</g>
	<g id="POLYLINE_689_">
		<line class="st7" x1="117.6" y1="173" x2="117.6" y2="172.5"/>
	</g>
	<g id="LINE_197_">
		<line class="st7" x1="117.6" y1="172.5" x2="119.6" y2="172.4"/>
	</g>
	<g id="ARC_44_">
		<path class="st7" d="M119.6,173.4c0.3,0.4,0.8,0.5,1.2,0.2c0.4-0.3,0.5-0.8,0.2-1.2c-0.3-0.4-0.8-0.5-1.2-0.2
			c-0.1,0.1-0.2,0.2-0.2,0.3"/>
	</g>
	<g id="LINE_198_">
		<line class="st7" x1="119.6" y1="173.4" x2="117.6" y2="173.4"/>
	</g>
	<g id="POLYLINE_695_">
		<line class="st7" x1="108.3" y1="182.5" x2="108.8" y2="182.5"/>
	</g>
	<g id="POLYLINE_696_">
		<line class="st7" x1="108.8" y1="182.5" x2="109.3" y2="182.5"/>
	</g>
	<g id="LINE_206_">
		<line class="st7" x1="109.3" y1="182.5" x2="109.3" y2="184.5"/>
	</g>
	<g id="ARC_46_">
		<path class="st7" d="M108.3,184.5c-0.4,0.3-0.5,0.8-0.2,1.2s0.8,0.5,1.2,0.2c0.4-0.3,0.5-0.8,0.2-1.2c-0.1-0.1-0.1-0.2-0.2-0.2"/>
	</g>
	<g id="LINE_207_">
		<line class="st7" x1="108.3" y1="184.5" x2="108.3" y2="182.5"/>
	</g>
	<g id="POLYLINE_697_">
		<line class="st7" x1="96.3" y1="182.5" x2="96.8" y2="182.5"/>
	</g>
	<g id="POLYLINE_698_">
		<line class="st7" x1="96.8" y1="182.5" x2="97.3" y2="182.5"/>
	</g>
	<g id="LINE_208_">
		<line class="st7" x1="97.3" y1="182.5" x2="97.3" y2="184.5"/>
	</g>
	<g id="ARC_47_">
		<path class="st7" d="M96.3,184.5c-0.4,0.3-0.5,0.8-0.2,1.2s0.8,0.5,1.2,0.2c0.4-0.3,0.5-0.8,0.2-1.2c-0.1-0.1-0.1-0.2-0.2-0.2"/>
	</g>
	<g id="LINE_209_">
		<line class="st7" x1="96.3" y1="184.5" x2="96.3" y2="182.5"/>
	</g>
	<g id="POLYLINE_699_">
		<polygon class="st7" points="72.5,184.2 71.8,184.2 71.8,184.8 71.2,184.8 71.2,183.6 72.5,183.6 		"/>
	</g>
	<g id="POLYLINE_702_">
		<polyline class="st7" points="82,182.5 82.4,182.5 82.9,182.5 		"/>
	</g>
	<g id="POLYLINE_707_">
		<polyline class="st7" points="51.9,182.5 51.4,182.5 50.9,182.5 		"/>
	</g>
	<g id="POLYLINE_711_">
		<polygon class="st7" points="61.4,184.2 62.1,184.2 62.1,184.8 62.6,184.8 62.6,183.6 61.4,183.6 		"/>
	</g>
	<g id="POLYLINE_712_">
		<line class="st7" x1="37.5" y1="182.5" x2="37" y2="182.5"/>
	</g>
	<g id="POLYLINE_713_">
		<line class="st7" x1="37" y1="182.5" x2="36.5" y2="182.5"/>
	</g>
	<g id="LINE_226_">
		<line class="st7" x1="36.5" y1="182.5" x2="36.5" y2="184.5"/>
	</g>
	<g id="ARC_48_">
		<path class="st7" d="M36.5,184.5c-0.4,0.3-0.5,0.8-0.2,1.2s0.8,0.5,1.2,0.2c0.4-0.3,0.5-0.8,0.2-1.2c-0.1-0.1-0.1-0.2-0.2-0.2"/>
	</g>
	<g id="LINE_227_">
		<line class="st7" x1="37.5" y1="184.5" x2="37.5" y2="182.5"/>
	</g>
	<g id="POLYLINE_714_">
		<line class="st7" x1="25.5" y1="182.5" x2="25.1" y2="182.5"/>
	</g>
	<g id="POLYLINE_715_">
		<line class="st7" x1="25.1" y1="182.5" x2="24.6" y2="182.5"/>
	</g>
	<g id="LINE_228_">
		<line class="st7" x1="24.6" y1="182.5" x2="24.6" y2="184.5"/>
	</g>
	<g id="ARC_49_">
		<path class="st7" d="M24.6,184.5c-0.4,0.3-0.5,0.8-0.2,1.2s0.8,0.5,1.2,0.2c0.4-0.3,0.5-0.8,0.2-1.2c-0.1-0.1-0.1-0.2-0.2-0.2"/>
	</g>
	<g id="LINE_229_">
		<line class="st7" x1="25.5" y1="184.5" x2="25.5" y2="182.5"/>
	</g>
	<g id="POLYLINE_719_">
		<polygon class="st7" points="101,28.7 98.3,28.7 98.3,15.7 53.3,15.7 53.3,16.4 50.5,16.4 50.5,16.8 47.7,16.8 47.7,13.2 
			114.8,13.2 114.9,15.7 113.2,15.7 113.2,16.9 111,17 110.9,15.7 99.4,15.7 99.4,27.6 101,27.6 		"/>
	</g>
	<g id="POLYLINE_722_">
		<polygon class="st7" points="15.4,137.8 15.4,138.7 15.4,163.4 23.5,163.4 23.5,169.1 22.4,169.1 22.4,164.5 15.4,164.5 
			15.4,174.6 22.4,174.6 22.4,173.6 23.5,173.6 23.5,175.7 15.4,175.7 14.2,183.1 14.2,186 12.5,186 12.5,26.6 17.8,26.6 17.8,28.6 
			15.4,28.6 15.4,34.2 15.9,34.2 15.9,41.3 15.4,41.3 15.4,47 16.9,47 16.9,50.2 15.4,50.2 15.4,78.8 15.9,78.8 15.9,81.3 
			15.4,81.3 		"/>
	</g>
</g>
<g id="PLAN_x24_STRUCTURE_1.2">
</g>
<g id="PLAN_x24_STRUCTURE_1.1">
</g>
</svg>
