<?xml version="1.0" encoding="utf-8"?>
<!-- Generator: Adobe Illustrator 22.0.1, SVG Export Plug-In . SVG Version: 6.00 Build 0)  -->
<svg version="1.1" id="Calque_1" xmlns="http://www.w3.org/2000/svg" xmlns:xlink="http://www.w3.org/1999/xlink" x="0px" y="0px"
	 viewBox="0 0 305.6 374" style="enable-background:new 0 0 305.6 374;" xml:space="preserve">
<style type="text/css">
	.st0{display:none;}
	.st1{display:inline;}
	.st2{fill:none;}
	.st3{fill:none;stroke:#000000;stroke-width:0.2;stroke-linecap:square;stroke-miterlimit:10;stroke-dasharray:1,1;}
	.st4{fill:none;stroke:#000000;stroke-width:0.1;stroke-linecap:square;stroke-miterlimit:10;}
	.st5{fill:none;stroke:#000000;stroke-width:0.16;stroke-linecap:square;stroke-miterlimit:10;}
	.st6{fill:none;stroke:#000000;stroke-width:0.54;stroke-linecap:square;stroke-miterlimit:10;}
	.st7{fill:none;stroke:#000000;stroke-width:0.82;stroke-linecap:square;stroke-miterlimit:10;}
</style>
<g id="Calque_1_1_">
</g>
<g id="INFOS_x24_A4" class="st0">
	<g id="POLYLINE_2480_" class="st1">
		<rect x="-147.6" y="-232.3" class="st2" width="595.3" height="841.9"/>
	</g>
</g>
<g id="PLAN_x24_FOND">
</g>
<g id="PLAN_x24_POINTILLE">
	<g id="POLYLINE_368_">
		<line class="st3" x1="132.8" y1="15" x2="139.6" y2="30.2"/>
	</g>
	<g id="POLYLINE_367_">
		<line class="st3" x1="139.6" y1="30.2" x2="139.6" y2="15"/>
	</g>
	<g id="POLYLINE_366_">
		<line class="st3" x1="136.1" y1="15" x2="136.1" y2="22.6"/>
	</g>
	<g id="POLYLINE_365_">
		<line class="st3" x1="167.1" y1="15" x2="167.1" y2="30.2"/>
	</g>
	<g id="POLYLINE_364_">
		<line class="st3" x1="163.8" y1="15" x2="163.8" y2="30.2"/>
	</g>
	<g id="POLYLINE_363_">
		<line class="st3" x1="160.3" y1="15" x2="160.3" y2="30.2"/>
	</g>
	<g id="POLYLINE_362_">
		<line class="st3" x1="156.9" y1="15" x2="156.9" y2="30.2"/>
	</g>
	<g id="POLYLINE_361_">
		<line class="st3" x1="153.3" y1="15" x2="153.3" y2="30.2"/>
	</g>
	<g id="POLYLINE_360_">
		<line class="st3" x1="149.9" y1="15" x2="149.9" y2="30.2"/>
	</g>
	<g id="POLYLINE_359_">
		<line class="st3" x1="146.6" y1="15" x2="146.6" y2="30.2"/>
	</g>
	<g id="POLYLINE_358_">
		<line class="st3" x1="143.1" y1="15" x2="143.1" y2="30.2"/>
	</g>
</g>
<g id="PLAN_x24_VITRAGE">
	<g id="LINE_327_">
		<line class="st4" x1="75.3" y1="361.6" x2="100.8" y2="361.6"/>
	</g>
	<g id="LINE_328_">
		<line class="st4" x1="48.9" y1="361.6" x2="74.3" y2="361.6"/>
	</g>
	<g id="LINE_329_">
		<line class="st4" x1="22.5" y1="361.6" x2="47.9" y2="361.6"/>
	</g>
	<g id="LINE_330_">
		<line class="st4" x1="113.1" y1="361.6" x2="138.8" y2="361.6"/>
	</g>
	<g id="LINE_331_">
		<line class="st4" x1="139.8" y1="361.6" x2="165.1" y2="361.6"/>
	</g>
	<g id="LINE_332_">
		<line class="st4" x1="166.1" y1="361.6" x2="191.6" y2="361.6"/>
	</g>
	<g id="LINE_333_">
		<line class="st4" x1="205.1" y1="361.6" x2="230.6" y2="361.6"/>
	</g>
	<g id="LINE_334_">
		<line class="st4" x1="231.6" y1="361.6" x2="257" y2="361.6"/>
	</g>
	<g id="LINE_335_">
		<line class="st4" x1="258" y1="361.6" x2="283.3" y2="361.6"/>
	</g>
	<g id="LINE_336_">
		<line class="st4" x1="292.3" y1="328" x2="292.3" y2="351.6"/>
	</g>
	<g id="LINE_337_">
		<line class="st4" x1="292.3" y1="280" x2="292.3" y2="302.4"/>
	</g>
	<g id="LINE_338_">
		<line class="st4" x1="292.3" y1="303.4" x2="292.3" y2="327"/>
	</g>
	<g id="LINE_339_">
		<line class="st4" x1="292.3" y1="243.1" x2="292.3" y2="266.6"/>
	</g>
	<g id="LINE_340_">
		<line class="st4" x1="292.3" y1="218.4" x2="292.3" y2="242.1"/>
	</g>
	<g id="LINE_341_">
		<line class="st4" x1="292.3" y1="193.8" x2="292.3" y2="217.4"/>
	</g>
	<g id="LINE_342_">
		<line class="st4" x1="292.3" y1="157.8" x2="292.3" y2="181.4"/>
	</g>
	<g id="LINE_343_">
		<line class="st4" x1="292.3" y1="133.2" x2="292.3" y2="156.8"/>
	</g>
	<g id="LINE_344_">
		<line class="st4" x1="292.3" y1="108.6" x2="292.3" y2="132.2"/>
	</g>
	<g id="LINE_345_">
		<line class="st4" x1="292.3" y1="72" x2="292.3" y2="95.6"/>
	</g>
	<g id="LINE_346_">
		<line class="st4" x1="292.3" y1="47.4" x2="292.3" y2="71"/>
	</g>
	<g id="LINE_347_">
		<line class="st4" x1="292.3" y1="22.8" x2="292.3" y2="46.6"/>
	</g>
	<g id="LINE_348_">
		<line class="st4" x1="11.9" y1="279.8" x2="11.9" y2="302.4"/>
	</g>
	<g id="LINE_349_">
		<line class="st4" x1="11.9" y1="244.1" x2="11.9" y2="266.4"/>
	</g>
	<g id="LINE_350_">
		<line class="st4" x1="11.9" y1="194.1" x2="11.9" y2="216.6"/>
	</g>
	<g id="LINE_351_">
		<line class="st4" x1="11.9" y1="159.1" x2="11.9" y2="181.6"/>
	</g>
	<g id="LINE_352_">
		<line class="st4" x1="11.9" y1="109" x2="11.9" y2="131.4"/>
	</g>
	<g id="LINE_353_">
		<line class="st4" x1="11.9" y1="77.2" x2="11.9" y2="99.8"/>
	</g>
	<g id="LINE_354_">
		<line class="st4" x1="11.9" y1="48.8" x2="11.9" y2="71.4"/>
	</g>
</g>
<g id="PLAN_x24_MOBILIER">
</g>
<g id="PLAN_x24_DETAIL">
	<g id="POLYLINE_294_">
		<line class="st5" x1="31.9" y1="330" x2="15.1" y2="350.2"/>
	</g>
	<g id="POLYLINE_293_">
		<line class="st5" x1="31.9" y1="350.2" x2="15.1" y2="330"/>
	</g>
	<g id="POLYLINE_292_">
		<rect x="15.1" y="330" class="st5" width="16.8" height="20.2"/>
	</g>
	<g id="POLYLINE_291_">
		<line class="st5" x1="295.2" y1="45.8" x2="295.2" y2="23.6"/>
	</g>
	<g id="POLYLINE_290_">
		<line class="st5" x1="284.8" y1="19.2" x2="260.1" y2="43.4"/>
	</g>
	<g id="POLYLINE_289_">
		<line class="st5" x1="260.1" y1="19.2" x2="284.8" y2="43.4"/>
	</g>
	<g id="POLYLINE_288_">
		<rect x="260.1" y="19.2" class="st5" width="24.4" height="24.4"/>
	</g>
	<g id="POLYLINE_287_">
		<line class="st5" x1="295.2" y1="48.2" x2="295.2" y2="70.4"/>
	</g>
	<g id="POLYLINE_286_">
		<line class="st5" x1="295.2" y1="95" x2="295.2" y2="72.8"/>
	</g>
	<g id="POLYLINE_285_">
		<line class="st5" x1="295.2" y1="109.4" x2="295.2" y2="131.4"/>
	</g>
	<g id="POLYLINE_284_">
		<line class="st5" x1="295.2" y1="156.1" x2="295.2" y2="133.8"/>
	</g>
	<g id="POLYLINE_283_">
		<line class="st5" x1="295.2" y1="180.6" x2="295.2" y2="158.4"/>
	</g>
	<g id="POLYLINE_282_">
		<line class="st5" x1="295.2" y1="216.6" x2="295.2" y2="194.6"/>
	</g>
	<g id="POLYLINE_281_">
		<line class="st5" x1="295.2" y1="241.2" x2="295.2" y2="219.2"/>
	</g>
	<g id="POLYLINE_280_">
		<line class="st5" x1="295.2" y1="265.8" x2="295.2" y2="243.6"/>
	</g>
	<g id="POLYLINE_279_">
		<line class="st5" x1="295.2" y1="301.8" x2="295.2" y2="279.6"/>
	</g>
	<g id="POLYLINE_278_">
		<line class="st5" x1="295.2" y1="326.2" x2="295.2" y2="304.2"/>
	</g>
	<g id="POLYLINE_277_">
		<line class="st5" x1="295.2" y1="350.8" x2="295.2" y2="328.8"/>
	</g>
	<g id="POLYLINE_276_">
		<line class="st5" x1="258.8" y1="364.6" x2="282.5" y2="364.6"/>
	</g>
	<g id="POLYLINE_275_">
		<line class="st5" x1="232.3" y1="364.6" x2="256.1" y2="364.6"/>
	</g>
	<g id="POLYLINE_274_">
		<line class="st5" x1="205.8" y1="364.6" x2="229.8" y2="364.6"/>
	</g>
	<g id="POLYLINE_273_">
		<line class="st5" x1="166.9" y1="364.6" x2="190.8" y2="364.6"/>
	</g>
	<g id="POLYLINE_272_">
		<line class="st5" x1="140.3" y1="364.6" x2="164.3" y2="364.6"/>
	</g>
	<g id="POLYLINE_271_">
		<line class="st5" x1="113.9" y1="364.6" x2="137.9" y2="364.6"/>
	</g>
	<g id="POLYLINE_270_">
		<line class="st5" x1="76.1" y1="364.6" x2="100.1" y2="364.6"/>
	</g>
	<g id="POLYLINE_269_">
		<line class="st5" x1="49.7" y1="364.6" x2="73.5" y2="364.6"/>
	</g>
	<g id="POLYLINE_268_">
		<line class="st5" x1="23.3" y1="364.6" x2="47.1" y2="364.6"/>
	</g>
	<g id="POLYLINE_264_">
		<line class="st5" x1="8.9" y1="280.6" x2="8.9" y2="301.6"/>
	</g>
	<g id="POLYLINE_263_">
		<line class="st5" x1="8.9" y1="244.8" x2="8.9" y2="265.8"/>
	</g>
	<g id="POLYLINE_262_">
		<line class="st5" x1="8.9" y1="194.8" x2="8.9" y2="215.8"/>
	</g>
	<g id="POLYLINE_261_">
		<line class="st5" x1="8.9" y1="159.8" x2="8.9" y2="180.8"/>
	</g>
	<g id="POLYLINE_260_">
		<line class="st5" x1="8.9" y1="109.6" x2="8.9" y2="130.6"/>
	</g>
	<g id="POLYLINE_259_">
		<line class="st5" x1="8.9" y1="78" x2="8.9" y2="99"/>
	</g>
	<g id="POLYLINE_258_">
		<line class="st5" x1="8.9" y1="49.6" x2="8.9" y2="70.6"/>
	</g>
	<g id="POLYLINE_257_">
		<line class="st5" x1="13.5" y1="71.4" x2="13.5" y2="48.8"/>
	</g>
	<g id="POLYLINE_256_">
		<line class="st5" x1="13.5" y1="99.8" x2="13.5" y2="77.2"/>
	</g>
	<g id="POLYLINE_255_">
		<line class="st5" x1="13.5" y1="131.4" x2="13.5" y2="109"/>
	</g>
	<g id="POLYLINE_254_">
		<line class="st5" x1="13.5" y1="181.6" x2="13.5" y2="159.1"/>
	</g>
	<g id="POLYLINE_253_">
		<line class="st5" x1="13.5" y1="216.6" x2="13.5" y2="194.1"/>
	</g>
	<g id="POLYLINE_252_">
		<line class="st5" x1="13.5" y1="266.4" x2="13.5" y2="244.1"/>
	</g>
	<g id="POLYLINE_251_">
		<line class="st5" x1="13.5" y1="302.4" x2="13.5" y2="279.8"/>
	</g>
	<g id="POLYLINE_250_">
		<line class="st5" x1="290.5" y1="22.8" x2="290.5" y2="46.6"/>
	</g>
	<g id="POLYLINE_249_">
		<line class="st5" x1="290.5" y1="47.4" x2="290.5" y2="71"/>
	</g>
	<g id="POLYLINE_248_">
		<line class="st5" x1="290.5" y1="72" x2="290.5" y2="95.6"/>
	</g>
	<g id="POLYLINE_247_">
		<line class="st5" x1="290.5" y1="108.6" x2="290.5" y2="132.2"/>
	</g>
	<g id="POLYLINE_246_">
		<line class="st5" x1="290.5" y1="133.2" x2="290.5" y2="156.8"/>
	</g>
	<g id="POLYLINE_245_">
		<line class="st5" x1="290.5" y1="157.8" x2="290.5" y2="181.4"/>
	</g>
	<g id="POLYLINE_244_">
		<line class="st5" x1="290.5" y1="193.8" x2="290.5" y2="217.4"/>
	</g>
	<g id="POLYLINE_243_">
		<line class="st5" x1="290.5" y1="218.4" x2="290.5" y2="242.1"/>
	</g>
	<g id="POLYLINE_242_">
		<line class="st5" x1="290.5" y1="243.1" x2="290.5" y2="266.6"/>
	</g>
	<g id="POLYLINE_241_">
		<line class="st5" x1="290.5" y1="278.8" x2="290.5" y2="302.4"/>
	</g>
	<g id="POLYLINE_240_">
		<line class="st5" x1="290.5" y1="303.4" x2="290.5" y2="327"/>
	</g>
	<g id="POLYLINE_239_">
		<line class="st5" x1="290.5" y1="328" x2="290.5" y2="351.6"/>
	</g>
	<g id="POLYLINE_179_">
		<line class="st5" x1="47.9" y1="360" x2="22.5" y2="360"/>
	</g>
	<g id="POLYLINE_178_">
		<line class="st5" x1="74.3" y1="360" x2="48.9" y2="360"/>
	</g>
	<g id="POLYLINE_177_">
		<line class="st5" x1="100.8" y1="360" x2="75.3" y2="360"/>
	</g>
	<g id="POLYLINE_176_">
		<line class="st5" x1="138.8" y1="360" x2="113.1" y2="360"/>
	</g>
	<g id="POLYLINE_175_">
		<line class="st5" x1="165.1" y1="360" x2="139.8" y2="360"/>
	</g>
	<g id="POLYLINE_174_">
		<line class="st5" x1="191.6" y1="360" x2="166.1" y2="360"/>
	</g>
	<g id="POLYLINE_173_">
		<line class="st5" x1="230.6" y1="360" x2="205.1" y2="360"/>
	</g>
	<g id="POLYLINE_172_">
		<line class="st5" x1="257" y1="360" x2="231.6" y2="360"/>
	</g>
	<g id="POLYLINE_171_">
		<line class="st5" x1="283.3" y1="360" x2="258" y2="360"/>
	</g>
	<g id="POLYLINE_170_">
		<polyline class="st5" points="171.9,15 171.9,31.4 115.5,31.4 115.5,30.2 170.6,30.2 170.6,15 		"/>
	</g>
	<g id="POLYLINE_52_">
		<line class="st5" x1="136.1" y1="22.6" x2="136.1" y2="30.2"/>
	</g>
	<g id="POLYLINE_51_">
		<line class="st5" x1="132.8" y1="15" x2="132.8" y2="30.2"/>
	</g>
	<g id="POLYLINE_50_">
		<line class="st5" x1="129.4" y1="15" x2="129.4" y2="30.2"/>
	</g>
	<g id="POLYLINE_49_">
		<line class="st5" x1="125.9" y1="15" x2="125.9" y2="30.2"/>
	</g>
	<g id="POLYLINE_48_">
		<line class="st5" x1="122.3" y1="15" x2="122.3" y2="30.2"/>
	</g>
	<g id="POLYLINE_23_">
		<line class="st5" x1="118.9" y1="15" x2="118.9" y2="30.2"/>
	</g>
	<g id="POLYLINE_22_">
		<line class="st5" x1="115.5" y1="15" x2="115.5" y2="30.2"/>
	</g>
</g>
<g id="PLAN_x24_CLOISON_TRANSLUCIDE">
</g>
<g id="PLAN_x24_CLOISON_1.3">
</g>
<g id="PLAN_x24_CLOISON_1.2">
</g>
<g id="PLAN_x24_CLOISON_1.1">
</g>
<g id="PLAN_x24_STRUCTURE_2.3">
	<g id="POLYLINE_357_">
		<line class="st6" x1="34.5" y1="318.4" x2="34.5" y2="329.6"/>
	</g>
	<g id="POLYLINE_356_">
		<line class="st6" x1="34.1" y1="317.8" x2="13.5" y2="317.8"/>
	</g>
	<g id="POLYLINE_355_">
		<line class="st6" x1="34.5" y1="352.8" x2="34.5" y2="341.4"/>
	</g>
	<g id="POLYLINE_354_">
		<line class="st6" x1="34.1" y1="353.4" x2="13.5" y2="353.4"/>
	</g>
	<g id="POLYLINE_353_">
		<line class="st6" x1="34.5" y1="326" x2="13.5" y2="326"/>
	</g>
	<g id="POLYLINE_352_">
		<line class="st6" x1="34.5" y1="327.8" x2="13.5" y2="327.8"/>
	</g>
	<g id="CIRCLE_63_">
		<path class="st6" d="M34.1,353.4c0-0.2,0.2-0.6,0.6-0.6c0.4,0,0.6,0.2,0.6,0.6s-0.2,0.6-0.6,0.6C34.3,354,34.1,353.6,34.1,353.4
			L34.1,353.4z"/>
	</g>
	<g id="CIRCLE_62_">
		<path class="st6" d="M34.1,341c0-0.2,0.2-0.6,0.6-0.6c0.4,0,0.6,0.2,0.6,0.6s-0.2,0.6-0.6,0.6C34.3,341.6,34.1,341.2,34.1,341
			L34.1,341z"/>
	</g>
	<g id="CIRCLE_61_">
		<path class="st6" d="M34.1,317.8c0-0.2,0.2-0.6,0.6-0.6c0.4,0,0.6,0.2,0.6,0.6s-0.2,0.6-0.6,0.6C34.3,318.4,34.1,318,34.1,317.8
			L34.1,317.8z"/>
	</g>
	<g id="CIRCLE_60_">
		<path class="st6" d="M34.1,330.2c0-0.2,0.2-0.6,0.6-0.6c0.4,0,0.6,0.2,0.6,0.6s-0.2,0.6-0.6,0.6C34.3,330.8,34.1,330.4,34.1,330.2
			L34.1,330.2z"/>
	</g>
</g>
<g id="PLAN_x24_STRUCTURE_2.2">
</g>
<g id="PLAN_x24_STRUCTURE_2.1">
</g>
<g id="PLAN_x24_STRUCTURE_1.3">
	<g id="POLYLINE_976_">
		<rect x="283.3" y="45.8" class="st7" width="7.4" height="2.6"/>
	</g>
	<g id="POLYLINE_977_">
		<polygon class="st7" points="290.5,22.8 293,22.8 293,23.6 295.2,23.6 295.2,11.8 292.5,11.8 292.5,10.4 8.9,10.4 8.9,49.6 
			11.3,49.6 11.3,48.8 13.5,48.8 13.5,42.2 32.1,42.2 32.1,15 255.3,15 255.3,48.2 262.3,48.2 262.3,45.8 258.1,45.8 258.1,15 
			290.5,15 		"/>
	</g>
	<g id="POLYLINE_1012_">
		<polygon class="st7" points="9.7,364.6 23.3,364.6 23.3,362.2 22.5,362.2 22.5,360 13.5,360 13.5,302.4 11.3,302.4 11.3,301.6 
			8.9,301.6 8.9,350.8 10.1,350.8 10.1,352.2 8.9,352.2 8.9,363.6 9.7,363.6 		"/>
	</g>
	<g id="POLYLINE_1013_">
		<polygon class="st7" points="295.2,279.6 295.2,265.8 293,265.8 293,266.6 290.5,266.6 290.5,278.8 293,278.8 293,279.6 		"/>
	</g>
	<g id="POLYLINE_1014_">
		<polygon class="st7" points="290.5,108.6 293,108.6 293,109.4 295.2,109.4 295.2,95 293,95 293,95.6 290.5,95.6 		"/>
	</g>
	<g id="POLYLINE_1015_">
		<polygon class="st7" points="290.5,193.8 293,193.8 293,194.6 295.2,194.6 295.2,180.6 293,180.6 293,181.4 290.5,181.4 		"/>
	</g>
	<g id="POLYLINE_1028_">
		<polygon class="st7" points="283.3,360 290.5,360 290.5,351.6 293,351.6 293,350.8 295.2,350.8 295.2,363.8 294.3,363.8 
			294.3,364.6 282.5,364.6 282.5,362.2 283.3,362.2 		"/>
	</g>
	<g id="POLYLINE_1029_">
		<polygon class="st7" points="205.1,360 191.6,360 191.6,362.2 190.8,362.2 190.8,364.6 205.8,364.6 205.8,362.2 205.1,362.2 		"/>
	</g>
	<g id="POLYLINE_1030_">
		<polygon class="st7" points="100.8,360 113.1,360 113.1,362.2 113.9,362.2 113.9,364.6 100.1,364.6 100.1,362.2 100.8,362.2 		"/>
	</g>
	<g id="POLYLINE_1040_">
		<polygon class="st7" points="49.7,364.6 49.7,362.2 48.9,362.2 48.9,360 47.9,360 47.9,362.2 47.1,362.2 47.1,364.6 		"/>
	</g>
	<g id="POLYLINE_1041_">
		<polygon class="st7" points="76.1,364.6 76.1,362.2 75.3,362.2 75.3,360 74.3,360 74.3,362.2 73.5,362.2 73.5,364.6 		"/>
	</g>
	<g id="POLYLINE_1042_">
		<polygon class="st7" points="140.3,364.6 140.3,362.2 139.8,362.2 139.8,360 138.8,360 138.8,362.2 137.9,362.2 137.9,364.6 		"/>
	</g>
	<g id="POLYLINE_1043_">
		<polygon class="st7" points="166.9,364.6 166.9,362.2 166.1,362.2 166.1,360 165.1,360 165.1,362.2 164.3,362.2 164.3,364.6 		"/>
	</g>
	<g id="POLYLINE_1044_">
		<polygon class="st7" points="232.3,364.6 232.3,362.2 231.6,362.2 231.6,360 230.6,360 230.6,362.2 229.8,362.2 229.8,364.6 		"/>
	</g>
	<g id="POLYLINE_1045_">
		<polygon class="st7" points="258.8,364.6 258.8,362.2 258,362.2 258,360 257,360 257,362.2 256.1,362.2 256.1,364.6 		"/>
	</g>
	<g id="POLYLINE_1046_">
		<polyline class="st7" points="290.5,351.6 293,351.6 293,350.8 295.2,350.8 		"/>
	</g>
	<g id="POLYLINE_1047_">
		<polygon class="st7" points="295.2,301.8 293,301.8 293,302.4 290.5,302.4 290.5,303.4 293,303.4 293,304.2 295.2,304.2 		"/>
	</g>
	<g id="POLYLINE_1048_">
		<polygon class="st7" points="295.2,326.2 293,326.2 293,327 290.5,327 290.5,328 293,328 293,328.8 295.2,328.8 		"/>
	</g>
	<g id="POLYLINE_1049_">
		<polygon class="st7" points="295.2,241.2 293,241.2 293,242.1 290.5,242.1 290.5,243.1 293,243.1 293,243.6 295.2,243.6 		"/>
	</g>
	<g id="POLYLINE_1050_">
		<polygon class="st7" points="295.2,216.6 293,216.6 293,217.4 290.5,217.4 290.5,218.4 293,218.4 293,219.2 295.2,219.2 		"/>
	</g>
	<g id="POLYLINE_1051_">
		<polygon class="st7" points="295.2,156.1 293,156.1 293,156.8 290.5,156.8 290.5,157.8 293,157.8 293,158.4 295.2,158.4 		"/>
	</g>
	<g id="POLYLINE_1052_">
		<polygon class="st7" points="295.2,131.4 293,131.4 293,132.2 290.5,132.2 290.5,133.2 293,133.2 293,133.8 295.2,133.8 		"/>
	</g>
	<g id="POLYLINE_1053_">
		<polygon class="st7" points="295.2,70.4 293,70.4 293,71 290.5,71 290.5,72 293,72 293,72.8 295.2,72.8 		"/>
	</g>
	<g id="POLYLINE_1054_">
		<polygon class="st7" points="295.2,45.8 293,45.8 293,46.6 290.5,46.6 290.5,47.4 293,47.4 293,48.2 295.2,48.2 		"/>
	</g>
	<g id="POLYLINE_1055_">
		<polygon class="st7" points="13.5,71.4 13.5,77.2 11.3,77.2 11.3,78 8.9,78 8.9,70.6 11.3,70.6 11.3,71.4 		"/>
	</g>
	<g id="POLYLINE_1056_">
		<polygon class="st7" points="13.5,99.8 13.5,109 11.3,109 11.3,109.6 8.9,109.6 8.9,99 11.3,99 11.3,99.8 		"/>
	</g>
	<g id="POLYLINE_1057_">
		<polygon class="st7" points="13.5,181.6 13.5,194.1 11.3,194.1 11.3,194.8 8.9,194.8 8.9,180.8 11.3,180.8 11.3,181.6 		"/>
	</g>
	<g id="POLYLINE_1058_">
		<polygon class="st7" points="13.5,216.6 13.5,244.1 11.3,244.1 11.3,244.8 8.9,244.8 8.9,215.8 11.3,215.8 11.3,216.6 		"/>
	</g>
	<g id="POLYLINE_1059_">
		<polygon class="st7" points="13.5,266.4 13.5,279.8 11.3,279.8 11.3,280.6 8.9,280.6 8.9,265.8 11.3,265.8 11.3,266.4 		"/>
	</g>
	<g id="POLYLINE_1060_">
		<line class="st7" x1="11.3" y1="279.8" x2="11.3" y2="280.6"/>
	</g>
	<g id="POLYLINE_1061_">
		<line class="st7" x1="11.3" y1="265.8" x2="11.3" y2="266.4"/>
	</g>
	<g id="POLYLINE_1062_">
		<line class="st7" x1="11.3" y1="244.1" x2="11.3" y2="244.8"/>
	</g>
	<g id="POLYLINE_1063_">
		<line class="st7" x1="11.3" y1="215.8" x2="11.3" y2="216.6"/>
	</g>
	<g id="POLYLINE_1064_">
		<line class="st7" x1="11.3" y1="194.1" x2="11.3" y2="194.8"/>
	</g>
	<g id="POLYLINE_1065_">
		<line class="st7" x1="11.3" y1="180.8" x2="11.3" y2="181.6"/>
	</g>
	<g id="POLYLINE_1066_">
		<line class="st7" x1="11.3" y1="159.1" x2="11.3" y2="159.8"/>
	</g>
	<g id="POLYLINE_1067_">
		<line class="st7" x1="11.3" y1="130.6" x2="11.3" y2="131.4"/>
	</g>
	<g id="POLYLINE_1068_">
		<line class="st7" x1="11.3" y1="109" x2="11.3" y2="109.6"/>
	</g>
	<g id="POLYLINE_1069_">
		<line class="st7" x1="11.3" y1="77.2" x2="11.3" y2="78"/>
	</g>
	<g id="POLYLINE_1070_">
		<line class="st7" x1="11.3" y1="70.6" x2="11.3" y2="71.4"/>
	</g>
	<g id="CIRCLE_23_">
		<path class="st7" d="M243.1,273.4c0-0.6,0.4-1.2,1.2-1.2s1.2,0.4,1.2,1.2s-0.4,1.2-1.2,1.2S243.1,274,243.1,273.4L243.1,273.4z"/>
	</g>
	<g id="CIRCLE_22_">
		<path class="st7" d="M197.1,273.4c0-0.6,0.4-1.2,1.2-1.2s1.2,0.4,1.2,1.2s-0.4,1.2-1.2,1.2S197.1,274,197.1,273.4L197.1,273.4z"/>
	</g>
	<g id="CIRCLE_21_">
		<path class="st7" d="M197.1,187.8c0-0.6,0.4-1.2,1.2-1.2s1.2,0.4,1.2,1.2s-0.4,1.2-1.2,1.2S197.1,188.4,197.1,187.8L197.1,187.8z"
			/>
	</g>
	<g id="CIRCLE_20_">
		<path class="st7" d="M243.1,187.8c0-0.6,0.4-1.2,1.2-1.2s1.2,0.4,1.2,1.2s-0.4,1.2-1.2,1.2C243.8,188.8,243.1,188.4,243.1,187.8
			L243.1,187.8z"/>
	</g>
	<g id="CIRCLE_19_">
		<path class="st7" d="M243.1,102c0-0.6,0.4-1.2,1.2-1.2s1.2,0.4,1.2,1.2s-0.4,1.2-1.2,1.2S243.1,102.6,243.1,102L243.1,102z"/>
	</g>
	<g id="CIRCLE_18_">
		<path class="st7" d="M197.1,102c0-0.6,0.4-1.2,1.2-1.2s1.2,0.4,1.2,1.2s-0.4,1.2-1.2,1.2S197.1,102.6,197.1,102L197.1,102z"/>
	</g>
	<g id="CIRCLE_17_">
		<path class="st7" d="M151.1,102c0-0.6,0.4-1.2,1.2-1.2s1.2,0.4,1.2,1.2s-0.4,1.2-1.2,1.2S151.1,102.6,151.1,102L151.1,102z"/>
	</g>
	<g id="CIRCLE_16_">
		<path class="st7" d="M151.1,187.8c0-0.6,0.4-1.2,1.2-1.2s1.2,0.4,1.2,1.2s-0.4,1.2-1.2,1.2C151.8,188.8,151.1,188.4,151.1,187.8
			L151.1,187.8z"/>
	</g>
	<g id="CIRCLE_15_">
		<path class="st7" d="M151.1,273.4c0-0.6,0.4-1.2,1.2-1.2s1.2,0.4,1.2,1.2s-0.4,1.2-1.2,1.2S151.1,274,151.1,273.4L151.1,273.4z"/>
	</g>
	<g id="CIRCLE_39_">
		<path class="st7" d="M105.1,273.4c0-0.6,0.4-1.2,1.2-1.2s1.2,0.4,1.2,1.2s-0.4,1.2-1.2,1.2C105.8,274.6,105.1,274,105.1,273.4
			L105.1,273.4z"/>
	</g>
	<g id="CIRCLE_40_">
		<path class="st7" d="M105.1,187.8c0-0.6,0.4-1.2,1.2-1.2s1.2,0.4,1.2,1.2s-0.4,1.2-1.2,1.2C105.8,188.8,105.1,188.4,105.1,187.8
			L105.1,187.8z"/>
	</g>
	<g id="CIRCLE_41_">
		<path class="st7" d="M105.1,102c0-0.6,0.4-1.2,1.2-1.2s1.2,0.4,1.2,1.2s-0.4,1.2-1.2,1.2C105.8,103.2,105.1,102.6,105.1,102
			L105.1,102z"/>
	</g>
	<g id="CIRCLE_42_">
		<path class="st7" d="M59.1,102c0-0.6,0.4-1.2,1.2-1.2s1.2,0.4,1.2,1.2s-0.4,1.2-1.2,1.2S59.1,102.6,59.1,102L59.1,102z"/>
	</g>
	<g id="CIRCLE_43_">
		<path class="st7" d="M59.1,187.8c0-0.6,0.4-1.2,1.2-1.2s1.2,0.4,1.2,1.2s-0.4,1.2-1.2,1.2S59.1,188.4,59.1,187.8L59.1,187.8z"/>
	</g>
	<g id="CIRCLE_44_">
		<path class="st7" d="M59.1,273.4c0-0.6,0.4-1.2,1.2-1.2s1.2,0.4,1.2,1.2s-0.4,1.2-1.2,1.2S59.1,274,59.1,273.4L59.1,273.4z"/>
	</g>
	<g id="POLYLINE_1071_">
		<rect x="14.7" y="15" class="st7" width="11.6" height="11.4"/>
	</g>
	<g id="POLYLINE_1072_">
		<rect x="14.9" y="29.2" class="st7" width="12.4" height="8.6"/>
	</g>
	<g id="POLYLINE_2485_">
		<polygon class="st7" points="13.5,131.4 11.3,131.4 11.3,130.6 8.9,130.6 8.9,159.8 11.3,159.8 11.3,159.1 13.5,159.1 		"/>
	</g>
</g>
<g id="PLAN_x24_STRUCTURE_1.2">
</g>
<g id="PLAN_x24_STRUCTURE_1.1">
</g>
</svg>
