<?xml version="1.0" encoding="utf-8"?>
<!-- Generator: Adobe Illustrator 17.0.0, SVG Export Plug-In . SVG Version: 6.00 Build 0)  -->
<!DOCTYPE svg PUBLIC "-//W3C//DTD SVG 1.1//EN" "http://www.w3.org/Graphics/SVG/1.1/DTD/svg11.dtd">
<svg version="1.1" xmlns="http://www.w3.org/2000/svg" xmlns:xlink="http://www.w3.org/1999/xlink" x="0px" y="0px"
	 width="595.276px" height="841.89px" viewBox="0 0 595.276 841.89" enable-background="new 0 0 595.276 841.89"
	 xml:space="preserve">
<g id="Calque_1">
</g>
<g id="INFOS_x24_A4" display="none">
	<g id="POLYLINE_2480_" display="inline">
		<rect x="0" fill="none" width="595.276" height="841.89"/>
	</g>
</g>
<g id="PLAN_x24_FOND">
</g>
<g id="PLAN_x24_POINTILLE">
	<g id="POLYLINE_368_">
		
			<line fill="none" stroke="#000000" stroke-width="0.1" stroke-linecap="square" stroke-miterlimit="10" stroke-dasharray="0.5,0.5" x1="289.98" y1="333.668" x2="293.426" y2="341.298"/>
	</g>
	<g id="POLYLINE_367_">
		
			<line fill="none" stroke="#000000" stroke-width="0.1" stroke-linecap="square" stroke-miterlimit="10" stroke-dasharray="0.5,0.5" x1="293.426" y1="341.298" x2="293.426" y2="333.668"/>
	</g>
	<g id="POLYLINE_366_">
		
			<line fill="none" stroke="#000000" stroke-width="0.1" stroke-linecap="square" stroke-miterlimit="10" stroke-dasharray="0.5,0.5" x1="291.703" y1="333.668" x2="291.703" y2="337.483"/>
	</g>
	<g id="POLYLINE_365_">
		
			<line fill="none" stroke="#000000" stroke-width="0.1" stroke-linecap="square" stroke-miterlimit="10" stroke-dasharray="0.5,0.5" x1="307.209" y1="333.668" x2="307.209" y2="341.298"/>
	</g>
	<g id="POLYLINE_364_">
		
			<line fill="none" stroke="#000000" stroke-width="0.1" stroke-linecap="square" stroke-miterlimit="10" stroke-dasharray="0.5,0.5" x1="305.486" y1="333.668" x2="305.486" y2="341.298"/>
	</g>
	<g id="POLYLINE_363_">
		
			<line fill="none" stroke="#000000" stroke-width="0.1" stroke-linecap="square" stroke-miterlimit="10" stroke-dasharray="0.5,0.5" x1="303.763" y1="333.668" x2="303.763" y2="341.298"/>
	</g>
	<g id="POLYLINE_362_">
		
			<line fill="none" stroke="#000000" stroke-width="0.1" stroke-linecap="square" stroke-miterlimit="10" stroke-dasharray="0.5,0.5" x1="302.04" y1="333.668" x2="302.04" y2="341.298"/>
	</g>
	<g id="POLYLINE_361_">
		
			<line fill="none" stroke="#000000" stroke-width="0.1" stroke-linecap="square" stroke-miterlimit="10" stroke-dasharray="0.5,0.5" x1="300.318" y1="333.668" x2="300.318" y2="341.298"/>
	</g>
	<g id="POLYLINE_360_">
		
			<line fill="none" stroke="#000000" stroke-width="0.1" stroke-linecap="square" stroke-miterlimit="10" stroke-dasharray="0.5,0.5" x1="298.595" y1="333.668" x2="298.595" y2="341.298"/>
	</g>
	<g id="POLYLINE_359_">
		
			<line fill="none" stroke="#000000" stroke-width="0.1" stroke-linecap="square" stroke-miterlimit="10" stroke-dasharray="0.5,0.5" x1="296.872" y1="333.668" x2="296.872" y2="341.298"/>
	</g>
	<g id="POLYLINE_358_">
		
			<line fill="none" stroke="#000000" stroke-width="0.1" stroke-linecap="square" stroke-miterlimit="10" stroke-dasharray="0.5,0.5" x1="295.149" y1="333.668" x2="295.149" y2="341.298"/>
	</g>
</g>
<g id="PLAN_x24_VITRAGE">
	<g id="LINE_327_">
		
			<line fill="none" stroke="#000000" stroke-width="0.05" stroke-linecap="square" stroke-miterlimit="10" x1="261.303" y1="506.99" x2="274.028" y2="506.99"/>
	</g>
	<g id="LINE_328_">
		
			<line fill="none" stroke="#000000" stroke-width="0.05" stroke-linecap="square" stroke-miterlimit="10" x1="248.087" y1="506.99" x2="260.812" y2="506.99"/>
	</g>
	<g id="LINE_329_">
		
			<line fill="none" stroke="#000000" stroke-width="0.05" stroke-linecap="square" stroke-miterlimit="10" x1="234.871" y1="506.99" x2="247.596" y2="506.99"/>
	</g>
	<g id="LINE_330_">
		
			<line fill="none" stroke="#000000" stroke-width="0.05" stroke-linecap="square" stroke-miterlimit="10" x1="280.229" y1="506.99" x2="292.954" y2="506.99"/>
	</g>
	<g id="LINE_331_">
		
			<line fill="none" stroke="#000000" stroke-width="0.05" stroke-linecap="square" stroke-miterlimit="10" x1="293.445" y1="506.99" x2="306.17" y2="506.99"/>
	</g>
	<g id="LINE_332_">
		
			<line fill="none" stroke="#000000" stroke-width="0.05" stroke-linecap="square" stroke-miterlimit="10" x1="306.661" y1="506.99" x2="319.387" y2="506.99"/>
	</g>
	<g id="LINE_333_">
		
			<line fill="none" stroke="#000000" stroke-width="0.05" stroke-linecap="square" stroke-miterlimit="10" x1="326.138" y1="506.99" x2="338.864" y2="506.99"/>
	</g>
	<g id="LINE_334_">
		
			<line fill="none" stroke="#000000" stroke-width="0.05" stroke-linecap="square" stroke-miterlimit="10" x1="339.355" y1="506.99" x2="352.08" y2="506.99"/>
	</g>
	<g id="LINE_335_">
		
			<line fill="none" stroke="#000000" stroke-width="0.05" stroke-linecap="square" stroke-miterlimit="10" x1="352.571" y1="506.99" x2="365.296" y2="506.99"/>
	</g>
	<g id="LINE_336_">
		
			<line fill="none" stroke="#000000" stroke-width="0.05" stroke-linecap="square" stroke-miterlimit="10" x1="369.779" y1="490.171" x2="369.779" y2="501.973"/>
	</g>
	<g id="LINE_337_">
		
			<line fill="none" stroke="#000000" stroke-width="0.05" stroke-linecap="square" stroke-miterlimit="10" x1="369.779" y1="466.153" x2="369.779" y2="477.387"/>
	</g>
	<g id="LINE_338_">
		
			<line fill="none" stroke="#000000" stroke-width="0.05" stroke-linecap="square" stroke-miterlimit="10" x1="369.779" y1="477.878" x2="369.779" y2="489.68"/>
	</g>
	<g id="LINE_339_">
		
			<line fill="none" stroke="#000000" stroke-width="0.05" stroke-linecap="square" stroke-miterlimit="10" x1="369.779" y1="447.61" x2="369.779" y2="459.412"/>
	</g>
	<g id="LINE_340_">
		
			<line fill="none" stroke="#000000" stroke-width="0.05" stroke-linecap="square" stroke-miterlimit="10" x1="369.779" y1="435.318" x2="369.779" y2="447.119"/>
	</g>
	<g id="LINE_341_">
		
			<line fill="none" stroke="#000000" stroke-width="0.05" stroke-linecap="square" stroke-miterlimit="10" x1="369.779" y1="423.025" x2="369.779" y2="434.827"/>
	</g>
	<g id="LINE_342_">
		
			<line fill="none" stroke="#000000" stroke-width="0.05" stroke-linecap="square" stroke-miterlimit="10" x1="369.779" y1="405.004" x2="369.779" y2="416.806"/>
	</g>
	<g id="LINE_343_">
		
			<line fill="none" stroke="#000000" stroke-width="0.05" stroke-linecap="square" stroke-miterlimit="10" x1="369.779" y1="392.712" x2="369.779" y2="404.513"/>
	</g>
	<g id="LINE_344_">
		
			<line fill="none" stroke="#000000" stroke-width="0.05" stroke-linecap="square" stroke-miterlimit="10" x1="369.779" y1="380.419" x2="369.779" y2="392.221"/>
	</g>
	<g id="LINE_345_">
		
			<line fill="none" stroke="#000000" stroke-width="0.05" stroke-linecap="square" stroke-miterlimit="10" x1="369.779" y1="362.184" x2="369.779" y2="373.986"/>
	</g>
	<g id="LINE_346_">
		
			<line fill="none" stroke="#000000" stroke-width="0.05" stroke-linecap="square" stroke-miterlimit="10" x1="369.779" y1="349.891" x2="369.779" y2="361.693"/>
	</g>
	<g id="LINE_347_">
		
			<line fill="none" stroke="#000000" stroke-width="0.05" stroke-linecap="square" stroke-miterlimit="10" x1="369.779" y1="337.598" x2="369.779" y2="349.4"/>
	</g>
	<g id="LINE_348_">
		
			<line fill="none" stroke="#000000" stroke-width="0.05" stroke-linecap="square" stroke-miterlimit="10" x1="229.537" y1="466.063" x2="229.537" y2="477.333"/>
	</g>
	<g id="LINE_349_">
		
			<line fill="none" stroke="#000000" stroke-width="0.05" stroke-linecap="square" stroke-miterlimit="10" x1="229.537" y1="448.122" x2="229.537" y2="459.392"/>
	</g>
	<g id="LINE_350_">
		
			<line fill="none" stroke="#000000" stroke-width="0.05" stroke-linecap="square" stroke-miterlimit="10" x1="229.537" y1="423.164" x2="229.537" y2="434.434"/>
	</g>
	<g id="LINE_351_">
		
			<line fill="none" stroke="#000000" stroke-width="0.05" stroke-linecap="square" stroke-miterlimit="10" x1="229.537" y1="405.638" x2="229.537" y2="416.907"/>
	</g>
	<g id="LINE_352_">
		
			<line fill="none" stroke="#000000" stroke-width="0.05" stroke-linecap="square" stroke-miterlimit="10" x1="229.537" y1="380.611" x2="229.537" y2="391.881"/>
	</g>
	<g id="LINE_353_">
		
			<line fill="none" stroke="#000000" stroke-width="0.05" stroke-linecap="square" stroke-miterlimit="10" x1="229.537" y1="364.76" x2="229.537" y2="376.03"/>
	</g>
	<g id="LINE_354_">
		
			<line fill="none" stroke="#000000" stroke-width="0.05" stroke-linecap="square" stroke-miterlimit="10" x1="229.537" y1="350.537" x2="229.537" y2="361.807"/>
	</g>
</g>
<g id="PLAN_x24_MOBILIER">
</g>
<g id="PLAN_x24_DETAIL">
	<g id="POLYLINE_294_">
		
			<line fill="none" stroke="#000000" stroke-width="0.08" stroke-linecap="square" stroke-miterlimit="10" x1="239.585" y1="491.153" x2="231.215" y2="501.291"/>
	</g>
	<g id="POLYLINE_293_">
		
			<line fill="none" stroke="#000000" stroke-width="0.08" stroke-linecap="square" stroke-miterlimit="10" x1="239.585" y1="501.291" x2="231.215" y2="491.153"/>
	</g>
	<g id="POLYLINE_292_">
		
			<rect x="231.215" y="491.153" fill="none" stroke="#000000" stroke-width="0.08" stroke-linecap="square" stroke-miterlimit="10" width="8.369" height="10.138"/>
	</g>
	<g id="POLYLINE_291_">
		
			<line fill="none" stroke="#000000" stroke-width="0.08" stroke-linecap="square" stroke-miterlimit="10" x1="371.197" y1="349.016" x2="371.197" y2="337.983"/>
	</g>
	<g id="POLYLINE_290_">
		
			<line fill="none" stroke="#000000" stroke-width="0.08" stroke-linecap="square" stroke-miterlimit="10" x1="365.945" y1="335.709" x2="353.698" y2="347.888"/>
	</g>
	<g id="POLYLINE_289_">
		
			<line fill="none" stroke="#000000" stroke-width="0.08" stroke-linecap="square" stroke-miterlimit="10" x1="353.698" y1="335.709" x2="365.945" y2="347.888"/>
	</g>
	<g id="POLYLINE_288_">
		
			<rect x="353.698" y="335.709" fill="none" stroke="#000000" stroke-width="0.08" stroke-linecap="square" stroke-miterlimit="10" width="12.247" height="12.179"/>
	</g>
	<g id="POLYLINE_287_">
		
			<line fill="none" stroke="#000000" stroke-width="0.08" stroke-linecap="square" stroke-miterlimit="10" x1="371.197" y1="350.275" x2="371.197" y2="361.308"/>
	</g>
	<g id="POLYLINE_286_">
		
			<line fill="none" stroke="#000000" stroke-width="0.08" stroke-linecap="square" stroke-miterlimit="10" x1="371.197" y1="373.601" x2="371.197" y2="362.568"/>
	</g>
	<g id="POLYLINE_285_">
		
			<line fill="none" stroke="#000000" stroke-width="0.08" stroke-linecap="square" stroke-miterlimit="10" x1="371.197" y1="380.803" x2="371.197" y2="391.836"/>
	</g>
	<g id="POLYLINE_284_">
		
			<line fill="none" stroke="#000000" stroke-width="0.08" stroke-linecap="square" stroke-miterlimit="10" x1="371.197" y1="404.129" x2="371.197" y2="393.096"/>
	</g>
	<g id="POLYLINE_283_">
		
			<line fill="none" stroke="#000000" stroke-width="0.08" stroke-linecap="square" stroke-miterlimit="10" x1="371.197" y1="416.422" x2="371.197" y2="405.389"/>
	</g>
	<g id="POLYLINE_282_">
		
			<line fill="none" stroke="#000000" stroke-width="0.08" stroke-linecap="square" stroke-miterlimit="10" x1="371.197" y1="434.442" x2="371.197" y2="423.409"/>
	</g>
	<g id="POLYLINE_281_">
		
			<line fill="none" stroke="#000000" stroke-width="0.08" stroke-linecap="square" stroke-miterlimit="10" x1="371.197" y1="446.735" x2="371.197" y2="435.702"/>
	</g>
	<g id="POLYLINE_280_">
		
			<line fill="none" stroke="#000000" stroke-width="0.08" stroke-linecap="square" stroke-miterlimit="10" x1="371.197" y1="459.028" x2="371.197" y2="447.995"/>
	</g>
	<g id="POLYLINE_279_">
		
			<line fill="none" stroke="#000000" stroke-width="0.08" stroke-linecap="square" stroke-miterlimit="10" x1="371.197" y1="477.003" x2="371.197" y2="465.97"/>
	</g>
	<g id="POLYLINE_278_">
		
			<line fill="none" stroke="#000000" stroke-width="0.08" stroke-linecap="square" stroke-miterlimit="10" x1="371.197" y1="489.296" x2="371.197" y2="478.263"/>
	</g>
	<g id="POLYLINE_277_">
		
			<line fill="none" stroke="#000000" stroke-width="0.08" stroke-linecap="square" stroke-miterlimit="10" x1="371.197" y1="501.588" x2="371.197" y2="490.555"/>
	</g>
	<g id="POLYLINE_276_">
		
			<line fill="none" stroke="#000000" stroke-width="0.08" stroke-linecap="square" stroke-miterlimit="10" x1="352.955" y1="508.408" x2="364.912" y2="508.408"/>
	</g>
	<g id="POLYLINE_275_">
		
			<line fill="none" stroke="#000000" stroke-width="0.08" stroke-linecap="square" stroke-miterlimit="10" x1="339.739" y1="508.408" x2="351.696" y2="508.408"/>
	</g>
	<g id="POLYLINE_274_">
		
			<line fill="none" stroke="#000000" stroke-width="0.08" stroke-linecap="square" stroke-miterlimit="10" x1="326.523" y1="508.408" x2="338.479" y2="508.408"/>
	</g>
	<g id="POLYLINE_273_">
		
			<line fill="none" stroke="#000000" stroke-width="0.08" stroke-linecap="square" stroke-miterlimit="10" x1="307.046" y1="508.408" x2="319.002" y2="508.408"/>
	</g>
	<g id="POLYLINE_272_">
		
			<line fill="none" stroke="#000000" stroke-width="0.08" stroke-linecap="square" stroke-miterlimit="10" x1="293.83" y1="508.408" x2="305.786" y2="508.408"/>
	</g>
	<g id="POLYLINE_271_">
		
			<line fill="none" stroke="#000000" stroke-width="0.08" stroke-linecap="square" stroke-miterlimit="10" x1="280.613" y1="508.408" x2="292.57" y2="508.408"/>
	</g>
	<g id="POLYLINE_270_">
		
			<line fill="none" stroke="#000000" stroke-width="0.08" stroke-linecap="square" stroke-miterlimit="10" x1="261.687" y1="508.408" x2="273.644" y2="508.408"/>
	</g>
	<g id="POLYLINE_269_">
		
			<line fill="none" stroke="#000000" stroke-width="0.08" stroke-linecap="square" stroke-miterlimit="10" x1="248.471" y1="508.408" x2="260.428" y2="508.408"/>
	</g>
	<g id="POLYLINE_268_">
		
			<line fill="none" stroke="#000000" stroke-width="0.08" stroke-linecap="square" stroke-miterlimit="10" x1="235.255" y1="508.408" x2="247.212" y2="508.408"/>
	</g>
	<g id="POLYLINE_264_">
		
			<line fill="none" stroke="#000000" stroke-width="0.08" stroke-linecap="square" stroke-miterlimit="10" x1="228.119" y1="466.448" x2="228.119" y2="476.949"/>
	</g>
	<g id="POLYLINE_263_">
		
			<line fill="none" stroke="#000000" stroke-width="0.08" stroke-linecap="square" stroke-miterlimit="10" x1="228.119" y1="448.507" x2="228.119" y2="459.008"/>
	</g>
	<g id="POLYLINE_262_">
		
			<line fill="none" stroke="#000000" stroke-width="0.08" stroke-linecap="square" stroke-miterlimit="10" x1="228.119" y1="423.548" x2="228.119" y2="434.049"/>
	</g>
	<g id="POLYLINE_261_">
		
			<line fill="none" stroke="#000000" stroke-width="0.08" stroke-linecap="square" stroke-miterlimit="10" x1="228.119" y1="406.022" x2="228.119" y2="416.523"/>
	</g>
	<g id="POLYLINE_260_">
		
			<line fill="none" stroke="#000000" stroke-width="0.08" stroke-linecap="square" stroke-miterlimit="10" x1="228.119" y1="380.995" x2="228.119" y2="391.496"/>
	</g>
	<g id="POLYLINE_259_">
		
			<line fill="none" stroke="#000000" stroke-width="0.08" stroke-linecap="square" stroke-miterlimit="10" x1="228.119" y1="365.144" x2="228.119" y2="375.645"/>
	</g>
	<g id="POLYLINE_258_">
		
			<line fill="none" stroke="#000000" stroke-width="0.08" stroke-linecap="square" stroke-miterlimit="10" x1="228.119" y1="350.922" x2="228.119" y2="361.423"/>
	</g>
	<g id="POLYLINE_257_">
		
			<line fill="none" stroke="#000000" stroke-width="0.08" stroke-linecap="square" stroke-miterlimit="10" x1="230.388" y1="361.807" x2="230.388" y2="350.537"/>
	</g>
	<g id="POLYLINE_256_">
		
			<line fill="none" stroke="#000000" stroke-width="0.08" stroke-linecap="square" stroke-miterlimit="10" x1="230.388" y1="376.03" x2="230.388" y2="364.76"/>
	</g>
	<g id="POLYLINE_255_">
		
			<line fill="none" stroke="#000000" stroke-width="0.08" stroke-linecap="square" stroke-miterlimit="10" x1="230.388" y1="391.881" x2="230.388" y2="380.611"/>
	</g>
	<g id="POLYLINE_254_">
		
			<line fill="none" stroke="#000000" stroke-width="0.08" stroke-linecap="square" stroke-miterlimit="10" x1="230.388" y1="416.907" x2="230.388" y2="405.638"/>
	</g>
	<g id="POLYLINE_253_">
		
			<line fill="none" stroke="#000000" stroke-width="0.08" stroke-linecap="square" stroke-miterlimit="10" x1="230.388" y1="434.434" x2="230.388" y2="423.164"/>
	</g>
	<g id="POLYLINE_252_">
		
			<line fill="none" stroke="#000000" stroke-width="0.08" stroke-linecap="square" stroke-miterlimit="10" x1="230.388" y1="459.392" x2="230.388" y2="448.122"/>
	</g>
	<g id="POLYLINE_251_">
		
			<line fill="none" stroke="#000000" stroke-width="0.08" stroke-linecap="square" stroke-miterlimit="10" x1="230.388" y1="477.333" x2="230.388" y2="466.063"/>
	</g>
	<g id="POLYLINE_250_">
		
			<line fill="none" stroke="#000000" stroke-width="0.08" stroke-linecap="square" stroke-miterlimit="10" x1="368.928" y1="337.598" x2="368.928" y2="349.4"/>
	</g>
	<g id="POLYLINE_249_">
		
			<line fill="none" stroke="#000000" stroke-width="0.08" stroke-linecap="square" stroke-miterlimit="10" x1="368.928" y1="349.891" x2="368.928" y2="361.693"/>
	</g>
	<g id="POLYLINE_248_">
		
			<line fill="none" stroke="#000000" stroke-width="0.08" stroke-linecap="square" stroke-miterlimit="10" x1="368.928" y1="362.184" x2="368.928" y2="373.986"/>
	</g>
	<g id="POLYLINE_247_">
		
			<line fill="none" stroke="#000000" stroke-width="0.08" stroke-linecap="square" stroke-miterlimit="10" x1="368.928" y1="380.419" x2="368.928" y2="392.221"/>
	</g>
	<g id="POLYLINE_246_">
		
			<line fill="none" stroke="#000000" stroke-width="0.08" stroke-linecap="square" stroke-miterlimit="10" x1="368.928" y1="392.712" x2="368.928" y2="404.513"/>
	</g>
	<g id="POLYLINE_245_">
		
			<line fill="none" stroke="#000000" stroke-width="0.08" stroke-linecap="square" stroke-miterlimit="10" x1="368.928" y1="405.004" x2="368.928" y2="416.806"/>
	</g>
	<g id="POLYLINE_244_">
		
			<line fill="none" stroke="#000000" stroke-width="0.08" stroke-linecap="square" stroke-miterlimit="10" x1="368.928" y1="423.025" x2="368.928" y2="434.827"/>
	</g>
	<g id="POLYLINE_243_">
		
			<line fill="none" stroke="#000000" stroke-width="0.08" stroke-linecap="square" stroke-miterlimit="10" x1="368.928" y1="435.318" x2="368.928" y2="447.119"/>
	</g>
	<g id="POLYLINE_242_">
		
			<line fill="none" stroke="#000000" stroke-width="0.08" stroke-linecap="square" stroke-miterlimit="10" x1="368.928" y1="447.61" x2="368.928" y2="459.412"/>
	</g>
	<g id="POLYLINE_241_">
		
			<line fill="none" stroke="#000000" stroke-width="0.08" stroke-linecap="square" stroke-miterlimit="10" x1="368.928" y1="465.585" x2="368.928" y2="477.387"/>
	</g>
	<g id="POLYLINE_240_">
		
			<line fill="none" stroke="#000000" stroke-width="0.08" stroke-linecap="square" stroke-miterlimit="10" x1="368.928" y1="477.878" x2="368.928" y2="489.68"/>
	</g>
	<g id="POLYLINE_239_">
		
			<line fill="none" stroke="#000000" stroke-width="0.08" stroke-linecap="square" stroke-miterlimit="10" x1="368.928" y1="490.171" x2="368.928" y2="501.973"/>
	</g>
	<g id="POLYLINE_179_">
		
			<line fill="none" stroke="#000000" stroke-width="0.08" stroke-linecap="square" stroke-miterlimit="10" x1="247.596" y1="506.139" x2="234.871" y2="506.139"/>
	</g>
	<g id="POLYLINE_178_">
		
			<line fill="none" stroke="#000000" stroke-width="0.08" stroke-linecap="square" stroke-miterlimit="10" x1="260.812" y1="506.139" x2="248.087" y2="506.139"/>
	</g>
	<g id="POLYLINE_177_">
		
			<line fill="none" stroke="#000000" stroke-width="0.08" stroke-linecap="square" stroke-miterlimit="10" x1="274.028" y1="506.139" x2="261.303" y2="506.139"/>
	</g>
	<g id="POLYLINE_176_">
		
			<line fill="none" stroke="#000000" stroke-width="0.08" stroke-linecap="square" stroke-miterlimit="10" x1="292.954" y1="506.139" x2="280.229" y2="506.139"/>
	</g>
	<g id="POLYLINE_175_">
		
			<line fill="none" stroke="#000000" stroke-width="0.08" stroke-linecap="square" stroke-miterlimit="10" x1="306.17" y1="506.139" x2="293.445" y2="506.139"/>
	</g>
	<g id="POLYLINE_174_">
		
			<line fill="none" stroke="#000000" stroke-width="0.08" stroke-linecap="square" stroke-miterlimit="10" x1="319.387" y1="506.139" x2="306.661" y2="506.139"/>
	</g>
	<g id="POLYLINE_173_">
		
			<line fill="none" stroke="#000000" stroke-width="0.08" stroke-linecap="square" stroke-miterlimit="10" x1="338.864" y1="506.139" x2="326.138" y2="506.139"/>
	</g>
	<g id="POLYLINE_172_">
		
			<line fill="none" stroke="#000000" stroke-width="0.08" stroke-linecap="square" stroke-miterlimit="10" x1="352.08" y1="506.139" x2="339.355" y2="506.139"/>
	</g>
	<g id="POLYLINE_171_">
		
			<line fill="none" stroke="#000000" stroke-width="0.08" stroke-linecap="square" stroke-miterlimit="10" x1="365.296" y1="506.139" x2="352.571" y2="506.139"/>
	</g>
	<g id="POLYLINE_170_">
		<polyline fill="none" stroke="#000000" stroke-width="0.08" stroke-linecap="square" stroke-miterlimit="10" points="
			309.556,333.668 309.556,341.864 281.366,341.864 281.366,341.298 308.932,341.298 308.932,333.668 		"/>
	</g>
	<g id="POLYLINE_52_">
		
			<line fill="none" stroke="#000000" stroke-width="0.08" stroke-linecap="square" stroke-miterlimit="10" x1="291.703" y1="337.483" x2="291.703" y2="341.298"/>
	</g>
	<g id="POLYLINE_51_">
		
			<line fill="none" stroke="#000000" stroke-width="0.08" stroke-linecap="square" stroke-miterlimit="10" x1="289.98" y1="333.668" x2="289.98" y2="341.298"/>
	</g>
	<g id="POLYLINE_50_">
		
			<line fill="none" stroke="#000000" stroke-width="0.08" stroke-linecap="square" stroke-miterlimit="10" x1="288.257" y1="333.668" x2="288.257" y2="341.298"/>
	</g>
	<g id="POLYLINE_49_">
		
			<line fill="none" stroke="#000000" stroke-width="0.08" stroke-linecap="square" stroke-miterlimit="10" x1="286.534" y1="333.668" x2="286.534" y2="341.298"/>
	</g>
	<g id="POLYLINE_48_">
		
			<line fill="none" stroke="#000000" stroke-width="0.08" stroke-linecap="square" stroke-miterlimit="10" x1="284.811" y1="333.668" x2="284.811" y2="341.298"/>
	</g>
	<g id="POLYLINE_23_">
		
			<line fill="none" stroke="#000000" stroke-width="0.08" stroke-linecap="square" stroke-miterlimit="10" x1="283.088" y1="333.668" x2="283.088" y2="341.298"/>
	</g>
	<g id="POLYLINE_22_">
		
			<line fill="none" stroke="#000000" stroke-width="0.08" stroke-linecap="square" stroke-miterlimit="10" x1="281.366" y1="333.668" x2="281.366" y2="341.298"/>
	</g>
</g>
<g id="PLAN_x24_CLOISON_TRANSLUCIDE">
</g>
<g id="PLAN_x24_CLOISON_1.3">
</g>
<g id="PLAN_x24_CLOISON_1.2">
</g>
<g id="PLAN_x24_CLOISON_1.1">
</g>
<g id="PLAN_x24_STRUCTURE_2.3">
	<g id="POLYLINE_357_">
		
			<line fill="none" stroke="#000000" stroke-width="0.27" stroke-linecap="square" stroke-miterlimit="10" x1="240.893" y1="485.311" x2="240.893" y2="490.996"/>
	</g>
	<g id="POLYLINE_356_">
		
			<line fill="none" stroke="#000000" stroke-width="0.27" stroke-linecap="square" stroke-miterlimit="10" x1="240.636" y1="485.054" x2="230.388" y2="485.054"/>
	</g>
	<g id="POLYLINE_355_">
		
			<line fill="none" stroke="#000000" stroke-width="0.27" stroke-linecap="square" stroke-miterlimit="10" x1="240.893" y1="502.564" x2="240.893" y2="496.879"/>
	</g>
	<g id="POLYLINE_354_">
		
			<line fill="none" stroke="#000000" stroke-width="0.27" stroke-linecap="square" stroke-miterlimit="10" x1="240.636" y1="502.822" x2="230.388" y2="502.822"/>
	</g>
	<g id="POLYLINE_353_">
		
			<line fill="none" stroke="#000000" stroke-width="0.27" stroke-linecap="square" stroke-miterlimit="10" x1="240.893" y1="489.161" x2="230.388" y2="489.161"/>
	</g>
	<g id="POLYLINE_352_">
		
			<line fill="none" stroke="#000000" stroke-width="0.27" stroke-linecap="square" stroke-miterlimit="10" x1="240.893" y1="490.039" x2="230.388" y2="490.039"/>
	</g>
	<g id="CIRCLE_63_">
		<path fill="none" stroke="#000000" stroke-width="0.27" stroke-linecap="square" stroke-miterlimit="10" d="M240.636,502.822
			c0-0.142,0.115-0.257,0.257-0.257s0.257,0.115,0.257,0.257c0,0.142-0.115,0.257-0.257,0.257S240.636,502.964,240.636,502.822
			L240.636,502.822z"/>
	</g>
	<g id="CIRCLE_62_">
		<path fill="none" stroke="#000000" stroke-width="0.27" stroke-linecap="square" stroke-miterlimit="10" d="M240.636,496.622
			c0-0.142,0.115-0.257,0.257-0.257s0.257,0.115,0.257,0.257c0,0.142-0.115,0.257-0.257,0.257S240.636,496.764,240.636,496.622
			L240.636,496.622z"/>
	</g>
	<g id="CIRCLE_61_">
		<path fill="none" stroke="#000000" stroke-width="0.27" stroke-linecap="square" stroke-miterlimit="10" d="M240.636,485.054
			c0-0.142,0.115-0.257,0.257-0.257s0.257,0.115,0.257,0.257s-0.115,0.257-0.257,0.257S240.636,485.196,240.636,485.054
			L240.636,485.054z"/>
	</g>
	<g id="CIRCLE_60_">
		<path fill="none" stroke="#000000" stroke-width="0.27" stroke-linecap="square" stroke-miterlimit="10" d="M240.636,491.254
			c0-0.142,0.115-0.257,0.257-0.257s0.257,0.115,0.257,0.257c0,0.142-0.115,0.257-0.257,0.257S240.636,491.396,240.636,491.254
			L240.636,491.254z"/>
	</g>
</g>
<g id="PLAN_x24_STRUCTURE_2.2">
</g>
<g id="PLAN_x24_STRUCTURE_2.1">
</g>
<g id="PLAN_x24_STRUCTURE_1.3">
	<g id="POLYLINE_976_">
		
			<rect x="365.255" y="349.016" fill="none" stroke="#000000" stroke-width="0.41" stroke-linecap="square" stroke-miterlimit="10" width="3.673" height="1.26"/>
	</g>
	<g id="POLYLINE_977_">
		<polygon fill="none" stroke="#000000" stroke-width="0.41" stroke-linecap="square" stroke-miterlimit="10" points="
			368.928,337.598 370.063,337.598 370.063,337.983 371.197,337.983 371.197,332.008 369.84,332.008 369.84,331.344 
			228.119,331.399 228.119,350.922 229.253,350.922 229.253,350.537 230.388,350.537 230.388,347.232 239.707,347.232 
			239.707,333.668 351.31,333.668 351.31,350.275 354.776,350.275 354.776,349.016 352.728,349.016 352.728,333.668 
			368.928,333.668 		"/>
	</g>
	<g id="POLYLINE_1012_">
		<polygon fill="none" stroke="#000000" stroke-width="0.41" stroke-linecap="square" stroke-miterlimit="10" points="
			228.51,508.408 235.255,508.408 235.255,507.273 234.871,507.273 234.871,506.139 230.388,506.139 230.388,477.333 
			229.253,477.333 229.253,476.949 228.119,476.949 228.119,501.507 228.641,501.507 228.641,502.259 228.119,502.259 
			228.119,507.957 228.51,507.957 		"/>
	</g>
	<g id="POLYLINE_1013_">
		<polygon fill="none" stroke="#000000" stroke-width="0.41" stroke-linecap="square" stroke-miterlimit="10" points="
			371.197,465.97 371.197,459.028 370.063,459.028 370.063,459.412 368.928,459.412 368.928,465.585 370.063,465.585 
			370.063,465.97 		"/>
	</g>
	<g id="POLYLINE_1014_">
		<polygon fill="none" stroke="#000000" stroke-width="0.41" stroke-linecap="square" stroke-miterlimit="10" points="
			368.928,380.419 370.063,380.419 370.063,380.803 371.197,380.803 371.197,373.601 370.063,373.601 370.063,373.986 
			368.928,373.986 		"/>
	</g>
	<g id="POLYLINE_1015_">
		<polygon fill="none" stroke="#000000" stroke-width="0.41" stroke-linecap="square" stroke-miterlimit="10" points="
			368.928,423.025 370.063,423.025 370.063,423.409 371.197,423.409 371.197,416.422 370.063,416.422 370.063,416.806 
			368.928,416.806 		"/>
	</g>
	<g id="POLYLINE_1028_">
		<polygon fill="none" stroke="#000000" stroke-width="0.41" stroke-linecap="square" stroke-miterlimit="10" points="
			365.296,506.139 368.928,506.139 368.928,501.973 370.063,501.973 370.063,501.588 371.197,501.588 371.197,508.042 
			370.748,508.042 370.748,508.408 364.912,508.408 364.912,507.273 365.296,507.273 		"/>
	</g>
	<g id="POLYLINE_1029_">
		<polygon fill="none" stroke="#000000" stroke-width="0.41" stroke-linecap="square" stroke-miterlimit="10" points="
			326.138,506.139 319.387,506.139 319.387,507.273 319.002,507.273 319.002,508.408 326.523,508.408 326.523,507.273 
			326.138,507.273 		"/>
	</g>
	<g id="POLYLINE_1030_">
		<polygon fill="none" stroke="#000000" stroke-width="0.41" stroke-linecap="square" stroke-miterlimit="10" points="
			274.028,506.139 280.229,506.139 280.229,507.273 280.613,507.273 280.613,508.408 273.644,508.408 273.644,507.273 
			274.028,507.273 		"/>
	</g>
	<g id="POLYLINE_1040_">
		<polygon fill="none" stroke="#000000" stroke-width="0.41" stroke-linecap="square" stroke-miterlimit="10" points="
			248.471,508.408 248.471,507.273 248.087,507.273 248.087,506.139 247.596,506.139 247.596,507.273 247.212,507.273 
			247.212,508.408 		"/>
	</g>
	<g id="POLYLINE_1041_">
		<polygon fill="none" stroke="#000000" stroke-width="0.41" stroke-linecap="square" stroke-miterlimit="10" points="
			261.687,508.408 261.687,507.273 261.303,507.273 261.303,506.139 260.812,506.139 260.812,507.273 260.428,507.273 
			260.428,508.408 		"/>
	</g>
	<g id="POLYLINE_1042_">
		<polygon fill="none" stroke="#000000" stroke-width="0.41" stroke-linecap="square" stroke-miterlimit="10" points="
			293.83,508.408 293.83,507.273 293.445,507.273 293.445,506.139 292.954,506.139 292.954,507.273 292.57,507.273 292.57,508.408 
					"/>
	</g>
	<g id="POLYLINE_1043_">
		<polygon fill="none" stroke="#000000" stroke-width="0.41" stroke-linecap="square" stroke-miterlimit="10" points="
			307.046,508.408 307.046,507.273 306.661,507.273 306.661,506.139 306.17,506.139 306.17,507.273 305.786,507.273 
			305.786,508.408 		"/>
	</g>
	<g id="POLYLINE_1044_">
		<polygon fill="none" stroke="#000000" stroke-width="0.41" stroke-linecap="square" stroke-miterlimit="10" points="
			339.739,508.408 339.739,507.273 339.355,507.273 339.355,506.139 338.864,506.139 338.864,507.273 338.479,507.273 
			338.479,508.408 		"/>
	</g>
	<g id="POLYLINE_1045_">
		<polygon fill="none" stroke="#000000" stroke-width="0.41" stroke-linecap="square" stroke-miterlimit="10" points="
			352.955,508.408 352.955,507.273 352.571,507.273 352.571,506.139 352.08,506.139 352.08,507.273 351.696,507.273 
			351.696,508.408 		"/>
	</g>
	<g id="POLYLINE_1046_">
		<polyline fill="none" stroke="#000000" stroke-width="0.41" stroke-linecap="square" stroke-miterlimit="10" points="
			368.928,501.973 370.063,501.973 370.063,501.588 371.197,501.588 		"/>
	</g>
	<g id="POLYLINE_1047_">
		<polygon fill="none" stroke="#000000" stroke-width="0.41" stroke-linecap="square" stroke-miterlimit="10" points="
			371.197,477.003 370.063,477.003 370.063,477.387 368.928,477.387 368.928,477.878 370.063,477.878 370.063,478.263 
			371.197,478.263 		"/>
	</g>
	<g id="POLYLINE_1048_">
		<polygon fill="none" stroke="#000000" stroke-width="0.41" stroke-linecap="square" stroke-miterlimit="10" points="
			371.197,489.296 370.063,489.296 370.063,489.68 368.928,489.68 368.928,490.171 370.063,490.171 370.063,490.555 
			371.197,490.555 		"/>
	</g>
	<g id="POLYLINE_1049_">
		<polygon fill="none" stroke="#000000" stroke-width="0.41" stroke-linecap="square" stroke-miterlimit="10" points="
			371.197,446.735 370.063,446.735 370.063,447.119 368.928,447.119 368.928,447.61 370.063,447.61 370.063,447.995 
			371.197,447.995 		"/>
	</g>
	<g id="POLYLINE_1050_">
		<polygon fill="none" stroke="#000000" stroke-width="0.41" stroke-linecap="square" stroke-miterlimit="10" points="
			371.197,434.442 370.063,434.442 370.063,434.827 368.928,434.827 368.928,435.318 370.063,435.318 370.063,435.702 
			371.197,435.702 		"/>
	</g>
	<g id="POLYLINE_1051_">
		<polygon fill="none" stroke="#000000" stroke-width="0.41" stroke-linecap="square" stroke-miterlimit="10" points="
			371.197,404.129 370.063,404.129 370.063,404.513 368.928,404.513 368.928,405.004 370.063,405.004 370.063,405.389 
			371.197,405.389 		"/>
	</g>
	<g id="POLYLINE_1052_">
		<polygon fill="none" stroke="#000000" stroke-width="0.41" stroke-linecap="square" stroke-miterlimit="10" points="
			371.197,391.836 370.063,391.836 370.063,392.221 368.928,392.221 368.928,392.712 370.063,392.712 370.063,393.096 
			371.197,393.096 		"/>
	</g>
	<g id="POLYLINE_1053_">
		<polygon fill="none" stroke="#000000" stroke-width="0.41" stroke-linecap="square" stroke-miterlimit="10" points="
			371.197,361.308 370.063,361.308 370.063,361.693 368.928,361.693 368.928,362.184 370.063,362.184 370.063,362.568 
			371.197,362.568 		"/>
	</g>
	<g id="POLYLINE_1054_">
		<polygon fill="none" stroke="#000000" stroke-width="0.41" stroke-linecap="square" stroke-miterlimit="10" points="
			371.197,349.016 370.063,349.016 370.063,349.4 368.928,349.4 368.928,349.891 370.063,349.891 370.063,350.275 371.197,350.275 
					"/>
	</g>
	<g id="POLYLINE_1055_">
		<polygon fill="none" stroke="#000000" stroke-width="0.41" stroke-linecap="square" stroke-miterlimit="10" points="
			230.388,361.807 230.388,364.76 229.253,364.76 229.253,365.144 228.119,365.144 228.119,361.423 229.253,361.423 
			229.253,361.807 		"/>
	</g>
	<g id="POLYLINE_1056_">
		<polygon fill="none" stroke="#000000" stroke-width="0.41" stroke-linecap="square" stroke-miterlimit="10" points="
			230.388,376.03 230.388,380.611 229.253,380.611 229.253,380.995 228.119,380.995 228.119,375.645 229.253,375.645 
			229.253,376.03 		"/>
	</g>
	<g id="POLYLINE_1057_">
		<polygon fill="none" stroke="#000000" stroke-width="0.41" stroke-linecap="square" stroke-miterlimit="10" points="
			230.388,416.907 230.388,423.164 229.253,423.164 229.253,423.548 228.119,423.548 228.119,416.523 229.253,416.523 
			229.253,416.907 		"/>
	</g>
	<g id="POLYLINE_1058_">
		<polygon fill="none" stroke="#000000" stroke-width="0.41" stroke-linecap="square" stroke-miterlimit="10" points="
			230.388,434.434 230.388,448.122 229.253,448.122 229.253,448.507 228.119,448.507 228.119,434.049 229.253,434.049 
			229.253,434.434 		"/>
	</g>
	<g id="POLYLINE_1059_">
		<polygon fill="none" stroke="#000000" stroke-width="0.41" stroke-linecap="square" stroke-miterlimit="10" points="
			230.388,459.392 230.388,466.063 229.253,466.063 229.253,466.448 228.119,466.448 228.119,459.008 229.253,459.008 
			229.253,459.392 		"/>
	</g>
	<g id="POLYLINE_1060_">
		
			<line fill="none" stroke="#000000" stroke-width="0.41" stroke-linecap="square" stroke-miterlimit="10" x1="229.253" y1="466.063" x2="229.253" y2="466.448"/>
	</g>
	<g id="POLYLINE_1061_">
		
			<line fill="none" stroke="#000000" stroke-width="0.41" stroke-linecap="square" stroke-miterlimit="10" x1="229.253" y1="459.008" x2="229.253" y2="459.392"/>
	</g>
	<g id="POLYLINE_1062_">
		
			<line fill="none" stroke="#000000" stroke-width="0.41" stroke-linecap="square" stroke-miterlimit="10" x1="229.253" y1="448.122" x2="229.253" y2="448.507"/>
	</g>
	<g id="POLYLINE_1063_">
		
			<line fill="none" stroke="#000000" stroke-width="0.41" stroke-linecap="square" stroke-miterlimit="10" x1="229.253" y1="434.049" x2="229.253" y2="434.434"/>
	</g>
	<g id="POLYLINE_1064_">
		
			<line fill="none" stroke="#000000" stroke-width="0.41" stroke-linecap="square" stroke-miterlimit="10" x1="229.253" y1="423.164" x2="229.253" y2="423.548"/>
	</g>
	<g id="POLYLINE_1065_">
		
			<line fill="none" stroke="#000000" stroke-width="0.41" stroke-linecap="square" stroke-miterlimit="10" x1="229.253" y1="416.523" x2="229.253" y2="416.907"/>
	</g>
	<g id="POLYLINE_1066_">
		
			<line fill="none" stroke="#000000" stroke-width="0.41" stroke-linecap="square" stroke-miterlimit="10" x1="229.253" y1="405.638" x2="229.253" y2="406.022"/>
	</g>
	<g id="POLYLINE_1067_">
		
			<line fill="none" stroke="#000000" stroke-width="0.41" stroke-linecap="square" stroke-miterlimit="10" x1="229.253" y1="391.496" x2="229.253" y2="391.881"/>
	</g>
	<g id="POLYLINE_1068_">
		
			<line fill="none" stroke="#000000" stroke-width="0.41" stroke-linecap="square" stroke-miterlimit="10" x1="229.253" y1="380.611" x2="229.253" y2="380.995"/>
	</g>
	<g id="POLYLINE_1069_">
		
			<line fill="none" stroke="#000000" stroke-width="0.41" stroke-linecap="square" stroke-miterlimit="10" x1="229.253" y1="364.76" x2="229.253" y2="365.144"/>
	</g>
	<g id="POLYLINE_1070_">
		
			<line fill="none" stroke="#000000" stroke-width="0.41" stroke-linecap="square" stroke-miterlimit="10" x1="229.253" y1="361.423" x2="229.253" y2="361.807"/>
	</g>
	<g id="CIRCLE_23_">
		<path fill="none" stroke="#000000" stroke-width="0.41" stroke-linecap="square" stroke-miterlimit="10" d="M345.221,462.873
			c0-0.308,0.25-0.558,0.558-0.558c0.308,0,0.558,0.25,0.558,0.558s-0.25,0.558-0.558,0.558
			C345.471,463.431,345.221,463.181,345.221,462.873L345.221,462.873z"/>
	</g>
	<g id="CIRCLE_22_">
		<path fill="none" stroke="#000000" stroke-width="0.41" stroke-linecap="square" stroke-miterlimit="10" d="M322.222,462.873
			c0-0.308,0.25-0.558,0.558-0.558s0.558,0.25,0.558,0.558s-0.25,0.558-0.558,0.558S322.222,463.181,322.222,462.873
			L322.222,462.873z"/>
	</g>
	<g id="CIRCLE_21_">
		<path fill="none" stroke="#000000" stroke-width="0.41" stroke-linecap="square" stroke-miterlimit="10" d="M322.222,420.016
			c0-0.308,0.25-0.558,0.558-0.558s0.558,0.25,0.558,0.558c0,0.308-0.25,0.558-0.558,0.558S322.222,420.324,322.222,420.016
			L322.222,420.016z"/>
	</g>
	<g id="CIRCLE_20_">
		<path fill="none" stroke="#000000" stroke-width="0.41" stroke-linecap="square" stroke-miterlimit="10" d="M345.221,420.016
			c0-0.308,0.25-0.558,0.558-0.558c0.308,0,0.558,0.25,0.558,0.558c0,0.308-0.25,0.558-0.558,0.558
			C345.471,420.573,345.221,420.324,345.221,420.016L345.221,420.016z"/>
	</g>
	<g id="CIRCLE_19_">
		<path fill="none" stroke="#000000" stroke-width="0.41" stroke-linecap="square" stroke-miterlimit="10" d="M345.221,377.158
			c0-0.308,0.25-0.558,0.558-0.558c0.308,0,0.558,0.25,0.558,0.558c0,0.308-0.25,0.558-0.558,0.558
			C345.471,377.716,345.221,377.466,345.221,377.158L345.221,377.158z"/>
	</g>
	<g id="CIRCLE_18_">
		<path fill="none" stroke="#000000" stroke-width="0.41" stroke-linecap="square" stroke-miterlimit="10" d="M322.222,377.158
			c0-0.308,0.25-0.558,0.558-0.558s0.558,0.25,0.558,0.558c0,0.308-0.25,0.558-0.558,0.558S322.222,377.466,322.222,377.158
			L322.222,377.158z"/>
	</g>
	<g id="CIRCLE_17_">
		<path fill="none" stroke="#000000" stroke-width="0.41" stroke-linecap="square" stroke-miterlimit="10" d="M299.223,377.158
			c0-0.308,0.25-0.558,0.558-0.558c0.308,0,0.558,0.25,0.558,0.558c0,0.308-0.25,0.558-0.558,0.558
			C299.473,377.716,299.223,377.466,299.223,377.158L299.223,377.158z"/>
	</g>
	<g id="CIRCLE_16_">
		<path fill="none" stroke="#000000" stroke-width="0.41" stroke-linecap="square" stroke-miterlimit="10" d="M299.223,420.016
			c0-0.308,0.25-0.558,0.558-0.558c0.308,0,0.558,0.25,0.558,0.558c0,0.308-0.25,0.558-0.558,0.558
			C299.473,420.573,299.223,420.324,299.223,420.016L299.223,420.016z"/>
	</g>
	<g id="CIRCLE_15_">
		<path fill="none" stroke="#000000" stroke-width="0.41" stroke-linecap="square" stroke-miterlimit="10" d="M299.223,462.873
			c0-0.308,0.25-0.558,0.558-0.558c0.308,0,0.558,0.25,0.558,0.558s-0.25,0.558-0.558,0.558
			C299.473,463.431,299.223,463.181,299.223,462.873L299.223,462.873z"/>
	</g>
	<g id="CIRCLE_39_">
		<path fill="none" stroke="#000000" stroke-width="0.41" stroke-linecap="square" stroke-miterlimit="10" d="M276.225,462.873
			c0-0.308,0.25-0.558,0.558-0.558c0.308,0,0.558,0.25,0.558,0.558s-0.25,0.558-0.558,0.558
			C276.474,463.431,276.225,463.181,276.225,462.873L276.225,462.873z"/>
	</g>
	<g id="CIRCLE_40_">
		<path fill="none" stroke="#000000" stroke-width="0.41" stroke-linecap="square" stroke-miterlimit="10" d="M276.225,420.016
			c0-0.308,0.25-0.558,0.558-0.558c0.308,0,0.558,0.25,0.558,0.558c0,0.308-0.25,0.558-0.558,0.558
			C276.474,420.573,276.225,420.324,276.225,420.016L276.225,420.016z"/>
	</g>
	<g id="CIRCLE_41_">
		<path fill="none" stroke="#000000" stroke-width="0.41" stroke-linecap="square" stroke-miterlimit="10" d="M276.225,377.158
			c0-0.308,0.25-0.558,0.558-0.558c0.308,0,0.558,0.25,0.558,0.558c0,0.308-0.25,0.558-0.558,0.558
			C276.474,377.716,276.225,377.466,276.225,377.158L276.225,377.158z"/>
	</g>
	<g id="CIRCLE_42_">
		<path fill="none" stroke="#000000" stroke-width="0.41" stroke-linecap="square" stroke-miterlimit="10" d="M253.226,377.158
			c0-0.308,0.25-0.558,0.558-0.558s0.558,0.25,0.558,0.558c0,0.308-0.25,0.558-0.558,0.558S253.226,377.466,253.226,377.158
			L253.226,377.158z"/>
	</g>
	<g id="CIRCLE_43_">
		<path fill="none" stroke="#000000" stroke-width="0.41" stroke-linecap="square" stroke-miterlimit="10" d="M253.226,420.016
			c0-0.308,0.25-0.558,0.558-0.558s0.558,0.25,0.558,0.558c0,0.308-0.25,0.558-0.558,0.558S253.226,420.324,253.226,420.016
			L253.226,420.016z"/>
	</g>
	<g id="CIRCLE_44_">
		<path fill="none" stroke="#000000" stroke-width="0.41" stroke-linecap="square" stroke-miterlimit="10" d="M253.226,462.873
			c0-0.308,0.25-0.558,0.558-0.558s0.558,0.25,0.558,0.558s-0.25,0.558-0.558,0.558S253.226,463.181,253.226,462.873
			L253.226,462.873z"/>
	</g>
	<g id="POLYLINE_1071_">
		
			<rect x="230.982" y="333.668" fill="none" stroke="#000000" stroke-width="0.41" stroke-linecap="square" stroke-miterlimit="10" width="5.803" height="5.67"/>
	</g>
	<g id="POLYLINE_1072_">
		
			<rect x="231.101" y="340.797" fill="none" stroke="#000000" stroke-width="0.41" stroke-linecap="square" stroke-miterlimit="10" width="6.22" height="4.3"/>
	</g>
	<g id="POLYLINE_2485_">
		<polygon fill="none" stroke="#000000" stroke-width="0.41" stroke-linecap="square" stroke-miterlimit="10" points="
			230.388,391.881 229.253,391.881 229.253,391.496 228.119,391.496 228.119,406.022 229.253,406.022 229.253,405.638 
			230.388,405.638 		"/>
	</g>
</g>
<g id="PLAN_x24_STRUCTURE_1.2">
</g>
<g id="PLAN_x24_STRUCTURE_1.1">
</g>
</svg>
