<?xml version="1.0" encoding="utf-8"?>
<!-- Generator: Adobe Illustrator 22.0.1, SVG Export Plug-In . SVG Version: 6.00 Build 0)  -->
<svg version="1.1" id="Calque_1" xmlns="http://www.w3.org/2000/svg" xmlns:xlink="http://www.w3.org/1999/xlink" x="0px" y="0px"
	 viewBox="0 0 146.6 181" style="enable-background:new 0 0 146.6 181;" xml:space="preserve">
<style type="text/css">
	.st0{display:none;}
	.st1{display:inline;}
	.st2{fill:none;}
	.st3{fill:none;stroke:#000000;stroke-width:0.1;stroke-linecap:square;stroke-miterlimit:10;stroke-dasharray:0.5,0.5;}
	.st4{fill:none;stroke:#000000;stroke-width:5.000000e-02;stroke-linecap:square;stroke-miterlimit:10;}
	.st5{fill:none;stroke:#000000;stroke-width:8.000000e-02;stroke-linecap:square;stroke-miterlimit:10;}
	.st6{fill:none;stroke:#000000;stroke-width:0.27;stroke-linecap:square;stroke-miterlimit:10;}
	.st7{fill:none;stroke:#000000;stroke-width:0.41;stroke-linecap:square;stroke-miterlimit:10;}
</style>
<g id="Calque_1_1_">
</g>
<g id="INFOS_x24_A4" class="st0">
	<g id="POLYLINE_2480_" class="st1">
		<rect x="-226.6" y="-329.3" class="st2" width="595.3" height="841.9"/>
	</g>
</g>
<g id="PLAN_x24_FOND">
</g>
<g id="PLAN_x24_POINTILLE">
	<g id="POLYLINE_368_">
		<line class="st3" x1="63.4" y1="4.3" x2="66.8" y2="11.9"/>
	</g>
	<g id="POLYLINE_367_">
		<line class="st3" x1="66.8" y1="11.9" x2="66.8" y2="4.3"/>
	</g>
	<g id="POLYLINE_366_">
		<line class="st3" x1="65.1" y1="4.3" x2="65.1" y2="8.1"/>
	</g>
	<g id="POLYLINE_365_">
		<line class="st3" x1="80.6" y1="4.3" x2="80.6" y2="11.9"/>
	</g>
	<g id="POLYLINE_364_">
		<line class="st3" x1="78.9" y1="4.3" x2="78.9" y2="11.9"/>
	</g>
	<g id="POLYLINE_363_">
		<line class="st3" x1="77.2" y1="4.3" x2="77.2" y2="11.9"/>
	</g>
	<g id="POLYLINE_362_">
		<line class="st3" x1="75.5" y1="4.3" x2="75.5" y2="11.9"/>
	</g>
	<g id="POLYLINE_361_">
		<line class="st3" x1="73.7" y1="4.3" x2="73.7" y2="11.9"/>
	</g>
	<g id="POLYLINE_360_">
		<line class="st3" x1="72" y1="4.3" x2="72" y2="11.9"/>
	</g>
	<g id="POLYLINE_359_">
		<line class="st3" x1="70.3" y1="4.3" x2="70.3" y2="11.9"/>
	</g>
	<g id="POLYLINE_358_">
		<line class="st3" x1="68.6" y1="4.3" x2="68.6" y2="11.9"/>
	</g>
</g>
<g id="PLAN_x24_VITRAGE">
	<g id="LINE_327_">
		<line class="st4" x1="34.7" y1="177.6" x2="47.4" y2="177.6"/>
	</g>
	<g id="LINE_328_">
		<line class="st4" x1="21.5" y1="177.6" x2="34.2" y2="177.6"/>
	</g>
	<g id="LINE_329_">
		<line class="st4" x1="8.3" y1="177.6" x2="21" y2="177.6"/>
	</g>
	<g id="LINE_330_">
		<line class="st4" x1="53.6" y1="177.6" x2="66.4" y2="177.6"/>
	</g>
	<g id="LINE_331_">
		<line class="st4" x1="66.9" y1="177.6" x2="79.6" y2="177.6"/>
	</g>
	<g id="LINE_332_">
		<line class="st4" x1="80.1" y1="177.6" x2="92.8" y2="177.6"/>
	</g>
	<g id="LINE_333_">
		<line class="st4" x1="99.6" y1="177.6" x2="112.3" y2="177.6"/>
	</g>
	<g id="LINE_334_">
		<line class="st4" x1="112.8" y1="177.6" x2="125.5" y2="177.6"/>
	</g>
	<g id="LINE_335_">
		<line class="st4" x1="126" y1="177.6" x2="138.7" y2="177.6"/>
	</g>
	<g id="LINE_336_">
		<line class="st4" x1="143.2" y1="160.8" x2="143.2" y2="172.6"/>
	</g>
	<g id="LINE_337_">
		<line class="st4" x1="143.2" y1="136.8" x2="143.2" y2="148"/>
	</g>
	<g id="LINE_338_">
		<line class="st4" x1="143.2" y1="148.5" x2="143.2" y2="160.3"/>
	</g>
	<g id="LINE_339_">
		<line class="st4" x1="143.2" y1="118.3" x2="143.2" y2="130.1"/>
	</g>
	<g id="LINE_340_">
		<line class="st4" x1="143.2" y1="106" x2="143.2" y2="117.8"/>
	</g>
	<g id="LINE_341_">
		<line class="st4" x1="143.2" y1="93.7" x2="143.2" y2="105.5"/>
	</g>
	<g id="LINE_342_">
		<line class="st4" x1="143.2" y1="75.7" x2="143.2" y2="87.5"/>
	</g>
	<g id="LINE_343_">
		<line class="st4" x1="143.2" y1="63.4" x2="143.2" y2="75.2"/>
	</g>
	<g id="LINE_344_">
		<line class="st4" x1="143.2" y1="51.1" x2="143.2" y2="62.9"/>
	</g>
	<g id="LINE_345_">
		<line class="st4" x1="143.2" y1="32.8" x2="143.2" y2="44.6"/>
	</g>
	<g id="LINE_346_">
		<line class="st4" x1="143.2" y1="20.5" x2="143.2" y2="32.3"/>
	</g>
	<g id="LINE_347_">
		<line class="st4" x1="143.2" y1="8.2" x2="143.2" y2="20.1"/>
	</g>
	<g id="LINE_348_">
		<line class="st4" x1="3" y1="136.7" x2="3" y2="148"/>
	</g>
	<g id="LINE_349_">
		<line class="st4" x1="3" y1="118.8" x2="3" y2="130"/>
	</g>
	<g id="LINE_350_">
		<line class="st4" x1="3" y1="93.8" x2="3" y2="105.1"/>
	</g>
	<g id="LINE_351_">
		<line class="st4" x1="3" y1="76.3" x2="3" y2="87.6"/>
	</g>
	<g id="LINE_352_">
		<line class="st4" x1="3" y1="51.3" x2="3" y2="62.5"/>
	</g>
	<g id="LINE_353_">
		<line class="st4" x1="3" y1="35.4" x2="3" y2="46.7"/>
	</g>
	<g id="LINE_354_">
		<line class="st4" x1="3" y1="21.2" x2="3" y2="32.5"/>
	</g>
</g>
<g id="PLAN_x24_MOBILIER">
</g>
<g id="PLAN_x24_DETAIL">
	<g id="POLYLINE_294_">
		<line class="st5" x1="13" y1="161.8" x2="4.6" y2="171.9"/>
	</g>
	<g id="POLYLINE_293_">
		<line class="st5" x1="13" y1="171.9" x2="4.6" y2="161.8"/>
	</g>
	<g id="POLYLINE_292_">
		<rect x="4.6" y="161.8" class="st5" width="8.4" height="10.1"/>
	</g>
	<g id="POLYLINE_291_">
		<line class="st5" x1="144.6" y1="19.7" x2="144.6" y2="8.6"/>
	</g>
	<g id="POLYLINE_290_">
		<line class="st5" x1="139.4" y1="6.4" x2="127.1" y2="18.5"/>
	</g>
	<g id="POLYLINE_289_">
		<line class="st5" x1="127.1" y1="6.4" x2="139.4" y2="18.5"/>
	</g>
	<g id="POLYLINE_288_">
		<rect x="127.1" y="6.4" class="st5" width="12.2" height="12.2"/>
	</g>
	<g id="POLYLINE_287_">
		<line class="st5" x1="144.6" y1="20.9" x2="144.6" y2="32"/>
	</g>
	<g id="POLYLINE_286_">
		<line class="st5" x1="144.6" y1="44.3" x2="144.6" y2="33.2"/>
	</g>
	<g id="POLYLINE_285_">
		<line class="st5" x1="144.6" y1="51.5" x2="144.6" y2="62.5"/>
	</g>
	<g id="POLYLINE_284_">
		<line class="st5" x1="144.6" y1="74.8" x2="144.6" y2="63.7"/>
	</g>
	<g id="POLYLINE_283_">
		<line class="st5" x1="144.6" y1="87.1" x2="144.6" y2="76"/>
	</g>
	<g id="POLYLINE_282_">
		<line class="st5" x1="144.6" y1="105.1" x2="144.6" y2="94.1"/>
	</g>
	<g id="POLYLINE_281_">
		<line class="st5" x1="144.6" y1="117.4" x2="144.6" y2="106.4"/>
	</g>
	<g id="POLYLINE_280_">
		<line class="st5" x1="144.6" y1="129.7" x2="144.6" y2="118.6"/>
	</g>
	<g id="POLYLINE_279_">
		<line class="st5" x1="144.6" y1="147.7" x2="144.6" y2="136.6"/>
	</g>
	<g id="POLYLINE_278_">
		<line class="st5" x1="144.6" y1="159.9" x2="144.6" y2="148.9"/>
	</g>
	<g id="POLYLINE_277_">
		<line class="st5" x1="144.6" y1="172.2" x2="144.6" y2="161.2"/>
	</g>
	<g id="POLYLINE_276_">
		<line class="st5" x1="126.4" y1="179.1" x2="138.3" y2="179.1"/>
	</g>
	<g id="POLYLINE_275_">
		<line class="st5" x1="113.2" y1="179.1" x2="125.1" y2="179.1"/>
	</g>
	<g id="POLYLINE_274_">
		<line class="st5" x1="99.9" y1="179.1" x2="111.9" y2="179.1"/>
	</g>
	<g id="POLYLINE_273_">
		<line class="st5" x1="80.5" y1="179.1" x2="92.4" y2="179.1"/>
	</g>
	<g id="POLYLINE_272_">
		<line class="st5" x1="67.2" y1="179.1" x2="79.2" y2="179.1"/>
	</g>
	<g id="POLYLINE_271_">
		<line class="st5" x1="54" y1="179.1" x2="66" y2="179.1"/>
	</g>
	<g id="POLYLINE_270_">
		<line class="st5" x1="35.1" y1="179.1" x2="47.1" y2="179.1"/>
	</g>
	<g id="POLYLINE_269_">
		<line class="st5" x1="21.9" y1="179.1" x2="33.8" y2="179.1"/>
	</g>
	<g id="POLYLINE_268_">
		<line class="st5" x1="8.7" y1="179.1" x2="20.6" y2="179.1"/>
	</g>
	<g id="POLYLINE_264_">
		<line class="st5" x1="1.5" y1="137.1" x2="1.5" y2="147.6"/>
	</g>
	<g id="POLYLINE_263_">
		<line class="st5" x1="1.5" y1="119.2" x2="1.5" y2="129.7"/>
	</g>
	<g id="POLYLINE_262_">
		<line class="st5" x1="1.5" y1="94.2" x2="1.5" y2="104.7"/>
	</g>
	<g id="POLYLINE_261_">
		<line class="st5" x1="1.5" y1="76.7" x2="1.5" y2="87.2"/>
	</g>
	<g id="POLYLINE_260_">
		<line class="st5" x1="1.5" y1="51.6" x2="1.5" y2="62.1"/>
	</g>
	<g id="POLYLINE_259_">
		<line class="st5" x1="1.5" y1="35.8" x2="1.5" y2="46.3"/>
	</g>
	<g id="POLYLINE_258_">
		<line class="st5" x1="1.5" y1="21.6" x2="1.5" y2="32.1"/>
	</g>
	<g id="POLYLINE_257_">
		<line class="st5" x1="3.8" y1="32.5" x2="3.8" y2="21.2"/>
	</g>
	<g id="POLYLINE_256_">
		<line class="st5" x1="3.8" y1="46.7" x2="3.8" y2="35.4"/>
	</g>
	<g id="POLYLINE_255_">
		<line class="st5" x1="3.8" y1="62.5" x2="3.8" y2="51.3"/>
	</g>
	<g id="POLYLINE_254_">
		<line class="st5" x1="3.8" y1="87.6" x2="3.8" y2="76.3"/>
	</g>
	<g id="POLYLINE_253_">
		<line class="st5" x1="3.8" y1="105.1" x2="3.8" y2="93.8"/>
	</g>
	<g id="POLYLINE_252_">
		<line class="st5" x1="3.8" y1="130" x2="3.8" y2="118.8"/>
	</g>
	<g id="POLYLINE_251_">
		<line class="st5" x1="3.8" y1="148" x2="3.8" y2="136.7"/>
	</g>
	<g id="POLYLINE_250_">
		<line class="st5" x1="142.3" y1="8.2" x2="142.3" y2="20.1"/>
	</g>
	<g id="POLYLINE_249_">
		<line class="st5" x1="142.3" y1="20.5" x2="142.3" y2="32.3"/>
	</g>
	<g id="POLYLINE_248_">
		<line class="st5" x1="142.3" y1="32.8" x2="142.3" y2="44.6"/>
	</g>
	<g id="POLYLINE_247_">
		<line class="st5" x1="142.3" y1="51.1" x2="142.3" y2="62.9"/>
	</g>
	<g id="POLYLINE_246_">
		<line class="st5" x1="142.3" y1="63.4" x2="142.3" y2="75.2"/>
	</g>
	<g id="POLYLINE_245_">
		<line class="st5" x1="142.3" y1="75.7" x2="142.3" y2="87.5"/>
	</g>
	<g id="POLYLINE_244_">
		<line class="st5" x1="142.3" y1="93.7" x2="142.3" y2="105.5"/>
	</g>
	<g id="POLYLINE_243_">
		<line class="st5" x1="142.3" y1="106" x2="142.3" y2="117.8"/>
	</g>
	<g id="POLYLINE_242_">
		<line class="st5" x1="142.3" y1="118.3" x2="142.3" y2="130.1"/>
	</g>
	<g id="POLYLINE_241_">
		<line class="st5" x1="142.3" y1="136.2" x2="142.3" y2="148"/>
	</g>
	<g id="POLYLINE_240_">
		<line class="st5" x1="142.3" y1="148.5" x2="142.3" y2="160.3"/>
	</g>
	<g id="POLYLINE_239_">
		<line class="st5" x1="142.3" y1="160.8" x2="142.3" y2="172.6"/>
	</g>
	<g id="POLYLINE_179_">
		<line class="st5" x1="21" y1="176.8" x2="8.3" y2="176.8"/>
	</g>
	<g id="POLYLINE_178_">
		<line class="st5" x1="34.2" y1="176.8" x2="21.5" y2="176.8"/>
	</g>
	<g id="POLYLINE_177_">
		<line class="st5" x1="47.4" y1="176.8" x2="34.7" y2="176.8"/>
	</g>
	<g id="POLYLINE_176_">
		<line class="st5" x1="66.4" y1="176.8" x2="53.6" y2="176.8"/>
	</g>
	<g id="POLYLINE_175_">
		<line class="st5" x1="79.6" y1="176.8" x2="66.9" y2="176.8"/>
	</g>
	<g id="POLYLINE_174_">
		<line class="st5" x1="92.8" y1="176.8" x2="80.1" y2="176.8"/>
	</g>
	<g id="POLYLINE_173_">
		<line class="st5" x1="112.3" y1="176.8" x2="99.6" y2="176.8"/>
	</g>
	<g id="POLYLINE_172_">
		<line class="st5" x1="125.5" y1="176.8" x2="112.8" y2="176.8"/>
	</g>
	<g id="POLYLINE_171_">
		<line class="st5" x1="138.7" y1="176.8" x2="126" y2="176.8"/>
	</g>
	<g id="POLYLINE_170_">
		<polyline class="st5" points="83,4.3 83,12.5 54.8,12.5 54.8,11.9 82.3,11.9 82.3,4.3 		"/>
	</g>
	<g id="POLYLINE_52_">
		<line class="st5" x1="65.1" y1="8.1" x2="65.1" y2="11.9"/>
	</g>
	<g id="POLYLINE_51_">
		<line class="st5" x1="63.4" y1="4.3" x2="63.4" y2="11.9"/>
	</g>
	<g id="POLYLINE_50_">
		<line class="st5" x1="61.7" y1="4.3" x2="61.7" y2="11.9"/>
	</g>
	<g id="POLYLINE_49_">
		<line class="st5" x1="60" y1="4.3" x2="60" y2="11.9"/>
	</g>
	<g id="POLYLINE_48_">
		<line class="st5" x1="58.2" y1="4.3" x2="58.2" y2="11.9"/>
	</g>
	<g id="POLYLINE_23_">
		<line class="st5" x1="56.5" y1="4.3" x2="56.5" y2="11.9"/>
	</g>
	<g id="POLYLINE_22_">
		<line class="st5" x1="54.8" y1="4.3" x2="54.8" y2="11.9"/>
	</g>
</g>
<g id="PLAN_x24_CLOISON_TRANSLUCIDE">
</g>
<g id="PLAN_x24_CLOISON_1.3">
</g>
<g id="PLAN_x24_CLOISON_1.2">
</g>
<g id="PLAN_x24_CLOISON_1.1">
</g>
<g id="PLAN_x24_STRUCTURE_2.3">
	<g id="POLYLINE_357_">
		<line class="st6" x1="14.3" y1="156" x2="14.3" y2="161.6"/>
	</g>
	<g id="POLYLINE_356_">
		<line class="st6" x1="14.1" y1="155.7" x2="3.8" y2="155.7"/>
	</g>
	<g id="POLYLINE_355_">
		<line class="st6" x1="14.3" y1="173.2" x2="14.3" y2="167.5"/>
	</g>
	<g id="POLYLINE_354_">
		<line class="st6" x1="14.1" y1="173.5" x2="3.8" y2="173.5"/>
	</g>
	<g id="POLYLINE_353_">
		<line class="st6" x1="14.3" y1="159.8" x2="3.8" y2="159.8"/>
	</g>
	<g id="POLYLINE_352_">
		<line class="st6" x1="14.3" y1="160.7" x2="3.8" y2="160.7"/>
	</g>
	<g id="CIRCLE_63_">
		<path class="st6" d="M14.1,173.5c0-0.1,0.1-0.3,0.3-0.3s0.3,0.1,0.3,0.3s-0.1,0.3-0.3,0.3S14.1,173.6,14.1,173.5L14.1,173.5z"/>
	</g>
	<g id="CIRCLE_62_">
		<path class="st6" d="M14.1,167.3c0-0.1,0.1-0.3,0.3-0.3s0.3,0.1,0.3,0.3s-0.1,0.3-0.3,0.3S14.1,167.4,14.1,167.3L14.1,167.3z"/>
	</g>
	<g id="CIRCLE_61_">
		<path class="st6" d="M14.1,155.7c0-0.1,0.1-0.3,0.3-0.3s0.3,0.1,0.3,0.3s-0.1,0.3-0.3,0.3S14.1,155.8,14.1,155.7L14.1,155.7z"/>
	</g>
	<g id="CIRCLE_60_">
		<path class="st6" d="M14.1,161.9c0-0.1,0.1-0.3,0.3-0.3s0.3,0.1,0.3,0.3s-0.1,0.3-0.3,0.3S14.1,162,14.1,161.9L14.1,161.9z"/>
	</g>
</g>
<g id="PLAN_x24_STRUCTURE_2.2">
</g>
<g id="PLAN_x24_STRUCTURE_2.1">
</g>
<g id="PLAN_x24_STRUCTURE_1.3">
	<g id="POLYLINE_976_">
		<rect x="138.7" y="19.7" class="st7" width="3.7" height="1.3"/>
	</g>
	<g id="POLYLINE_977_">
		<polygon class="st7" points="142.3,8.2 143.5,8.2 143.5,8.6 144.6,8.6 144.6,2.7 143.3,2.7 143.3,2 1.5,2 1.5,21.6 2.7,21.6 
			2.7,21.2 3.8,21.2 3.8,17.9 13.1,17.9 13.1,4.3 124.7,4.3 124.7,20.9 128.2,20.9 128.2,19.7 126.1,19.7 126.1,4.3 142.3,4.3 		"/>
	</g>
	<g id="POLYLINE_1012_">
		<polygon class="st7" points="1.9,179.1 8.7,179.1 8.7,177.9 8.3,177.9 8.3,176.8 3.8,176.8 3.8,148 2.7,148 2.7,147.6 1.5,147.6 
			1.5,172.2 2.1,172.2 2.1,172.9 1.5,172.9 1.5,178.6 1.9,178.6 		"/>
	</g>
	<g id="POLYLINE_1013_">
		<polygon class="st7" points="144.6,136.6 144.6,129.7 143.5,129.7 143.5,130.1 142.3,130.1 142.3,136.2 143.5,136.2 143.5,136.6 
					"/>
	</g>
	<g id="POLYLINE_1014_">
		<polygon class="st7" points="142.3,51.1 143.5,51.1 143.5,51.5 144.6,51.5 144.6,44.3 143.5,44.3 143.5,44.6 142.3,44.6 		"/>
	</g>
	<g id="POLYLINE_1015_">
		<polygon class="st7" points="142.3,93.7 143.5,93.7 143.5,94.1 144.6,94.1 144.6,87.1 143.5,87.1 143.5,87.5 142.3,87.5 		"/>
	</g>
	<g id="POLYLINE_1028_">
		<polygon class="st7" points="138.7,176.8 142.3,176.8 142.3,172.6 143.5,172.6 143.5,172.2 144.6,172.2 144.6,178.7 144.2,178.7 
			144.2,179.1 138.3,179.1 138.3,177.9 138.7,177.9 		"/>
	</g>
	<g id="POLYLINE_1029_">
		<polygon class="st7" points="99.6,176.8 92.8,176.8 92.8,177.9 92.4,177.9 92.4,179.1 99.9,179.1 99.9,177.9 99.6,177.9 		"/>
	</g>
	<g id="POLYLINE_1030_">
		<polygon class="st7" points="47.4,176.8 53.6,176.8 53.6,177.9 54,177.9 54,179.1 47.1,179.1 47.1,177.9 47.4,177.9 		"/>
	</g>
	<g id="POLYLINE_1040_">
		<polygon class="st7" points="21.9,179.1 21.9,177.9 21.5,177.9 21.5,176.8 21,176.8 21,177.9 20.6,177.9 20.6,179.1 		"/>
	</g>
	<g id="POLYLINE_1041_">
		<polygon class="st7" points="35.1,179.1 35.1,177.9 34.7,177.9 34.7,176.8 34.2,176.8 34.2,177.9 33.8,177.9 33.8,179.1 		"/>
	</g>
	<g id="POLYLINE_1042_">
		<polygon class="st7" points="67.2,179.1 67.2,177.9 66.9,177.9 66.9,176.8 66.4,176.8 66.4,177.9 66,177.9 66,179.1 		"/>
	</g>
	<g id="POLYLINE_1043_">
		<polygon class="st7" points="80.5,179.1 80.5,177.9 80.1,177.9 80.1,176.8 79.6,176.8 79.6,177.9 79.2,177.9 79.2,179.1 		"/>
	</g>
	<g id="POLYLINE_1044_">
		<polygon class="st7" points="113.2,179.1 113.2,177.9 112.8,177.9 112.8,176.8 112.3,176.8 112.3,177.9 111.9,177.9 111.9,179.1 
					"/>
	</g>
	<g id="POLYLINE_1045_">
		<polygon class="st7" points="126.4,179.1 126.4,177.9 126,177.9 126,176.8 125.5,176.8 125.5,177.9 125.1,177.9 125.1,179.1 		"/>
	</g>
	<g id="POLYLINE_1046_">
		<polyline class="st7" points="142.3,172.6 143.5,172.6 143.5,172.2 144.6,172.2 		"/>
	</g>
	<g id="POLYLINE_1047_">
		<polygon class="st7" points="144.6,147.7 143.5,147.7 143.5,148 142.3,148 142.3,148.5 143.5,148.5 143.5,148.9 144.6,148.9 		"/>
	</g>
	<g id="POLYLINE_1048_">
		<polygon class="st7" points="144.6,159.9 143.5,159.9 143.5,160.3 142.3,160.3 142.3,160.8 143.5,160.8 143.5,161.2 144.6,161.2 
					"/>
	</g>
	<g id="POLYLINE_1049_">
		<polygon class="st7" points="144.6,117.4 143.5,117.4 143.5,117.8 142.3,117.8 142.3,118.3 143.5,118.3 143.5,118.6 144.6,118.6 
					"/>
	</g>
	<g id="POLYLINE_1050_">
		<polygon class="st7" points="144.6,105.1 143.5,105.1 143.5,105.5 142.3,105.5 142.3,106 143.5,106 143.5,106.4 144.6,106.4 		"/>
	</g>
	<g id="POLYLINE_1051_">
		<polygon class="st7" points="144.6,74.8 143.5,74.8 143.5,75.2 142.3,75.2 142.3,75.7 143.5,75.7 143.5,76 144.6,76 		"/>
	</g>
	<g id="POLYLINE_1052_">
		<polygon class="st7" points="144.6,62.5 143.5,62.5 143.5,62.9 142.3,62.9 142.3,63.4 143.5,63.4 143.5,63.7 144.6,63.7 		"/>
	</g>
	<g id="POLYLINE_1053_">
		<polygon class="st7" points="144.6,32 143.5,32 143.5,32.3 142.3,32.3 142.3,32.8 143.5,32.8 143.5,33.2 144.6,33.2 		"/>
	</g>
	<g id="POLYLINE_1054_">
		<polygon class="st7" points="144.6,19.7 143.5,19.7 143.5,20.1 142.3,20.1 142.3,20.5 143.5,20.5 143.5,20.9 144.6,20.9 		"/>
	</g>
	<g id="POLYLINE_1055_">
		<polygon class="st7" points="3.8,32.5 3.8,35.4 2.7,35.4 2.7,35.8 1.5,35.8 1.5,32.1 2.7,32.1 2.7,32.5 		"/>
	</g>
	<g id="POLYLINE_1056_">
		<polygon class="st7" points="3.8,46.7 3.8,51.3 2.7,51.3 2.7,51.6 1.5,51.6 1.5,46.3 2.7,46.3 2.7,46.7 		"/>
	</g>
	<g id="POLYLINE_1057_">
		<polygon class="st7" points="3.8,87.6 3.8,93.8 2.7,93.8 2.7,94.2 1.5,94.2 1.5,87.2 2.7,87.2 2.7,87.6 		"/>
	</g>
	<g id="POLYLINE_1058_">
		<polygon class="st7" points="3.8,105.1 3.8,118.8 2.7,118.8 2.7,119.2 1.5,119.2 1.5,104.7 2.7,104.7 2.7,105.1 		"/>
	</g>
	<g id="POLYLINE_1059_">
		<polygon class="st7" points="3.8,130 3.8,136.7 2.7,136.7 2.7,137.1 1.5,137.1 1.5,129.7 2.7,129.7 2.7,130 		"/>
	</g>
	<g id="POLYLINE_1060_">
		<line class="st7" x1="2.7" y1="136.7" x2="2.7" y2="137.1"/>
	</g>
	<g id="POLYLINE_1061_">
		<line class="st7" x1="2.7" y1="129.7" x2="2.7" y2="130"/>
	</g>
	<g id="POLYLINE_1062_">
		<line class="st7" x1="2.7" y1="118.8" x2="2.7" y2="119.2"/>
	</g>
	<g id="POLYLINE_1063_">
		<line class="st7" x1="2.7" y1="104.7" x2="2.7" y2="105.1"/>
	</g>
	<g id="POLYLINE_1064_">
		<line class="st7" x1="2.7" y1="93.8" x2="2.7" y2="94.2"/>
	</g>
	<g id="POLYLINE_1065_">
		<line class="st7" x1="2.7" y1="87.2" x2="2.7" y2="87.6"/>
	</g>
	<g id="POLYLINE_1066_">
		<line class="st7" x1="2.7" y1="76.3" x2="2.7" y2="76.7"/>
	</g>
	<g id="POLYLINE_1067_">
		<line class="st7" x1="2.7" y1="62.1" x2="2.7" y2="62.5"/>
	</g>
	<g id="POLYLINE_1068_">
		<line class="st7" x1="2.7" y1="51.3" x2="2.7" y2="51.6"/>
	</g>
	<g id="POLYLINE_1069_">
		<line class="st7" x1="2.7" y1="35.4" x2="2.7" y2="35.8"/>
	</g>
	<g id="POLYLINE_1070_">
		<line class="st7" x1="2.7" y1="32.1" x2="2.7" y2="32.5"/>
	</g>
	<g id="CIRCLE_23_">
		<path class="st7" d="M118.6,133.5c0-0.3,0.2-0.6,0.6-0.6s0.6,0.2,0.6,0.6s-0.2,0.6-0.6,0.6S118.6,133.8,118.6,133.5L118.6,133.5z"
			/>
	</g>
	<g id="CIRCLE_22_">
		<path class="st7" d="M95.6,133.5c0-0.3,0.2-0.6,0.6-0.6s0.6,0.2,0.6,0.6s-0.2,0.6-0.6,0.6S95.6,133.8,95.6,133.5L95.6,133.5z"/>
	</g>
	<g id="CIRCLE_21_">
		<path class="st7" d="M95.6,90.7c0-0.3,0.2-0.6,0.6-0.6s0.6,0.2,0.6,0.6s-0.2,0.6-0.6,0.6S95.6,91,95.6,90.7L95.6,90.7z"/>
	</g>
	<g id="CIRCLE_20_">
		<path class="st7" d="M118.6,90.7c0-0.3,0.2-0.6,0.6-0.6s0.6,0.2,0.6,0.6s-0.2,0.6-0.6,0.6C118.9,91.2,118.6,91,118.6,90.7
			L118.6,90.7z"/>
	</g>
	<g id="CIRCLE_19_">
		<path class="st7" d="M118.6,47.8c0-0.3,0.2-0.6,0.6-0.6s0.6,0.2,0.6,0.6s-0.2,0.6-0.6,0.6S118.6,48.1,118.6,47.8L118.6,47.8z"/>
	</g>
	<g id="CIRCLE_18_">
		<path class="st7" d="M95.6,47.8c0-0.3,0.2-0.6,0.6-0.6s0.6,0.2,0.6,0.6s-0.2,0.6-0.6,0.6S95.6,48.1,95.6,47.8L95.6,47.8z"/>
	</g>
	<g id="CIRCLE_17_">
		<path class="st7" d="M72.6,47.8c0-0.3,0.2-0.6,0.6-0.6s0.6,0.2,0.6,0.6s-0.2,0.6-0.6,0.6S72.6,48.1,72.6,47.8L72.6,47.8z"/>
	</g>
	<g id="CIRCLE_16_">
		<path class="st7" d="M72.6,90.7c0-0.3,0.2-0.6,0.6-0.6s0.6,0.2,0.6,0.6s-0.2,0.6-0.6,0.6C72.9,91.2,72.6,91,72.6,90.7L72.6,90.7z"
			/>
	</g>
	<g id="CIRCLE_15_">
		<path class="st7" d="M72.6,133.5c0-0.3,0.2-0.6,0.6-0.6s0.6,0.2,0.6,0.6s-0.2,0.6-0.6,0.6S72.6,133.8,72.6,133.5L72.6,133.5z"/>
	</g>
	<g id="CIRCLE_39_">
		<path class="st7" d="M49.6,133.5c0-0.3,0.2-0.6,0.6-0.6s0.6,0.2,0.6,0.6s-0.2,0.6-0.6,0.6C49.9,134.1,49.6,133.8,49.6,133.5
			L49.6,133.5z"/>
	</g>
	<g id="CIRCLE_40_">
		<path class="st7" d="M49.6,90.7c0-0.3,0.2-0.6,0.6-0.6s0.6,0.2,0.6,0.6s-0.2,0.6-0.6,0.6C49.9,91.2,49.6,91,49.6,90.7L49.6,90.7z"
			/>
	</g>
	<g id="CIRCLE_41_">
		<path class="st7" d="M49.6,47.8c0-0.3,0.2-0.6,0.6-0.6s0.6,0.2,0.6,0.6s-0.2,0.6-0.6,0.6C49.9,48.4,49.6,48.1,49.6,47.8L49.6,47.8
			z"/>
	</g>
	<g id="CIRCLE_42_">
		<path class="st7" d="M26.6,47.8c0-0.3,0.2-0.6,0.6-0.6s0.6,0.2,0.6,0.6s-0.2,0.6-0.6,0.6S26.6,48.1,26.6,47.8L26.6,47.8z"/>
	</g>
	<g id="CIRCLE_43_">
		<path class="st7" d="M26.6,90.7c0-0.3,0.2-0.6,0.6-0.6s0.6,0.2,0.6,0.6s-0.2,0.6-0.6,0.6S26.6,91,26.6,90.7L26.6,90.7z"/>
	</g>
	<g id="CIRCLE_44_">
		<path class="st7" d="M26.6,133.5c0-0.3,0.2-0.6,0.6-0.6s0.6,0.2,0.6,0.6s-0.2,0.6-0.6,0.6S26.6,133.8,26.6,133.5L26.6,133.5z"/>
	</g>
	<g id="POLYLINE_1071_">
		<rect x="4.4" y="4.3" class="st7" width="5.8" height="5.7"/>
	</g>
	<g id="POLYLINE_1072_">
		<rect x="4.5" y="11.4" class="st7" width="6.2" height="4.3"/>
	</g>
	<g id="POLYLINE_2485_">
		<polygon class="st7" points="3.8,62.5 2.7,62.5 2.7,62.1 1.5,62.1 1.5,76.7 2.7,76.7 2.7,76.3 3.8,76.3 		"/>
	</g>
</g>
<g id="PLAN_x24_STRUCTURE_1.2">
</g>
<g id="PLAN_x24_STRUCTURE_1.1">
</g>
</svg>
