<?xml version="1.0" encoding="utf-8"?>
<!-- Generator: Adobe Illustrator 22.0.1, SVG Export Plug-In . SVG Version: 6.00 Build 0)  -->
<svg version="1.1" id="Calque_1" xmlns="http://www.w3.org/2000/svg" xmlns:xlink="http://www.w3.org/1999/xlink" x="0px" y="0px"
	 viewBox="0 0 221.9 222.5" style="enable-background:new 0 0 221.9 222.5;" xml:space="preserve">
<style type="text/css">
	.st0{display:none;}
	.st1{display:inline;}
	.st2{fill:none;}
	.st3{fill:none;stroke:#000000;stroke-width:0.1;stroke-linecap:square;stroke-miterlimit:10;}
	.st4{fill:none;stroke:#000000;stroke-width:0.2;stroke-linecap:square;stroke-miterlimit:10;stroke-dasharray:1,1;}
	.st5{fill:none;stroke:#000000;stroke-width:0.16;stroke-linecap:square;stroke-miterlimit:10;}
	.st6{fill:none;stroke:#000000;stroke-width:0.28;stroke-linecap:square;stroke-miterlimit:10;}
	.st7{fill:none;stroke:#000000;stroke-width:0.54;stroke-linecap:square;stroke-miterlimit:10;}
	.st8{fill:none;stroke:#000000;stroke-width:0.7;stroke-linecap:square;stroke-miterlimit:10;}
	.st9{fill:none;stroke:#000000;stroke-width:0.82;stroke-linecap:square;stroke-miterlimit:10;}
</style>
<g id="Calque_1_1_">
</g>
<g id="INFOS_x24_A4" class="st0">
	<g id="POLYLINE_1580_" class="st1">
		<rect x="-185.1" y="-313.4" class="st2" width="595.3" height="841.9"/>
	</g>
</g>
<g id="PLAN_x24_FOND">
	<g id="POLYLINE_2230_">
		<polygon class="st3" points="205.2,52.6 167,14.2 50.8,14.2 12.6,52.6 12.6,168.8 50.8,207.1 167,207.1 205.2,168.8 		"/>
	</g>
	<g id="POLYLINE_2231_">
		<polygon class="st3" points="203.6,53.2 166.2,16 51.6,16 14.2,53.2 14.2,168.1 51.6,205.2 166.2,205.2 203.6,168.1 		"/>
	</g>
	<g id="POLYLINE_2232_">
		<polygon class="st3" points="201.8,54 165.6,17.6 52.2,17.6 16,54 16,167.4 52.2,203.6 165.6,203.6 201.8,167.4 		"/>
	</g>
</g>
<g id="PLAN_x24_POINTILLE">
	<g id="ARC_115_">
		<path class="st4" d="M123,103.6c-3.8,4-3.4,10.4,0.6,14.2c0.6,0.6,1.2,1,1.8,1.4"/>
	</g>
	<g id="ARC_130_">
		<path class="st4" d="M38.2,177.4c11,12,26.4,18.8,42.6,18.8"/>
	</g>
	<g id="LINE_317_">
		<line class="st4" x1="80.8" y1="196.4" x2="137" y2="196.4"/>
	</g>
	<g id="ARC_131_">
		<path class="st4" d="M137,196.4c31.8,0,57.6-25.8,57.6-57.6"/>
	</g>
	<g id="LINE_318_">
		<line class="st4" x1="194.6" y1="138.8" x2="194.6" y2="82.4"/>
	</g>
	<g id="ARC_132_">
		<path class="st4" d="M194.6,82.4c0-31.8-25.8-57.6-57.6-57.6"/>
	</g>
	<g id="LINE_319_">
		<line class="st4" x1="137" y1="25" x2="80.8" y2="25"/>
	</g>
	<g id="ARC_133_">
		<path class="st4" d="M80.8,25c-14.2,0-28,5.2-38.6,14.8"/>
	</g>
	<g id="ARC_134_">
		<path class="st4" d="M36.2,46c-8.4,10.4-13,23.2-13,36.4"/>
	</g>
	<g id="LINE_320_">
		<line class="st4" x1="23.2" y1="82.4" x2="23.2" y2="138.8"/>
	</g>
	<g id="ARC_135_">
		<path class="st4" d="M23.2,138.8c0,10.2,2.8,20.2,7.8,29"/>
	</g>
	<g id="ARC_136_">
		<path class="st4" d="M41.2,172.2c9.8,11.6,24.4,18.4,39.6,18.4"/>
	</g>
	<g id="LINE_321_">
		<line class="st4" x1="80.8" y1="190.6" x2="137" y2="190.6"/>
	</g>
	<g id="ARC_137_">
		<path class="st4" d="M137,190.6c28.6,0,51.8-23.2,51.8-51.8"/>
	</g>
	<g id="LINE_322_">
		<line class="st4" x1="189" y1="138.8" x2="189" y2="82.4"/>
	</g>
	<g id="ARC_138_">
		<path class="st4" d="M189,82.4c0-28.6-23.2-51.8-51.8-51.8"/>
	</g>
	<g id="LINE_323_">
		<line class="st4" x1="137" y1="30.6" x2="80.8" y2="30.6"/>
	</g>
	<g id="ARC_139_">
		<path class="st4" d="M80.8,30.6c-12.2,0-24.2,4.4-33.4,12.2"/>
	</g>
	<g id="ARC_140_">
		<path class="st4" d="M41,49.2c-7.8,9.2-12.2,21-12.2,33.2"/>
	</g>
	<g id="LINE_324_">
		<line class="st4" x1="28.8" y1="82.4" x2="28.8" y2="138.8"/>
	</g>
	<g id="ARC_141_">
		<path class="st4" d="M28.8,138.8c0,9.6,2.6,18.8,7.6,27"/>
	</g>
</g>
<g id="PLAN_x24_VITRAGE">
	<g id="POLYLINE_1579_">
		<line class="st3" x1="152.6" y1="50" x2="146.2" y2="50"/>
	</g>
	<g id="POLYLINE_1578_">
		<line class="st3" x1="141.2" y1="50" x2="133.4" y2="50"/>
	</g>
	<g id="POLYLINE_1577_">
		<line class="st3" x1="127" y1="50" x2="121.2" y2="50"/>
	</g>
	<g id="POLYLINE_1576_">
		<line class="st3" x1="97.4" y1="51.6" x2="91.6" y2="51.6"/>
	</g>
	<g id="POLYLINE_1575_">
		<line class="st3" x1="70.8" y1="171.2" x2="65.6" y2="171.2"/>
	</g>
	<g id="POLYLINE_1574_">
		<line class="st3" x1="85" y1="171.2" x2="76.8" y2="171.2"/>
	</g>
	<g id="POLYLINE_1573_">
		<line class="st3" x1="97.4" y1="171.2" x2="90.4" y2="171.2"/>
	</g>
	<g id="POLYLINE_1572_">
		<line class="st3" x1="128.6" y1="171.2" x2="121" y2="171.2"/>
	</g>
	<g id="POLYLINE_1571_">
		<line class="st3" x1="156.2" y1="171.2" x2="149.4" y2="171.2"/>
	</g>
	<g id="POLYLINE_1570_">
		<line class="st3" x1="169.6" y1="148.1" x2="169.6" y2="156.6"/>
	</g>
	<g id="POLYLINE_1569_">
		<line class="st3" x1="169.6" y1="122.1" x2="169.6" y2="128.1"/>
	</g>
	<g id="POLYLINE_1568_">
		<line class="st3" x1="169.6" y1="90.6" x2="169.6" y2="94.2"/>
	</g>
	<g id="POLYLINE_1567_">
		<line class="st3" x1="169.6" y1="78.4" x2="169.6" y2="85.8"/>
	</g>
	<g id="POLYLINE_1566_">
		<line class="st3" x1="169.6" y1="73.2" x2="169.6" y2="64.8"/>
	</g>
	<g id="POLYLINE_1565_">
		<line class="st3" x1="49.8" y1="65.8" x2="49.8" y2="71.6"/>
	</g>
	<g id="POLYLINE_1564_">
		<line class="st3" x1="49.8" y1="79" x2="49.8" y2="85"/>
	</g>
	<g id="POLYLINE_1563_">
		<line class="st3" x1="49.8" y1="91.6" x2="49.8" y2="97.4"/>
	</g>
	<g id="POLYLINE_1562_">
		<line class="st3" x1="49.8" y1="129.8" x2="49.8" y2="124.1"/>
	</g>
	<g id="POLYLINE_1561_">
		<line class="st3" x1="49.8" y1="142.2" x2="49.8" y2="136.4"/>
	</g>
	<g id="POLYLINE_1560_">
		<line class="st3" x1="49.8" y1="155.6" x2="49.8" y2="149.6"/>
	</g>
	<g id="LINE_124_">
		<line class="st3" x1="84.2" y1="51.6" x2="77.8" y2="51.6"/>
	</g>
	<g id="LINE_123_">
		<line class="st3" x1="70.4" y1="51.6" x2="65.6" y2="51.6"/>
	</g>
</g>
<g id="PLAN_x24_MOBILIER">
	<g id="POLYLINE_2107_">
		
			<rect x="154.6" y="93.1" transform="matrix(0.9578 -0.2875 0.2875 0.9578 -20.6865 49.4457)" class="st5" width="6.8" height="4.2"/>
	</g>
	<g id="POLYLINE_2124_">
		<line class="st5" x1="74.4" y1="101.6" x2="74.4" y2="109.8"/>
	</g>
	<g id="ARC_129_">
		<path class="st5" d="M72.6,110.4c0-1.8-1.4-3.2-3.2-3.2s-3.2,1.4-3.2,3.2"/>
	</g>
	<g id="CIRCLE_52_">
		<path class="st5" d="M68.4,112.4c0-0.6,0.4-1,1-1s1,0.4,1,1s-0.4,1-1,1S68.4,112.8,68.4,112.4L68.4,112.4z"/>
	</g>
	<g id="POLYLINE_2125_">
		<line class="st5" x1="66.2" y1="111.2" x2="68.2" y2="116.2"/>
	</g>
	<g id="POLYLINE_2127_">
		<line class="st5" x1="63" y1="147.8" x2="58.2" y2="142.8"/>
	</g>
	<g id="SPLINE_201_">
		<path class="st5" d="M58.2,142.8c-2.2-2.2-2.2-5,0-8"/>
	</g>
	<g id="POLYLINE_2128_">
		
			<rect x="106.6" y="91.4" transform="matrix(0.7071 -0.7071 0.7071 0.7071 -31.532 109.1481)" class="st5" width="18.8" height="2.4"/>
	</g>
	<g id="POLYLINE_2129_">
		
			<rect x="101.5" y="83.9" transform="matrix(0.7071 -0.7071 0.7071 0.7071 -30.3059 105.9899)" class="st5" width="22.6" height="11.4"/>
	</g>
	<g id="POLYLINE_2130_">
		
			<rect x="119.2" y="76.4" transform="matrix(0.7071 -0.7071 0.7071 0.7071 -22.8357 109.021)" class="st5" width="2" height="11.4"/>
	</g>
	<g id="POLYLINE_2131_">
		
			<rect x="104.4" y="91.1" transform="matrix(0.7071 -0.7071 0.7071 0.7071 -37.5762 102.8749)" class="st5" width="2" height="11.4"/>
	</g>
	<g id="POLYLINE_2132_">
		
			<rect x="149.2" y="81.7" transform="matrix(0.7212 -0.6927 0.6927 0.7212 -15.9736 128.5637)" class="st5" width="5" height="4.8"/>
	</g>
	<g id="POLYLINE_2133_">
		<rect x="115.2" y="161.6" class="st5" width="9.4" height="6.2"/>
	</g>
	<g id="POLYLINE_2134_">
		
			<rect x="93" y="93.3" transform="matrix(0.7071 -0.7071 0.7071 0.7071 -43.0871 97.4374)" class="st5" width="6.2" height="14.8"/>
	</g>
	<g id="POLYLINE_2135_">
		
			<rect x="74.9" y="96.9" transform="matrix(0.7071 -0.7071 0.7071 0.7071 -46.9673 86.2065)" class="st5" width="11.4" height="5.8"/>
	</g>
	<g id="POLYLINE_2136_">
		
			<rect x="52.2" y="103.1" transform="matrix(0.5949 -0.8038 0.8038 0.5949 -62.456 86.0088)" class="st5" width="3.8" height="3.8"/>
	</g>
	<g id="POLYLINE_2137_">
		<rect x="52.2" y="96.2" class="st5" width="3.2" height="3.4"/>
	</g>
	<g id="POLYLINE_2138_">
		<rect x="52.2" y="90.2" class="st5" width="3" height="3.2"/>
	</g>
	<g id="POLYLINE_2139_">
		<rect x="52.2" y="83.2" class="st5" width="3.8" height="3.6"/>
	</g>
	<g id="POLYLINE_2140_">
		<rect x="52.4" y="55" transform="matrix(0.7071 -0.7071 0.7071 0.7071 -24.0963 54.9104)" class="st5" width="3.6" height="3"/>
	</g>
	<g id="POLYLINE_2141_">
		
			<rect x="70.6" y="73.2" transform="matrix(0.7071 -0.7071 0.7071 0.7071 -31.2705 74.1208)" class="st5" width="6.4" height="3.2"/>
	</g>
	<g id="POLYLINE_2142_">
		
			<rect x="58.2" y="72.2" transform="matrix(0.7071 -0.7071 0.7071 0.7071 -36.1455 65.9225)" class="st5" width="6.6" height="8.8"/>
	</g>
	<g id="POLYLINE_2143_">
		
			<rect x="114.8" y="67.1" transform="matrix(0.7071 -0.7071 0.7071 0.7071 -14.5471 102.5753)" class="st5" width="3.4" height="3.4"/>
	</g>
	<g id="POLYLINE_2144_">
		<rect x="99.6" y="54.2" class="st5" width="4.6" height="4.6"/>
	</g>
	<g id="POLYLINE_2145_">
		<rect x="63.2" y="53.6" class="st5" width="3.2" height="3.6"/>
	</g>
	<g id="POLYLINE_2146_">
		<rect x="84.4" y="54.6" class="st5" width="4" height="3.2"/>
	</g>
	<g id="POLYLINE_2147_">
		<rect x="98.4" y="83.2" transform="matrix(0.7267 -0.687 0.687 0.7267 -30.7559 92.1743)" class="st5" width="4.2" height="3"/>
	</g>
	<g id="POLYLINE_2148_">
		<rect x="82.4" y="66.5" transform="matrix(0.7267 -0.687 0.687 0.7267 -23.6247 76.6351)" class="st5" width="4.2" height="3"/>
	</g>
	<g id="POLYLINE_2149_">
		<rect x="93.9" y="65.8" transform="matrix(0.7267 -0.687 0.687 0.7267 -20.553 84.1252)" class="st5" width="3" height="4.2"/>
	</g>
	<g id="POLYLINE_2150_">
		<rect x="99.7" y="72" transform="matrix(0.7267 -0.687 0.687 0.7267 -23.2589 89.742)" class="st5" width="3" height="4.2"/>
	</g>
	<g id="POLYLINE_2151_">
		<rect x="88.2" y="82.7" transform="matrix(0.7267 -0.687 0.687 0.7267 -33.7253 84.7589)" class="st5" width="3" height="4.2"/>
	</g>
	<g id="POLYLINE_2152_">
		<rect x="82.6" y="76.6" transform="matrix(0.7267 -0.687 0.687 0.7267 -31.0821 79.2765)" class="st5" width="3" height="4.2"/>
	</g>
	<g id="POLYLINE_2153_">
		
			<rect x="86.2" y="66.3" transform="matrix(0.7267 -0.687 0.687 0.7267 -27.2218 84.4182)" class="st5" width="12.6" height="20.2"/>
	</g>
	<g id="CIRCLE_53_">
		<path class="st5" d="M150,84c0-1,0.8-1.8,1.8-1.8s1.8,0.8,1.8,1.8s-0.8,1.8-1.8,1.8S150,85,150,84L150,84z"/>
	</g>
	<g id="POLYLINE_2154_">
		
			<rect x="130.3" y="56.5" transform="matrix(0.7071 -0.7071 0.7071 0.7071 -0.697 114.7157)" class="st5" width="15.6" height="3.4"/>
	</g>
	<g id="POLYLINE_2155_">
		
			<rect x="133.7" y="61.9" transform="matrix(0.7071 -0.7071 0.7071 0.7071 -3.7665 116.8599)" class="st5" width="11" height="2.2"/>
	</g>
	<g id="POLYLINE_2156_">
		<rect x="150" y="134.6" class="st5" width="6.6" height="8.2"/>
	</g>
</g>
<g id="PLAN_x24_DETAIL">
	<g id="POLYLINE_1122_">
		<line class="st5" x1="114.2" y1="141.1" x2="119" y2="145.8"/>
	</g>
	<g id="ARC_167_">
		<path class="st5" d="M109.4,145.8c2.6,2.6,7,2.6,9.6,0"/>
	</g>
	<g id="ARC_166_">
		<path class="st5" d="M109.4,155.4c2.6-2.6,2.6-7,0-9.6"/>
	</g>
	<g id="POLYLINE_1121_">
		<line class="st5" x1="109.4" y1="155.4" x2="104.6" y2="150.6"/>
	</g>
	<g id="POLYLINE_1120_">
		<line class="st5" x1="131.8" y1="171.2" x2="131.8" y2="178.1"/>
	</g>
	<g id="ARC_165_">
		<path class="st5" d="M131.8,178.1c3.6,0,6.6-3,6.6-6.6"/>
	</g>
	<g id="ARC_164_">
		<path class="st5" d="M138.4,171.2c0,3.6,3,6.6,6.6,6.6"/>
	</g>
	<g id="POLYLINE_1117_">
		<line class="st5" x1="145" y1="178.1" x2="145" y2="171.2"/>
	</g>
	<g id="POLYLINE_1115_">
		<line class="st5" x1="130.2" y1="162.6" x2="137" y2="162.6"/>
	</g>
	<g id="ARC_163_">
		<path class="st5" d="M137,162.6c0-3.8-3-6.8-6.8-6.8"/>
	</g>
	<g id="ARC_162_">
		<path class="st5" d="M130.2,155.8c3.8,0,6.8-3,6.8-6.8"/>
	</g>
	<g id="POLYLINE_1113_">
		<line class="st5" x1="137" y1="149.1" x2="130.2" y2="149.1"/>
	</g>
	<g id="POLYLINE_1111_">
		<line class="st5" x1="129.2" y1="112.6" x2="125.6" y2="119.2"/>
	</g>
	<g id="ARC_161_">
		<path class="st5" d="M125.6,119.2c4.8,2.6,11,1,13.6-3.8s1-11-3.8-13.6c-4-2.2-9-1.4-12.2,2"/>
	</g>
	<g id="POLYLINE_1110_">
		<line class="st5" x1="123" y1="103.6" x2="128.6" y2="108.6"/>
	</g>
	<g id="POLYLINE_1108_">
		<line class="st5" x1="91.6" y1="106.1" x2="89.4" y2="161.8"/>
	</g>
	<g id="POLYLINE_1106_">
		<line class="st5" x1="118.4" y1="132.6" x2="62.6" y2="135.1"/>
	</g>
	<g id="POLYLINE_1104_">
		<rect x="70" y="115" transform="matrix(0.7071 -0.7071 0.7071 0.7071 -68.1832 103.2409)" class="st5" width="41" height="37.8"/>
	</g>
	<g id="ARC_160_">
		<path class="st5" d="M127.8,117.6c-2.8,2.6-2.8,7-0.2,9.6"/>
	</g>
	<g id="POLYLINE_1101_">
		<line class="st5" x1="127.8" y1="117.6" x2="132.6" y2="122.4"/>
	</g>
	<g id="ARC_159_">
		<path class="st5" d="M123,133.6c2.6,2.8,7,2.8,9.6,0.2"/>
	</g>
	<g id="POLYLINE_1099_">
		<line class="st5" x1="123" y1="133.6" x2="127.8" y2="128.8"/>
	</g>
	<g id="POLYLINE_1098_">
		<line class="st5" x1="129.4" y1="108.1" x2="126.8" y2="101.2"/>
	</g>
	<g id="POLYLINE_1096_">
		<line class="st5" x1="130.6" y1="107.8" x2="131.2" y2="100.4"/>
	</g>
	<g id="POLYLINE_1094_">
		<line class="st5" x1="131.6" y1="108.2" x2="135.2" y2="101.6"/>
	</g>
	<g id="POLYLINE_1093_">
		<line class="st5" x1="132.8" y1="111.2" x2="140" y2="113.2"/>
	</g>
	<g id="POLYLINE_1092_">
		<line class="st5" x1="133" y1="110.1" x2="140.2" y2="108.8"/>
	</g>
	<g id="POLYLINE_1091_">
		<line class="st5" x1="132.6" y1="109.1" x2="138.6" y2="104.8"/>
	</g>
	<g id="POLYLINE_1090_">
		<line class="st5" x1="130.2" y1="113.1" x2="129.8" y2="120.4"/>
	</g>
	<g id="POLYLINE_1089_">
		<line class="st5" x1="131.4" y1="112.8" x2="134.2" y2="119.6"/>
	</g>
	<g id="POLYLINE_1088_">
		<line class="st5" x1="132.2" y1="112.2" x2="137.8" y2="117.2"/>
	</g>
	<g id="CIRCLE_24_">
		<path class="st5" d="M127.8,110.4c0-1.4,1.2-2.6,2.6-2.6s2.6,1.2,2.6,2.6s-1.2,2.6-2.6,2.6S127.8,111.8,127.8,110.4L127.8,110.4z"
			/>
	</g>
	<g id="ARC_158_">
		<path class="st5" d="M142.4,94.8c2.8-2.6,3-6.8,0.4-9.6"/>
	</g>
	<g id="POLYLINE_1087_">
		<line class="st5" x1="142.4" y1="94.8" x2="137.8" y2="89.8"/>
	</g>
	<g id="ARC_157_">
		<path class="st5" d="M177,143.1c0-4.2-3.4-7.6-7.6-7.6"/>
	</g>
	<g id="POLYLINE_1086_">
		<line class="st5" x1="177" y1="143.1" x2="169.6" y2="143.1"/>
	</g>
	<g id="ARC_156_">
		<path class="st5" d="M159.2,139.4c3.8,0,6.8-3,6.8-6.8"/>
	</g>
	<g id="POLYLINE_1085_">
		<line class="st5" x1="159.2" y1="139.4" x2="159.2" y2="132.6"/>
	</g>
	<g id="ARC_155_">
		<path class="st5" d="M137.4,134.2c0.2,3.8,3.6,6.6,7.4,6.2"/>
	</g>
	<g id="POLYLINE_1084_">
		<line class="st5" x1="144.6" y1="140.4" x2="144.2" y2="133.6"/>
	</g>
	<g id="ARC_154_">
		<path class="st5" d="M141.8,126.2c2.8-2.6,2.8-7,0.2-9.6"/>
	</g>
	<g id="POLYLINE_1083_">
		<line class="st5" x1="142" y1="116.6" x2="137" y2="121.4"/>
	</g>
	<g id="ARC_153_">
		<path class="st5" d="M151,60.2c2.6-2.6,2.6-7,0-9.6"/>
	</g>
	<g id="POLYLINE_1082_">
		<line class="st5" x1="151" y1="50.6" x2="146.2" y2="55.4"/>
	</g>
	<g id="ARC_152_">
		<path class="st5" d="M160.2,86.4c0,3.8,3,6.8,6.8,6.8"/>
	</g>
	<g id="POLYLINE_1081_">
		<line class="st5" x1="167" y1="93.2" x2="167" y2="86.4"/>
	</g>
	<g id="ARC_151_">
		<path class="st5" d="M158.8,75.4c0,3.8,3,6.8,6.8,6.8"/>
	</g>
	<g id="POLYLINE_1080_">
		<line class="st5" x1="165.6" y1="82.2" x2="165.6" y2="75.4"/>
	</g>
	<g id="ARC_150_">
		<path class="st5" d="M169.6,107.1c3.8,0,6.8-3,6.8-6.8"/>
	</g>
	<g id="POLYLINE_1079_">
		<line class="st5" x1="176.4" y1="100.2" x2="169.6" y2="100.2"/>
	</g>
	<g id="ARC_149_">
		<path class="st5" d="M117.4,64c2.6-2.6,2.6-7,0-9.6"/>
	</g>
	<g id="POLYLINE_1078_">
		<line class="st5" x1="117.4" y1="54.4" x2="112.6" y2="59.2"/>
	</g>
	<g id="ARC_148_">
		<path class="st5" d="M133,66.6c-2.6-2.6-7-2.6-9.6,0"/>
	</g>
	<g id="POLYLINE_1077_">
		<line class="st5" x1="123.4" y1="66.6" x2="128.2" y2="71.4"/>
	</g>
	<g id="ARC_147_">
		<path class="st5" d="M126.4,75c-2.6,2.6-2.6,7,0,9.6"/>
	</g>
	<g id="POLYLINE_1076_">
		<line class="st5" x1="126.4" y1="75" x2="131.2" y2="80"/>
	</g>
	<g id="ARC_146_">
		<path class="st5" d="M130,97.4c2.6,2.6,7,2.6,9.6,0"/>
	</g>
	<g id="POLYLINE_1075_">
		<line class="st5" x1="139.6" y1="97.4" x2="134.8" y2="92.6"/>
	</g>
	<g id="POLYLINE_1074_">
		<line class="st5" x1="170.6" y1="64.8" x2="170.6" y2="73.2"/>
	</g>
	<g id="POLYLINE_1073_">
		<line class="st5" x1="168.4" y1="64.8" x2="168.4" y2="73.2"/>
	</g>
	<g id="POLYLINE_1039_">
		<line class="st5" x1="168.4" y1="78.4" x2="168.4" y2="85.8"/>
	</g>
	<g id="POLYLINE_1038_">
		<line class="st5" x1="170.6" y1="85.8" x2="170.6" y2="78.4"/>
	</g>
	<g id="POLYLINE_1037_">
		<line class="st5" x1="168.4" y1="90.6" x2="168.4" y2="94.2"/>
	</g>
	<g id="POLYLINE_1036_">
		<line class="st5" x1="170.6" y1="94.2" x2="170.6" y2="90.6"/>
	</g>
	<g id="POLYLINE_1035_">
		<line class="st5" x1="168.4" y1="122.1" x2="168.4" y2="128.1"/>
	</g>
	<g id="POLYLINE_1034_">
		<line class="st5" x1="170.6" y1="128.1" x2="170.6" y2="122.1"/>
	</g>
	<g id="POLYLINE_1033_">
		<line class="st5" x1="168.4" y1="156.6" x2="168.4" y2="148.1"/>
	</g>
	<g id="POLYLINE_1032_">
		<line class="st5" x1="170.6" y1="148.1" x2="170.6" y2="156.6"/>
	</g>
	<g id="POLYLINE_1031_">
		<line class="st5" x1="156.2" y1="170.2" x2="149.4" y2="170.2"/>
	</g>
	<g id="POLYLINE_1027_">
		<line class="st5" x1="149.4" y1="172.4" x2="156.2" y2="172.4"/>
	</g>
	<g id="POLYLINE_1026_">
		<line class="st5" x1="128.6" y1="172.4" x2="121.2" y2="172.4"/>
	</g>
	<g id="POLYLINE_1025_">
		<line class="st5" x1="128.6" y1="170.2" x2="121.2" y2="170.2"/>
	</g>
	<g id="POLYLINE_1024_">
		<line class="st5" x1="97.4" y1="172.4" x2="90.4" y2="172.4"/>
	</g>
	<g id="POLYLINE_1023_">
		<line class="st5" x1="97.4" y1="170.2" x2="90.4" y2="170.2"/>
	</g>
	<g id="POLYLINE_1022_">
		<line class="st5" x1="85" y1="172.4" x2="76.8" y2="172.4"/>
	</g>
	<g id="POLYLINE_1021_">
		<line class="st5" x1="85" y1="170.2" x2="76.8" y2="170.2"/>
	</g>
	<g id="POLYLINE_1020_">
		<line class="st5" x1="70.8" y1="172.4" x2="65.6" y2="172.4"/>
	</g>
	<g id="POLYLINE_1019_">
		<line class="st5" x1="70.8" y1="170.2" x2="65.6" y2="170.2"/>
	</g>
	<g id="POLYLINE_1018_">
		<line class="st5" x1="70.8" y1="48.8" x2="65" y2="48.8"/>
	</g>
	<g id="POLYLINE_1017_">
		<line class="st5" x1="97.4" y1="52.4" x2="91.6" y2="52.4"/>
	</g>
	<g id="POLYLINE_1016_">
		<line class="st5" x1="97.4" y1="48.8" x2="91.6" y2="48.8"/>
	</g>
	<g id="POLYLINE_1011_">
		<line class="st5" x1="141.2" y1="51" x2="133.4" y2="51"/>
	</g>
	<g id="POLYLINE_1010_">
		<line class="st5" x1="127" y1="51" x2="121.2" y2="51"/>
	</g>
	<g id="POLYLINE_1009_">
		<line class="st5" x1="127" y1="48.8" x2="121.2" y2="48.8"/>
	</g>
	<g id="POLYLINE_1008_">
		<line class="st5" x1="141.2" y1="48.8" x2="133.4" y2="48.8"/>
	</g>
	<g id="POLYLINE_1007_">
		<line class="st5" x1="152.6" y1="48.8" x2="146.2" y2="48.8"/>
	</g>
	<g id="POLYLINE_1006_">
		<polyline class="st5" points="61.6,149.2 54.8,156.1 63,164.2 69.8,157.4 		"/>
	</g>
	<g id="POLYLINE_1005_">
		<polyline class="st5" points="61.6,72.2 54.8,65.2 63,57 69.8,63.8 		"/>
	</g>
	<g id="POLYLINE_1004_">
		<polyline class="st5" points="156.2,72.2 163,65.2 154.8,57 148,63.8 		"/>
	</g>
	<g id="POLYLINE_1003_">
		<polyline class="st5" points="156.2,149.2 163,156.1 154.8,164.2 148,157.4 		"/>
	</g>
	<g id="ARC_112_">
		<path class="st5" d="M44.2,40.4c-2-1.2-4.6-0.8-6.2,1"/>
	</g>
	<g id="ARC_111_">
		<path class="st5" d="M39.2,48.4c2,1.2,4.6,0.8,6.2-1"/>
	</g>
	<g id="POLYLINE_1002_">
		<line class="st5" x1="46.6" y1="38.8" x2="48.2" y2="48.2"/>
	</g>
	<g id="POLYLINE_1001_">
		<line class="st5" x1="35.2" y1="40.8" x2="36.8" y2="50.2"/>
	</g>
	<g id="POLYLINE_1000_">
		<rect x="36" y="41" transform="matrix(0.9852 -0.1716 0.1716 0.9852 -7.0254 7.8176)" class="st5" width="11.4" height="7"/>
	</g>
	<g id="POLYLINE_999_">
		<rect x="32.8" y="166.3" transform="matrix(0.932 -0.3625 0.3625 0.932 -59.8779 24.8598)" class="st5" width="7" height="11.4"/>
	</g>
	<g id="POLYLINE_998_">
		<line class="st5" x1="38.8" y1="164.8" x2="29.8" y2="168.4"/>
	</g>
	<g id="POLYLINE_997_">
		<line class="st5" x1="43" y1="175.6" x2="34" y2="179.1"/>
	</g>
	<g id="ARC_110_">
		<path class="st5" d="M32,170.4c-0.8,2.2,0.2,4.6,2.2,5.8"/>
	</g>
	<g id="ARC_109_">
		<path class="st5" d="M40.8,173.6c0.8-2.2-0.2-4.6-2.2-5.8"/>
	</g>
	<g id="POLYLINE_996_">
		<line class="st5" x1="60.4" y1="207.1" x2="60.4" y2="216.6"/>
	</g>
	<g id="POLYLINE_995_">
		<line class="st5" x1="56.6" y1="207.1" x2="60.4" y2="210.8"/>
	</g>
	<g id="POLYLINE_994_">
		<line class="st5" x1="157.8" y1="207.1" x2="154" y2="210.8"/>
	</g>
	<g id="POLYLINE_993_">
		<line class="st5" x1="154" y1="207.1" x2="154" y2="216.6"/>
	</g>
	<g id="POLYLINE_992_">
		<line class="st5" x1="12.6" y1="65.6" x2="3" y2="65.6"/>
	</g>
	<g id="POLYLINE_991_">
		<line class="st5" x1="12.6" y1="61.8" x2="8.8" y2="65.6"/>
	</g>
	<g id="POLYLINE_990_">
		<line class="st5" x1="12.6" y1="162.8" x2="8.8" y2="159.1"/>
	</g>
	<g id="POLYLINE_989_">
		<line class="st5" x1="12.6" y1="159.1" x2="3" y2="159.1"/>
	</g>
	<g id="POLYLINE_988_">
		<line class="st5" x1="203.6" y1="63.8" x2="213.2" y2="63.8"/>
	</g>
	<g id="POLYLINE_987_">
		<line class="st5" x1="203.6" y1="60" x2="207.4" y2="63.8"/>
	</g>
	<g id="POLYLINE_986_">
		<line class="st5" x1="203.6" y1="161.2" x2="207.4" y2="157.4"/>
	</g>
	<g id="POLYLINE_985_">
		<line class="st5" x1="203.6" y1="157.4" x2="213.2" y2="157.4"/>
	</g>
	<g id="POLYLINE_984_">
		<line class="st5" x1="62.2" y1="16" x2="62.2" y2="6.4"/>
	</g>
	<g id="POLYLINE_983_">
		<line class="st5" x1="58.4" y1="16" x2="62.2" y2="12.2"/>
	</g>
	<g id="POLYLINE_982_">
		<line class="st5" x1="159.4" y1="16" x2="155.6" y2="12.2"/>
	</g>
	<g id="POLYLINE_981_">
		<line class="st5" x1="155.6" y1="16" x2="155.6" y2="6.4"/>
	</g>
	<g id="POLYLINE_980_">
		<line class="st5" x1="50.6" y1="155.8" x2="50.6" y2="149.4"/>
	</g>
	<g id="POLYLINE_979_">
		<line class="st5" x1="47.2" y1="149.6" x2="47.2" y2="155.6"/>
	</g>
	<g id="POLYLINE_978_">
		<line class="st5" x1="50.6" y1="142.4" x2="50.6" y2="136.1"/>
	</g>
	<g id="POLYLINE_975_">
		<line class="st5" x1="47.2" y1="136.4" x2="47.2" y2="142.2"/>
	</g>
	<g id="POLYLINE_974_">
		<line class="st5" x1="47.2" y1="129.8" x2="47.2" y2="124.1"/>
	</g>
	<g id="POLYLINE_973_">
		<line class="st5" x1="50.6" y1="123.6" x2="50.6" y2="130.1"/>
	</g>
	<g id="POLYLINE_972_">
		<line class="st5" x1="47.2" y1="97.4" x2="47.2" y2="91.6"/>
	</g>
	<g id="POLYLINE_939_">
		<line class="st5" x1="50.6" y1="91.2" x2="50.6" y2="97.6"/>
	</g>
	<g id="POLYLINE_926_">
		<line class="st5" x1="50.6" y1="85.2" x2="50.6" y2="78.8"/>
	</g>
	<g id="POLYLINE_925_">
		<line class="st5" x1="47.2" y1="79" x2="47.2" y2="85"/>
	</g>
	<g id="POLYLINE_924_">
		<line class="st5" x1="47.2" y1="65.8" x2="47.2" y2="71.6"/>
	</g>
	<g id="POLYLINE_923_">
		<line class="st5" x1="50.6" y1="65.4" x2="50.6" y2="71.8"/>
	</g>
	<g id="LINE_91_">
		<line class="st5" x1="84.2" y1="52.4" x2="77.8" y2="52.4"/>
	</g>
	<g id="LINE_40_">
		<line class="st5" x1="84.2" y1="48.8" x2="77.8" y2="48.8"/>
	</g>
	<g id="LINE_39_">
		<line class="st5" x1="70.4" y1="52.4" x2="65.6" y2="52.4"/>
	</g>
</g>
<g id="PLAN_x24_CLOISON_TRANSLUCIDE">
</g>
<g id="PLAN_x24_CLOISON_1.3">
	<g id="POLYLINE_902_">
		<polyline class="st6" points="135.6,119.1 137.4,121.1 136.6,121.8 135.4,120.4 133,122.8 		"/>
	</g>
	<g id="POLYLINE_901_">
		<line class="st6" x1="133" y1="122.8" x2="132.2" y2="122.1"/>
	</g>
	<g id="POLYLINE_900_">
		<line class="st6" x1="132.2" y1="122.1" x2="135" y2="119.2"/>
	</g>
	<g id="POLYLINE_899_">
		<polyline class="st6" points="168.4,144.1 156.6,144.1 156.6,133.2 144.2,134.2 144.2,133.1 147.6,132.8 141.4,126.6 		"/>
	</g>
	<g id="POLYLINE_898_">
		<line class="st6" x1="141.4" y1="126.6" x2="142.2" y2="125.8"/>
	</g>
	<g id="POLYLINE_897_">
		<polyline class="st6" points="142.2,125.8 149.2,132.6 157.4,132.1 157.4,132.1 159.2,132.1 159.2,133.2 157.8,133.2 157.8,143.1 
			168.4,143.1 		"/>
	</g>
	<g id="POLYLINE_896_">
		<polyline class="st6" points="101.4,110.4 122.6,131.6 127.4,127.1 		"/>
	</g>
	<g id="POLYLINE_865_">
		<line class="st6" x1="127.4" y1="127.1" x2="128.2" y2="127.8"/>
	</g>
	<g id="POLYLINE_864_">
		<polyline class="st6" points="128.2,127.8 127.8,128.1 128.2,128.4 127.4,129.2 127,128.8 114.6,141.4 113.8,140.6 121.8,132.4 
			87.8,98.2 58.4,127.6 58.4,133.4 89.6,164.6 104.2,150.2 105,151.1 89.6,166.2 75.2,152.1 		"/>
	</g>
	<g id="POLYLINE_2103_">
		<polyline class="st6" points="151,61 150.6,60.6 151.4,59.8 151.8,60.2 		"/>
	</g>
	<g id="POLYLINE_2104_">
		<polyline class="st6" points="146,51 146,54.4 146.6,55 145.8,55.8 145.2,55.2 133.4,67 132.6,66.2 145.2,53.6 145.2,51 		"/>
	</g>
	<g id="POLYLINE_2113_">
		<polygon class="st6" points="131.4,79 130.8,79.6 131.6,80.4 133,79 127.2,73.2 128.6,71.8 127.8,71 126.4,72.4 117.8,63.6 
			117,64.4 		"/>
	</g>
	<g id="POLYLINE_2114_">
		<polyline class="st6" points="153.4,75 158.8,75 158.8,76 152.2,76 		"/>
	</g>
	<g id="POLYLINE_2115_">
		<polyline class="st6" points="101.4,110.4 126.8,85.2 126,84.4 100.6,109.6 87.8,96.6 57.2,127.1 57.2,133.8 67,143.6 		"/>
	</g>
	<g id="POLYLINE_2116_">
		<polyline class="st6" points="168.4,133.2 166,133.2 166,132.1 168.4,132.1 		"/>
	</g>
	<g id="POLYLINE_2117_">
		<polygon class="st6" points="137.4,134.6 134.6,134.8 130.8,138.8 130.8,149.1 129.6,149.1 129.6,138.2 133,134.8 132.2,134.1 
			133,133.2 133.6,133.8 137.4,133.6 		"/>
	</g>
	<g id="POLYLINE_2118_">
		<polyline class="st6" points="129.6,170.2 129.6,162.6 130.8,162.6 130.8,170.2 		"/>
	</g>
	<g id="POLYLINE_2119_">
		<polyline class="st6" points="134.8,101.4 142,97.2 136.8,91.6 135.2,93 134.4,92.2 137.4,89.4 138.2,90.2 137.6,90.8 143,96.6 
			151.8,91.4 157.4,86 150,78.4 143,85.4 142.2,84.6 149.2,77.6 		"/>
	</g>
	<g id="POLYLINE_2120_">
		<polyline class="st6" points="123.2,103.4 129.6,97 130.4,97.8 127.4,100.8 		"/>
	</g>
	<g id="POLYLINE_2121_">
		<polyline class="st6" points="168.4,76 165.6,76 165.6,75 168.4,75 		"/>
	</g>
	<g id="POLYLINE_2122_">
		<polyline class="st6" points="168.4,86.8 167,86.8 167,85.8 168.4,85.8 		"/>
	</g>
	<g id="POLYLINE_2123_">
		<polyline class="st6" points="150.8,77.6 158.6,85.8 160.2,85.8 160.2,86.8 158.2,86.8 153.4,91.4 155.4,98.2 168.4,94.2 		"/>
	</g>
	<g id="POLYLINE_2126_">
		<polyline class="st6" points="74,110.4 64.6,110.4 64.6,111.2 73.2,111.2 		"/>
	</g>
	<g id="LINE_311_">
		<line class="st6" x1="90.2" y1="165.6" x2="90.2" y2="170.2"/>
	</g>
	<g id="LINE_312_">
		<line class="st6" x1="89" y1="165.6" x2="89" y2="170.2"/>
	</g>
	<g id="LINE_315_">
		<line class="st6" x1="99.8" y1="110.4" x2="99.8" y2="110.4"/>
	</g>
	<g id="POLYLINE_863_">
		<polyline class="st6" points="161.2,110.2 161.2,97.6 154.6,99.6 152.4,92.4 136,102.1 		"/>
	</g>
	<g id="POLYLINE_862_">
		<polyline class="st6" points="168.4,95.4 162.4,97.2 162.4,110.1 		"/>
	</g>
	<g id="POLYLINE_2574_">
		<polyline class="st6" points="110.6,58.2 112,59.6 113,58.8 111.2,57.2 		"/>
	</g>
</g>
<g id="PLAN_x24_CLOISON_1.2">
</g>
<g id="PLAN_x24_CLOISON_1.1">
</g>
<g id="PLAN_x24_STRUCTURE_2.3">
	<g id="POLYLINE_1490_">
		<rect x="168.4" y="107.1" class="st7" width="2.2" height="15"/>
	</g>
	<g id="POLYLINE_1488_">
		<rect x="168.4" y="73.2" class="st7" width="2.2" height="5.2"/>
	</g>
	<g id="POLYLINE_1486_">
		<rect x="168.4" y="143.1" class="st7" width="2.2" height="5.2"/>
	</g>
	<g id="POLYLINE_1483_">
		<rect x="168.4" y="94.2" class="st7" width="2.2" height="6"/>
	</g>
	<g id="POLYLINE_1482_">
		<rect x="168.4" y="85.8" class="st7" width="2.2" height="5"/>
	</g>
	<g id="POLYLINE_1481_">
		<polyline class="st7" points="121.2,170.2 97.4,170.2 97.4,172.4 121.2,172.4 		"/>
	</g>
	<g id="POLYLINE_1480_">
		<polygon class="st7" points="168.4,156.6 168.4,170.2 156.2,170.2 156.2,172.4 170.6,172.4 170.6,156.6 		"/>
	</g>
	<g id="POLYLINE_1479_">
		<rect x="168.4" y="128.1" class="st7" width="2.2" height="7.4"/>
	</g>
	<g id="POLYLINE_1478_">
		<polygon class="st7" points="49.4,65.8 50.6,65.8 50.6,65.4 50.6,64 49.4,64 49.4,51 64.2,51 64.2,52.4 65.6,52.4 65.6,51.6 
			65,51.6 65,51 65,48.8 47.2,48.8 47.2,65.8 		"/>
	</g>
	<g id="POLYLINE_1477_">
		<polygon class="st7" points="50.6,91.2 50.6,91.6 49.4,91.6 47.2,91.6 47.2,85 49.4,85 50.6,85 50.6,85.2 50.6,86.6 49.4,86.6 
			49.4,89.8 50.6,89.8 		"/>
	</g>
	<g id="POLYLINE_1476_">
		<polygon class="st7" points="50.6,123.6 50.6,124.1 49.4,124.1 47.2,124.1 47.2,97.4 49.4,97.4 50.6,97.4 50.6,97.6 50.6,99 
			49.4,99 49.4,122.2 50.6,122.2 		"/>
	</g>
	<g id="POLYLINE_1475_">
		<polygon class="st7" points="50.6,136.1 50.6,136.4 49.4,136.4 47.2,136.4 47.2,129.8 49.4,129.8 50.6,129.8 50.6,130.1 
			50.6,131.4 49.4,131.4 49.4,134.6 50.6,134.6 		"/>
	</g>
	<g id="POLYLINE_1474_">
		<polygon class="st7" points="50.6,149.4 50.6,149.6 49.4,149.6 47.2,149.6 47.2,142.2 49.4,142.2 50.6,142.2 50.6,142.4 
			50.6,143.8 49.4,143.8 49.4,148.1 50.6,148.1 		"/>
	</g>
	<g id="POLYLINE_1473_">
		<rect x="141.2" y="48.8" class="st7" width="5" height="2.2"/>
	</g>
	<g id="POLYLINE_1472_">
		<rect x="127" y="48.8" class="st7" width="6.4" height="2.2"/>
	</g>
	<g id="POLYLINE_1471_">
		<rect x="70.8" y="170.2" class="st7" width="6" height="2.2"/>
	</g>
	<g id="POLYLINE_1470_">
		<rect x="85" y="170.2" class="st7" width="5.4" height="2.2"/>
	</g>
	<g id="POLYLINE_1469_">
		<rect x="128.6" y="170.2" class="st7" width="3" height="2.2"/>
	</g>
	<g id="POLYLINE_1468_">
		<rect x="145" y="170.2" class="st7" width="4.4" height="2.2"/>
	</g>
	<g id="POLYLINE_1467_">
		<polygon class="st7" points="152.6,48.8 170.6,48.8 170.6,64.8 168.4,64.8 168.4,51 152.6,51 		"/>
	</g>
	<g id="POLYLINE_1466_">
		<polygon class="st7" points="65.6,170.2 65.6,172.4 47.2,172.4 47.2,155.6 49.4,155.6 50.6,155.6 50.6,155.8 50.6,157.2 
			49.4,157.2 49.4,170.2 		"/>
	</g>
	<g id="POLYLINE_1465_">
		<line class="st7" x1="168.4" y1="58.2" x2="161.4" y2="51"/>
	</g>
	<g id="POLYLINE_1464_">
		<line class="st7" x1="121" y1="170.2" x2="121" y2="172.4"/>
	</g>
	<g id="POLYLINE_1463_">
		
			<rect x="143.1" y="145.6" transform="matrix(0.7071 -0.7071 0.7071 0.7071 -62.4799 149.2375)" class="st7" width="11.6" height="8.8"/>
	</g>
	<g id="POLYLINE_1462_">
		
			<rect x="64.3" y="144.3" transform="matrix(0.7071 -0.7071 0.7071 0.7071 -86.0195 92.5701)" class="st7" width="8.8" height="11.6"/>
	</g>
	<g id="POLYLINE_1461_">
		
			<rect x="63.1" y="66.9" transform="matrix(0.7071 -0.7071 0.7071 0.7071 -30.2258 69.5737)" class="st7" width="11.6" height="8.8"/>
	</g>
	<g id="POLYLINE_1460_">
		
			<rect x="144.6" y="65.4" transform="matrix(0.7071 -0.7071 0.7071 0.7071 -6.6863 126.2332)" class="st7" width="8.8" height="11.6"/>
	</g>
	<g id="POLYLINE_1459_">
		<line class="st7" x1="56.4" y1="170.2" x2="49.4" y2="163.2"/>
	</g>
	<g id="POLYLINE_1458_">
		<line class="st7" x1="56.4" y1="51" x2="49.4" y2="58.2"/>
	</g>
	<g id="POLYLINE_1457_">
		<line class="st7" x1="168.4" y1="163.2" x2="161.4" y2="170.2"/>
	</g>
	<g id="POLYLINE_1456_">
		<line class="st7" x1="77.8" y1="51" x2="77.8" y2="51.6"/>
	</g>
	<g id="POLYLINE_1455_">
		<polygon class="st7" points="49.4,79 47.2,79 47.2,71.6 49.4,71.6 50.6,71.6 50.6,71.8 50.6,73.2 49.4,73.2 49.4,77.4 50.6,77.4 
			50.6,78.8 50.6,79 		"/>
	</g>
	<g id="POLYLINE_1454_">
		<polygon class="st7" points="70.4,51 70.4,48.8 77.8,48.8 77.8,51 77.8,52.4 77.6,52.4 76.2,52.4 76.2,51 72,51 72,52.4 
			70.6,52.4 70.4,52.4 		"/>
	</g>
	<g id="POLYLINE_1453_">
		<polygon class="st7" points="84.2,51 84.2,48.8 91.6,48.8 91.6,51 91.6,52.4 91.4,52.4 90,52.4 90,51 85.8,51 85.8,52.4 
			84.4,52.4 84.2,52.4 		"/>
	</g>
	<g id="POLYLINE_1452_">
		<path class="st7" d="M121.2,48.8H97.4v2.8v0.8h1.4V51h22.4V48.8L121.2,48.8z"/>
	</g>
</g>
<g id="PLAN_x24_STRUCTURE_2.2">
</g>
<g id="PLAN_x24_STRUCTURE_2.1">
	<g id="POLYLINE_806_">
		<line class="st8" x1="107.6" y1="56.2" x2="108.8" y2="56.2"/>
	</g>
	<g id="POLYLINE_805_">
		<line class="st8" x1="108.8" y1="56.2" x2="110.2" y2="56.2"/>
	</g>
	<g id="POLYLINE_804_">
		<line class="st8" x1="107.6" y1="165.1" x2="108.8" y2="165.1"/>
	</g>
	<g id="POLYLINE_803_">
		<line class="st8" x1="108.8" y1="165.1" x2="110.2" y2="165.1"/>
	</g>
	<g id="LINE_313_">
		<line class="st8" x1="110" y1="106.2" x2="104.2" y2="112.1"/>
	</g>
	<g id="LINE_314_">
		<line class="st8" x1="113.4" y1="109.6" x2="107.6" y2="115.4"/>
	</g>
	<g id="POLYLINE_2200_">
		<line class="st8" x1="110.6" y1="112.4" x2="107.2" y2="109.1"/>
	</g>
	<g id="LINE_316_">
		<line class="st8" x1="57.2" y1="110.6" x2="58.2" y2="110.6"/>
	</g>
	<g id="POLYLINE_2201_">
		<line class="st8" x1="111.4" y1="164.6" x2="112.6" y2="168.8"/>
	</g>
	<g id="POLYLINE_2202_">
		<line class="st8" x1="106.4" y1="164.6" x2="105.2" y2="168.8"/>
	</g>
	<g id="POLYLINE_2203_">
		<line class="st8" x1="108.8" y1="170.2" x2="108.8" y2="165.1"/>
	</g>
	<g id="POLYLINE_802_">
		<line class="st8" x1="55" y1="109.8" x2="50.8" y2="108.6"/>
	</g>
	<g id="POLYLINE_801_">
		<line class="st8" x1="55" y1="111.4" x2="50.8" y2="112.6"/>
	</g>
	<g id="POLYLINE_800_">
		<line class="st8" x1="49.4" y1="110.6" x2="56" y2="110.6"/>
	</g>
	<g id="LINE_364_">
		<line class="st8" x1="160.6" y1="110.6" x2="159.6" y2="110.6"/>
	</g>
	<g id="POLYLINE_799_">
		<line class="st8" x1="162.8" y1="109.8" x2="167" y2="108.6"/>
	</g>
	<g id="POLYLINE_798_">
		<line class="st8" x1="162.8" y1="111.4" x2="167" y2="112.6"/>
	</g>
	<g id="POLYLINE_797_">
		<line class="st8" x1="168.4" y1="110.6" x2="161.8" y2="110.6"/>
	</g>
	<g id="POLYLINE_2569_">
		<line class="st8" x1="111.4" y1="56.8" x2="112.6" y2="52.4"/>
	</g>
	<g id="POLYLINE_2570_">
		<line class="st8" x1="106.4" y1="56.8" x2="105.2" y2="52.4"/>
	</g>
	<g id="POLYLINE_2571_">
		<line class="st8" x1="108.8" y1="51" x2="108.8" y2="56.2"/>
	</g>
</g>
<g id="PLAN_x24_STRUCTURE_1.3">
	<g id="POLYLINE_1434_">
		<polyline class="st9" points="162.8,111.4 160.6,110.8 160.6,110.6 		"/>
	</g>
	<g id="POLYLINE_1433_">
		<polyline class="st9" points="160.6,110.6 160.6,110.4 162.8,109.8 		"/>
	</g>
	<g id="POLYLINE_1432_">
		<polyline class="st9" points="55,111.4 57.2,110.8 57.2,110.6 		"/>
	</g>
	<g id="POLYLINE_1379_">
		<polyline class="st9" points="57.2,110.6 57.2,110.4 55,109.8 		"/>
	</g>
	<g id="POLYLINE_1378_">
		<polyline class="st9" points="106.4,164.6 106.8,163.1 108.8,163.1 		"/>
	</g>
	<g id="POLYLINE_1377_">
		<polyline class="st9" points="108.8,163.1 111,163.1 111.4,164.6 		"/>
	</g>
	<g id="POLYLINE_1376_">
		<polyline class="st9" points="106.4,56.8 106.8,58.2 108.8,58.2 		"/>
	</g>
	<g id="POLYLINE_1375_">
		<polyline class="st9" points="108.8,58.2 111,58.2 111.4,56.8 		"/>
	</g>
	<g id="POLYLINE_1374_">
		<line class="st9" x1="156.2" y1="149.2" x2="141.8" y2="151.2"/>
	</g>
	<g id="POLYLINE_1255_">
		<line class="st9" x1="148" y1="157.4" x2="150" y2="142.8"/>
	</g>
	<g id="POLYLINE_1254_">
		<line class="st9" x1="76" y1="151.2" x2="61.6" y2="149.2"/>
	</g>
	<g id="POLYLINE_1253_">
		<line class="st9" x1="67.8" y1="142.8" x2="69.8" y2="157.4"/>
	</g>
	<g id="POLYLINE_1172_">
		<line class="st9" x1="67.8" y1="78.4" x2="69.8" y2="63.8"/>
	</g>
	<g id="POLYLINE_1171_">
		<line class="st9" x1="76" y1="70.2" x2="61.6" y2="72.2"/>
	</g>
	<g id="POLYLINE_1170_">
		<line class="st9" x1="156.2" y1="72.2" x2="141.8" y2="70.2"/>
	</g>
	<g id="POLYLINE_1169_">
		<line class="st9" x1="148" y1="63.8" x2="150" y2="78.4"/>
	</g>
	<g id="POLYLINE_1168_">
		<line class="st9" x1="113.8" y1="109.8" x2="109.8" y2="105.8"/>
	</g>
	<g id="POLYLINE_1167_">
		<line class="st9" x1="107.8" y1="115.6" x2="103.8" y2="111.8"/>
	</g>
	<g id="POLYLINE_1166_">
		<line class="st9" x1="105.2" y1="168.8" x2="104.8" y2="170.2"/>
	</g>
	<g id="POLYLINE_1165_">
		<line class="st9" x1="112.6" y1="168.8" x2="113" y2="170.2"/>
	</g>
	<g id="POLYLINE_1164_">
		<line class="st9" x1="50.8" y1="112.6" x2="49.4" y2="113.1"/>
	</g>
	<g id="POLYLINE_1163_">
		<line class="st9" x1="50.8" y1="108.6" x2="49.4" y2="108.2"/>
	</g>
	<g id="POLYLINE_1162_">
		<line class="st9" x1="57.2" y1="110.6" x2="56" y2="110.6"/>
	</g>
	<g id="POLYLINE_1161_">
		<line class="st9" x1="167" y1="112.6" x2="168.4" y2="113.1"/>
	</g>
	<g id="POLYLINE_1160_">
		<line class="st9" x1="167" y1="108.6" x2="168.4" y2="108.2"/>
	</g>
	<g id="POLYLINE_1159_">
		<line class="st9" x1="160.6" y1="110.6" x2="161.8" y2="110.6"/>
	</g>
	<g id="POLYLINE_1158_">
		<line class="st9" x1="105.2" y1="52.4" x2="104.8" y2="51"/>
	</g>
	<g id="POLYLINE_1157_">
		<line class="st9" x1="112.6" y1="52.4" x2="113" y2="51"/>
	</g>
</g>
<g id="PLAN_x24_STRUCTURE_1.2">
</g>
<g id="PLAN_x24_STRUCTURE_1.1">
</g>
</svg>
