<?xml version="1.0" encoding="utf-8"?>
<!-- Generator: Adobe Illustrator 22.0.1, SVG Export Plug-In . SVG Version: 6.00 Build 0)  -->
<svg version="1.1" id="Calque_1" xmlns="http://www.w3.org/2000/svg" xmlns:xlink="http://www.w3.org/1999/xlink" x="0px" y="0px"
	 viewBox="0 0 138 138.5" style="enable-background:new 0 0 138 138.5;" xml:space="preserve">
<style type="text/css">
	.st0{display:none;}
	.st1{display:inline;}
	.st2{fill:none;}
	.st3{fill:none;stroke:#000000;stroke-width:5.000000e-02;stroke-linecap:square;stroke-miterlimit:10;}
	.st4{fill:none;stroke:#000000;stroke-width:0.1;stroke-linecap:square;stroke-miterlimit:10;stroke-dasharray:0.5,0.5;}
	.st5{fill:none;stroke:#000000;stroke-width:8.000000e-02;stroke-linecap:square;stroke-miterlimit:10;}
	.st6{fill:none;stroke:#000000;stroke-width:0.14;stroke-linecap:square;stroke-miterlimit:10;}
	.st7{fill:none;stroke:#000000;stroke-width:0.27;stroke-linecap:square;stroke-miterlimit:10;}
	.st8{fill:none;stroke:#000000;stroke-width:0.35;stroke-linecap:square;stroke-miterlimit:10;}
	.st9{fill:none;stroke:#000000;stroke-width:0.41;stroke-linecap:square;stroke-miterlimit:10;}
</style>
<g id="Calque_1_1_">
</g>
<g id="INFOS_x24_A4" class="st0">
	<g id="POLYLINE_1580_" class="st1">
		<rect x="-225" y="-355.4" class="st2" width="595.3" height="841.9"/>
	</g>
</g>
<g id="PLAN_x24_FOND">
	<g id="POLYLINE_2230_">
		<polygon class="st3" points="116.8,40.1 97.7,20.9 39.6,20.9 20.5,40.1 20.5,98.2 39.6,117.3 97.7,117.3 116.8,98.2 		"/>
	</g>
	<g id="POLYLINE_2231_">
		<polygon class="st3" points="116,40.4 97.3,21.8 40,21.8 21.3,40.4 21.3,97.8 40,116.4 97.3,116.4 116,97.8 		"/>
	</g>
	<g id="POLYLINE_2232_">
		<polygon class="st3" points="115.1,40.8 97,22.6 40.3,22.6 22.2,40.8 22.2,97.5 40.3,115.6 97,115.6 115.1,97.5 		"/>
	</g>
</g>
<g id="PLAN_x24_POINTILLE">
	<g id="ARC_115_">
		<path class="st4" d="M75.7,65.6c-1.9,2-1.7,5.2,0.3,7.1c0.3,0.3,0.6,0.5,0.9,0.7"/>
	</g>
	<g id="ARC_130_">
		<path class="st4" d="M33.3,102.5c5.5,6,13.2,9.4,21.3,9.4"/>
	</g>
	<g id="LINE_317_">
		<line class="st4" x1="54.6" y1="112" x2="82.7" y2="112"/>
	</g>
	<g id="ARC_131_">
		<path class="st4" d="M82.7,112c15.9,0,28.8-12.9,28.8-28.8"/>
	</g>
	<g id="LINE_318_">
		<line class="st4" x1="111.5" y1="83.2" x2="111.5" y2="55"/>
	</g>
	<g id="ARC_132_">
		<path class="st4" d="M111.5,55c0-15.9-12.9-28.8-28.8-28.8"/>
	</g>
	<g id="LINE_319_">
		<line class="st4" x1="82.7" y1="26.3" x2="54.6" y2="26.3"/>
	</g>
	<g id="ARC_133_">
		<path class="st4" d="M54.6,26.3c-7.1,0-14,2.6-19.3,7.4"/>
	</g>
	<g id="ARC_134_">
		<path class="st4" d="M32.3,36.8C28.1,42,25.8,48.4,25.8,55"/>
	</g>
	<g id="LINE_320_">
		<line class="st4" x1="25.8" y1="55" x2="25.8" y2="83.2"/>
	</g>
	<g id="ARC_135_">
		<path class="st4" d="M25.8,83.2c0,5.1,1.4,10.1,3.9,14.5"/>
	</g>
	<g id="ARC_136_">
		<path class="st4" d="M34.8,99.9c4.9,5.8,12.2,9.2,19.8,9.2"/>
	</g>
	<g id="LINE_321_">
		<line class="st4" x1="54.6" y1="109.1" x2="82.7" y2="109.1"/>
	</g>
	<g id="ARC_137_">
		<path class="st4" d="M82.7,109.1c14.3,0,25.9-11.6,25.9-25.9"/>
	</g>
	<g id="LINE_322_">
		<line class="st4" x1="108.7" y1="83.2" x2="108.7" y2="55"/>
	</g>
	<g id="ARC_138_">
		<path class="st4" d="M108.7,55c0-14.3-11.6-25.9-25.9-25.9"/>
	</g>
	<g id="LINE_323_">
		<line class="st4" x1="82.7" y1="29.1" x2="54.6" y2="29.1"/>
	</g>
	<g id="ARC_139_">
		<path class="st4" d="M54.6,29.1c-6.1,0-12.1,2.2-16.7,6.1"/>
	</g>
	<g id="ARC_140_">
		<path class="st4" d="M34.7,38.4C30.8,43,28.6,48.9,28.6,55"/>
	</g>
	<g id="LINE_324_">
		<line class="st4" x1="28.6" y1="55" x2="28.6" y2="83.2"/>
	</g>
	<g id="ARC_141_">
		<path class="st4" d="M28.6,83.2c0,4.8,1.3,9.4,3.8,13.5"/>
	</g>
</g>
<g id="PLAN_x24_VITRAGE">
	<g id="POLYLINE_1579_">
		<line class="st3" x1="90.5" y1="38.8" x2="87.3" y2="38.8"/>
	</g>
	<g id="POLYLINE_1578_">
		<line class="st3" x1="84.8" y1="38.8" x2="80.9" y2="38.8"/>
	</g>
	<g id="POLYLINE_1577_">
		<line class="st3" x1="77.7" y1="38.8" x2="74.8" y2="38.8"/>
	</g>
	<g id="POLYLINE_1576_">
		<line class="st3" x1="62.9" y1="39.6" x2="60" y2="39.6"/>
	</g>
	<g id="POLYLINE_1575_">
		<line class="st3" x1="49.6" y1="99.4" x2="47" y2="99.4"/>
	</g>
	<g id="POLYLINE_1574_">
		<line class="st3" x1="56.7" y1="99.4" x2="52.6" y2="99.4"/>
	</g>
	<g id="POLYLINE_1573_">
		<line class="st3" x1="62.9" y1="99.4" x2="59.4" y2="99.4"/>
	</g>
	<g id="POLYLINE_1572_">
		<line class="st3" x1="78.5" y1="99.4" x2="74.7" y2="99.4"/>
	</g>
	<g id="POLYLINE_1571_">
		<line class="st3" x1="92.3" y1="99.4" x2="88.9" y2="99.4"/>
	</g>
	<g id="POLYLINE_1570_">
		<line class="st3" x1="99" y1="87.8" x2="99" y2="92.1"/>
	</g>
	<g id="POLYLINE_1569_">
		<line class="st3" x1="99" y1="74.8" x2="99" y2="77.8"/>
	</g>
	<g id="POLYLINE_1568_">
		<line class="st3" x1="99" y1="59.1" x2="99" y2="60.9"/>
	</g>
	<g id="POLYLINE_1567_">
		<line class="st3" x1="99" y1="53" x2="99" y2="56.7"/>
	</g>
	<g id="POLYLINE_1566_">
		<line class="st3" x1="99" y1="50.4" x2="99" y2="46.2"/>
	</g>
	<g id="POLYLINE_1565_">
		<line class="st3" x1="39.1" y1="46.7" x2="39.1" y2="49.6"/>
	</g>
	<g id="POLYLINE_1564_">
		<line class="st3" x1="39.1" y1="53.3" x2="39.1" y2="56.3"/>
	</g>
	<g id="POLYLINE_1563_">
		<line class="st3" x1="39.1" y1="59.6" x2="39.1" y2="62.5"/>
	</g>
	<g id="POLYLINE_1562_">
		<line class="st3" x1="39.1" y1="78.7" x2="39.1" y2="75.8"/>
	</g>
	<g id="POLYLINE_1561_">
		<line class="st3" x1="39.1" y1="84.9" x2="39.1" y2="82"/>
	</g>
	<g id="POLYLINE_1560_">
		<line class="st3" x1="39.1" y1="91.6" x2="39.1" y2="88.6"/>
	</g>
	<g id="LINE_124_">
		<line class="st3" x1="56.3" y1="39.6" x2="53.1" y2="39.6"/>
	</g>
	<g id="LINE_123_">
		<line class="st3" x1="49.4" y1="39.6" x2="47" y2="39.6"/>
	</g>
</g>
<g id="PLAN_x24_MOBILIER">
	<g id="POLYLINE_2107_">
		
			<rect x="91.5" y="60.3" transform="matrix(0.9578 -0.2875 0.2875 0.9578 -13.6978 29.3881)" class="st5" width="3.4" height="2.1"/>
	</g>
	<g id="POLYLINE_2124_">
		<line class="st5" x1="51.4" y1="64.6" x2="51.4" y2="68.7"/>
	</g>
	<g id="ARC_129_">
		<path class="st5" d="M50.5,69c0-0.9-0.7-1.6-1.6-1.6s-1.6,0.7-1.6,1.6"/>
	</g>
	<g id="CIRCLE_52_">
		<path class="st5" d="M48.4,70c0-0.3,0.2-0.5,0.5-0.5s0.5,0.2,0.5,0.5c0,0.3-0.2,0.5-0.5,0.5S48.4,70.2,48.4,70L48.4,70z"/>
	</g>
	<g id="POLYLINE_2125_">
		<line class="st5" x1="47.3" y1="69.4" x2="48.3" y2="71.9"/>
	</g>
	<g id="POLYLINE_2127_">
		<line class="st5" x1="45.7" y1="87.7" x2="43.3" y2="85.2"/>
	</g>
	<g id="SPLINE_201_">
		<path class="st5" d="M43.3,85.2c-1.1-1.1-1.1-2.5,0-4"/>
	</g>
	<g id="POLYLINE_2128_">
		
			<rect x="67.5" y="59.5" transform="matrix(0.7071 -0.7071 0.7071 0.7071 -21.3556 68.6492)" class="st5" width="9.4" height="1.2"/>
	</g>
	<g id="POLYLINE_2129_">
		
			<rect x="64.9" y="55.7" transform="matrix(0.7071 -0.7071 0.7071 0.7071 -20.6925 67.0489)" class="st5" width="11.3" height="5.7"/>
	</g>
	<g id="POLYLINE_2130_">
		<rect x="73.8" y="52" transform="matrix(0.7071 -0.7071 0.7071 0.7071 -17.0309 68.5659)" class="st5" width="1" height="5.7"/>
	</g>
	<g id="POLYLINE_2131_">
		<rect x="66.4" y="59.3" transform="matrix(0.7071 -0.7071 0.7071 0.7071 -24.3548 65.5317)" class="st5" width="1" height="5.7"/>
	</g>
	<g id="POLYLINE_2132_">
		
			<rect x="88.8" y="54.6" transform="matrix(0.7212 -0.6927 0.6927 0.7212 -13.5282 77.9732)" class="st5" width="2.5" height="2.4"/>
	</g>
	<g id="POLYLINE_2133_">
		<rect x="71.8" y="94.6" class="st5" width="4.7" height="3.1"/>
	</g>
	<g id="POLYLINE_2134_">
		
			<rect x="60.7" y="60.4" transform="matrix(0.7071 -0.7071 0.7071 0.7071 -27.1052 62.8316)" class="st5" width="3.1" height="7.4"/>
	</g>
	<g id="POLYLINE_2135_">
		
			<rect x="51.6" y="62.2" transform="matrix(0.7071 -0.7071 0.7071 0.7071 -29.0201 57.1686)" class="st5" width="5.7" height="2.9"/>
	</g>
	<g id="POLYLINE_2136_">
		
			<rect x="40.3" y="65.3" transform="matrix(0.5949 -0.8038 0.8038 0.5949 -36.5407 60.0031)" class="st5" width="1.9" height="1.9"/>
	</g>
	<g id="POLYLINE_2137_">
		<rect x="40.3" y="61.9" class="st5" width="1.6" height="1.7"/>
	</g>
	<g id="POLYLINE_2138_">
		<rect x="40.3" y="58.9" class="st5" width="1.5" height="1.6"/>
	</g>
	<g id="POLYLINE_2139_">
		<rect x="40.3" y="55.4" class="st5" width="1.9" height="1.8"/>
	</g>
	<g id="POLYLINE_2140_">
		
			<rect x="40.4" y="41.3" transform="matrix(0.7071 -0.7071 0.7071 0.7071 -17.6195 41.5157)" class="st5" width="1.8" height="1.5"/>
	</g>
	<g id="POLYLINE_2141_">
		
			<rect x="49.5" y="50.4" transform="matrix(0.7071 -0.7071 0.7071 0.7071 -21.2181 51.1079)" class="st5" width="3.2" height="1.6"/>
	</g>
	<g id="POLYLINE_2142_">
		
			<rect x="43.3" y="49.9" transform="matrix(0.7071 -0.7071 0.7071 0.7071 -23.6727 47.0156)" class="st5" width="3.3" height="4.4"/>
	</g>
	<g id="POLYLINE_2143_">
		
			<rect x="71.6" y="47.4" transform="matrix(0.7071 -0.7071 0.7071 0.7071 -12.8741 65.3106)" class="st5" width="1.7" height="1.7"/>
	</g>
	<g id="POLYLINE_2144_">
		<rect x="64" y="40.9" class="st5" width="2.3" height="2.3"/>
	</g>
	<g id="POLYLINE_2145_">
		<rect x="45.8" y="40.6" class="st5" width="1.6" height="1.8"/>
	</g>
	<g id="POLYLINE_2146_">
		<rect x="56.4" y="41.1" class="st5" width="2" height="1.6"/>
	</g>
	<g id="POLYLINE_2147_">
		<rect x="63.4" y="55.4" transform="matrix(0.7267 -0.687 0.687 0.7267 -20.9813 59.6173)" class="st5" width="2.1" height="1.5"/>
	</g>
	<g id="POLYLINE_2148_">
		<rect x="55.4" y="47" transform="matrix(0.7267 -0.687 0.687 0.7267 -17.3783 51.8598)" class="st5" width="2.1" height="1.5"/>
	</g>
	<g id="POLYLINE_2149_">
		<rect x="61.2" y="46.7" transform="matrix(0.7267 -0.687 0.687 0.7267 -15.9007 55.5807)" class="st5" width="1.5" height="2.1"/>
	</g>
	<g id="POLYLINE_2150_">
		<rect x="64" y="49.8" transform="matrix(0.7267 -0.687 0.687 0.7267 -17.2123 58.356)" class="st5" width="1.5" height="2.1"/>
	</g>
	<g id="POLYLINE_2151_">
		<rect x="58.3" y="55.1" transform="matrix(0.7267 -0.687 0.687 0.7267 -22.459 55.9195)" class="st5" width="1.5" height="2.1"/>
	</g>
	<g id="POLYLINE_2152_">
		<rect x="55.5" y="52.1" transform="matrix(0.7267 -0.687 0.687 0.7267 -21.1473 53.1445)" class="st5" width="1.5" height="2.1"/>
	</g>
	<g id="POLYLINE_2153_">
		
			<rect x="57.3" y="46.9" transform="matrix(0.7267 -0.687 0.687 0.7267 -19.1792 55.7617)" class="st5" width="6.3" height="10.1"/>
	</g>
	<g id="CIRCLE_53_">
		<path class="st5" d="M89.2,55.8c0-0.5,0.4-0.9,0.9-0.9s0.9,0.4,0.9,0.9c0,0.5-0.4,0.9-0.9,0.9S89.2,56.3,89.2,55.8L89.2,55.8z"/>
	</g>
	<g id="POLYLINE_2154_">
		<rect x="79.4" y="42" transform="matrix(0.7071 -0.7071 0.7071 0.7071 -5.9379 71.4768)" class="st5" width="7.8" height="1.7"/>
	</g>
	<g id="POLYLINE_2155_">
		<rect x="81" y="44.7" transform="matrix(0.7071 -0.7071 0.7071 0.7071 -7.4263 72.4866)" class="st5" width="5.5" height="1.1"/>
	</g>
	<g id="POLYLINE_2156_">
		<rect x="89.2" y="81.1" class="st5" width="3.3" height="4.1"/>
	</g>
</g>
<g id="PLAN_x24_DETAIL">
	<g id="POLYLINE_1122_">
		<line class="st5" x1="71.3" y1="84.3" x2="73.7" y2="86.7"/>
	</g>
	<g id="ARC_167_">
		<path class="st5" d="M68.9,86.7c1.3,1.3,3.5,1.3,4.8,0"/>
	</g>
	<g id="ARC_166_">
		<path class="st5" d="M68.9,91.5c1.3-1.3,1.3-3.5,0-4.8"/>
	</g>
	<g id="POLYLINE_1121_">
		<line class="st5" x1="68.9" y1="91.5" x2="66.5" y2="89.1"/>
	</g>
	<g id="POLYLINE_1120_">
		<line class="st5" x1="80.1" y1="99.4" x2="80.1" y2="102.8"/>
	</g>
	<g id="ARC_165_">
		<path class="st5" d="M80.1,102.8c1.8,0,3.3-1.5,3.3-3.3"/>
	</g>
	<g id="ARC_164_">
		<path class="st5" d="M83.4,99.4c0,1.8,1.5,3.3,3.3,3.3"/>
	</g>
	<g id="POLYLINE_1117_">
		<line class="st5" x1="86.7" y1="102.8" x2="86.7" y2="99.4"/>
	</g>
	<g id="POLYLINE_1115_">
		<line class="st5" x1="79.3" y1="95.1" x2="82.7" y2="95.1"/>
	</g>
	<g id="ARC_163_">
		<path class="st5" d="M82.7,95.1c0-1.9-1.5-3.4-3.4-3.4"/>
	</g>
	<g id="ARC_162_">
		<path class="st5" d="M79.3,91.7c1.9,0,3.4-1.5,3.4-3.4"/>
	</g>
	<g id="POLYLINE_1113_">
		<line class="st5" x1="82.7" y1="88.3" x2="79.3" y2="88.3"/>
	</g>
	<g id="POLYLINE_1111_">
		<line class="st5" x1="78.8" y1="70.1" x2="77" y2="73.4"/>
	</g>
	<g id="ARC_161_">
		<path class="st5" d="M77,73.4c2.4,1.3,5.5,0.5,6.8-1.9s0.5-5.5-1.9-6.8c-2-1.1-4.5-0.7-6.1,1"/>
	</g>
	<g id="POLYLINE_1110_">
		<line class="st5" x1="75.7" y1="65.6" x2="78.5" y2="68.1"/>
	</g>
	<g id="POLYLINE_1108_">
		<line class="st5" x1="60" y1="66.8" x2="58.9" y2="94.7"/>
	</g>
	<g id="POLYLINE_1106_">
		<line class="st5" x1="73.4" y1="80.1" x2="45.5" y2="81.3"/>
	</g>
	<g id="POLYLINE_1104_">
		
			<rect x="49.2" y="71.3" transform="matrix(0.7071 -0.7071 0.7071 0.7071 -39.6698 65.6762)" class="st5" width="20.5" height="18.9"/>
	</g>
	<g id="ARC_160_">
		<path class="st5" d="M78.1,72.6c-1.4,1.3-1.4,3.5-0.1,4.8"/>
	</g>
	<g id="POLYLINE_1101_">
		<line class="st5" x1="78.1" y1="72.6" x2="80.5" y2="75"/>
	</g>
	<g id="ARC_159_">
		<path class="st5" d="M75.7,80.6c1.3,1.4,3.5,1.4,4.8,0.1"/>
	</g>
	<g id="POLYLINE_1099_">
		<line class="st5" x1="75.7" y1="80.6" x2="78.1" y2="78.2"/>
	</g>
	<g id="POLYLINE_1098_">
		<line class="st5" x1="78.9" y1="67.8" x2="77.6" y2="64.4"/>
	</g>
	<g id="POLYLINE_1096_">
		<line class="st5" x1="79.5" y1="67.7" x2="79.8" y2="64"/>
	</g>
	<g id="POLYLINE_1094_">
		<line class="st5" x1="80" y1="67.9" x2="81.8" y2="64.6"/>
	</g>
	<g id="POLYLINE_1093_">
		<line class="st5" x1="80.6" y1="69.4" x2="84.2" y2="70.4"/>
	</g>
	<g id="POLYLINE_1092_">
		<line class="st5" x1="80.7" y1="68.8" x2="84.3" y2="68.2"/>
	</g>
	<g id="POLYLINE_1091_">
		<line class="st5" x1="80.5" y1="68.3" x2="83.5" y2="66.2"/>
	</g>
	<g id="POLYLINE_1090_">
		<line class="st5" x1="79.3" y1="70.3" x2="79.1" y2="74"/>
	</g>
	<g id="POLYLINE_1089_">
		<line class="st5" x1="79.9" y1="70.2" x2="81.3" y2="73.6"/>
	</g>
	<g id="POLYLINE_1088_">
		<line class="st5" x1="80.3" y1="69.9" x2="83.1" y2="72.4"/>
	</g>
	<g id="CIRCLE_24_">
		<path class="st5" d="M78.1,69c0-0.7,0.6-1.3,1.3-1.3s1.3,0.6,1.3,1.3s-0.6,1.3-1.3,1.3S78.1,69.7,78.1,69L78.1,69z"/>
	</g>
	<g id="ARC_158_">
		<path class="st5" d="M85.4,61.2c1.4-1.3,1.5-3.4,0.2-4.8"/>
	</g>
	<g id="POLYLINE_1087_">
		<line class="st5" x1="85.4" y1="61.2" x2="83.1" y2="58.7"/>
	</g>
	<g id="ARC_157_">
		<path class="st5" d="M102.7,85.3c0-2.1-1.7-3.8-3.8-3.8"/>
	</g>
	<g id="POLYLINE_1086_">
		<line class="st5" x1="102.7" y1="85.3" x2="99" y2="85.3"/>
	</g>
	<g id="ARC_156_">
		<path class="st5" d="M93.8,83.5c1.9,0,3.4-1.5,3.4-3.4"/>
	</g>
	<g id="POLYLINE_1085_">
		<line class="st5" x1="93.8" y1="83.5" x2="93.8" y2="80.1"/>
	</g>
	<g id="ARC_155_">
		<path class="st5" d="M82.9,80.9c0.1,1.9,1.8,3.3,3.7,3.1"/>
	</g>
	<g id="POLYLINE_1084_">
		<line class="st5" x1="86.5" y1="84" x2="86.3" y2="80.6"/>
	</g>
	<g id="ARC_154_">
		<path class="st5" d="M85.1,76.9c1.4-1.3,1.4-3.5,0.1-4.8"/>
	</g>
	<g id="POLYLINE_1083_">
		<line class="st5" x1="85.2" y1="72.1" x2="82.7" y2="74.5"/>
	</g>
	<g id="ARC_153_">
		<path class="st5" d="M89.7,43.9c1.3-1.3,1.3-3.5,0-4.8"/>
	</g>
	<g id="POLYLINE_1082_">
		<line class="st5" x1="89.7" y1="39.1" x2="87.3" y2="41.5"/>
	</g>
	<g id="ARC_152_">
		<path class="st5" d="M94.3,57c0,1.9,1.5,3.4,3.4,3.4"/>
	</g>
	<g id="POLYLINE_1081_">
		<line class="st5" x1="97.7" y1="60.4" x2="97.7" y2="57"/>
	</g>
	<g id="ARC_151_">
		<path class="st5" d="M93.6,51.5c0,1.9,1.5,3.4,3.4,3.4"/>
	</g>
	<g id="POLYLINE_1080_">
		<line class="st5" x1="97" y1="54.9" x2="97" y2="51.5"/>
	</g>
	<g id="ARC_150_">
		<path class="st5" d="M99,67.3c1.9,0,3.4-1.5,3.4-3.4"/>
	</g>
	<g id="POLYLINE_1079_">
		<line class="st5" x1="102.4" y1="63.9" x2="99" y2="63.9"/>
	</g>
	<g id="ARC_149_">
		<path class="st5" d="M72.9,45.8c1.3-1.3,1.3-3.5,0-4.8"/>
	</g>
	<g id="POLYLINE_1078_">
		<line class="st5" x1="72.9" y1="41" x2="70.5" y2="43.4"/>
	</g>
	<g id="ARC_148_">
		<path class="st5" d="M80.7,47.1c-1.3-1.3-3.5-1.3-4.8,0"/>
	</g>
	<g id="POLYLINE_1077_">
		<line class="st5" x1="75.9" y1="47.1" x2="78.3" y2="49.5"/>
	</g>
	<g id="ARC_147_">
		<path class="st5" d="M77.4,51.3c-1.3,1.3-1.3,3.5,0,4.8"/>
	</g>
	<g id="POLYLINE_1076_">
		<line class="st5" x1="77.4" y1="51.3" x2="79.8" y2="53.8"/>
	</g>
	<g id="ARC_146_">
		<path class="st5" d="M79.2,62.5c1.3,1.3,3.5,1.3,4.8,0"/>
	</g>
	<g id="POLYLINE_1075_">
		<line class="st5" x1="84" y1="62.5" x2="81.6" y2="60.1"/>
	</g>
	<g id="POLYLINE_1074_">
		<line class="st5" x1="99.5" y1="46.2" x2="99.5" y2="50.4"/>
	</g>
	<g id="POLYLINE_1073_">
		<line class="st5" x1="98.4" y1="46.2" x2="98.4" y2="50.4"/>
	</g>
	<g id="POLYLINE_1039_">
		<line class="st5" x1="98.4" y1="53" x2="98.4" y2="56.7"/>
	</g>
	<g id="POLYLINE_1038_">
		<line class="st5" x1="99.5" y1="56.7" x2="99.5" y2="53"/>
	</g>
	<g id="POLYLINE_1037_">
		<line class="st5" x1="98.4" y1="59.1" x2="98.4" y2="60.9"/>
	</g>
	<g id="POLYLINE_1036_">
		<line class="st5" x1="99.5" y1="60.9" x2="99.5" y2="59.1"/>
	</g>
	<g id="POLYLINE_1035_">
		<line class="st5" x1="98.4" y1="74.8" x2="98.4" y2="77.8"/>
	</g>
	<g id="POLYLINE_1034_">
		<line class="st5" x1="99.5" y1="77.8" x2="99.5" y2="74.8"/>
	</g>
	<g id="POLYLINE_1033_">
		<line class="st5" x1="98.4" y1="92.1" x2="98.4" y2="87.8"/>
	</g>
	<g id="POLYLINE_1032_">
		<line class="st5" x1="99.5" y1="87.8" x2="99.5" y2="92.1"/>
	</g>
	<g id="POLYLINE_1031_">
		<line class="st5" x1="92.3" y1="98.9" x2="88.9" y2="98.9"/>
	</g>
	<g id="POLYLINE_1027_">
		<line class="st5" x1="88.9" y1="100" x2="92.3" y2="100"/>
	</g>
	<g id="POLYLINE_1026_">
		<line class="st5" x1="78.5" y1="100" x2="74.8" y2="100"/>
	</g>
	<g id="POLYLINE_1025_">
		<line class="st5" x1="78.5" y1="98.9" x2="74.8" y2="98.9"/>
	</g>
	<g id="POLYLINE_1024_">
		<line class="st5" x1="62.9" y1="100" x2="59.4" y2="100"/>
	</g>
	<g id="POLYLINE_1023_">
		<line class="st5" x1="62.9" y1="98.9" x2="59.4" y2="98.9"/>
	</g>
	<g id="POLYLINE_1022_">
		<line class="st5" x1="56.7" y1="100" x2="52.6" y2="100"/>
	</g>
	<g id="POLYLINE_1021_">
		<line class="st5" x1="56.7" y1="98.9" x2="52.6" y2="98.9"/>
	</g>
	<g id="POLYLINE_1020_">
		<line class="st5" x1="49.6" y1="100" x2="47" y2="100"/>
	</g>
	<g id="POLYLINE_1019_">
		<line class="st5" x1="49.6" y1="98.9" x2="47" y2="98.9"/>
	</g>
	<g id="POLYLINE_1018_">
		<line class="st5" x1="49.6" y1="38.2" x2="46.7" y2="38.2"/>
	</g>
	<g id="POLYLINE_1017_">
		<line class="st5" x1="62.9" y1="40" x2="60" y2="40"/>
	</g>
	<g id="POLYLINE_1016_">
		<line class="st5" x1="62.9" y1="38.2" x2="60" y2="38.2"/>
	</g>
	<g id="POLYLINE_1011_">
		<line class="st5" x1="84.8" y1="39.3" x2="80.9" y2="39.3"/>
	</g>
	<g id="POLYLINE_1010_">
		<line class="st5" x1="77.7" y1="39.3" x2="74.8" y2="39.3"/>
	</g>
	<g id="POLYLINE_1009_">
		<line class="st5" x1="77.7" y1="38.2" x2="74.8" y2="38.2"/>
	</g>
	<g id="POLYLINE_1008_">
		<line class="st5" x1="84.8" y1="38.2" x2="80.9" y2="38.2"/>
	</g>
	<g id="POLYLINE_1007_">
		<line class="st5" x1="90.5" y1="38.2" x2="87.3" y2="38.2"/>
	</g>
	<g id="POLYLINE_1006_">
		<polyline class="st5" points="45,88.4 41.6,91.8 45.7,95.9 49.1,92.5 		"/>
	</g>
	<g id="POLYLINE_1005_">
		<polyline class="st5" points="45,49.9 41.6,46.4 45.7,42.3 49.1,45.7 		"/>
	</g>
	<g id="POLYLINE_1004_">
		<polyline class="st5" points="92.3,49.9 95.7,46.4 91.6,42.3 88.2,45.7 		"/>
	</g>
	<g id="POLYLINE_1003_">
		<polyline class="st5" points="92.3,88.4 95.7,91.8 91.6,95.9 88.2,92.5 		"/>
	</g>
	<g id="ARC_112_">
		<path class="st5" d="M36.3,34c-1-0.6-2.3-0.4-3.1,0.5"/>
	</g>
	<g id="ARC_111_">
		<path class="st5" d="M33.8,38c1,0.6,2.3,0.4,3.1-0.5"/>
	</g>
	<g id="POLYLINE_1002_">
		<line class="st5" x1="37.5" y1="33.2" x2="38.3" y2="37.9"/>
	</g>
	<g id="POLYLINE_1001_">
		<line class="st5" x1="31.8" y1="34.2" x2="32.6" y2="38.9"/>
	</g>
	<g id="POLYLINE_1000_">
		<rect x="32.2" y="34.3" transform="matrix(0.9852 -0.1716 0.1716 0.9852 -5.6634 6.5468)" class="st5" width="5.7" height="3.5"/>
	</g>
	<g id="POLYLINE_999_">
		<rect x="30.6" y="96.9" transform="matrix(0.932 -0.3625 0.3625 0.932 -33.9552 18.5326)" class="st5" width="3.5" height="5.7"/>
	</g>
	<g id="POLYLINE_998_">
		<line class="st5" x1="33.6" y1="96.2" x2="29.1" y2="98"/>
	</g>
	<g id="POLYLINE_997_">
		<line class="st5" x1="35.7" y1="101.6" x2="31.2" y2="103.3"/>
	</g>
	<g id="ARC_110_">
		<path class="st5" d="M30.2,99c-0.4,1.1,0.1,2.3,1.1,2.9"/>
	</g>
	<g id="ARC_109_">
		<path class="st5" d="M34.6,100.6c0.4-1.1-0.1-2.3-1.1-2.9"/>
	</g>
	<g id="POLYLINE_996_">
		<line class="st5" x1="44.4" y1="117.3" x2="44.4" y2="122.1"/>
	</g>
	<g id="POLYLINE_995_">
		<line class="st5" x1="42.5" y1="117.3" x2="44.4" y2="119.2"/>
	</g>
	<g id="POLYLINE_994_">
		<line class="st5" x1="93.1" y1="117.3" x2="91.2" y2="119.2"/>
	</g>
	<g id="POLYLINE_993_">
		<line class="st5" x1="91.2" y1="117.3" x2="91.2" y2="122.1"/>
	</g>
	<g id="POLYLINE_992_">
		<line class="st5" x1="20.5" y1="46.6" x2="15.7" y2="46.6"/>
	</g>
	<g id="POLYLINE_991_">
		<line class="st5" x1="20.5" y1="44.7" x2="18.6" y2="46.6"/>
	</g>
	<g id="POLYLINE_990_">
		<line class="st5" x1="20.5" y1="95.2" x2="18.6" y2="93.3"/>
	</g>
	<g id="POLYLINE_989_">
		<line class="st5" x1="20.5" y1="93.3" x2="15.7" y2="93.3"/>
	</g>
	<g id="POLYLINE_988_">
		<line class="st5" x1="116" y1="45.7" x2="120.8" y2="45.7"/>
	</g>
	<g id="POLYLINE_987_">
		<line class="st5" x1="116" y1="43.8" x2="117.9" y2="45.7"/>
	</g>
	<g id="POLYLINE_986_">
		<line class="st5" x1="116" y1="94.4" x2="117.9" y2="92.5"/>
	</g>
	<g id="POLYLINE_985_">
		<line class="st5" x1="116" y1="92.5" x2="120.8" y2="92.5"/>
	</g>
	<g id="POLYLINE_984_">
		<line class="st5" x1="45.3" y1="21.8" x2="45.3" y2="17"/>
	</g>
	<g id="POLYLINE_983_">
		<line class="st5" x1="43.4" y1="21.8" x2="45.3" y2="19.9"/>
	</g>
	<g id="POLYLINE_982_">
		<line class="st5" x1="93.9" y1="21.8" x2="92" y2="19.9"/>
	</g>
	<g id="POLYLINE_981_">
		<line class="st5" x1="92" y1="21.8" x2="92" y2="17"/>
	</g>
	<g id="POLYLINE_980_">
		<line class="st5" x1="39.5" y1="91.7" x2="39.5" y2="88.5"/>
	</g>
	<g id="POLYLINE_979_">
		<line class="st5" x1="37.8" y1="88.6" x2="37.8" y2="91.6"/>
	</g>
	<g id="POLYLINE_978_">
		<line class="st5" x1="39.5" y1="85" x2="39.5" y2="81.8"/>
	</g>
	<g id="POLYLINE_975_">
		<line class="st5" x1="37.8" y1="82" x2="37.8" y2="84.9"/>
	</g>
	<g id="POLYLINE_974_">
		<line class="st5" x1="37.8" y1="78.7" x2="37.8" y2="75.8"/>
	</g>
	<g id="POLYLINE_973_">
		<line class="st5" x1="39.5" y1="75.6" x2="39.5" y2="78.8"/>
	</g>
	<g id="POLYLINE_972_">
		<line class="st5" x1="37.8" y1="62.5" x2="37.8" y2="59.6"/>
	</g>
	<g id="POLYLINE_939_">
		<line class="st5" x1="39.5" y1="59.4" x2="39.5" y2="62.6"/>
	</g>
	<g id="POLYLINE_926_">
		<line class="st5" x1="39.5" y1="56.4" x2="39.5" y2="53.2"/>
	</g>
	<g id="POLYLINE_925_">
		<line class="st5" x1="37.8" y1="53.3" x2="37.8" y2="56.3"/>
	</g>
	<g id="POLYLINE_924_">
		<line class="st5" x1="37.8" y1="46.7" x2="37.8" y2="49.6"/>
	</g>
	<g id="POLYLINE_923_">
		<line class="st5" x1="39.5" y1="46.5" x2="39.5" y2="49.7"/>
	</g>
	<g id="LINE_91_">
		<line class="st5" x1="56.3" y1="40" x2="53.1" y2="40"/>
	</g>
	<g id="LINE_40_">
		<line class="st5" x1="56.3" y1="38.2" x2="53.1" y2="38.2"/>
	</g>
	<g id="LINE_39_">
		<line class="st5" x1="49.4" y1="40" x2="47" y2="40"/>
	</g>
</g>
<g id="PLAN_x24_CLOISON_TRANSLUCIDE">
</g>
<g id="PLAN_x24_CLOISON_1.3">
	<g id="POLYLINE_902_">
		<polyline class="st6" points="82,73.3 82.9,74.3 82.5,74.7 81.9,74 80.7,75.2 		"/>
	</g>
	<g id="POLYLINE_901_">
		<line class="st6" x1="80.7" y1="75.2" x2="80.3" y2="74.8"/>
	</g>
	<g id="POLYLINE_900_">
		<line class="st6" x1="80.3" y1="74.8" x2="81.7" y2="73.4"/>
	</g>
	<g id="POLYLINE_899_">
		<polyline class="st6" points="98.4,85.8 92.5,85.8 92.5,80.4 86.3,80.9 86.3,80.3 88,80.2 84.9,77.1 		"/>
	</g>
	<g id="POLYLINE_898_">
		<line class="st6" x1="84.9" y1="77.1" x2="85.3" y2="76.7"/>
	</g>
	<g id="POLYLINE_897_">
		<polyline class="st6" points="85.3,76.7 88.8,80.1 92.9,79.8 92.9,79.8 93.8,79.8 93.8,80.4 93.1,80.4 93.1,85.3 98.4,85.3 		"/>
	</g>
	<g id="POLYLINE_896_">
		<polyline class="st6" points="64.9,69 75.5,79.6 77.9,77.3 		"/>
	</g>
	<g id="POLYLINE_865_">
		<line class="st6" x1="77.9" y1="77.3" x2="78.3" y2="77.7"/>
	</g>
	<g id="POLYLINE_864_">
		<polyline class="st6" points="78.3,77.7 78.1,77.8 78.3,78 77.9,78.4 77.7,78.2 71.5,84.5 71.1,84.1 75.1,80 58.1,62.9 43.4,77.6 
			43.4,80.5 59,96.1 66.3,88.9 66.7,89.3 59,96.9 51.8,89.8 		"/>
	</g>
	<g id="POLYLINE_2103_">
		<polyline class="st6" points="89.7,44.3 89.5,44.1 89.9,43.7 90.1,43.9 		"/>
	</g>
	<g id="POLYLINE_2104_">
		<polyline class="st6" points="87.2,39.3 87.2,41 87.5,41.3 87.1,41.7 86.8,41.4 80.9,47.3 80.5,46.9 86.8,40.6 86.8,39.3 		"/>
	</g>
	<g id="POLYLINE_2113_">
		<polygon class="st6" points="79.9,53.3 79.6,53.6 80,54 80.7,53.3 77.8,50.4 78.5,49.7 78.1,49.3 77.4,50 73.1,45.6 72.7,46 		"/>
	</g>
	<g id="POLYLINE_2114_">
		<polyline class="st6" points="90.9,51.3 93.6,51.3 93.6,51.8 90.3,51.8 		"/>
	</g>
	<g id="POLYLINE_2115_">
		<polyline class="st6" points="64.9,69 77.6,56.4 77.2,56 64.5,68.6 58.1,62.1 42.8,77.3 42.8,80.7 47.7,85.6 		"/>
	</g>
	<g id="POLYLINE_2116_">
		<polyline class="st6" points="98.4,80.4 97.2,80.4 97.2,79.8 98.4,79.8 		"/>
	</g>
	<g id="POLYLINE_2117_">
		<polygon class="st6" points="82.9,81.1 81.5,81.2 79.6,83.2 79.6,88.3 79,88.3 79,82.9 80.7,81.2 80.3,80.8 80.7,80.4 81,80.7 
			82.9,80.6 		"/>
	</g>
	<g id="POLYLINE_2118_">
		<polyline class="st6" points="79,98.9 79,95.1 79.6,95.1 79.6,98.9 		"/>
	</g>
	<g id="POLYLINE_2119_">
		<polyline class="st6" points="81.6,64.5 85.2,62.4 82.6,59.6 81.8,60.3 81.4,59.9 82.9,58.5 83.3,58.9 83,59.2 85.7,62.1 
			90.1,59.5 92.9,56.8 89.2,53 85.7,56.5 85.3,56.1 88.8,52.6 		"/>
	</g>
	<g id="POLYLINE_2120_">
		<polyline class="st6" points="75.8,65.5 79,62.3 79.4,62.7 77.9,64.2 		"/>
	</g>
	<g id="POLYLINE_2121_">
		<polyline class="st6" points="98.4,51.8 97,51.8 97,51.3 98.4,51.3 		"/>
	</g>
	<g id="POLYLINE_2122_">
		<polyline class="st6" points="98.4,57.2 97.7,57.2 97.7,56.7 98.4,56.7 		"/>
	</g>
	<g id="POLYLINE_2123_">
		<polyline class="st6" points="89.6,52.6 93.5,56.7 94.3,56.7 94.3,57.2 93.3,57.2 90.9,59.5 91.9,62.9 98.4,60.9 		"/>
	</g>
	<g id="POLYLINE_2126_">
		<polyline class="st6" points="51.2,69 46.5,69 46.5,69.4 50.8,69.4 		"/>
	</g>
	<g id="LINE_311_">
		<line class="st6" x1="59.3" y1="96.6" x2="59.3" y2="98.9"/>
	</g>
	<g id="LINE_312_">
		<line class="st6" x1="58.7" y1="96.6" x2="58.7" y2="98.9"/>
	</g>
	<g id="LINE_315_">
		<line class="st6" x1="64.1" y1="69" x2="64.1" y2="69"/>
	</g>
	<g id="POLYLINE_863_">
		<polyline class="st6" points="94.8,68.9 94.8,62.6 91.5,63.6 90.4,60 82.2,64.8 		"/>
	</g>
	<g id="POLYLINE_862_">
		<polyline class="st6" points="98.4,61.5 95.4,62.4 95.4,68.8 		"/>
	</g>
	<g id="POLYLINE_2574_">
		<polyline class="st6" points="69.5,42.9 70.2,43.6 70.7,43.2 69.8,42.4 		"/>
	</g>
</g>
<g id="PLAN_x24_CLOISON_1.2">
</g>
<g id="PLAN_x24_CLOISON_1.1">
</g>
<g id="PLAN_x24_STRUCTURE_2.3">
	<g id="POLYLINE_1490_">
		<rect x="98.4" y="67.3" class="st7" width="1.1" height="7.5"/>
	</g>
	<g id="POLYLINE_1488_">
		<rect x="98.4" y="50.4" class="st7" width="1.1" height="2.6"/>
	</g>
	<g id="POLYLINE_1486_">
		<rect x="98.4" y="85.3" class="st7" width="1.1" height="2.6"/>
	</g>
	<g id="POLYLINE_1483_">
		<rect x="98.4" y="60.9" class="st7" width="1.1" height="3"/>
	</g>
	<g id="POLYLINE_1482_">
		<rect x="98.4" y="56.7" class="st7" width="1.1" height="2.5"/>
	</g>
	<g id="POLYLINE_1481_">
		<polyline class="st7" points="74.8,98.9 62.9,98.9 62.9,100 74.8,100 		"/>
	</g>
	<g id="POLYLINE_1480_">
		<polygon class="st7" points="98.4,92.1 98.4,98.9 92.3,98.9 92.3,100 99.5,100 99.5,92.1 		"/>
	</g>
	<g id="POLYLINE_1479_">
		<rect x="98.4" y="77.8" class="st7" width="1.1" height="3.7"/>
	</g>
	<g id="POLYLINE_1478_">
		<polygon class="st7" points="38.9,46.7 39.5,46.7 39.5,46.5 39.5,45.8 38.9,45.8 38.9,39.3 46.3,39.3 46.3,40 47,40 47,39.6 
			46.7,39.6 46.7,39.3 46.7,38.2 37.8,38.2 37.8,46.7 		"/>
	</g>
	<g id="POLYLINE_1477_">
		<polygon class="st7" points="39.5,59.4 39.5,59.6 38.9,59.6 37.8,59.6 37.8,56.3 38.9,56.3 39.5,56.3 39.5,56.4 39.5,57.1 
			38.9,57.1 38.9,58.7 39.5,58.7 		"/>
	</g>
	<g id="POLYLINE_1476_">
		<polygon class="st7" points="39.5,75.6 39.5,75.8 38.9,75.8 37.8,75.8 37.8,62.5 38.9,62.5 39.5,62.5 39.5,62.6 39.5,63.3 
			38.9,63.3 38.9,74.9 39.5,74.9 		"/>
	</g>
	<g id="POLYLINE_1475_">
		<polygon class="st7" points="39.5,81.8 39.5,82 38.9,82 37.8,82 37.8,78.7 38.9,78.7 39.5,78.7 39.5,78.8 39.5,79.5 38.9,79.5 
			38.9,81.1 39.5,81.1 		"/>
	</g>
	<g id="POLYLINE_1474_">
		<polygon class="st7" points="39.5,88.5 39.5,88.6 38.9,88.6 37.8,88.6 37.8,84.9 38.9,84.9 39.5,84.9 39.5,85 39.5,85.7 
			38.9,85.7 38.9,87.8 39.5,87.8 		"/>
	</g>
	<g id="POLYLINE_1473_">
		<rect x="84.8" y="38.2" class="st7" width="2.5" height="1.1"/>
	</g>
	<g id="POLYLINE_1472_">
		<rect x="77.7" y="38.2" class="st7" width="3.2" height="1.1"/>
	</g>
	<g id="POLYLINE_1471_">
		<rect x="49.6" y="98.9" class="st7" width="3" height="1.1"/>
	</g>
	<g id="POLYLINE_1470_">
		<rect x="56.7" y="98.9" class="st7" width="2.7" height="1.1"/>
	</g>
	<g id="POLYLINE_1469_">
		<rect x="78.5" y="98.9" class="st7" width="1.5" height="1.1"/>
	</g>
	<g id="POLYLINE_1468_">
		<rect x="86.7" y="98.9" class="st7" width="2.2" height="1.1"/>
	</g>
	<g id="POLYLINE_1467_">
		<polygon class="st7" points="90.5,38.2 99.5,38.2 99.5,46.2 98.4,46.2 98.4,39.3 90.5,39.3 		"/>
	</g>
	<g id="POLYLINE_1466_">
		<polygon class="st7" points="47,98.9 47,100 37.8,100 37.8,91.6 38.9,91.6 39.5,91.6 39.5,91.7 39.5,92.4 38.9,92.4 38.9,98.9 		
			"/>
	</g>
	<g id="POLYLINE_1465_">
		<line class="st7" x1="98.4" y1="42.9" x2="94.9" y2="39.3"/>
	</g>
	<g id="POLYLINE_1464_">
		<line class="st7" x1="74.7" y1="98.9" x2="74.7" y2="100"/>
	</g>
	<g id="POLYLINE_1463_">
		
			<rect x="85.8" y="86.6" transform="matrix(0.7071 -0.7071 0.7071 0.7071 -36.8574 88.7236)" class="st7" width="5.8" height="4.4"/>
	</g>
	<g id="POLYLINE_1462_">
		
			<rect x="46.4" y="85.9" transform="matrix(0.7071 -0.7071 0.7071 0.7071 -48.5894 60.4095)" class="st7" width="4.4" height="5.8"/>
	</g>
	<g id="POLYLINE_1461_">
		
			<rect x="45.7" y="47.2" transform="matrix(0.7071 -0.7071 0.7071 0.7071 -20.6608 48.8456)" class="st7" width="5.8" height="4.4"/>
	</g>
	<g id="POLYLINE_1460_">
		
			<rect x="86.5" y="46.5" transform="matrix(0.7071 -0.7071 0.7071 0.7071 -8.9336 77.1579)" class="st7" width="4.4" height="5.8"/>
	</g>
	<g id="POLYLINE_1459_">
		<line class="st7" x1="42.4" y1="98.9" x2="38.9" y2="95.4"/>
	</g>
	<g id="POLYLINE_1458_">
		<line class="st7" x1="42.4" y1="39.3" x2="38.9" y2="42.9"/>
	</g>
	<g id="POLYLINE_1457_">
		<line class="st7" x1="98.4" y1="95.4" x2="94.9" y2="98.9"/>
	</g>
	<g id="POLYLINE_1456_">
		<line class="st7" x1="53.1" y1="39.3" x2="53.1" y2="39.6"/>
	</g>
	<g id="POLYLINE_1455_">
		<polygon class="st7" points="38.9,53.3 37.8,53.3 37.8,49.6 38.9,49.6 39.5,49.6 39.5,49.7 39.5,50.4 38.9,50.4 38.9,52.5 
			39.5,52.5 39.5,53.2 39.5,53.3 		"/>
	</g>
	<g id="POLYLINE_1454_">
		<polygon class="st7" points="49.4,39.3 49.4,38.2 53.1,38.2 53.1,39.3 53.1,40 53,40 52.3,40 52.3,39.3 50.2,39.3 50.2,40 
			49.5,40 49.4,40 		"/>
	</g>
	<g id="POLYLINE_1453_">
		<polygon class="st7" points="56.3,39.3 56.3,38.2 60,38.2 60,39.3 60,40 59.9,40 59.2,40 59.2,39.3 57.1,39.3 57.1,40 56.4,40 
			56.3,40 		"/>
	</g>
	<g id="POLYLINE_1452_">
		<path class="st7" d="M74.8,38.2H62.9c0,0,0,1.4,0,1.4V40h0.7v-0.7h11.2L74.8,38.2L74.8,38.2z"/>
	</g>
</g>
<g id="PLAN_x24_STRUCTURE_2.2">
</g>
<g id="PLAN_x24_STRUCTURE_2.1">
	<g id="POLYLINE_806_">
		<line class="st8" x1="68" y1="41.9" x2="68.6" y2="41.9"/>
	</g>
	<g id="POLYLINE_805_">
		<line class="st8" x1="68.6" y1="41.9" x2="69.3" y2="41.9"/>
	</g>
	<g id="POLYLINE_804_">
		<line class="st8" x1="68" y1="96.3" x2="68.6" y2="96.3"/>
	</g>
	<g id="POLYLINE_803_">
		<line class="st8" x1="68.6" y1="96.3" x2="69.3" y2="96.3"/>
	</g>
	<g id="LINE_313_">
		<line class="st8" x1="69.2" y1="66.9" x2="66.3" y2="69.8"/>
	</g>
	<g id="LINE_314_">
		<line class="st8" x1="70.9" y1="68.6" x2="68" y2="71.5"/>
	</g>
	<g id="POLYLINE_2200_">
		<line class="st8" x1="69.5" y1="70" x2="67.8" y2="68.3"/>
	</g>
	<g id="LINE_316_">
		<line class="st8" x1="42.8" y1="69.1" x2="43.3" y2="69.1"/>
	</g>
	<g id="POLYLINE_2201_">
		<line class="st8" x1="69.9" y1="96.1" x2="70.5" y2="98.2"/>
	</g>
	<g id="POLYLINE_2202_">
		<line class="st8" x1="67.4" y1="96.1" x2="66.8" y2="98.2"/>
	</g>
	<g id="POLYLINE_2203_">
		<line class="st8" x1="68.6" y1="98.9" x2="68.6" y2="96.3"/>
	</g>
	<g id="POLYLINE_802_">
		<line class="st8" x1="41.7" y1="68.7" x2="39.6" y2="68.1"/>
	</g>
	<g id="POLYLINE_801_">
		<line class="st8" x1="41.7" y1="69.5" x2="39.6" y2="70.1"/>
	</g>
	<g id="POLYLINE_800_">
		<line class="st8" x1="38.9" y1="69.1" x2="42.2" y2="69.1"/>
	</g>
	<g id="LINE_364_">
		<line class="st8" x1="94.5" y1="69.1" x2="94" y2="69.1"/>
	</g>
	<g id="POLYLINE_799_">
		<line class="st8" x1="95.6" y1="68.7" x2="97.7" y2="68.1"/>
	</g>
	<g id="POLYLINE_798_">
		<line class="st8" x1="95.6" y1="69.5" x2="97.7" y2="70.1"/>
	</g>
	<g id="POLYLINE_797_">
		<line class="st8" x1="98.4" y1="69.1" x2="95.1" y2="69.1"/>
	</g>
	<g id="POLYLINE_2569_">
		<line class="st8" x1="69.9" y1="42.2" x2="70.5" y2="40"/>
	</g>
	<g id="POLYLINE_2570_">
		<line class="st8" x1="67.4" y1="42.2" x2="66.8" y2="40"/>
	</g>
	<g id="POLYLINE_2571_">
		<line class="st8" x1="68.6" y1="39.3" x2="68.6" y2="41.9"/>
	</g>
</g>
<g id="PLAN_x24_STRUCTURE_1.3">
	<g id="POLYLINE_1434_">
		<polyline class="st9" points="95.6,69.5 94.5,69.2 94.5,69.1 		"/>
	</g>
	<g id="POLYLINE_1433_">
		<polyline class="st9" points="94.5,69.1 94.5,69 95.6,68.7 		"/>
	</g>
	<g id="POLYLINE_1432_">
		<polyline class="st9" points="41.7,69.5 42.8,69.2 42.8,69.1 		"/>
	</g>
	<g id="POLYLINE_1379_">
		<polyline class="st9" points="42.8,69.1 42.8,69 41.7,68.7 		"/>
	</g>
	<g id="POLYLINE_1378_">
		<polyline class="st9" points="67.4,96.1 67.6,95.3 68.6,95.3 		"/>
	</g>
	<g id="POLYLINE_1377_">
		<polyline class="st9" points="68.6,95.3 69.7,95.3 69.9,96.1 		"/>
	</g>
	<g id="POLYLINE_1376_">
		<polyline class="st9" points="67.4,42.2 67.6,42.9 68.6,42.9 		"/>
	</g>
	<g id="POLYLINE_1375_">
		<polyline class="st9" points="68.6,42.9 69.7,42.9 69.9,42.2 		"/>
	</g>
	<g id="POLYLINE_1374_">
		<line class="st9" x1="92.3" y1="88.4" x2="85.1" y2="89.4"/>
	</g>
	<g id="POLYLINE_1255_">
		<line class="st9" x1="88.2" y1="92.5" x2="89.2" y2="85.2"/>
	</g>
	<g id="POLYLINE_1254_">
		<line class="st9" x1="52.2" y1="89.4" x2="45" y2="88.4"/>
	</g>
	<g id="POLYLINE_1253_">
		<line class="st9" x1="48.1" y1="85.2" x2="49.1" y2="92.5"/>
	</g>
	<g id="POLYLINE_1172_">
		<line class="st9" x1="48.1" y1="53" x2="49.1" y2="45.7"/>
	</g>
	<g id="POLYLINE_1171_">
		<line class="st9" x1="52.2" y1="48.9" x2="45" y2="49.9"/>
	</g>
	<g id="POLYLINE_1170_">
		<line class="st9" x1="92.3" y1="49.9" x2="85.1" y2="48.9"/>
	</g>
	<g id="POLYLINE_1169_">
		<line class="st9" x1="88.2" y1="45.7" x2="89.2" y2="53"/>
	</g>
	<g id="POLYLINE_1168_">
		<line class="st9" x1="71.1" y1="68.7" x2="69.1" y2="66.7"/>
	</g>
	<g id="POLYLINE_1167_">
		<line class="st9" x1="68.1" y1="71.6" x2="66.1" y2="69.7"/>
	</g>
	<g id="POLYLINE_1166_">
		<line class="st9" x1="66.8" y1="98.2" x2="66.6" y2="98.9"/>
	</g>
	<g id="POLYLINE_1165_">
		<line class="st9" x1="70.5" y1="98.2" x2="70.7" y2="98.9"/>
	</g>
	<g id="POLYLINE_1164_">
		<line class="st9" x1="39.6" y1="70.1" x2="38.9" y2="70.3"/>
	</g>
	<g id="POLYLINE_1163_">
		<line class="st9" x1="39.6" y1="68.1" x2="38.9" y2="67.9"/>
	</g>
	<g id="POLYLINE_1162_">
		<line class="st9" x1="42.8" y1="69.1" x2="42.2" y2="69.1"/>
	</g>
	<g id="POLYLINE_1161_">
		<line class="st9" x1="97.7" y1="70.1" x2="98.4" y2="70.3"/>
	</g>
	<g id="POLYLINE_1160_">
		<line class="st9" x1="97.7" y1="68.1" x2="98.4" y2="67.9"/>
	</g>
	<g id="POLYLINE_1159_">
		<line class="st9" x1="94.5" y1="69.1" x2="95.1" y2="69.1"/>
	</g>
	<g id="POLYLINE_1158_">
		<line class="st9" x1="66.8" y1="40" x2="66.6" y2="39.3"/>
	</g>
	<g id="POLYLINE_1157_">
		<line class="st9" x1="70.5" y1="40" x2="70.7" y2="39.3"/>
	</g>
</g>
<g id="PLAN_x24_STRUCTURE_1.2">
</g>
<g id="PLAN_x24_STRUCTURE_1.1">
</g>
</svg>
