<?xml version="1.0" encoding="utf-8"?>
<!-- Generator: Adobe Illustrator 22.0.1, SVG Export Plug-In . SVG Version: 6.00 Build 0)  -->
<svg version="1.1" id="Calque_1" xmlns="http://www.w3.org/2000/svg" xmlns:xlink="http://www.w3.org/1999/xlink" x="0px" y="0px"
	 viewBox="0 0 1012 854.6" style="enable-background:new 0 0 1012 854.6;" xml:space="preserve">
<style type="text/css">
	.st0{display:none;}
	.st1{display:inline;}
	.st2{fill:none;}
	.st3{fill:none;stroke:#000000;stroke-width:0.1;stroke-linecap:square;stroke-miterlimit:10;}
	.st4{fill:none;stroke:#000000;stroke-width:0.2;stroke-linecap:square;stroke-miterlimit:10;stroke-dasharray:1,1;}
	.st5{fill:none;stroke:#000000;stroke-width:0.16;stroke-linecap:square;stroke-miterlimit:10;}
	.st6{fill:none;stroke:#000000;stroke-width:0.44;stroke-linecap:square;stroke-miterlimit:10;}
	.st7{fill:none;stroke:#000000;stroke-width:0.9;stroke-linecap:square;stroke-miterlimit:10;}
</style>
<g id="Calque_1_1_">
</g>
<g id="INFOS_x24_A4" class="st0">
	<g id="POLYLINE_4989_" class="st1">
		<rect x="200" y="57.5" class="st2" width="595.3" height="841.9"/>
	</g>
</g>
<g id="PLAN_x24_FOND">
	<g id="POLYLINE_4544_">
		<polygon class="st3" points="56.4,801.5 416.4,18.2 987.6,714.9 879.4,820.9 77.4,824.2 		"/>
	</g>
</g>
<g id="PLAN_x24_POINTILLE">
	<g id="POLYLINE_4543_">
		<line class="st4" x1="661" y1="776.5" x2="687" y2="653.5"/>
	</g>
	<g id="LINE_614_">
		<line class="st4" x1="687" y1="653.5" x2="594.4" y2="609.5"/>
	</g>
	<g id="POLYLINE_4542_">
		<line class="st4" x1="778.4" y1="529.2" x2="699.6" y2="627.1"/>
	</g>
	<g id="LINE_613_">
		<line class="st4" x1="699.6" y1="627.1" x2="606.8" y2="583.1"/>
	</g>
	<g id="LINE_612_">
		<line class="st4" x1="483.2" y1="413.9" x2="475" y2="350.2"/>
	</g>
	<g id="POLYLINE_4541_">
		<polyline class="st4" points="475,350.2 549.2,268.6 559.8,268 571.4,255.4 		"/>
	</g>
	<g id="LINE_611_">
		<line class="st4" x1="454.4" y1="417.6" x2="446" y2="354"/>
	</g>
	<g id="POLYLINE_4540_">
		<polyline class="st4" points="446,354 353,294.4 342.6,296.6 328.2,287.4 		"/>
	</g>
	<g id="POLYLINE_4539_">
		<polyline class="st4" points="351.2,251.6 365.6,260.9 367.8,271.2 447.6,322.4 		"/>
	</g>
	<g id="POLYLINE_4538_">
		<line class="st4" x1="447.6" y1="322.4" x2="465.2" y2="320.2"/>
	</g>
	<g id="POLYLINE_4537_">
		<polyline class="st4" points="465.2,320.2 529,250 528.4,239.4 540,226.8 		"/>
	</g>
	<g id="POLYLINE_4536_">
		<line class="st4" x1="802.8" y1="548.5" x2="727" y2="639.9"/>
	</g>
	<g id="POLYLINE_4535_">
		<line class="st4" x1="727" y1="639.9" x2="720.6" y2="653.2"/>
	</g>
	<g id="POLYLINE_4534_">
		<line class="st4" x1="720.6" y1="653.2" x2="714.2" y2="666.7"/>
	</g>
	<g id="LINE_610_">
		<line class="st4" x1="714.2" y1="666.7" x2="691.2" y2="783.7"/>
	</g>
	<g id="LINE_609_">
		<line class="st4" x1="370.2" y1="598.9" x2="315.6" y2="634.2"/>
	</g>
	<g id="POLYLINE_4533_">
		<polyline class="st4" points="315.6,634.2 213.2,603.2 208.2,593.9 191.8,588.9 		"/>
	</g>
	<g id="LINE_608_">
		<line class="st4" x1="386" y1="623.2" x2="331.4" y2="658.7"/>
	</g>
	<g id="POLYLINE_4532_">
		<polyline class="st4" points="331.4,658.7 317.8,764.9 324.4,773.2 322.2,790.1 		"/>
	</g>
	<g id="POLYLINE_4531_">
		<polyline class="st4" points="280,784.7 282.2,767.9 290.6,761.2 302,670.9 		"/>
	</g>
	<g id="POLYLINE_4530_">
		<line class="st4" x1="302" y1="670.9" x2="292.6" y2="656.1"/>
	</g>
	<g id="POLYLINE_4529_">
		<polyline class="st4" points="292.6,656.1 205.2,629.5 195.8,634.5 179.6,629.7 		"/>
	</g>
</g>
<g id="PLAN_x24_VITRAGE">
	<g id="POLYLINE_4973_">
		<polygon class="st3" points="581.8,462.2 536.2,456.6 540.2,418 568.4,420.4 661.4,318 582.6,243.8 571.6,256 554.8,256.9 
			540.2,243.4 539.4,226.6 550.8,214 416.6,19.4 337.4,242.2 351.8,251.2 355.4,267.9 344.6,284.4 328.2,288 314.6,279.4 
			255.4,370.2 372.2,446.6 399.2,436.9 412,472 367,488.4 384,533.7 349.8,546.2 339.8,519.5 205,479.4 177,583.7 192.2,588.5 
			200.2,603.2 194.6,622.2 179.6,630.2 164.2,625.5 67.6,812.1 277.4,800.2 279.4,784.5 292.8,774.1 312.4,776.5 322.8,789.9 
			320.8,805.9 426.8,822.1 446,683.5 425.8,663.5 452,637.1 484.2,669.9 517.4,636.5 542.4,661.7 525,679.1 544.6,820.2 
			544.8,821.7 652.8,803.7 650.8,788.5 660.8,775.9 679.4,773.7 692,783.5 693.8,798.7 851.4,820.2 856.2,789.7 942,758.5 
			912,672.1 932.6,649.1 816.4,540.7 803.4,548.9 787.8,545.2 777.8,529.5 781.4,513.7 794.2,505.6 738.2,411.6 617,485.4 
			614.4,512 577.6,508 		"/>
	</g>
	<g id="POLYLINE_4972_">
		<polygon class="st3" points="582.4,461.6 536.8,456.2 540.6,418.6 568.6,421 662.2,318 582.6,243 571.4,255.4 555,256.2 
			540.6,243.2 540,226.8 551.4,214 416.4,18.2 336.8,242.4 351.2,251.6 354.8,267.9 344.4,283.9 328.2,287.4 314.6,278.6 
			254.6,370.2 372.2,447.2 399,437.6 411.2,471.9 366.4,488 383.4,533.2 350.2,545.5 340.2,519 204.6,478.9 176.2,584.1 
			191.8,588.9 199.6,603.5 194,621.9 179.6,629.7 164,624.9 66.8,812.7 278,800.9 280,784.7 293,774.7 312,777.1 322.2,790.1 
			320.2,806.2 427.2,822.9 446.6,683.2 426.6,663.5 452,637.9 484.2,670.7 517.4,637.2 541.6,661.7 524.4,678.9 544,820.2 
			544.4,822.2 653.4,804.1 651.4,788.7 661,776.5 679.2,774.2 691.6,783.9 693.4,799.2 851.8,820.9 856.6,790.1 942.8,758.7 
			912.6,672.2 933.4,649.1 816.4,539.9 803.4,548.2 788,544.9 778.4,529.2 781.8,514 794.8,505.9 738.4,410.9 616.4,485 
			613.8,511.4 578.2,507.4 		"/>
	</g>
</g>
<g id="PLAN_x24_MOBILIER">
</g>
<g id="PLAN_x24_DETAIL">
	<g id="LINE_607_">
		<line class="st5" x1="436" y1="424.2" x2="442" y2="440.6"/>
	</g>
	<g id="LINE_606_">
		<line class="st5" x1="442" y1="440.6" x2="456.6" y2="435.2"/>
	</g>
	<g id="POLYLINE_4528_">
		<line class="st5" x1="414.8" y1="431.9" x2="420.6" y2="448.2"/>
	</g>
	<g id="LINE_605_">
		<line class="st5" x1="420.6" y1="448.2" x2="404.8" y2="454"/>
	</g>
	<g id="POLYLINE_4527_">
		<line class="st5" x1="408.6" y1="464.6" x2="424.4" y2="459"/>
	</g>
	<g id="POLYLINE_4526_">
		<line class="st5" x1="424.4" y1="459" x2="430.6" y2="476.2"/>
	</g>
	<g id="LINE_604_">
		<line class="st5" x1="457.4" y1="441" x2="443.8" y2="446"/>
	</g>
	<g id="LINE_603_">
		<line class="st5" x1="443.8" y1="446" x2="450.4" y2="463.9"/>
	</g>
	<g id="POLYLINE_4525_">
		<line class="st5" x1="446.8" y1="643.1" x2="435" y2="631.2"/>
	</g>
	<g id="POLYLINE_4524_">
		<line class="st5" x1="435" y1="631.2" x2="447.8" y2="618.2"/>
	</g>
	<g id="LINE_602_">
		<line class="st5" x1="438.8" y1="651.1" x2="427" y2="639.2"/>
	</g>
	<g id="POLYLINE_4523_">
		<line class="st5" x1="427" y1="639.2" x2="414.8" y2="651.7"/>
	</g>
	<g id="LINE_601_">
		<line class="st5" x1="400.6" y1="637.7" x2="412.8" y2="625.2"/>
	</g>
	<g id="LINE_600_">
		<line class="st5" x1="412.8" y1="625.2" x2="401" y2="613.7"/>
	</g>
	<g id="POLYLINE_4522_">
		<line class="st5" x1="520.8" y1="482.9" x2="516.2" y2="462"/>
	</g>
	<g id="POLYLINE_4521_">
		<line class="st5" x1="516.2" y1="462" x2="500" y2="474.6"/>
	</g>
	<g id="POLYLINE_4520_">
		<line class="st5" x1="500" y1="474.6" x2="488.8" y2="456.4"/>
	</g>
	<g id="POLYLINE_4519_">
		<line class="st5" x1="529.4" y1="468.6" x2="510.2" y2="477.6"/>
	</g>
	<g id="POLYLINE_4518_">
		<line class="st5" x1="510.2" y1="477.6" x2="503.6" y2="458.2"/>
	</g>
	<g id="POLYLINE_4517_">
		<line class="st5" x1="503.6" y1="458.2" x2="491.2" y2="473.2"/>
	</g>
	<g id="POLYLINE_4516_">
		<line class="st5" x1="423.2" y1="483" x2="443.2" y2="487.4"/>
	</g>
	<g id="POLYLINE_4515_">
		<line class="st5" x1="443.2" y1="487.4" x2="445.2" y2="466.4"/>
	</g>
	<g id="POLYLINE_4514_">
		<line class="st5" x1="445.2" y1="466.4" x2="462.2" y2="477"/>
	</g>
	<g id="POLYLINE_4513_">
		<line class="st5" x1="435.6" y1="494.6" x2="433" y2="474.2"/>
	</g>
	<g id="POLYLINE_4512_">
		<line class="st5" x1="433" y1="474.2" x2="453.2" y2="481.2"/>
	</g>
	<g id="POLYLINE_4511_">
		<line class="st5" x1="453.2" y1="481.2" x2="460" y2="460.2"/>
	</g>
	<g id="POLYLINE_4510_">
		<line class="st5" x1="400.4" y1="534.7" x2="417" y2="547.2"/>
	</g>
	<g id="POLYLINE_4509_">
		<line class="st5" x1="417" y1="547.2" x2="402.6" y2="562.1"/>
	</g>
	<g id="POLYLINE_4508_">
		<line class="st5" x1="402.6" y1="562.1" x2="421.2" y2="565.9"/>
	</g>
	<g id="POLYLINE_4507_">
		<line class="st5" x1="417" y1="536.1" x2="400.4" y2="548.7"/>
	</g>
	<g id="POLYLINE_4506_">
		<line class="st5" x1="400.4" y1="548.7" x2="418.8" y2="558.1"/>
	</g>
	<g id="POLYLINE_4505_">
		<line class="st5" x1="418.8" y1="558.1" x2="407" y2="575.1"/>
	</g>
	<g id="POLYLINE_4504_">
		<line class="st5" x1="437.2" y1="590.2" x2="433.8" y2="609.7"/>
	</g>
	<g id="POLYLINE_4503_">
		<line class="st5" x1="433.8" y1="609.7" x2="452.4" y2="601.7"/>
	</g>
	<g id="POLYLINE_4502_">
		<line class="st5" x1="452.4" y1="601.7" x2="457.4" y2="622.2"/>
	</g>
	<g id="POLYLINE_4501_">
		<line class="st5" x1="462.8" y1="606.2" x2="444.2" y2="616.2"/>
	</g>
	<g id="POLYLINE_4500_">
		<line class="st5" x1="444.2" y1="616.2" x2="444" y2="596.2"/>
	</g>
	<g id="POLYLINE_4499_">
		<line class="st5" x1="444" y1="596.2" x2="422.8" y2="599.5"/>
	</g>
	<g id="POLYLINE_4498_">
		<line class="st5" x1="507.2" y1="606.7" x2="527.8" y2="615.7"/>
	</g>
	<g id="POLYLINE_4497_">
		<line class="st5" x1="527.8" y1="615.7" x2="531" y2="592.7"/>
	</g>
	<g id="POLYLINE_4496_">
		<line class="st5" x1="531" y1="592.7" x2="555" y2="590.9"/>
	</g>
	<g id="POLYLINE_4495_">
		<line class="st5" x1="512.6" y1="622.5" x2="519.4" y2="601.1"/>
	</g>
	<g id="POLYLINE_4494_">
		<line class="st5" x1="519.4" y1="601.1" x2="542.2" y2="605.2"/>
	</g>
	<g id="POLYLINE_4493_">
		<line class="st5" x1="542.2" y1="605.2" x2="539.6" y2="583.5"/>
	</g>
	<g id="POLYLINE_4492_">
		<line class="st5" x1="565.4" y1="512.2" x2="553.2" y2="531.7"/>
	</g>
	<g id="POLYLINE_4491_">
		<line class="st5" x1="553.2" y1="531.7" x2="570.6" y2="546.5"/>
	</g>
	<g id="LINE_599_">
		<line class="st5" x1="570.6" y1="546.5" x2="585.2" y2="548.1"/>
	</g>
	<g id="POLYLINE_4490_">
		<line class="st5" x1="567.6" y1="564.5" x2="553.8" y2="545.5"/>
	</g>
	<g id="POLYLINE_4489_">
		<line class="st5" x1="553.8" y1="545.5" x2="569.8" y2="529.2"/>
	</g>
	<g id="POLYLINE_4488_">
		<line class="st5" x1="569.8" y1="529.2" x2="549.6" y2="518"/>
	</g>
	<g id="POLYLINE_4487_">
		<line class="st5" x1="570.6" y1="546.5" x2="552.2" y2="557.1"/>
	</g>
	<g id="POLYLINE_4486_">
		<line class="st5" x1="585" y1="525.2" x2="568.8" y2="523.5"/>
	</g>
	<g id="LINE_598_">
		<line class="st5" x1="585.4" y1="556.7" x2="569.6" y2="555.1"/>
	</g>
	<g id="LINE_597_">
		<line class="st5" x1="609.2" y1="559.2" x2="592.6" y2="557.5"/>
	</g>
	<g id="LINE_596_">
		<line class="st5" x1="585.4" y1="559.7" x2="569.2" y2="557.9"/>
	</g>
	<g id="LINE_595_">
		<line class="st5" x1="608.8" y1="562.1" x2="592.4" y2="560.2"/>
	</g>
	<g id="LINE_589_">
		<line class="st5" x1="585.2" y1="551.1" x2="570.4" y2="549.2"/>
	</g>
	<g id="LINE_588_">
		<line class="st5" x1="609.6" y1="553.7" x2="593" y2="551.9"/>
	</g>
	<g id="LINE_587_">
		<line class="st5" x1="585.4" y1="553.9" x2="570" y2="552.2"/>
	</g>
	<g id="LINE_586_">
		<line class="st5" x1="609.4" y1="556.5" x2="592.8" y2="554.7"/>
	</g>
	<g id="LINE_585_">
		<line class="st5" x1="585.2" y1="545.2" x2="570.6" y2="543.7"/>
	</g>
	<g id="LINE_584_">
		<line class="st5" x1="610.2" y1="548.1" x2="593.6" y2="546.2"/>
	</g>
	<g id="LINE_583_">
		<line class="st5" x1="610" y1="550.9" x2="593.4" y2="549.1"/>
	</g>
	<g id="LINE_582_">
		<line class="st5" x1="585.2" y1="539.7" x2="570.6" y2="538.1"/>
	</g>
	<g id="LINE_581_">
		<line class="st5" x1="610.8" y1="542.5" x2="594" y2="540.5"/>
	</g>
	<g id="LINE_580_">
		<line class="st5" x1="585.2" y1="542.5" x2="570.6" y2="540.9"/>
	</g>
	<g id="LINE_579_">
		<line class="st5" x1="610.6" y1="545.2" x2="593.8" y2="543.5"/>
	</g>
	<g id="LINE_578_">
		<line class="st5" x1="585" y1="533.9" x2="570.2" y2="532.2"/>
	</g>
	<g id="LINE_577_">
		<line class="st5" x1="611.4" y1="536.7" x2="594.6" y2="534.9"/>
	</g>
	<g id="LINE_576_">
		<line class="st5" x1="585" y1="536.7" x2="570.4" y2="535.1"/>
	</g>
	<g id="LINE_575_">
		<line class="st5" x1="611" y1="539.7" x2="594.4" y2="537.7"/>
	</g>
	<g id="LINE_574_">
		<line class="st5" x1="585" y1="531.1" x2="569.8" y2="529.2"/>
	</g>
	<g id="LINE_573_">
		<line class="st5" x1="611.6" y1="533.9" x2="594.8" y2="532.1"/>
	</g>
	<g id="LINE_572_">
		<line class="st5" x1="585" y1="528.1" x2="569.4" y2="526.5"/>
	</g>
	<g id="LINE_571_">
		<line class="st5" x1="611.8" y1="531.1" x2="595.2" y2="529.2"/>
	</g>
	<g id="POLYLINE_4485_">
		<line class="st5" x1="612.2" y1="528.2" x2="595.4" y2="526.5"/>
	</g>
	<g id="LINE_570_">
		<line class="st5" x1="416.8" y1="621.2" x2="406" y2="610.5"/>
	</g>
	<g id="LINE_569_">
		<line class="st5" x1="414.8" y1="623.2" x2="403.4" y2="612.1"/>
	</g>
	<g id="LINE_568_">
		<line class="st5" x1="432.4" y1="629.7" x2="445.2" y2="616.9"/>
	</g>
	<g id="LINE_567_">
		<line class="st5" x1="430" y1="628.2" x2="442.6" y2="615.5"/>
	</g>
	<g id="LINE_566_">
		<line class="st5" x1="427.4" y1="626.7" x2="440.2" y2="613.9"/>
	</g>
	<g id="LINE_565_">
		<line class="st5" x1="424.8" y1="625.2" x2="437.6" y2="612.2"/>
	</g>
	<g id="LINE_564_">
		<line class="st5" x1="417.4" y1="620.9" x2="430.8" y2="607.2"/>
	</g>
	<g id="LINE_563_">
		<line class="st5" x1="419.8" y1="622.2" x2="433" y2="609.1"/>
	</g>
	<g id="LINE_562_">
		<line class="st5" x1="422.4" y1="623.7" x2="435.4" y2="610.7"/>
	</g>
	<g id="POLYLINE_4484_">
		<line class="st5" x1="444.8" y1="645.1" x2="433" y2="633.2"/>
	</g>
	<g id="LINE_561_">
		<line class="st5" x1="442.8" y1="647.1" x2="431" y2="635.2"/>
	</g>
	<g id="LINE_560_">
		<line class="st5" x1="440.8" y1="649.1" x2="429" y2="637.2"/>
	</g>
	<g id="LINE_559_">
		<line class="st5" x1="402.6" y1="639.7" x2="414.8" y2="627.2"/>
	</g>
	<g id="LINE_558_">
		<line class="st5" x1="404.6" y1="641.7" x2="416.8" y2="629.2"/>
	</g>
	<g id="LINE_557_">
		<line class="st5" x1="406.6" y1="643.7" x2="418.8" y2="631.2"/>
	</g>
	<g id="LINE_556_">
		<line class="st5" x1="408.6" y1="645.7" x2="421" y2="633.2"/>
	</g>
	<g id="LINE_555_">
		<line class="st5" x1="410.6" y1="647.7" x2="423" y2="635.2"/>
	</g>
	<g id="LINE_554_">
		<line class="st5" x1="412.8" y1="649.7" x2="425" y2="637.2"/>
	</g>
	<g id="LINE_553_">
		<line class="st5" x1="426.8" y1="457.2" x2="433" y2="474.2"/>
	</g>
	<g id="LINE_552_">
		<line class="st5" x1="429.4" y1="455.6" x2="435.4" y2="472.4"/>
	</g>
	<g id="LINE_551_">
		<line class="st5" x1="431.8" y1="454" x2="437.8" y2="470.9"/>
	</g>
	<g id="LINE_530_">
		<line class="st5" x1="434.2" y1="452.4" x2="440.2" y2="469.2"/>
	</g>
	<g id="LINE_529_">
		<line class="st5" x1="436.6" y1="450.9" x2="442.8" y2="467.9"/>
	</g>
	<g id="LINE_528_">
		<line class="st5" x1="439" y1="449.2" x2="445.2" y2="466.4"/>
	</g>
	<g id="LINE_527_">
		<line class="st5" x1="441.4" y1="447.6" x2="447.8" y2="465"/>
	</g>
	<g id="LINE_526_">
		<line class="st5" x1="417.4" y1="431" x2="423.2" y2="447.2"/>
	</g>
	<g id="LINE_525_">
		<line class="st5" x1="420" y1="430" x2="426" y2="446.4"/>
	</g>
	<g id="LINE_524_">
		<line class="st5" x1="422.8" y1="429" x2="428.6" y2="445.4"/>
	</g>
	<g id="LINE_523_">
		<line class="st5" x1="425.4" y1="428" x2="431.2" y2="444.4"/>
	</g>
	<g id="LINE_522_">
		<line class="st5" x1="428" y1="427" x2="434" y2="443.4"/>
	</g>
	<g id="LINE_521_">
		<line class="st5" x1="430.8" y1="426.2" x2="436.6" y2="442.4"/>
	</g>
	<g id="LINE_520_">
		<line class="st5" x1="433.4" y1="425.2" x2="439.2" y2="441.6"/>
	</g>
	<g id="LINE_519_">
		<line class="st5" x1="405.8" y1="456.6" x2="421.6" y2="451"/>
	</g>
	<g id="LINE_518_">
		<line class="st5" x1="406.8" y1="459.2" x2="422.6" y2="453.6"/>
	</g>
	<g id="POLYLINE_4483_">
		<line class="st5" x1="407.8" y1="462" x2="423.6" y2="456.2"/>
	</g>
	<g id="LINE_517_">
		<line class="st5" x1="443" y1="443.2" x2="457" y2="438.2"/>
	</g>
</g>
<g id="PLAN_x24_CLOISON_TRANSLUCIDE">
</g>
<g id="PLAN_x24_CLOISON_1.3">
</g>
<g id="PLAN_x24_CLOISON_1.2">
</g>
<g id="PLAN_x24_CLOISON_1.1">
	<g id="ARC_120_">
		<path class="st6" d="M552.2,557.1c3-13,2.2-26.6-2.4-39.2"/>
	</g>
	<g id="ARC_119_">
		<path class="st6" d="M549.6,518c-13-35.6-52.4-53.8-88-40.6s-53.8,52.4-40.6,88s52.4,53.8,88,40.6c21.6-8,37.8-26.4,43-48.8"/>
	</g>
	<g id="POLYLINE_4620_">
		<line class="st6" x1="613.8" y1="511.4" x2="606.8" y2="583.1"/>
	</g>
	<g id="LINE_686_">
		<line class="st6" x1="606.8" y1="583.1" x2="552.2" y2="557.1"/>
	</g>
	<g id="POLYLINE_4619_">
		<line class="st6" x1="399" y1="437.6" x2="454.4" y2="417.6"/>
	</g>
	<g id="LINE_685_">
		<line class="st6" x1="454.4" y1="417.6" x2="462.2" y2="477"/>
	</g>
	<g id="POLYLINE_4618_">
		<line class="st6" x1="540.6" y1="418.6" x2="483.2" y2="413.9"/>
	</g>
	<g id="LINE_684_">
		<line class="st6" x1="483.2" y1="413.9" x2="491.2" y2="473.2"/>
	</g>
	<g id="POLYLINE_4617_">
		<line class="st6" x1="541.6" y1="661.7" x2="594.4" y2="609.5"/>
	</g>
	<g id="POLYLINE_4616_">
		<line class="st6" x1="594.4" y1="609.5" x2="606.8" y2="583.1"/>
	</g>
	<g id="POLYLINE_4615_">
		<line class="st6" x1="426.6" y1="663.5" x2="386" y2="623.2"/>
	</g>
	<g id="LINE_683_">
		<line class="st6" x1="386" y1="623.2" x2="437.2" y2="590.2"/>
	</g>
	<g id="LINE_682_">
		<line class="st6" x1="421.2" y1="565.9" x2="370.2" y2="598.9"/>
	</g>
	<g id="POLYLINE_4614_">
		<line class="st6" x1="370.2" y1="598.9" x2="350.2" y2="545.5"/>
	</g>
	<g id="POLYLINE_4613_">
		<line class="st6" x1="444" y1="596.2" x2="433.8" y2="609.7"/>
	</g>
	<g id="POLYLINE_4612_">
		<line class="st6" x1="418.8" y1="558.1" x2="402.6" y2="562.1"/>
	</g>
	<g id="POLYLINE_4611_">
		<line class="st6" x1="417" y1="547.2" x2="400.4" y2="548.7"/>
	</g>
	<g id="LINE_681_">
		<line class="st6" x1="594.4" y1="609.5" x2="539.6" y2="583.5"/>
	</g>
	<g id="POLYLINE_4610_">
		<line class="st6" x1="553.2" y1="531.7" x2="569.8" y2="529.2"/>
	</g>
	<g id="POLYLINE_4609_">
		<line class="st6" x1="570.6" y1="546.5" x2="553.8" y2="545.5"/>
	</g>
	<g id="POLYLINE_4608_">
		<line class="st6" x1="549.6" y1="518" x2="578.2" y2="507.4"/>
	</g>
	<g id="POLYLINE_4607_">
		<line class="st6" x1="453.2" y1="481.2" x2="445.2" y2="466.4"/>
	</g>
	<g id="POLYLINE_4606_">
		<line class="st6" x1="500" y1="474.6" x2="503.6" y2="458.2"/>
	</g>
	<g id="POLYLINE_4605_">
		<line class="st6" x1="510.2" y1="477.6" x2="516.2" y2="462"/>
	</g>
	<g id="POLYLINE_4604_">
		<line class="st6" x1="520.8" y1="482.9" x2="536.8" y2="456.2"/>
	</g>
	<g id="POLYLINE_4603_">
		<line class="st6" x1="443.2" y1="487.4" x2="433" y2="474.2"/>
	</g>
	<g id="POLYLINE_4602_">
		<line class="st6" x1="435.6" y1="494.6" x2="411.2" y2="471.9"/>
	</g>
	<g id="POLYLINE_4601_">
		<line class="st6" x1="417" y1="536.1" x2="383.4" y2="533.2"/>
	</g>
	<g id="POLYLINE_4600_">
		<line class="st6" x1="452.4" y1="601.7" x2="444.2" y2="616.2"/>
	</g>
	<g id="POLYLINE_4599_">
		<line class="st6" x1="542.2" y1="605.2" x2="531" y2="592.7"/>
	</g>
	<g id="POLYLINE_4598_">
		<line class="st6" x1="519.4" y1="601.1" x2="527.8" y2="615.7"/>
	</g>
	<g id="POLYLINE_4597_">
		<line class="st6" x1="462.8" y1="606.2" x2="452" y2="637.9"/>
	</g>
	<g id="POLYLINE_4596_">
		<line class="st6" x1="507.2" y1="606.7" x2="517.4" y2="637.2"/>
	</g>
	<g id="POLYLINE_4595_">
		<line class="st6" x1="386" y1="623.2" x2="370.2" y2="598.9"/>
	</g>
	<g id="POLYLINE_4594_">
		<polygon class="st6" points="585,525.2 585.4,559.7 592.4,560.2 595.4,526.5 		"/>
	</g>
	<g id="POLYLINE_4593_">
		<polygon class="st6" points="412.8,625.2 427,639.2 435,631.2 417.4,620.9 		"/>
	</g>
	<g id="POLYLINE_4592_">
		<polygon class="st6" points="424.4,459 443.8,446 442,440.6 420.6,448.2 		"/>
	</g>
	<g id="ARC_118_">
		<path class="st6" d="M460,460.2c-45,14-70,61.8-56,106.8c14,45,61.8,70,106.8,56s70-61.8,56-106.8c-10.8-34.4-42-58.4-78-59.8"/>
	</g>
	<g id="POLYLINE_4591_">
		<line class="st6" x1="483.2" y1="413.9" x2="454.4" y2="417.6"/>
	</g>
</g>
<g id="PLAN_x24_STRUCTURE_2.3">
</g>
<g id="PLAN_x24_STRUCTURE_2.2">
</g>
<g id="PLAN_x24_STRUCTURE_2.1">
</g>
<g id="PLAN_x24_STRUCTURE_1.3">
</g>
<g id="PLAN_x24_STRUCTURE_1.2">
	<g id="POLYLINE_4450_">
		<line class="st7" x1="857.2" y1="791.7" x2="856" y2="788.2"/>
	</g>
	<g id="POLYLINE_4449_">
		<line class="st7" x1="856" y1="788.2" x2="857.2" y2="791.7"/>
	</g>
	<g id="POLYLINE_4448_">
		<line class="st7" x1="914.2" y1="671.7" x2="910.8" y2="672.9"/>
	</g>
	<g id="POLYLINE_4447_">
		<line class="st7" x1="910.8" y1="672.9" x2="914.2" y2="671.7"/>
	</g>
	<g id="POLYLINE_4446_">
		<line class="st7" x1="123.6" y1="811.2" x2="123.4" y2="807.7"/>
	</g>
	<g id="POLYLINE_4445_">
		<line class="st7" x1="123.4" y1="807.7" x2="123.6" y2="811.2"/>
	</g>
	<g id="POLYLINE_4444_">
		<line class="st7" x1="193.8" y1="807.5" x2="193.6" y2="803.9"/>
	</g>
	<g id="POLYLINE_4443_">
		<line class="st7" x1="193.6" y1="803.9" x2="193.8" y2="807.5"/>
	</g>
	<g id="POLYLINE_4442_">
		<line class="st7" x1="91.2" y1="761.2" x2="94.4" y2="763.1"/>
	</g>
	<g id="POLYLINE_4441_">
		<line class="st7" x1="94.4" y1="763.1" x2="91.2" y2="761.2"/>
	</g>
	<g id="POLYLINE_4440_">
		<line class="st7" x1="123.6" y1="698.9" x2="126.8" y2="700.7"/>
	</g>
	<g id="POLYLINE_4439_">
		<line class="st7" x1="126.8" y1="700.7" x2="123.6" y2="698.9"/>
	</g>
	<g id="POLYLINE_4438_">
		<line class="st7" x1="308.6" y1="291" x2="305.6" y2="289"/>
	</g>
	<g id="POLYLINE_4437_">
		<line class="st7" x1="301" y1="302.4" x2="298" y2="300.4"/>
	</g>
	<g id="POLYLINE_4178_">
		<line class="st7" x1="293.6" y1="313.9" x2="290.6" y2="312"/>
	</g>
	<g id="POLYLINE_4177_">
		<line class="st7" x1="286" y1="325.4" x2="283" y2="323.4"/>
	</g>
	<g id="POLYLINE_4176_">
		<line class="st7" x1="278.6" y1="336.9" x2="275.6" y2="334.9"/>
	</g>
	<g id="POLYLINE_4175_">
		<line class="st7" x1="271.2" y1="348.2" x2="268.2" y2="346.2"/>
	</g>
	<g id="POLYLINE_4174_">
		<line class="st7" x1="263.6" y1="359.6" x2="260.6" y2="357.6"/>
	</g>
	<g id="POLYLINE_4173_">
		<line class="st7" x1="399.6" y1="436" x2="398.2" y2="439.2"/>
	</g>
	<g id="POLYLINE_4172_">
		<line class="st7" x1="404.8" y1="448.6" x2="401.4" y2="449.9"/>
	</g>
	<g id="POLYLINE_4171_">
		<line class="st7" x1="409" y1="460.2" x2="405.6" y2="461.4"/>
	</g>
	<g id="POLYLINE_4170_">
		<line class="st7" x1="384.8" y1="440.4" x2="386.2" y2="443.9"/>
	</g>
	<g id="POLYLINE_4169_">
		<line class="st7" x1="359.4" y1="441" x2="361.4" y2="438"/>
	</g>
	<g id="POLYLINE_4168_">
		<line class="st7" x1="347.6" y1="433.4" x2="349.6" y2="430.2"/>
	</g>
	<g id="POLYLINE_4167_">
		<line class="st7" x1="335.8" y1="425.9" x2="337.8" y2="422.6"/>
	</g>
	<g id="POLYLINE_4166_">
		<line class="st7" x1="324" y1="418" x2="326.2" y2="414.9"/>
	</g>
	<g id="POLYLINE_4165_">
		<line class="st7" x1="312.4" y1="410.4" x2="314.4" y2="407.2"/>
	</g>
	<g id="POLYLINE_4164_">
		<line class="st7" x1="300.6" y1="402.6" x2="302.6" y2="399.4"/>
	</g>
	<g id="POLYLINE_4163_">
		<line class="st7" x1="288.8" y1="395" x2="290.8" y2="391.9"/>
	</g>
	<g id="POLYLINE_4162_">
		<line class="st7" x1="277" y1="387.2" x2="279" y2="384.2"/>
	</g>
	<g id="POLYLINE_4161_">
		<line class="st7" x1="265.2" y1="379.6" x2="267.4" y2="376.4"/>
	</g>
	<g id="POLYLINE_4160_">
		<line class="st7" x1="256.4" y1="370" x2="252.8" y2="370.6"/>
	</g>
	<g id="POLYLINE_4159_">
		<line class="st7" x1="371.6" y1="449" x2="372.6" y2="445.4"/>
	</g>
	<g id="POLYLINE_4158_">
		<line class="st7" x1="579.2" y1="412" x2="576.6" y2="409.4"/>
	</g>
	<g id="POLYLINE_4157_">
		<line class="st7" x1="588.6" y1="401.6" x2="586" y2="399.2"/>
	</g>
	<g id="POLYLINE_4156_">
		<line class="st7" x1="598" y1="391.4" x2="595.2" y2="388.9"/>
	</g>
	<g id="POLYLINE_4155_">
		<line class="st7" x1="607.4" y1="381" x2="604.6" y2="378.6"/>
	</g>
	<g id="POLYLINE_4154_">
		<line class="st7" x1="616.8" y1="370.6" x2="614" y2="368.2"/>
	</g>
	<g id="POLYLINE_4153_">
		<line class="st7" x1="626.2" y1="360.4" x2="623.4" y2="358"/>
	</g>
	<g id="POLYLINE_4152_">
		<line class="st7" x1="635.4" y1="350" x2="632.8" y2="347.6"/>
	</g>
	<g id="POLYLINE_4151_">
		<line class="st7" x1="644.8" y1="339.9" x2="642" y2="337.4"/>
	</g>
	<g id="POLYLINE_4150_">
		<line class="st7" x1="654.2" y1="329.4" x2="651.4" y2="327"/>
	</g>
	<g id="POLYLINE_4149_">
		<line class="st7" x1="663.6" y1="319.2" x2="660.8" y2="316.6"/>
	</g>
	<g id="POLYLINE_4148_">
		<line class="st7" x1="660.4" y1="318" x2="664" y2="317.9"/>
	</g>
	<g id="POLYLINE_4147_">
		<line class="st7" x1="582.4" y1="241.4" x2="582.6" y2="244.8"/>
	</g>
	<g id="POLYLINE_4146_">
		<line class="st7" x1="651" y1="309.9" x2="653.4" y2="307.2"/>
	</g>
	<g id="POLYLINE_4145_">
		<line class="st7" x1="641" y1="300.6" x2="643.6" y2="298"/>
	</g>
	<g id="POLYLINE_4144_">
		<line class="st7" x1="631.2" y1="291.2" x2="633.6" y2="288.6"/>
	</g>
	<g id="POLYLINE_4143_">
		<line class="st7" x1="621.2" y1="281.9" x2="623.6" y2="279.2"/>
	</g>
	<g id="POLYLINE_4142_">
		<line class="st7" x1="611.2" y1="272.4" x2="613.6" y2="269.9"/>
	</g>
	<g id="POLYLINE_4141_">
		<line class="st7" x1="601.2" y1="263.2" x2="603.6" y2="260.5"/>
	</g>
	<g id="POLYLINE_4140_">
		<line class="st7" x1="591.2" y1="253.8" x2="593.8" y2="251.2"/>
	</g>
	<g id="POLYLINE_4139_">
		<line class="st7" x1="555.6" y1="254.6" x2="554.2" y2="257.9"/>
	</g>
	<g id="POLYLINE_4138_">
		<line class="st7" x1="542.2" y1="242.4" x2="539.2" y2="244"/>
	</g>
	<g id="POLYLINE_4137_">
		<line class="st7" x1="570.6" y1="253.8" x2="572" y2="257"/>
	</g>
	<g id="POLYLINE_4136_">
		<line class="st7" x1="541.6" y1="227.2" x2="538.2" y2="226.2"/>
	</g>
	<g id="POLYLINE_4135_">
		<line class="st7" x1="314.2" y1="276.9" x2="314.8" y2="280.4"/>
	</g>
	<g id="POLYLINE_4134_">
		<line class="st7" x1="343.2" y1="282.4" x2="345.4" y2="285.4"/>
	</g>
	<g id="POLYLINE_4133_">
		<line class="st7" x1="353" y1="267.5" x2="356.4" y2="268.2"/>
	</g>
	<g id="POLYLINE_4132_">
		<line class="st7" x1="328.4" y1="285.6" x2="328" y2="289.2"/>
	</g>
	<g id="POLYLINE_4131_">
		<line class="st7" x1="349.6" y1="252.6" x2="352.8" y2="250.6"/>
	</g>
	<g id="POLYLINE_4130_">
		<line class="st7" x1="413.8" y1="31.2" x2="410.2" y2="30"/>
	</g>
	<g id="POLYLINE_4129_">
		<line class="st7" x1="409.4" y1="43.6" x2="405.8" y2="42.4"/>
	</g>
	<g id="POLYLINE_4128_">
		<line class="st7" x1="405" y1="56.2" x2="401.4" y2="55"/>
	</g>
	<g id="POLYLINE_4127_">
		<line class="st7" x1="400.4" y1="68.7" x2="397" y2="67.4"/>
	</g>
	<g id="POLYLINE_4126_">
		<line class="st7" x1="396" y1="81.1" x2="392.6" y2="79.8"/>
	</g>
	<g id="POLYLINE_4125_">
		<line class="st7" x1="391.6" y1="93.7" x2="388.2" y2="92.2"/>
	</g>
	<g id="POLYLINE_4124_">
		<line class="st7" x1="387.2" y1="106.1" x2="383.8" y2="104.8"/>
	</g>
	<g id="POLYLINE_4123_">
		<line class="st7" x1="382.8" y1="118.5" x2="379.2" y2="117.2"/>
	</g>
	<g id="POLYLINE_4122_">
		<line class="st7" x1="378.4" y1="130.8" x2="374.8" y2="129.6"/>
	</g>
	<g id="POLYLINE_4121_">
		<line class="st7" x1="374" y1="143.4" x2="370.4" y2="142"/>
	</g>
	<g id="POLYLINE_4120_">
		<line class="st7" x1="369.4" y1="155.8" x2="366" y2="154.6"/>
	</g>
	<g id="POLYLINE_4119_">
		<line class="st7" x1="365" y1="168.2" x2="361.6" y2="167"/>
	</g>
	<g id="POLYLINE_4118_">
		<line class="st7" x1="360.6" y1="180.6" x2="357.2" y2="179.4"/>
	</g>
	<g id="POLYLINE_4117_">
		<line class="st7" x1="356.2" y1="193.2" x2="352.8" y2="192"/>
	</g>
	<g id="POLYLINE_4116_">
		<line class="st7" x1="351.8" y1="205.6" x2="348.2" y2="204.4"/>
	</g>
	<g id="POLYLINE_4115_">
		<line class="st7" x1="347.4" y1="218" x2="343.8" y2="216.8"/>
	</g>
	<g id="POLYLINE_4114_">
		<line class="st7" x1="343" y1="230.6" x2="339.4" y2="229.2"/>
	</g>
	<g id="POLYLINE_4113_">
		<line class="st7" x1="338.6" y1="241.8" x2="335" y2="242.8"/>
	</g>
	<g id="POLYLINE_4112_">
		<line class="st7" x1="416.6" y1="20" x2="416.2" y2="16.4"/>
	</g>
	<g id="POLYLINE_4111_">
		<line class="st7" x1="549.6" y1="214" x2="553.4" y2="214"/>
	</g>
	<g id="POLYLINE_4110_">
		<line class="st7" x1="542.4" y1="204.2" x2="545.6" y2="202.2"/>
	</g>
	<g id="POLYLINE_4109_">
		<line class="st7" x1="535" y1="193.4" x2="538" y2="191.2"/>
	</g>
	<g id="POLYLINE_4108_">
		<line class="st7" x1="527.4" y1="182.4" x2="530.4" y2="180.4"/>
	</g>
	<g id="POLYLINE_4107_">
		<line class="st7" x1="520" y1="171.6" x2="523" y2="169.4"/>
	</g>
	<g id="POLYLINE_4106_">
		<line class="st7" x1="512.4" y1="160.6" x2="515.4" y2="158.6"/>
	</g>
	<g id="POLYLINE_4105_">
		<line class="st7" x1="505" y1="149.8" x2="508" y2="147.8"/>
	</g>
	<g id="POLYLINE_4104_">
		<line class="st7" x1="497.4" y1="139.1" x2="500.4" y2="136.8"/>
	</g>
	<g id="POLYLINE_4103_">
		<line class="st7" x1="490" y1="128.1" x2="493" y2="126.1"/>
	</g>
	<g id="POLYLINE_4102_">
		<line class="st7" x1="482.4" y1="117.2" x2="485.4" y2="115.1"/>
	</g>
	<g id="POLYLINE_4101_">
		<line class="st7" x1="475" y1="106.2" x2="478" y2="104.2"/>
	</g>
	<g id="POLYLINE_4100_">
		<line class="st7" x1="467.4" y1="95.5" x2="470.4" y2="93.2"/>
	</g>
	<g id="POLYLINE_4099_">
		<line class="st7" x1="460" y1="84.7" x2="463" y2="82.5"/>
	</g>
	<g id="POLYLINE_4098_">
		<line class="st7" x1="452.4" y1="73.7" x2="455.4" y2="71.7"/>
	</g>
	<g id="POLYLINE_4097_">
		<line class="st7" x1="445" y1="62.8" x2="448" y2="60.6"/>
	</g>
	<g id="POLYLINE_4096_">
		<line class="st7" x1="437.4" y1="51.8" x2="440.4" y2="49.8"/>
	</g>
	<g id="POLYLINE_4095_">
		<line class="st7" x1="430" y1="41" x2="433" y2="38.8"/>
	</g>
	<g id="POLYLINE_4094_">
		<line class="st7" x1="422.4" y1="30" x2="425.4" y2="28"/>
	</g>
	<g id="POLYLINE_4093_">
		<line class="st7" x1="569.4" y1="422.6" x2="567.6" y2="419.4"/>
	</g>
	<g id="POLYLINE_4092_">
		<line class="st7" x1="552.8" y1="421.6" x2="553" y2="417.9"/>
	</g>
	<g id="POLYLINE_4091_">
		<line class="st7" x1="542" y1="420" x2="539.4" y2="417.4"/>
	</g>
	<g id="POLYLINE_4090_">
		<line class="st7" x1="541.2" y1="432.2" x2="537.4" y2="431.9"/>
	</g>
	<g id="POLYLINE_4089_">
		<line class="st7" x1="540" y1="444.4" x2="536.2" y2="444.2"/>
	</g>
	<g id="POLYLINE_4088_">
		<line class="st7" x1="551.4" y1="459.9" x2="551.6" y2="456"/>
	</g>
	<g id="POLYLINE_4087_">
		<line class="st7" x1="567" y1="461.6" x2="567" y2="458"/>
	</g>
	<g id="POLYLINE_4086_">
		<line class="st7" x1="581" y1="462.9" x2="584" y2="460.4"/>
	</g>
	<g id="POLYLINE_4085_">
		<line class="st7" x1="579.2" y1="476.9" x2="583" y2="477.2"/>
	</g>
	<g id="POLYLINE_4084_">
		<line class="st7" x1="577.8" y1="492.4" x2="581.4" y2="492.6"/>
	</g>
	<g id="POLYLINE_4083_">
		<line class="st7" x1="612.6" y1="510" x2="615.2" y2="512.7"/>
	</g>
	<g id="POLYLINE_4082_">
		<line class="st7" x1="590.4" y1="506.9" x2="590" y2="510.6"/>
	</g>
	<g id="POLYLINE_4081_">
		<line class="st7" x1="602.4" y1="508.2" x2="602" y2="511.9"/>
	</g>
	<g id="POLYLINE_4080_">
		<line class="st7" x1="531.2" y1="669.5" x2="533.8" y2="672.2"/>
	</g>
	<g id="POLYLINE_4079_">
		<line class="st7" x1="522.6" y1="678.2" x2="526.2" y2="679.5"/>
	</g>
	<g id="POLYLINE_4078_">
		<line class="st7" x1="533.4" y1="655.9" x2="536" y2="653.2"/>
	</g>
	<g id="POLYLINE_4077_">
		<line class="st7" x1="523.4" y1="645.9" x2="526" y2="643.5"/>
	</g>
	<g id="POLYLINE_4076_">
		<line class="st7" x1="540" y1="661.7" x2="543.4" y2="661.7"/>
	</g>
	<g id="POLYLINE_4075_">
		<line class="st7" x1="614.2" y1="484.6" x2="617.8" y2="485.6"/>
	</g>
	<g id="POLYLINE_4074_">
		<line class="st7" x1="796.6" y1="506.2" x2="793.2" y2="505.4"/>
	</g>
	<g id="POLYLINE_4073_">
		<line class="st7" x1="738.8" y1="409" x2="737.8" y2="412.6"/>
	</g>
	<g id="POLYLINE_4072_">
		<line class="st7" x1="789.2" y1="492.9" x2="786.2" y2="494.9"/>
	</g>
	<g id="POLYLINE_4071_">
		<line class="st7" x1="782.2" y1="480.9" x2="779" y2="482.6"/>
	</g>
	<g id="POLYLINE_4070_">
		<line class="st7" x1="775" y1="468.9" x2="771.8" y2="470.6"/>
	</g>
	<g id="POLYLINE_4069_">
		<line class="st7" x1="767.8" y1="456.6" x2="764.6" y2="458.4"/>
	</g>
	<g id="POLYLINE_4068_">
		<line class="st7" x1="760.6" y1="444.6" x2="757.4" y2="446.4"/>
	</g>
	<g id="POLYLINE_4067_">
		<line class="st7" x1="753.4" y1="432.4" x2="750.2" y2="434.4"/>
	</g>
	<g id="POLYLINE_4066_">
		<line class="st7" x1="746.2" y1="420.4" x2="743" y2="422.2"/>
	</g>
	<g id="POLYLINE_4065_">
		<line class="st7" x1="726" y1="416.2" x2="728" y2="419.4"/>
	</g>
	<g id="POLYLINE_4064_">
		<line class="st7" x1="713.6" y1="423.6" x2="715.6" y2="426.9"/>
	</g>
	<g id="POLYLINE_4063_">
		<line class="st7" x1="701.2" y1="431" x2="703.2" y2="434.2"/>
	</g>
	<g id="POLYLINE_4062_">
		<line class="st7" x1="688.8" y1="438.6" x2="690.8" y2="441.9"/>
	</g>
	<g id="POLYLINE_4061_">
		<line class="st7" x1="676.4" y1="446" x2="678.4" y2="449.2"/>
	</g>
	<g id="POLYLINE_4060_">
		<line class="st7" x1="664" y1="453.4" x2="666" y2="456.6"/>
	</g>
	<g id="POLYLINE_4059_">
		<line class="st7" x1="651.6" y1="461" x2="653.6" y2="464.2"/>
	</g>
	<g id="POLYLINE_4058_">
		<line class="st7" x1="639.2" y1="468.4" x2="641.2" y2="471.6"/>
	</g>
	<g id="POLYLINE_4057_">
		<line class="st7" x1="626.8" y1="475.9" x2="628.6" y2="479"/>
	</g>
	<g id="POLYLINE_4056_">
		<line class="st7" x1="803.2" y1="546.5" x2="803.6" y2="550.1"/>
	</g>
	<g id="POLYLINE_4055_">
		<line class="st7" x1="789.2" y1="543.2" x2="787" y2="546.2"/>
	</g>
	<g id="POLYLINE_4054_">
		<line class="st7" x1="780.2" y1="528.9" x2="776.6" y2="529.7"/>
	</g>
	<g id="POLYLINE_4053_">
		<line class="st7" x1="783.4" y1="515" x2="780.2" y2="513"/>
	</g>
	<g id="POLYLINE_4052_">
		<line class="st7" x1="816.8" y1="538.2" x2="816" y2="541.7"/>
	</g>
	<g id="POLYLINE_4051_">
		<line class="st7" x1="935.2" y1="648.9" x2="931.8" y2="649.1"/>
	</g>
	<g id="POLYLINE_4050_">
		<line class="st7" x1="924.4" y1="661.7" x2="921.6" y2="659.5"/>
	</g>
	<g id="POLYLINE_4049_">
		<line class="st7" x1="925" y1="638.7" x2="922.6" y2="641.2"/>
	</g>
	<g id="POLYLINE_4048_">
		<line class="st7" x1="915.2" y1="629.5" x2="912.8" y2="632.1"/>
	</g>
	<g id="POLYLINE_4047_">
		<line class="st7" x1="905.4" y1="620.5" x2="903" y2="623.1"/>
	</g>
	<g id="POLYLINE_4046_">
		<line class="st7" x1="895.6" y1="611.2" x2="893.2" y2="613.9"/>
	</g>
	<g id="POLYLINE_4045_">
		<line class="st7" x1="886" y1="602.2" x2="883.4" y2="604.9"/>
	</g>
	<g id="POLYLINE_4044_">
		<line class="st7" x1="876.2" y1="593.1" x2="873.8" y2="595.9"/>
	</g>
	<g id="POLYLINE_4043_">
		<line class="st7" x1="866.4" y1="584.1" x2="864" y2="586.7"/>
	</g>
	<g id="POLYLINE_4042_">
		<line class="st7" x1="856.6" y1="575.1" x2="854.2" y2="577.7"/>
	</g>
	<g id="POLYLINE_4041_">
		<line class="st7" x1="847" y1="565.9" x2="844.4" y2="568.5"/>
	</g>
	<g id="POLYLINE_4040_">
		<line class="st7" x1="837.2" y1="556.9" x2="834.8" y2="559.5"/>
	</g>
	<g id="POLYLINE_4039_">
		<line class="st7" x1="827.4" y1="547.7" x2="825" y2="550.2"/>
	</g>
	<g id="POLYLINE_4038_">
		<line class="st7" x1="940.2" y1="745.9" x2="936.8" y2="747.1"/>
	</g>
	<g id="POLYLINE_4037_">
		<line class="st7" x1="935.8" y1="733.5" x2="932.4" y2="734.7"/>
	</g>
	<g id="POLYLINE_4036_">
		<line class="st7" x1="931.6" y1="721.1" x2="928.2" y2="722.2"/>
	</g>
	<g id="POLYLINE_4035_">
		<line class="st7" x1="927.2" y1="708.7" x2="923.8" y2="709.9"/>
	</g>
	<g id="POLYLINE_4034_">
		<line class="st7" x1="922.8" y1="696.5" x2="919.4" y2="697.5"/>
	</g>
	<g id="POLYLINE_4033_">
		<line class="st7" x1="918.6" y1="684.1" x2="915.2" y2="685.2"/>
	</g>
	<g id="POLYLINE_4032_">
		<line class="st7" x1="944.4" y1="759.5" x2="941.2" y2="758.1"/>
	</g>
	<g id="POLYLINE_4031_">
		<line class="st7" x1="869.6" y1="787.2" x2="868.4" y2="783.9"/>
	</g>
	<g id="POLYLINE_4030_">
		<line class="st7" x1="881.8" y1="782.7" x2="880.6" y2="779.5"/>
	</g>
	<g id="POLYLINE_4029_">
		<line class="st7" x1="894.2" y1="778.2" x2="893" y2="774.9"/>
	</g>
	<g id="POLYLINE_4028_">
		<line class="st7" x1="906.4" y1="773.9" x2="905.2" y2="770.5"/>
	</g>
	<g id="POLYLINE_4027_">
		<line class="st7" x1="918.8" y1="769.2" x2="917.6" y2="766.1"/>
	</g>
	<g id="POLYLINE_4026_">
		<line class="st7" x1="931" y1="764.9" x2="929.8" y2="761.5"/>
	</g>
	<g id="POLYLINE_4025_">
		<line class="st7" x1="706.4" y1="802.7" x2="706.8" y2="799.2"/>
	</g>
	<g id="POLYLINE_4024_">
		<line class="st7" x1="719.6" y1="804.7" x2="720" y2="801.1"/>
	</g>
	<g id="POLYLINE_4023_">
		<line class="st7" x1="732.8" y1="806.5" x2="733.2" y2="802.9"/>
	</g>
	<g id="POLYLINE_4022_">
		<line class="st7" x1="746" y1="808.2" x2="746.4" y2="804.7"/>
	</g>
	<g id="POLYLINE_4021_">
		<line class="st7" x1="759.2" y1="810.1" x2="759.6" y2="806.5"/>
	</g>
	<g id="POLYLINE_4020_">
		<line class="st7" x1="772.4" y1="811.9" x2="772.8" y2="808.2"/>
	</g>
	<g id="POLYLINE_4019_">
		<line class="st7" x1="785.6" y1="813.7" x2="786" y2="810.1"/>
	</g>
	<g id="POLYLINE_4018_">
		<line class="st7" x1="798.8" y1="815.5" x2="799.2" y2="811.9"/>
	</g>
	<g id="POLYLINE_4017_">
		<line class="st7" x1="812" y1="817.2" x2="812.4" y2="813.7"/>
	</g>
	<g id="POLYLINE_4016_">
		<line class="st7" x1="825.2" y1="819.1" x2="825.6" y2="815.5"/>
	</g>
	<g id="POLYLINE_4015_">
		<line class="st7" x1="838.4" y1="820.9" x2="839" y2="817.2"/>
	</g>
	<g id="POLYLINE_4014_">
		<line class="st7" x1="856" y1="805.9" x2="852.6" y2="805.1"/>
	</g>
	<g id="POLYLINE_4013_">
		<line class="st7" x1="852.8" y1="822.5" x2="850.8" y2="819.5"/>
	</g>
	<g id="POLYLINE_4012_">
		<line class="st7" x1="639.8" y1="808.1" x2="639.2" y2="804.7"/>
	</g>
	<g id="POLYLINE_4011_">
		<line class="st7" x1="626" y1="810.5" x2="625.4" y2="806.9"/>
	</g>
	<g id="POLYLINE_4010_">
		<line class="st7" x1="612.2" y1="812.7" x2="611.6" y2="809.2"/>
	</g>
	<g id="POLYLINE_4009_">
		<line class="st7" x1="598.2" y1="815.1" x2="597.6" y2="811.5"/>
	</g>
	<g id="POLYLINE_4008_">
		<line class="st7" x1="584.4" y1="817.5" x2="583.8" y2="813.9"/>
	</g>
	<g id="POLYLINE_4007_">
		<line class="st7" x1="570.6" y1="819.7" x2="570" y2="816.2"/>
	</g>
	<g id="POLYLINE_4006_">
		<line class="st7" x1="556.6" y1="822.1" x2="556" y2="818.5"/>
	</g>
	<g id="POLYLINE_4005_">
		<line class="st7" x1="543" y1="823.5" x2="545.8" y2="821.1"/>
	</g>
	<g id="POLYLINE_4004_">
		<line class="st7" x1="524" y1="692.7" x2="527.6" y2="692.2"/>
	</g>
	<g id="POLYLINE_4003_">
		<line class="st7" x1="526" y1="707.1" x2="529.6" y2="706.5"/>
	</g>
	<g id="POLYLINE_4002_">
		<line class="st7" x1="528" y1="721.5" x2="531.6" y2="720.9"/>
	</g>
	<g id="POLYLINE_4001_">
		<line class="st7" x1="530" y1="735.7" x2="533.8" y2="735.2"/>
	</g>
	<g id="POLYLINE_4000_">
		<line class="st7" x1="532.2" y1="750.1" x2="535.8" y2="749.5"/>
	</g>
	<g id="POLYLINE_3999_">
		<line class="st7" x1="534.2" y1="764.5" x2="537.8" y2="763.9"/>
	</g>
	<g id="POLYLINE_3998_">
		<line class="st7" x1="536.2" y1="778.7" x2="540" y2="778.2"/>
	</g>
	<g id="POLYLINE_3997_">
		<line class="st7" x1="538.4" y1="793.1" x2="542" y2="792.5"/>
	</g>
	<g id="POLYLINE_3996_">
		<line class="st7" x1="540.4" y1="807.5" x2="544" y2="806.9"/>
	</g>
	<g id="POLYLINE_3995_">
		<line class="st7" x1="496.8" y1="660.5" x2="494.2" y2="658.1"/>
	</g>
	<g id="POLYLINE_3994_">
		<line class="st7" x1="506.8" y1="650.7" x2="504.2" y2="648.1"/>
	</g>
	<g id="POLYLINE_3993_">
		<line class="st7" x1="484" y1="668.9" x2="484.4" y2="672.5"/>
	</g>
	<g id="POLYLINE_3992_">
		<line class="st7" x1="428.2" y1="663.2" x2="424.6" y2="663.5"/>
	</g>
	<g id="POLYLINE_3991_">
		<line class="st7" x1="444.6" y1="647.5" x2="442" y2="644.9"/>
	</g>
	<g id="POLYLINE_3990_">
		<line class="st7" x1="434.8" y1="657.5" x2="432.2" y2="655.1"/>
	</g>
	<g id="POLYLINE_3989_">
		<line class="st7" x1="462.6" y1="651.9" x2="465.2" y2="649.5"/>
	</g>
	<g id="POLYLINE_3988_">
		<line class="st7" x1="472.6" y1="661.9" x2="475" y2="659.2"/>
	</g>
	<g id="POLYLINE_3987_">
		<line class="st7" x1="428.4" y1="824.2" x2="426.2" y2="821.5"/>
	</g>
	<g id="POLYLINE_3984_">
		<line class="st7" x1="318.6" y1="807.5" x2="321.6" y2="805.2"/>
	</g>
	<g id="POLYLINE_3983_">
		<line class="st7" x1="414.4" y1="822.7" x2="415" y2="819.1"/>
	</g>
	<g id="POLYLINE_3982_">
		<line class="st7" x1="400.4" y1="820.5" x2="401" y2="816.9"/>
	</g>
	<g id="POLYLINE_3981_">
		<line class="st7" x1="386.6" y1="818.2" x2="387.2" y2="814.9"/>
	</g>
	<g id="POLYLINE_3980_">
		<line class="st7" x1="372.6" y1="816.2" x2="373.2" y2="812.7"/>
	</g>
	<g id="POLYLINE_3979_">
		<line class="st7" x1="358.8" y1="814.1" x2="359.4" y2="810.5"/>
	</g>
	<g id="POLYLINE_3978_">
		<line class="st7" x1="344.8" y1="811.9" x2="345.4" y2="808.2"/>
	</g>
	<g id="POLYLINE_3977_">
		<line class="st7" x1="331" y1="809.7" x2="331.6" y2="806.2"/>
	</g>
	<g id="POLYLINE_3976_">
		<line class="st7" x1="446.4" y1="698.2" x2="442.8" y2="697.7"/>
	</g>
	<g id="POLYLINE_3975_">
		<line class="st7" x1="444.6" y1="712.1" x2="441" y2="711.7"/>
	</g>
	<g id="POLYLINE_3974_">
		<line class="st7" x1="442.6" y1="726.1" x2="439.2" y2="725.7"/>
	</g>
	<g id="POLYLINE_3973_">
		<line class="st7" x1="440.8" y1="740.1" x2="437.2" y2="739.5"/>
	</g>
	<g id="POLYLINE_3972_">
		<line class="st7" x1="439" y1="753.9" x2="435.4" y2="753.5"/>
	</g>
	<g id="POLYLINE_3971_">
		<line class="st7" x1="437" y1="767.9" x2="433.6" y2="767.5"/>
	</g>
	<g id="POLYLINE_3970_">
		<line class="st7" x1="435.2" y1="781.9" x2="431.6" y2="781.2"/>
	</g>
	<g id="POLYLINE_3969_">
		<line class="st7" x1="433.4" y1="795.7" x2="429.8" y2="795.2"/>
	</g>
	<g id="POLYLINE_3968_">
		<line class="st7" x1="431.6" y1="809.7" x2="428" y2="809.2"/>
	</g>
	<g id="POLYLINE_3967_">
		<line class="st7" x1="448.2" y1="682.5" x2="445" y2="684.1"/>
	</g>
	<g id="POLYLINE_3966_">
		<line class="st7" x1="437.8" y1="672.1" x2="435.2" y2="674.5"/>
	</g>
	<g id="POLYLINE_3965_">
		<line class="st7" x1="654.8" y1="805.1" x2="652" y2="803.1"/>
	</g>
	<g id="POLYLINE_3964_">
		<line class="st7" x1="692" y1="800.2" x2="694.8" y2="798.1"/>
	</g>
	<g id="POLYLINE_3963_">
		<line class="st7" x1="690" y1="784.9" x2="693" y2="782.9"/>
	</g>
	<g id="POLYLINE_3962_">
		<line class="st7" x1="678.8" y1="776.1" x2="679.6" y2="772.5"/>
	</g>
	<g id="POLYLINE_3961_">
		<line class="st7" x1="661.8" y1="778.1" x2="660.2" y2="774.9"/>
	</g>
	<g id="POLYLINE_3960_">
		<line class="st7" x1="653.2" y1="789.2" x2="649.8" y2="788.1"/>
	</g>
	<g id="POLYLINE_3959_">
		<line class="st7" x1="65.2" y1="813.7" x2="68.4" y2="811.9"/>
	</g>
	<g id="POLYLINE_3958_">
		<line class="st7" x1="203.8" y1="477.2" x2="205.4" y2="480.4"/>
	</g>
	<g id="POLYLINE_3957_">
		<line class="st7" x1="367.8" y1="489" x2="364.8" y2="487.2"/>
	</g>
	<g id="POLYLINE_3956_">
		<line class="st7" x1="394" y1="476" x2="395.2" y2="479.4"/>
	</g>
	<g id="POLYLINE_3955_">
		<line class="st7" x1="380.8" y1="481" x2="382" y2="484.2"/>
	</g>
	<g id="POLYLINE_3954_">
		<line class="st7" x1="370.4" y1="504" x2="373.8" y2="502.9"/>
	</g>
	<g id="POLYLINE_3953_">
		<line class="st7" x1="375.4" y1="517.2" x2="378.8" y2="516"/>
	</g>
	<g id="POLYLINE_3952_">
		<line class="st7" x1="359" y1="540.5" x2="360.2" y2="543.7"/>
	</g>
	<g id="POLYLINE_3951_">
		<line class="st7" x1="372.2" y1="535.5" x2="373.4" y2="538.9"/>
	</g>
	<g id="POLYLINE_3950_">
		<line class="st7" x1="351" y1="543.9" x2="349.4" y2="547.2"/>
	</g>
	<g id="POLYLINE_3949_">
		<line class="st7" x1="347" y1="531.9" x2="343.6" y2="533.1"/>
	</g>
	<g id="POLYLINE_3948_">
		<line class="st7" x1="341.6" y1="517.9" x2="339" y2="520.2"/>
	</g>
	<g id="POLYLINE_3947_">
		<line class="st7" x1="190.6" y1="590.2" x2="193" y2="587.5"/>
	</g>
	<g id="POLYLINE_3946_">
		<line class="st7" x1="179.2" y1="627.9" x2="179.8" y2="631.2"/>
	</g>
	<g id="POLYLINE_3945_">
		<line class="st7" x1="197.8" y1="603.5" x2="201.4" y2="603.2"/>
	</g>
	<g id="POLYLINE_3944_">
		<line class="st7" x1="192.6" y1="620.7" x2="195.6" y2="622.9"/>
	</g>
	<g id="POLYLINE_3943_">
		<line class="st7" x1="163.2" y1="623.2" x2="164.8" y2="626.5"/>
	</g>
	<g id="POLYLINE_3942_">
		<line class="st7" x1="174.8" y1="585.1" x2="177.8" y2="583.2"/>
	</g>
	<g id="POLYLINE_3941_">
		<line class="st7" x1="279" y1="802.2" x2="276.8" y2="799.5"/>
	</g>
	<g id="POLYLINE_3940_">
		<line class="st7" x1="311.2" y1="778.7" x2="313" y2="775.5"/>
	</g>
	<g id="POLYLINE_3939_">
		<line class="st7" x1="293.4" y1="776.5" x2="292.6" y2="772.9"/>
	</g>
	<g id="POLYLINE_3938_">
		<line class="st7" x1="320.4" y1="790.7" x2="323.8" y2="789.5"/>
	</g>
	<g id="POLYLINE_3937_">
		<line class="st7" x1="281.6" y1="785.7" x2="278.4" y2="783.7"/>
	</g>
	<g id="POLYLINE_3936_">
		<line class="st7" x1="264" y1="803.5" x2="263.8" y2="799.9"/>
	</g>
	<g id="POLYLINE_3935_">
		<line class="st7" x1="250" y1="804.2" x2="249.8" y2="800.7"/>
	</g>
	<g id="POLYLINE_3934_">
		<line class="st7" x1="236" y1="805.1" x2="235.8" y2="801.5"/>
	</g>
	<g id="POLYLINE_3933_">
		<line class="st7" x1="221.8" y1="805.9" x2="221.6" y2="802.2"/>
	</g>
	<g id="POLYLINE_3932_">
		<line class="st7" x1="207.8" y1="806.7" x2="207.6" y2="803.1"/>
	</g>
	<g id="POLYLINE_3931_">
		<line class="st7" x1="137.6" y1="810.5" x2="137.4" y2="806.9"/>
	</g>
	<g id="POLYLINE_3930_">
		<line class="st7" x1="151.8" y1="809.7" x2="151.6" y2="806.2"/>
	</g>
	<g id="POLYLINE_3929_">
		<line class="st7" x1="165.8" y1="808.9" x2="165.6" y2="805.5"/>
	</g>
	<g id="POLYLINE_3928_">
		<line class="st7" x1="179.8" y1="808.2" x2="179.6" y2="804.7"/>
	</g>
	<g id="POLYLINE_3927_">
		<line class="st7" x1="81.6" y1="813.7" x2="81.4" y2="810.1"/>
	</g>
	<g id="POLYLINE_3926_">
		<line class="st7" x1="95.6" y1="812.9" x2="95.4" y2="809.2"/>
	</g>
	<g id="POLYLINE_3925_">
		<line class="st7" x1="109.6" y1="812.1" x2="109.4" y2="808.5"/>
	</g>
	<g id="POLYLINE_3924_">
		<line class="st7" x1="84.8" y1="773.9" x2="88" y2="775.5"/>
	</g>
	<g id="POLYLINE_3923_">
		<line class="st7" x1="78.4" y1="786.2" x2="81.6" y2="788.1"/>
	</g>
	<g id="POLYLINE_3922_">
		<line class="st7" x1="71.8" y1="798.9" x2="75" y2="800.5"/>
	</g>
	<g id="POLYLINE_3921_">
		<line class="st7" x1="117.2" y1="711.5" x2="120.4" y2="713.1"/>
	</g>
	<g id="POLYLINE_3920_">
		<line class="st7" x1="110.6" y1="723.9" x2="113.8" y2="725.5"/>
	</g>
	<g id="POLYLINE_3919_">
		<line class="st7" x1="104.2" y1="736.5" x2="107.4" y2="738.1"/>
	</g>
	<g id="POLYLINE_3918_">
		<line class="st7" x1="97.8" y1="748.9" x2="101" y2="750.5"/>
	</g>
	<g id="POLYLINE_3917_">
		<line class="st7" x1="130" y1="686.5" x2="133.2" y2="688.1"/>
	</g>
	<g id="POLYLINE_3916_">
		<line class="st7" x1="136.6" y1="673.9" x2="139.6" y2="675.7"/>
	</g>
	<g id="POLYLINE_3915_">
		<line class="st7" x1="143" y1="661.5" x2="146.2" y2="663.1"/>
	</g>
	<g id="POLYLINE_3914_">
		<line class="st7" x1="149.4" y1="649.1" x2="152.6" y2="650.7"/>
	</g>
	<g id="POLYLINE_3913_">
		<line class="st7" x1="155.8" y1="636.5" x2="159" y2="638.1"/>
	</g>
	<g id="POLYLINE_3912_">
		<line class="st7" x1="199.4" y1="491.2" x2="202.8" y2="492.2"/>
	</g>
	<g id="POLYLINE_3911_">
		<line class="st7" x1="195.8" y1="504.9" x2="199.2" y2="505.9"/>
	</g>
	<g id="POLYLINE_3910_">
		<line class="st7" x1="192.2" y1="518.5" x2="195.6" y2="519.5"/>
	</g>
	<g id="POLYLINE_3909_">
		<line class="st7" x1="188.4" y1="532.1" x2="192" y2="533.1"/>
	</g>
	<g id="POLYLINE_3908_">
		<line class="st7" x1="184.8" y1="545.7" x2="188.2" y2="546.5"/>
	</g>
	<g id="POLYLINE_3907_">
		<line class="st7" x1="181.2" y1="559.2" x2="184.6" y2="560.1"/>
	</g>
	<g id="POLYLINE_3906_">
		<line class="st7" x1="177.4" y1="572.9" x2="181" y2="573.7"/>
	</g>
	<g id="POLYLINE_3905_">
		<line class="st7" x1="218.8" y1="481" x2="217.8" y2="484.4"/>
	</g>
	<g id="POLYLINE_3904_">
		<line class="st7" x1="232.2" y1="485" x2="231.2" y2="488.4"/>
	</g>
	<g id="POLYLINE_3903_">
		<line class="st7" x1="245.8" y1="489" x2="244.6" y2="492.4"/>
	</g>
	<g id="POLYLINE_3902_">
		<line class="st7" x1="259.2" y1="493" x2="258.2" y2="496.4"/>
	</g>
	<g id="POLYLINE_3901_">
		<line class="st7" x1="272.6" y1="497" x2="271.6" y2="500.6"/>
	</g>
	<g id="POLYLINE_3900_">
		<line class="st7" x1="286.2" y1="501" x2="285.2" y2="504.6"/>
	</g>
	<g id="POLYLINE_3810_">
		<line class="st7" x1="299.6" y1="505" x2="298.6" y2="508.6"/>
	</g>
	<g id="POLYLINE_3809_">
		<line class="st7" x1="313" y1="509" x2="312" y2="512.7"/>
	</g>
	<g id="POLYLINE_3808_">
		<line class="st7" x1="326.6" y1="513" x2="325.6" y2="516.7"/>
	</g>
</g>
<g id="PLAN_x24_STRUCTURE_1.1">
</g>
</svg>
