<?xml version="1.0" encoding="utf-8"?>
<!-- Generator: Adobe Illustrator 22.0.1, SVG Export Plug-In . SVG Version: 6.00 Build 0)  -->
<svg version="1.1" id="Calque_1" xmlns="http://www.w3.org/2000/svg" xmlns:xlink="http://www.w3.org/1999/xlink" x="0px" y="0px"
	 viewBox="0 0 472 410.6" style="enable-background:new 0 0 472 410.6;" xml:space="preserve">
<style type="text/css">
	.st0{display:none;}
	.st1{display:inline;}
	.st2{fill:none;}
	.st3{fill:none;stroke:#000000;stroke-width:5.000000e-02;stroke-linecap:square;stroke-miterlimit:10;}
	.st4{fill:none;stroke:#000000;stroke-width:0.1;stroke-linecap:square;stroke-miterlimit:10;stroke-dasharray:0.5,0.5;}
	.st5{fill:none;stroke:#000000;stroke-width:8.000000e-02;stroke-linecap:square;stroke-miterlimit:10;}
	.st6{fill:none;stroke:#000000;stroke-width:0.22;stroke-linecap:square;stroke-miterlimit:10;}
	.st7{fill:none;stroke:#000000;stroke-width:0.45;stroke-linecap:square;stroke-miterlimit:10;}
</style>
<g id="Calque_1_1_">
</g>
<g id="INFOS_x24_A4" class="st0">
	<g id="POLYLINE_4989_" class="st1">
		<rect x="-86" y="-158.5" class="st2" width="595.3" height="841.9"/>
	</g>
</g>
<g id="PLAN_x24_FOND">
	<g id="POLYLINE_4544_">
		<polygon class="st3" points="3.2,394.9 183.2,3.3 468.8,351.6 414.7,404.6 13.7,406.3 		"/>
	</g>
</g>
<g id="PLAN_x24_POINTILLE">
	<g id="POLYLINE_4543_">
		<line class="st4" x1="305.5" y1="382.4" x2="318.5" y2="320.9"/>
	</g>
	<g id="LINE_614_">
		<line class="st4" x1="318.5" y1="320.9" x2="272.2" y2="298.9"/>
	</g>
	<g id="POLYLINE_4542_">
		<line class="st4" x1="364.2" y1="258.8" x2="324.8" y2="307.7"/>
	</g>
	<g id="LINE_613_">
		<line class="st4" x1="324.8" y1="307.7" x2="278.4" y2="285.7"/>
	</g>
	<g id="LINE_612_">
		<line class="st4" x1="216.6" y1="201.1" x2="212.5" y2="169.3"/>
	</g>
	<g id="POLYLINE_4541_">
		<polyline class="st4" points="212.5,169.3 249.6,128.5 254.9,128.2 260.7,121.9 		"/>
	</g>
	<g id="LINE_611_">
		<line class="st4" x1="202.2" y1="203" x2="198" y2="171.2"/>
	</g>
	<g id="POLYLINE_4540_">
		<polyline class="st4" points="198,171.2 151.5,141.4 146.3,142.5 139.1,137.9 		"/>
	</g>
	<g id="POLYLINE_4539_">
		<polyline class="st4" points="150.6,120 157.8,124.6 158.9,129.8 198.8,155.4 		"/>
	</g>
	<g id="POLYLINE_4538_">
		<line class="st4" x1="198.8" y1="155.4" x2="207.6" y2="154.3"/>
	</g>
	<g id="POLYLINE_4537_">
		<polyline class="st4" points="207.6,154.3 239.5,119.2 239.2,113.9 245,107.6 		"/>
	</g>
	<g id="POLYLINE_4536_">
		<line class="st4" x1="376.4" y1="268.4" x2="338.5" y2="314.1"/>
	</g>
	<g id="POLYLINE_4535_">
		<line class="st4" x1="338.5" y1="314.1" x2="335.3" y2="320.8"/>
	</g>
	<g id="POLYLINE_4534_">
		<line class="st4" x1="335.3" y1="320.8" x2="332.1" y2="327.5"/>
	</g>
	<g id="LINE_610_">
		<line class="st4" x1="332.1" y1="327.5" x2="320.6" y2="386"/>
	</g>
	<g id="LINE_609_">
		<line class="st4" x1="160.1" y1="293.6" x2="132.8" y2="311.3"/>
	</g>
	<g id="POLYLINE_4533_">
		<polyline class="st4" points="132.8,311.3 81.6,295.8 79.1,291.1 70.9,288.6 		"/>
	</g>
	<g id="LINE_608_">
		<line class="st4" x1="168" y1="305.8" x2="140.7" y2="323.5"/>
	</g>
	<g id="POLYLINE_4532_">
		<polyline class="st4" points="140.7,323.5 133.9,376.6 137.2,380.8 136.1,389.2 		"/>
	</g>
	<g id="POLYLINE_4531_">
		<polyline class="st4" points="115,386.5 116.1,378.1 120.3,374.8 126,329.6 		"/>
	</g>
	<g id="POLYLINE_4530_">
		<line class="st4" x1="126" y1="329.6" x2="121.3" y2="322.2"/>
	</g>
	<g id="POLYLINE_4529_">
		<polyline class="st4" points="121.3,322.2 77.6,308.9 72.9,311.4 64.8,309 		"/>
	</g>
</g>
<g id="PLAN_x24_VITRAGE">
	<g id="POLYLINE_4973_">
		<polygon class="st3" points="265.9,225.3 243.1,222.5 245.1,203.2 259.2,204.4 305.7,153.2 266.3,116.1 260.8,122.2 252.4,122.6 
			245.1,115.9 244.7,107.5 250.4,101.2 183.3,3.9 143.7,115.3 150.9,119.8 152.7,128.1 147.3,136.4 139.1,138.2 132.3,133.9 
			102.7,179.3 161.1,217.5 174.6,212.6 181,230.2 158.5,238.4 167,261 149.9,267.3 144.9,253.9 77.5,233.9 63.5,286 71.1,288.4 
			75.1,295.8 72.3,305.3 64.8,309.3 57.1,306.9 8.8,400.2 113.7,394.3 114.7,386.4 121.4,381.2 131.2,382.4 136.4,389.1 
			135.4,397.1 188.4,405.2 198,335.9 187.9,325.9 201,312.7 217.1,329.1 233.7,312.4 246.2,325 237.5,333.7 247.3,404.3 247.4,405 
			301.4,396 300.4,388.4 305.4,382.1 314.7,381 321,385.9 321.9,393.5 400.7,404.3 403.1,389 446,373.4 431,330.2 441.3,318.7 
			383.2,264.5 376.7,268.6 368.9,266.8 363.9,258.9 365.7,251 372.1,247 344.1,200 283.5,236.9 282.2,250.2 263.8,248.2 		"/>
	</g>
	<g id="POLYLINE_4972_">
		<polygon class="st3" points="266.2,225 243.4,222.3 245.3,203.5 259.3,204.7 306.1,153.2 266.3,115.7 260.7,121.9 252.5,122.3 
			245.3,115.8 245,107.6 250.7,101.2 183.2,3.3 143.4,115.4 150.6,120 152.4,128.1 147.2,136.1 139.1,137.9 132.3,133.5 
			102.3,179.3 161.1,217.8 174.5,213 180.6,230.1 158.2,238.2 166.7,260.8 150.1,266.9 145.1,253.7 77.3,233.6 63.1,286.2 
			70.9,288.6 74.8,295.9 72,305.1 64.8,309 57,306.6 8.4,400.5 114,394.6 115,386.5 121.5,381.5 131,382.7 136.1,389.2 135.1,397.3 
			188.6,405.6 198.3,335.8 188.3,325.9 201,313.1 217.1,329.5 233.7,312.8 245.8,325 237.2,333.6 247,404.3 247.2,405.3 
			301.7,396.2 300.7,388.5 305.5,382.4 314.6,381.3 320.8,386.1 321.7,393.8 400.9,404.6 403.3,389.2 446.4,373.5 431.3,330.3 
			441.7,318.7 383.2,264.1 376.7,268.3 369,266.6 364.2,258.8 365.9,251.2 372.4,247.1 344.2,199.6 283.2,236.7 281.9,249.9 
			264.1,247.9 		"/>
	</g>
</g>
<g id="PLAN_x24_MOBILIER">
</g>
<g id="PLAN_x24_DETAIL">
	<g id="LINE_607_">
		<line class="st5" x1="193" y1="206.3" x2="196" y2="214.5"/>
	</g>
	<g id="LINE_606_">
		<line class="st5" x1="196" y1="214.5" x2="203.3" y2="211.8"/>
	</g>
	<g id="POLYLINE_4528_">
		<line class="st5" x1="182.4" y1="210.1" x2="185.3" y2="218.3"/>
	</g>
	<g id="LINE_605_">
		<line class="st5" x1="185.3" y1="218.3" x2="177.4" y2="221.2"/>
	</g>
	<g id="POLYLINE_4527_">
		<line class="st5" x1="179.3" y1="226.5" x2="187.2" y2="223.7"/>
	</g>
	<g id="POLYLINE_4526_">
		<line class="st5" x1="187.2" y1="223.7" x2="190.3" y2="232.3"/>
	</g>
	<g id="LINE_604_">
		<line class="st5" x1="203.7" y1="214.7" x2="196.9" y2="217.2"/>
	</g>
	<g id="LINE_603_">
		<line class="st5" x1="196.9" y1="217.2" x2="200.2" y2="226.1"/>
	</g>
	<g id="POLYLINE_4525_">
		<line class="st5" x1="198.4" y1="315.7" x2="192.5" y2="309.8"/>
	</g>
	<g id="POLYLINE_4524_">
		<line class="st5" x1="192.5" y1="309.8" x2="198.9" y2="303.3"/>
	</g>
	<g id="LINE_602_">
		<line class="st5" x1="194.4" y1="319.7" x2="188.5" y2="313.8"/>
	</g>
	<g id="POLYLINE_4523_">
		<line class="st5" x1="188.5" y1="313.8" x2="182.4" y2="320"/>
	</g>
	<g id="LINE_601_">
		<line class="st5" x1="175.3" y1="313" x2="181.4" y2="306.8"/>
	</g>
	<g id="LINE_600_">
		<line class="st5" x1="181.4" y1="306.8" x2="175.5" y2="301"/>
	</g>
	<g id="POLYLINE_4522_">
		<line class="st5" x1="235.4" y1="235.6" x2="233.1" y2="225.2"/>
	</g>
	<g id="POLYLINE_4521_">
		<line class="st5" x1="233.1" y1="225.2" x2="225" y2="231.5"/>
	</g>
	<g id="POLYLINE_4520_">
		<line class="st5" x1="225" y1="231.5" x2="219.4" y2="222.4"/>
	</g>
	<g id="POLYLINE_4519_">
		<line class="st5" x1="239.7" y1="228.5" x2="230.1" y2="233"/>
	</g>
	<g id="POLYLINE_4518_">
		<line class="st5" x1="230.1" y1="233" x2="226.8" y2="223.3"/>
	</g>
	<g id="POLYLINE_4517_">
		<line class="st5" x1="226.8" y1="223.3" x2="220.6" y2="230.8"/>
	</g>
	<g id="POLYLINE_4516_">
		<line class="st5" x1="186.6" y1="235.7" x2="196.6" y2="237.9"/>
	</g>
	<g id="POLYLINE_4515_">
		<line class="st5" x1="196.6" y1="237.9" x2="197.6" y2="227.4"/>
	</g>
	<g id="POLYLINE_4514_">
		<line class="st5" x1="197.6" y1="227.4" x2="206.1" y2="232.7"/>
	</g>
	<g id="POLYLINE_4513_">
		<line class="st5" x1="192.8" y1="241.5" x2="191.5" y2="231.3"/>
	</g>
	<g id="POLYLINE_4512_">
		<line class="st5" x1="191.5" y1="231.3" x2="201.6" y2="234.8"/>
	</g>
	<g id="POLYLINE_4511_">
		<line class="st5" x1="201.6" y1="234.8" x2="205" y2="224.3"/>
	</g>
	<g id="POLYLINE_4510_">
		<line class="st5" x1="175.2" y1="261.5" x2="183.5" y2="267.8"/>
	</g>
	<g id="POLYLINE_4509_">
		<line class="st5" x1="183.5" y1="267.8" x2="176.3" y2="275.2"/>
	</g>
	<g id="POLYLINE_4508_">
		<line class="st5" x1="176.3" y1="275.2" x2="185.6" y2="277.1"/>
	</g>
	<g id="POLYLINE_4507_">
		<line class="st5" x1="183.5" y1="262.2" x2="175.2" y2="268.5"/>
	</g>
	<g id="POLYLINE_4506_">
		<line class="st5" x1="175.2" y1="268.5" x2="184.4" y2="273.2"/>
	</g>
	<g id="POLYLINE_4505_">
		<line class="st5" x1="184.4" y1="273.2" x2="178.5" y2="281.7"/>
	</g>
	<g id="POLYLINE_4504_">
		<line class="st5" x1="193.6" y1="289.3" x2="191.9" y2="299"/>
	</g>
	<g id="POLYLINE_4503_">
		<line class="st5" x1="191.9" y1="299" x2="201.2" y2="295"/>
	</g>
	<g id="POLYLINE_4502_">
		<line class="st5" x1="201.2" y1="295" x2="203.7" y2="305.3"/>
	</g>
	<g id="POLYLINE_4501_">
		<line class="st5" x1="206.4" y1="297.3" x2="197.1" y2="302.3"/>
	</g>
	<g id="POLYLINE_4500_">
		<line class="st5" x1="197.1" y1="302.3" x2="197" y2="292.3"/>
	</g>
	<g id="POLYLINE_4499_">
		<line class="st5" x1="197" y1="292.3" x2="186.4" y2="293.9"/>
	</g>
	<g id="POLYLINE_4498_">
		<line class="st5" x1="228.6" y1="297.5" x2="238.9" y2="302"/>
	</g>
	<g id="POLYLINE_4497_">
		<line class="st5" x1="238.9" y1="302" x2="240.5" y2="290.5"/>
	</g>
	<g id="POLYLINE_4496_">
		<line class="st5" x1="240.5" y1="290.5" x2="252.5" y2="289.6"/>
	</g>
	<g id="POLYLINE_4495_">
		<line class="st5" x1="231.3" y1="305.4" x2="234.7" y2="294.7"/>
	</g>
	<g id="POLYLINE_4494_">
		<line class="st5" x1="234.7" y1="294.7" x2="246.1" y2="296.8"/>
	</g>
	<g id="POLYLINE_4493_">
		<line class="st5" x1="246.1" y1="296.8" x2="244.8" y2="285.9"/>
	</g>
	<g id="POLYLINE_4492_">
		<line class="st5" x1="257.7" y1="250.3" x2="251.6" y2="260"/>
	</g>
	<g id="POLYLINE_4491_">
		<line class="st5" x1="251.6" y1="260" x2="260.3" y2="267.4"/>
	</g>
	<g id="LINE_599_">
		<line class="st5" x1="260.3" y1="267.4" x2="267.6" y2="268.2"/>
	</g>
	<g id="POLYLINE_4490_">
		<line class="st5" x1="258.8" y1="276.4" x2="251.9" y2="266.9"/>
	</g>
	<g id="POLYLINE_4489_">
		<line class="st5" x1="251.9" y1="266.9" x2="259.9" y2="258.8"/>
	</g>
	<g id="POLYLINE_4488_">
		<line class="st5" x1="259.9" y1="258.8" x2="249.8" y2="253.2"/>
	</g>
	<g id="POLYLINE_4487_">
		<line class="st5" x1="260.3" y1="267.4" x2="251.1" y2="272.7"/>
	</g>
	<g id="POLYLINE_4486_">
		<line class="st5" x1="267.5" y1="256.8" x2="259.4" y2="255.9"/>
	</g>
	<g id="LINE_598_">
		<line class="st5" x1="267.7" y1="272.5" x2="259.8" y2="271.7"/>
	</g>
	<g id="LINE_597_">
		<line class="st5" x1="279.6" y1="273.8" x2="271.3" y2="272.9"/>
	</g>
	<g id="LINE_596_">
		<line class="st5" x1="267.7" y1="274" x2="259.6" y2="273.1"/>
	</g>
	<g id="LINE_595_">
		<line class="st5" x1="279.4" y1="275.2" x2="271.2" y2="274.3"/>
	</g>
	<g id="LINE_589_">
		<line class="st5" x1="267.6" y1="269.7" x2="260.2" y2="268.8"/>
	</g>
	<g id="LINE_588_">
		<line class="st5" x1="279.8" y1="271" x2="271.5" y2="270.1"/>
	</g>
	<g id="LINE_587_">
		<line class="st5" x1="267.7" y1="271.1" x2="260" y2="270.3"/>
	</g>
	<g id="LINE_586_">
		<line class="st5" x1="279.7" y1="272.4" x2="271.4" y2="271.5"/>
	</g>
	<g id="LINE_585_">
		<line class="st5" x1="267.6" y1="266.8" x2="260.3" y2="266"/>
	</g>
	<g id="LINE_584_">
		<line class="st5" x1="280.1" y1="268.2" x2="271.8" y2="267.3"/>
	</g>
	<g id="LINE_583_">
		<line class="st5" x1="280" y1="269.6" x2="271.7" y2="268.7"/>
	</g>
	<g id="LINE_582_">
		<line class="st5" x1="267.6" y1="264" x2="260.3" y2="263.2"/>
	</g>
	<g id="LINE_581_">
		<line class="st5" x1="280.4" y1="265.4" x2="272" y2="264.4"/>
	</g>
	<g id="LINE_580_">
		<line class="st5" x1="267.6" y1="265.4" x2="260.3" y2="264.6"/>
	</g>
	<g id="LINE_579_">
		<line class="st5" x1="280.3" y1="266.8" x2="271.9" y2="265.9"/>
	</g>
	<g id="LINE_578_">
		<line class="st5" x1="267.5" y1="261.1" x2="260.1" y2="260.3"/>
	</g>
	<g id="LINE_577_">
		<line class="st5" x1="280.7" y1="262.5" x2="272.3" y2="261.6"/>
	</g>
	<g id="LINE_576_">
		<line class="st5" x1="267.5" y1="262.5" x2="260.2" y2="261.7"/>
	</g>
	<g id="LINE_575_">
		<line class="st5" x1="280.5" y1="264" x2="272.2" y2="263"/>
	</g>
	<g id="LINE_574_">
		<line class="st5" x1="267.5" y1="259.7" x2="259.9" y2="258.8"/>
	</g>
	<g id="LINE_573_">
		<line class="st5" x1="280.8" y1="261.1" x2="272.4" y2="260.2"/>
	</g>
	<g id="LINE_572_">
		<line class="st5" x1="267.5" y1="258.2" x2="259.7" y2="257.4"/>
	</g>
	<g id="LINE_571_">
		<line class="st5" x1="280.9" y1="259.7" x2="272.6" y2="258.8"/>
	</g>
	<g id="POLYLINE_4485_">
		<line class="st5" x1="281.1" y1="258.3" x2="272.7" y2="257.4"/>
	</g>
	<g id="LINE_570_">
		<line class="st5" x1="183.4" y1="304.8" x2="178" y2="299.4"/>
	</g>
	<g id="LINE_569_">
		<line class="st5" x1="182.4" y1="305.8" x2="176.7" y2="300.2"/>
	</g>
	<g id="LINE_568_">
		<line class="st5" x1="191.2" y1="309" x2="197.6" y2="302.6"/>
	</g>
	<g id="LINE_567_">
		<line class="st5" x1="190" y1="308.3" x2="196.3" y2="301.9"/>
	</g>
	<g id="LINE_566_">
		<line class="st5" x1="188.7" y1="307.5" x2="195.1" y2="301.1"/>
	</g>
	<g id="LINE_565_">
		<line class="st5" x1="187.4" y1="306.8" x2="193.8" y2="300.3"/>
	</g>
	<g id="LINE_564_">
		<line class="st5" x1="183.7" y1="304.6" x2="190.4" y2="297.8"/>
	</g>
	<g id="LINE_563_">
		<line class="st5" x1="184.9" y1="305.3" x2="191.5" y2="298.7"/>
	</g>
	<g id="LINE_562_">
		<line class="st5" x1="186.2" y1="306" x2="192.7" y2="299.5"/>
	</g>
	<g id="POLYLINE_4484_">
		<line class="st5" x1="197.4" y1="316.7" x2="191.5" y2="310.8"/>
	</g>
	<g id="LINE_561_">
		<line class="st5" x1="196.4" y1="317.7" x2="190.5" y2="311.8"/>
	</g>
	<g id="LINE_560_">
		<line class="st5" x1="195.4" y1="318.7" x2="189.5" y2="312.8"/>
	</g>
	<g id="LINE_559_">
		<line class="st5" x1="176.3" y1="314" x2="182.4" y2="307.8"/>
	</g>
	<g id="LINE_558_">
		<line class="st5" x1="177.3" y1="315" x2="183.4" y2="308.8"/>
	</g>
	<g id="LINE_557_">
		<line class="st5" x1="178.3" y1="316" x2="184.4" y2="309.8"/>
	</g>
	<g id="LINE_556_">
		<line class="st5" x1="179.3" y1="317" x2="185.5" y2="310.8"/>
	</g>
	<g id="LINE_555_">
		<line class="st5" x1="180.3" y1="318" x2="186.5" y2="311.8"/>
	</g>
	<g id="LINE_554_">
		<line class="st5" x1="181.4" y1="319" x2="187.5" y2="312.8"/>
	</g>
	<g id="LINE_553_">
		<line class="st5" x1="188.4" y1="222.8" x2="191.5" y2="231.3"/>
	</g>
	<g id="LINE_552_">
		<line class="st5" x1="189.7" y1="222" x2="192.7" y2="230.4"/>
	</g>
	<g id="LINE_551_">
		<line class="st5" x1="190.9" y1="221.2" x2="193.9" y2="229.6"/>
	</g>
	<g id="LINE_530_">
		<line class="st5" x1="192.1" y1="220.4" x2="195.1" y2="228.8"/>
	</g>
	<g id="LINE_529_">
		<line class="st5" x1="193.3" y1="219.6" x2="196.4" y2="228.1"/>
	</g>
	<g id="LINE_528_">
		<line class="st5" x1="194.5" y1="218.8" x2="197.6" y2="227.4"/>
	</g>
	<g id="LINE_527_">
		<line class="st5" x1="195.7" y1="218" x2="198.9" y2="226.7"/>
	</g>
	<g id="LINE_526_">
		<line class="st5" x1="183.7" y1="209.7" x2="186.6" y2="217.8"/>
	</g>
	<g id="LINE_525_">
		<line class="st5" x1="185" y1="209.2" x2="188" y2="217.4"/>
	</g>
	<g id="LINE_524_">
		<line class="st5" x1="186.4" y1="208.7" x2="189.3" y2="216.9"/>
	</g>
	<g id="LINE_523_">
		<line class="st5" x1="187.7" y1="208.2" x2="190.6" y2="216.4"/>
	</g>
	<g id="LINE_522_">
		<line class="st5" x1="189" y1="207.7" x2="192" y2="215.9"/>
	</g>
	<g id="LINE_521_">
		<line class="st5" x1="190.4" y1="207.3" x2="193.3" y2="215.4"/>
	</g>
	<g id="LINE_520_">
		<line class="st5" x1="191.7" y1="206.8" x2="194.6" y2="215"/>
	</g>
	<g id="LINE_519_">
		<line class="st5" x1="177.9" y1="222.5" x2="185.8" y2="219.7"/>
	</g>
	<g id="LINE_518_">
		<line class="st5" x1="178.4" y1="223.8" x2="186.3" y2="221"/>
	</g>
	<g id="POLYLINE_4483_">
		<line class="st5" x1="178.9" y1="225.2" x2="186.8" y2="222.3"/>
	</g>
	<g id="LINE_517_">
		<line class="st5" x1="196.5" y1="215.8" x2="203.5" y2="213.3"/>
	</g>
</g>
<g id="PLAN_x24_CLOISON_TRANSLUCIDE">
</g>
<g id="PLAN_x24_CLOISON_1.3">
</g>
<g id="PLAN_x24_CLOISON_1.2">
</g>
<g id="PLAN_x24_CLOISON_1.1">
	<g id="ARC_120_">
		<path class="st6" d="M251.1,272.7c1.5-6.5,1.1-13.3-1.2-19.6"/>
	</g>
	<g id="ARC_119_">
		<path class="st6" d="M249.8,253.2c-6.5-17.8-26.2-26.9-44-20.3s-26.9,26.2-20.3,44s26.2,26.9,44,20.3c10.8-4,18.9-13.2,21.5-24.4"
			/>
	</g>
	<g id="POLYLINE_4620_">
		<line class="st6" x1="281.9" y1="249.9" x2="278.4" y2="285.7"/>
	</g>
	<g id="LINE_686_">
		<line class="st6" x1="278.4" y1="285.7" x2="251.1" y2="272.7"/>
	</g>
	<g id="POLYLINE_4619_">
		<line class="st6" x1="174.5" y1="213" x2="202.2" y2="203"/>
	</g>
	<g id="LINE_685_">
		<line class="st6" x1="202.2" y1="203" x2="206.1" y2="232.7"/>
	</g>
	<g id="POLYLINE_4618_">
		<line class="st6" x1="245.3" y1="203.5" x2="216.6" y2="201.1"/>
	</g>
	<g id="LINE_684_">
		<line class="st6" x1="216.6" y1="201.1" x2="220.6" y2="230.8"/>
	</g>
	<g id="POLYLINE_4617_">
		<line class="st6" x1="245.8" y1="325" x2="272.2" y2="298.9"/>
	</g>
	<g id="POLYLINE_4616_">
		<line class="st6" x1="272.2" y1="298.9" x2="278.4" y2="285.7"/>
	</g>
	<g id="POLYLINE_4615_">
		<line class="st6" x1="188.3" y1="325.9" x2="168" y2="305.8"/>
	</g>
	<g id="LINE_683_">
		<line class="st6" x1="168" y1="305.8" x2="193.6" y2="289.3"/>
	</g>
	<g id="LINE_682_">
		<line class="st6" x1="185.6" y1="277.1" x2="160.1" y2="293.6"/>
	</g>
	<g id="POLYLINE_4614_">
		<line class="st6" x1="160.1" y1="293.6" x2="150.1" y2="266.9"/>
	</g>
	<g id="POLYLINE_4613_">
		<line class="st6" x1="197" y1="292.3" x2="191.9" y2="299"/>
	</g>
	<g id="POLYLINE_4612_">
		<line class="st6" x1="184.4" y1="273.2" x2="176.3" y2="275.2"/>
	</g>
	<g id="POLYLINE_4611_">
		<line class="st6" x1="183.5" y1="267.8" x2="175.2" y2="268.5"/>
	</g>
	<g id="LINE_681_">
		<line class="st6" x1="272.2" y1="298.9" x2="244.8" y2="285.9"/>
	</g>
	<g id="POLYLINE_4610_">
		<line class="st6" x1="251.6" y1="260" x2="259.9" y2="258.8"/>
	</g>
	<g id="POLYLINE_4609_">
		<line class="st6" x1="260.3" y1="267.4" x2="251.9" y2="266.9"/>
	</g>
	<g id="POLYLINE_4608_">
		<line class="st6" x1="249.8" y1="253.2" x2="264.1" y2="247.9"/>
	</g>
	<g id="POLYLINE_4607_">
		<line class="st6" x1="201.6" y1="234.8" x2="197.6" y2="227.4"/>
	</g>
	<g id="POLYLINE_4606_">
		<line class="st6" x1="225" y1="231.5" x2="226.8" y2="223.3"/>
	</g>
	<g id="POLYLINE_4605_">
		<line class="st6" x1="230.1" y1="233" x2="233.1" y2="225.2"/>
	</g>
	<g id="POLYLINE_4604_">
		<line class="st6" x1="235.4" y1="235.6" x2="243.4" y2="222.3"/>
	</g>
	<g id="POLYLINE_4603_">
		<line class="st6" x1="196.6" y1="237.9" x2="191.5" y2="231.3"/>
	</g>
	<g id="POLYLINE_4602_">
		<line class="st6" x1="192.8" y1="241.5" x2="180.6" y2="230.1"/>
	</g>
	<g id="POLYLINE_4601_">
		<line class="st6" x1="183.5" y1="262.2" x2="166.7" y2="260.8"/>
	</g>
	<g id="POLYLINE_4600_">
		<line class="st6" x1="201.2" y1="295" x2="197.1" y2="302.3"/>
	</g>
	<g id="POLYLINE_4599_">
		<line class="st6" x1="246.1" y1="296.8" x2="240.5" y2="290.5"/>
	</g>
	<g id="POLYLINE_4598_">
		<line class="st6" x1="234.7" y1="294.7" x2="238.9" y2="302"/>
	</g>
	<g id="POLYLINE_4597_">
		<line class="st6" x1="206.4" y1="297.3" x2="201" y2="313.1"/>
	</g>
	<g id="POLYLINE_4596_">
		<line class="st6" x1="228.6" y1="297.5" x2="233.7" y2="312.8"/>
	</g>
	<g id="POLYLINE_4595_">
		<line class="st6" x1="168" y1="305.8" x2="160.1" y2="293.6"/>
	</g>
	<g id="POLYLINE_4594_">
		<polygon class="st6" points="267.5,256.8 267.7,274 271.2,274.3 272.7,257.4 		"/>
	</g>
	<g id="POLYLINE_4593_">
		<polygon class="st6" points="181.4,306.8 188.5,313.8 192.5,309.8 183.7,304.6 		"/>
	</g>
	<g id="POLYLINE_4592_">
		<polygon class="st6" points="187.2,223.7 196.9,217.2 196,214.5 185.3,218.3 		"/>
	</g>
	<g id="ARC_118_">
		<path class="st6" d="M205,224.3c-22.5,7-35,30.9-28,53.4c7,22.5,30.9,35,53.4,28c22.5-7,35-30.9,28-53.4
			c-5.4-17.2-21-29.2-39-29.9"/>
	</g>
	<g id="POLYLINE_4591_">
		<line class="st6" x1="216.6" y1="201.1" x2="202.2" y2="203"/>
	</g>
</g>
<g id="PLAN_x24_STRUCTURE_2.3">
</g>
<g id="PLAN_x24_STRUCTURE_2.2">
</g>
<g id="PLAN_x24_STRUCTURE_2.1">
</g>
<g id="PLAN_x24_STRUCTURE_1.3">
</g>
<g id="PLAN_x24_STRUCTURE_1.2">
	<g id="POLYLINE_4450_">
		<line class="st7" x1="403.6" y1="390" x2="403" y2="388.3"/>
	</g>
	<g id="POLYLINE_4449_">
		<line class="st7" x1="403" y1="388.3" x2="403.6" y2="390"/>
	</g>
	<g id="POLYLINE_4448_">
		<line class="st7" x1="432.1" y1="330" x2="430.4" y2="330.6"/>
	</g>
	<g id="POLYLINE_4447_">
		<line class="st7" x1="430.4" y1="330.6" x2="432.1" y2="330"/>
	</g>
	<g id="POLYLINE_4446_">
		<line class="st7" x1="36.8" y1="399.8" x2="36.7" y2="398"/>
	</g>
	<g id="POLYLINE_4445_">
		<line class="st7" x1="36.7" y1="398" x2="36.8" y2="399.8"/>
	</g>
	<g id="POLYLINE_4444_">
		<line class="st7" x1="71.9" y1="397.9" x2="71.8" y2="396.1"/>
	</g>
	<g id="POLYLINE_4443_">
		<line class="st7" x1="71.8" y1="396.1" x2="71.9" y2="397.9"/>
	</g>
	<g id="POLYLINE_4442_">
		<line class="st7" x1="20.6" y1="374.8" x2="22.2" y2="375.7"/>
	</g>
	<g id="POLYLINE_4441_">
		<line class="st7" x1="22.2" y1="375.7" x2="20.6" y2="374.8"/>
	</g>
	<g id="POLYLINE_4440_">
		<line class="st7" x1="36.8" y1="343.6" x2="38.4" y2="344.5"/>
	</g>
	<g id="POLYLINE_4439_">
		<line class="st7" x1="38.4" y1="344.5" x2="36.8" y2="343.6"/>
	</g>
	<g id="POLYLINE_4438_">
		<line class="st7" x1="129.3" y1="139.7" x2="127.8" y2="138.7"/>
	</g>
	<g id="POLYLINE_4437_">
		<line class="st7" x1="125.5" y1="145.4" x2="124" y2="144.4"/>
	</g>
	<g id="POLYLINE_4178_">
		<line class="st7" x1="121.8" y1="151.1" x2="120.3" y2="150.2"/>
	</g>
	<g id="POLYLINE_4177_">
		<line class="st7" x1="118" y1="156.9" x2="116.5" y2="155.9"/>
	</g>
	<g id="POLYLINE_4176_">
		<line class="st7" x1="114.3" y1="162.6" x2="112.8" y2="161.6"/>
	</g>
	<g id="POLYLINE_4175_">
		<line class="st7" x1="110.6" y1="168.3" x2="109.1" y2="167.3"/>
	</g>
	<g id="POLYLINE_4174_">
		<line class="st7" x1="106.8" y1="174" x2="105.3" y2="173"/>
	</g>
	<g id="POLYLINE_4173_">
		<line class="st7" x1="174.8" y1="212.2" x2="174.1" y2="213.8"/>
	</g>
	<g id="POLYLINE_4172_">
		<line class="st7" x1="177.4" y1="218.5" x2="175.7" y2="219.1"/>
	</g>
	<g id="POLYLINE_4171_">
		<line class="st7" x1="179.5" y1="224.3" x2="177.8" y2="224.9"/>
	</g>
	<g id="POLYLINE_4170_">
		<line class="st7" x1="167.4" y1="214.4" x2="168.1" y2="216.1"/>
	</g>
	<g id="POLYLINE_4169_">
		<line class="st7" x1="154.7" y1="214.7" x2="155.7" y2="213.2"/>
	</g>
	<g id="POLYLINE_4168_">
		<line class="st7" x1="148.8" y1="210.9" x2="149.8" y2="209.3"/>
	</g>
	<g id="POLYLINE_4167_">
		<line class="st7" x1="142.9" y1="207.1" x2="143.9" y2="205.5"/>
	</g>
	<g id="POLYLINE_4166_">
		<line class="st7" x1="137" y1="203.2" x2="138.1" y2="201.6"/>
	</g>
	<g id="POLYLINE_4165_">
		<line class="st7" x1="131.2" y1="199.4" x2="132.2" y2="197.8"/>
	</g>
	<g id="POLYLINE_4164_">
		<line class="st7" x1="125.3" y1="195.5" x2="126.3" y2="193.9"/>
	</g>
	<g id="POLYLINE_4163_">
		<line class="st7" x1="119.4" y1="191.7" x2="120.4" y2="190.1"/>
	</g>
	<g id="POLYLINE_4162_">
		<line class="st7" x1="113.5" y1="187.8" x2="114.5" y2="186.3"/>
	</g>
	<g id="POLYLINE_4161_">
		<line class="st7" x1="107.6" y1="184" x2="108.7" y2="182.4"/>
	</g>
	<g id="POLYLINE_4160_">
		<line class="st7" x1="103.2" y1="179.2" x2="101.4" y2="179.5"/>
	</g>
	<g id="POLYLINE_4159_">
		<line class="st7" x1="160.8" y1="218.7" x2="161.3" y2="216.9"/>
	</g>
	<g id="POLYLINE_4158_">
		<line class="st7" x1="264.6" y1="200.2" x2="263.3" y2="198.9"/>
	</g>
	<g id="POLYLINE_4157_">
		<line class="st7" x1="269.3" y1="195" x2="268" y2="193.8"/>
	</g>
	<g id="POLYLINE_4156_">
		<line class="st7" x1="274" y1="189.9" x2="272.6" y2="188.6"/>
	</g>
	<g id="POLYLINE_4155_">
		<line class="st7" x1="278.7" y1="184.7" x2="277.3" y2="183.5"/>
	</g>
	<g id="POLYLINE_4154_">
		<line class="st7" x1="283.4" y1="179.5" x2="282" y2="178.3"/>
	</g>
	<g id="POLYLINE_4153_">
		<line class="st7" x1="288.1" y1="174.4" x2="286.7" y2="173.2"/>
	</g>
	<g id="POLYLINE_4152_">
		<line class="st7" x1="292.7" y1="169.2" x2="291.4" y2="168"/>
	</g>
	<g id="POLYLINE_4151_">
		<line class="st7" x1="297.4" y1="164.1" x2="296" y2="162.9"/>
	</g>
	<g id="POLYLINE_4150_">
		<line class="st7" x1="302.1" y1="158.9" x2="300.7" y2="157.7"/>
	</g>
	<g id="POLYLINE_4149_">
		<line class="st7" x1="306.8" y1="153.8" x2="305.4" y2="152.5"/>
	</g>
	<g id="POLYLINE_4148_">
		<line class="st7" x1="305.2" y1="153.2" x2="307" y2="153.1"/>
	</g>
	<g id="POLYLINE_4147_">
		<line class="st7" x1="266.2" y1="114.9" x2="266.3" y2="116.6"/>
	</g>
	<g id="POLYLINE_4146_">
		<line class="st7" x1="300.5" y1="149.1" x2="301.7" y2="147.8"/>
	</g>
	<g id="POLYLINE_4145_">
		<line class="st7" x1="295.5" y1="144.5" x2="296.8" y2="143.2"/>
	</g>
	<g id="POLYLINE_4144_">
		<line class="st7" x1="290.6" y1="139.8" x2="291.8" y2="138.5"/>
	</g>
	<g id="POLYLINE_4143_">
		<line class="st7" x1="285.6" y1="135.1" x2="286.8" y2="133.8"/>
	</g>
	<g id="POLYLINE_4142_">
		<line class="st7" x1="280.6" y1="130.4" x2="281.8" y2="129.1"/>
	</g>
	<g id="POLYLINE_4141_">
		<line class="st7" x1="275.6" y1="125.8" x2="276.8" y2="124.4"/>
	</g>
	<g id="POLYLINE_4140_">
		<line class="st7" x1="270.6" y1="121.1" x2="271.9" y2="119.8"/>
	</g>
	<g id="POLYLINE_4139_">
		<line class="st7" x1="252.8" y1="121.5" x2="252.1" y2="123.1"/>
	</g>
	<g id="POLYLINE_4138_">
		<line class="st7" x1="246.1" y1="115.4" x2="244.6" y2="116.2"/>
	</g>
	<g id="POLYLINE_4137_">
		<line class="st7" x1="260.3" y1="121.1" x2="261" y2="122.7"/>
	</g>
	<g id="POLYLINE_4136_">
		<line class="st7" x1="245.8" y1="107.8" x2="244.1" y2="107.3"/>
	</g>
	<g id="POLYLINE_4135_">
		<line class="st7" x1="132.1" y1="132.6" x2="132.4" y2="134.4"/>
	</g>
	<g id="POLYLINE_4134_">
		<line class="st7" x1="146.6" y1="135.4" x2="147.7" y2="136.9"/>
	</g>
	<g id="POLYLINE_4133_">
		<line class="st7" x1="151.5" y1="127.9" x2="153.2" y2="128.3"/>
	</g>
	<g id="POLYLINE_4132_">
		<line class="st7" x1="139.2" y1="137" x2="139" y2="138.8"/>
	</g>
	<g id="POLYLINE_4131_">
		<line class="st7" x1="149.8" y1="120.5" x2="151.4" y2="119.5"/>
	</g>
	<g id="POLYLINE_4130_">
		<line class="st7" x1="181.9" y1="9.8" x2="180.1" y2="9.2"/>
	</g>
	<g id="POLYLINE_4129_">
		<line class="st7" x1="179.7" y1="16" x2="177.9" y2="15.4"/>
	</g>
	<g id="POLYLINE_4128_">
		<line class="st7" x1="177.5" y1="22.3" x2="175.7" y2="21.7"/>
	</g>
	<g id="POLYLINE_4127_">
		<line class="st7" x1="175.2" y1="28.5" x2="173.5" y2="27.9"/>
	</g>
	<g id="POLYLINE_4126_">
		<line class="st7" x1="173" y1="34.7" x2="171.3" y2="34.1"/>
	</g>
	<g id="POLYLINE_4125_">
		<line class="st7" x1="170.8" y1="41" x2="169.1" y2="40.3"/>
	</g>
	<g id="POLYLINE_4124_">
		<line class="st7" x1="168.6" y1="47.2" x2="166.9" y2="46.6"/>
	</g>
	<g id="POLYLINE_4123_">
		<line class="st7" x1="166.4" y1="53.4" x2="164.6" y2="52.8"/>
	</g>
	<g id="POLYLINE_4122_">
		<line class="st7" x1="164.2" y1="59.6" x2="162.4" y2="59"/>
	</g>
	<g id="POLYLINE_4121_">
		<line class="st7" x1="162" y1="65.9" x2="160.2" y2="65.2"/>
	</g>
	<g id="POLYLINE_4120_">
		<line class="st7" x1="159.7" y1="72.1" x2="158" y2="71.5"/>
	</g>
	<g id="POLYLINE_4119_">
		<line class="st7" x1="157.5" y1="78.3" x2="155.8" y2="77.7"/>
	</g>
	<g id="POLYLINE_4118_">
		<line class="st7" x1="155.3" y1="84.5" x2="153.6" y2="83.9"/>
	</g>
	<g id="POLYLINE_4117_">
		<line class="st7" x1="153.1" y1="90.8" x2="151.4" y2="90.2"/>
	</g>
	<g id="POLYLINE_4116_">
		<line class="st7" x1="150.9" y1="97" x2="149.1" y2="96.4"/>
	</g>
	<g id="POLYLINE_4115_">
		<line class="st7" x1="148.7" y1="103.2" x2="146.9" y2="102.6"/>
	</g>
	<g id="POLYLINE_4114_">
		<line class="st7" x1="146.5" y1="109.5" x2="144.7" y2="108.8"/>
	</g>
	<g id="POLYLINE_4113_">
		<line class="st7" x1="144.3" y1="115.1" x2="142.5" y2="115.6"/>
	</g>
	<g id="POLYLINE_4112_">
		<line class="st7" x1="183.3" y1="4.2" x2="183.1" y2="2.4"/>
	</g>
	<g id="POLYLINE_4111_">
		<line class="st7" x1="249.8" y1="101.2" x2="251.7" y2="101.2"/>
	</g>
	<g id="POLYLINE_4110_">
		<line class="st7" x1="246.2" y1="96.3" x2="247.8" y2="95.3"/>
	</g>
	<g id="POLYLINE_4109_">
		<line class="st7" x1="242.5" y1="90.9" x2="244" y2="89.8"/>
	</g>
	<g id="POLYLINE_4108_">
		<line class="st7" x1="238.7" y1="85.4" x2="240.2" y2="84.4"/>
	</g>
	<g id="POLYLINE_4107_">
		<line class="st7" x1="235" y1="80" x2="236.5" y2="78.9"/>
	</g>
	<g id="POLYLINE_4106_">
		<line class="st7" x1="231.2" y1="74.5" x2="232.7" y2="73.5"/>
	</g>
	<g id="POLYLINE_4105_">
		<line class="st7" x1="227.5" y1="69.1" x2="229" y2="68.1"/>
	</g>
	<g id="POLYLINE_4104_">
		<line class="st7" x1="223.7" y1="63.7" x2="225.2" y2="62.6"/>
	</g>
	<g id="POLYLINE_4103_">
		<line class="st7" x1="220" y1="58.2" x2="221.5" y2="57.2"/>
	</g>
	<g id="POLYLINE_4102_">
		<line class="st7" x1="216.2" y1="52.8" x2="217.7" y2="51.7"/>
	</g>
	<g id="POLYLINE_4101_">
		<line class="st7" x1="212.5" y1="47.3" x2="214" y2="46.3"/>
	</g>
	<g id="POLYLINE_4100_">
		<line class="st7" x1="208.7" y1="41.9" x2="210.2" y2="40.8"/>
	</g>
	<g id="POLYLINE_4099_">
		<line class="st7" x1="205" y1="36.5" x2="206.5" y2="35.4"/>
	</g>
	<g id="POLYLINE_4098_">
		<line class="st7" x1="201.2" y1="31" x2="202.7" y2="30"/>
	</g>
	<g id="POLYLINE_4097_">
		<line class="st7" x1="197.5" y1="25.6" x2="199" y2="24.5"/>
	</g>
	<g id="POLYLINE_4096_">
		<line class="st7" x1="193.7" y1="20.1" x2="195.2" y2="19.1"/>
	</g>
	<g id="POLYLINE_4095_">
		<line class="st7" x1="190" y1="14.7" x2="191.5" y2="13.6"/>
	</g>
	<g id="POLYLINE_4094_">
		<line class="st7" x1="186.2" y1="9.2" x2="187.7" y2="8.2"/>
	</g>
	<g id="POLYLINE_4093_">
		<line class="st7" x1="259.7" y1="205.5" x2="258.8" y2="203.9"/>
	</g>
	<g id="POLYLINE_4092_">
		<line class="st7" x1="251.4" y1="205" x2="251.5" y2="203.1"/>
	</g>
	<g id="POLYLINE_4091_">
		<line class="st7" x1="246" y1="204.2" x2="244.7" y2="202.9"/>
	</g>
	<g id="POLYLINE_4090_">
		<line class="st7" x1="245.6" y1="210.3" x2="243.7" y2="210.1"/>
	</g>
	<g id="POLYLINE_4089_">
		<line class="st7" x1="245" y1="216.4" x2="243.1" y2="216.3"/>
	</g>
	<g id="POLYLINE_4088_">
		<line class="st7" x1="250.7" y1="224.1" x2="250.8" y2="222.2"/>
	</g>
	<g id="POLYLINE_4087_">
		<line class="st7" x1="258.5" y1="225" x2="258.5" y2="223.2"/>
	</g>
	<g id="POLYLINE_4086_">
		<line class="st7" x1="265.5" y1="225.6" x2="267" y2="224.4"/>
	</g>
	<g id="POLYLINE_4085_">
		<line class="st7" x1="264.6" y1="232.6" x2="266.5" y2="232.8"/>
	</g>
	<g id="POLYLINE_4084_">
		<line class="st7" x1="263.9" y1="240.4" x2="265.7" y2="240.5"/>
	</g>
	<g id="POLYLINE_4083_">
		<line class="st7" x1="281.3" y1="249.2" x2="282.6" y2="250.5"/>
	</g>
	<g id="POLYLINE_4082_">
		<line class="st7" x1="270.2" y1="247.6" x2="270" y2="249.5"/>
	</g>
	<g id="POLYLINE_4081_">
		<line class="st7" x1="276.2" y1="248.3" x2="276" y2="250.1"/>
	</g>
	<g id="POLYLINE_4080_">
		<line class="st7" x1="240.6" y1="328.9" x2="241.9" y2="330.3"/>
	</g>
	<g id="POLYLINE_4079_">
		<line class="st7" x1="236.3" y1="333.3" x2="238.1" y2="333.9"/>
	</g>
	<g id="POLYLINE_4078_">
		<line class="st7" x1="241.7" y1="322.1" x2="243" y2="320.8"/>
	</g>
	<g id="POLYLINE_4077_">
		<line class="st7" x1="236.7" y1="317.1" x2="238" y2="315.9"/>
	</g>
	<g id="POLYLINE_4076_">
		<line class="st7" x1="245" y1="325" x2="246.7" y2="325"/>
	</g>
	<g id="POLYLINE_4075_">
		<line class="st7" x1="282.1" y1="236.5" x2="283.9" y2="237"/>
	</g>
	<g id="POLYLINE_4074_">
		<line class="st7" x1="373.3" y1="247.3" x2="371.6" y2="246.9"/>
	</g>
	<g id="POLYLINE_4073_">
		<line class="st7" x1="344.4" y1="198.7" x2="343.9" y2="200.5"/>
	</g>
	<g id="POLYLINE_4072_">
		<line class="st7" x1="369.6" y1="240.6" x2="368.1" y2="241.6"/>
	</g>
	<g id="POLYLINE_4071_">
		<line class="st7" x1="366.1" y1="234.6" x2="364.5" y2="235.5"/>
	</g>
	<g id="POLYLINE_4070_">
		<line class="st7" x1="362.5" y1="228.6" x2="360.9" y2="229.5"/>
	</g>
	<g id="POLYLINE_4069_">
		<line class="st7" x1="358.9" y1="222.5" x2="357.3" y2="223.4"/>
	</g>
	<g id="POLYLINE_4068_">
		<line class="st7" x1="355.3" y1="216.5" x2="353.7" y2="217.4"/>
	</g>
	<g id="POLYLINE_4067_">
		<line class="st7" x1="351.7" y1="210.4" x2="350.1" y2="211.4"/>
	</g>
	<g id="POLYLINE_4066_">
		<line class="st7" x1="348.1" y1="204.4" x2="346.5" y2="205.3"/>
	</g>
	<g id="POLYLINE_4065_">
		<line class="st7" x1="338" y1="202.3" x2="339" y2="203.9"/>
	</g>
	<g id="POLYLINE_4064_">
		<line class="st7" x1="331.8" y1="206" x2="332.8" y2="207.6"/>
	</g>
	<g id="POLYLINE_4063_">
		<line class="st7" x1="325.6" y1="209.7" x2="326.6" y2="211.3"/>
	</g>
	<g id="POLYLINE_4062_">
		<line class="st7" x1="319.4" y1="213.5" x2="320.4" y2="215.1"/>
	</g>
	<g id="POLYLINE_4061_">
		<line class="st7" x1="313.2" y1="217.2" x2="314.2" y2="218.8"/>
	</g>
	<g id="POLYLINE_4060_">
		<line class="st7" x1="307" y1="220.9" x2="308" y2="222.5"/>
	</g>
	<g id="POLYLINE_4059_">
		<line class="st7" x1="300.8" y1="224.7" x2="301.8" y2="226.3"/>
	</g>
	<g id="POLYLINE_4058_">
		<line class="st7" x1="294.6" y1="228.4" x2="295.6" y2="230"/>
	</g>
	<g id="POLYLINE_4057_">
		<line class="st7" x1="288.4" y1="232.1" x2="289.3" y2="233.7"/>
	</g>
	<g id="POLYLINE_4056_">
		<line class="st7" x1="376.6" y1="267.4" x2="376.8" y2="269.2"/>
	</g>
	<g id="POLYLINE_4055_">
		<line class="st7" x1="369.6" y1="265.8" x2="368.5" y2="267.3"/>
	</g>
	<g id="POLYLINE_4054_">
		<line class="st7" x1="365.1" y1="258.6" x2="363.3" y2="259"/>
	</g>
	<g id="POLYLINE_4053_">
		<line class="st7" x1="366.7" y1="251.7" x2="365.1" y2="250.7"/>
	</g>
	<g id="POLYLINE_4052_">
		<line class="st7" x1="383.4" y1="263.3" x2="383" y2="265"/>
	</g>
	<g id="POLYLINE_4051_">
		<line class="st7" x1="442.6" y1="318.6" x2="440.9" y2="318.7"/>
	</g>
	<g id="POLYLINE_4050_">
		<line class="st7" x1="437.2" y1="325" x2="435.8" y2="323.9"/>
	</g>
	<g id="POLYLINE_4049_">
		<line class="st7" x1="437.5" y1="313.5" x2="436.3" y2="314.8"/>
	</g>
	<g id="POLYLINE_4048_">
		<line class="st7" x1="432.6" y1="308.9" x2="431.4" y2="310.2"/>
	</g>
	<g id="POLYLINE_4047_">
		<line class="st7" x1="427.7" y1="304.4" x2="426.5" y2="305.7"/>
	</g>
	<g id="POLYLINE_4046_">
		<line class="st7" x1="422.8" y1="299.8" x2="421.6" y2="301.1"/>
	</g>
	<g id="POLYLINE_4045_">
		<line class="st7" x1="418" y1="295.3" x2="416.7" y2="296.6"/>
	</g>
	<g id="POLYLINE_4044_">
		<line class="st7" x1="413.1" y1="290.7" x2="411.9" y2="292.1"/>
	</g>
	<g id="POLYLINE_4043_">
		<line class="st7" x1="408.2" y1="286.2" x2="407" y2="287.5"/>
	</g>
	<g id="POLYLINE_4042_">
		<line class="st7" x1="403.3" y1="281.7" x2="402.1" y2="283"/>
	</g>
	<g id="POLYLINE_4041_">
		<line class="st7" x1="398.5" y1="277.1" x2="397.2" y2="278.4"/>
	</g>
	<g id="POLYLINE_4040_">
		<line class="st7" x1="393.6" y1="272.6" x2="392.4" y2="273.9"/>
	</g>
	<g id="POLYLINE_4039_">
		<line class="st7" x1="388.7" y1="268" x2="387.5" y2="269.3"/>
	</g>
	<g id="POLYLINE_4038_">
		<line class="st7" x1="445.1" y1="367.1" x2="443.4" y2="367.7"/>
	</g>
	<g id="POLYLINE_4037_">
		<line class="st7" x1="442.9" y1="360.9" x2="441.2" y2="361.5"/>
	</g>
	<g id="POLYLINE_4036_">
		<line class="st7" x1="440.8" y1="354.7" x2="439.1" y2="355.3"/>
	</g>
	<g id="POLYLINE_4035_">
		<line class="st7" x1="438.6" y1="348.5" x2="436.9" y2="349.1"/>
	</g>
	<g id="POLYLINE_4034_">
		<line class="st7" x1="436.4" y1="342.4" x2="434.7" y2="342.9"/>
	</g>
	<g id="POLYLINE_4033_">
		<line class="st7" x1="434.3" y1="336.2" x2="432.6" y2="336.8"/>
	</g>
	<g id="POLYLINE_4032_">
		<line class="st7" x1="447.2" y1="373.9" x2="445.6" y2="373.2"/>
	</g>
	<g id="POLYLINE_4031_">
		<line class="st7" x1="409.8" y1="387.8" x2="409.2" y2="386.1"/>
	</g>
	<g id="POLYLINE_4030_">
		<line class="st7" x1="415.9" y1="385.5" x2="415.3" y2="383.9"/>
	</g>
	<g id="POLYLINE_4029_">
		<line class="st7" x1="422.1" y1="383.3" x2="421.5" y2="381.6"/>
	</g>
	<g id="POLYLINE_4028_">
		<line class="st7" x1="428.2" y1="381.1" x2="427.6" y2="379.4"/>
	</g>
	<g id="POLYLINE_4027_">
		<line class="st7" x1="434.4" y1="378.8" x2="433.8" y2="377.2"/>
	</g>
	<g id="POLYLINE_4026_">
		<line class="st7" x1="440.5" y1="376.6" x2="439.9" y2="374.9"/>
	</g>
	<g id="POLYLINE_4025_">
		<line class="st7" x1="328.2" y1="395.5" x2="328.4" y2="393.8"/>
	</g>
	<g id="POLYLINE_4024_">
		<line class="st7" x1="334.8" y1="396.5" x2="335" y2="394.7"/>
	</g>
	<g id="POLYLINE_4023_">
		<line class="st7" x1="341.4" y1="397.4" x2="341.6" y2="395.6"/>
	</g>
	<g id="POLYLINE_4022_">
		<line class="st7" x1="348" y1="398.3" x2="348.2" y2="396.5"/>
	</g>
	<g id="POLYLINE_4021_">
		<line class="st7" x1="354.6" y1="399.2" x2="354.8" y2="397.4"/>
	</g>
	<g id="POLYLINE_4020_">
		<line class="st7" x1="361.2" y1="400.1" x2="361.4" y2="398.3"/>
	</g>
	<g id="POLYLINE_4019_">
		<line class="st7" x1="367.8" y1="401" x2="368" y2="399.2"/>
	</g>
	<g id="POLYLINE_4018_">
		<line class="st7" x1="374.4" y1="401.9" x2="374.6" y2="400.1"/>
	</g>
	<g id="POLYLINE_4017_">
		<line class="st7" x1="381" y1="402.8" x2="381.2" y2="401"/>
	</g>
	<g id="POLYLINE_4016_">
		<line class="st7" x1="387.6" y1="403.7" x2="387.8" y2="401.9"/>
	</g>
	<g id="POLYLINE_4015_">
		<line class="st7" x1="394.2" y1="404.6" x2="394.5" y2="402.8"/>
	</g>
	<g id="POLYLINE_4014_">
		<line class="st7" x1="403" y1="397.1" x2="401.3" y2="396.7"/>
	</g>
	<g id="POLYLINE_4013_">
		<line class="st7" x1="401.4" y1="405.4" x2="400.4" y2="403.9"/>
	</g>
	<g id="POLYLINE_4012_">
		<line class="st7" x1="294.9" y1="398.2" x2="294.6" y2="396.5"/>
	</g>
	<g id="POLYLINE_4011_">
		<line class="st7" x1="288" y1="399.4" x2="287.7" y2="397.6"/>
	</g>
	<g id="POLYLINE_4010_">
		<line class="st7" x1="281.1" y1="400.5" x2="280.8" y2="398.8"/>
	</g>
	<g id="POLYLINE_4009_">
		<line class="st7" x1="274.1" y1="401.7" x2="273.8" y2="399.9"/>
	</g>
	<g id="POLYLINE_4008_">
		<line class="st7" x1="267.2" y1="402.9" x2="266.9" y2="401.1"/>
	</g>
	<g id="POLYLINE_4007_">
		<line class="st7" x1="260.3" y1="404" x2="260" y2="402.3"/>
	</g>
	<g id="POLYLINE_4006_">
		<line class="st7" x1="253.3" y1="405.2" x2="253" y2="403.4"/>
	</g>
	<g id="POLYLINE_4005_">
		<line class="st7" x1="246.5" y1="405.9" x2="247.9" y2="404.7"/>
	</g>
	<g id="POLYLINE_4004_">
		<line class="st7" x1="237" y1="340.5" x2="238.8" y2="340.3"/>
	</g>
	<g id="POLYLINE_4003_">
		<line class="st7" x1="238" y1="347.7" x2="239.8" y2="347.4"/>
	</g>
	<g id="POLYLINE_4002_">
		<line class="st7" x1="239" y1="354.9" x2="240.8" y2="354.6"/>
	</g>
	<g id="POLYLINE_4001_">
		<line class="st7" x1="240" y1="362" x2="241.9" y2="361.8"/>
	</g>
	<g id="POLYLINE_4000_">
		<line class="st7" x1="241.1" y1="369.2" x2="242.9" y2="368.9"/>
	</g>
	<g id="POLYLINE_3999_">
		<line class="st7" x1="242.1" y1="376.4" x2="243.9" y2="376.1"/>
	</g>
	<g id="POLYLINE_3998_">
		<line class="st7" x1="243.1" y1="383.5" x2="245" y2="383.3"/>
	</g>
	<g id="POLYLINE_3997_">
		<line class="st7" x1="244.2" y1="390.7" x2="246" y2="390.4"/>
	</g>
	<g id="POLYLINE_3996_">
		<line class="st7" x1="245.2" y1="397.9" x2="247" y2="397.6"/>
	</g>
	<g id="POLYLINE_3995_">
		<line class="st7" x1="223.4" y1="324.4" x2="222.1" y2="323.2"/>
	</g>
	<g id="POLYLINE_3994_">
		<line class="st7" x1="228.4" y1="319.5" x2="227.1" y2="318.2"/>
	</g>
	<g id="POLYLINE_3993_">
		<line class="st7" x1="217" y1="328.6" x2="217.2" y2="330.4"/>
	</g>
	<g id="POLYLINE_3992_">
		<line class="st7" x1="189.1" y1="325.8" x2="187.3" y2="325.9"/>
	</g>
	<g id="POLYLINE_3991_">
		<line class="st7" x1="197.3" y1="317.9" x2="196" y2="316.6"/>
	</g>
	<g id="POLYLINE_3990_">
		<line class="st7" x1="192.4" y1="322.9" x2="191.1" y2="321.7"/>
	</g>
	<g id="POLYLINE_3989_">
		<line class="st7" x1="206.3" y1="320.1" x2="207.6" y2="318.9"/>
	</g>
	<g id="POLYLINE_3988_">
		<line class="st7" x1="211.3" y1="325.1" x2="212.5" y2="323.8"/>
	</g>
	<g id="POLYLINE_3987_">
		<line class="st7" x1="189.2" y1="406.3" x2="188.1" y2="404.9"/>
	</g>
	<g id="POLYLINE_3984_">
		<line class="st7" x1="134.3" y1="397.9" x2="135.8" y2="396.8"/>
	</g>
	<g id="POLYLINE_3983_">
		<line class="st7" x1="182.2" y1="405.5" x2="182.5" y2="403.7"/>
	</g>
	<g id="POLYLINE_3982_">
		<line class="st7" x1="175.2" y1="404.4" x2="175.5" y2="402.6"/>
	</g>
	<g id="POLYLINE_3981_">
		<line class="st7" x1="168.3" y1="403.3" x2="168.6" y2="401.6"/>
	</g>
	<g id="POLYLINE_3980_">
		<line class="st7" x1="161.3" y1="402.3" x2="161.6" y2="400.5"/>
	</g>
	<g id="POLYLINE_3979_">
		<line class="st7" x1="154.4" y1="401.2" x2="154.7" y2="399.4"/>
	</g>
	<g id="POLYLINE_3978_">
		<line class="st7" x1="147.4" y1="400.1" x2="147.7" y2="398.3"/>
	</g>
	<g id="POLYLINE_3977_">
		<line class="st7" x1="140.5" y1="399" x2="140.8" y2="397.3"/>
	</g>
	<g id="POLYLINE_3976_">
		<line class="st7" x1="198.2" y1="343.3" x2="196.4" y2="343"/>
	</g>
	<g id="POLYLINE_3975_">
		<line class="st7" x1="197.3" y1="350.2" x2="195.5" y2="350"/>
	</g>
	<g id="POLYLINE_3974_">
		<line class="st7" x1="196.3" y1="357.2" x2="194.6" y2="357"/>
	</g>
	<g id="POLYLINE_3973_">
		<line class="st7" x1="195.4" y1="364.2" x2="193.6" y2="363.9"/>
	</g>
	<g id="POLYLINE_3972_">
		<line class="st7" x1="194.5" y1="371.1" x2="192.7" y2="370.9"/>
	</g>
	<g id="POLYLINE_3971_">
		<line class="st7" x1="193.5" y1="378.1" x2="191.8" y2="377.9"/>
	</g>
	<g id="POLYLINE_3970_">
		<line class="st7" x1="192.6" y1="385.1" x2="190.8" y2="384.8"/>
	</g>
	<g id="POLYLINE_3969_">
		<line class="st7" x1="191.7" y1="392" x2="189.9" y2="391.8"/>
	</g>
	<g id="POLYLINE_3968_">
		<line class="st7" x1="190.8" y1="399" x2="189" y2="398.8"/>
	</g>
	<g id="POLYLINE_3967_">
		<line class="st7" x1="199.1" y1="335.4" x2="197.5" y2="336.2"/>
	</g>
	<g id="POLYLINE_3966_">
		<line class="st7" x1="193.9" y1="330.2" x2="192.6" y2="331.4"/>
	</g>
	<g id="POLYLINE_3965_">
		<line class="st7" x1="302.4" y1="396.7" x2="301" y2="395.7"/>
	</g>
	<g id="POLYLINE_3964_">
		<line class="st7" x1="321" y1="394.3" x2="322.4" y2="393.2"/>
	</g>
	<g id="POLYLINE_3963_">
		<line class="st7" x1="320" y1="386.6" x2="321.5" y2="385.6"/>
	</g>
	<g id="POLYLINE_3962_">
		<line class="st7" x1="314.4" y1="382.2" x2="314.8" y2="380.4"/>
	</g>
	<g id="POLYLINE_3961_">
		<line class="st7" x1="305.9" y1="383.2" x2="305.1" y2="381.6"/>
	</g>
	<g id="POLYLINE_3960_">
		<line class="st7" x1="301.6" y1="388.8" x2="299.9" y2="388.2"/>
	</g>
	<g id="POLYLINE_3959_">
		<line class="st7" x1="7.6" y1="401" x2="9.2" y2="400.1"/>
	</g>
	<g id="POLYLINE_3958_">
		<line class="st7" x1="76.9" y1="232.8" x2="77.7" y2="234.4"/>
	</g>
	<g id="POLYLINE_3957_">
		<line class="st7" x1="158.9" y1="238.7" x2="157.4" y2="237.8"/>
	</g>
	<g id="POLYLINE_3956_">
		<line class="st7" x1="172" y1="232.2" x2="172.6" y2="233.9"/>
	</g>
	<g id="POLYLINE_3955_">
		<line class="st7" x1="165.4" y1="234.7" x2="166" y2="236.3"/>
	</g>
	<g id="POLYLINE_3954_">
		<line class="st7" x1="160.2" y1="246.2" x2="161.9" y2="245.6"/>
	</g>
	<g id="POLYLINE_3953_">
		<line class="st7" x1="162.7" y1="252.8" x2="164.4" y2="252.2"/>
	</g>
	<g id="POLYLINE_3952_">
		<line class="st7" x1="154.5" y1="264.4" x2="155.1" y2="266"/>
	</g>
	<g id="POLYLINE_3951_">
		<line class="st7" x1="161.1" y1="261.9" x2="161.7" y2="263.6"/>
	</g>
	<g id="POLYLINE_3950_">
		<line class="st7" x1="150.5" y1="266.1" x2="149.7" y2="267.8"/>
	</g>
	<g id="POLYLINE_3949_">
		<line class="st7" x1="148.5" y1="260.1" x2="146.8" y2="260.7"/>
	</g>
	<g id="POLYLINE_3948_">
		<line class="st7" x1="145.8" y1="253.1" x2="144.5" y2="254.3"/>
	</g>
	<g id="POLYLINE_3947_">
		<line class="st7" x1="70.3" y1="289.3" x2="71.5" y2="287.9"/>
	</g>
	<g id="POLYLINE_3946_">
		<line class="st7" x1="64.6" y1="308.1" x2="64.9" y2="309.8"/>
	</g>
	<g id="POLYLINE_3945_">
		<line class="st7" x1="73.9" y1="295.9" x2="75.7" y2="295.8"/>
	</g>
	<g id="POLYLINE_3944_">
		<line class="st7" x1="71.3" y1="304.5" x2="72.8" y2="305.6"/>
	</g>
	<g id="POLYLINE_3943_">
		<line class="st7" x1="56.6" y1="305.8" x2="57.4" y2="307.4"/>
	</g>
	<g id="POLYLINE_3942_">
		<line class="st7" x1="62.4" y1="286.7" x2="63.9" y2="285.8"/>
	</g>
	<g id="POLYLINE_3941_">
		<line class="st7" x1="114.5" y1="395.3" x2="113.4" y2="393.9"/>
	</g>
	<g id="POLYLINE_3940_">
		<line class="st7" x1="130.6" y1="383.5" x2="131.5" y2="381.9"/>
	</g>
	<g id="POLYLINE_3939_">
		<line class="st7" x1="121.7" y1="382.4" x2="121.3" y2="380.6"/>
	</g>
	<g id="POLYLINE_3938_">
		<line class="st7" x1="135.2" y1="389.5" x2="136.9" y2="388.9"/>
	</g>
	<g id="POLYLINE_3937_">
		<line class="st7" x1="115.8" y1="387" x2="114.2" y2="386"/>
	</g>
	<g id="POLYLINE_3936_">
		<line class="st7" x1="107" y1="395.9" x2="106.9" y2="394.1"/>
	</g>
	<g id="POLYLINE_3935_">
		<line class="st7" x1="100" y1="396.3" x2="99.9" y2="394.5"/>
	</g>
	<g id="POLYLINE_3934_">
		<line class="st7" x1="93" y1="396.7" x2="92.9" y2="394.9"/>
	</g>
	<g id="POLYLINE_3933_">
		<line class="st7" x1="85.9" y1="397.1" x2="85.8" y2="395.3"/>
	</g>
	<g id="POLYLINE_3932_">
		<line class="st7" x1="78.9" y1="397.5" x2="78.8" y2="395.7"/>
	</g>
	<g id="POLYLINE_3931_">
		<line class="st7" x1="43.8" y1="399.4" x2="43.7" y2="397.6"/>
	</g>
	<g id="POLYLINE_3930_">
		<line class="st7" x1="50.9" y1="399" x2="50.8" y2="397.3"/>
	</g>
	<g id="POLYLINE_3929_">
		<line class="st7" x1="57.9" y1="398.6" x2="57.8" y2="396.9"/>
	</g>
	<g id="POLYLINE_3928_">
		<line class="st7" x1="64.9" y1="398.3" x2="64.8" y2="396.5"/>
	</g>
	<g id="POLYLINE_3927_">
		<line class="st7" x1="15.8" y1="401" x2="15.7" y2="399.2"/>
	</g>
	<g id="POLYLINE_3926_">
		<line class="st7" x1="22.8" y1="400.6" x2="22.7" y2="398.8"/>
	</g>
	<g id="POLYLINE_3925_">
		<line class="st7" x1="29.8" y1="400.2" x2="29.7" y2="398.4"/>
	</g>
	<g id="POLYLINE_3924_">
		<line class="st7" x1="17.4" y1="381.1" x2="19" y2="381.9"/>
	</g>
	<g id="POLYLINE_3923_">
		<line class="st7" x1="14.2" y1="387.3" x2="15.8" y2="388.2"/>
	</g>
	<g id="POLYLINE_3922_">
		<line class="st7" x1="10.9" y1="393.6" x2="12.5" y2="394.4"/>
	</g>
	<g id="POLYLINE_3921_">
		<line class="st7" x1="33.6" y1="349.9" x2="35.2" y2="350.7"/>
	</g>
	<g id="POLYLINE_3920_">
		<line class="st7" x1="30.3" y1="356.1" x2="31.9" y2="356.9"/>
	</g>
	<g id="POLYLINE_3919_">
		<line class="st7" x1="27.1" y1="362.4" x2="28.7" y2="363.2"/>
	</g>
	<g id="POLYLINE_3918_">
		<line class="st7" x1="23.9" y1="368.6" x2="25.5" y2="369.4"/>
	</g>
	<g id="POLYLINE_3917_">
		<line class="st7" x1="40" y1="337.4" x2="41.6" y2="338.2"/>
	</g>
	<g id="POLYLINE_3916_">
		<line class="st7" x1="43.3" y1="331.1" x2="44.8" y2="332"/>
	</g>
	<g id="POLYLINE_3915_">
		<line class="st7" x1="46.5" y1="324.9" x2="48.1" y2="325.7"/>
	</g>
	<g id="POLYLINE_3914_">
		<line class="st7" x1="49.7" y1="318.7" x2="51.3" y2="319.5"/>
	</g>
	<g id="POLYLINE_3913_">
		<line class="st7" x1="52.9" y1="312.4" x2="54.5" y2="313.2"/>
	</g>
	<g id="POLYLINE_3912_">
		<line class="st7" x1="74.7" y1="239.8" x2="76.4" y2="240.3"/>
	</g>
	<g id="POLYLINE_3911_">
		<line class="st7" x1="72.9" y1="246.6" x2="74.6" y2="247.1"/>
	</g>
	<g id="POLYLINE_3910_">
		<line class="st7" x1="71.1" y1="253.4" x2="72.8" y2="253.9"/>
	</g>
	<g id="POLYLINE_3909_">
		<line class="st7" x1="69.2" y1="260.2" x2="71" y2="260.7"/>
	</g>
	<g id="POLYLINE_3908_">
		<line class="st7" x1="67.4" y1="267" x2="69.1" y2="267.4"/>
	</g>
	<g id="POLYLINE_3907_">
		<line class="st7" x1="65.6" y1="273.8" x2="67.3" y2="274.2"/>
	</g>
	<g id="POLYLINE_3906_">
		<line class="st7" x1="63.7" y1="280.6" x2="65.5" y2="281"/>
	</g>
	<g id="POLYLINE_3905_">
		<line class="st7" x1="84.4" y1="234.7" x2="83.9" y2="236.4"/>
	</g>
	<g id="POLYLINE_3904_">
		<line class="st7" x1="91.1" y1="236.7" x2="90.6" y2="238.4"/>
	</g>
	<g id="POLYLINE_3903_">
		<line class="st7" x1="97.9" y1="238.7" x2="97.3" y2="240.4"/>
	</g>
	<g id="POLYLINE_3902_">
		<line class="st7" x1="104.6" y1="240.7" x2="104.1" y2="242.4"/>
	</g>
	<g id="POLYLINE_3901_">
		<line class="st7" x1="111.3" y1="242.7" x2="110.8" y2="244.5"/>
	</g>
	<g id="POLYLINE_3900_">
		<line class="st7" x1="118.1" y1="244.7" x2="117.6" y2="246.5"/>
	</g>
	<g id="POLYLINE_3810_">
		<line class="st7" x1="124.8" y1="246.7" x2="124.3" y2="248.5"/>
	</g>
	<g id="POLYLINE_3809_">
		<line class="st7" x1="131.5" y1="248.7" x2="131" y2="250.5"/>
	</g>
	<g id="POLYLINE_3808_">
		<line class="st7" x1="138.3" y1="250.7" x2="137.8" y2="252.5"/>
	</g>
</g>
<g id="PLAN_x24_STRUCTURE_1.1">
</g>
</svg>
