<?xml version="1.0" encoding="utf-8"?>
<!-- Generator: Adobe Illustrator 22.0.1, SVG Export Plug-In . SVG Version: 6.00 Build 0)  -->
<svg version="1.1" id="Calque_1" xmlns="http://www.w3.org/2000/svg" xmlns:xlink="http://www.w3.org/1999/xlink" x="0px" y="0px"
	 viewBox="0 0 100.1 100" style="enable-background:new 0 0 100.1 100;" xml:space="preserve">
<style type="text/css">
	.st0{display:none;}
	.st1{display:inline;}
	.st2{fill:none;}
	.st3{fill:none;stroke:#000000;stroke-width:0.1;stroke-linecap:square;stroke-miterlimit:10;stroke-dasharray:0.5,0.5;}
	.st4{fill:none;stroke:#000000;stroke-width:5.000000e-02;stroke-linecap:square;stroke-miterlimit:10;}
	.st5{fill:none;stroke:#000000;stroke-width:8.000000e-02;stroke-linecap:square;stroke-miterlimit:10;}
	.st6{fill:none;stroke:#000000;stroke-width:0.14;stroke-linecap:square;stroke-miterlimit:10;}
	.st7{fill:none;stroke:#000000;stroke-width:0.27;stroke-linecap:square;stroke-miterlimit:10;}
	.st8{fill:none;stroke:#000000;stroke-width:0.41;stroke-linecap:square;stroke-miterlimit:10;}
</style>
<g id="Calque_1_1_">
</g>
<g id="INFOS_x24_A4" class="st0">
	<g id="POLYLINE_4548_" class="st1">
		<rect x="-261.4" y="-369.3" class="st2" width="595.3" height="841.9"/>
	</g>
</g>
<g id="PLAN_x24_FOND">
</g>
<g id="PLAN_x24_POINTILLE">
	<g id="POLYLINE_4844_">
		<line class="st3" x1="44.6" y1="20.6" x2="50.4" y2="17.6"/>
	</g>
	<g id="POLYLINE_4843_">
		<line class="st3" x1="44.6" y1="19.9" x2="50.4" y2="16.9"/>
	</g>
</g>
<g id="PLAN_x24_VITRAGE">
	<g id="ARC_323_">
		<path class="st4" d="M42.5,4.4c-1.7,0.3-3.3,0.7-4.9,1.1"/>
	</g>
	<g id="ARC_322_">
		<path class="st4" d="M32.5,7.3C31,8,29.5,8.7,28,9.5"/>
	</g>
	<g id="ARC_321_">
		<path class="st4" d="M23.4,12.4c-1.4,1-2.7,2-4,3.2"/>
	</g>
	<g id="ARC_320_">
		<path class="st4" d="M15.7,19.3c-1.1,1.3-2.2,2.6-3.2,4"/>
	</g>
	<g id="ARC_319_">
		<path class="st4" d="M9.7,27.8c-0.8,1.5-1.5,3-2.2,4.6"/>
	</g>
	<g id="ARC_318_">
		<path class="st4" d="M5.7,37.4c-0.5,1.6-0.8,3.3-1.1,4.9"/>
	</g>
	<g id="ARC_317_">
		<path class="st4" d="M4,47.7c-0.1,1.7-0.1,3.4,0,5.1"/>
	</g>
	<g id="ARC_316_">
		<path class="st4" d="M4.6,58c0.3,1.7,0.7,3.3,1.1,4.9"/>
	</g>
	<g id="ARC_315_">
		<path class="st4" d="M7.5,68c0.6,1.6,1.4,3.1,2.2,4.6"/>
	</g>
	<g id="ARC_314_">
		<path class="st4" d="M12.5,77.1c1,1.4,2,2.7,3.2,4"/>
	</g>
	<g id="ARC_313_">
		<path class="st4" d="M19.5,84.8c1.3,1.1,2.6,2.2,4,3.2"/>
	</g>
	<g id="ARC_312_">
		<path class="st4" d="M28,90.8c1.5,0.8,3,1.5,4.6,2.2"/>
	</g>
	<g id="ARC_311_">
		<path class="st4" d="M37.6,94.8c1.6,0.5,3.3,0.8,4.9,1.1"/>
	</g>
	<g id="ARC_310_">
		<path class="st4" d="M47.8,96.5c1.7,0.1,3.4,0.1,5.1,0"/>
	</g>
	<g id="ARC_309_">
		<path class="st4" d="M58.2,95.9c1.7-0.3,3.3-0.7,4.9-1.1"/>
	</g>
	<g id="ARC_308_">
		<path class="st4" d="M68.2,93c1.6-0.6,3.1-1.4,4.6-2.2"/>
	</g>
	<g id="ARC_307_">
		<path class="st4" d="M77.3,88c1.4-1,2.7-2,4-3.2"/>
	</g>
	<g id="ARC_306_">
		<path class="st4" d="M85,81.1c1.1-1.3,2.2-2.6,3.2-4"/>
	</g>
	<g id="ARC_305_">
		<path class="st4" d="M91,72.6c0.8-1.5,1.5-3,2.2-4.6"/>
	</g>
	<g id="ARC_304_">
		<path class="st4" d="M95,63c0.5-1.6,0.8-3.3,1.1-4.9"/>
	</g>
	<g id="ARC_303_">
		<path class="st4" d="M96.7,52.7c0.1-1.7,0.1-3.4,0-5.1"/>
	</g>
	<g id="ARC_302_">
		<path class="st4" d="M96.1,42.3c-0.3-1.7-0.7-3.3-1.1-4.9"/>
	</g>
	<g id="ARC_301_">
		<path class="st4" d="M93.2,32.4c-0.6-1.6-1.4-3.1-2.2-4.6"/>
	</g>
	<g id="ARC_300_">
		<path class="st4" d="M88.2,23.3c-1-1.4-2-2.7-3.2-4"/>
	</g>
	<g id="ARC_299_">
		<path class="st4" d="M81.2,15.5c-1.3-1.1-2.6-2.2-4-3.2"/>
	</g>
	<g id="ARC_298_">
		<path class="st4" d="M72.7,9.5c-1.5-0.8-3-1.5-4.6-2.2"/>
	</g>
	<g id="ARC_297_">
		<path class="st4" d="M63.1,5.6c-1.6-0.5-3.3-0.8-4.9-1.1"/>
	</g>
	<g id="ARC_296_">
		<path class="st4" d="M52.9,3.8c-1.7-0.1-3.4-0.1-5.1,0"/>
	</g>
</g>
<g id="PLAN_x24_MOBILIER">
</g>
<g id="PLAN_x24_DETAIL">
	<g id="ARC">
		<path class="st5" d="M89,77.9c-0.6,0.5-1.2,1.1-1.7,1.8"/>
	</g>
	<g id="ARC_419_">
		<path class="st5" d="M87.3,79.6c-0.5,0.6-1,1.3-1.3,2.1"/>
	</g>
	<g id="ARC_418_">
		<path class="st5" d="M78,11.5c0.5,0.6,1.1,1.2,1.8,1.7"/>
	</g>
	<g id="ARC_417_">
		<path class="st5" d="M79.8,13.3c0.6,0.5,1.3,1,2.1,1.3"/>
	</g>
	<g id="ARC_416_">
		<path class="st5" d="M22.7,88.8c-0.5-0.6-1.1-1.2-1.8-1.7"/>
	</g>
	<g id="ARC_415_">
		<path class="st5" d="M20.9,87.1c-0.6-0.5-1.3-1-2.1-1.3"/>
	</g>
	<g id="ARC_414_">
		<path class="st5" d="M4.6,63.1c0-0.8-0.1-1.6-0.3-2.5"/>
	</g>
	<g id="ARC_413_">
		<path class="st5" d="M4.3,60.7c-0.2-0.8-0.5-1.6-0.8-2.3"/>
	</g>
	<g id="ARC_412_">
		<path class="st5" d="M96.1,37.2c0,0.8,0.1,1.6,0.3,2.5"/>
	</g>
	<g id="ARC_411_">
		<path class="st5" d="M96.4,39.7c0.2,0.8,0.5,1.6,0.8,2.3"/>
	</g>
	<g id="ARC_410_">
		<path class="st5" d="M18.8,14.6c0.7-0.4,1.4-0.8,2.1-1.3"/>
	</g>
	<g id="ARC_409_">
		<path class="st5" d="M20.9,13.3c0.6-0.5,1.2-1.1,1.8-1.7"/>
	</g>
	<g id="ARC_408_">
		<path class="st5" d="M81.9,85.8c-0.7,0.4-1.4,0.8-2.1,1.3"/>
	</g>
	<g id="ARC_407_">
		<path class="st5" d="M79.8,87.1c-0.6,0.5-1.2,1.1-1.8,1.7"/>
	</g>
	<g id="ARC_406_">
		<path class="st5" d="M85.9,18.7c0.4,0.7,0.8,1.4,1.3,2.1"/>
	</g>
	<g id="ARC_405_">
		<path class="st5" d="M87.3,20.8c0.5,0.6,1.1,1.2,1.7,1.8"/>
	</g>
	<g id="ARC_404_">
		<path class="st5" d="M14.8,81.7c-0.4-0.7-0.8-1.4-1.3-2.1"/>
	</g>
	<g id="ARC_403_">
		<path class="st5" d="M13.4,79.6c-0.5-0.6-1.1-1.2-1.7-1.8"/>
	</g>
	<g id="ARC_402_">
		<path class="st5" d="M97.8,47.7c-0.2,0.8-0.3,1.6-0.3,2.5"/>
	</g>
	<g id="ARC_401_">
		<path class="st5" d="M97.6,50.2c0,0.8,0.1,1.6,0.3,2.5"/>
	</g>
	<g id="ARC_400_">
		<path class="st5" d="M2.9,52.6c0.2-0.8,0.3-1.6,0.3-2.5"/>
	</g>
	<g id="ARC_399_">
		<path class="st5" d="M3.1,50.2c0-0.8-0.1-1.6-0.3-2.5"/>
	</g>
	<g id="ARC_398_">
		<path class="st5" d="M6.5,31.8c0.5-0.7,0.9-1.4,1.3-2.1"/>
	</g>
	<g id="ARC_397_">
		<path class="st5" d="M7.8,29.7c0.4-0.7,0.6-1.5,0.8-2.3"/>
	</g>
	<g id="ARC_396_">
		<path class="st5" d="M11.7,22.5c0.6-0.5,1.2-1.1,1.7-1.8"/>
	</g>
	<g id="ARC_395_">
		<path class="st5" d="M13.4,20.8c0.5-0.6,1-1.3,1.3-2.1"/>
	</g>
	<g id="ARC_394_">
		<path class="st5" d="M63.3,95.9c-0.8,0-1.6,0.1-2.5,0.3"/>
	</g>
	<g id="ARC_393_">
		<path class="st5" d="M60.9,96.2c-0.8,0.2-1.6,0.5-2.3,0.8"/>
	</g>
	<g id="ARC_392_">
		<path class="st5" d="M42.2,97c-0.7-0.3-1.5-0.6-2.3-0.8"/>
	</g>
	<g id="ARC_391_">
		<path class="st5" d="M39.9,96.2c-0.8-0.2-1.6-0.3-2.5-0.3"/>
	</g>
	<g id="ARC_390_">
		<path class="st5" d="M58.5,3.4c0.7,0.3,1.5,0.6,2.3,0.8"/>
	</g>
	<g id="ARC_389_">
		<path class="st5" d="M60.9,4.2c0.8,0.2,1.6,0.3,2.5,0.3"/>
	</g>
	<g id="ARC_388_">
		<path class="st5" d="M97.2,58.4c-0.3,0.7-0.6,1.5-0.8,2.3"/>
	</g>
	<g id="ARC_387_">
		<path class="st5" d="M96.4,60.7c-0.2,0.8-0.3,1.6-0.3,2.5"/>
	</g>
	<g id="ARC_386_">
		<path class="st5" d="M94.2,68.6c-0.5,0.7-0.9,1.4-1.3,2.1"/>
	</g>
	<g id="ARC_385_">
		<path class="st5" d="M92.9,70.7c-0.4,0.7-0.6,1.5-0.8,2.3"/>
	</g>
	<g id="ARC_384_">
		<path class="st5" d="M32,94c-0.7-0.5-1.4-0.9-2.1-1.3"/>
	</g>
	<g id="ARC_383_">
		<path class="st5" d="M29.9,92.7c-0.7-0.4-1.5-0.6-2.3-0.8"/>
	</g>
	<g id="ARC_382_">
		<path class="st5" d="M68.7,6.4c0.7,0.5,1.4,0.9,2.1,1.3"/>
	</g>
	<g id="ARC_381_">
		<path class="st5" d="M70.8,7.7c0.7,0.4,1.5,0.6,2.3,0.8"/>
	</g>
	<g id="ARC_380_">
		<path class="st5" d="M8.7,73c-0.2-0.8-0.5-1.6-0.8-2.3"/>
	</g>
	<g id="ARC_379_">
		<path class="st5" d="M7.8,70.7c-0.4-0.7-0.8-1.4-1.3-2.1"/>
	</g>
	<g id="ARC_378_">
		<path class="st5" d="M73.2,91.9c-0.8,0.2-1.6,0.5-2.3,0.8"/>
	</g>
	<g id="ARC_377_">
		<path class="st5" d="M70.8,92.7c-0.7,0.4-1.4,0.8-2.1,1.3"/>
	</g>
	<g id="ARC_376_">
		<path class="st5" d="M92.1,27.4c0.2,0.8,0.5,1.6,0.8,2.3"/>
	</g>
	<g id="ARC_375_">
		<path class="st5" d="M92.9,29.7c0.4,0.7,0.8,1.4,1.3,2.1"/>
	</g>
	<g id="ARC_374_">
		<path class="st5" d="M47.9,2.7C48.7,2.9,49.5,3,50.4,3"/>
	</g>
	<g id="ARC_373_">
		<path class="st5" d="M50.4,3c0.8,0,1.6-0.1,2.5-0.3"/>
	</g>
	<g id="ARC_372_">
		<path class="st5" d="M52.8,97.7c-0.8-0.2-1.6-0.3-2.5-0.3"/>
	</g>
	<g id="ARC_371_">
		<path class="st5" d="M50.4,97.4c-0.8,0-1.6,0.1-2.5,0.3"/>
	</g>
	<g id="ARC_370_">
		<path class="st5" d="M3.5,42c0.3-0.7,0.6-1.5,0.8-2.3"/>
	</g>
	<g id="ARC_369_">
		<path class="st5" d="M4.3,39.7c0.2-0.8,0.3-1.6,0.3-2.5"/>
	</g>
	<g id="ARC_368_">
		<path class="st5" d="M27.6,8.5c0.8-0.2,1.6-0.5,2.3-0.8"/>
	</g>
	<g id="ARC_367_">
		<path class="st5" d="M29.9,7.7c0.7-0.4,1.4-0.8,2.1-1.3"/>
	</g>
	<g id="ARC_366_">
		<path class="st5" d="M37.4,4.5c0.8,0,1.6-0.1,2.5-0.3"/>
	</g>
	<g id="ARC_365_">
		<path class="st5" d="M39.9,4.2c0.8-0.2,1.6-0.5,2.3-0.8"/>
	</g>
	<g id="ARC_364_">
		<path class="st5" d="M42.7,5c-1.7,0.3-3.4,0.7-5,1.1"/>
	</g>
	<g id="ARC_363_">
		<path class="st5" d="M32.8,7.9c-1.6,0.7-3.1,1.4-4.6,2.2"/>
	</g>
	<g id="ARC_362_">
		<path class="st5" d="M23.9,12.8c-1.4,1-2.7,2.1-4,3.2"/>
	</g>
	<g id="ARC_361_">
		<path class="st5" d="M16.2,19.7c-1.1,1.3-2.2,2.6-3.2,4"/>
	</g>
	<g id="ARC_360_">
		<path class="st5" d="M10.3,28c-0.8,1.5-1.6,3-2.2,4.6"/>
	</g>
	<g id="ARC_359_">
		<path class="st5" d="M6.4,37.5c-0.5,1.6-0.9,3.3-1.1,5"/>
	</g>
	<g id="ARC_358_">
		<path class="st5" d="M4.6,47.6c-0.1,1.7-0.1,3.4,0,5.1"/>
	</g>
	<g id="ARC_357_">
		<path class="st5" d="M5.2,57.9c0.3,1.7,0.7,3.4,1.1,5"/>
	</g>
	<g id="ARC_356_">
		<path class="st5" d="M8.1,67.7c0.7,1.6,1.4,3.1,2.2,4.6"/>
	</g>
	<g id="ARC_355_">
		<path class="st5" d="M13,76.7c1,1.4,2.1,2.7,3.2,4"/>
	</g>
	<g id="ARC_354_">
		<path class="st5" d="M19.8,84.3c1.3,1.1,2.6,2.2,4,3.2"/>
	</g>
	<g id="ARC_353_">
		<path class="st5" d="M28.2,90.3c1.5,0.8,3,1.6,4.6,2.2"/>
	</g>
	<g id="ARC_352_">
		<path class="st5" d="M37.7,94.2c1.6,0.5,3.3,0.9,5,1.1"/>
	</g>
	<g id="ARC_351_">
		<path class="st5" d="M47.8,95.9c1.7,0.1,3.4,0.1,5.1,0"/>
	</g>
	<g id="ARC_350_">
		<path class="st5" d="M58,95.3c1.7-0.3,3.4-0.7,5-1.1"/>
	</g>
	<g id="ARC_349_">
		<path class="st5" d="M67.9,92.5c1.6-0.7,3.1-1.4,4.6-2.2"/>
	</g>
	<g id="ARC_348_">
		<path class="st5" d="M76.9,87.5c1.4-1,2.7-2.1,4-3.2"/>
	</g>
	<g id="ARC_347_">
		<path class="st5" d="M84.5,80.7c1.1-1.3,2.2-2.6,3.2-4"/>
	</g>
	<g id="ARC_346_">
		<path class="st5" d="M90.4,72.3c0.8-1.5,1.6-3,2.2-4.6"/>
	</g>
	<g id="ARC_345_">
		<path class="st5" d="M94.4,62.9c0.5-1.6,0.9-3.3,1.1-5"/>
	</g>
	<g id="ARC_344_">
		<path class="st5" d="M96.1,52.8c0.1-1.7,0.1-3.4,0-5.1"/>
	</g>
	<g id="ARC_343_">
		<path class="st5" d="M95.5,42.5c-0.3-1.7-0.7-3.4-1.1-5"/>
	</g>
	<g id="ARC_342_">
		<path class="st5" d="M92.7,32.7c-0.7-1.6-1.4-3.1-2.2-4.6"/>
	</g>
	<g id="ARC_341_">
		<path class="st5" d="M87.7,23.7c-1-1.4-2.1-2.7-3.2-4"/>
	</g>
	<g id="ARC_340_">
		<path class="st5" d="M80.9,16c-1.3-1.1-2.6-2.2-4-3.2"/>
	</g>
	<g id="ARC_339_">
		<path class="st5" d="M72.5,10.1c-1.5-0.8-3-1.6-4.6-2.2"/>
	</g>
	<g id="ARC_338_">
		<path class="st5" d="M63,6.2c-1.6-0.5-3.3-0.9-5-1.1"/>
	</g>
	<g id="ARC_337_">
		<path class="st5" d="M52.9,4.5c-1.7-0.1-3.4-0.1-5.1,0"/>
	</g>
	<g id="POLYLINE_4665_">
		<line class="st5" x1="43.8" y1="37" x2="35.3" y2="44.3"/>
	</g>
	<g id="POLYLINE_4664_">
		<line class="st5" x1="35.3" y1="37" x2="43.8" y2="44.3"/>
	</g>
	<g id="POLYLINE_4663_">
		<rect x="35.3" y="37" class="st5" width="8.5" height="7.3"/>
	</g>
	<g id="POLYLINE_4662_">
		<rect x="35.3" y="46.1" class="st5" width="8.5" height="7.3"/>
	</g>
	<g id="POLYLINE_4661_">
		<line class="st5" x1="35.3" y1="53.4" x2="43.8" y2="46.1"/>
	</g>
	<g id="POLYLINE_4660_">
		<line class="st5" x1="43.8" y1="53.4" x2="35.3" y2="46.1"/>
	</g>
	<g id="POLYLINE_4659_">
		<line class="st5" x1="43.8" y1="63.6" x2="35.3" y2="56.3"/>
	</g>
	<g id="POLYLINE_4658_">
		<line class="st5" x1="35.3" y1="63.6" x2="43.8" y2="56.3"/>
	</g>
	<g id="POLYLINE_4657_">
		<rect x="35.3" y="56.3" class="st5" width="8.5" height="7.3"/>
	</g>
	<g id="LINE_635_">
		<line class="st5" x1="56.1" y1="11.6" x2="44.6" y2="11.6"/>
	</g>
	<g id="LINE_634_">
		<line class="st5" x1="56.1" y1="13.1" x2="44.6" y2="13.1"/>
	</g>
	<g id="LINE_633_">
		<line class="st5" x1="56.1" y1="14.6" x2="44.6" y2="14.6"/>
	</g>
	<g id="LINE_632_">
		<line class="st5" x1="56.2" y1="16.1" x2="44.6" y2="16.1"/>
	</g>
	<g id="LINE_631_">
		<line class="st5" x1="56.2" y1="20.6" x2="44.5" y2="20.6"/>
	</g>
	<g id="LINE_630_">
		<line class="st5" x1="56.2" y1="22.1" x2="44.5" y2="22.1"/>
	</g>
	<g id="LINE_629_">
		<line class="st5" x1="56.2" y1="23.6" x2="44.5" y2="23.6"/>
	</g>
	<g id="POLYLINE_4656_">
		<line class="st5" x1="56.2" y1="25.1" x2="44.5" y2="25.1"/>
	</g>
	<g id="POLYLINE_4655_">
		<line class="st5" x1="50.4" y1="25.1" x2="50.4" y2="11.6"/>
	</g>
	<g id="POLYLINE_4654_">
		<line class="st5" x1="52.8" y1="33.4" x2="52.8" y2="28.6"/>
	</g>
	<g id="ARC_336_">
		<path class="st5" d="M52.8,28.6c-2.7,0-4.8,2.2-4.8,4.8"/>
	</g>
	<g id="POLYLINE_4653_">
		<line class="st5" x1="58.9" y1="33.4" x2="58.9" y2="28.6"/>
	</g>
	<g id="ARC_335_">
		<path class="st5" d="M63.7,33.4c0-2.7-2.2-4.8-4.8-4.8"/>
	</g>
	<g id="POLYLINE_4652_">
		<line class="st5" x1="52.8" y1="66.2" x2="52.8" y2="71.1"/>
	</g>
	<g id="ARC_334_">
		<path class="st5" d="M48,66.2c0,2.7,2.2,4.8,4.8,4.8"/>
	</g>
	<g id="POLYLINE_4651_">
		<line class="st5" x1="56.7" y1="66.2" x2="56.7" y2="71.1"/>
	</g>
	<g id="ARC_333_">
		<path class="st5" d="M56.7,71.1c2.7,0,4.8-2.2,4.8-4.8"/>
	</g>
	<g id="POLYLINE_4650_">
		<line class="st5" x1="65" y1="52.6" x2="69.8" y2="52.6"/>
	</g>
	<g id="ARC_332_">
		<path class="st5" d="M69.8,52.6c0-2.7-2.2-4.8-4.8-4.8"/>
	</g>
	<g id="POLYLINE_4649_">
		<line class="st5" x1="65" y1="58.3" x2="69.8" y2="58.3"/>
	</g>
	<g id="ARC_331_">
		<path class="st5" d="M65,63.2c2.7,0,4.8-2.2,4.8-4.8"/>
	</g>
	<g id="POLYLINE_4648_">
		<line class="st5" x1="65" y1="42" x2="69.8" y2="42"/>
	</g>
	<g id="ARC_330_">
		<path class="st5" d="M69.8,42c0-2.7-2.2-4.8-4.8-4.8"/>
	</g>
	<g id="POLYLINE_4647_">
		<line class="st5" x1="31" y1="69.6" x2="27.6" y2="66.2"/>
	</g>
	<g id="ARC_329_">
		<path class="st5" d="M27.6,66.2c-1.9,1.9-1.9,4.9,0,6.8"/>
	</g>
	<g id="POLYLINE_4646_">
		<line class="st5" x1="24.8" y1="35.7" x2="24.8" y2="40.5"/>
	</g>
	<g id="ARC_328_">
		<path class="st5" d="M24.8,40.5c2.7,0,4.8-2.2,4.8-4.8"/>
	</g>
	<g id="POLYLINE_4645_">
		<line class="st5" x1="34.6" y1="27" x2="29.8" y2="27"/>
	</g>
	<g id="ARC_327_">
		<path class="st5" d="M29.8,27c0,2.7,2.2,4.8,4.8,4.8"/>
	</g>
	<g id="POLYLINE_4644_">
		<line class="st5" x1="43.6" y1="31.9" x2="38.8" y2="31.9"/>
	</g>
	<g id="ARC_326_">
		<path class="st5" d="M43.6,27c-2.7,0-4.8,2.2-4.8,4.8"/>
	</g>
	<g id="POLYLINE_4643_">
		<line class="st5" x1="42.4" y1="25.6" x2="42.4" y2="21.6"/>
	</g>
	<g id="ARC_325_">
		<path class="st5" d="M42.4,21.6c-2.2,0-4,1.8-4,4"/>
	</g>
	<g id="POLYLINE_4642_">
		<line class="st5" x1="34.6" y1="19.5" x2="30.7" y2="19.5"/>
	</g>
	<g id="ARC_324_">
		<path class="st5" d="M34.6,15.5c-2.2,0-4,1.8-4,4"/>
	</g>
	<g id="POLYLINE_4641_">
		<line class="st5" x1="38.8" y1="15.5" x2="35.1" y2="15.5"/>
	</g>
	<g id="POLYLINE_4640_">
		<line class="st5" x1="39.2" y1="15.5" x2="43" y2="15.5"/>
	</g>
	<g id="LINE_628_">
		<line class="st5" x1="56.2" y1="19.1" x2="50.4" y2="19.1"/>
	</g>
	<g id="LINE_627_">
		<line class="st5" x1="56.2" y1="17.6" x2="50.4" y2="17.6"/>
	</g>
	<g id="LINE_626_">
		<line class="st5" x1="47.5" y1="19.1" x2="50.4" y2="19.1"/>
	</g>
	<g id="POLYLINE_4639_">
		<line class="st5" x1="47.5" y1="17.6" x2="48.7" y2="17.6"/>
	</g>
	<g id="LINE_625_">
		<line class="st5" x1="46" y1="19.1" x2="44.5" y2="19.1"/>
	</g>
	<g id="LINE_624_">
		<line class="st5" x1="44.6" y1="17.6" x2="49" y2="17.6"/>
	</g>
</g>
<g id="PLAN_x24_CLOISON_TRANSLUCIDE">
</g>
<g id="PLAN_x24_CLOISON_1.3">
	<g id="LINE_648_">
		<line class="st6" x1="36.2" y1="8.4" x2="43" y2="8.4"/>
	</g>
	<g id="POLYLINE_4695_">
		<polyline class="st6" points="35.1,8.8 38.8,8.8 38.8,15.1 38.8,15.5 39.2,15.5 39.2,15.1 39.2,8.8 43,8.8 		"/>
	</g>
</g>
<g id="PLAN_x24_CLOISON_1.2">
</g>
<g id="PLAN_x24_CLOISON_1.1">
</g>
<g id="PLAN_x24_STRUCTURE_2.3">
	<g id="LINE_662_">
		<line class="st7" x1="67.7" y1="33.5" x2="81.8" y2="19.3"/>
	</g>
	<g id="LINE_661_">
		<line class="st7" x1="67" y1="32.9" x2="81.2" y2="18.7"/>
	</g>
	<g id="LINE_660_">
		<line class="st7" x1="67" y1="67.5" x2="81.2" y2="81.7"/>
	</g>
	<g id="LINE_659_">
		<line class="st7" x1="67.7" y1="66.9" x2="81.8" y2="81.1"/>
	</g>
	<g id="POLYLINE_4842_">
		<polyline class="st7" points="26.5,13.1 30.7,19.7 34.2,19.7 34.2,19.5 35.1,19.5 35.1,25.2 38.5,25.2 38.5,26 35.1,26 35.1,27 
			34.2,27 34.2,20.6 30.2,20.6 25.8,13.6 		"/>
	</g>
	<g id="POLYLINE_4841_">
		<polyline class="st7" points="36.2,32.9 42.8,32.9 42.8,31.9 44.4,31.9 44.4,32.9 48,32.9 48,33.9 45,33.9 45,39.1 44.3,39.1 
			44.3,33.9 36.2,33.9 		"/>
	</g>
	<g id="LINE_658_">
		<line class="st7" x1="94" y1="43.7" x2="65.5" y2="43.7"/>
	</g>
	<g id="LINE_657_">
		<line class="st7" x1="65.5" y1="43.7" x2="65.5" y2="47.8"/>
	</g>
	<g id="POLYLINE_4840_">
		<line class="st7" x1="65.5" y1="47.8" x2="64.5" y2="47.8"/>
	</g>
	<g id="POLYLINE_4839_">
		<line class="st7" x1="64.5" y1="47.8" x2="64.5" y2="42"/>
	</g>
	<g id="POLYLINE_4838_">
		<line class="st7" x1="64.5" y1="42" x2="65.5" y2="42"/>
	</g>
	<g id="LINE_656_">
		<line class="st7" x1="65.5" y1="42" x2="65.5" y2="42.8"/>
	</g>
	<g id="POLYLINE_4837_">
		<line class="st7" x1="65.5" y1="42.8" x2="93.3" y2="42.8"/>
	</g>
	<g id="SPLINE_336_">
		<path class="st7" d="M93.3,42.8c0.8,0,1.4-0.1,1.7-0.2"/>
	</g>
	<g id="POLYLINE_4836_">
		<polyline class="st7" points="65.5,64.4 65.5,63.2 64.5,63.2 64.5,64.4 		"/>
	</g>
	<g id="POLYLINE_4835_">
		<polyline class="st7" points="64.5,66.7 61.5,66.7 61.5,65.8 64.5,65.8 		"/>
	</g>
	<g id="POLYLINE_4834_">
		<polyline class="st7" points="34.8,64.4 34.8,55.6 44.3,55.6 44.3,56.1 45,56.1 45,52.8 44.3,52.8 44.3,55.1 34.8,55.1 34.8,45.4 
			44.3,45.4 44.3,47.6 45,47.6 45,44.2 44.3,44.2 44.3,44.9 34.8,44.9 34.8,36 		"/>
	</g>
	<g id="LINE_655_">
		<line class="st7" x1="44.6" y1="6.5" x2="44.5" y2="27"/>
	</g>
	<g id="POLYLINE_4781_">
		<line class="st7" x1="44.5" y1="27" x2="42.9" y2="27"/>
	</g>
	<g id="POLYLINE_4780_">
		<line class="st7" x1="42.9" y1="27" x2="42.9" y2="26"/>
	</g>
	<g id="POLYLINE_4779_">
		<line class="st7" x1="42.9" y1="26" x2="42.4" y2="26"/>
	</g>
	<g id="POLYLINE_4778_">
		<line class="st7" x1="42.4" y1="26" x2="42.4" y2="25.2"/>
	</g>
	<g id="LINE_654_">
		<line class="st7" x1="42.4" y1="25.2" x2="42.9" y2="25.2"/>
	</g>
	<g id="POLYLINE_4777_">
		<line class="st7" x1="42.9" y1="25.2" x2="43" y2="7.1"/>
	</g>
	<g id="SPLINE_335_">
		<path class="st7" d="M43,7.1C43,6.7,43,6.3,43,6"/>
	</g>
	<g id="POLYLINE_4776_">
		<polyline class="st7" points="33.1,36 29.6,36.1 29.6,35.2 33.1,35.2 		"/>
	</g>
	<g id="POLYLINE_4775_">
		<polyline class="st7" points="34.2,32.9 34.2,31.9 35.1,31.9 35.1,32.9 		"/>
	</g>
	<g id="SPLINE_334_">
		<path class="st7" d="M57.7,6c0,0.3-0.1,0.6-0.1,1.1"/>
	</g>
	<g id="POLYLINE_4774_">
		<line class="st7" x1="57.7" y1="7.1" x2="57.9" y2="32.9"/>
	</g>
	<g id="POLYLINE_4773_">
		<line class="st7" x1="57.9" y1="32.9" x2="58.9" y2="32.9"/>
	</g>
	<g id="POLYLINE_4772_">
		<line class="st7" x1="58.9" y1="32.9" x2="58.9" y2="33.9"/>
	</g>
	<g id="LINE_653_">
		<line class="st7" x1="58.9" y1="33.9" x2="52.8" y2="33.9"/>
	</g>
	<g id="POLYLINE_4771_">
		<line class="st7" x1="52.8" y1="33.9" x2="52.8" y2="32.9"/>
	</g>
	<g id="POLYLINE_4770_">
		<line class="st7" x1="52.8" y1="32.9" x2="56.3" y2="32.9"/>
	</g>
	<g id="LINE_652_">
		<line class="st7" x1="56.3" y1="32.9" x2="56.1" y2="6.5"/>
	</g>
	<g id="POLYLINE_4769_">
		<polyline class="st7" points="65.5,36 65.5,37.2 64.5,37.2 64.5,36 		"/>
	</g>
	<g id="POLYLINE_4768_">
		<polyline class="st7" points="64.5,33.9 63.7,33.9 63.7,32.9 64.5,32.9 		"/>
	</g>
	<g id="POLYLINE_4767_">
		<polyline class="st7" points="8.7,35.6 24.8,35.3 24.8,36.2 8.5,36.5 		"/>
	</g>
	<g id="POLYLINE_4766_">
		<polyline class="st7" points="35.1,8.8 35.1,15.5 34.2,15.5 34.2,9.2 		"/>
	</g>
	<g id="LINE_651_">
		<line class="st7" x1="94" y1="56.7" x2="65.5" y2="56.7"/>
	</g>
	<g id="LINE_650_">
		<line class="st7" x1="65.5" y1="56.7" x2="65.5" y2="52.6"/>
	</g>
	<g id="POLYLINE_4765_">
		<line class="st7" x1="65.5" y1="52.6" x2="64.5" y2="52.6"/>
	</g>
	<g id="POLYLINE_4764_">
		<line class="st7" x1="64.5" y1="52.6" x2="64.5" y2="58.3"/>
	</g>
	<g id="POLYLINE_4763_">
		<line class="st7" x1="64.5" y1="58.3" x2="65.5" y2="58.3"/>
	</g>
	<g id="LINE_649_">
		<line class="st7" x1="65.5" y1="58.3" x2="65.5" y2="57.5"/>
	</g>
	<g id="POLYLINE_4762_">
		<line class="st7" x1="65.5" y1="57.5" x2="93.3" y2="57.5"/>
	</g>
	<g id="SPLINE_333_">
		<path class="st7" d="M93.3,57.5c0.8,0,1.4,0.1,1.7,0.2"/>
	</g>
	<g id="POLYLINE_4761_">
		<polyline class="st7" points="54.9,94 54.9,66.7 52.8,66.7 52.8,65.8 56.7,65.8 56.7,66.7 55.7,66.7 55.7,94 		"/>
	</g>
	<g id="POLYLINE_4760_">
		<polyline class="st7" points="36.2,66.7 48,66.7 48,65.8 45,65.8 45,61.3 44.3,61.3 44.3,65.8 36.2,65.8 		"/>
	</g>
	<g id="POLYLINE_4759_">
		<polyline class="st7" points="33.7,67.5 31.3,69.9 30.7,69.3 33.1,66.9 		"/>
	</g>
	<g id="POLYLINE_4758_">
		<polyline class="st7" points="18.9,81.1 27.3,72.7 27.9,73.3 19.5,81.7 		"/>
	</g>
	<g id="POLYLINE_4757_">
		<polyline class="st7" points="33.8,64.4 33.8,55.9 6.6,56 		"/>
	</g>
	<g id="POLYLINE_4756_">
		<polyline class="st7" points="6.5,55.1 33.8,55 33.8,36 		"/>
	</g>
</g>
<g id="PLAN_x24_STRUCTURE_2.2">
</g>
<g id="PLAN_x24_STRUCTURE_2.1">
</g>
<g id="PLAN_x24_STRUCTURE_1.3">
	<g id="ARC_295_">
		<path class="st8" d="M44.9,1.6c1,0.5,2,0.9,3,1.1"/>
	</g>
	<g id="POLYLINE_4638_">
		<line class="st8" x1="47.9" y1="2.7" x2="47.7" y2="5.4"/>
	</g>
	<g id="SPLINE_276_">
		<path class="st8" d="M47.7,5.4c0,0.5-0.2,0.8-0.6,0.8"/>
	</g>
	<g id="ARC_294_">
		<path class="st8" d="M47.2,6.2c-1.2,0.1-2.3,0.2-3.5,0.4"/>
	</g>
	<g id="SPLINE_275_">
		<path class="st8" d="M43.7,6.6c-0.3,0-0.6-0.2-0.7-0.7"/>
	</g>
	<g id="POLYLINE_4637_">
		<line class="st8" x1="42.9" y1="5.9" x2="42.2" y2="3.4"/>
	</g>
	<g id="ARC_293_">
		<path class="st8" d="M42.2,3.4c1-0.5,1.9-1,2.7-1.7"/>
	</g>
	<g id="ARC_292_">
		<path class="st8" d="M66.5,4.1c0.6,0.9,1.4,1.6,2.2,2.3"/>
	</g>
	<g id="POLYLINE_4636_">
		<line class="st8" x1="68.7" y1="6.4" x2="67.4" y2="8.7"/>
	</g>
	<g id="SPLINE_274_">
		<path class="st8" d="M67.4,8.7c-0.3,0.5-0.6,0.6-0.9,0.5"/>
	</g>
	<g id="ARC_291_">
		<path class="st8" d="M66.6,9.2c-1.1-0.4-2.2-0.8-3.3-1.2"/>
	</g>
	<g id="SPLINE_273_">
		<path class="st8" d="M63.3,8c-0.3-0.1-0.5-0.4-0.4-0.9"/>
	</g>
	<g id="POLYLINE_4635_">
		<line class="st8" x1="62.9" y1="7.1" x2="63.3" y2="4.5"/>
	</g>
	<g id="ARC_290_">
		<path class="st8" d="M63.3,4.5c1.1,0,2.1-0.1,3.2-0.4"/>
	</g>
	<g id="ARC_289_">
		<path class="st8" d="M76.4,8.8c0.4,1,1,1.9,1.7,2.7"/>
	</g>
	<g id="POLYLINE_4634_">
		<line class="st8" x1="78" y1="11.5" x2="76.2" y2="13.5"/>
	</g>
	<g id="SPLINE_272_">
		<path class="st8" d="M76.2,13.5c-0.4,0.4-0.7,0.5-1,0.3"/>
	</g>
	<g id="ARC_288_">
		<path class="st8" d="M75.3,13.8c-1-0.7-1.9-1.3-3-1.9"/>
	</g>
	<g id="SPLINE_271_">
		<path class="st8" d="M72.3,12c-0.3-0.2-0.4-0.5-0.2-1"/>
	</g>
	<g id="POLYLINE_4633_">
		<line class="st8" x1="72.2" y1="11" x2="73.2" y2="8.5"/>
	</g>
	<g id="ARC_287_">
		<path class="st8" d="M73.2,8.5c1,0.3,2.1,0.4,3.2,0.3"/>
	</g>
	<g id="ARC_286_">
		<path class="st8" d="M84.9,15.6c0.2,1.1,0.5,2.1,1,3"/>
	</g>
	<g id="POLYLINE_4632_">
		<line class="st8" x1="85.9" y1="18.7" x2="83.8" y2="20.2"/>
	</g>
	<g id="SPLINE_270_">
		<path class="st8" d="M83.8,20.2c-0.4,0.3-0.8,0.3-1,0.1"/>
	</g>
	<g id="ARC_285_">
		<path class="st8" d="M82.7,20.3c-0.8-0.9-1.6-1.7-2.5-2.5"/>
	</g>
	<g id="SPLINE_269_">
		<path class="st8" d="M80.3,17.8c-0.3-0.2-0.2-0.6,0.1-1"/>
	</g>
	<g id="POLYLINE_4631_">
		<line class="st8" x1="80.4" y1="16.8" x2="81.9" y2="14.6"/>
	</g>
	<g id="ARC_284_">
		<path class="st8" d="M81.9,14.6c1,0.5,2,0.8,3,1"/>
	</g>
	<g id="ARC_283_">
		<path class="st8" d="M91.7,24.2c0,1.1,0.1,2.2,0.3,3.2"/>
	</g>
	<g id="POLYLINE_4630_">
		<line class="st8" x1="92.1" y1="27.4" x2="89.6" y2="28.4"/>
	</g>
	<g id="SPLINE_268_">
		<path class="st8" d="M89.6,28.4c-0.5,0.2-0.8,0.1-1-0.2"/>
	</g>
	<g id="ARC_282_">
		<path class="st8" d="M88.6,28.2c-0.6-1-1.2-2-1.9-3"/>
	</g>
	<g id="SPLINE_267_">
		<path class="st8" d="M86.7,25.3c-0.2-0.3-0.1-0.6,0.3-1"/>
	</g>
	<g id="POLYLINE_4629_">
		<line class="st8" x1="87" y1="24.3" x2="89" y2="22.5"/>
	</g>
	<g id="ARC_281_">
		<path class="st8" d="M89,22.5c0.8,0.7,1.8,1.2,2.7,1.7"/>
	</g>
	<g id="ARC_280_">
		<path class="st8" d="M96.5,34c-0.3,1-0.4,2.1-0.4,3.2"/>
	</g>
	<g id="POLYLINE_4628_">
		<line class="st8" x1="96.1" y1="37.2" x2="93.5" y2="37.7"/>
	</g>
	<g id="SPLINE_266_">
		<path class="st8" d="M93.5,37.7c-0.5,0.1-0.8,0-0.9-0.4"/>
	</g>
	<g id="ARC_279_">
		<path class="st8" d="M92.5,37.3c-0.3-1.1-0.7-2.2-1.2-3.3"/>
	</g>
	<g id="SPLINE_265_">
		<path class="st8" d="M91.4,34c-0.1-0.3,0-0.6,0.5-0.9"/>
	</g>
	<g id="POLYLINE_4627_">
		<line class="st8" x1="91.9" y1="33.1" x2="94.2" y2="31.8"/>
	</g>
	<g id="ARC_278_">
		<path class="st8" d="M94.2,31.8c0.7,0.9,1.4,1.6,2.3,2.2"/>
	</g>
	<g id="ARC_277_">
		<path class="st8" d="M96.5,66.3c-0.9,0.6-1.6,1.4-2.3,2.2"/>
	</g>
	<g id="POLYLINE_4626_">
		<line class="st8" x1="94.2" y1="68.6" x2="91.9" y2="67.3"/>
	</g>
	<g id="SPLINE_264_">
		<path class="st8" d="M91.9,67.3c-0.5-0.3-0.6-0.6-0.5-0.9"/>
	</g>
	<g id="ARC_276_">
		<path class="st8" d="M91.4,66.4c0.4-1.1,0.8-2.2,1.2-3.3"/>
	</g>
	<g id="SPLINE_263_">
		<path class="st8" d="M92.5,63.1c0.1-0.3,0.4-0.5,0.9-0.4"/>
	</g>
	<g id="POLYLINE_4625_">
		<line class="st8" x1="93.5" y1="62.7" x2="96.1" y2="63.1"/>
	</g>
	<g id="ARC_275_">
		<path class="st8" d="M96.1,63.1c0,1.1,0.1,2.1,0.4,3.2"/>
	</g>
	<g id="ARC_274_">
		<path class="st8" d="M91.7,76.2c-1,0.4-1.9,1-2.7,1.7"/>
	</g>
	<g id="POLYLINE_4624_">
		<line class="st8" x1="89" y1="77.9" x2="87" y2="76.1"/>
	</g>
	<g id="SPLINE_262_">
		<path class="st8" d="M87,76.1c-0.4-0.4-0.5-0.7-0.3-1"/>
	</g>
	<g id="ARC_273_">
		<path class="st8" d="M86.7,75.1c0.7-1,1.3-1.9,1.9-3"/>
	</g>
	<g id="SPLINE_261_">
		<path class="st8" d="M88.6,72.2c0.2-0.3,0.5-0.4,1-0.2"/>
	</g>
	<g id="POLYLINE_4623_">
		<line class="st8" x1="89.6" y1="72" x2="92.1" y2="73"/>
	</g>
	<g id="ARC_272_">
		<path class="st8" d="M92.1,73c-0.3,1-0.4,2.1-0.3,3.2"/>
	</g>
	<g id="ARC_271_">
		<path class="st8" d="M84.9,84.7c-1.1,0.2-2.1,0.5-3,1"/>
	</g>
	<g id="POLYLINE_4622_">
		<line class="st8" x1="81.9" y1="85.8" x2="80.4" y2="83.6"/>
	</g>
	<g id="SPLINE_260_">
		<path class="st8" d="M80.4,83.6c-0.3-0.4-0.3-0.8-0.1-1"/>
	</g>
	<g id="ARC_270_">
		<path class="st8" d="M80.3,82.6c0.9-0.8,1.7-1.6,2.5-2.5"/>
	</g>
	<g id="SPLINE_259_">
		<path class="st8" d="M82.7,80.1c0.2-0.3,0.6-0.2,1,0.1"/>
	</g>
	<g id="POLYLINE_4621_">
		<line class="st8" x1="83.8" y1="80.2" x2="85.9" y2="81.7"/>
	</g>
	<g id="ARC_269_">
		<path class="st8" d="M85.9,81.7c-0.5,1-0.8,2-1,3"/>
	</g>
	<g id="ARC_268_">
		<path class="st8" d="M76.4,91.6c-1.1,0-2.2,0.1-3.2,0.3"/>
	</g>
	<g id="POLYLINE_4590_">
		<line class="st8" x1="73.2" y1="91.9" x2="72.2" y2="89.4"/>
	</g>
	<g id="SPLINE_258_">
		<path class="st8" d="M72.2,89.4c-0.2-0.5-0.1-0.8,0.2-1"/>
	</g>
	<g id="ARC_267_">
		<path class="st8" d="M72.3,88.4c1-0.6,2-1.2,3-1.9"/>
	</g>
	<g id="SPLINE_257_">
		<path class="st8" d="M75.3,86.6c0.3-0.2,0.6-0.1,1,0.3"/>
	</g>
	<g id="POLYLINE_4589_">
		<line class="st8" x1="76.2" y1="86.9" x2="78" y2="88.8"/>
	</g>
	<g id="ARC_266_">
		<path class="st8" d="M78,88.8c-0.7,0.8-1.2,1.8-1.7,2.7"/>
	</g>
	<g id="ARC_265_">
		<path class="st8" d="M66.5,96.3c-1-0.3-2.1-0.4-3.2-0.4"/>
	</g>
	<g id="POLYLINE_4588_">
		<line class="st8" x1="63.3" y1="95.9" x2="62.9" y2="93.3"/>
	</g>
	<g id="SPLINE_256_">
		<path class="st8" d="M62.9,93.3c-0.1-0.5,0-0.8,0.4-0.9"/>
	</g>
	<g id="ARC_264_">
		<path class="st8" d="M63.3,92.3c1.1-0.3,2.2-0.7,3.3-1.2"/>
	</g>
	<g id="SPLINE_255_">
		<path class="st8" d="M66.6,91.2c0.3-0.1,0.6,0,0.9,0.5"/>
	</g>
	<g id="POLYLINE_4587_">
		<line class="st8" x1="67.4" y1="91.7" x2="68.7" y2="94"/>
	</g>
	<g id="ARC_263_">
		<path class="st8" d="M68.7,94c-0.9,0.7-1.6,1.4-2.2,2.3"/>
	</g>
	<g id="ARC_262_">
		<path class="st8" d="M55.8,98.8c-1-0.5-2-0.9-3-1.1"/>
	</g>
	<g id="POLYLINE_4586_">
		<line class="st8" x1="52.8" y1="97.7" x2="53" y2="95"/>
	</g>
	<g id="SPLINE_254_">
		<path class="st8" d="M53,95c0-0.5,0.2-0.8,0.6-0.8"/>
	</g>
	<g id="ARC_261_">
		<path class="st8" d="M53.6,94.2c1.2-0.1,2.3-0.2,3.5-0.4"/>
	</g>
	<g id="SPLINE_253_">
		<path class="st8" d="M57,93.8c0.3,0,0.6,0.2,0.7,0.7"/>
	</g>
	<g id="POLYLINE_4585_">
		<line class="st8" x1="57.8" y1="94.5" x2="58.5" y2="97"/>
	</g>
	<g id="ARC_260_">
		<path class="st8" d="M58.5,97c-1,0.5-1.9,1-2.7,1.7"/>
	</g>
	<g id="ARC_259_">
		<path class="st8" d="M44.9,98.8c-0.8-0.7-1.7-1.3-2.7-1.7"/>
	</g>
	<g id="POLYLINE_4584_">
		<line class="st8" x1="42.2" y1="97" x2="42.9" y2="94.5"/>
	</g>
	<g id="SPLINE_252_">
		<path class="st8" d="M42.9,94.5c0.2-0.5,0.4-0.7,0.7-0.7"/>
	</g>
	<g id="ARC_258_">
		<path class="st8" d="M43.7,93.8c1.2,0.2,2.3,0.3,3.5,0.4"/>
	</g>
	<g id="SPLINE_251_">
		<path class="st8" d="M47.2,94.2c0.3,0,0.5,0.3,0.6,0.8"/>
	</g>
	<g id="POLYLINE_4583_">
		<line class="st8" x1="47.7" y1="95" x2="47.9" y2="97.7"/>
	</g>
	<g id="ARC_257_">
		<path class="st8" d="M47.9,97.7c-1.1,0.2-2.1,0.6-3,1.1"/>
	</g>
	<g id="ARC_256_">
		<path class="st8" d="M34.2,96.3c-0.6-0.9-1.4-1.6-2.2-2.3"/>
	</g>
	<g id="POLYLINE_4582_">
		<line class="st8" x1="32" y1="94" x2="33.3" y2="91.7"/>
	</g>
	<g id="SPLINE_250_">
		<path class="st8" d="M33.3,91.7c0.3-0.5,0.6-0.6,0.9-0.5"/>
	</g>
	<g id="ARC_255_">
		<path class="st8" d="M34.2,91.2c1.1,0.4,2.2,0.8,3.3,1.2"/>
	</g>
	<g id="SPLINE_249_">
		<path class="st8" d="M37.5,92.3c0.3,0.1,0.5,0.4,0.4,0.9"/>
	</g>
	<g id="POLYLINE_4581_">
		<line class="st8" x1="37.8" y1="93.3" x2="37.4" y2="95.9"/>
	</g>
	<g id="ARC_254_">
		<path class="st8" d="M37.4,95.9c-1.1,0-2.1,0.1-3.2,0.4"/>
	</g>
	<g id="ARC_253_">
		<path class="st8" d="M24.4,91.6c-0.4-1-1-1.9-1.7-2.7"/>
	</g>
	<g id="POLYLINE_4580_">
		<line class="st8" x1="22.7" y1="88.8" x2="24.5" y2="86.9"/>
	</g>
	<g id="SPLINE_248_">
		<path class="st8" d="M24.5,86.9c0.4-0.4,0.7-0.5,1-0.3"/>
	</g>
	<g id="ARC_252_">
		<path class="st8" d="M25.4,86.6c1,0.7,1.9,1.3,3,1.9"/>
	</g>
	<g id="SPLINE_247_">
		<path class="st8" d="M28.4,88.4c0.3,0.2,0.4,0.5,0.2,1"/>
	</g>
	<g id="POLYLINE_4579_">
		<line class="st8" x1="28.6" y1="89.4" x2="27.6" y2="91.9"/>
	</g>
	<g id="ARC_251_">
		<path class="st8" d="M27.6,91.9c-1-0.3-2.1-0.4-3.2-0.3"/>
	</g>
	<g id="ARC_250_">
		<path class="st8" d="M15.8,84.7c-0.2-1.1-0.5-2.1-1-3"/>
	</g>
	<g id="POLYLINE_4578_">
		<line class="st8" x1="14.8" y1="81.7" x2="17" y2="80.2"/>
	</g>
	<g id="SPLINE_246_">
		<path class="st8" d="M17,80.2c0.4-0.3,0.8-0.3,1-0.1"/>
	</g>
	<g id="ARC_249_">
		<path class="st8" d="M18,80.1c0.8,0.9,1.6,1.7,2.5,2.5"/>
	</g>
	<g id="SPLINE_245_">
		<path class="st8" d="M20.4,82.6c0.3,0.2,0.2,0.6-0.1,1"/>
	</g>
	<g id="POLYLINE_4577_">
		<line class="st8" x1="20.4" y1="83.6" x2="18.8" y2="85.8"/>
	</g>
	<g id="ARC_248_">
		<path class="st8" d="M18.8,85.8c-1-0.5-2-0.8-3-1"/>
	</g>
	<g id="ARC_247_">
		<path class="st8" d="M9,76.2C9,75.1,8.9,74,8.7,73"/>
	</g>
	<g id="POLYLINE_4576_">
		<line class="st8" x1="8.7" y1="73" x2="11.1" y2="72"/>
	</g>
	<g id="SPLINE_244_">
		<path class="st8" d="M11.1,72c0.5-0.2,0.8-0.1,1,0.2"/>
	</g>
	<g id="ARC_246_">
		<path class="st8" d="M12.1,72.2c0.6,1,1.2,2,1.9,3"/>
	</g>
	<g id="SPLINE_243_">
		<path class="st8" d="M14,75.1c0.2,0.3,0.1,0.6-0.3,1"/>
	</g>
	<g id="POLYLINE_4575_">
		<line class="st8" x1="13.7" y1="76.1" x2="11.7" y2="77.9"/>
	</g>
	<g id="ARC_245_">
		<path class="st8" d="M11.7,77.9c-0.8-0.7-1.8-1.2-2.7-1.7"/>
	</g>
	<g id="ARC_244_">
		<path class="st8" d="M4.2,66.3c0.3-1,0.4-2.1,0.4-3.2"/>
	</g>
	<g id="POLYLINE_4574_">
		<line class="st8" x1="4.6" y1="63.1" x2="7.3" y2="62.7"/>
	</g>
	<g id="SPLINE_242_">
		<path class="st8" d="M7.3,62.7c0.5-0.1,0.8,0,0.9,0.4"/>
	</g>
	<g id="ARC_243_">
		<path class="st8" d="M8.2,63.1c0.3,1.1,0.7,2.2,1.2,3.3"/>
	</g>
	<g id="SPLINE_241_">
		<path class="st8" d="M9.4,66.4c0.1,0.3,0,0.6-0.5,0.9"/>
	</g>
	<g id="POLYLINE_4573_">
		<line class="st8" x1="8.8" y1="67.3" x2="6.5" y2="68.6"/>
	</g>
	<g id="ARC_242_">
		<path class="st8" d="M6.5,68.6c-0.7-0.9-1.4-1.6-2.3-2.2"/>
	</g>
	<g id="ARC_214_">
		<path class="st8" d="M1.8,55.7c0.5-1,0.9-2,1.1-3"/>
	</g>
	<g id="POLYLINE_4572_">
		<line class="st8" x1="2.9" y1="52.6" x2="5.5" y2="52.8"/>
	</g>
	<g id="SPLINE_240_">
		<path class="st8" d="M5.5,52.8c0.5,0,0.8,0.2,0.8,0.6"/>
	</g>
	<g id="ARC_213_">
		<path class="st8" d="M6.4,53.4c0.1,1.2,0.2,2.3,0.4,3.5"/>
	</g>
	<g id="SPLINE_239_">
		<path class="st8" d="M6.8,56.9c0,0.3-0.2,0.6-0.7,0.7"/>
	</g>
	<g id="POLYLINE_4571_">
		<line class="st8" x1="6.1" y1="57.6" x2="3.5" y2="58.4"/>
	</g>
	<g id="ARC_212_">
		<path class="st8" d="M3.5,58.4c-0.5-1-1-1.9-1.7-2.7"/>
	</g>
	<g id="ARC_211_">
		<path class="st8" d="M1.8,44.7C2.5,43.9,3.1,43,3.5,42"/>
	</g>
	<g id="POLYLINE_4570_">
		<line class="st8" x1="3.5" y1="42" x2="6.1" y2="42.8"/>
	</g>
	<g id="SPLINE_238_">
		<path class="st8" d="M6.1,42.8c0.5,0.2,0.7,0.4,0.7,0.7"/>
	</g>
	<g id="ARC_210_">
		<path class="st8" d="M6.8,43.5c-0.2,1.2-0.3,2.3-0.4,3.5"/>
	</g>
	<g id="SPLINE_237_">
		<path class="st8" d="M6.4,47c0,0.3-0.3,0.5-0.8,0.6"/>
	</g>
	<g id="POLYLINE_4569_">
		<line class="st8" x1="5.5" y1="47.6" x2="2.9" y2="47.7"/>
	</g>
	<g id="ARC_209_">
		<path class="st8" d="M2.9,47.7c-0.2-1.1-0.6-2.1-1.1-3"/>
	</g>
	<g id="ARC_208_">
		<path class="st8" d="M4.2,34c0.9-0.6,1.6-1.4,2.3-2.2"/>
	</g>
	<g id="POLYLINE_4568_">
		<line class="st8" x1="6.5" y1="31.8" x2="8.8" y2="33.1"/>
	</g>
	<g id="SPLINE_236_">
		<path class="st8" d="M8.8,33.1c0.5,0.3,0.6,0.6,0.5,0.9"/>
	</g>
	<g id="ARC_207_">
		<path class="st8" d="M9.4,34c-0.4,1.1-0.8,2.2-1.2,3.3"/>
	</g>
	<g id="SPLINE_235_">
		<path class="st8" d="M8.2,37.3c-0.1,0.3-0.4,0.5-0.9,0.4"/>
	</g>
	<g id="POLYLINE_4567_">
		<line class="st8" x1="7.3" y1="37.7" x2="4.6" y2="37.2"/>
	</g>
	<g id="ARC_206_">
		<path class="st8" d="M4.6,37.2c0-1.1-0.1-2.1-0.4-3.2"/>
	</g>
	<g id="ARC_205_">
		<path class="st8" d="M9,24.2c1-0.4,1.9-1,2.7-1.7"/>
	</g>
	<g id="POLYLINE_4566_">
		<line class="st8" x1="11.7" y1="22.5" x2="13.7" y2="24.3"/>
	</g>
	<g id="SPLINE_234_">
		<path class="st8" d="M13.7,24.3c0.4,0.4,0.5,0.7,0.3,1"/>
	</g>
	<g id="ARC_204_">
		<path class="st8" d="M14,25.3c-0.7,1-1.3,1.9-1.9,3"/>
	</g>
	<g id="SPLINE_233_">
		<path class="st8" d="M12.1,28.2c-0.2,0.3-0.5,0.4-1,0.2"/>
	</g>
	<g id="POLYLINE_4565_">
		<line class="st8" x1="11.1" y1="28.4" x2="8.7" y2="27.4"/>
	</g>
	<g id="ARC_173_">
		<path class="st8" d="M8.7,27.4c0.3-1,0.4-2.1,0.3-3.2"/>
	</g>
	<g id="ARC_171_">
		<path class="st8" d="M15.8,15.6c1.1-0.2,2.1-0.5,3-1"/>
	</g>
	<g id="POLYLINE_4564_">
		<line class="st8" x1="18.8" y1="14.6" x2="20.4" y2="16.8"/>
	</g>
	<g id="SPLINE_232_">
		<path class="st8" d="M20.4,16.8c0.3,0.4,0.3,0.8,0.1,1"/>
	</g>
	<g id="ARC_170_">
		<path class="st8" d="M20.4,17.8c-0.9,0.8-1.7,1.6-2.5,2.5"/>
	</g>
	<g id="SPLINE_231_">
		<path class="st8" d="M18,20.3c-0.2,0.3-0.6,0.2-1-0.1"/>
	</g>
	<g id="POLYLINE_4563_">
		<line class="st8" x1="17" y1="20.2" x2="14.8" y2="18.7"/>
	</g>
	<g id="ARC_169_">
		<path class="st8" d="M14.8,18.7c0.5-1,0.8-2,1-3"/>
	</g>
	<g id="POLYLINE_4562_">
		<rect x="33.1" y="32.9" class="st8" width="3.1" height="3.1"/>
	</g>
	<g id="POLYLINE_4561_">
		<rect x="64.5" y="64.4" class="st8" width="3.1" height="3.1"/>
	</g>
	<g id="POLYLINE_4560_">
		<rect x="33.1" y="64.4" class="st8" width="3.1" height="3.1"/>
	</g>
	<g id="ARC_168_">
		<path class="st8" d="M98.9,55.7c-0.7,0.8-1.3,1.7-1.7,2.7"/>
	</g>
	<g id="POLYLINE_4559_">
		<line class="st8" x1="97.2" y1="58.4" x2="94.6" y2="57.6"/>
	</g>
	<g id="SPLINE_230_">
		<path class="st8" d="M94.6,57.6c-0.5-0.2-0.7-0.4-0.7-0.7"/>
	</g>
	<g id="ARC_145_">
		<path class="st8" d="M93.9,56.9c0.2-1.2,0.3-2.3,0.4-3.5"/>
	</g>
	<g id="SPLINE_218_">
		<path class="st8" d="M94.3,53.4c0-0.3,0.3-0.5,0.8-0.6"/>
	</g>
	<g id="POLYLINE_4558_">
		<line class="st8" x1="95.2" y1="52.8" x2="97.8" y2="52.6"/>
	</g>
	<g id="ARC_144_">
		<path class="st8" d="M97.8,52.6c0.2,1.1,0.6,2.1,1.1,3"/>
	</g>
	<g id="ARC_143_">
		<path class="st8" d="M97.2,42c0.5,1,1,1.9,1.7,2.7"/>
	</g>
	<g id="POLYLINE_4557_">
		<line class="st8" x1="97.2" y1="42" x2="94.6" y2="42.8"/>
	</g>
	<g id="SPLINE_217_">
		<path class="st8" d="M94.6,42.8c-0.5,0.2-0.7,0.4-0.7,0.7"/>
	</g>
	<g id="ARC_142_">
		<path class="st8" d="M94.3,47c-0.1-1.2-0.2-2.3-0.4-3.5"/>
	</g>
	<g id="SPLINE_216_">
		<path class="st8" d="M94.3,47c0,0.3,0.3,0.5,0.8,0.6"/>
	</g>
	<g id="POLYLINE_4556_">
		<line class="st8" x1="95.2" y1="47.6" x2="97.8" y2="47.7"/>
	</g>
	<g id="ARC_128_">
		<path class="st8" d="M98.9,44.7c-0.5,1-0.9,2-1.1,3"/>
	</g>
	<g id="ARC_127_">
		<path class="st8" d="M55.8,1.6c0.8,0.7,1.7,1.3,2.7,1.7"/>
	</g>
	<g id="POLYLINE_4555_">
		<line class="st8" x1="58.5" y1="3.4" x2="57.8" y2="5.9"/>
	</g>
	<g id="SPLINE_215_">
		<path class="st8" d="M57.8,5.9c-0.2,0.5-0.4,0.7-0.7,0.7"/>
	</g>
	<g id="ARC_126_">
		<path class="st8" d="M57,6.6c-1.2-0.2-2.3-0.3-3.5-0.4"/>
	</g>
	<g id="SPLINE_214_">
		<path class="st8" d="M53.6,6.2c-0.3,0-0.5-0.3-0.6-0.8"/>
	</g>
	<g id="POLYLINE_4554_">
		<line class="st8" x1="53" y1="5.4" x2="52.8" y2="2.7"/>
	</g>
	<g id="ARC_125_">
		<path class="st8" d="M52.8,2.7c1.1-0.2,2.1-0.6,3-1.1"/>
	</g>
	<g id="ARC_124_">
		<path class="st8" d="M24.4,8.8c1.1,0,2.2-0.1,3.2-0.3"/>
	</g>
	<g id="POLYLINE_4553_">
		<line class="st8" x1="27.6" y1="8.5" x2="28.6" y2="11"/>
	</g>
	<g id="SPLINE_213_">
		<path class="st8" d="M28.6,11c0.2,0.5,0.1,0.8-0.2,1"/>
	</g>
	<g id="ARC_123_">
		<path class="st8" d="M28.4,12c-1,0.6-2,1.2-3,1.9"/>
	</g>
	<g id="SPLINE_212_">
		<path class="st8" d="M25.4,13.8c-0.3,0.2-0.6,0.1-1-0.3"/>
	</g>
	<g id="POLYLINE_4552_">
		<line class="st8" x1="24.5" y1="13.5" x2="22.7" y2="11.5"/>
	</g>
	<g id="ARC_122_">
		<path class="st8" d="M22.7,11.5c0.7-0.8,1.2-1.8,1.7-2.7"/>
	</g>
	<g id="ARC_121_">
		<path class="st8" d="M34.2,4.1c1,0.3,2.1,0.4,3.2,0.4"/>
	</g>
	<g id="POLYLINE_4551_">
		<line class="st8" x1="37.4" y1="4.5" x2="37.8" y2="7.1"/>
	</g>
	<g id="SPLINE_211_">
		<path class="st8" d="M37.8,7.1c0.1,0.5,0,0.8-0.4,0.9"/>
	</g>
	<g id="ARC_117_">
		<path class="st8" d="M37.5,8c-1.1,0.3-2.2,0.7-3.3,1.2"/>
	</g>
	<g id="SPLINE_210_">
		<path class="st8" d="M34.2,9.2c-0.3,0.1-0.6,0-0.9-0.5"/>
	</g>
	<g id="POLYLINE_4550_">
		<line class="st8" x1="33.3" y1="8.7" x2="32" y2="6.4"/>
	</g>
	<g id="ARC_116_">
		<path class="st8" d="M32,6.4c0.9-0.7,1.6-1.4,2.2-2.3"/>
	</g>
	<g id="POLYLINE_4549_">
		<rect x="64.5" y="32.9" class="st8" width="3.1" height="3.1"/>
	</g>
</g>
<g id="PLAN_x24_STRUCTURE_1.2">
</g>
<g id="PLAN_x24_STRUCTURE_1.1">
</g>
</svg>
