<?xml version="1.0" encoding="utf-8"?>
<!-- Generator: Adobe Illustrator 22.0.1, SVG Export Plug-In . SVG Version: 6.00 Build 0)  -->
<svg version="1.1" id="Calque_1" xmlns="http://www.w3.org/2000/svg" xmlns:xlink="http://www.w3.org/1999/xlink" x="0px" y="0px"
	 viewBox="0 0 219.1 224" style="enable-background:new 0 0 219.1 224;" xml:space="preserve">
<style type="text/css">
	.st0{display:none;}
	.st1{display:inline;}
	.st2{fill:none;}
	.st3{fill:none;stroke:#000000;stroke-width:0.2;stroke-linecap:square;stroke-miterlimit:10;stroke-dasharray:1,1;}
	.st4{fill:none;stroke:#000000;stroke-width:0.1;stroke-linecap:square;stroke-miterlimit:10;}
	.st5{fill:none;stroke:#000000;stroke-width:0.16;stroke-linecap:square;stroke-miterlimit:10;}
	.st6{fill:none;stroke:#000000;stroke-width:0.28;stroke-linecap:square;stroke-miterlimit:10;}
	.st7{fill:none;stroke:#000000;stroke-width:0.54;stroke-linecap:square;stroke-miterlimit:10;}
	.st8{fill:none;stroke:#000000;stroke-width:0.82;stroke-linecap:square;stroke-miterlimit:10;}
</style>
<g id="Calque_1_1_">
</g>
<g id="INFOS_x24_A4" class="st0">
	<g id="POLYLINE_4548_" class="st1">
		<rect x="-201.4" y="-303.3" class="st2" width="595.3" height="841.9"/>
	</g>
</g>
<g id="PLAN_x24_FOND">
</g>
<g id="PLAN_x24_POINTILLE">
	<g id="POLYLINE_4844_">
		<line class="st3" x1="98.8" y1="53" x2="110.5" y2="47"/>
	</g>
	<g id="POLYLINE_4843_">
		<line class="st3" x1="98.8" y1="51.6" x2="110.5" y2="45.6"/>
	</g>
</g>
<g id="PLAN_x24_VITRAGE">
	<g id="ARC_323_">
		<path class="st4" d="M94.7,20.6c-3.4,0.6-6.6,1.4-9.8,2.2"/>
	</g>
	<g id="ARC_322_">
		<path class="st4" d="M74.7,26.4c-3,1.4-6,2.8-9,4.4"/>
	</g>
	<g id="ARC_321_">
		<path class="st4" d="M56.4,36.6c-2.8,2-5.4,4-8,6.4"/>
	</g>
	<g id="ARC_320_">
		<path class="st4" d="M41,50.4c-2.2,2.6-4.4,5.2-6.4,8"/>
	</g>
	<g id="ARC_319_">
		<path class="st4" d="M29,67.4c-1.6,3-3,6-4.4,9.2"/>
	</g>
	<g id="ARC_318_">
		<path class="st4" d="M21,86.6c-1,3.2-1.6,6.6-2.2,9.8"/>
	</g>
	<g id="ARC_317_">
		<path class="st4" d="M17.6,107.2c-0.2,3.4-0.2,6.8,0,10.2"/>
	</g>
	<g id="ARC_316_">
		<path class="st4" d="M18.8,127.8c0.6,3.4,1.4,6.6,2.2,9.8"/>
	</g>
	<g id="ARC_315_">
		<path class="st4" d="M24.6,147.8c1.2,3.2,2.8,6.2,4.4,9.2"/>
	</g>
	<g id="ARC_314_">
		<path class="st4" d="M34.6,166c2,2.8,4,5.4,6.4,8"/>
	</g>
	<g id="ARC_313_">
		<path class="st4" d="M48.6,181.4c2.6,2.2,5.2,4.4,8,6.4"/>
	</g>
	<g id="ARC_312_">
		<path class="st4" d="M65.7,193.4c3,1.6,6,3,9.2,4.4"/>
	</g>
	<g id="ARC_311_">
		<path class="st4" d="M84.8,201.4c3.2,1,6.6,1.6,9.8,2.2"/>
	</g>
	<g id="ARC_310_">
		<path class="st4" d="M105.2,204.8c3.4,0.2,6.8,0.2,10.2,0"/>
	</g>
	<g id="ARC_309_">
		<path class="st4" d="M126.1,203.6c3.4-0.6,6.6-1.4,9.8-2.2"/>
	</g>
	<g id="ARC_308_">
		<path class="st4" d="M146,197.8c3.2-1.2,6.2-2.8,9.2-4.4"/>
	</g>
	<g id="ARC_307_">
		<path class="st4" d="M164.2,187.8c2.8-2,5.4-4,8-6.4"/>
	</g>
	<g id="ARC_306_">
		<path class="st4" d="M179.6,174c2.2-2.6,4.4-5.2,6.4-8"/>
	</g>
	<g id="ARC_305_">
		<path class="st4" d="M191.6,157c1.6-3,3-6,4.4-9.2"/>
	</g>
	<g id="ARC_304_">
		<path class="st4" d="M199.6,137.8c1-3.2,1.6-6.6,2.2-9.8"/>
	</g>
	<g id="ARC_303_">
		<path class="st4" d="M203,117.2c0.2-3.4,0.2-6.8,0-10.2"/>
	</g>
	<g id="ARC_302_">
		<path class="st4" d="M201.8,96.4c-0.6-3.4-1.4-6.6-2.2-9.8"/>
	</g>
	<g id="ARC_301_">
		<path class="st4" d="M196,76.6c-1.2-3.2-2.8-6.2-4.4-9.2"/>
	</g>
	<g id="ARC_300_">
		<path class="st4" d="M186,58.4c-2-2.8-4-5.4-6.4-8"/>
	</g>
	<g id="ARC_299_">
		<path class="st4" d="M172,42.8c-2.6-2.2-5.2-4.4-8-6.4"/>
	</g>
	<g id="ARC_298_">
		<path class="st4" d="M155,30.8c-3-1.6-6-3-9.2-4.4"/>
	</g>
	<g id="ARC_297_">
		<path class="st4" d="M135.8,23c-3.2-1-6.6-1.6-9.8-2.2"/>
	</g>
	<g id="ARC_296_">
		<path class="st4" d="M115.5,19.4c-3.4-0.2-6.8-0.2-10.2,0"/>
	</g>
</g>
<g id="PLAN_x24_MOBILIER">
</g>
<g id="PLAN_x24_DETAIL">
	<g id="ARC">
		<path class="st5" d="M187.6,167.6c-1.2,1-2.4,2.2-3.4,3.6"/>
	</g>
	<g id="ARC_419_">
		<path class="st5" d="M184.2,171c-1,1.2-2,2.6-2.6,4.2"/>
	</g>
	<g id="ARC_418_">
		<path class="st5" d="M165.6,34.8c1,1.2,2.2,2.4,3.6,3.4"/>
	</g>
	<g id="ARC_417_">
		<path class="st5" d="M169.2,38.4c1.2,1,2.6,2,4.2,2.6"/>
	</g>
	<g id="ARC_416_">
		<path class="st5" d="M55,189.4c-1-1.2-2.2-2.4-3.6-3.4"/>
	</g>
	<g id="ARC_415_">
		<path class="st5" d="M51.4,186c-1.2-1-2.6-2-4.2-2.6"/>
	</g>
	<g id="ARC_414_">
		<path class="st5" d="M18.8,138c0-1.6-0.2-3.2-0.6-5"/>
	</g>
	<g id="ARC_413_">
		<path class="st5" d="M18.2,133.2c-0.4-1.6-1-3.2-1.6-4.6"/>
	</g>
	<g id="ARC_412_">
		<path class="st5" d="M201.8,86.2c0,1.6,0.2,3.2,0.6,5"/>
	</g>
	<g id="ARC_411_">
		<path class="st5" d="M202.4,91.2c0.4,1.6,1,3.2,1.6,4.6"/>
	</g>
	<g id="ARC_410_">
		<path class="st5" d="M47.2,41c1.4-0.8,2.8-1.6,4.2-2.6"/>
	</g>
	<g id="ARC_409_">
		<path class="st5" d="M51.4,38.4c1.2-1,2.4-2.2,3.6-3.4"/>
	</g>
	<g id="ARC_408_">
		<path class="st5" d="M173.4,183.4c-1.4,0.8-2.8,1.6-4.2,2.6"/>
	</g>
	<g id="ARC_407_">
		<path class="st5" d="M169.2,186c-1.2,1-2.4,2.2-3.6,3.4"/>
	</g>
	<g id="ARC_406_">
		<path class="st5" d="M181.4,49.2c0.8,1.4,1.6,2.8,2.6,4.2"/>
	</g>
	<g id="ARC_405_">
		<path class="st5" d="M184.2,53.4c1,1.2,2.2,2.4,3.4,3.6"/>
	</g>
	<g id="ARC_404_">
		<path class="st5" d="M39.2,175.2c-0.8-1.4-1.6-2.8-2.6-4.2"/>
	</g>
	<g id="ARC_403_">
		<path class="st5" d="M36.4,171c-1-1.2-2.2-2.4-3.4-3.6"/>
	</g>
	<g id="ARC_402_">
		<path class="st5" d="M205.2,107.2c-0.4,1.6-0.6,3.2-0.6,5"/>
	</g>
	<g id="ARC_401_">
		<path class="st5" d="M204.8,112.2c0,1.6,0.2,3.2,0.6,5"/>
	</g>
	<g id="ARC_400_">
		<path class="st5" d="M15.4,117c0.4-1.6,0.6-3.2,0.6-5"/>
	</g>
	<g id="ARC_399_">
		<path class="st5" d="M15.8,112.2c0-1.6-0.2-3.2-0.6-5"/>
	</g>
	<g id="ARC_398_">
		<path class="st5" d="M22.6,75.4c1-1.4,1.8-2.8,2.6-4.2"/>
	</g>
	<g id="ARC_397_">
		<path class="st5" d="M25.2,71.2c0.8-1.4,1.2-3,1.6-4.6"/>
	</g>
	<g id="ARC_396_">
		<path class="st5" d="M33,56.8c1.2-1,2.4-2.2,3.4-3.6"/>
	</g>
	<g id="ARC_395_">
		<path class="st5" d="M36.4,53.4c1-1.2,2-2.6,2.6-4.2"/>
	</g>
	<g id="ARC_394_">
		<path class="st5" d="M136.2,203.6c-1.6,0-3.2,0.2-5,0.6"/>
	</g>
	<g id="ARC_393_">
		<path class="st5" d="M131.4,204.2c-1.6,0.4-3.2,1-4.6,1.6"/>
	</g>
	<g id="ARC_392_">
		<path class="st5" d="M94.1,205.8c-1.4-0.6-3-1.2-4.6-1.6"/>
	</g>
	<g id="ARC_391_">
		<path class="st5" d="M89.5,204.2c-1.6-0.4-3.2-0.6-5-0.6"/>
	</g>
	<g id="ARC_390_">
		<path class="st5" d="M126.7,18.6c1.4,0.6,3,1.2,4.6,1.6"/>
	</g>
	<g id="ARC_389_">
		<path class="st5" d="M131.4,20.2c1.6,0.4,3.2,0.6,5,0.6"/>
	</g>
	<g id="ARC_388_">
		<path class="st5" d="M204,128.6c-0.6,1.4-1.2,3-1.6,4.6"/>
	</g>
	<g id="ARC_387_">
		<path class="st5" d="M202.4,133.2c-0.4,1.6-0.6,3.2-0.6,5"/>
	</g>
	<g id="ARC_386_">
		<path class="st5" d="M198,149c-1,1.4-1.8,2.8-2.6,4.2"/>
	</g>
	<g id="ARC_385_">
		<path class="st5" d="M195.4,153.2c-0.8,1.4-1.2,3-1.6,4.6"/>
	</g>
	<g id="ARC_384_">
		<path class="st5" d="M73.7,199.8c-1.4-1-2.8-1.8-4.2-2.6"/>
	</g>
	<g id="ARC_383_">
		<path class="st5" d="M69.4,197.2c-1.4-0.8-3-1.2-4.6-1.6"/>
	</g>
	<g id="ARC_382_">
		<path class="st5" d="M147,24.6c1.4,1,2.8,1.8,4.2,2.6"/>
	</g>
	<g id="ARC_381_">
		<path class="st5" d="M151.2,27.2c1.4,0.8,3,1.2,4.6,1.6"/>
	</g>
	<g id="ARC_380_">
		<path class="st5" d="M27,157.8c-0.4-1.6-1-3.2-1.6-4.6"/>
	</g>
	<g id="ARC_379_">
		<path class="st5" d="M25.2,153.2c-0.8-1.4-1.6-2.8-2.6-4.2"/>
	</g>
	<g id="ARC_378_">
		<path class="st5" d="M156,195.6c-1.6,0.4-3.2,1-4.6,1.6"/>
	</g>
	<g id="ARC_377_">
		<path class="st5" d="M151.2,197.2c-1.4,0.8-2.8,1.6-4.2,2.6"/>
	</g>
	<g id="ARC_376_">
		<path class="st5" d="M193.8,66.6c0.4,1.6,1,3.2,1.6,4.6"/>
	</g>
	<g id="ARC_375_">
		<path class="st5" d="M195.4,71.2c0.8,1.4,1.6,2.8,2.6,4.2"/>
	</g>
	<g id="ARC_374_">
		<path class="st5" d="M105.5,17.2c1.6,0.4,3.2,0.6,5,0.6"/>
	</g>
	<g id="ARC_373_">
		<path class="st5" d="M110.5,17.8c1.6,0,3.2-0.2,5-0.6"/>
	</g>
	<g id="ARC_372_">
		<path class="st5" d="M115.2,207.2c-1.6-0.4-3.2-0.6-5-0.6"/>
	</g>
	<g id="ARC_371_">
		<path class="st5" d="M110.5,206.6c-1.6,0-3.2,0.2-5,0.6"/>
	</g>
	<g id="ARC_370_">
		<path class="st5" d="M16.6,95.8c0.6-1.4,1.2-3,1.6-4.6"/>
	</g>
	<g id="ARC_369_">
		<path class="st5" d="M18.2,91.2c0.4-1.6,0.6-3.2,0.6-5"/>
	</g>
	<g id="ARC_368_">
		<path class="st5" d="M64.8,28.8c1.6-0.4,3.2-1,4.6-1.6"/>
	</g>
	<g id="ARC_367_">
		<path class="st5" d="M69.4,27.2c1.4-0.8,2.8-1.6,4.2-2.6"/>
	</g>
	<g id="ARC_366_">
		<path class="st5" d="M84.5,20.8c1.6,0,3.2-0.2,5-0.6"/>
	</g>
	<g id="ARC_365_">
		<path class="st5" d="M89.5,20.2c1.6-0.4,3.2-1,4.6-1.6"/>
	</g>
	<g id="ARC_364_">
		<path class="st5" d="M95.1,21.8c-3.4,0.6-6.8,1.4-10,2.2"/>
	</g>
	<g id="ARC_363_">
		<path class="st5" d="M75.2,27.6C72,29,69,30.4,66,32"/>
	</g>
	<g id="ARC_362_">
		<path class="st5" d="M57.4,37.4c-2.8,2-5.4,4.2-8,6.4"/>
	</g>
	<g id="ARC_361_">
		<path class="st5" d="M42,51.2c-2.2,2.6-4.4,5.2-6.4,8"/>
	</g>
	<g id="ARC_360_">
		<path class="st5" d="M30.2,67.8c-1.6,3-3.2,6-4.4,9.2"/>
	</g>
	<g id="ARC_359_">
		<path class="st5" d="M22.4,86.8c-1,3.2-1.8,6.6-2.2,10"/>
	</g>
	<g id="ARC_358_">
		<path class="st5" d="M18.8,107c-0.2,3.4-0.2,6.8,0,10.2"/>
	</g>
	<g id="ARC_357_">
		<path class="st5" d="M20,127.6c0.6,3.4,1.4,6.8,2.2,10"/>
	</g>
	<g id="ARC_356_">
		<path class="st5" d="M25.9,147.2c1.4,3.2,2.8,6.2,4.4,9.2"/>
	</g>
	<g id="ARC_355_">
		<path class="st5" d="M35.6,165.2c2,2.8,4.2,5.4,6.4,8"/>
	</g>
	<g id="ARC_354_">
		<path class="st5" d="M49.2,180.4c2.6,2.2,5.2,4.4,8,6.4"/>
	</g>
	<g id="ARC_353_">
		<path class="st5" d="M66.1,192.4c3,1.6,6,3.2,9.2,4.4"/>
	</g>
	<g id="ARC_352_">
		<path class="st5" d="M85.1,200.2c3.2,1,6.6,1.8,10,2.2"/>
	</g>
	<g id="ARC_351_">
		<path class="st5" d="M105.2,203.6c3.4,0.2,6.8,0.2,10.2,0"/>
	</g>
	<g id="ARC_350_">
		<path class="st5" d="M125.7,202.4c3.4-0.6,6.8-1.4,10-2.2"/>
	</g>
	<g id="ARC_349_">
		<path class="st5" d="M145.4,196.8c3.2-1.4,6.2-2.8,9.2-4.4"/>
	</g>
	<g id="ARC_348_">
		<path class="st5" d="M163.4,186.8c2.8-2,5.4-4.2,8-6.4"/>
	</g>
	<g id="ARC_347_">
		<path class="st5" d="M178.6,173.2c2.2-2.6,4.4-5.2,6.4-8"/>
	</g>
	<g id="ARC_346_">
		<path class="st5" d="M190.4,156.4c1.6-3,3.2-6,4.4-9.2"/>
	</g>
	<g id="ARC_345_">
		<path class="st5" d="M198.4,137.6c1-3.2,1.8-6.6,2.2-10"/>
	</g>
	<g id="ARC_344_">
		<path class="st5" d="M201.8,117.4c0.2-3.4,0.2-6.8,0-10.2"/>
	</g>
	<g id="ARC_343_">
		<path class="st5" d="M200.6,96.8c-0.6-3.4-1.4-6.8-2.2-10"/>
	</g>
	<g id="ARC_342_">
		<path class="st5" d="M195,77.2c-1.4-3.2-2.8-6.2-4.4-9.2"/>
	</g>
	<g id="ARC_341_">
		<path class="st5" d="M185,59.2c-2-2.8-4.2-5.4-6.4-8"/>
	</g>
	<g id="ARC_340_">
		<path class="st5" d="M171.4,43.8c-2.6-2.2-5.2-4.4-8-6.4"/>
	</g>
	<g id="ARC_339_">
		<path class="st5" d="M154.6,32c-3-1.6-6-3.2-9.2-4.4"/>
	</g>
	<g id="ARC_338_">
		<path class="st5" d="M135.6,24.2c-3.2-1-6.6-1.8-10-2.2"/>
	</g>
	<g id="ARC_337_">
		<path class="st5" d="M115.5,20.8c-3.4-0.2-6.8-0.2-10.2,0"/>
	</g>
	<g id="POLYLINE_4665_">
		<line class="st5" x1="97.2" y1="85.8" x2="80.2" y2="100.4"/>
	</g>
	<g id="POLYLINE_4664_">
		<line class="st5" x1="80.2" y1="85.8" x2="97.2" y2="100.4"/>
	</g>
	<g id="POLYLINE_4663_">
		<rect x="80.2" y="85.8" class="st5" width="17" height="14.6"/>
	</g>
	<g id="POLYLINE_4662_">
		<rect x="80.2" y="104" class="st5" width="17" height="14.6"/>
	</g>
	<g id="POLYLINE_4661_">
		<line class="st5" x1="80.2" y1="118.6" x2="97.2" y2="104"/>
	</g>
	<g id="POLYLINE_4660_">
		<line class="st5" x1="97.2" y1="118.6" x2="80.2" y2="104"/>
	</g>
	<g id="POLYLINE_4659_">
		<line class="st5" x1="97.2" y1="139" x2="80.2" y2="124.4"/>
	</g>
	<g id="POLYLINE_4658_">
		<line class="st5" x1="80.2" y1="139" x2="97.2" y2="124.4"/>
	</g>
	<g id="POLYLINE_4657_">
		<rect x="80.2" y="124.4" class="st5" width="17" height="14.6"/>
	</g>
	<g id="LINE_635_">
		<line class="st5" x1="121.8" y1="35" x2="98.8" y2="35"/>
	</g>
	<g id="LINE_634_">
		<line class="st5" x1="121.8" y1="38" x2="98.8" y2="38"/>
	</g>
	<g id="LINE_633_">
		<line class="st5" x1="121.8" y1="41" x2="98.8" y2="41"/>
	</g>
	<g id="LINE_632_">
		<line class="st5" x1="122.1" y1="44" x2="98.8" y2="44"/>
	</g>
	<g id="LINE_631_">
		<line class="st5" x1="122.1" y1="53" x2="98.7" y2="53"/>
	</g>
	<g id="LINE_630_">
		<line class="st5" x1="122.1" y1="56" x2="98.7" y2="56"/>
	</g>
	<g id="LINE_629_">
		<line class="st5" x1="122.1" y1="59" x2="98.7" y2="59"/>
	</g>
	<g id="POLYLINE_4656_">
		<line class="st5" x1="122.1" y1="62" x2="98.7" y2="62"/>
	</g>
	<g id="POLYLINE_4655_">
		<line class="st5" x1="110.5" y1="62" x2="110.5" y2="35"/>
	</g>
	<g id="POLYLINE_4654_">
		<line class="st5" x1="115.2" y1="78.6" x2="115.2" y2="69"/>
	</g>
	<g id="ARC_336_">
		<path class="st5" d="M115.2,69c-5.4,0-9.6,4.4-9.6,9.6"/>
	</g>
	<g id="POLYLINE_4653_">
		<line class="st5" x1="127.5" y1="78.6" x2="127.5" y2="69"/>
	</g>
	<g id="ARC_335_">
		<path class="st5" d="M137.1,78.6c0-5.4-4.4-9.6-9.6-9.6"/>
	</g>
	<g id="POLYLINE_4652_">
		<line class="st5" x1="115.2" y1="144.2" x2="115.2" y2="154"/>
	</g>
	<g id="ARC_334_">
		<path class="st5" d="M105.7,144.2c0,5.4,4.4,9.6,9.6,9.6"/>
	</g>
	<g id="POLYLINE_4651_">
		<line class="st5" x1="123.1" y1="144.2" x2="123.1" y2="154"/>
	</g>
	<g id="ARC_333_">
		<path class="st5" d="M123.1,154c5.4,0,9.6-4.4,9.6-9.6"/>
	</g>
	<g id="POLYLINE_4650_">
		<line class="st5" x1="139.6" y1="117" x2="149.2" y2="117"/>
	</g>
	<g id="ARC_332_">
		<path class="st5" d="M149.2,117c0-5.4-4.4-9.6-9.6-9.6"/>
	</g>
	<g id="POLYLINE_4649_">
		<line class="st5" x1="139.6" y1="128.4" x2="149.2" y2="128.4"/>
	</g>
	<g id="ARC_331_">
		<path class="st5" d="M139.6,138.2c5.4,0,9.6-4.4,9.6-9.6"/>
	</g>
	<g id="POLYLINE_4648_">
		<line class="st5" x1="139.6" y1="95.8" x2="149.2" y2="95.8"/>
	</g>
	<g id="ARC_330_">
		<path class="st5" d="M149.2,95.8c0-5.4-4.4-9.6-9.6-9.6"/>
	</g>
	<g id="POLYLINE_4647_">
		<line class="st5" x1="71.7" y1="151" x2="64.8" y2="144.2"/>
	</g>
	<g id="ARC_329_">
		<path class="st5" d="M64.8,144.2c-3.8,3.8-3.8,9.8,0,13.6"/>
	</g>
	<g id="POLYLINE_4646_">
		<line class="st5" x1="59.2" y1="83.2" x2="59.2" y2="92.8"/>
	</g>
	<g id="ARC_328_">
		<path class="st5" d="M59.2,92.8c5.4,0,9.6-4.4,9.6-9.6"/>
	</g>
	<g id="POLYLINE_4645_">
		<line class="st5" x1="78.8" y1="65.8" x2="69.2" y2="65.8"/>
	</g>
	<g id="ARC_327_">
		<path class="st5" d="M69.2,65.8c0,5.4,4.4,9.6,9.6,9.6"/>
	</g>
	<g id="POLYLINE_4644_">
		<line class="st5" x1="96.8" y1="75.6" x2="87.2" y2="75.6"/>
	</g>
	<g id="ARC_326_">
		<path class="st5" d="M96.8,65.8c-5.4,0-9.6,4.4-9.6,9.6"/>
	</g>
	<g id="POLYLINE_4643_">
		<line class="st5" x1="94.5" y1="63" x2="94.5" y2="55"/>
	</g>
	<g id="ARC_325_">
		<path class="st5" d="M94.5,55c-4.4,0-8,3.6-8,8"/>
	</g>
	<g id="POLYLINE_4642_">
		<line class="st5" x1="78.8" y1="50.8" x2="71.1" y2="50.8"/>
	</g>
	<g id="ARC_324_">
		<path class="st5" d="M78.8,42.8c-4.4,0-8,3.6-8,8"/>
	</g>
	<g id="POLYLINE_4641_">
		<line class="st5" x1="87.2" y1="42.8" x2="79.8" y2="42.8"/>
	</g>
	<g id="POLYLINE_4640_">
		<line class="st5" x1="88.1" y1="42.8" x2="95.7" y2="42.8"/>
	</g>
	<g id="LINE_628_">
		<line class="st5" x1="122.1" y1="50" x2="110.5" y2="50"/>
	</g>
	<g id="LINE_627_">
		<line class="st5" x1="122.1" y1="47" x2="110.5" y2="47"/>
	</g>
	<g id="LINE_626_">
		<line class="st5" x1="104.7" y1="50" x2="110.5" y2="50"/>
	</g>
	<g id="POLYLINE_4639_">
		<line class="st5" x1="104.7" y1="47" x2="107.1" y2="47"/>
	</g>
	<g id="LINE_625_">
		<line class="st5" x1="101.7" y1="50" x2="98.7" y2="50"/>
	</g>
	<g id="LINE_624_">
		<line class="st5" x1="98.8" y1="47" x2="107.7" y2="47"/>
	</g>
</g>
<g id="PLAN_x24_CLOISON_TRANSLUCIDE">
</g>
<g id="PLAN_x24_CLOISON_1.3">
	<g id="LINE_648_">
		<line class="st6" x1="82.1" y1="28.6" x2="95.7" y2="28.6"/>
	</g>
	<g id="POLYLINE_4695_">
		<polyline class="st6" points="79.8,29.4 87.2,29.4 87.2,42 87.2,42.8 88.1,42.8 88.1,42 88.1,29.4 95.7,29.4 		"/>
	</g>
</g>
<g id="PLAN_x24_CLOISON_1.2">
</g>
<g id="PLAN_x24_CLOISON_1.1">
</g>
<g id="PLAN_x24_STRUCTURE_2.3">
	<g id="LINE_662_">
		<line class="st7" x1="145" y1="78.8" x2="173.2" y2="50.4"/>
	</g>
	<g id="LINE_661_">
		<line class="st7" x1="143.6" y1="77.6" x2="172" y2="49.2"/>
	</g>
	<g id="LINE_660_">
		<line class="st7" x1="143.6" y1="146.8" x2="172" y2="175.2"/>
	</g>
	<g id="LINE_659_">
		<line class="st7" x1="145" y1="145.6" x2="173.2" y2="174"/>
	</g>
	<g id="POLYLINE_4842_">
		<polyline class="st7" points="62.6,38 71.1,51.2 78.1,51.2 78.1,50.8 79.8,50.8 79.8,62.2 86.7,62.2 86.7,63.8 79.8,63.8 
			79.8,65.8 78.1,65.8 78.1,53 70.1,53 61.2,39 		"/>
	</g>
	<g id="POLYLINE_4841_">
		<polyline class="st7" points="82.1,77.6 95.2,77.6 95.2,75.6 98.5,75.6 98.5,77.6 105.7,77.6 105.7,79.6 99.7,79.6 99.7,90 
			98.2,90 98.2,79.6 82.1,79.6 		"/>
	</g>
	<g id="LINE_658_">
		<line class="st7" x1="197.6" y1="99.2" x2="140.6" y2="99.2"/>
	</g>
	<g id="LINE_657_">
		<line class="st7" x1="140.6" y1="99.2" x2="140.6" y2="107.4"/>
	</g>
	<g id="POLYLINE_4840_">
		<line class="st7" x1="140.6" y1="107.4" x2="138.6" y2="107.4"/>
	</g>
	<g id="POLYLINE_4839_">
		<line class="st7" x1="138.6" y1="107.4" x2="138.6" y2="95.8"/>
	</g>
	<g id="POLYLINE_4838_">
		<line class="st7" x1="138.6" y1="95.8" x2="140.6" y2="95.8"/>
	</g>
	<g id="LINE_656_">
		<line class="st7" x1="140.6" y1="95.8" x2="140.6" y2="97.4"/>
	</g>
	<g id="POLYLINE_4837_">
		<line class="st7" x1="140.6" y1="97.4" x2="196.2" y2="97.4"/>
	</g>
	<g id="SPLINE_336_">
		<path class="st7" d="M196.2,97.4c1.6,0,2.8-0.2,3.4-0.4"/>
	</g>
	<g id="POLYLINE_4836_">
		<polyline class="st7" points="140.6,140.6 140.6,138.2 138.6,138.2 138.6,140.6 		"/>
	</g>
	<g id="POLYLINE_4835_">
		<polyline class="st7" points="138.6,145.2 132.6,145.2 132.6,143.4 138.6,143.4 		"/>
	</g>
	<g id="POLYLINE_4834_">
		<polyline class="st7" points="79.2,140.6 79.2,123 98.2,123 98.2,124 99.7,124 99.7,117.4 98.2,117.4 98.2,122 79.2,122 
			79.2,102.6 98.2,102.6 98.2,107 99.7,107 99.7,100.2 98.2,100.2 98.2,101.6 79.2,101.6 79.2,83.8 		"/>
	</g>
	<g id="LINE_655_">
		<line class="st7" x1="98.8" y1="24.8" x2="98.7" y2="65.8"/>
	</g>
	<g id="POLYLINE_4781_">
		<line class="st7" x1="98.7" y1="65.8" x2="95.5" y2="65.8"/>
	</g>
	<g id="POLYLINE_4780_">
		<line class="st7" x1="95.5" y1="65.8" x2="95.5" y2="63.8"/>
	</g>
	<g id="POLYLINE_4779_">
		<line class="st7" x1="95.5" y1="63.8" x2="94.5" y2="63.8"/>
	</g>
	<g id="POLYLINE_4778_">
		<line class="st7" x1="94.5" y1="63.8" x2="94.5" y2="62.2"/>
	</g>
	<g id="LINE_654_">
		<line class="st7" x1="94.5" y1="62.2" x2="95.5" y2="62.2"/>
	</g>
	<g id="POLYLINE_4777_">
		<line class="st7" x1="95.5" y1="62.2" x2="95.7" y2="26"/>
	</g>
	<g id="SPLINE_335_">
		<path class="st7" d="M95.7,26c0-0.8,0-1.6,0-2.2"/>
	</g>
	<g id="POLYLINE_4776_">
		<polyline class="st7" points="75.8,83.8 68.8,84 68.8,82.2 75.8,82.2 		"/>
	</g>
	<g id="POLYLINE_4775_">
		<polyline class="st7" points="78.1,77.6 78.1,75.6 79.8,75.6 79.8,77.6 		"/>
	</g>
	<g id="SPLINE_334_">
		<path class="st7" d="M125.1,23.8c0,0.6-0.2,1.2-0.2,2.2"/>
	</g>
	<g id="POLYLINE_4774_">
		<line class="st7" x1="125.1" y1="26" x2="125.5" y2="77.6"/>
	</g>
	<g id="POLYLINE_4773_">
		<line class="st7" x1="125.5" y1="77.6" x2="127.5" y2="77.6"/>
	</g>
	<g id="POLYLINE_4772_">
		<line class="st7" x1="127.5" y1="77.6" x2="127.5" y2="79.6"/>
	</g>
	<g id="LINE_653_">
		<line class="st7" x1="127.5" y1="79.6" x2="115.2" y2="79.6"/>
	</g>
	<g id="POLYLINE_4771_">
		<line class="st7" x1="115.2" y1="79.6" x2="115.2" y2="77.6"/>
	</g>
	<g id="POLYLINE_4770_">
		<line class="st7" x1="115.2" y1="77.6" x2="122.2" y2="77.6"/>
	</g>
	<g id="LINE_652_">
		<line class="st7" x1="122.2" y1="77.6" x2="121.8" y2="24.8"/>
	</g>
	<g id="POLYLINE_4769_">
		<polyline class="st7" points="140.6,83.8 140.6,86.2 138.6,86.2 138.6,83.8 		"/>
	</g>
	<g id="POLYLINE_4768_">
		<polyline class="st7" points="138.6,79.6 137.1,79.6 137.1,77.6 138.6,77.6 		"/>
	</g>
	<g id="POLYLINE_4767_">
		<polyline class="st7" points="27,83 59.2,82.4 59.2,84.2 26.6,84.8 		"/>
	</g>
	<g id="POLYLINE_4766_">
		<polyline class="st7" points="79.8,29.4 79.8,42.8 78.1,42.8 78.1,30.2 		"/>
	</g>
	<g id="LINE_651_">
		<line class="st7" x1="197.6" y1="125.2" x2="140.6" y2="125.2"/>
	</g>
	<g id="LINE_650_">
		<line class="st7" x1="140.6" y1="125.2" x2="140.6" y2="117"/>
	</g>
	<g id="POLYLINE_4765_">
		<line class="st7" x1="140.6" y1="117" x2="138.6" y2="117"/>
	</g>
	<g id="POLYLINE_4764_">
		<line class="st7" x1="138.6" y1="117" x2="138.6" y2="128.4"/>
	</g>
	<g id="POLYLINE_4763_">
		<line class="st7" x1="138.6" y1="128.4" x2="140.6" y2="128.4"/>
	</g>
	<g id="LINE_649_">
		<line class="st7" x1="140.6" y1="128.4" x2="140.6" y2="126.8"/>
	</g>
	<g id="POLYLINE_4762_">
		<line class="st7" x1="140.6" y1="126.8" x2="196.2" y2="126.8"/>
	</g>
	<g id="SPLINE_333_">
		<path class="st7" d="M196.2,126.8c1.6,0,2.8,0.2,3.4,0.4"/>
	</g>
	<g id="POLYLINE_4761_">
		<polyline class="st7" points="119.5,199.8 119.5,145.2 115.2,145.2 115.2,143.4 123.1,143.4 123.1,145.2 121.1,145.2 121.1,199.8 
					"/>
	</g>
	<g id="POLYLINE_4760_">
		<polyline class="st7" points="82.1,145.2 105.7,145.2 105.7,143.4 99.7,143.4 99.7,134.4 98.2,134.4 98.2,143.4 82.1,143.4 		"/>
	</g>
	<g id="POLYLINE_4759_">
		<polyline class="st7" points="77.1,146.8 72.2,151.6 71.1,150.4 75.8,145.6 		"/>
	</g>
	<g id="POLYLINE_4758_">
		<polyline class="st7" points="47.4,174 64.2,157.2 65.4,158.4 48.6,175.2 		"/>
	</g>
	<g id="POLYLINE_4757_">
		<polyline class="st7" points="77.2,140.6 77.2,123.6 22.8,123.8 		"/>
	</g>
	<g id="POLYLINE_4756_">
		<polyline class="st7" points="22.6,122 77.2,121.8 77.2,83.8 		"/>
	</g>
</g>
<g id="PLAN_x24_STRUCTURE_2.2">
</g>
<g id="PLAN_x24_STRUCTURE_2.1">
</g>
<g id="PLAN_x24_STRUCTURE_1.3">
	<g id="ARC_295_">
		<path class="st8" d="M99.5,15c2,1,4,1.8,6,2.2"/>
	</g>
	<g id="POLYLINE_4638_">
		<line class="st8" x1="105.5" y1="17.2" x2="105.1" y2="22.6"/>
	</g>
	<g id="SPLINE_276_">
		<path class="st8" d="M105.1,22.6c0,1-0.4,1.6-1.2,1.6"/>
	</g>
	<g id="ARC_294_">
		<path class="st8" d="M104.1,24.2c-2.4,0.2-4.6,0.4-7,0.8"/>
	</g>
	<g id="SPLINE_275_">
		<path class="st8" d="M97.1,25c-0.6,0-1.2-0.4-1.4-1.4"/>
	</g>
	<g id="POLYLINE_4637_">
		<line class="st8" x1="95.5" y1="23.6" x2="94.1" y2="18.6"/>
	</g>
	<g id="ARC_293_">
		<path class="st8" d="M94.1,18.6c2-1,3.8-2,5.4-3.4"/>
	</g>
	<g id="ARC_292_">
		<path class="st8" d="M142.6,20c1.2,1.8,2.8,3.2,4.4,4.6"/>
	</g>
	<g id="POLYLINE_4636_">
		<line class="st8" x1="147" y1="24.6" x2="144.4" y2="29.2"/>
	</g>
	<g id="SPLINE_274_">
		<path class="st8" d="M144.4,29.2c-0.6,1-1.2,1.2-1.8,1"/>
	</g>
	<g id="ARC_291_">
		<path class="st8" d="M142.8,30.2c-2.2-0.8-4.4-1.6-6.6-2.4"/>
	</g>
	<g id="SPLINE_273_">
		<path class="st8" d="M136.2,27.8c-0.6-0.2-1-0.8-0.8-1.8"/>
	</g>
	<g id="POLYLINE_4635_">
		<line class="st8" x1="135.4" y1="26" x2="136.2" y2="20.8"/>
	</g>
	<g id="ARC_290_">
		<path class="st8" d="M136.2,20.8c2.2,0,4.2-0.2,6.4-0.8"/>
	</g>
	<g id="ARC_289_">
		<path class="st8" d="M162.4,29.4c0.8,2,2,3.8,3.4,5.4"/>
	</g>
	<g id="POLYLINE_4634_">
		<line class="st8" x1="165.6" y1="34.8" x2="162" y2="38.8"/>
	</g>
	<g id="SPLINE_272_">
		<path class="st8" d="M162,38.8c-0.8,0.8-1.4,1-2,0.6"/>
	</g>
	<g id="ARC_288_">
		<path class="st8" d="M160.2,39.4c-2-1.4-3.8-2.6-6-3.8"/>
	</g>
	<g id="SPLINE_271_">
		<path class="st8" d="M154.2,35.8c-0.6-0.4-0.8-1-0.4-2"/>
	</g>
	<g id="POLYLINE_4633_">
		<line class="st8" x1="154" y1="33.8" x2="156" y2="28.8"/>
	</g>
	<g id="ARC_287_">
		<path class="st8" d="M156,28.8c2,0.6,4.2,0.8,6.4,0.6"/>
	</g>
	<g id="ARC_286_">
		<path class="st8" d="M179.4,43c0.4,2.2,1,4.2,2,6"/>
	</g>
	<g id="POLYLINE_4632_">
		<line class="st8" x1="181.4" y1="49.2" x2="177.2" y2="52.2"/>
	</g>
	<g id="SPLINE_270_">
		<path class="st8" d="M177.2,52.2c-0.8,0.6-1.6,0.6-2,0.2"/>
	</g>
	<g id="ARC_285_">
		<path class="st8" d="M175,52.4c-1.6-1.8-3.2-3.4-5-5"/>
	</g>
	<g id="SPLINE_269_">
		<path class="st8" d="M170.2,47.4c-0.6-0.4-0.4-1.2,0.2-2"/>
	</g>
	<g id="POLYLINE_4631_">
		<line class="st8" x1="170.4" y1="45.4" x2="173.4" y2="41"/>
	</g>
	<g id="ARC_284_">
		<path class="st8" d="M173.4,41c2,1,4,1.6,6,2"/>
	</g>
	<g id="ARC_283_">
		<path class="st8" d="M193,60.2c0,2.2,0.2,4.4,0.6,6.4"/>
	</g>
	<g id="POLYLINE_4630_">
		<line class="st8" x1="193.8" y1="66.6" x2="188.8" y2="68.6"/>
	</g>
	<g id="SPLINE_268_">
		<path class="st8" d="M188.8,68.6c-1,0.4-1.6,0.2-2-0.4"/>
	</g>
	<g id="ARC_282_">
		<path class="st8" d="M186.8,68.2c-1.2-2-2.4-4-3.8-6"/>
	</g>
	<g id="SPLINE_267_">
		<path class="st8" d="M183,62.4c-0.4-0.6-0.2-1.2,0.6-2"/>
	</g>
	<g id="POLYLINE_4629_">
		<line class="st8" x1="183.6" y1="60.4" x2="187.6" y2="56.8"/>
	</g>
	<g id="ARC_281_">
		<path class="st8" d="M187.6,56.8c1.6,1.4,3.6,2.4,5.4,3.4"/>
	</g>
	<g id="ARC_280_">
		<path class="st8" d="M202.6,79.8c-0.6,2-0.8,4.2-0.8,6.4"/>
	</g>
	<g id="POLYLINE_4628_">
		<line class="st8" x1="201.8" y1="86.2" x2="196.6" y2="87.2"/>
	</g>
	<g id="SPLINE_266_">
		<path class="st8" d="M196.6,87.2c-1,0.2-1.6,0-1.8-0.8"/>
	</g>
	<g id="ARC_279_">
		<path class="st8" d="M194.6,86.4c-0.6-2.2-1.4-4.4-2.4-6.6"/>
	</g>
	<g id="SPLINE_265_">
		<path class="st8" d="M192.4,79.8c-0.2-0.6,0-1.2,1-1.8"/>
	</g>
	<g id="POLYLINE_4627_">
		<line class="st8" x1="193.4" y1="78" x2="198" y2="75.4"/>
	</g>
	<g id="ARC_278_">
		<path class="st8" d="M198,75.4c1.4,1.8,2.8,3.2,4.6,4.4"/>
	</g>
	<g id="ARC_277_">
		<path class="st8" d="M202.6,144.4c-1.8,1.2-3.2,2.8-4.6,4.4"/>
	</g>
	<g id="POLYLINE_4626_">
		<line class="st8" x1="198" y1="149" x2="193.4" y2="146.4"/>
	</g>
	<g id="SPLINE_264_">
		<path class="st8" d="M193.4,146.4c-1-0.6-1.2-1.2-1-1.8"/>
	</g>
	<g id="ARC_276_">
		<path class="st8" d="M192.4,144.6c0.8-2.2,1.6-4.4,2.4-6.6"/>
	</g>
	<g id="SPLINE_263_">
		<path class="st8" d="M194.6,138c0.2-0.6,0.8-1,1.8-0.8"/>
	</g>
	<g id="POLYLINE_4625_">
		<line class="st8" x1="196.6" y1="137.2" x2="201.8" y2="138"/>
	</g>
	<g id="ARC_275_">
		<path class="st8" d="M201.8,138c0,2.2,0.2,4.2,0.8,6.4"/>
	</g>
	<g id="ARC_274_">
		<path class="st8" d="M193,164.2c-2,0.8-3.8,2-5.4,3.4"/>
	</g>
	<g id="POLYLINE_4624_">
		<line class="st8" x1="187.6" y1="167.6" x2="183.6" y2="164"/>
	</g>
	<g id="SPLINE_262_">
		<path class="st8" d="M183.6,164c-0.8-0.8-1-1.4-0.6-2"/>
	</g>
	<g id="ARC_273_">
		<path class="st8" d="M183,162c1.4-2,2.6-3.8,3.8-6"/>
	</g>
	<g id="SPLINE_261_">
		<path class="st8" d="M186.8,156.2c0.4-0.6,1-0.8,2-0.4"/>
	</g>
	<g id="POLYLINE_4623_">
		<line class="st8" x1="188.8" y1="155.8" x2="193.8" y2="157.8"/>
	</g>
	<g id="ARC_272_">
		<path class="st8" d="M193.8,157.8c-0.6,2-0.8,4.2-0.6,6.4"/>
	</g>
	<g id="ARC_271_">
		<path class="st8" d="M179.4,181.2c-2.2,0.4-4.2,1-6,2"/>
	</g>
	<g id="POLYLINE_4622_">
		<line class="st8" x1="173.4" y1="183.4" x2="170.4" y2="179"/>
	</g>
	<g id="SPLINE_260_">
		<path class="st8" d="M170.4,179c-0.6-0.8-0.6-1.6-0.2-2"/>
	</g>
	<g id="ARC_270_">
		<path class="st8" d="M170.2,177c1.8-1.6,3.4-3.2,5-5"/>
	</g>
	<g id="SPLINE_259_">
		<path class="st8" d="M175,172c0.4-0.6,1.2-0.4,2,0.2"/>
	</g>
	<g id="POLYLINE_4621_">
		<line class="st8" x1="177.2" y1="172.2" x2="181.4" y2="175.2"/>
	</g>
	<g id="ARC_269_">
		<path class="st8" d="M181.4,175.2c-1,2-1.6,4-2,6"/>
	</g>
	<g id="ARC_268_">
		<path class="st8" d="M162.4,195c-2.2,0-4.4,0.2-6.4,0.6"/>
	</g>
	<g id="POLYLINE_4590_">
		<line class="st8" x1="156" y1="195.6" x2="154" y2="190.6"/>
	</g>
	<g id="SPLINE_258_">
		<path class="st8" d="M154,190.6c-0.4-1-0.2-1.6,0.4-2"/>
	</g>
	<g id="ARC_267_">
		<path class="st8" d="M154.2,188.6c2-1.2,4-2.4,6-3.8"/>
	</g>
	<g id="SPLINE_257_">
		<path class="st8" d="M160.2,185c0.6-0.4,1.2-0.2,2,0.6"/>
	</g>
	<g id="POLYLINE_4589_">
		<line class="st8" x1="162" y1="185.6" x2="165.6" y2="189.4"/>
	</g>
	<g id="ARC_266_">
		<path class="st8" d="M165.6,189.4c-1.4,1.6-2.4,3.6-3.4,5.4"/>
	</g>
	<g id="ARC_265_">
		<path class="st8" d="M142.6,204.4c-2-0.6-4.2-0.8-6.4-0.8"/>
	</g>
	<g id="POLYLINE_4588_">
		<line class="st8" x1="136.2" y1="203.6" x2="135.4" y2="198.4"/>
	</g>
	<g id="SPLINE_256_">
		<path class="st8" d="M135.4,198.4c-0.2-1,0-1.6,0.8-1.8"/>
	</g>
	<g id="ARC_264_">
		<path class="st8" d="M136.2,196.4c2.2-0.6,4.4-1.4,6.6-2.4"/>
	</g>
	<g id="SPLINE_255_">
		<path class="st8" d="M142.8,194.2c0.6-0.2,1.2,0,1.8,1"/>
	</g>
	<g id="POLYLINE_4587_">
		<line class="st8" x1="144.4" y1="195.2" x2="147" y2="199.8"/>
	</g>
	<g id="ARC_263_">
		<path class="st8" d="M147,199.8c-1.8,1.4-3.2,2.8-4.4,4.6"/>
	</g>
	<g id="ARC_262_">
		<path class="st8" d="M121.2,209.4c-2-1-4-1.8-6-2.2"/>
	</g>
	<g id="POLYLINE_4586_">
		<line class="st8" x1="115.2" y1="207.2" x2="115.7" y2="201.8"/>
	</g>
	<g id="SPLINE_254_">
		<path class="st8" d="M115.7,201.8c0-1,0.4-1.6,1.2-1.6"/>
	</g>
	<g id="ARC_261_">
		<path class="st8" d="M116.8,200.2c2.4-0.2,4.6-0.4,7-0.8"/>
	</g>
	<g id="SPLINE_253_">
		<path class="st8" d="M123.7,199.4c0.6,0,1.2,0.4,1.4,1.4"/>
	</g>
	<g id="POLYLINE_4585_">
		<line class="st8" x1="125.2" y1="200.8" x2="126.7" y2="205.8"/>
	</g>
	<g id="ARC_260_">
		<path class="st8" d="M126.7,205.8c-2,1-3.8,2-5.4,3.4"/>
	</g>
	<g id="ARC_259_">
		<path class="st8" d="M99.5,209.4c-1.6-1.4-3.4-2.6-5.4-3.4"/>
	</g>
	<g id="POLYLINE_4584_">
		<line class="st8" x1="94.1" y1="205.8" x2="95.5" y2="200.8"/>
	</g>
	<g id="SPLINE_252_">
		<path class="st8" d="M95.5,200.8c0.4-1,0.8-1.4,1.4-1.4"/>
	</g>
	<g id="ARC_258_">
		<path class="st8" d="M97.1,199.4c2.4,0.4,4.6,0.6,7,0.8"/>
	</g>
	<g id="SPLINE_251_">
		<path class="st8" d="M104.1,200.2c0.6,0,1,0.6,1.2,1.6"/>
	</g>
	<g id="POLYLINE_4583_">
		<line class="st8" x1="105.1" y1="201.8" x2="105.5" y2="207.2"/>
	</g>
	<g id="ARC_257_">
		<path class="st8" d="M105.5,207.2c-2.2,0.4-4.2,1.2-6,2.2"/>
	</g>
	<g id="ARC_256_">
		<path class="st8" d="M78.1,204.4c-1.2-1.8-2.8-3.2-4.4-4.6"/>
	</g>
	<g id="POLYLINE_4582_">
		<line class="st8" x1="73.7" y1="199.8" x2="76.2" y2="195.2"/>
	</g>
	<g id="SPLINE_250_">
		<path class="st8" d="M76.2,195.2c0.6-1,1.2-1.2,1.8-1"/>
	</g>
	<g id="ARC_255_">
		<path class="st8" d="M78.1,194.2c2.2,0.8,4.4,1.6,6.6,2.4"/>
	</g>
	<g id="SPLINE_249_">
		<path class="st8" d="M84.7,196.4c0.6,0.2,1,0.8,0.8,1.8"/>
	</g>
	<g id="POLYLINE_4581_">
		<line class="st8" x1="85.2" y1="198.4" x2="84.5" y2="203.6"/>
	</g>
	<g id="ARC_254_">
		<path class="st8" d="M84.5,203.6c-2.2,0-4.2,0.2-6.4,0.8"/>
	</g>
	<g id="ARC_253_">
		<path class="st8" d="M58.4,195c-0.8-2-2-3.8-3.4-5.4"/>
	</g>
	<g id="POLYLINE_4580_">
		<line class="st8" x1="55" y1="189.4" x2="58.6" y2="185.6"/>
	</g>
	<g id="SPLINE_248_">
		<path class="st8" d="M58.6,185.6c0.8-0.8,1.4-1,2-0.6"/>
	</g>
	<g id="ARC_252_">
		<path class="st8" d="M60.4,185c2,1.4,3.8,2.6,6,3.8"/>
	</g>
	<g id="SPLINE_247_">
		<path class="st8" d="M66.4,188.6c0.6,0.4,0.8,1,0.4,2"/>
	</g>
	<g id="POLYLINE_4579_">
		<line class="st8" x1="66.8" y1="190.6" x2="64.8" y2="195.6"/>
	</g>
	<g id="ARC_251_">
		<path class="st8" d="M64.8,195.6c-2-0.6-4.2-0.8-6.4-0.6"/>
	</g>
	<g id="ARC_250_">
		<path class="st8" d="M41.2,181.2c-0.4-2.2-1-4.2-2-6"/>
	</g>
	<g id="POLYLINE_4578_">
		<line class="st8" x1="39.2" y1="175.2" x2="43.6" y2="172.2"/>
	</g>
	<g id="SPLINE_246_">
		<path class="st8" d="M43.6,172.2c0.8-0.6,1.6-0.6,2-0.2"/>
	</g>
	<g id="ARC_249_">
		<path class="st8" d="M45.6,172c1.6,1.8,3.2,3.4,5,5"/>
	</g>
	<g id="SPLINE_245_">
		<path class="st8" d="M50.4,177c0.6,0.4,0.4,1.2-0.2,2"/>
	</g>
	<g id="POLYLINE_4577_">
		<line class="st8" x1="50.4" y1="179" x2="47.2" y2="183.4"/>
	</g>
	<g id="ARC_248_">
		<path class="st8" d="M47.2,183.4c-2-1-4-1.6-6-2"/>
	</g>
	<g id="ARC_247_">
		<path class="st8" d="M27.6,164.2c0-2.2-0.2-4.4-0.6-6.4"/>
	</g>
	<g id="POLYLINE_4576_">
		<line class="st8" x1="27" y1="157.8" x2="31.9" y2="155.8"/>
	</g>
	<g id="SPLINE_244_">
		<path class="st8" d="M31.9,155.8c1-0.4,1.6-0.2,2,0.4"/>
	</g>
	<g id="ARC_246_">
		<path class="st8" d="M33.8,156.2c1.2,2,2.4,4,3.8,6"/>
	</g>
	<g id="SPLINE_243_">
		<path class="st8" d="M37.6,162c0.4,0.6,0.2,1.2-0.6,2"/>
	</g>
	<g id="POLYLINE_4575_">
		<line class="st8" x1="37" y1="164" x2="33" y2="167.6"/>
	</g>
	<g id="ARC_245_">
		<path class="st8" d="M33,167.6c-1.6-1.4-3.6-2.4-5.4-3.4"/>
	</g>
	<g id="ARC_244_">
		<path class="st8" d="M18,144.4c0.6-2,0.8-4.2,0.8-6.4"/>
	</g>
	<g id="POLYLINE_4574_">
		<line class="st8" x1="18.8" y1="138" x2="24.2" y2="137.2"/>
	</g>
	<g id="SPLINE_242_">
		<path class="st8" d="M24.2,137.2c1-0.2,1.6,0,1.8,0.8"/>
	</g>
	<g id="ARC_243_">
		<path class="st8" d="M26,138c0.6,2.2,1.4,4.4,2.4,6.6"/>
	</g>
	<g id="SPLINE_241_">
		<path class="st8" d="M28.4,144.6c0.2,0.6,0,1.2-1,1.8"/>
	</g>
	<g id="POLYLINE_4573_">
		<line class="st8" x1="27.2" y1="146.4" x2="22.6" y2="149"/>
	</g>
	<g id="ARC_242_">
		<path class="st8" d="M22.6,149c-1.4-1.8-2.8-3.2-4.6-4.4"/>
	</g>
	<g id="ARC_214_">
		<path class="st8" d="M13.2,123.2c1-2,1.8-4,2.2-6"/>
	</g>
	<g id="POLYLINE_4572_">
		<line class="st8" x1="15.4" y1="117" x2="20.6" y2="117.4"/>
	</g>
	<g id="SPLINE_240_">
		<path class="st8" d="M20.6,117.4c1,0,1.6,0.4,1.6,1.2"/>
	</g>
	<g id="ARC_213_">
		<path class="st8" d="M22.4,118.6c0.2,2.4,0.4,4.6,0.8,7"/>
	</g>
	<g id="SPLINE_239_">
		<path class="st8" d="M23.2,125.6c0,0.6-0.4,1.2-1.4,1.4"/>
	</g>
	<g id="POLYLINE_4571_">
		<line class="st8" x1="21.8" y1="127" x2="16.6" y2="128.6"/>
	</g>
	<g id="ARC_212_">
		<path class="st8" d="M16.6,128.6c-1-2-2-3.8-3.4-5.4"/>
	</g>
	<g id="ARC_211_">
		<path class="st8" d="M13.2,101.2c1.4-1.6,2.6-3.4,3.4-5.4"/>
	</g>
	<g id="POLYLINE_4570_">
		<line class="st8" x1="16.6" y1="95.8" x2="21.8" y2="97.4"/>
	</g>
	<g id="SPLINE_238_">
		<path class="st8" d="M21.8,97.4c1,0.4,1.4,0.8,1.4,1.4"/>
	</g>
	<g id="ARC_210_">
		<path class="st8" d="M23.2,98.8c-0.4,2.4-0.6,4.6-0.8,7"/>
	</g>
	<g id="SPLINE_237_">
		<path class="st8" d="M22.4,105.8c0,0.6-0.6,1-1.6,1.2"/>
	</g>
	<g id="POLYLINE_4569_">
		<line class="st8" x1="20.6" y1="107" x2="15.4" y2="107.2"/>
	</g>
	<g id="ARC_209_">
		<path class="st8" d="M15.4,107.2c-0.4-2.2-1.2-4.2-2.2-6"/>
	</g>
	<g id="ARC_208_">
		<path class="st8" d="M18,79.8c1.8-1.2,3.2-2.8,4.6-4.4"/>
	</g>
	<g id="POLYLINE_4568_">
		<line class="st8" x1="22.6" y1="75.4" x2="27.2" y2="78"/>
	</g>
	<g id="SPLINE_236_">
		<path class="st8" d="M27.2,78c1,0.6,1.2,1.2,1,1.8"/>
	</g>
	<g id="ARC_207_">
		<path class="st8" d="M28.4,79.8c-0.8,2.2-1.6,4.4-2.4,6.6"/>
	</g>
	<g id="SPLINE_235_">
		<path class="st8" d="M26,86.4c-0.2,0.6-0.8,1-1.8,0.8"/>
	</g>
	<g id="POLYLINE_4567_">
		<line class="st8" x1="24.2" y1="87.2" x2="18.8" y2="86.2"/>
	</g>
	<g id="ARC_206_">
		<path class="st8" d="M18.8,86.2c0-2.2-0.2-4.2-0.8-6.4"/>
	</g>
	<g id="ARC_205_">
		<path class="st8" d="M27.6,60.2c2-0.8,3.8-2,5.4-3.4"/>
	</g>
	<g id="POLYLINE_4566_">
		<line class="st8" x1="33" y1="56.8" x2="37" y2="60.4"/>
	</g>
	<g id="SPLINE_234_">
		<path class="st8" d="M37,60.4c0.8,0.8,1,1.4,0.6,2"/>
	</g>
	<g id="ARC_204_">
		<path class="st8" d="M37.6,62.4c-1.4,2-2.6,3.8-3.8,6"/>
	</g>
	<g id="SPLINE_233_">
		<path class="st8" d="M33.8,68.2c-0.4,0.6-1,0.8-2,0.4"/>
	</g>
	<g id="POLYLINE_4565_">
		<line class="st8" x1="31.9" y1="68.6" x2="27" y2="66.6"/>
	</g>
	<g id="ARC_173_">
		<path class="st8" d="M27,66.6c0.6-2,0.8-4.2,0.6-6.4"/>
	</g>
	<g id="ARC_171_">
		<path class="st8" d="M41.2,43c2.2-0.4,4.2-1,6-2"/>
	</g>
	<g id="POLYLINE_4564_">
		<line class="st8" x1="47.2" y1="41" x2="50.4" y2="45.4"/>
	</g>
	<g id="SPLINE_232_">
		<path class="st8" d="M50.4,45.4c0.6,0.8,0.6,1.6,0.2,2"/>
	</g>
	<g id="ARC_170_">
		<path class="st8" d="M50.4,47.4c-1.8,1.6-3.4,3.2-5,5"/>
	</g>
	<g id="SPLINE_231_">
		<path class="st8" d="M45.6,52.4c-0.4,0.6-1.2,0.4-2-0.2"/>
	</g>
	<g id="POLYLINE_4563_">
		<line class="st8" x1="43.6" y1="52.2" x2="39.2" y2="49.2"/>
	</g>
	<g id="ARC_169_">
		<path class="st8" d="M39.2,49.2c1-2,1.6-4,2-6"/>
	</g>
	<g id="POLYLINE_4562_">
		<rect x="75.8" y="77.6" class="st8" width="6.2" height="6.2"/>
	</g>
	<g id="POLYLINE_4561_">
		<rect x="138.6" y="140.6" class="st8" width="6.2" height="6.2"/>
	</g>
	<g id="POLYLINE_4560_">
		<rect x="75.8" y="140.6" class="st8" width="6.2" height="6.2"/>
	</g>
	<g id="ARC_168_">
		<path class="st8" d="M207.4,123.2c-1.4,1.6-2.6,3.4-3.4,5.4"/>
	</g>
	<g id="POLYLINE_4559_">
		<line class="st8" x1="204" y1="128.6" x2="198.8" y2="127"/>
	</g>
	<g id="SPLINE_230_">
		<path class="st8" d="M198.8,127c-1-0.4-1.4-0.8-1.4-1.4"/>
	</g>
	<g id="ARC_145_">
		<path class="st8" d="M197.4,125.6c0.4-2.4,0.6-4.6,0.8-7"/>
	</g>
	<g id="SPLINE_218_">
		<path class="st8" d="M198.2,118.6c0-0.6,0.6-1,1.6-1.2"/>
	</g>
	<g id="POLYLINE_4558_">
		<line class="st8" x1="200" y1="117.4" x2="205.2" y2="117"/>
	</g>
	<g id="ARC_144_">
		<path class="st8" d="M205.2,117c0.4,2.2,1.2,4.2,2.2,6"/>
	</g>
	<g id="ARC_143_">
		<path class="st8" d="M204,95.8c1,2,2,3.8,3.4,5.4"/>
	</g>
	<g id="POLYLINE_4557_">
		<line class="st8" x1="204" y1="95.8" x2="198.8" y2="97.4"/>
	</g>
	<g id="SPLINE_217_">
		<path class="st8" d="M198.8,97.4c-1,0.4-1.4,0.8-1.4,1.4"/>
	</g>
	<g id="ARC_142_">
		<path class="st8" d="M198.2,105.8c-0.2-2.4-0.4-4.6-0.8-7"/>
	</g>
	<g id="SPLINE_216_">
		<path class="st8" d="M198.2,105.8c0,0.6,0.6,1,1.6,1.2"/>
	</g>
	<g id="POLYLINE_4556_">
		<line class="st8" x1="200" y1="107" x2="205.2" y2="107.2"/>
	</g>
	<g id="ARC_128_">
		<path class="st8" d="M207.4,101.2c-1,2-1.8,4-2.2,6"/>
	</g>
	<g id="ARC_127_">
		<path class="st8" d="M121.2,15c1.6,1.4,3.4,2.6,5.4,3.4"/>
	</g>
	<g id="POLYLINE_4555_">
		<line class="st8" x1="126.7" y1="18.6" x2="125.2" y2="23.6"/>
	</g>
	<g id="SPLINE_215_">
		<path class="st8" d="M125.2,23.6c-0.4,1-0.8,1.4-1.4,1.4"/>
	</g>
	<g id="ARC_126_">
		<path class="st8" d="M123.7,25c-2.4-0.4-4.6-0.6-7-0.8"/>
	</g>
	<g id="SPLINE_214_">
		<path class="st8" d="M116.8,24.2c-0.6,0-1-0.6-1.2-1.6"/>
	</g>
	<g id="POLYLINE_4554_">
		<line class="st8" x1="115.7" y1="22.6" x2="115.2" y2="17.2"/>
	</g>
	<g id="ARC_125_">
		<path class="st8" d="M115.2,17.2c2.2-0.4,4.2-1.2,6-2.2"/>
	</g>
	<g id="ARC_124_">
		<path class="st8" d="M58.4,29.4c2.2,0,4.4-0.2,6.4-0.6"/>
	</g>
	<g id="POLYLINE_4553_">
		<line class="st8" x1="64.8" y1="28.8" x2="66.8" y2="33.8"/>
	</g>
	<g id="SPLINE_213_">
		<path class="st8" d="M66.8,33.8c0.4,1,0.2,1.6-0.4,2"/>
	</g>
	<g id="ARC_123_">
		<path class="st8" d="M66.4,35.8c-2,1.2-4,2.4-6,3.8"/>
	</g>
	<g id="SPLINE_212_">
		<path class="st8" d="M60.4,39.4c-0.6,0.4-1.2,0.2-2-0.6"/>
	</g>
	<g id="POLYLINE_4552_">
		<line class="st8" x1="58.6" y1="38.8" x2="55" y2="34.8"/>
	</g>
	<g id="ARC_122_">
		<path class="st8" d="M55,34.8c1.4-1.6,2.4-3.6,3.4-5.4"/>
	</g>
	<g id="ARC_121_">
		<path class="st8" d="M78.1,20c2,0.6,4.2,0.8,6.4,0.8"/>
	</g>
	<g id="POLYLINE_4551_">
		<line class="st8" x1="84.5" y1="20.8" x2="85.2" y2="26"/>
	</g>
	<g id="SPLINE_211_">
		<path class="st8" d="M85.2,26c0.2,1,0,1.6-0.8,1.8"/>
	</g>
	<g id="ARC_117_">
		<path class="st8" d="M84.7,27.8c-2.2,0.6-4.4,1.4-6.6,2.4"/>
	</g>
	<g id="SPLINE_210_">
		<path class="st8" d="M78.1,30.2c-0.6,0.2-1.2,0-1.8-1"/>
	</g>
	<g id="POLYLINE_4550_">
		<line class="st8" x1="76.2" y1="29.2" x2="73.7" y2="24.6"/>
	</g>
	<g id="ARC_116_">
		<path class="st8" d="M73.7,24.6c1.8-1.4,3.2-2.8,4.4-4.6"/>
	</g>
	<g id="POLYLINE_4549_">
		<rect x="138.6" y="77.6" class="st8" width="6.2" height="6.2"/>
	</g>
</g>
<g id="PLAN_x24_STRUCTURE_1.2">
</g>
<g id="PLAN_x24_STRUCTURE_1.1">
</g>
</svg>
