<?xml version="1.0" encoding="utf-8"?>
<!-- Generator: Adobe Illustrator 22.0.1, SVG Export Plug-In . SVG Version: 6.00 Build 0)  -->
<svg version="1.1" id="Calque_1" xmlns="http://www.w3.org/2000/svg" xmlns:xlink="http://www.w3.org/1999/xlink" x="0px" y="0px"
	 viewBox="0 0 315.8 136.3" style="enable-background:new 0 0 315.8 136.3;" xml:space="preserve">
<style type="text/css">
	.st0{display:none;}
	.st1{display:inline;}
	.st2{fill:none;}
	.st3{fill:none;stroke:#000000;stroke-width:5.000000e-02;stroke-linecap:square;stroke-miterlimit:10;}
	.st4{fill:none;stroke:#000000;stroke-width:8.000000e-02;stroke-linecap:square;stroke-miterlimit:10;}
	.st5{fill:none;stroke:#000000;stroke-width:0.27;stroke-linecap:square;stroke-miterlimit:10;}
	.st6{fill:none;stroke:#000000;stroke-width:0.41;stroke-linecap:square;stroke-miterlimit:10;}
</style>
<g id="Calque_1_1_">
</g>
<g id="INFOS_x24_A4" class="st0">
	<g id="POLYLINE_3807_" class="st1">
		<rect x="-138.1" y="-364.3" class="st2" width="595.3" height="841.9"/>
	</g>
</g>
<g id="PLAN_x24_FOND">
</g>
<g id="PLAN_x24_POINTILLE">
</g>
<g id="PLAN_x24_VITRAGE">
	<g id="POLYLINE_5186_">
		<line class="st3" x1="4.4" y1="28.5" x2="4.4" y2="6.9"/>
	</g>
	<g id="POLYLINE_5185_">
		<line class="st3" x1="4.4" y1="54.6" x2="4.4" y2="33"/>
	</g>
	<g id="POLYLINE_5184_">
		<line class="st3" x1="4.4" y1="80.7" x2="4.4" y2="59.1"/>
	</g>
	<g id="POLYLINE_5183_">
		<line class="st3" x1="4.4" y1="106.4" x2="4.4" y2="85.3"/>
	</g>
	<g id="POLYLINE_5182_">
		<line class="st3" x1="4.4" y1="129.7" x2="4.4" y2="110.9"/>
	</g>
	<g id="POLYLINE_5181_">
		<line class="st3" x1="24.6" y1="4.7" x2="6.6" y2="4.7"/>
	</g>
	<g id="POLYLINE_5180_">
		<line class="st3" x1="47.1" y1="4.7" x2="29.1" y2="4.7"/>
	</g>
	<g id="POLYLINE_5179_">
		<line class="st3" x1="71.5" y1="4.7" x2="51.7" y2="4.7"/>
	</g>
	<g id="POLYLINE_5178_">
		<line class="st3" x1="95.8" y1="4.7" x2="76" y2="4.7"/>
	</g>
	<g id="POLYLINE_5177_">
		<line class="st3" x1="120.2" y1="4.7" x2="100.4" y2="4.7"/>
	</g>
	<g id="POLYLINE_5176_">
		<line class="st3" x1="144.5" y1="4.7" x2="124.7" y2="4.7"/>
	</g>
	<g id="POLYLINE_5175_">
		<line class="st3" x1="167.1" y1="4.7" x2="149" y2="4.7"/>
	</g>
	<g id="POLYLINE_5174_">
		<line class="st3" x1="190.9" y1="4.7" x2="171.6" y2="4.7"/>
	</g>
	<g id="POLYLINE_5173_">
		<line class="st3" x1="214.7" y1="4.7" x2="195.4" y2="4.7"/>
	</g>
	<g id="POLYLINE_5172_">
		<line class="st3" x1="238.5" y1="4.7" x2="219.2" y2="4.7"/>
	</g>
	<g id="POLYLINE_5171_">
		<line class="st3" x1="262.3" y1="4.7" x2="243.1" y2="4.7"/>
	</g>
	<g id="POLYLINE_5170_">
		<line class="st3" x1="286.2" y1="4.7" x2="266.9" y2="4.7"/>
	</g>
	<g id="POLYLINE_5169_">
		<line class="st3" x1="310" y1="4.7" x2="290.7" y2="4.7"/>
	</g>
	<g id="POLYLINE_5168_">
		<line class="st3" x1="311.7" y1="27.9" x2="311.7" y2="6.4"/>
	</g>
	<g id="POLYLINE_5167_">
		<line class="st3" x1="311.7" y1="54" x2="311.7" y2="32.5"/>
	</g>
	<g id="POLYLINE_5166_">
		<line class="st3" x1="311.7" y1="80.1" x2="311.7" y2="58.6"/>
	</g>
	<g id="POLYLINE_5165_">
		<line class="st3" x1="311.7" y1="105.8" x2="311.7" y2="84.7"/>
	</g>
	<g id="POLYLINE_5164_">
		<line class="st3" x1="311.7" y1="110.3" x2="311.7" y2="130.3"/>
	</g>
	<g id="POLYLINE_5163_">
		<line class="st3" x1="310" y1="132" x2="290.7" y2="132"/>
	</g>
	<g id="POLYLINE_5162_">
		<line class="st3" x1="286.2" y1="132" x2="266.9" y2="132"/>
	</g>
	<g id="POLYLINE_5161_">
		<line class="st3" x1="262.3" y1="132" x2="243.1" y2="132"/>
	</g>
	<g id="POLYLINE_5160_">
		<line class="st3" x1="238.5" y1="132" x2="219.2" y2="132"/>
	</g>
	<g id="POLYLINE_5159_">
		<line class="st3" x1="214.7" y1="132" x2="195.4" y2="132"/>
	</g>
	<g id="POLYLINE_5158_">
		<line class="st3" x1="190.9" y1="132" x2="171.6" y2="132"/>
	</g>
	<g id="POLYLINE_5157_">
		<line class="st3" x1="167.1" y1="132" x2="149" y2="132"/>
	</g>
	<g id="POLYLINE_5156_">
		<line class="st3" x1="144.5" y1="132" x2="124.7" y2="132"/>
	</g>
	<g id="POLYLINE_5155_">
		<line class="st3" x1="120.2" y1="132" x2="100.4" y2="132"/>
	</g>
	<g id="POLYLINE_5154_">
		<line class="st3" x1="47.1" y1="132" x2="29.1" y2="132"/>
	</g>
	<g id="POLYLINE_5153_">
		<line class="st3" x1="24.6" y1="132" x2="6.6" y2="132"/>
	</g>
	<g id="POLYLINE_5152_">
		<line class="st3" x1="49.4" y1="129.7" x2="49.4" y2="110.9"/>
	</g>
	<g id="POLYLINE_5151_">
		<line class="st3" x1="98.1" y1="129.7" x2="98.1" y2="110.9"/>
	</g>
	<g id="POLYLINE_5150_">
		<line class="st3" x1="98.1" y1="106.4" x2="98.1" y2="98.1"/>
	</g>
	<g id="POLYLINE_5149_">
		<line class="st3" x1="49.4" y1="106.4" x2="49.4" y2="98.1"/>
	</g>
</g>
<g id="PLAN_x24_MOBILIER">
</g>
<g id="PLAN_x24_DETAIL">
	<g id="POLYLINE_4954_">
		<line class="st4" x1="60.7" y1="91.2" x2="65.1" y2="91.2"/>
	</g>
	<g id="POLYLINE_4953_">
		<line class="st4" x1="65.1" y1="91.2" x2="65.1" y2="95.8"/>
	</g>
	<g id="POLYLINE_4952_">
		<line class="st4" x1="86.9" y1="91.2" x2="82.4" y2="91.2"/>
	</g>
	<g id="POLYLINE_4951_">
		<line class="st4" x1="82.4" y1="91.2" x2="82.4" y2="95.8"/>
	</g>
	<g id="POLYLINE_4950_">
		<line class="st4" x1="66.5" y1="91.2" x2="66.5" y2="95.8"/>
	</g>
	<g id="POLYLINE_4949_">
		<line class="st4" x1="68" y1="91.2" x2="68" y2="95.8"/>
	</g>
	<g id="POLYLINE_4948_">
		<line class="st4" x1="69.4" y1="91.2" x2="69.4" y2="95.8"/>
	</g>
	<g id="POLYLINE_4947_">
		<line class="st4" x1="70.9" y1="91.2" x2="70.9" y2="95.8"/>
	</g>
	<g id="POLYLINE_4946_">
		<line class="st4" x1="72.3" y1="91.2" x2="72.3" y2="95.8"/>
	</g>
	<g id="POLYLINE_4945_">
		<line class="st4" x1="73.8" y1="91.2" x2="73.8" y2="95.8"/>
	</g>
	<g id="POLYLINE_4944_">
		<line class="st4" x1="75.2" y1="91.2" x2="75.2" y2="95.8"/>
	</g>
	<g id="POLYLINE_4943_">
		<line class="st4" x1="76.6" y1="91.2" x2="76.6" y2="95.8"/>
	</g>
	<g id="POLYLINE_4942_">
		<line class="st4" x1="78.1" y1="91.2" x2="78.1" y2="95.8"/>
	</g>
	<g id="POLYLINE_4941_">
		<line class="st4" x1="79.5" y1="91.2" x2="79.5" y2="95.8"/>
	</g>
	<g id="POLYLINE_4940_">
		<line class="st4" x1="81" y1="91.2" x2="81" y2="95.8"/>
	</g>
	<g id="POLYLINE_4939_">
		<line class="st4" x1="86.9" y1="82.7" x2="82.4" y2="82.7"/>
	</g>
	<g id="POLYLINE_4938_">
		<line class="st4" x1="65.1" y1="82.7" x2="60.7" y2="82.7"/>
	</g>
	<g id="POLYLINE_4937_">
		<line class="st4" x1="3.2" y1="6.9" x2="3.2" y2="28.5"/>
	</g>
	<g id="POLYLINE_4936_">
		<line class="st4" x1="3.2" y1="33" x2="3.2" y2="54.6"/>
	</g>
	<g id="POLYLINE_4935_">
		<line class="st4" x1="3.2" y1="59.1" x2="3.2" y2="80.7"/>
	</g>
	<g id="POLYLINE_4934_">
		<line class="st4" x1="3.2" y1="85.3" x2="3.2" y2="106.4"/>
	</g>
	<g id="POLYLINE_4933_">
		<line class="st4" x1="3.2" y1="110.9" x2="3.2" y2="129.7"/>
	</g>
	<g id="POLYLINE_4932_">
		<line class="st4" x1="6.6" y1="3.5" x2="24.6" y2="3.5"/>
	</g>
	<g id="POLYLINE_4931_">
		<line class="st4" x1="29.1" y1="3.5" x2="47.1" y2="3.5"/>
	</g>
	<g id="POLYLINE_4930_">
		<line class="st4" x1="51.7" y1="3.5" x2="71.5" y2="3.5"/>
	</g>
	<g id="POLYLINE_4929_">
		<line class="st4" x1="76" y1="3.5" x2="95.8" y2="3.5"/>
	</g>
	<g id="POLYLINE_4928_">
		<line class="st4" x1="100.4" y1="3.5" x2="120.2" y2="3.5"/>
	</g>
	<g id="POLYLINE_4927_">
		<line class="st4" x1="124.7" y1="3.5" x2="144.5" y2="3.5"/>
	</g>
	<g id="POLYLINE_4926_">
		<line class="st4" x1="167.1" y1="3.5" x2="149" y2="3.5"/>
	</g>
	<g id="POLYLINE_4925_">
		<line class="st4" x1="190.9" y1="3.5" x2="171.6" y2="3.5"/>
	</g>
	<g id="POLYLINE_4924_">
		<line class="st4" x1="214.7" y1="3.5" x2="195.4" y2="3.5"/>
	</g>
	<g id="POLYLINE_4923_">
		<line class="st4" x1="238.5" y1="3.5" x2="219.2" y2="3.5"/>
	</g>
	<g id="POLYLINE_4922_">
		<line class="st4" x1="262.3" y1="3.5" x2="243.1" y2="3.5"/>
	</g>
	<g id="POLYLINE_4921_">
		<line class="st4" x1="286.2" y1="3.5" x2="266.9" y2="3.5"/>
	</g>
	<g id="POLYLINE_4920_">
		<line class="st4" x1="310" y1="3.5" x2="290.7" y2="3.5"/>
	</g>
	<g id="POLYLINE_4919_">
		<line class="st4" x1="312.8" y1="6.4" x2="312.8" y2="27.9"/>
	</g>
	<g id="POLYLINE_4918_">
		<line class="st4" x1="312.8" y1="32.5" x2="312.8" y2="54"/>
	</g>
	<g id="POLYLINE_4917_">
		<line class="st4" x1="312.8" y1="58.6" x2="312.8" y2="80.1"/>
	</g>
	<g id="POLYLINE_4916_">
		<line class="st4" x1="312.8" y1="84.7" x2="312.8" y2="105.8"/>
	</g>
	<g id="POLYLINE_4915_">
		<line class="st4" x1="312.8" y1="130.3" x2="312.8" y2="110.3"/>
	</g>
	<g id="POLYLINE_4914_">
		<line class="st4" x1="310" y1="133.1" x2="290.7" y2="133.1"/>
	</g>
	<g id="POLYLINE_4913_">
		<line class="st4" x1="286.2" y1="133.1" x2="266.9" y2="133.1"/>
	</g>
	<g id="POLYLINE_4912_">
		<line class="st4" x1="262.3" y1="133.1" x2="243.1" y2="133.1"/>
	</g>
	<g id="POLYLINE_4911_">
		<line class="st4" x1="238.5" y1="133.1" x2="219.2" y2="133.1"/>
	</g>
	<g id="POLYLINE_4910_">
		<line class="st4" x1="214.7" y1="133.1" x2="195.4" y2="133.1"/>
	</g>
	<g id="POLYLINE_4909_">
		<line class="st4" x1="190.9" y1="133.1" x2="171.6" y2="133.1"/>
	</g>
	<g id="POLYLINE_4908_">
		<line class="st4" x1="167.1" y1="133.1" x2="149" y2="133.1"/>
	</g>
	<g id="POLYLINE_4907_">
		<line class="st4" x1="144.5" y1="133.1" x2="124.7" y2="133.1"/>
	</g>
	<g id="POLYLINE_4906_">
		<line class="st4" x1="120.2" y1="133.1" x2="100.4" y2="133.1"/>
	</g>
	<g id="POLYLINE_4905_">
		<line class="st4" x1="47.1" y1="133.1" x2="29.1" y2="133.1"/>
	</g>
	<g id="POLYLINE_4904_">
		<line class="st4" x1="24.6" y1="133.1" x2="6.6" y2="133.1"/>
	</g>
	<g id="POLYLINE_4903_">
		<line class="st4" x1="50.5" y1="110.9" x2="50.5" y2="129.7"/>
	</g>
	<g id="POLYLINE_4902_">
		<line class="st4" x1="97" y1="110.9" x2="97" y2="129.7"/>
	</g>
	<g id="POLYLINE_4901_">
		<line class="st4" x1="97" y1="98.1" x2="97" y2="106.4"/>
	</g>
	<g id="POLYLINE_4900_">
		<line class="st4" x1="50.5" y1="98.1" x2="50.5" y2="106.4"/>
	</g>
	<g id="LINE_618_">
		<line class="st4" x1="65.1" y1="84.1" x2="60.7" y2="84.1"/>
	</g>
	<g id="LINE_617_">
		<line class="st4" x1="65.1" y1="85.5" x2="60.7" y2="85.5"/>
	</g>
	<g id="LINE_616_">
		<line class="st4" x1="65.1" y1="86.9" x2="60.7" y2="86.9"/>
	</g>
	<g id="LINE_615_">
		<line class="st4" x1="65.1" y1="88.4" x2="60.7" y2="88.4"/>
	</g>
	<g id="LINE_516_">
		<line class="st4" x1="65.1" y1="89.8" x2="60.7" y2="89.8"/>
	</g>
	<g id="LINE_242_">
		<line class="st4" x1="86.9" y1="89.8" x2="82.4" y2="89.8"/>
	</g>
	<g id="LINE_113_">
		<line class="st4" x1="86.9" y1="88.4" x2="82.4" y2="88.4"/>
	</g>
	<g id="LINE_112_">
		<line class="st4" x1="86.9" y1="86.9" x2="82.4" y2="86.9"/>
	</g>
	<g id="LINE_111_">
		<line class="st4" x1="86.9" y1="85.5" x2="82.4" y2="85.5"/>
	</g>
	<g id="LINE_110_">
		<line class="st4" x1="86.9" y1="84.1" x2="82.4" y2="84.1"/>
	</g>
	<g id="POLYLINE_4899_">
		<rect x="82.9" y="49.1" class="st4" width="6" height="7"/>
	</g>
	<g id="POLYLINE_4898_">
		<line class="st4" x1="82.9" y1="49.1" x2="88.9" y2="56.1"/>
	</g>
	<g id="POLYLINE_4897_">
		<line class="st4" x1="88.9" y1="49.1" x2="82.9" y2="56.1"/>
	</g>
	<g id="POLYLINE_4896_">
		<line class="st4" x1="96.5" y1="49.1" x2="90.5" y2="56.1"/>
	</g>
	<g id="POLYLINE_4895_">
		<line class="st4" x1="90.5" y1="49.1" x2="96.5" y2="56.1"/>
	</g>
	<g id="POLYLINE_4894_">
		<rect x="90.5" y="49.1" class="st4" width="6" height="7"/>
	</g>
	<g id="POLYLINE_4893_">
		<line class="st4" x1="81.4" y1="49.1" x2="75.4" y2="56.1"/>
	</g>
	<g id="POLYLINE_4892_">
		<line class="st4" x1="75.4" y1="49.1" x2="81.4" y2="56.1"/>
	</g>
	<g id="POLYLINE_4891_">
		<rect x="75.4" y="49.1" class="st4" width="6" height="7"/>
	</g>
	<g id="POLYLINE_4890_">
		<line class="st4" x1="72.1" y1="49.1" x2="66.1" y2="56.1"/>
	</g>
	<g id="POLYLINE_4889_">
		<line class="st4" x1="66.1" y1="49.1" x2="72.1" y2="56.1"/>
	</g>
	<g id="POLYLINE_4888_">
		<rect x="66.1" y="49.1" class="st4" width="6" height="7"/>
	</g>
	<g id="POLYLINE_4887_">
		<line class="st4" x1="64.6" y1="49.1" x2="58.6" y2="56.1"/>
	</g>
	<g id="POLYLINE_4886_">
		<line class="st4" x1="58.6" y1="49.1" x2="64.6" y2="56.1"/>
	</g>
	<g id="POLYLINE_4885_">
		<rect x="58.6" y="49.1" class="st4" width="6" height="7"/>
	</g>
	<g id="POLYLINE_4884_">
		<line class="st4" x1="57" y1="49.1" x2="51" y2="56.1"/>
	</g>
	<g id="POLYLINE_4883_">
		<line class="st4" x1="51" y1="49.1" x2="57" y2="56.1"/>
	</g>
	<g id="POLYLINE_4882_">
		<rect x="51" y="49.1" class="st4" width="6" height="7"/>
	</g>
	<g id="POLYLINE_4881_">
		<rect x="66.1" y="83.7" class="st4" width="6" height="5.8"/>
	</g>
	<g id="POLYLINE_4880_">
		<line class="st4" x1="66.1" y1="83.7" x2="72.1" y2="89.6"/>
	</g>
	<g id="POLYLINE_4879_">
		<line class="st4" x1="72.1" y1="83.7" x2="66.1" y2="89.6"/>
	</g>
	<g id="POLYLINE_4878_">
		<line class="st4" x1="81.4" y1="83.7" x2="75.4" y2="89.6"/>
	</g>
	<g id="POLYLINE_4877_">
		<line class="st4" x1="75.4" y1="83.7" x2="81.4" y2="89.6"/>
	</g>
	<g id="POLYLINE_4876_">
		<rect x="75.4" y="83.7" class="st4" width="6" height="5.8"/>
	</g>
</g>
<g id="PLAN_x24_CLOISON_TRANSLUCIDE">
</g>
<g id="PLAN_x24_CLOISON_1.3">
</g>
<g id="PLAN_x24_CLOISON_1.2">
</g>
<g id="PLAN_x24_CLOISON_1.1">
</g>
<g id="PLAN_x24_STRUCTURE_2.3">
	<g id="POLYLINE_4743_">
		<line class="st5" x1="96.1" y1="56.6" x2="97" y2="56.6"/>
	</g>
	<g id="POLYLINE_4742_">
		<polyline class="st5" points="97,56.6 96.1,56.6 96.1,57.2 97,57.2 		"/>
	</g>
	<g id="POLYLINE_4741_">
		<line class="st5" x1="97" y1="57.2" x2="96.1" y2="57.2"/>
	</g>
	<g id="POLYLINE_4740_">
		<polyline class="st5" points="97,82.7 91.8,82.7 91.8,83.3 97,83.3 		"/>
	</g>
	<g id="POLYLINE_4739_">
		<polyline class="st5" points="97,83.3 97,84.1 97,87.2 91.8,87.2 91.8,87.7 97,87.7 97,91.6 91.8,91.6 91.8,92.1 91.8,92.2 
			97,92.2 97,94.7 		"/>
	</g>
	<g id="POLYLINE_4738_">
		<polyline class="st5" points="97,94.7 97,95.8 87.4,95.8 87.4,82.7 86.9,82.7 86.9,95.8 60.7,95.8 60.7,82.7 60.1,82.7 60.1,95.8 
			50.5,95.8 		"/>
	</g>
	<g id="POLYLINE_4737_">
		<polyline class="st5" points="72.6,82.7 71.8,82.7 71.8,83.3 72.6,83.3 		"/>
	</g>
	<g id="POLYLINE_4736_">
		<polyline class="st5" points="72.6,83.3 72.6,84.1 72.6,85 72.6,90.6 65.6,90.6 65.6,83.3 66.5,83.3 66.5,82.7 65.6,82.7 
			65.1,82.7 65.1,91.2 82.4,91.2 82.4,82.7 81.9,82.7 81,82.7 81,83.3 81.9,83.3 81.9,90.6 74.9,90.6 74.9,85 74.9,84.1 		"/>
	</g>
	<g id="POLYLINE_4735_">
		<polyline class="st5" points="74.9,83.3 75.7,83.3 75.7,82.7 74.9,82.7 		"/>
	</g>
	<g id="POLYLINE_4734_">
		<line class="st5" x1="50.5" y1="96.9" x2="97" y2="96.9"/>
	</g>
	<g id="POLYLINE_4733_">
		<line class="st5" x1="50" y1="84.1" x2="50" y2="94.7"/>
	</g>
	<g id="POLYLINE_4732_">
		<polyline class="st5" points="50.5,94.7 50.5,92.2 55.8,92.2 55.8,91.6 50.5,91.6 50.5,87.7 55.8,87.7 55.8,87.2 50.5,87.2 
			50.5,84.1 		"/>
	</g>
	<g id="POLYLINE_4731_">
		<line class="st5" x1="97.5" y1="94.7" x2="97.5" y2="84.1"/>
	</g>
	<g id="POLYLINE_4730_">
		<polyline class="st5" points="50.5,83.3 55.8,83.3 55.8,82.7 50.5,82.7 		"/>
	</g>
	<g id="POLYLINE_4729_">
		<polyline class="st5" points="74.9,55.7 74.9,48.3 81.9,48.3 81.9,56.6 81,56.6 81,57.2 83.3,57.2 83.3,56.6 82.4,56.6 82.4,48.3 
			89.4,48.3 89.4,56.6 88.6,56.6 		"/>
	</g>
	<g id="POLYLINE_4728_">
		<polyline class="st5" points="65.1,56.6 64.2,56.6 64.2,57.2 66.5,57.2 66.5,56.6 65.6,56.6 65.6,48.3 72.6,48.3 72.6,55.7 		"/>
	</g>
	<g id="POLYLINE_4727_">
		<polyline class="st5" points="97,55.7 97,48.3 90,48.3 90,56.6 90.8,56.6 		"/>
	</g>
	<g id="POLYLINE_4726_">
		<polyline class="st5" points="97.5,55.7 97.5,47.7 73.8,47.7 50,47.7 50,55.7 		"/>
	</g>
	<g id="POLYLINE_4725_">
		<polyline class="st5" points="50.5,55.7 50.5,48.3 57.5,48.3 57.5,56.6 56.7,56.6 		"/>
	</g>
	<g id="POLYLINE_4724_">
		<polyline class="st5" points="90,56.6 90.8,56.6 90.8,57.2 88.6,57.2 88.6,56.6 89.4,56.6 		"/>
	</g>
	<g id="POLYLINE_4723_">
		<line class="st5" x1="88.6" y1="57.2" x2="90" y2="57.2"/>
	</g>
	<g id="POLYLINE_4722_">
		<polyline class="st5" points="58.9,56.6 58.1,56.6 58.1,48.3 65.1,48.3 65.1,56.6 64.2,56.6 		"/>
	</g>
	<g id="POLYLINE_4721_">
		<polyline class="st5" points="74.9,57.2 75.7,57.2 75.7,56.6 74.9,56.6 		"/>
	</g>
	<g id="POLYLINE_4720_">
		<polyline class="st5" points="72.6,56.6 71.8,56.6 71.8,57.2 72.6,57.2 		"/>
	</g>
	<g id="POLYLINE_4719_">
		<line class="st5" x1="82.4" y1="56.6" x2="83.3" y2="56.6"/>
	</g>
	<g id="POLYLINE_4718_">
		<line class="st5" x1="58.9" y1="57.2" x2="57.5" y2="57.2"/>
	</g>
	<g id="POLYLINE_4717_">
		<polyline class="st5" points="57.5,56.6 56.7,56.6 56.7,57.2 58.9,57.2 58.9,56.6 58.1,56.6 		"/>
	</g>
	<g id="POLYLINE_4716_">
		<polyline class="st5" points="51.4,56.6 50.5,56.6 51.4,56.6 51.4,57.2 50.5,57.2 51.4,57.2 		"/>
	</g>
</g>
<g id="PLAN_x24_STRUCTURE_2.2">
</g>
<g id="PLAN_x24_STRUCTURE_2.1">
</g>
<g id="PLAN_x24_STRUCTURE_1.3">
	<g id="POLYLINE_5120_">
		<rect x="72.6" y="81.8" class="st6" width="2.3" height="2.3"/>
	</g>
	<g id="POLYLINE_5119_">
		<rect x="97" y="81.8" class="st6" width="2.3" height="2.3"/>
	</g>
	<g id="POLYLINE_5118_">
		<polygon class="st6" points="98.1,98.1 97,98.1 97,94.7 99.2,94.7 99.2,96.9 98.1,96.9 		"/>
	</g>
	<g id="POLYLINE_5117_">
		<polygon class="st6" points="48.3,96.9 48.3,94.7 50.5,94.7 50.5,98.1 49.4,98.1 49.4,96.9 		"/>
	</g>
	<g id="POLYLINE_5116_">
		<rect x="48.3" y="81.8" class="st6" width="2.3" height="2.3"/>
	</g>
	<g id="POLYLINE_5115_">
		<rect x="48.3" y="55.7" class="st6" width="2.3" height="2.3"/>
	</g>
	<g id="POLYLINE_5114_">
		<rect x="72.6" y="55.7" class="st6" width="2.3" height="2.3"/>
	</g>
	<g id="POLYLINE_5113_">
		<rect x="97" y="55.7" class="st6" width="2.3" height="2.3"/>
	</g>
	<g id="POLYLINE_5112_">
		<polygon class="st6" points="312.8,29.6 312.8,27.9 311.7,27.9 311.7,29.6 310,29.6 310,30.8 311.7,30.8 311.7,32.5 312.8,32.5 
			312.8,30.8 		"/>
	</g>
	<g id="POLYLINE_5111_">
		<polygon class="st6" points="312.8,55.7 312.8,54 311.7,54 311.7,55.7 310,55.7 310,56.9 311.7,56.9 311.7,58.6 312.8,58.6 
			312.8,56.9 		"/>
	</g>
	<g id="POLYLINE_5110_">
		<polygon class="st6" points="312.8,81.8 312.8,80.1 311.7,80.1 311.7,81.8 310,81.8 310,83 311.7,83 311.7,84.7 312.8,84.7 
			312.8,83 		"/>
	</g>
	<g id="POLYLINE_5109_">
		<polygon class="st6" points="312.8,107.5 312.8,105.8 311.7,105.8 311.7,107.5 310,107.5 310,108.6 311.7,108.6 311.7,110.3 
			312.8,110.3 312.8,108.6 		"/>
	</g>
	<g id="POLYLINE_5108_">
		<polygon class="st6" points="312.8,132 312.8,130.3 311.7,130.3 311.7,132 310,132 310,133.1 312.2,133.1 312.8,133.1 		"/>
	</g>
	<g id="POLYLINE_5107_">
		<polygon class="st6" points="312.8,3.5 312.2,3.5 310,3.5 310,4.7 311.7,4.7 311.7,6.4 312.8,6.4 312.8,4.7 		"/>
	</g>
	<g id="POLYLINE_5106_">
		<polygon class="st6" points="168.8,132 167.1,132 167.1,133.1 169.3,133.1 171.6,133.1 171.6,132 169.9,132 169.9,130.3 
			168.8,130.3 		"/>
	</g>
	<g id="POLYLINE_5105_">
		<polygon class="st6" points="192.6,132 190.9,132 190.9,133.1 193.2,133.1 195.4,133.1 195.4,132 193.7,132 193.7,130.3 
			192.6,130.3 		"/>
	</g>
	<g id="POLYLINE_5104_">
		<polygon class="st6" points="216.4,132 214.7,132 214.7,133.1 217,133.1 219.2,133.1 219.2,132 217.5,132 217.5,130.3 
			216.4,130.3 		"/>
	</g>
	<g id="POLYLINE_5103_">
		<polygon class="st6" points="240.2,132 238.5,132 238.5,133.1 240.8,133.1 243.1,133.1 243.1,132 241.4,132 241.4,130.3 
			240.2,130.3 		"/>
	</g>
	<g id="POLYLINE_5102_">
		<polygon class="st6" points="264,132 262.3,132 262.3,133.1 264.6,133.1 266.9,133.1 266.9,132 265.2,132 265.2,130.3 264,130.3 
					"/>
	</g>
	<g id="POLYLINE_5101_">
		<polygon class="st6" points="287.9,132 286.2,132 286.2,133.1 288.4,133.1 290.7,133.1 290.7,132 289,132 289,130.3 287.9,130.3 
					"/>
	</g>
	<g id="POLYLINE_5100_">
		<polygon class="st6" points="289,4.7 290.7,4.7 290.7,3.5 288.4,3.5 286.2,3.5 286.2,4.7 287.9,4.7 287.9,6.4 289,6.4 		"/>
	</g>
	<g id="POLYLINE_5099_">
		<polygon class="st6" points="265.2,4.7 266.9,4.7 266.9,3.5 264.6,3.5 262.3,3.5 262.3,4.7 264,4.7 264,6.4 265.2,6.4 		"/>
	</g>
	<g id="POLYLINE_5098_">
		<polygon class="st6" points="241.4,4.7 243.1,4.7 243.1,3.5 240.8,3.5 238.5,3.5 238.5,4.7 240.2,4.7 240.2,6.4 241.4,6.4 		"/>
	</g>
	<g id="POLYLINE_5097_">
		<polygon class="st6" points="217.5,4.7 219.2,4.7 219.2,3.5 217,3.5 214.7,3.5 214.7,4.7 216.4,4.7 216.4,6.4 217.5,6.4 		"/>
	</g>
	<g id="POLYLINE_5096_">
		<polygon class="st6" points="193.7,4.7 195.4,4.7 195.4,3.5 193.2,3.5 190.9,3.5 190.9,4.7 192.6,4.7 192.6,6.4 193.7,6.4 		"/>
	</g>
	<g id="POLYLINE_5095_">
		<polygon class="st6" points="169.9,4.7 171.6,4.7 171.6,3.5 169.3,3.5 167.1,3.5 167.1,4.7 168.8,4.7 168.8,6.4 169.9,6.4 		"/>
	</g>
	<g id="POLYLINE_5094_">
		<polygon class="st6" points="149,133.1 149,132 147.9,132 147.9,130.9 145.6,130.9 145.6,132 144.5,132 144.5,133.1 		"/>
	</g>
	<g id="POLYLINE_5093_">
		<polygon class="st6" points="124.7,133.1 124.7,132 123.6,132 123.6,130.9 121.3,130.9 121.3,132 120.2,132 120.2,133.1 		"/>
	</g>
	<g id="POLYLINE_5092_">
		<polygon class="st6" points="97,133.1 100.4,133.1 100.4,132 99.2,132 99.2,130.9 98.1,130.9 98.1,129.7 97,129.7 		"/>
	</g>
	<g id="POLYLINE_5091_">
		<polygon class="st6" points="50.5,133.1 50.5,129.7 49.4,129.7 49.4,130.9 48.3,130.9 48.3,132 47.1,132 47.1,133.1 		"/>
	</g>
	<g id="POLYLINE_5090_">
		<polygon class="st6" points="3.2,133.1 6.6,133.1 6.6,132 5.5,132 5.5,130.9 4.4,130.9 4.4,129.7 3.2,129.7 		"/>
	</g>
	<g id="POLYLINE_5089_">
		<rect x="25.7" y="107.5" class="st6" width="2.3" height="2.3"/>
	</g>
	<g id="POLYLINE_5088_">
		<rect x="121.3" y="107.5" class="st6" width="2.3" height="2.3"/>
	</g>
	<g id="POLYLINE_5087_">
		<rect x="145.6" y="107.5" class="st6" width="2.3" height="2.3"/>
	</g>
	<g id="POLYLINE_5086_">
		<rect x="25.7" y="81.8" class="st6" width="2.3" height="2.3"/>
	</g>
	<g id="POLYLINE_5085_">
		<rect x="121.3" y="81.8" class="st6" width="2.3" height="2.3"/>
	</g>
	<g id="POLYLINE_5084_">
		<rect x="145.6" y="81.8" class="st6" width="2.3" height="2.3"/>
	</g>
	<g id="POLYLINE_5083_">
		<rect x="25.7" y="55.7" class="st6" width="2.3" height="2.3"/>
	</g>
	<g id="POLYLINE_5082_">
		<rect x="121.3" y="55.7" class="st6" width="2.3" height="2.3"/>
	</g>
	<g id="POLYLINE_5081_">
		<rect x="145.6" y="55.7" class="st6" width="2.3" height="2.3"/>
	</g>
	<g id="POLYLINE_5080_">
		<rect x="145.6" y="29.6" class="st6" width="2.3" height="2.3"/>
	</g>
	<g id="POLYLINE_5079_">
		<rect x="121.3" y="29.6" class="st6" width="2.3" height="2.3"/>
	</g>
	<g id="POLYLINE_5078_">
		<rect x="97" y="29.6" class="st6" width="2.3" height="2.3"/>
	</g>
	<g id="POLYLINE_5077_">
		<rect x="72.6" y="29.6" class="st6" width="2.3" height="2.3"/>
	</g>
	<g id="POLYLINE_5076_">
		<rect x="48.3" y="29.6" class="st6" width="2.3" height="2.3"/>
	</g>
	<g id="POLYLINE_5075_">
		<rect x="25.7" y="29.6" class="st6" width="2.3" height="2.3"/>
	</g>
	<g id="POLYLINE_5074_">
		<polygon class="st6" points="144.5,3.5 144.5,4.7 145.6,4.7 145.6,5.8 147.9,5.8 147.9,4.7 149,4.7 149,3.5 		"/>
	</g>
	<g id="POLYLINE_5073_">
		<polygon class="st6" points="120.2,3.5 120.2,4.7 121.3,4.7 121.3,5.8 123.6,5.8 123.6,4.7 124.7,4.7 124.7,3.5 		"/>
	</g>
	<g id="POLYLINE_5072_">
		<polygon class="st6" points="95.8,3.5 95.8,4.7 97,4.7 97,5.8 99.2,5.8 99.2,4.7 100.4,4.7 100.4,3.5 		"/>
	</g>
	<g id="POLYLINE_5071_">
		<polygon class="st6" points="71.5,3.5 71.5,4.7 72.6,4.7 72.6,5.8 74.9,5.8 74.9,4.7 76,4.7 76,3.5 		"/>
	</g>
	<g id="POLYLINE_5070_">
		<polygon class="st6" points="47.1,3.5 47.1,4.7 48.3,4.7 48.3,5.8 50.5,5.8 50.5,4.7 51.7,4.7 51.7,3.5 		"/>
	</g>
	<g id="POLYLINE_5069_">
		<polygon class="st6" points="24.6,3.5 24.6,4.7 25.7,4.7 25.7,5.8 28,5.8 28,4.7 29.1,4.7 29.1,3.5 		"/>
	</g>
	<g id="POLYLINE_5068_">
		<polygon class="st6" points="3.2,3.5 3.2,6.9 4.4,6.9 4.4,5.8 5.5,5.8 5.5,4.7 6.6,4.7 6.6,3.5 		"/>
	</g>
	<g id="POLYLINE_5067_">
		<polygon class="st6" points="3.2,33 4.4,33 4.4,31.9 5.5,31.9 5.5,29.6 4.4,29.6 4.4,28.5 3.2,28.5 		"/>
	</g>
	<g id="POLYLINE_5066_">
		<polygon class="st6" points="3.2,59.1 4.4,59.1 4.4,58 5.5,58 5.5,55.7 4.4,55.7 4.4,54.6 3.2,54.6 		"/>
	</g>
	<g id="POLYLINE_5065_">
		<polygon class="st6" points="3.2,85.3 4.4,85.3 4.4,84.1 5.5,84.1 5.5,81.8 4.4,81.8 4.4,80.7 3.2,80.7 		"/>
	</g>
	<g id="POLYLINE_5064_">
		<polygon class="st6" points="3.2,110.9 4.4,110.9 4.4,109.8 5.5,109.8 5.5,107.5 4.4,107.5 4.4,106.4 3.2,106.4 		"/>
	</g>
	<g id="POLYLINE_5063_">
		<polygon class="st6" points="29.1,133.1 29.1,132 28,132 28,130.9 25.7,130.9 25.7,132 24.6,132 24.6,133.1 		"/>
	</g>
	<g id="POLYLINE_5062_">
		<polygon class="st6" points="50.5,106.4 49.4,106.4 49.4,107.5 48.3,107.5 48.3,109.8 49.4,109.8 49.4,110.9 50.5,110.9 		"/>
	</g>
	<g id="POLYLINE_5061_">
		<polygon class="st6" points="168.8,29.6 167.1,29.6 167.1,30.8 168.8,30.8 168.8,32.5 169.9,32.5 169.9,30.8 171.6,30.8 
			171.6,29.6 169.9,29.6 169.9,27.9 168.8,27.9 		"/>
	</g>
	<g id="POLYLINE_5060_">
		<polygon class="st6" points="192.6,29.6 190.9,29.6 190.9,30.8 192.6,30.8 192.6,32.5 193.7,32.5 193.7,30.8 195.4,30.8 
			195.4,29.6 193.7,29.6 193.7,27.9 192.6,27.9 		"/>
	</g>
	<g id="POLYLINE_5059_">
		<polygon class="st6" points="216.4,29.6 214.7,29.6 214.7,30.8 216.4,30.8 216.4,32.5 217.5,32.5 217.5,30.8 219.2,30.8 
			219.2,29.6 217.5,29.6 217.5,27.9 216.4,27.9 		"/>
	</g>
	<g id="POLYLINE_5058_">
		<polygon class="st6" points="240.2,29.6 238.5,29.6 238.5,30.8 240.2,30.8 240.2,32.5 241.4,32.5 241.4,30.8 243.1,30.8 
			243.1,29.6 241.4,29.6 241.4,27.9 240.2,27.9 		"/>
	</g>
	<g id="POLYLINE_5057_">
		<polygon class="st6" points="264,29.6 262.3,29.6 262.3,30.8 264,30.8 264,32.5 265.2,32.5 265.2,30.8 266.9,30.8 266.9,29.6 
			265.2,29.6 265.2,27.9 264,27.9 		"/>
	</g>
	<g id="POLYLINE_5056_">
		<polygon class="st6" points="287.9,29.6 286.2,29.6 286.2,30.8 287.9,30.8 287.9,32.5 289,32.5 289,30.8 290.7,30.8 290.7,29.6 
			289,29.6 289,27.9 287.9,27.9 		"/>
	</g>
	<g id="POLYLINE_5055_">
		<polygon class="st6" points="287.9,55.7 286.2,55.7 286.2,56.9 287.9,56.9 287.9,58.6 289,58.6 289,56.9 290.7,56.9 290.7,55.7 
			289,55.7 289,54 287.9,54 		"/>
	</g>
	<g id="POLYLINE_5054_">
		<polygon class="st6" points="264,55.7 262.3,55.7 262.3,56.9 264,56.9 264,58.6 265.2,58.6 265.2,56.9 266.9,56.9 266.9,55.7 
			265.2,55.7 265.2,54 264,54 		"/>
	</g>
	<g id="POLYLINE_5053_">
		<polygon class="st6" points="240.2,55.7 238.5,55.7 238.5,56.9 240.2,56.9 240.2,58.6 241.4,58.6 241.4,56.9 243.1,56.9 
			243.1,55.7 241.4,55.7 241.4,54 240.2,54 		"/>
	</g>
	<g id="POLYLINE_5052_">
		<polygon class="st6" points="216.4,55.7 214.7,55.7 214.7,56.9 216.4,56.9 216.4,58.6 217.5,58.6 217.5,56.9 219.2,56.9 
			219.2,55.7 217.5,55.7 217.5,54 216.4,54 		"/>
	</g>
	<g id="POLYLINE_5051_">
		<polygon class="st6" points="192.6,55.7 190.9,55.7 190.9,56.9 192.6,56.9 192.6,58.6 193.7,58.6 193.7,56.9 195.4,56.9 
			195.4,55.7 193.7,55.7 193.7,54 192.6,54 		"/>
	</g>
	<g id="POLYLINE_5050_">
		<polygon class="st6" points="168.8,55.7 167.1,55.7 167.1,56.9 168.8,56.9 168.8,58.6 169.9,58.6 169.9,56.9 171.6,56.9 
			171.6,55.7 169.9,55.7 169.9,54 168.8,54 		"/>
	</g>
	<g id="POLYLINE_5049_">
		<polygon class="st6" points="287.9,81.8 286.2,81.8 286.2,83 287.9,83 287.9,84.7 289,84.7 289,83 290.7,83 290.7,81.8 289,81.8 
			289,80.1 287.9,80.1 		"/>
	</g>
	<g id="POLYLINE_5048_">
		<polygon class="st6" points="264,81.8 262.3,81.8 262.3,83 264,83 264,84.7 265.2,84.7 265.2,83 266.9,83 266.9,81.8 265.2,81.8 
			265.2,80.1 264,80.1 		"/>
	</g>
	<g id="POLYLINE_5047_">
		<polygon class="st6" points="240.2,81.8 238.5,81.8 238.5,83 240.2,83 240.2,84.7 241.4,84.7 241.4,83 243.1,83 243.1,81.8 
			241.4,81.8 241.4,80.1 240.2,80.1 		"/>
	</g>
	<g id="POLYLINE_5046_">
		<polygon class="st6" points="216.4,81.8 214.7,81.8 214.7,83 216.4,83 216.4,84.7 217.5,84.7 217.5,83 219.2,83 219.2,81.8 
			217.5,81.8 217.5,80.1 216.4,80.1 		"/>
	</g>
	<g id="POLYLINE_5045_">
		<polygon class="st6" points="192.6,81.8 190.9,81.8 190.9,83 192.6,83 192.6,84.7 193.7,84.7 193.7,83 195.4,83 195.4,81.8 
			193.7,81.8 193.7,80.1 192.6,80.1 		"/>
	</g>
	<g id="POLYLINE_5044_">
		<polygon class="st6" points="168.8,81.8 167.1,81.8 167.1,83 168.8,83 168.8,84.7 169.9,84.7 169.9,83 171.6,83 171.6,81.8 
			169.9,81.8 169.9,80.1 168.8,80.1 		"/>
	</g>
	<g id="POLYLINE_5043_">
		<polygon class="st6" points="287.9,107.5 286.2,107.5 286.2,108.6 287.9,108.6 287.9,110.3 289,110.3 289,108.6 290.7,108.6 
			290.7,107.5 289,107.5 289,105.8 287.9,105.8 		"/>
	</g>
	<g id="POLYLINE_5042_">
		<polygon class="st6" points="264,107.5 262.3,107.5 262.3,108.6 264,108.6 264,110.3 265.2,110.3 265.2,108.6 266.9,108.6 
			266.9,107.5 265.2,107.5 265.2,105.8 264,105.8 		"/>
	</g>
	<g id="POLYLINE_5041_">
		<polygon class="st6" points="240.2,107.5 238.5,107.5 238.5,108.6 240.2,108.6 240.2,110.3 241.4,110.3 241.4,108.6 243.1,108.6 
			243.1,107.5 241.4,107.5 241.4,105.8 240.2,105.8 		"/>
	</g>
	<g id="POLYLINE_5040_">
		<polygon class="st6" points="216.4,107.5 214.7,107.5 214.7,108.6 216.4,108.6 216.4,110.3 217.5,110.3 217.5,108.6 219.2,108.6 
			219.2,107.5 217.5,107.5 217.5,105.8 216.4,105.8 		"/>
	</g>
	<g id="POLYLINE_5039_">
		<polygon class="st6" points="192.6,107.5 190.9,107.5 190.9,108.6 192.6,108.6 192.6,110.3 193.7,110.3 193.7,108.6 195.4,108.6 
			195.4,107.5 193.7,107.5 193.7,105.8 192.6,105.8 		"/>
	</g>
	<g id="POLYLINE_5038_">
		<polygon class="st6" points="168.8,107.5 167.1,107.5 167.1,108.6 168.8,108.6 168.8,110.3 169.9,110.3 169.9,108.6 171.6,108.6 
			171.6,107.5 169.9,107.5 169.9,105.8 168.8,105.8 		"/>
	</g>
	<g id="POLYLINE_5037_">
		<polygon class="st6" points="97,110.9 98.1,110.9 98.1,109.8 99.2,109.8 99.2,107.5 98.1,107.5 98.1,106.4 97,106.4 		"/>
	</g>
</g>
<g id="PLAN_x24_STRUCTURE_1.2">
</g>
<g id="PLAN_x24_STRUCTURE_1.1">
</g>
</svg>
