<?xml version="1.0" encoding="utf-8"?>
<!-- Generator: Adobe Illustrator 22.0.1, SVG Export Plug-In . SVG Version: 6.00 Build 0)  -->
<svg version="1.1" id="Calque_1" xmlns="http://www.w3.org/2000/svg" xmlns:xlink="http://www.w3.org/1999/xlink" x="0px" y="0px"
	 viewBox="0 0 190.1 555.2" style="enable-background:new 0 0 190.1 555.2;" xml:space="preserve">
<style type="text/css">
	.st0{display:none;}
	.st1{display:inline;}
	.st2{fill:none;}
	.st3{fill:none;stroke:#000000;stroke-width:0.2;stroke-linecap:square;stroke-miterlimit:10;stroke-dasharray:1,1;}
	.st4{fill:none;stroke:#000000;stroke-width:0.1;stroke-linecap:square;stroke-miterlimit:10;}
	.st5{fill:none;stroke:#000000;stroke-width:0.16;stroke-linecap:square;stroke-miterlimit:10;}
	.st6{fill:none;stroke:#000000;stroke-width:0.28;stroke-linecap:square;stroke-miterlimit:10;}
	.st7{fill:none;stroke:#000000;stroke-width:0.36;stroke-linecap:square;stroke-miterlimit:10;}
	.st8{fill:none;stroke:#000000;stroke-width:0.64;stroke-linecap:square;stroke-miterlimit:10;}
	.st9{fill:none;stroke:#000000;stroke-width:0.82;stroke-linecap:square;stroke-miterlimit:10;}
</style>
<g id="Calque_1_1_">
</g>
<g id="INFOS_x24_A4" class="st0">
	<g id="POLYLINE_4474_" class="st1">
		<rect x="-199.7" y="-130.7" class="st2" width="595.3" height="841.9"/>
	</g>
</g>
<g id="PLAN_x24_FOND">
</g>
<g id="PLAN_x24_POINTILLE">
	<g id="POLYLINE_6647_">
		<line class="st3" x1="107.4" y1="223.3" x2="117.4" y2="218.1"/>
	</g>
	<g id="POLYLINE_6646_">
		<line class="st3" x1="111.6" y1="55.5" x2="106.4" y2="43.9"/>
	</g>
	<g id="POLYLINE_6645_">
		<line class="st3" x1="110.2" y1="55.5" x2="105.2" y2="43.9"/>
	</g>
	<g id="POLYLINE_6644_">
		<line class="st3" x1="107.4" y1="221.9" x2="117.4" y2="216.7"/>
	</g>
</g>
<g id="PLAN_x24_VITRAGE">
	<g id="POLYLINE_5577_">
		<rect x="141.6" y="58.7" class="st4" width="0.6" height="12.4"/>
	</g>
	<g id="POLYLINE_5576_">
		<line class="st4" x1="142.2" y1="72.5" x2="172.6" y2="72.5"/>
	</g>
	<g id="ARC_435_">
		<path class="st4" d="M174.8,73.1c-0.6-0.4-1.4-0.6-2.2-0.6"/>
	</g>
	<g id="ARC_434_">
		<path class="st4" d="M176.4,74.7c-0.4-0.6-1-1.2-1.6-1.6"/>
	</g>
	<g id="ARC_433_">
		<path class="st4" d="M177,76.9c0-0.8-0.2-1.4-0.6-2.2"/>
	</g>
	<g id="POLYLINE_5575_">
		<line class="st4" x1="177" y1="76.9" x2="177" y2="523.1"/>
	</g>
	<g id="ARC_432_">
		<path class="st4" d="M176.4,525.3c0.4-0.6,0.6-1.4,0.6-2.2"/>
	</g>
	<g id="ARC_431_">
		<path class="st4" d="M174.8,526.9c0.6-0.4,1.2-1,1.6-1.6"/>
	</g>
	<g id="ARC_430_">
		<path class="st4" d="M172.6,527.5c0.8,0,1.4-0.2,2.2-0.6"/>
	</g>
	<g id="POLYLINE_5468_">
		<line class="st4" x1="172.6" y1="527.5" x2="16.2" y2="527.5"/>
	</g>
	<g id="ARC_429_">
		<path class="st4" d="M14,526.9c0.6,0.4,1.4,0.6,2.2,0.6"/>
	</g>
	<g id="ARC_428_">
		<path class="st4" d="M12.4,525.3c0.4,0.6,1,1.2,1.6,1.6"/>
	</g>
	<g id="ARC_427_">
		<path class="st4" d="M11.8,523.1c0,0.8,0.2,1.4,0.6,2.2"/>
	</g>
	<g id="POLYLINE_5467_">
		<line class="st4" x1="11.8" y1="523.1" x2="11.8" y2="76.9"/>
	</g>
	<g id="ARC_426_">
		<path class="st4" d="M12.4,74.7c-0.4,0.6-0.6,1.4-0.6,2.2"/>
	</g>
	<g id="ARC_425_">
		<path class="st4" d="M14,73.1c-0.6,0.4-1.2,1-1.6,1.6"/>
	</g>
	<g id="ARC_424_">
		<path class="st4" d="M16.2,72.5c-0.8,0-1.4,0.2-2.2,0.6"/>
	</g>
	<g id="POLYLINE_5466_">
		<line class="st4" x1="16.2" y1="72.5" x2="43.6" y2="72.5"/>
	</g>
	<g id="POLYLINE_5465_">
		<line class="st4" x1="142.2" y1="73.1" x2="172.6" y2="73.1"/>
	</g>
	<g id="ARC_423_">
		<path class="st4" d="M176.4,76.9c0-2-1.6-3.8-3.8-3.8"/>
	</g>
	<g id="POLYLINE_5464_">
		<line class="st4" x1="176.4" y1="76.9" x2="176.4" y2="523.1"/>
	</g>
	<g id="ARC_422_">
		<path class="st4" d="M172.6,526.9c2,0,3.8-1.6,3.8-3.8"/>
	</g>
	<g id="POLYLINE_5463_">
		<line class="st4" x1="172.6" y1="526.9" x2="16.2" y2="526.9"/>
	</g>
	<g id="ARC_421_">
		<path class="st4" d="M12.4,523.1c0,2,1.6,3.8,3.8,3.8"/>
	</g>
	<g id="POLYLINE_5340_">
		<line class="st4" x1="12.4" y1="523.1" x2="12.4" y2="76.9"/>
	</g>
	<g id="ARC_420_">
		<path class="st4" d="M16.2,73.1c-2,0-3.8,1.6-3.8,3.8"/>
	</g>
	<g id="POLYLINE_5339_">
		<line class="st4" x1="16.2" y1="73.1" x2="43.6" y2="73.1"/>
	</g>
</g>
<g id="PLAN_x24_MOBILIER">
	<g id="SPLINE_286_">
		<path class="st5" d="M148.2,155.7c0.4,0.2,1,0.2,1.4,0.2s0.8,0,1,0c0.4,0,1,0,1.4-0.2c0.2,0,0.4-0.2,0.6-0.4
			c0.2-0.4,0.4-0.8,0.4-1.2c0-0.2,0-0.4,0-0.6c0-0.4-0.2-0.6-0.4-0.8c-0.4-0.4-0.8-0.6-1.4-0.6c-0.6,0-1-0.2-1.6,0
			c-0.4,0-0.8,0-1,0.2c-0.2,0-0.4,0-0.6,0.2"/>
	</g>
	<g id="POLYLINE_5033_">
		<rect x="145.2" y="150.9" class="st5" width="3" height="6"/>
	</g>
	<g id="SPLINE_285_">
		<path class="st5" d="M148.2,146.1c0.4,0.2,1,0.2,1.4,0.2s0.8,0,1,0c0.4,0,1,0,1.4-0.2c0.2,0,0.4-0.2,0.6-0.4
			c0.2-0.4,0.4-0.8,0.4-1.2c0-0.2,0-0.4,0-0.6c0-0.4-0.2-0.6-0.4-0.8c-0.4-0.4-0.8-0.6-1.4-0.6c-0.6,0-1-0.2-1.6,0
			c-0.4,0-0.8,0-1,0.2c-0.2,0-0.4,0-0.6,0.2"/>
	</g>
	<g id="POLYLINE_5032_">
		<rect x="145.2" y="141.3" class="st5" width="3" height="6"/>
	</g>
	<g id="SPLINE_284_">
		<path class="st5" d="M148.2,137.1c0.4,0.2,1,0.2,1.4,0.2s0.8,0,1,0c0.4,0,1,0,1.4-0.2c0.2,0,0.4-0.2,0.6-0.4
			c0.2-0.4,0.4-0.8,0.4-1.2c0-0.2,0-0.4,0-0.6c0-0.4-0.2-0.6-0.4-0.8c-0.4-0.4-0.8-0.6-1.4-0.6c-0.6,0-1-0.2-1.6,0
			c-0.4,0-0.8,0-1,0.2c-0.2,0-0.4,0-0.6,0.2"/>
	</g>
	<g id="POLYLINE_5031_">
		<rect x="145.2" y="132.3" class="st5" width="3" height="6"/>
	</g>
	<g id="SPLINE_283_">
		<path class="st5" d="M148.2,120.9c0.4-0.2,1-0.2,1.4-0.2s0.8,0,1,0c0.4,0,1,0,1.4,0.2c0.2,0,0.4,0.2,0.6,0.4
			c0.2,0.4,0.4,0.8,0.4,1.2c0,0.2,0,0.4,0,0.6c0,0.4-0.2,0.6-0.4,0.8c-0.4,0.4-0.8,0.6-1.4,0.6c-0.6,0-1,0.2-1.6,0
			c-0.4,0-0.8,0-1-0.2c-0.2,0-0.4,0-0.6-0.2"/>
	</g>
	<g id="POLYLINE_5030_">
		<rect x="145.2" y="119.7" class="st5" width="3" height="6"/>
	</g>
	<g id="SPLINE_282_">
		<path class="st5" d="M148.2,111.9c0.4-0.2,1-0.2,1.4-0.2s0.8,0,1,0c0.4,0,1,0,1.4,0.2c0.2,0,0.4,0.2,0.6,0.4
			c0.2,0.4,0.4,0.8,0.4,1.2c0,0.2,0,0.4,0,0.6c0,0.4-0.2,0.6-0.4,0.8c-0.4,0.4-0.8,0.6-1.4,0.6c-0.6,0-1,0.2-1.6,0
			c-0.4,0-0.8,0-1-0.2c-0.2,0-0.4,0-0.6-0.2"/>
	</g>
	<g id="POLYLINE_5029_">
		<rect x="145.2" y="110.7" class="st5" width="3" height="6"/>
	</g>
	<g id="SPLINE_281_">
		<path class="st5" d="M148.2,102.3c0.4-0.2,1-0.2,1.4-0.2s0.8,0,1,0c0.4,0,1,0,1.4,0.2c0.2,0,0.4,0.2,0.6,0.4
			c0.2,0.4,0.4,0.8,0.4,1.2c0,0.2,0,0.4,0,0.6c0,0.4-0.2,0.6-0.4,0.8c-0.4,0.4-0.8,0.6-1.4,0.6c-0.6,0-1,0.2-1.6,0
			c-0.4,0-0.8,0-1-0.2c-0.2,0-0.4,0-0.6-0.2"/>
	</g>
	<g id="POLYLINE_5028_">
		<rect x="145.2" y="101.3" class="st5" width="3" height="6"/>
	</g>
	<g id="POLYLINE_5027_">
		<rect x="145.2" y="162.3" class="st5" width="4.4" height="6.2"/>
	</g>
	<g id="CIRCLE_390_">
		<path class="st5" d="M146.2,165.5c0-0.2,0.2-0.6,0.6-0.6s0.6,0.2,0.6,0.6s-0.4,0.4-0.6,0.4S146.2,165.7,146.2,165.5L146.2,165.5z"
			/>
	</g>
	<g id="CIRCLE_389_">
		<path class="st5" d="M146.2,95.3c0-0.2,0.2-0.6,0.6-0.6s0.6,0.2,0.6,0.6s-0.4,0.6-0.6,0.6C146.4,95.9,146.2,95.7,146.2,95.3
			L146.2,95.3z"/>
	</g>
	<g id="POLYLINE_5026_">
		<rect x="145.2" y="92.3" class="st5" width="4.4" height="6.2"/>
	</g>
</g>
<g id="PLAN_x24_DETAIL">
	<g id="POLYLINE_5632_">
		<polyline class="st5" points="62.4,34.7 53.4,35.7 49,55.5 		"/>
	</g>
	<g id="POLYLINE_5631_">
		<line class="st5" x1="80.4" y1="32.5" x2="65" y2="34.3"/>
	</g>
	<g id="POLYLINE_5630_">
		<line class="st5" x1="59.4" y1="208.1" x2="51.4" y2="208.1"/>
	</g>
	<g id="ARC_458_">
		<path class="st5" d="M51.4,208.1c0-4.4,3.6-8,8-8"/>
	</g>
	<g id="POLYLINE_5629_">
		<line class="st5" x1="59.4" y1="212.7" x2="51.4" y2="212.7"/>
	</g>
	<g id="ARC_457_">
		<path class="st5" d="M51.4,212.7c0,4.4,3.6,8,8,8"/>
	</g>
	<g id="POLYLINE_5628_">
		<line class="st5" x1="59.4" y1="293.9" x2="51.4" y2="293.9"/>
	</g>
	<g id="ARC_456_">
		<path class="st5" d="M51.4,293.9c0,4.4,3.6,8,8,8"/>
	</g>
	<g id="POLYLINE_5627_">
		<line class="st5" x1="59.4" y1="289.5" x2="51.4" y2="289.5"/>
	</g>
	<g id="ARC_455_">
		<path class="st5" d="M51.4,289.5c0-4.4,3.6-8,8-8"/>
	</g>
	<g id="POLYLINE_5626_">
		<line class="st5" x1="59.4" y1="375.3" x2="51.4" y2="375.3"/>
	</g>
	<g id="ARC_454_">
		<path class="st5" d="M51.4,375.3c0,4.4,3.6,8,8,8"/>
	</g>
	<g id="POLYLINE_5625_">
		<line class="st5" x1="59.4" y1="370.7" x2="51.4" y2="370.7"/>
	</g>
	<g id="ARC_453_">
		<path class="st5" d="M51.4,370.7c0-4.4,3.6-8,8-8"/>
	</g>
	<g id="POLYLINE_5624_">
		<line class="st5" x1="144.8" y1="277.5" x2="152.8" y2="277.5"/>
	</g>
	<g id="ARC_452_">
		<path class="st5" d="M152.8,277.5c0-4.4-3.6-8-8-8"/>
	</g>
	<g id="POLYLINE_5623_">
		<line class="st5" x1="144.8" y1="304.5" x2="152.8" y2="304.5"/>
	</g>
	<g id="ARC_451_">
		<path class="st5" d="M152.8,304.5c0-4.4-3.6-8-8-8"/>
	</g>
	<g id="POLYLINE_5622_">
		<line class="st5" x1="144.8" y1="330.7" x2="152.8" y2="330.7"/>
	</g>
	<g id="ARC_450_">
		<path class="st5" d="M152.8,330.7c0-4.4-3.6-8-8-8"/>
	</g>
	<g id="POLYLINE_5621_">
		<line class="st5" x1="129.6" y1="253.1" x2="129.6" y2="242.9"/>
	</g>
	<g id="ARC_449_">
		<path class="st5" d="M129.6,242.9c5.6,0,10.2,4.6,10.2,10.2"/>
	</g>
	<g id="POLYLINE_5620_">
		<line class="st5" x1="106.2" y1="247.9" x2="116.4" y2="247.9"/>
	</g>
	<g id="ARC_448_">
		<path class="st5" d="M116.4,247.9c0-5.6-4.6-10.2-10.2-10.2"/>
	</g>
	<g id="POLYLINE_5619_">
		<line class="st5" x1="114.8" y1="160.3" x2="114.8" y2="150.1"/>
	</g>
	<g id="POLYLINE_5618_">
		<line class="st5" x1="111.4" y1="150.1" x2="111.4" y2="160.3"/>
	</g>
	<g id="POLYLINE_5617_">
		<rect x="111.4" y="125.9" class="st5" width="3.4" height="10.2"/>
	</g>
	<g id="POLYLINE_5616_">
		<rect x="111.4" y="102.1" class="st5" width="3.4" height="10.2"/>
	</g>
	<g id="POLYLINE_5615_">
		<rect x="81.8" y="125.9" class="st5" width="3.4" height="10.2"/>
	</g>
	<g id="POLYLINE_5614_">
		<rect x="81.8" y="150.1" class="st5" width="3.4" height="10.2"/>
	</g>
	<g id="POLYLINE_5613_">
		<line class="st5" x1="78.6" y1="145.1" x2="64.6" y2="163.5"/>
	</g>
	<g id="POLYLINE_5612_">
		<line class="st5" x1="64.6" y1="145.1" x2="78.6" y2="163.5"/>
	</g>
	<g id="POLYLINE_5611_">
		<rect x="64.6" y="145.1" class="st5" width="14" height="18.4"/>
	</g>
	<g id="POLYLINE_5610_">
		<line class="st5" x1="78.6" y1="141.1" x2="64.6" y2="122.7"/>
	</g>
	<g id="POLYLINE_5609_">
		<line class="st5" x1="64.6" y1="141.1" x2="78.6" y2="122.7"/>
	</g>
	<g id="POLYLINE_5608_">
		<rect x="64.6" y="122.7" class="st5" width="14" height="18.4"/>
	</g>
	<g id="POLYLINE_5607_">
		<line class="st5" x1="131.2" y1="141.1" x2="117.2" y2="122.7"/>
	</g>
	<g id="POLYLINE_5606_">
		<line class="st5" x1="117.2" y1="141.1" x2="131.2" y2="122.7"/>
	</g>
	<g id="POLYLINE_5605_">
		<rect x="117.2" y="122.7" class="st5" width="14" height="18.4"/>
	</g>
	<g id="POLYLINE_5604_">
		<line class="st5" x1="131.2" y1="145.1" x2="117.2" y2="163.5"/>
	</g>
	<g id="POLYLINE_5603_">
		<line class="st5" x1="117.2" y1="145.1" x2="131.2" y2="163.5"/>
	</g>
	<g id="POLYLINE_5602_">
		<rect x="117.2" y="145.1" class="st5" width="14" height="18.4"/>
	</g>
	<g id="POLYLINE_5601_">
		<line class="st5" x1="131.2" y1="99.9" x2="117.2" y2="118.3"/>
	</g>
	<g id="POLYLINE_5600_">
		<line class="st5" x1="117.2" y1="99.9" x2="131.2" y2="118.3"/>
	</g>
	<g id="POLYLINE_5599_">
		<rect x="117.2" y="99.9" class="st5" width="14" height="18.4"/>
	</g>
	<g id="POLYLINE_5598_">
		<line class="st5" x1="49.2" y1="104.3" x2="49.2" y2="137.1"/>
	</g>
	<g id="POLYLINE_5597_">
		<line class="st5" x1="47" y1="137.1" x2="47" y2="104.3"/>
	</g>
	<g id="POLYLINE_5596_">
		<line class="st5" x1="25" y1="144.3" x2="25" y2="153.3"/>
	</g>
	<g id="ARC_447_">
		<path class="st5" d="M25,153.3c-5,0-9-4-9-9"/>
	</g>
	<g id="POLYLINE_5595_">
		<line class="st5" x1="47" y1="152.9" x2="47" y2="160.7"/>
	</g>
	<g id="POLYLINE_5594_">
		<line class="st5" x1="47" y1="162.9" x2="47" y2="170.5"/>
	</g>
	<g id="POLYLINE_5593_">
		<line class="st5" x1="49" y1="75.1" x2="49" y2="65.9"/>
	</g>
	<g id="ARC_446_">
		<path class="st5" d="M49,65.9c5,0,9,4,9,9"/>
	</g>
	<g id="POLYLINE_5592_">
		<line class="st5" x1="138" y1="71.1" x2="138" y2="58.7"/>
	</g>
	<g id="POLYLINE_5591_">
		<line class="st5" x1="119.6" y1="73.9" x2="71.8" y2="57.7"/>
	</g>
	<g id="POLYLINE_5590_">
		<line class="st5" x1="71.8" y1="73.9" x2="119.6" y2="57.7"/>
	</g>
	<g id="POLYLINE_5589_">
		<line class="st5" x1="121.8" y1="73.7" x2="121.8" y2="65.5"/>
	</g>
	<g id="ARC_445_">
		<path class="st5" d="M121.8,65.5c4.4,0,8.2,3.6,8.2,8.2"/>
	</g>
	<g id="POLYLINE_5588_">
		<line class="st5" x1="138" y1="73.7" x2="138" y2="65.5"/>
	</g>
	<g id="ARC_444_">
		<path class="st5" d="M138,65.5c-4.4,0-8.2,3.6-8.2,8.2"/>
	</g>
	<g id="LINE_714_">
		<line class="st5" x1="127.2" y1="215.5" x2="107.4" y2="215.5"/>
	</g>
	<g id="LINE_713_">
		<line class="st5" x1="127.2" y1="230.9" x2="107.4" y2="230.9"/>
	</g>
	<g id="LINE_712_">
		<line class="st5" x1="127.2" y1="210.3" x2="107.4" y2="210.3"/>
	</g>
	<g id="LINE_711_">
		<line class="st5" x1="127.2" y1="205.3" x2="107.4" y2="205.3"/>
	</g>
	<g id="LINE_710_">
		<line class="st5" x1="117.4" y1="205.3" x2="117.4" y2="230.9"/>
	</g>
	<g id="POLYLINE_5587_">
		<line class="st5" x1="161.2" y1="150.1" x2="154.4" y2="150.1"/>
	</g>
	<g id="ARC_443_">
		<path class="st5" d="M154.4,150.1c0,3.8,3,6.8,6.8,6.8"/>
	</g>
	<g id="POLYLINE_5586_">
		<line class="st5" x1="161.4" y1="147.3" x2="154.6" y2="147.3"/>
	</g>
	<g id="ARC_442_">
		<path class="st5" d="M154.6,147.3c0-3.8,3-6.8,6.8-6.8"/>
	</g>
	<g id="POLYLINE_5585_">
		<line class="st5" x1="161.4" y1="131.1" x2="154.6" y2="131.1"/>
	</g>
	<g id="ARC_441_">
		<path class="st5" d="M154.6,131.1c0,3.8,3,6.8,6.8,6.8"/>
	</g>
	<g id="POLYLINE_5584_">
		<line class="st5" x1="161.4" y1="127.1" x2="154.6" y2="127.1"/>
	</g>
	<g id="ARC_440_">
		<path class="st5" d="M154.6,127.1c0-3.8,3-6.8,6.8-6.8"/>
	</g>
	<g id="POLYLINE_5583_">
		<line class="st5" x1="161.4" y1="110.7" x2="154.6" y2="110.7"/>
	</g>
	<g id="ARC_439_">
		<path class="st5" d="M154.6,110.7c0,3.8,3,6.8,6.8,6.8"/>
	</g>
	<g id="POLYLINE_5582_">
		<line class="st5" x1="161.2" y1="107.9" x2="154.4" y2="107.9"/>
	</g>
	<g id="ARC_438_">
		<path class="st5" d="M154.4,107.9c0-3.8,3-6.8,6.8-6.8"/>
	</g>
	<g id="POLYLINE_5581_">
		<line class="st5" x1="167.2" y1="171.7" x2="167.2" y2="180.7"/>
	</g>
	<g id="ARC_437_">
		<path class="st5" d="M167.2,180.7c-5,0-9-4-9-9"/>
	</g>
	<g id="POLYLINE_5580_">
		<line class="st5" x1="167.2" y1="89.5" x2="167.2" y2="80.5"/>
	</g>
	<g id="ARC_436_">
		<path class="st5" d="M167.2,80.5c-5,0-9,4-9,9"/>
	</g>
	<g id="LINE_709_">
		<line class="st5" x1="127.2" y1="225.7" x2="107.4" y2="225.7"/>
	</g>
	<g id="LINE_708_">
		<line class="st5" x1="127.2" y1="223.3" x2="107.4" y2="223.3"/>
	</g>
	<g id="LINE_707_">
		<line class="st5" x1="127.2" y1="228.3" x2="107.4" y2="228.3"/>
	</g>
	<g id="LINE_706_">
		<line class="st5" x1="127.2" y1="212.9" x2="107.4" y2="212.9"/>
	</g>
	<g id="LINE_705_">
		<line class="st5" x1="127.2" y1="207.9" x2="107.4" y2="207.9"/>
	</g>
	<g id="POLYLINE_5579_">
		<polyline class="st5" points="43.6,76.1 15.4,76.1 15.4,523.9 173.4,523.9 173.4,76.1 142.2,76.1 		"/>
	</g>
	<g id="LINE_704_">
		<line class="st5" x1="93.6" y1="43.9" x2="119.4" y2="43.9"/>
	</g>
	<g id="LINE_703_">
		<line class="st5" x1="104" y1="32.5" x2="104" y2="55.5"/>
	</g>
	<g id="LINE_702_">
		<line class="st5" x1="119.4" y1="32.5" x2="119.4" y2="55.5"/>
	</g>
	<g id="LINE_701_">
		<line class="st5" x1="98.8" y1="32.5" x2="98.8" y2="55.5"/>
	</g>
	<g id="LINE_700_">
		<line class="st5" x1="93.6" y1="32.5" x2="93.6" y2="55.5"/>
	</g>
	<g id="LINE_699_">
		<line class="st5" x1="114.2" y1="32.5" x2="114.2" y2="55.5"/>
	</g>
	<g id="LINE_698_">
		<line class="st5" x1="111.6" y1="32.5" x2="111.6" y2="55.5"/>
	</g>
	<g id="LINE_697_">
		<line class="st5" x1="116.8" y1="32.5" x2="116.8" y2="55.5"/>
	</g>
	<g id="LINE_696_">
		<line class="st5" x1="101.4" y1="32.5" x2="101.4" y2="55.5"/>
	</g>
	<g id="LINE_695_">
		<line class="st5" x1="96.2" y1="32.5" x2="96.2" y2="55.5"/>
	</g>
	<g id="LINE_694_">
		<line class="st5" x1="127.2" y1="220.7" x2="117.4" y2="220.7"/>
	</g>
	<g id="LINE_693_">
		<line class="st5" x1="127.2" y1="218.1" x2="117.4" y2="218.1"/>
	</g>
	<g id="LINE_692_">
		<line class="st5" x1="112.4" y1="220.7" x2="117.4" y2="220.7"/>
	</g>
	<g id="LINE_691_">
		<line class="st5" x1="106.4" y1="32.5" x2="106.4" y2="43.9"/>
	</g>
	<g id="LINE_690_">
		<line class="st5" x1="106.4" y1="47.1" x2="106.4" y2="55.5"/>
	</g>
	<g id="LINE_689_">
		<line class="st5" x1="109" y1="32.5" x2="109" y2="49.7"/>
	</g>
	<g id="LINE_688_">
		<line class="st5" x1="109" y1="52.7" x2="109" y2="55.5"/>
	</g>
	<g id="POLYLINE_5578_">
		<polyline class="st5" points="107.4,218.1 112.4,218.1 114.8,218.1 		"/>
	</g>
	<g id="LINE_687_">
		<line class="st5" x1="109.8" y1="220.7" x2="107.4" y2="220.7"/>
	</g>
</g>
<g id="PLAN_x24_CLOISON_TRANSLUCIDE">
</g>
<g id="PLAN_x24_CLOISON_1.3">
	<g id="POLYLINE_5338_">
		<line class="st6" x1="161.6" y1="107.9" x2="161.2" y2="107.9"/>
	</g>
	<g id="POLYLINE_5337_">
		<line class="st6" x1="161.2" y1="107.9" x2="161.2" y2="109.1"/>
	</g>
	<g id="POLYLINE_5336_">
		<polyline class="st6" points="161.2,109.1 145.2,109.1 145.2,109.7 161.2,109.7 		"/>
	</g>
	<g id="POLYLINE_5335_">
		<line class="st6" x1="161.2" y1="109.7" x2="161.2" y2="110.7"/>
	</g>
	<g id="POLYLINE_5334_">
		<line class="st6" x1="161.2" y1="110.7" x2="161.6" y2="110.7"/>
	</g>
	<g id="POLYLINE_5333_">
		<line class="st6" x1="161.6" y1="110.7" x2="161.6" y2="107.9"/>
	</g>
	<g id="LINE_680_">
		<line class="st6" x1="161.2" y1="101.1" x2="161.6" y2="101.1"/>
	</g>
	<g id="POLYLINE_5332_">
		<polyline class="st6" points="161.6,101.1 161.6,99.7 145.2,99.7 145.2,100.3 161.2,100.3 161.2,101.1 		"/>
	</g>
	<g id="POLYLINE_5331_">
		<line class="st6" x1="161.6" y1="117.5" x2="161.2" y2="117.5"/>
	</g>
	<g id="POLYLINE_5330_">
		<line class="st6" x1="161.2" y1="117.5" x2="161.2" y2="118.5"/>
	</g>
	<g id="POLYLINE_5329_">
		<polyline class="st6" points="161.2,118.5 145.2,118.5 145.2,119.1 161.2,119.1 		"/>
	</g>
	<g id="POLYLINE_5328_">
		<line class="st6" x1="161.2" y1="119.1" x2="161.2" y2="120.3"/>
	</g>
	<g id="POLYLINE_5327_">
		<line class="st6" x1="161.2" y1="120.3" x2="161.6" y2="120.3"/>
	</g>
	<g id="POLYLINE_5326_">
		<line class="st6" x1="161.6" y1="120.3" x2="161.6" y2="117.5"/>
	</g>
	<g id="POLYLINE_5325_">
		<line class="st6" x1="161.2" y1="138.9" x2="161.2" y2="137.9"/>
	</g>
	<g id="POLYLINE_5324_">
		<line class="st6" x1="161.2" y1="137.9" x2="161.6" y2="137.9"/>
	</g>
	<g id="POLYLINE_5323_">
		<line class="st6" x1="161.6" y1="137.9" x2="161.6" y2="140.5"/>
	</g>
	<g id="POLYLINE_5322_">
		<line class="st6" x1="161.6" y1="140.5" x2="161.2" y2="140.5"/>
	</g>
	<g id="POLYLINE_5321_">
		<line class="st6" x1="161.2" y1="140.5" x2="161.2" y2="139.5"/>
	</g>
	<g id="POLYLINE_5320_">
		<polyline class="st6" points="161.2,139.5 145.2,139.5 145.2,138.9 161.2,138.9 		"/>
	</g>
	<g id="POLYLINE_5319_">
		<polyline class="st6" points="161.6,156.9 161.6,158.3 145.2,158.3 145.2,157.7 161.2,157.7 161.2,156.9 		"/>
	</g>
	<g id="LINE_679_">
		<line class="st6" x1="161.2" y1="156.9" x2="161.6" y2="156.9"/>
	</g>
	<g id="POLYLINE_5318_">
		<line class="st6" x1="161.2" y1="148.5" x2="161.2" y2="147.3"/>
	</g>
	<g id="POLYLINE_5317_">
		<line class="st6" x1="161.2" y1="147.3" x2="161.6" y2="147.3"/>
	</g>
	<g id="POLYLINE_5316_">
		<line class="st6" x1="161.6" y1="147.3" x2="161.6" y2="150.1"/>
	</g>
	<g id="POLYLINE_5315_">
		<line class="st6" x1="161.6" y1="150.1" x2="161.2" y2="150.1"/>
	</g>
	<g id="POLYLINE_5314_">
		<line class="st6" x1="161.2" y1="150.1" x2="161.2" y2="148.9"/>
	</g>
	<g id="POLYLINE_5313_">
		<polyline class="st6" points="161.2,148.9 145.2,148.9 145.2,148.5 161.2,148.5 		"/>
	</g>
	<g id="POLYLINE_5312_">
		<rect x="161.2" y="130.1" class="st6" width="0.6" height="0.8"/>
	</g>
	<g id="POLYLINE_5311_">
		<rect x="161.2" y="127.1" class="st6" width="0.6" height="0.8"/>
	</g>
</g>
<g id="PLAN_x24_CLOISON_1.2">
	<g id="POLYLINE_6584_">
		<line class="st7" x1="148.2" y1="304.5" x2="144.2" y2="304.5"/>
	</g>
	<g id="POLYLINE_6583_">
		<line class="st7" x1="144.2" y1="304.5" x2="144.2" y2="322.7"/>
	</g>
	<g id="POLYLINE_6582_">
		<line class="st7" x1="144.2" y1="322.7" x2="145.4" y2="322.7"/>
	</g>
	<g id="POLYLINE_6581_">
		<line class="st7" x1="145.4" y1="322.7" x2="145.4" y2="305.9"/>
	</g>
	<g id="POLYLINE_6580_">
		<polyline class="st7" points="145.4,305.9 173.4,305.9 173.4,304.5 145,304.5 		"/>
	</g>
	<g id="POLYLINE_6579_">
		<line class="st7" x1="145.4" y1="330.7" x2="144.2" y2="330.7"/>
	</g>
	<g id="POLYLINE_6578_">
		<polyline class="st7" points="144.2,330.7 144.2,333.1 167.2,333.1 167.2,331.7 145.4,331.7 145.4,330.7 		"/>
	</g>
	<g id="POLYLINE_6577_">
		<line class="st7" x1="148.2" y1="277.5" x2="144.2" y2="277.5"/>
	</g>
	<g id="POLYLINE_6576_">
		<line class="st7" x1="144.2" y1="277.5" x2="144.2" y2="296.7"/>
	</g>
	<g id="POLYLINE_6575_">
		<line class="st7" x1="144.2" y1="296.7" x2="145.4" y2="296.7"/>
	</g>
	<g id="POLYLINE_6574_">
		<line class="st7" x1="145.4" y1="296.7" x2="145.4" y2="278.9"/>
	</g>
	<g id="POLYLINE_6573_">
		<polyline class="st7" points="145.4,278.9 173.4,278.9 173.4,277.5 145,277.5 		"/>
	</g>
	<g id="POLYLINE_6572_">
		<polyline class="st7" points="145.4,269.5 145.4,254.1 144.2,254.1 144.2,269.5 		"/>
	</g>
	<g id="POLYLINE_6571_">
		<line class="st7" x1="144.2" y1="269.5" x2="145.4" y2="269.5"/>
	</g>
	<g id="POLYLINE_6570_">
		<line class="st7" x1="58.6" y1="200.1" x2="60" y2="200.1"/>
	</g>
	<g id="POLYLINE_6569_">
		<polyline class="st7" points="60,200.1 60,172.9 58.6,172.9 58.6,200.1 		"/>
	</g>
	<g id="POLYLINE_6568_">
		<line class="st7" x1="58.6" y1="212.7" x2="60" y2="212.7"/>
	</g>
	<g id="POLYLINE_6567_">
		<line class="st7" x1="60" y1="212.7" x2="60" y2="208.1"/>
	</g>
	<g id="POLYLINE_6566_">
		<line class="st7" x1="60" y1="208.1" x2="58.6" y2="208.1"/>
	</g>
	<g id="POLYLINE_6565_">
		<line class="st7" x1="58.6" y1="208.1" x2="58.6" y2="209.7"/>
	</g>
	<g id="POLYLINE_6564_">
		<polyline class="st7" points="58.6,209.7 15.4,209.7 15.4,211.1 58.6,211.1 		"/>
	</g>
	<g id="POLYLINE_6563_">
		<line class="st7" x1="58.6" y1="211.1" x2="58.6" y2="212.7"/>
	</g>
	<g id="POLYLINE_6562_">
		<line class="st7" x1="58.6" y1="281.5" x2="60" y2="281.5"/>
	</g>
	<g id="POLYLINE_6561_">
		<line class="st7" x1="60" y1="281.5" x2="60" y2="220.5"/>
	</g>
	<g id="POLYLINE_6560_">
		<line class="st7" x1="60" y1="220.5" x2="58.6" y2="220.5"/>
	</g>
	<g id="POLYLINE_6559_">
		<line class="st7" x1="58.6" y1="220.5" x2="58.6" y2="250.3"/>
	</g>
	<g id="POLYLINE_6558_">
		<polyline class="st7" points="58.6,250.3 21.6,250.3 21.6,251.7 58.6,251.7 		"/>
	</g>
	<g id="POLYLINE_6557_">
		<line class="st7" x1="58.6" y1="251.7" x2="58.6" y2="281.5"/>
	</g>
	<g id="POLYLINE_6556_">
		<line class="st7" x1="58.6" y1="293.9" x2="60" y2="293.9"/>
	</g>
	<g id="POLYLINE_6555_">
		<line class="st7" x1="60" y1="293.9" x2="60" y2="289.5"/>
	</g>
	<g id="POLYLINE_6554_">
		<line class="st7" x1="60" y1="289.5" x2="58.6" y2="289.5"/>
	</g>
	<g id="POLYLINE_6553_">
		<line class="st7" x1="58.6" y1="289.5" x2="58.6" y2="291.1"/>
	</g>
	<g id="POLYLINE_6552_">
		<polyline class="st7" points="58.6,291.1 15.4,291.1 15.4,292.3 58.6,292.3 		"/>
	</g>
	<g id="POLYLINE_6551_">
		<line class="st7" x1="58.6" y1="292.3" x2="58.6" y2="293.9"/>
	</g>
	<g id="POLYLINE_6550_">
		<line class="st7" x1="58.6" y1="362.9" x2="60" y2="362.9"/>
	</g>
	<g id="POLYLINE_6549_">
		<line class="st7" x1="60" y1="362.9" x2="60" y2="301.9"/>
	</g>
	<g id="POLYLINE_6548_">
		<line class="st7" x1="60" y1="301.9" x2="58.6" y2="301.9"/>
	</g>
	<g id="POLYLINE_6547_">
		<line class="st7" x1="58.6" y1="301.9" x2="58.6" y2="331.7"/>
	</g>
	<g id="POLYLINE_6546_">
		<polyline class="st7" points="58.6,331.7 21.6,331.7 21.6,333.1 58.6,333.1 		"/>
	</g>
	<g id="POLYLINE_6545_">
		<line class="st7" x1="58.6" y1="333.1" x2="58.6" y2="362.9"/>
	</g>
	<g id="POLYLINE_6544_">
		<line class="st7" x1="60" y1="370.7" x2="58.6" y2="370.7"/>
	</g>
	<g id="POLYLINE_6543_">
		<line class="st7" x1="58.6" y1="370.7" x2="58.6" y2="372.3"/>
	</g>
	<g id="POLYLINE_6542_">
		<polyline class="st7" points="58.6,372.3 15.4,372.3 15.4,373.7 58.6,373.7 		"/>
	</g>
	<g id="POLYLINE_6541_">
		<line class="st7" x1="58.6" y1="373.7" x2="58.6" y2="375.3"/>
	</g>
	<g id="POLYLINE_6540_">
		<line class="st7" x1="58.6" y1="375.3" x2="60" y2="375.3"/>
	</g>
	<g id="POLYLINE_6539_">
		<line class="st7" x1="60" y1="375.3" x2="60" y2="370.7"/>
	</g>
	<g id="POLYLINE_6538_">
		<line class="st7" x1="58.6" y1="383.3" x2="60" y2="383.3"/>
	</g>
	<g id="POLYLINE_6537_">
		<polyline class="st7" points="60,383.3 60,414.3 21.6,414.3 21.6,413.1 58.6,413.1 58.6,383.3 		"/>
	</g>
</g>
<g id="PLAN_x24_CLOISON_1.1">
</g>
<g id="PLAN_x24_STRUCTURE_2.3">
</g>
<g id="PLAN_x24_STRUCTURE_2.2">
	<g id="POLYLINE_6173_">
		<line class="st8" x1="15.4" y1="169.7" x2="11.8" y2="169.7"/>
	</g>
	<g id="POLYLINE_6172_">
		<line class="st8" x1="15.4" y1="183.3" x2="11.8" y2="183.3"/>
	</g>
	<g id="POLYLINE_6171_">
		<line class="st8" x1="15.4" y1="156.1" x2="11.8" y2="156.1"/>
	</g>
	<g id="POLYLINE_6170_">
		<line class="st8" x1="15.4" y1="142.5" x2="11.8" y2="142.5"/>
	</g>
	<g id="POLYLINE_6169_">
		<line class="st8" x1="15.4" y1="129.1" x2="11.8" y2="129.1"/>
	</g>
	<g id="POLYLINE_6168_">
		<line class="st8" x1="15.4" y1="101.9" x2="11.8" y2="101.9"/>
	</g>
	<g id="POLYLINE_6167_">
		<line class="st8" x1="15.4" y1="115.5" x2="11.8" y2="115.5"/>
	</g>
	<g id="POLYLINE_6166_">
		<line class="st8" x1="15.4" y1="88.3" x2="11.8" y2="88.3"/>
	</g>
	<g id="POLYLINE_6165_">
		<line class="st8" x1="15.4" y1="76.9" x2="11.8" y2="76.9"/>
	</g>
	<g id="POLYLINE_6164_">
		<line class="st8" x1="15.4" y1="196.9" x2="11.8" y2="196.9"/>
	</g>
	<g id="POLYLINE_6163_">
		<line class="st8" x1="15.4" y1="210.3" x2="11.8" y2="210.3"/>
	</g>
	<g id="POLYLINE_6162_">
		<line class="st8" x1="15.4" y1="223.9" x2="11.8" y2="223.9"/>
	</g>
	<g id="POLYLINE_6161_">
		<line class="st8" x1="15.4" y1="237.5" x2="11.8" y2="237.5"/>
	</g>
	<g id="POLYLINE_6160_">
		<line class="st8" x1="15.4" y1="251.1" x2="11.8" y2="251.1"/>
	</g>
	<g id="POLYLINE_6159_">
		<line class="st8" x1="15.4" y1="264.5" x2="11.8" y2="264.5"/>
	</g>
	<g id="POLYLINE_6158_">
		<line class="st8" x1="15.4" y1="278.1" x2="11.8" y2="278.1"/>
	</g>
	<g id="POLYLINE_6157_">
		<line class="st8" x1="15.4" y1="291.7" x2="11.8" y2="291.7"/>
	</g>
	<g id="POLYLINE_6156_">
		<line class="st8" x1="15.4" y1="305.3" x2="11.8" y2="305.3"/>
	</g>
	<g id="POLYLINE_6155_">
		<line class="st8" x1="15.4" y1="318.9" x2="11.8" y2="318.9"/>
	</g>
	<g id="POLYLINE_6154_">
		<line class="st8" x1="15.4" y1="332.3" x2="11.8" y2="332.3"/>
	</g>
	<g id="POLYLINE_6153_">
		<line class="st8" x1="15.4" y1="345.9" x2="11.8" y2="345.9"/>
	</g>
	<g id="POLYLINE_6152_">
		<line class="st8" x1="15.4" y1="359.5" x2="11.8" y2="359.5"/>
	</g>
	<g id="POLYLINE_6151_">
		<line class="st8" x1="15.4" y1="373.1" x2="11.8" y2="373.1"/>
	</g>
	<g id="POLYLINE_6150_">
		<line class="st8" x1="15.4" y1="386.5" x2="11.8" y2="386.5"/>
	</g>
	<g id="POLYLINE_6149_">
		<line class="st8" x1="15.4" y1="400.1" x2="11.8" y2="400.1"/>
	</g>
	<g id="POLYLINE_6148_">
		<line class="st8" x1="15.4" y1="413.7" x2="11.8" y2="413.7"/>
	</g>
	<g id="POLYLINE_6147_">
		<line class="st8" x1="15.4" y1="427.3" x2="11.8" y2="427.3"/>
	</g>
	<g id="POLYLINE_6146_">
		<line class="st8" x1="15.4" y1="440.9" x2="11.8" y2="440.9"/>
	</g>
	<g id="POLYLINE_6145_">
		<line class="st8" x1="15.4" y1="454.3" x2="11.8" y2="454.3"/>
	</g>
	<g id="POLYLINE_6144_">
		<line class="st8" x1="15.4" y1="467.9" x2="11.8" y2="467.9"/>
	</g>
	<g id="POLYLINE_6143_">
		<line class="st8" x1="15.4" y1="481.5" x2="11.8" y2="481.5"/>
	</g>
	<g id="POLYLINE_6142_">
		<line class="st8" x1="15.4" y1="495.1" x2="11.8" y2="495.1"/>
	</g>
	<g id="POLYLINE_6141_">
		<line class="st8" x1="15.4" y1="509.1" x2="11.8" y2="509.1"/>
	</g>
	<g id="POLYLINE_6140_">
		<line class="st8" x1="15.4" y1="523.1" x2="11.8" y2="523.1"/>
	</g>
	<g id="POLYLINE_6139_">
		<line class="st8" x1="16.2" y1="523.9" x2="16.2" y2="527.5"/>
	</g>
	<g id="POLYLINE_6138_">
		<line class="st8" x1="30.4" y1="523.9" x2="30.4" y2="527.5"/>
	</g>
	<g id="POLYLINE_6137_">
		<line class="st8" x1="44.6" y1="523.9" x2="44.6" y2="527.5"/>
	</g>
	<g id="POLYLINE_5638_">
		<line class="st8" x1="58.8" y1="523.9" x2="58.8" y2="527.5"/>
	</g>
	<g id="POLYLINE_5637_">
		<line class="st8" x1="73" y1="523.9" x2="73" y2="527.5"/>
	</g>
	<g id="POLYLINE_5636_">
		<line class="st8" x1="87.2" y1="523.9" x2="87.2" y2="527.5"/>
	</g>
	<g id="POLYLINE_5635_">
		<line class="st8" x1="158.4" y1="523.9" x2="158.4" y2="527.5"/>
	</g>
	<g id="POLYLINE_5634_">
		<line class="st8" x1="130" y1="523.9" x2="130" y2="527.5"/>
	</g>
	<g id="POLYLINE_5633_">
		<line class="st8" x1="115.8" y1="523.9" x2="115.8" y2="527.5"/>
	</g>
	<g id="POLYLINE_5310_">
		<line class="st8" x1="101.6" y1="523.9" x2="101.6" y2="527.5"/>
	</g>
	<g id="POLYLINE_5309_">
		<line class="st8" x1="172.6" y1="523.9" x2="172.6" y2="527.5"/>
	</g>
	<g id="POLYLINE_5308_">
		<line class="st8" x1="144.2" y1="523.9" x2="144.2" y2="527.5"/>
	</g>
	<g id="POLYLINE_5307_">
		<line class="st8" x1="16.2" y1="76.1" x2="16.2" y2="72.5"/>
	</g>
	<g id="POLYLINE_5306_">
		<line class="st8" x1="30.2" y1="76.1" x2="30.2" y2="72.5"/>
	</g>
	<g id="POLYLINE_5305_">
		<line class="st8" x1="173.4" y1="169.7" x2="177" y2="169.7"/>
	</g>
	<g id="POLYLINE_5304_">
		<line class="st8" x1="173.4" y1="183.3" x2="177" y2="183.3"/>
	</g>
	<g id="POLYLINE_5303_">
		<line class="st8" x1="173.4" y1="156.1" x2="177" y2="156.1"/>
	</g>
	<g id="POLYLINE_5302_">
		<line class="st8" x1="173.4" y1="142.5" x2="177" y2="142.5"/>
	</g>
	<g id="POLYLINE_5301_">
		<line class="st8" x1="173.4" y1="129.1" x2="177" y2="129.1"/>
	</g>
	<g id="POLYLINE_5300_">
		<line class="st8" x1="173.4" y1="101.9" x2="177" y2="101.9"/>
	</g>
	<g id="POLYLINE_5299_">
		<line class="st8" x1="173.4" y1="115.5" x2="177" y2="115.5"/>
	</g>
	<g id="POLYLINE_5298_">
		<line class="st8" x1="173.4" y1="88.3" x2="177" y2="88.3"/>
	</g>
	<g id="POLYLINE_5297_">
		<line class="st8" x1="173.4" y1="76.9" x2="177" y2="76.9"/>
	</g>
	<g id="POLYLINE_5296_">
		<line class="st8" x1="173.4" y1="196.9" x2="177" y2="196.9"/>
	</g>
	<g id="POLYLINE_5295_">
		<line class="st8" x1="173.4" y1="210.3" x2="177" y2="210.3"/>
	</g>
	<g id="POLYLINE_5294_">
		<line class="st8" x1="173.4" y1="223.9" x2="177" y2="223.9"/>
	</g>
	<g id="POLYLINE_5293_">
		<line class="st8" x1="173.4" y1="237.5" x2="177" y2="237.5"/>
	</g>
	<g id="POLYLINE_5292_">
		<line class="st8" x1="173.4" y1="251.1" x2="177" y2="251.1"/>
	</g>
	<g id="POLYLINE_5291_">
		<line class="st8" x1="173.4" y1="264.5" x2="177" y2="264.5"/>
	</g>
	<g id="POLYLINE_5290_">
		<line class="st8" x1="173.4" y1="278.1" x2="177" y2="278.1"/>
	</g>
	<g id="POLYLINE_5289_">
		<line class="st8" x1="173.4" y1="291.7" x2="177" y2="291.7"/>
	</g>
	<g id="POLYLINE_5288_">
		<line class="st8" x1="173.4" y1="305.3" x2="177" y2="305.3"/>
	</g>
	<g id="POLYLINE_5287_">
		<line class="st8" x1="173.4" y1="318.9" x2="177" y2="318.9"/>
	</g>
	<g id="POLYLINE_5286_">
		<line class="st8" x1="173.4" y1="332.3" x2="177" y2="332.3"/>
	</g>
	<g id="POLYLINE_5285_">
		<line class="st8" x1="173.4" y1="345.9" x2="177" y2="345.9"/>
	</g>
	<g id="POLYLINE_5284_">
		<line class="st8" x1="173.4" y1="359.5" x2="177" y2="359.5"/>
	</g>
	<g id="POLYLINE_5283_">
		<line class="st8" x1="173.4" y1="373.1" x2="177" y2="373.1"/>
	</g>
	<g id="POLYLINE_5282_">
		<line class="st8" x1="173.4" y1="386.5" x2="177" y2="386.5"/>
	</g>
	<g id="POLYLINE_5281_">
		<line class="st8" x1="173.4" y1="400.1" x2="177" y2="400.1"/>
	</g>
	<g id="POLYLINE_5280_">
		<line class="st8" x1="173.4" y1="413.7" x2="177" y2="413.7"/>
	</g>
	<g id="POLYLINE_5279_">
		<line class="st8" x1="173.4" y1="427.3" x2="177" y2="427.3"/>
	</g>
	<g id="POLYLINE_5278_">
		<line class="st8" x1="173.4" y1="440.9" x2="177" y2="440.9"/>
	</g>
	<g id="POLYLINE_5277_">
		<line class="st8" x1="173.4" y1="454.3" x2="177" y2="454.3"/>
	</g>
	<g id="POLYLINE_5276_">
		<line class="st8" x1="173.4" y1="467.9" x2="177" y2="467.9"/>
	</g>
	<g id="POLYLINE_5275_">
		<line class="st8" x1="173.4" y1="481.5" x2="177" y2="481.5"/>
	</g>
	<g id="POLYLINE_5274_">
		<line class="st8" x1="173.4" y1="495.1" x2="177" y2="495.1"/>
	</g>
	<g id="POLYLINE_5273_">
		<line class="st8" x1="173.4" y1="509.1" x2="177" y2="509.1"/>
	</g>
	<g id="POLYLINE_5272_">
		<line class="st8" x1="172.6" y1="76.1" x2="172.6" y2="72.5"/>
	</g>
	<g id="POLYLINE_5271_">
		<line class="st8" x1="158.6" y1="76.1" x2="158.6" y2="72.5"/>
	</g>
	<g id="POLYLINE_5146_">
		<line class="st8" x1="173.4" y1="523.1" x2="177" y2="523.1"/>
	</g>
</g>
<g id="PLAN_x24_STRUCTURE_2.1">
</g>
<g id="PLAN_x24_STRUCTURE_1.3">
	<g id="POLYLINE_4967_">
		<line class="st9" x1="49" y1="73.5" x2="49" y2="76.1"/>
	</g>
	<g id="LINE_678_">
		<line class="st9" x1="49" y1="76.1" x2="49" y2="73.9"/>
	</g>
	<g id="POLYLINE_4966_">
		<line class="st9" x1="71.8" y1="57.7" x2="71.8" y2="73.9"/>
	</g>
	<g id="POLYLINE_4965_">
		<polyline class="st9" points="71.8,73.9 119.6,73.9 119.6,57.7 80.4,57.7 		"/>
	</g>
	<g id="POLYLINE_4964_">
		<line class="st9" x1="80.4" y1="57.7" x2="71.8" y2="57.7"/>
	</g>
	<g id="POLYLINE_4963_">
		<polyline class="st9" points="58.6,167.1 58.6,162.9 47,162.9 47,160.7 58.6,160.7 58.6,152.9 		"/>
	</g>
	<g id="POLYLINE_4962_">
		<polyline class="st9" points="58.6,152.9 47,152.9 47,145.5 		"/>
	</g>
	<g id="POLYLINE_4961_">
		<polyline class="st9" points="47,145.5 25,145.5 25,143.1 47,143.1 		"/>
	</g>
	<g id="POLYLINE_4960_">
		<polyline class="st9" points="47,143.1 47,137.1 49.2,137.1 49.2,150.7 58.6,150.7 		"/>
	</g>
	<g id="LINE_677_">
		<line class="st9" x1="58.6" y1="150.7" x2="58.6" y2="94.5"/>
	</g>
	<g id="POLYLINE_4959_">
		<line class="st9" x1="58.6" y1="94.5" x2="58.6" y2="90.7"/>
	</g>
	<g id="POLYLINE_4958_">
		<polyline class="st9" points="58.6,90.7 49.2,90.7 49.2,104.3 47,104.3 47,88.3 59.2,88.3 		"/>
	</g>
	<g id="POLYLINE_4957_">
		<polyline class="st9" points="58.6,166.5 58.6,170.5 21.6,170.5 		"/>
	</g>
	<g id="POLYLINE_4956_">
		<polyline class="st9" points="21.6,170.5 21.6,166.5 15.4,166.5 15.4,172.9 21.6,172.9 		"/>
	</g>
	<g id="POLYLINE_4955_">
		<line class="st9" x1="111.4" y1="125.9" x2="114.8" y2="125.9"/>
	</g>
	<g id="LINE_676_">
		<line class="st9" x1="114.8" y1="125.9" x2="114.8" y2="112.3"/>
	</g>
	<g id="POLYLINE_4875_">
		<line class="st9" x1="114.8" y1="112.3" x2="111.4" y2="112.3"/>
	</g>
	<g id="LINE_645_">
		<line class="st9" x1="111.4" y1="112.3" x2="111.4" y2="125.9"/>
	</g>
	<g id="POLYLINE_4874_">
		<line class="st9" x1="58.6" y1="88.3" x2="65" y2="88.3"/>
	</g>
	<g id="POLYLINE_4873_">
		<polyline class="st9" points="65,88.3 85.2,88.3 85.2,125.9 		"/>
	</g>
	<g id="POLYLINE_4872_">
		<line class="st9" x1="85.2" y1="125.9" x2="81.8" y2="125.9"/>
	</g>
	<g id="POLYLINE_4871_">
		<polyline class="st9" points="81.8,125.9 81.8,91.7 65,91.7 		"/>
	</g>
	<g id="POLYLINE_4870_">
		<polyline class="st9" points="65,91.7 65,94.5 61,94.5 		"/>
	</g>
	<g id="POLYLINE_4869_">
		<polyline class="st9" points="61,94.5 61,166.5 65,166.5 65,169.5 81.8,169.5 81.8,160.3 		"/>
	</g>
	<g id="POLYLINE_4868_">
		<line class="st9" x1="81.8" y1="160.3" x2="85.2" y2="160.3"/>
	</g>
	<g id="POLYLINE_4867_">
		<polyline class="st9" points="85.2,160.3 85.2,172.9 63.6,172.9 		"/>
	</g>
	<g id="POLYLINE_4866_">
		<line class="st9" x1="111.4" y1="150.1" x2="114.8" y2="150.1"/>
	</g>
	<g id="LINE_644_">
		<line class="st9" x1="114.8" y1="150.1" x2="114.8" y2="136.1"/>
	</g>
	<g id="POLYLINE_4865_">
		<line class="st9" x1="114.8" y1="136.1" x2="111.4" y2="136.1"/>
	</g>
	<g id="LINE_643_">
		<line class="st9" x1="111.4" y1="136.1" x2="111.4" y2="150.1"/>
	</g>
	<g id="POLYLINE_4864_">
		<line class="st9" x1="81.8" y1="150.1" x2="85.2" y2="150.1"/>
	</g>
	<g id="POLYLINE_4863_">
		<line class="st9" x1="85.2" y1="150.1" x2="85.2" y2="136.1"/>
	</g>
	<g id="POLYLINE_4862_">
		<line class="st9" x1="85.2" y1="136.1" x2="81.8" y2="136.1"/>
	</g>
	<g id="POLYLINE_4861_">
		<line class="st9" x1="81.8" y1="136.1" x2="81.8" y2="150.1"/>
	</g>
	<g id="LINE_642_">
		<line class="st9" x1="145.2" y1="88.3" x2="137.6" y2="88.3"/>
	</g>
	<g id="LINE_641_">
		<line class="st9" x1="137.6" y1="88.3" x2="131.4" y2="88.3"/>
	</g>
	<g id="POLYLINE_4859_">
		<polyline class="st9" points="131.4,88.3 111.4,88.3 111.4,102.1 		"/>
	</g>
	<g id="POLYLINE_4858_">
		<line class="st9" x1="111.4" y1="102.1" x2="114.8" y2="102.1"/>
	</g>
	<g id="POLYLINE_4857_">
		<polyline class="st9" points="114.8,102.1 114.8,91.7 131.4,91.7 		"/>
	</g>
	<g id="POLYLINE_4856_">
		<polyline class="st9" points="131.4,91.7 131.4,94.5 135.4,94.5 		"/>
	</g>
	<g id="POLYLINE_4855_">
		<polyline class="st9" points="135.4,94.5 135.4,166.5 137.6,166.5 137.6,94.5 		"/>
	</g>
	<g id="LINE_640_">
		<line class="st9" x1="137.6" y1="94.5" x2="137.6" y2="90.7"/>
	</g>
	<g id="POLYLINE_4854_">
		<polyline class="st9" points="137.6,90.7 143,90.7 143,170.5 137.6,170.5 		"/>
	</g>
	<g id="POLYLINE_4853_">
		<polyline class="st9" points="137.6,170.5 137.6,166.5 131.4,166.5 131.4,169.5 		"/>
	</g>
	<g id="POLYLINE_4852_">
		<polyline class="st9" points="131.4,169.5 114.8,169.5 114.8,160.3 		"/>
	</g>
	<g id="POLYLINE_4851_">
		<line class="st9" x1="114.8" y1="160.3" x2="111.4" y2="160.3"/>
	</g>
	<g id="POLYLINE_4850_">
		<polyline class="st9" points="111.4,160.3 111.4,172.9 131.4,172.9 		"/>
	</g>
	<g id="POLYLINE_4845_">
		<line class="st9" x1="131.4" y1="172.9" x2="137.6" y2="172.9"/>
	</g>
	<g id="POLYLINE_4755_">
		<line class="st9" x1="137.6" y1="172.9" x2="145.2" y2="172.9"/>
	</g>
	<g id="POLYLINE_4754_">
		<polyline class="st9" points="144,88.3 158,88.3 158,90.7 145.2,90.7 		"/>
	</g>
	<g id="LINE_639_">
		<line class="st9" x1="145.2" y1="90.7" x2="145.2" y2="127.9"/>
	</g>
	<g id="POLYLINE_4753_">
		<polyline class="st9" points="145.2,127.9 173.4,127.9 173.4,130.1 145.2,130.1 		"/>
	</g>
	<g id="LINE_638_">
		<line class="st9" x1="145.2" y1="130.1" x2="145.2" y2="170.5"/>
	</g>
	<g id="POLYLINE_4752_">
		<polyline class="st9" points="145.2,170.5 158,170.5 158,172.9 144,172.9 		"/>
	</g>
	<g id="POLYLINE_4751_">
		<polyline class="st9" points="167.2,254.1 173.4,254.1 173.4,247.9 167.2,247.9 167.2,251.9 		"/>
	</g>
	<g id="LINE_637_">
		<line class="st9" x1="167.2" y1="251.9" x2="139.8" y2="251.9"/>
	</g>
	<g id="POLYLINE_4750_">
		<line class="st9" x1="139.8" y1="251.9" x2="139.8" y2="254.1"/>
	</g>
	<g id="LINE_636_">
		<line class="st9" x1="139.8" y1="254.1" x2="168.2" y2="254.1"/>
	</g>
	<g id="POLYLINE_4749_">
		<line class="st9" x1="129.6" y1="250.5" x2="129.6" y2="254.1"/>
	</g>
	<g id="POLYLINE_4748_">
		<line class="st9" x1="129.6" y1="254.1" x2="129.6" y2="251.9"/>
	</g>
	<g id="POLYLINE_4747_">
		<line class="st9" x1="105.2" y1="237.7" x2="107.4" y2="237.7"/>
	</g>
	<g id="POLYLINE_4746_">
		<polyline class="st9" points="107.4,237.7 107.4,195.1 127.2,195.1 127.2,251.9 111.4,251.9 		"/>
	</g>
	<g id="POLYLINE_4745_">
		<polyline class="st9" points="111.4,251.9 111.4,247.9 105.2,247.9 105.2,254.1 111.4,254.1 		"/>
	</g>
	<g id="POLYLINE_4744_">
		<polyline class="st9" points="111.4,254.1 129.6,254.1 129.6,198.3 		"/>
	</g>
	<g id="POLYLINE_4715_">
		<polyline class="st9" points="129.6,198.3 173.4,198.3 173.4,196.1 129.6,196.1 		"/>
	</g>
	<g id="POLYLINE_4714_">
		<polyline class="st9" points="129.6,196.1 129.6,192.9 105.2,192.9 105.2,237.7 		"/>
	</g>
	<g id="LINE_623_">
		<line class="st9" x1="105.2" y1="247.9" x2="107.4" y2="247.9"/>
	</g>
	<g id="POLYLINE_4686_">
		<line class="st9" x1="107.4" y1="247.9" x2="105.2" y2="247.9"/>
	</g>
	<g id="POLYLINE_4685_">
		<line class="st9" x1="142.2" y1="58.7" x2="138" y2="58.7"/>
	</g>
	<g id="LINE_622_">
		<line class="st9" x1="138" y1="58.7" x2="138" y2="34.7"/>
	</g>
	<g id="POLYLINE_4684_">
		<polyline class="st9" points="138,34.7 132,34.7 132,32.5 		"/>
	</g>
	<g id="LINE_621_">
		<line class="st9" x1="132" y1="32.5" x2="82.6" y2="32.5"/>
	</g>
	<g id="POLYLINE_4683_">
		<polyline class="st9" points="82.6,32.5 82.6,55.5 121.8,55.5 121.8,76.1 58,76.1 		"/>
	</g>
	<g id="POLYLINE_4682_">
		<line class="st9" x1="58" y1="76.1" x2="58" y2="73.9"/>
	</g>
	<g id="POLYLINE_4681_">
		<line class="st9" x1="58" y1="73.9" x2="69.4" y2="73.9"/>
	</g>
	<g id="POLYLINE_4680_">
		<line class="st9" x1="69.4" y1="73.9" x2="69.4" y2="57.7"/>
	</g>
	<g id="POLYLINE_4679_">
		<line class="st9" x1="69.4" y1="57.7" x2="49" y2="57.7"/>
	</g>
	<g id="POLYLINE_4678_">
		<polyline class="st9" points="49,57.7 49,76.1 43.6,76.1 43.6,72.5 44.8,72.5 44.8,28.5 142.2,28.5 142.2,58.7 		"/>
	</g>
	<g id="POLYLINE_4677_">
		<line class="st9" x1="142.2" y1="71.1" x2="138" y2="71.1"/>
	</g>
	<g id="POLYLINE_4676_">
		<polyline class="st9" points="138,71.1 138,76.1 142.2,76.1 142.2,71.1 		"/>
	</g>
	<g id="POLYLINE_4675_">
		<polyline class="st9" points="65,32.5 65,34.7 58.6,34.7 58.6,32.5 		"/>
	</g>
	<g id="POLYLINE_4674_">
		<polyline class="st9" points="58.6,32.5 49,32.5 49,55.5 		"/>
	</g>
	<g id="POLYLINE_4673_">
		<line class="st9" x1="49" y1="55.5" x2="80.4" y2="55.5"/>
	</g>
	<g id="POLYLINE_4672_">
		<line class="st9" x1="80.4" y1="55.5" x2="80.4" y2="32.5"/>
	</g>
	<g id="LINE_620_">
		<line class="st9" x1="80.4" y1="32.5" x2="65" y2="32.5"/>
	</g>
	<g id="POLYLINE_4671_">
		<rect x="15.4" y="491.9" class="st9" width="6.2" height="6.2"/>
	</g>
	<g id="POLYLINE_4670_">
		<rect x="105.2" y="491.9" class="st9" width="6.2" height="6.2"/>
	</g>
	<g id="POLYLINE_4669_">
		<rect x="167.2" y="491.9" class="st9" width="6.2" height="6.2"/>
	</g>
	<g id="POLYLINE_4668_">
		<rect x="167.2" y="410.5" class="st9" width="6.2" height="6.2"/>
	</g>
	<g id="POLYLINE_4667_">
		<rect x="105.2" y="410.5" class="st9" width="6.2" height="6.2"/>
	</g>
	<g id="POLYLINE_4666_">
		<rect x="15.4" y="410.5" class="st9" width="6.2" height="6.2"/>
	</g>
	<g id="POLYLINE_4547_">
		<rect x="167.2" y="329.3" class="st9" width="6.2" height="6.2"/>
	</g>
	<g id="POLYLINE_4546_">
		<rect x="105.2" y="329.3" class="st9" width="6.2" height="6.2"/>
	</g>
	<g id="POLYLINE_4545_">
		<rect x="15.4" y="329.3" class="st9" width="6.2" height="6.2"/>
	</g>
	<g id="POLYLINE_4482_">
		<rect x="15.4" y="247.9" class="st9" width="6.2" height="6.2"/>
	</g>
	<g id="POLYLINE_4481_">
		<rect x="167.2" y="85.3" class="st9" width="6.2" height="6.2"/>
	</g>
	<g id="POLYLINE_4480_">
		<rect x="15.4" y="85.3" class="st9" width="6.2" height="6.2"/>
	</g>
	<g id="POLYLINE_4479_">
		<rect x="167.2" y="166.5" class="st9" width="6.2" height="6.2"/>
	</g>
	<g id="POLYLINE_4478_">
		<rect x="83" y="192.9" class="st9" width="2.2" height="61.2"/>
	</g>
	<g id="POLYLINE_4477_">
		<line class="st9" x1="65" y1="28.5" x2="58.6" y2="28.5"/>
	</g>
	<g id="POLYLINE_4476_">
		<line class="st9" x1="138.2" y1="28.5" x2="132" y2="28.5"/>
	</g>
	<g id="LINE_619_">
		<line class="st9" x1="59.6" y1="172.9" x2="20.4" y2="172.9"/>
	</g>
	<g id="POLYLINE_4475_">
		<line class="st9" x1="58.6" y1="172.9" x2="65" y2="172.9"/>
	</g>
</g>
<g id="PLAN_x24_STRUCTURE_1.2">
</g>
<g id="PLAN_x24_STRUCTURE_1.1">
</g>
</svg>
