<?xml version="1.0" encoding="utf-8"?>
<!-- Generator: Adobe Illustrator 22.0.1, SVG Export Plug-In . SVG Version: 6.00 Build 0)  -->
<svg version="1.1" id="Calque_1" xmlns="http://www.w3.org/2000/svg" xmlns:xlink="http://www.w3.org/1999/xlink" x="0px" y="0px"
	 viewBox="0 0 88.1 257.3" style="enable-background:new 0 0 88.1 257.3;" xml:space="preserve">
<style type="text/css">
	.st0{display:none;}
	.st1{display:inline;}
	.st2{fill:none;}
	.st3{fill:none;stroke:#000000;stroke-width:0.1;stroke-linecap:square;stroke-miterlimit:10;stroke-dasharray:0.5,0.5;}
	.st4{fill:none;stroke:#000000;stroke-width:5.000000e-02;stroke-linecap:square;stroke-miterlimit:10;}
	.st5{fill:none;stroke:#000000;stroke-width:8.000000e-02;stroke-linecap:square;stroke-miterlimit:10;}
	.st6{fill:none;stroke:#000000;stroke-width:0.14;stroke-linecap:square;stroke-miterlimit:10;}
	.st7{fill:none;stroke:#000000;stroke-width:0.18;stroke-linecap:square;stroke-miterlimit:10;}
	.st8{fill:none;stroke:#000000;stroke-width:0.32;stroke-linecap:square;stroke-miterlimit:10;}
	.st9{fill:none;stroke:#000000;stroke-width:0.41;stroke-linecap:square;stroke-miterlimit:10;}
</style>
<g id="Calque_1_1_">
</g>
<g id="INFOS_x24_A4" class="st0">
	<g id="POLYLINE_4474_" class="st1">
		<rect x="-250.7" y="-279.6" class="st2" width="595.3" height="841.9"/>
	</g>
</g>
<g id="PLAN_x24_FOND">
</g>
<g id="PLAN_x24_POINTILLE">
	<g id="POLYLINE_6647_">
		<line class="st3" x1="49.9" y1="101.7" x2="54.9" y2="99.1"/>
	</g>
	<g id="POLYLINE_6646_">
		<line class="st3" x1="52" y1="17.8" x2="49.4" y2="12"/>
	</g>
	<g id="POLYLINE_6645_">
		<line class="st3" x1="51.3" y1="17.8" x2="48.8" y2="12"/>
	</g>
	<g id="POLYLINE_6644_">
		<line class="st3" x1="49.9" y1="101" x2="54.9" y2="98.4"/>
	</g>
</g>
<g id="PLAN_x24_VITRAGE">
	<g id="POLYLINE_5577_">
		<rect x="67" y="19.4" class="st4" width="0.3" height="6.2"/>
	</g>
	<g id="POLYLINE_5576_">
		<line class="st4" x1="67.3" y1="26.3" x2="82.5" y2="26.3"/>
	</g>
	<g id="ARC_435_">
		<path class="st4" d="M83.6,26.6c-0.3-0.2-0.7-0.3-1.1-0.3"/>
	</g>
	<g id="ARC_434_">
		<path class="st4" d="M84.4,27.4c-0.2-0.3-0.5-0.6-0.8-0.8"/>
	</g>
	<g id="ARC_433_">
		<path class="st4" d="M84.7,28.5c0-0.4-0.1-0.7-0.3-1.1"/>
	</g>
	<g id="POLYLINE_5575_">
		<line class="st4" x1="84.7" y1="28.5" x2="84.7" y2="251.6"/>
	</g>
	<g id="ARC_432_">
		<path class="st4" d="M84.4,252.7c0.2-0.3,0.3-0.7,0.3-1.1"/>
	</g>
	<g id="ARC_431_">
		<path class="st4" d="M83.6,253.5c0.3-0.2,0.6-0.5,0.8-0.8"/>
	</g>
	<g id="ARC_430_">
		<path class="st4" d="M82.5,253.8c0.4,0,0.7-0.1,1.1-0.3"/>
	</g>
	<g id="POLYLINE_5468_">
		<line class="st4" x1="82.5" y1="253.8" x2="4.3" y2="253.8"/>
	</g>
	<g id="ARC_429_">
		<path class="st4" d="M3.2,253.5c0.3,0.2,0.7,0.3,1.1,0.3"/>
	</g>
	<g id="ARC_428_">
		<path class="st4" d="M2.4,252.7c0.2,0.3,0.5,0.6,0.8,0.8"/>
	</g>
	<g id="ARC_427_">
		<path class="st4" d="M2.1,251.6c0,0.4,0.1,0.7,0.3,1.1"/>
	</g>
	<g id="POLYLINE_5467_">
		<line class="st4" x1="2.1" y1="251.6" x2="2.1" y2="28.5"/>
	</g>
	<g id="ARC_426_">
		<path class="st4" d="M2.4,27.4c-0.2,0.3-0.3,0.7-0.3,1.1"/>
	</g>
	<g id="ARC_425_">
		<path class="st4" d="M3.2,26.6c-0.3,0.2-0.6,0.5-0.8,0.8"/>
	</g>
	<g id="ARC_424_">
		<path class="st4" d="M4.3,26.3c-0.4,0-0.7,0.1-1.1,0.3"/>
	</g>
	<g id="POLYLINE_5466_">
		<line class="st4" x1="4.3" y1="26.3" x2="18" y2="26.3"/>
	</g>
	<g id="POLYLINE_5465_">
		<line class="st4" x1="67.3" y1="26.6" x2="82.5" y2="26.6"/>
	</g>
	<g id="ARC_423_">
		<path class="st4" d="M84.4,28.5c0-1-0.8-1.9-1.9-1.9"/>
	</g>
	<g id="POLYLINE_5464_">
		<line class="st4" x1="84.4" y1="28.5" x2="84.4" y2="251.6"/>
	</g>
	<g id="ARC_422_">
		<path class="st4" d="M82.5,253.5c1,0,1.9-0.8,1.9-1.9"/>
	</g>
	<g id="POLYLINE_5463_">
		<line class="st4" x1="82.5" y1="253.5" x2="4.3" y2="253.5"/>
	</g>
	<g id="ARC_421_">
		<path class="st4" d="M2.4,251.6c0,1,0.8,1.9,1.9,1.9"/>
	</g>
	<g id="POLYLINE_5340_">
		<line class="st4" x1="2.4" y1="251.6" x2="2.4" y2="28.5"/>
	</g>
	<g id="ARC_420_">
		<path class="st4" d="M4.3,26.6c-1,0-1.9,0.8-1.9,1.9"/>
	</g>
	<g id="POLYLINE_5339_">
		<line class="st4" x1="4.3" y1="26.6" x2="18" y2="26.6"/>
	</g>
</g>
<g id="PLAN_x24_MOBILIER">
	<g id="SPLINE_286_">
		<path class="st5" d="M70.3,67.9c0.2,0.1,0.5,0.1,0.7,0.1c0.2,0,0.4,0,0.5,0c0.2,0,0.5,0,0.7-0.1c0.1,0,0.2-0.1,0.3-0.2
			c0.1-0.2,0.2-0.4,0.2-0.6c0-0.1,0-0.2,0-0.3c0-0.2-0.1-0.3-0.2-0.4c-0.2-0.2-0.4-0.3-0.7-0.3c-0.3,0-0.5-0.1-0.8,0
			c-0.2,0-0.4,0-0.5,0.1c-0.1,0-0.2,0-0.3,0.1"/>
	</g>
	<g id="POLYLINE_5033_">
		<rect x="68.8" y="65.5" class="st5" width="1.5" height="3"/>
	</g>
	<g id="SPLINE_285_">
		<path class="st5" d="M70.3,63.1c0.2,0.1,0.5,0.1,0.7,0.1c0.2,0,0.4,0,0.5,0c0.2,0,0.5,0,0.7-0.1c0.1,0,0.2-0.1,0.3-0.2
			c0.1-0.2,0.2-0.4,0.2-0.6c0-0.1,0-0.2,0-0.3c0-0.2-0.1-0.3-0.2-0.4c-0.2-0.2-0.4-0.3-0.7-0.3c-0.3,0-0.5-0.1-0.8,0
			c-0.2,0-0.4,0-0.5,0.1c-0.1,0-0.2,0-0.3,0.1"/>
	</g>
	<g id="POLYLINE_5032_">
		<rect x="68.8" y="60.7" class="st5" width="1.5" height="3"/>
	</g>
	<g id="SPLINE_284_">
		<path class="st5" d="M70.3,58.6c0.2,0.1,0.5,0.1,0.7,0.1c0.2,0,0.4,0,0.5,0c0.2,0,0.5,0,0.7-0.1c0.1,0,0.2-0.1,0.3-0.2
			c0.1-0.2,0.2-0.4,0.2-0.6c0-0.1,0-0.2,0-0.3c0-0.2-0.1-0.3-0.2-0.4c-0.2-0.2-0.4-0.3-0.7-0.3c-0.3,0-0.5-0.1-0.8,0
			c-0.2,0-0.4,0-0.5,0.1c-0.1,0-0.2,0-0.3,0.1"/>
	</g>
	<g id="POLYLINE_5031_">
		<rect x="68.8" y="56.2" class="st5" width="1.5" height="3"/>
	</g>
	<g id="SPLINE_283_">
		<path class="st5" d="M70.3,50.5c0.2-0.1,0.5-0.1,0.7-0.1c0.2,0,0.4,0,0.5,0c0.2,0,0.5,0,0.7,0.1c0.1,0,0.2,0.1,0.3,0.2
			c0.1,0.2,0.2,0.4,0.2,0.6c0,0.1,0,0.2,0,0.3c0,0.2-0.1,0.3-0.2,0.4c-0.2,0.2-0.4,0.3-0.7,0.3c-0.3,0-0.5,0.1-0.8,0
			c-0.2,0-0.4,0-0.5-0.1c-0.1,0-0.2,0-0.3-0.1"/>
	</g>
	<g id="POLYLINE_5030_">
		<rect x="68.8" y="49.9" class="st5" width="1.5" height="3"/>
	</g>
	<g id="SPLINE_282_">
		<path class="st5" d="M70.3,46c0.2-0.1,0.5-0.1,0.7-0.1c0.2,0,0.4,0,0.5,0c0.2,0,0.5,0,0.7,0.1c0.1,0,0.2,0.1,0.3,0.2
			c0.1,0.2,0.2,0.4,0.2,0.6c0,0.1,0,0.2,0,0.3c0,0.2-0.1,0.3-0.2,0.4c-0.2,0.2-0.4,0.3-0.7,0.3c-0.3,0-0.5,0.1-0.8,0
			c-0.2,0-0.4,0-0.5-0.1c-0.1,0-0.2,0-0.3-0.1"/>
	</g>
	<g id="POLYLINE_5029_">
		<rect x="68.8" y="45.4" class="st5" width="1.5" height="3"/>
	</g>
	<g id="SPLINE_281_">
		<path class="st5" d="M70.3,41.2c0.2-0.1,0.5-0.1,0.7-0.1c0.2,0,0.4,0,0.5,0c0.2,0,0.5,0,0.7,0.1c0.1,0,0.2,0.1,0.3,0.2
			c0.1,0.2,0.2,0.4,0.2,0.6c0,0.1,0,0.2,0,0.3c0,0.2-0.1,0.3-0.2,0.4c-0.2,0.2-0.4,0.3-0.7,0.3c-0.3,0-0.5,0.1-0.8,0
			c-0.2,0-0.4,0-0.5-0.1c-0.1,0-0.2,0-0.3-0.1"/>
	</g>
	<g id="POLYLINE_5028_">
		<rect x="68.8" y="40.7" class="st5" width="1.5" height="3"/>
	</g>
	<g id="POLYLINE_5027_">
		<rect x="68.8" y="71.2" class="st5" width="2.2" height="3.1"/>
	</g>
	<g id="CIRCLE_390_">
		<path class="st5" d="M69.3,72.8c0-0.1,0.1-0.3,0.3-0.3s0.3,0.1,0.3,0.3S69.7,73,69.6,73S69.3,72.9,69.3,72.8L69.3,72.8z"/>
	</g>
	<g id="CIRCLE_389_">
		<path class="st5" d="M69.3,37.7c0-0.1,0.1-0.3,0.3-0.3s0.3,0.1,0.3,0.3S69.7,38,69.6,38C69.4,38,69.3,37.9,69.3,37.7L69.3,37.7z"
			/>
	</g>
	<g id="POLYLINE_5026_">
		<rect x="68.8" y="36.2" class="st5" width="2.2" height="3.1"/>
	</g>
</g>
<g id="PLAN_x24_DETAIL">
	<g id="POLYLINE_5632_">
		<polyline class="st5" points="27.4,7.4 22.9,7.9 20.7,17.8 		"/>
	</g>
	<g id="POLYLINE_5631_">
		<line class="st5" x1="36.4" y1="6.3" x2="28.7" y2="7.2"/>
	</g>
	<g id="POLYLINE_5630_">
		<line class="st5" x1="25.9" y1="94.1" x2="21.9" y2="94.1"/>
	</g>
	<g id="ARC_458_">
		<path class="st5" d="M21.9,94.1c0-2.2,1.8-4,4-4"/>
	</g>
	<g id="POLYLINE_5629_">
		<line class="st5" x1="25.9" y1="96.4" x2="21.9" y2="96.4"/>
	</g>
	<g id="ARC_457_">
		<path class="st5" d="M21.9,96.4c0,2.2,1.8,4,4,4"/>
	</g>
	<g id="POLYLINE_5628_">
		<line class="st5" x1="25.9" y1="137" x2="21.9" y2="137"/>
	</g>
	<g id="ARC_456_">
		<path class="st5" d="M21.9,137c0,2.2,1.8,4,4,4"/>
	</g>
	<g id="POLYLINE_5627_">
		<line class="st5" x1="25.9" y1="134.8" x2="21.9" y2="134.8"/>
	</g>
	<g id="ARC_455_">
		<path class="st5" d="M21.9,134.8c0-2.2,1.8-4,4-4"/>
	</g>
	<g id="POLYLINE_5626_">
		<line class="st5" x1="25.9" y1="177.7" x2="21.9" y2="177.7"/>
	</g>
	<g id="ARC_454_">
		<path class="st5" d="M21.9,177.7c0,2.2,1.8,4,4,4"/>
	</g>
	<g id="POLYLINE_5625_">
		<line class="st5" x1="25.9" y1="175.4" x2="21.9" y2="175.4"/>
	</g>
	<g id="ARC_453_">
		<path class="st5" d="M21.9,175.4c0-2.2,1.8-4,4-4"/>
	</g>
	<g id="POLYLINE_5624_">
		<line class="st5" x1="68.6" y1="128.8" x2="72.6" y2="128.8"/>
	</g>
	<g id="ARC_452_">
		<path class="st5" d="M72.6,128.8c0-2.2-1.8-4-4-4"/>
	</g>
	<g id="POLYLINE_5623_">
		<line class="st5" x1="68.6" y1="142.3" x2="72.6" y2="142.3"/>
	</g>
	<g id="ARC_451_">
		<path class="st5" d="M72.6,142.3c0-2.2-1.8-4-4-4"/>
	</g>
	<g id="POLYLINE_5622_">
		<line class="st5" x1="68.6" y1="155.4" x2="72.6" y2="155.4"/>
	</g>
	<g id="ARC_450_">
		<path class="st5" d="M72.6,155.4c0-2.2-1.8-4-4-4"/>
	</g>
	<g id="POLYLINE_5621_">
		<line class="st5" x1="61" y1="116.6" x2="61" y2="111.5"/>
	</g>
	<g id="ARC_449_">
		<path class="st5" d="M61,111.5c2.8,0,5.1,2.3,5.1,5.1"/>
	</g>
	<g id="POLYLINE_5620_">
		<line class="st5" x1="49.3" y1="114" x2="54.4" y2="114"/>
	</g>
	<g id="ARC_448_">
		<path class="st5" d="M54.4,114c0-2.8-2.3-5.1-5.1-5.1"/>
	</g>
	<g id="POLYLINE_5619_">
		<line class="st5" x1="53.6" y1="70.2" x2="53.6" y2="65.1"/>
	</g>
	<g id="POLYLINE_5618_">
		<line class="st5" x1="51.9" y1="65.1" x2="51.9" y2="70.2"/>
	</g>
	<g id="POLYLINE_5617_">
		<rect x="51.9" y="53" class="st5" width="1.7" height="5.1"/>
	</g>
	<g id="POLYLINE_5616_">
		<rect x="51.9" y="41.1" class="st5" width="1.7" height="5.1"/>
	</g>
	<g id="POLYLINE_5615_">
		<rect x="37.1" y="53" class="st5" width="1.7" height="5.1"/>
	</g>
	<g id="POLYLINE_5614_">
		<rect x="37.1" y="65.1" class="st5" width="1.7" height="5.1"/>
	</g>
	<g id="POLYLINE_5613_">
		<line class="st5" x1="35.5" y1="62.6" x2="28.5" y2="71.8"/>
	</g>
	<g id="POLYLINE_5612_">
		<line class="st5" x1="28.5" y1="62.6" x2="35.5" y2="71.8"/>
	</g>
	<g id="POLYLINE_5611_">
		<rect x="28.5" y="62.6" class="st5" width="7" height="9.2"/>
	</g>
	<g id="POLYLINE_5610_">
		<line class="st5" x1="35.5" y1="60.6" x2="28.5" y2="51.4"/>
	</g>
	<g id="POLYLINE_5609_">
		<line class="st5" x1="28.5" y1="60.6" x2="35.5" y2="51.4"/>
	</g>
	<g id="POLYLINE_5608_">
		<rect x="28.5" y="51.4" class="st5" width="7" height="9.2"/>
	</g>
	<g id="POLYLINE_5607_">
		<line class="st5" x1="61.8" y1="60.6" x2="54.8" y2="51.4"/>
	</g>
	<g id="POLYLINE_5606_">
		<line class="st5" x1="54.8" y1="60.6" x2="61.8" y2="51.4"/>
	</g>
	<g id="POLYLINE_5605_">
		<rect x="54.8" y="51.4" class="st5" width="7" height="9.2"/>
	</g>
	<g id="POLYLINE_5604_">
		<line class="st5" x1="61.8" y1="62.6" x2="54.8" y2="71.8"/>
	</g>
	<g id="POLYLINE_5603_">
		<line class="st5" x1="54.8" y1="62.6" x2="61.8" y2="71.8"/>
	</g>
	<g id="POLYLINE_5602_">
		<rect x="54.8" y="62.6" class="st5" width="7" height="9.2"/>
	</g>
	<g id="POLYLINE_5601_">
		<line class="st5" x1="61.8" y1="40" x2="54.8" y2="49.2"/>
	</g>
	<g id="POLYLINE_5600_">
		<line class="st5" x1="54.8" y1="40" x2="61.8" y2="49.2"/>
	</g>
	<g id="POLYLINE_5599_">
		<rect x="54.8" y="40" class="st5" width="7" height="9.2"/>
	</g>
	<g id="POLYLINE_5598_">
		<line class="st5" x1="20.8" y1="42.2" x2="20.8" y2="58.6"/>
	</g>
	<g id="POLYLINE_5597_">
		<line class="st5" x1="19.7" y1="58.6" x2="19.7" y2="42.2"/>
	</g>
	<g id="POLYLINE_5596_">
		<line class="st5" x1="8.7" y1="62.2" x2="8.7" y2="66.7"/>
	</g>
	<g id="ARC_447_">
		<path class="st5" d="M8.7,66.7c-2.5,0-4.5-2-4.5-4.5"/>
	</g>
	<g id="POLYLINE_5595_">
		<line class="st5" x1="19.7" y1="66.5" x2="19.7" y2="70.4"/>
	</g>
	<g id="POLYLINE_5594_">
		<line class="st5" x1="19.7" y1="71.5" x2="19.7" y2="75.3"/>
	</g>
	<g id="POLYLINE_5593_">
		<line class="st5" x1="20.7" y1="27.6" x2="20.7" y2="23"/>
	</g>
	<g id="ARC_446_">
		<path class="st5" d="M20.7,23c2.5,0,4.5,2,4.5,4.5"/>
	</g>
	<g id="POLYLINE_5592_">
		<line class="st5" x1="65.2" y1="25.6" x2="65.2" y2="19.4"/>
	</g>
	<g id="POLYLINE_5591_">
		<line class="st5" x1="56" y1="27" x2="32.1" y2="18.9"/>
	</g>
	<g id="POLYLINE_5590_">
		<line class="st5" x1="32.1" y1="27" x2="56" y2="18.9"/>
	</g>
	<g id="POLYLINE_5589_">
		<line class="st5" x1="57.1" y1="26.9" x2="57.1" y2="22.8"/>
	</g>
	<g id="ARC_445_">
		<path class="st5" d="M57.1,22.8c2.2,0,4.1,1.8,4.1,4.1"/>
	</g>
	<g id="POLYLINE_5588_">
		<line class="st5" x1="65.2" y1="26.9" x2="65.2" y2="22.8"/>
	</g>
	<g id="ARC_444_">
		<path class="st5" d="M65.2,22.8c-2.2,0-4.1,1.8-4.1,4.1"/>
	</g>
	<g id="LINE_714_">
		<line class="st5" x1="59.8" y1="97.8" x2="49.9" y2="97.8"/>
	</g>
	<g id="LINE_713_">
		<line class="st5" x1="59.8" y1="105.5" x2="49.9" y2="105.5"/>
	</g>
	<g id="LINE_712_">
		<line class="st5" x1="59.8" y1="95.2" x2="49.9" y2="95.2"/>
	</g>
	<g id="LINE_711_">
		<line class="st5" x1="59.8" y1="92.7" x2="49.9" y2="92.7"/>
	</g>
	<g id="LINE_710_">
		<line class="st5" x1="54.9" y1="92.7" x2="54.9" y2="105.5"/>
	</g>
	<g id="POLYLINE_5587_">
		<line class="st5" x1="76.8" y1="65.1" x2="73.4" y2="65.1"/>
	</g>
	<g id="ARC_443_">
		<path class="st5" d="M73.4,65.1c0,1.9,1.5,3.4,3.4,3.4"/>
	</g>
	<g id="POLYLINE_5586_">
		<line class="st5" x1="76.9" y1="63.7" x2="73.5" y2="63.7"/>
	</g>
	<g id="ARC_442_">
		<path class="st5" d="M73.5,63.7c0-1.9,1.5-3.4,3.4-3.4"/>
	</g>
	<g id="POLYLINE_5585_">
		<line class="st5" x1="76.9" y1="55.6" x2="73.5" y2="55.6"/>
	</g>
	<g id="ARC_441_">
		<path class="st5" d="M73.5,55.6c0,1.9,1.5,3.4,3.4,3.4"/>
	</g>
	<g id="POLYLINE_5584_">
		<line class="st5" x1="76.9" y1="53.6" x2="73.5" y2="53.6"/>
	</g>
	<g id="ARC_440_">
		<path class="st5" d="M73.5,53.6c0-1.9,1.5-3.4,3.4-3.4"/>
	</g>
	<g id="POLYLINE_5583_">
		<line class="st5" x1="76.9" y1="45.4" x2="73.5" y2="45.4"/>
	</g>
	<g id="ARC_439_">
		<path class="st5" d="M73.5,45.4c0,1.9,1.5,3.4,3.4,3.4"/>
	</g>
	<g id="POLYLINE_5582_">
		<line class="st5" x1="76.8" y1="44" x2="73.4" y2="44"/>
	</g>
	<g id="ARC_438_">
		<path class="st5" d="M73.4,44c0-1.9,1.5-3.4,3.4-3.4"/>
	</g>
	<g id="POLYLINE_5581_">
		<line class="st5" x1="79.8" y1="75.9" x2="79.8" y2="80.4"/>
	</g>
	<g id="ARC_437_">
		<path class="st5" d="M79.8,80.4c-2.5,0-4.5-2-4.5-4.5"/>
	</g>
	<g id="POLYLINE_5580_">
		<line class="st5" x1="79.8" y1="34.8" x2="79.8" y2="30.3"/>
	</g>
	<g id="ARC_436_">
		<path class="st5" d="M79.8,30.3c-2.5,0-4.5,2-4.5,4.5"/>
	</g>
	<g id="LINE_709_">
		<line class="st5" x1="59.8" y1="102.9" x2="49.9" y2="102.9"/>
	</g>
	<g id="LINE_708_">
		<line class="st5" x1="59.8" y1="101.7" x2="49.9" y2="101.7"/>
	</g>
	<g id="LINE_707_">
		<line class="st5" x1="59.8" y1="104.2" x2="49.9" y2="104.2"/>
	</g>
	<g id="LINE_706_">
		<line class="st5" x1="59.8" y1="96.5" x2="49.9" y2="96.5"/>
	</g>
	<g id="LINE_705_">
		<line class="st5" x1="59.8" y1="94" x2="49.9" y2="94"/>
	</g>
	<g id="POLYLINE_5579_">
		<polyline class="st5" points="18,28.1 3.9,28.1 3.9,252 82.9,252 82.9,28.1 67.3,28.1 		"/>
	</g>
	<g id="LINE_704_">
		<line class="st5" x1="43" y1="12" x2="55.9" y2="12"/>
	</g>
	<g id="LINE_703_">
		<line class="st5" x1="48.2" y1="6.3" x2="48.2" y2="17.8"/>
	</g>
	<g id="LINE_702_">
		<line class="st5" x1="55.9" y1="6.3" x2="55.9" y2="17.8"/>
	</g>
	<g id="LINE_701_">
		<line class="st5" x1="45.6" y1="6.3" x2="45.6" y2="17.8"/>
	</g>
	<g id="LINE_700_">
		<line class="st5" x1="43" y1="6.3" x2="43" y2="17.8"/>
	</g>
	<g id="LINE_699_">
		<line class="st5" x1="53.3" y1="6.3" x2="53.3" y2="17.8"/>
	</g>
	<g id="LINE_698_">
		<line class="st5" x1="52" y1="6.3" x2="52" y2="17.8"/>
	</g>
	<g id="LINE_697_">
		<line class="st5" x1="54.6" y1="6.3" x2="54.6" y2="17.8"/>
	</g>
	<g id="LINE_696_">
		<line class="st5" x1="46.9" y1="6.3" x2="46.9" y2="17.8"/>
	</g>
	<g id="LINE_695_">
		<line class="st5" x1="44.3" y1="6.3" x2="44.3" y2="17.8"/>
	</g>
	<g id="LINE_694_">
		<line class="st5" x1="59.8" y1="100.4" x2="54.9" y2="100.4"/>
	</g>
	<g id="LINE_693_">
		<line class="st5" x1="59.8" y1="99.1" x2="54.9" y2="99.1"/>
	</g>
	<g id="LINE_692_">
		<line class="st5" x1="52.4" y1="100.4" x2="54.9" y2="100.4"/>
	</g>
	<g id="LINE_691_">
		<line class="st5" x1="49.4" y1="6.3" x2="49.4" y2="12"/>
	</g>
	<g id="LINE_690_">
		<line class="st5" x1="49.4" y1="13.6" x2="49.4" y2="17.8"/>
	</g>
	<g id="LINE_689_">
		<line class="st5" x1="50.7" y1="6.3" x2="50.7" y2="14.9"/>
	</g>
	<g id="LINE_688_">
		<line class="st5" x1="50.7" y1="16.4" x2="50.7" y2="17.8"/>
	</g>
	<g id="POLYLINE_5578_">
		<polyline class="st5" points="49.9,99.1 52.4,99.1 53.6,99.1 		"/>
	</g>
	<g id="LINE_687_">
		<line class="st5" x1="51.1" y1="100.4" x2="49.9" y2="100.4"/>
	</g>
</g>
<g id="PLAN_x24_CLOISON_TRANSLUCIDE">
</g>
<g id="PLAN_x24_CLOISON_1.3">
	<g id="POLYLINE_5338_">
		<line class="st6" x1="77" y1="44" x2="76.8" y2="44"/>
	</g>
	<g id="POLYLINE_5337_">
		<line class="st6" x1="76.8" y1="44" x2="76.8" y2="44.6"/>
	</g>
	<g id="POLYLINE_5336_">
		<polyline class="st6" points="76.8,44.6 68.8,44.6 68.8,44.9 76.8,44.9 		"/>
	</g>
	<g id="POLYLINE_5335_">
		<line class="st6" x1="76.8" y1="44.9" x2="76.8" y2="45.4"/>
	</g>
	<g id="POLYLINE_5334_">
		<line class="st6" x1="76.8" y1="45.4" x2="77" y2="45.4"/>
	</g>
	<g id="POLYLINE_5333_">
		<line class="st6" x1="77" y1="45.4" x2="77" y2="44"/>
	</g>
	<g id="LINE_680_">
		<line class="st6" x1="76.8" y1="40.6" x2="77" y2="40.6"/>
	</g>
	<g id="POLYLINE_5332_">
		<polyline class="st6" points="77,40.6 77,39.9 68.8,39.9 68.8,40.2 76.8,40.2 76.8,40.6 		"/>
	</g>
	<g id="POLYLINE_5331_">
		<line class="st6" x1="77" y1="48.8" x2="76.8" y2="48.8"/>
	</g>
	<g id="POLYLINE_5330_">
		<line class="st6" x1="76.8" y1="48.8" x2="76.8" y2="49.3"/>
	</g>
	<g id="POLYLINE_5329_">
		<polyline class="st6" points="76.8,49.3 68.8,49.3 68.8,49.6 76.8,49.6 		"/>
	</g>
	<g id="POLYLINE_5328_">
		<line class="st6" x1="76.8" y1="49.6" x2="76.8" y2="50.2"/>
	</g>
	<g id="POLYLINE_5327_">
		<line class="st6" x1="76.8" y1="50.2" x2="77" y2="50.2"/>
	</g>
	<g id="POLYLINE_5326_">
		<line class="st6" x1="77" y1="50.2" x2="77" y2="48.8"/>
	</g>
	<g id="POLYLINE_5325_">
		<line class="st6" x1="76.8" y1="59.5" x2="76.8" y2="59"/>
	</g>
	<g id="POLYLINE_5324_">
		<line class="st6" x1="76.8" y1="59" x2="77" y2="59"/>
	</g>
	<g id="POLYLINE_5323_">
		<line class="st6" x1="77" y1="59" x2="77" y2="60.3"/>
	</g>
	<g id="POLYLINE_5322_">
		<line class="st6" x1="77" y1="60.3" x2="76.8" y2="60.3"/>
	</g>
	<g id="POLYLINE_5321_">
		<line class="st6" x1="76.8" y1="60.3" x2="76.8" y2="59.8"/>
	</g>
	<g id="POLYLINE_5320_">
		<polyline class="st6" points="76.8,59.8 68.8,59.8 68.8,59.5 76.8,59.5 		"/>
	</g>
	<g id="POLYLINE_5319_">
		<polyline class="st6" points="77,68.5 77,69.2 68.8,69.2 68.8,68.9 76.8,68.9 76.8,68.5 		"/>
	</g>
	<g id="LINE_679_">
		<line class="st6" x1="76.8" y1="68.5" x2="77" y2="68.5"/>
	</g>
	<g id="POLYLINE_5318_">
		<line class="st6" x1="76.8" y1="64.3" x2="76.8" y2="63.7"/>
	</g>
	<g id="POLYLINE_5317_">
		<line class="st6" x1="76.8" y1="63.7" x2="77" y2="63.7"/>
	</g>
	<g id="POLYLINE_5316_">
		<line class="st6" x1="77" y1="63.7" x2="77" y2="65.1"/>
	</g>
	<g id="POLYLINE_5315_">
		<line class="st6" x1="77" y1="65.1" x2="76.8" y2="65.1"/>
	</g>
	<g id="POLYLINE_5314_">
		<line class="st6" x1="76.8" y1="65.1" x2="76.8" y2="64.5"/>
	</g>
	<g id="POLYLINE_5313_">
		<polyline class="st6" points="76.8,64.5 68.8,64.5 68.8,64.3 76.8,64.3 		"/>
	</g>
	<g id="POLYLINE_5312_">
		<rect x="76.8" y="55.1" class="st6" width="0.3" height="0.4"/>
	</g>
	<g id="POLYLINE_5311_">
		<rect x="76.8" y="53.6" class="st6" width="0.3" height="0.4"/>
	</g>
</g>
<g id="PLAN_x24_CLOISON_1.2">
	<g id="POLYLINE_6584_">
		<line class="st7" x1="70.3" y1="142.3" x2="68.3" y2="142.3"/>
	</g>
	<g id="POLYLINE_6583_">
		<line class="st7" x1="68.3" y1="142.3" x2="68.3" y2="151.4"/>
	</g>
	<g id="POLYLINE_6582_">
		<line class="st7" x1="68.3" y1="151.4" x2="68.9" y2="151.4"/>
	</g>
	<g id="POLYLINE_6581_">
		<line class="st7" x1="68.9" y1="151.4" x2="68.9" y2="143"/>
	</g>
	<g id="POLYLINE_6580_">
		<polyline class="st7" points="68.9,143 82.9,143 82.9,142.3 68.7,142.3 		"/>
	</g>
	<g id="POLYLINE_6579_">
		<line class="st7" x1="68.9" y1="155.4" x2="68.3" y2="155.4"/>
	</g>
	<g id="POLYLINE_6578_">
		<polyline class="st7" points="68.3,155.4 68.3,156.6 79.8,156.6 79.8,155.9 68.9,155.9 68.9,155.4 		"/>
	</g>
	<g id="POLYLINE_6577_">
		<line class="st7" x1="70.3" y1="128.8" x2="68.3" y2="128.8"/>
	</g>
	<g id="POLYLINE_6576_">
		<line class="st7" x1="68.3" y1="128.8" x2="68.3" y2="138.4"/>
	</g>
	<g id="POLYLINE_6575_">
		<line class="st7" x1="68.3" y1="138.4" x2="68.9" y2="138.4"/>
	</g>
	<g id="POLYLINE_6574_">
		<line class="st7" x1="68.9" y1="138.4" x2="68.9" y2="129.5"/>
	</g>
	<g id="POLYLINE_6573_">
		<polyline class="st7" points="68.9,129.5 82.9,129.5 82.9,128.8 68.7,128.8 		"/>
	</g>
	<g id="POLYLINE_6572_">
		<polyline class="st7" points="68.9,124.8 68.9,117.1 68.3,117.1 68.3,124.8 		"/>
	</g>
	<g id="POLYLINE_6571_">
		<line class="st7" x1="68.3" y1="124.8" x2="68.9" y2="124.8"/>
	</g>
	<g id="POLYLINE_6570_">
		<line class="st7" x1="25.5" y1="90.1" x2="26.2" y2="90.1"/>
	</g>
	<g id="POLYLINE_6569_">
		<polyline class="st7" points="26.2,90.1 26.2,76.5 25.5,76.5 25.5,90.1 		"/>
	</g>
	<g id="POLYLINE_6568_">
		<line class="st7" x1="25.5" y1="96.4" x2="26.2" y2="96.4"/>
	</g>
	<g id="POLYLINE_6567_">
		<line class="st7" x1="26.2" y1="96.4" x2="26.2" y2="94.1"/>
	</g>
	<g id="POLYLINE_6566_">
		<line class="st7" x1="26.2" y1="94.1" x2="25.5" y2="94.1"/>
	</g>
	<g id="POLYLINE_6565_">
		<line class="st7" x1="25.5" y1="94.1" x2="25.5" y2="94.9"/>
	</g>
	<g id="POLYLINE_6564_">
		<polyline class="st7" points="25.5,94.9 3.9,94.9 3.9,95.6 25.5,95.6 		"/>
	</g>
	<g id="POLYLINE_6563_">
		<line class="st7" x1="25.5" y1="95.6" x2="25.5" y2="96.4"/>
	</g>
	<g id="POLYLINE_6562_">
		<line class="st7" x1="25.5" y1="130.8" x2="26.2" y2="130.8"/>
	</g>
	<g id="POLYLINE_6561_">
		<line class="st7" x1="26.2" y1="130.8" x2="26.2" y2="100.3"/>
	</g>
	<g id="POLYLINE_6560_">
		<line class="st7" x1="26.2" y1="100.3" x2="25.5" y2="100.3"/>
	</g>
	<g id="POLYLINE_6559_">
		<line class="st7" x1="25.5" y1="100.3" x2="25.5" y2="115.2"/>
	</g>
	<g id="POLYLINE_6558_">
		<polyline class="st7" points="25.5,115.2 7,115.2 7,115.9 25.5,115.9 		"/>
	</g>
	<g id="POLYLINE_6557_">
		<line class="st7" x1="25.5" y1="115.9" x2="25.5" y2="130.8"/>
	</g>
	<g id="POLYLINE_6556_">
		<line class="st7" x1="25.5" y1="137" x2="26.2" y2="137"/>
	</g>
	<g id="POLYLINE_6555_">
		<line class="st7" x1="26.2" y1="137" x2="26.2" y2="134.8"/>
	</g>
	<g id="POLYLINE_6554_">
		<line class="st7" x1="26.2" y1="134.8" x2="25.5" y2="134.8"/>
	</g>
	<g id="POLYLINE_6553_">
		<line class="st7" x1="25.5" y1="134.8" x2="25.5" y2="135.6"/>
	</g>
	<g id="POLYLINE_6552_">
		<polyline class="st7" points="25.5,135.6 3.9,135.6 3.9,136.2 25.5,136.2 		"/>
	</g>
	<g id="POLYLINE_6551_">
		<line class="st7" x1="25.5" y1="136.2" x2="25.5" y2="137"/>
	</g>
	<g id="POLYLINE_6550_">
		<line class="st7" x1="25.5" y1="171.5" x2="26.2" y2="171.5"/>
	</g>
	<g id="POLYLINE_6549_">
		<line class="st7" x1="26.2" y1="171.5" x2="26.2" y2="141"/>
	</g>
	<g id="POLYLINE_6548_">
		<line class="st7" x1="26.2" y1="141" x2="25.5" y2="141"/>
	</g>
	<g id="POLYLINE_6547_">
		<line class="st7" x1="25.5" y1="141" x2="25.5" y2="155.9"/>
	</g>
	<g id="POLYLINE_6546_">
		<polyline class="st7" points="25.5,155.9 7,155.9 7,156.6 25.5,156.6 		"/>
	</g>
	<g id="POLYLINE_6545_">
		<line class="st7" x1="25.5" y1="156.6" x2="25.5" y2="171.5"/>
	</g>
	<g id="POLYLINE_6544_">
		<line class="st7" x1="26.2" y1="175.4" x2="25.5" y2="175.4"/>
	</g>
	<g id="POLYLINE_6543_">
		<line class="st7" x1="25.5" y1="175.4" x2="25.5" y2="176.2"/>
	</g>
	<g id="POLYLINE_6542_">
		<polyline class="st7" points="25.5,176.2 3.9,176.2 3.9,176.9 25.5,176.9 		"/>
	</g>
	<g id="POLYLINE_6541_">
		<line class="st7" x1="25.5" y1="176.9" x2="25.5" y2="177.7"/>
	</g>
	<g id="POLYLINE_6540_">
		<line class="st7" x1="25.5" y1="177.7" x2="26.2" y2="177.7"/>
	</g>
	<g id="POLYLINE_6539_">
		<line class="st7" x1="26.2" y1="177.7" x2="26.2" y2="175.4"/>
	</g>
	<g id="POLYLINE_6538_">
		<line class="st7" x1="25.5" y1="181.7" x2="26.2" y2="181.7"/>
	</g>
	<g id="POLYLINE_6537_">
		<polyline class="st7" points="26.2,181.7 26.2,197.2 7,197.2 7,196.6 25.5,196.6 25.5,181.7 		"/>
	</g>
</g>
<g id="PLAN_x24_CLOISON_1.1">
</g>
<g id="PLAN_x24_STRUCTURE_2.3">
</g>
<g id="PLAN_x24_STRUCTURE_2.2">
	<g id="POLYLINE_6173_">
		<line class="st8" x1="3.9" y1="74.9" x2="2.1" y2="74.9"/>
	</g>
	<g id="POLYLINE_6172_">
		<line class="st8" x1="3.9" y1="81.7" x2="2.1" y2="81.7"/>
	</g>
	<g id="POLYLINE_6171_">
		<line class="st8" x1="3.9" y1="68.1" x2="2.1" y2="68.1"/>
	</g>
	<g id="POLYLINE_6170_">
		<line class="st8" x1="3.9" y1="61.3" x2="2.1" y2="61.3"/>
	</g>
	<g id="POLYLINE_6169_">
		<line class="st8" x1="3.9" y1="54.6" x2="2.1" y2="54.6"/>
	</g>
	<g id="POLYLINE_6168_">
		<line class="st8" x1="3.9" y1="41" x2="2.1" y2="41"/>
	</g>
	<g id="POLYLINE_6167_">
		<line class="st8" x1="3.9" y1="47.8" x2="2.1" y2="47.8"/>
	</g>
	<g id="POLYLINE_6166_">
		<line class="st8" x1="3.9" y1="34.2" x2="2.1" y2="34.2"/>
	</g>
	<g id="POLYLINE_6165_">
		<line class="st8" x1="3.9" y1="28.5" x2="2.1" y2="28.5"/>
	</g>
	<g id="POLYLINE_6164_">
		<line class="st8" x1="3.9" y1="88.5" x2="2.1" y2="88.5"/>
	</g>
	<g id="POLYLINE_6163_">
		<line class="st8" x1="3.9" y1="95.2" x2="2.1" y2="95.2"/>
	</g>
	<g id="POLYLINE_6162_">
		<line class="st8" x1="3.9" y1="102" x2="2.1" y2="102"/>
	</g>
	<g id="POLYLINE_6161_">
		<line class="st8" x1="3.9" y1="108.8" x2="2.1" y2="108.8"/>
	</g>
	<g id="POLYLINE_6160_">
		<line class="st8" x1="3.9" y1="115.6" x2="2.1" y2="115.6"/>
	</g>
	<g id="POLYLINE_6159_">
		<line class="st8" x1="3.9" y1="122.3" x2="2.1" y2="122.3"/>
	</g>
	<g id="POLYLINE_6158_">
		<line class="st8" x1="3.9" y1="129.1" x2="2.1" y2="129.1"/>
	</g>
	<g id="POLYLINE_6157_">
		<line class="st8" x1="3.9" y1="135.9" x2="2.1" y2="135.9"/>
	</g>
	<g id="POLYLINE_6156_">
		<line class="st8" x1="3.9" y1="142.7" x2="2.1" y2="142.7"/>
	</g>
	<g id="POLYLINE_6155_">
		<line class="st8" x1="3.9" y1="149.5" x2="2.1" y2="149.5"/>
	</g>
	<g id="POLYLINE_6154_">
		<line class="st8" x1="3.9" y1="156.2" x2="2.1" y2="156.2"/>
	</g>
	<g id="POLYLINE_6153_">
		<line class="st8" x1="3.9" y1="163" x2="2.1" y2="163"/>
	</g>
	<g id="POLYLINE_6152_">
		<line class="st8" x1="3.9" y1="169.8" x2="2.1" y2="169.8"/>
	</g>
	<g id="POLYLINE_6151_">
		<line class="st8" x1="3.9" y1="176.6" x2="2.1" y2="176.6"/>
	</g>
	<g id="POLYLINE_6150_">
		<line class="st8" x1="3.9" y1="183.3" x2="2.1" y2="183.3"/>
	</g>
	<g id="POLYLINE_6149_">
		<line class="st8" x1="3.9" y1="190.1" x2="2.1" y2="190.1"/>
	</g>
	<g id="POLYLINE_6148_">
		<line class="st8" x1="3.9" y1="196.9" x2="2.1" y2="196.9"/>
	</g>
	<g id="POLYLINE_6147_">
		<line class="st8" x1="3.9" y1="203.7" x2="2.1" y2="203.7"/>
	</g>
	<g id="POLYLINE_6146_">
		<line class="st8" x1="3.9" y1="210.5" x2="2.1" y2="210.5"/>
	</g>
	<g id="POLYLINE_6145_">
		<line class="st8" x1="3.9" y1="217.2" x2="2.1" y2="217.2"/>
	</g>
	<g id="POLYLINE_6144_">
		<line class="st8" x1="3.9" y1="224" x2="2.1" y2="224"/>
	</g>
	<g id="POLYLINE_6143_">
		<line class="st8" x1="3.9" y1="230.8" x2="2.1" y2="230.8"/>
	</g>
	<g id="POLYLINE_6142_">
		<line class="st8" x1="3.9" y1="237.6" x2="2.1" y2="237.6"/>
	</g>
	<g id="POLYLINE_6141_">
		<line class="st8" x1="3.9" y1="244.6" x2="2.1" y2="244.6"/>
	</g>
	<g id="POLYLINE_6140_">
		<line class="st8" x1="3.9" y1="251.6" x2="2.1" y2="251.6"/>
	</g>
	<g id="POLYLINE_6139_">
		<line class="st8" x1="4.3" y1="252" x2="4.3" y2="253.8"/>
	</g>
	<g id="POLYLINE_6138_">
		<line class="st8" x1="11.4" y1="252" x2="11.4" y2="253.8"/>
	</g>
	<g id="POLYLINE_6137_">
		<line class="st8" x1="18.5" y1="252" x2="18.5" y2="253.8"/>
	</g>
	<g id="POLYLINE_5638_">
		<line class="st8" x1="25.6" y1="252" x2="25.6" y2="253.8"/>
	</g>
	<g id="POLYLINE_5637_">
		<line class="st8" x1="32.7" y1="252" x2="32.7" y2="253.8"/>
	</g>
	<g id="POLYLINE_5636_">
		<line class="st8" x1="39.8" y1="252" x2="39.8" y2="253.8"/>
	</g>
	<g id="POLYLINE_5635_">
		<line class="st8" x1="75.4" y1="252" x2="75.4" y2="253.8"/>
	</g>
	<g id="POLYLINE_5634_">
		<line class="st8" x1="61.2" y1="252" x2="61.2" y2="253.8"/>
	</g>
	<g id="POLYLINE_5633_">
		<line class="st8" x1="54.1" y1="252" x2="54.1" y2="253.8"/>
	</g>
	<g id="POLYLINE_5310_">
		<line class="st8" x1="47" y1="252" x2="47" y2="253.8"/>
	</g>
	<g id="POLYLINE_5309_">
		<line class="st8" x1="82.5" y1="252" x2="82.5" y2="253.8"/>
	</g>
	<g id="POLYLINE_5308_">
		<line class="st8" x1="68.3" y1="252" x2="68.3" y2="253.8"/>
	</g>
	<g id="POLYLINE_5307_">
		<line class="st8" x1="4.3" y1="28.1" x2="4.3" y2="26.3"/>
	</g>
	<g id="POLYLINE_5306_">
		<line class="st8" x1="11.3" y1="28.1" x2="11.3" y2="26.3"/>
	</g>
	<g id="POLYLINE_5305_">
		<line class="st8" x1="82.9" y1="74.9" x2="84.7" y2="74.9"/>
	</g>
	<g id="POLYLINE_5304_">
		<line class="st8" x1="82.9" y1="81.7" x2="84.7" y2="81.7"/>
	</g>
	<g id="POLYLINE_5303_">
		<line class="st8" x1="82.9" y1="68.1" x2="84.7" y2="68.1"/>
	</g>
	<g id="POLYLINE_5302_">
		<line class="st8" x1="82.9" y1="61.3" x2="84.7" y2="61.3"/>
	</g>
	<g id="POLYLINE_5301_">
		<line class="st8" x1="82.9" y1="54.6" x2="84.7" y2="54.6"/>
	</g>
	<g id="POLYLINE_5300_">
		<line class="st8" x1="82.9" y1="41" x2="84.7" y2="41"/>
	</g>
	<g id="POLYLINE_5299_">
		<line class="st8" x1="82.9" y1="47.8" x2="84.7" y2="47.8"/>
	</g>
	<g id="POLYLINE_5298_">
		<line class="st8" x1="82.9" y1="34.2" x2="84.7" y2="34.2"/>
	</g>
	<g id="POLYLINE_5297_">
		<line class="st8" x1="82.9" y1="28.5" x2="84.7" y2="28.5"/>
	</g>
	<g id="POLYLINE_5296_">
		<line class="st8" x1="82.9" y1="88.5" x2="84.7" y2="88.5"/>
	</g>
	<g id="POLYLINE_5295_">
		<line class="st8" x1="82.9" y1="95.2" x2="84.7" y2="95.2"/>
	</g>
	<g id="POLYLINE_5294_">
		<line class="st8" x1="82.9" y1="102" x2="84.7" y2="102"/>
	</g>
	<g id="POLYLINE_5293_">
		<line class="st8" x1="82.9" y1="108.8" x2="84.7" y2="108.8"/>
	</g>
	<g id="POLYLINE_5292_">
		<line class="st8" x1="82.9" y1="115.6" x2="84.7" y2="115.6"/>
	</g>
	<g id="POLYLINE_5291_">
		<line class="st8" x1="82.9" y1="122.3" x2="84.7" y2="122.3"/>
	</g>
	<g id="POLYLINE_5290_">
		<line class="st8" x1="82.9" y1="129.1" x2="84.7" y2="129.1"/>
	</g>
	<g id="POLYLINE_5289_">
		<line class="st8" x1="82.9" y1="135.9" x2="84.7" y2="135.9"/>
	</g>
	<g id="POLYLINE_5288_">
		<line class="st8" x1="82.9" y1="142.7" x2="84.7" y2="142.7"/>
	</g>
	<g id="POLYLINE_5287_">
		<line class="st8" x1="82.9" y1="149.5" x2="84.7" y2="149.5"/>
	</g>
	<g id="POLYLINE_5286_">
		<line class="st8" x1="82.9" y1="156.2" x2="84.7" y2="156.2"/>
	</g>
	<g id="POLYLINE_5285_">
		<line class="st8" x1="82.9" y1="163" x2="84.7" y2="163"/>
	</g>
	<g id="POLYLINE_5284_">
		<line class="st8" x1="82.9" y1="169.8" x2="84.7" y2="169.8"/>
	</g>
	<g id="POLYLINE_5283_">
		<line class="st8" x1="82.9" y1="176.6" x2="84.7" y2="176.6"/>
	</g>
	<g id="POLYLINE_5282_">
		<line class="st8" x1="82.9" y1="183.3" x2="84.7" y2="183.3"/>
	</g>
	<g id="POLYLINE_5281_">
		<line class="st8" x1="82.9" y1="190.1" x2="84.7" y2="190.1"/>
	</g>
	<g id="POLYLINE_5280_">
		<line class="st8" x1="82.9" y1="196.9" x2="84.7" y2="196.9"/>
	</g>
	<g id="POLYLINE_5279_">
		<line class="st8" x1="82.9" y1="203.7" x2="84.7" y2="203.7"/>
	</g>
	<g id="POLYLINE_5278_">
		<line class="st8" x1="82.9" y1="210.5" x2="84.7" y2="210.5"/>
	</g>
	<g id="POLYLINE_5277_">
		<line class="st8" x1="82.9" y1="217.2" x2="84.7" y2="217.2"/>
	</g>
	<g id="POLYLINE_5276_">
		<line class="st8" x1="82.9" y1="224" x2="84.7" y2="224"/>
	</g>
	<g id="POLYLINE_5275_">
		<line class="st8" x1="82.9" y1="230.8" x2="84.7" y2="230.8"/>
	</g>
	<g id="POLYLINE_5274_">
		<line class="st8" x1="82.9" y1="237.6" x2="84.7" y2="237.6"/>
	</g>
	<g id="POLYLINE_5273_">
		<line class="st8" x1="82.9" y1="244.6" x2="84.7" y2="244.6"/>
	</g>
	<g id="POLYLINE_5272_">
		<line class="st8" x1="82.5" y1="28.1" x2="82.5" y2="26.3"/>
	</g>
	<g id="POLYLINE_5271_">
		<line class="st8" x1="75.5" y1="28.1" x2="75.5" y2="26.3"/>
	</g>
	<g id="POLYLINE_5146_">
		<line class="st8" x1="82.9" y1="251.6" x2="84.7" y2="251.6"/>
	</g>
</g>
<g id="PLAN_x24_STRUCTURE_2.1">
</g>
<g id="PLAN_x24_STRUCTURE_1.3">
	<g id="POLYLINE_4967_">
		<line class="st9" x1="20.7" y1="26.8" x2="20.7" y2="28.1"/>
	</g>
	<g id="LINE_678_">
		<line class="st9" x1="20.7" y1="28.1" x2="20.7" y2="27"/>
	</g>
	<g id="POLYLINE_4966_">
		<line class="st9" x1="32.1" y1="18.9" x2="32.1" y2="27"/>
	</g>
	<g id="POLYLINE_4965_">
		<polyline class="st9" points="32.1,27 56,27 56,18.9 36.4,18.9 		"/>
	</g>
	<g id="POLYLINE_4964_">
		<line class="st9" x1="36.4" y1="18.9" x2="32.1" y2="18.9"/>
	</g>
	<g id="POLYLINE_4963_">
		<polyline class="st9" points="25.5,73.6 25.5,71.5 19.7,71.5 19.7,70.4 25.5,70.4 25.5,66.5 		"/>
	</g>
	<g id="POLYLINE_4962_">
		<polyline class="st9" points="25.5,66.5 19.7,66.5 19.7,62.8 		"/>
	</g>
	<g id="POLYLINE_4961_">
		<polyline class="st9" points="19.7,62.8 8.7,62.8 8.7,61.6 19.7,61.6 		"/>
	</g>
	<g id="POLYLINE_4960_">
		<polyline class="st9" points="19.7,61.6 19.7,58.6 20.8,58.6 20.8,65.4 25.5,65.4 		"/>
	</g>
	<g id="LINE_677_">
		<line class="st9" x1="25.5" y1="65.4" x2="25.5" y2="37.3"/>
	</g>
	<g id="POLYLINE_4959_">
		<line class="st9" x1="25.5" y1="37.3" x2="25.5" y2="35.4"/>
	</g>
	<g id="POLYLINE_4958_">
		<polyline class="st9" points="25.5,35.4 20.8,35.4 20.8,42.2 19.7,42.2 19.7,34.2 25.8,34.2 		"/>
	</g>
	<g id="POLYLINE_4957_">
		<polyline class="st9" points="25.5,73.3 25.5,75.3 7,75.3 		"/>
	</g>
	<g id="POLYLINE_4956_">
		<polyline class="st9" points="7,75.3 7,73.3 3.9,73.3 3.9,76.5 7,76.5 		"/>
	</g>
	<g id="POLYLINE_4955_">
		<line class="st9" x1="51.9" y1="53" x2="53.6" y2="53"/>
	</g>
	<g id="LINE_676_">
		<line class="st9" x1="53.6" y1="53" x2="53.6" y2="46.2"/>
	</g>
	<g id="POLYLINE_4875_">
		<line class="st9" x1="53.6" y1="46.2" x2="51.9" y2="46.2"/>
	</g>
	<g id="LINE_645_">
		<line class="st9" x1="51.9" y1="46.2" x2="51.9" y2="53"/>
	</g>
	<g id="POLYLINE_4874_">
		<line class="st9" x1="25.5" y1="34.2" x2="28.7" y2="34.2"/>
	</g>
	<g id="POLYLINE_4873_">
		<polyline class="st9" points="28.7,34.2 38.8,34.2 38.8,53 		"/>
	</g>
	<g id="POLYLINE_4872_">
		<line class="st9" x1="38.8" y1="53" x2="37.1" y2="53"/>
	</g>
	<g id="POLYLINE_4871_">
		<polyline class="st9" points="37.1,53 37.1,35.9 28.7,35.9 		"/>
	</g>
	<g id="POLYLINE_4870_">
		<polyline class="st9" points="28.7,35.9 28.7,37.3 26.7,37.3 		"/>
	</g>
	<g id="POLYLINE_4869_">
		<polyline class="st9" points="26.7,37.3 26.7,73.3 28.7,73.3 28.7,74.8 37.1,74.8 37.1,70.2 		"/>
	</g>
	<g id="POLYLINE_4868_">
		<line class="st9" x1="37.1" y1="70.2" x2="38.8" y2="70.2"/>
	</g>
	<g id="POLYLINE_4867_">
		<polyline class="st9" points="38.8,70.2 38.8,76.5 28,76.5 		"/>
	</g>
	<g id="POLYLINE_4866_">
		<line class="st9" x1="51.9" y1="65.1" x2="53.6" y2="65.1"/>
	</g>
	<g id="LINE_644_">
		<line class="st9" x1="53.6" y1="65.1" x2="53.6" y2="58.1"/>
	</g>
	<g id="POLYLINE_4865_">
		<line class="st9" x1="53.6" y1="58.1" x2="51.9" y2="58.1"/>
	</g>
	<g id="LINE_643_">
		<line class="st9" x1="51.9" y1="58.1" x2="51.9" y2="65.1"/>
	</g>
	<g id="POLYLINE_4864_">
		<line class="st9" x1="37.1" y1="65.1" x2="38.8" y2="65.1"/>
	</g>
	<g id="POLYLINE_4863_">
		<line class="st9" x1="38.8" y1="65.1" x2="38.8" y2="58.1"/>
	</g>
	<g id="POLYLINE_4862_">
		<line class="st9" x1="38.8" y1="58.1" x2="37.1" y2="58.1"/>
	</g>
	<g id="POLYLINE_4861_">
		<line class="st9" x1="37.1" y1="58.1" x2="37.1" y2="65.1"/>
	</g>
	<g id="LINE_642_">
		<line class="st9" x1="68.8" y1="34.2" x2="65" y2="34.2"/>
	</g>
	<g id="LINE_641_">
		<line class="st9" x1="65" y1="34.2" x2="61.9" y2="34.2"/>
	</g>
	<g id="POLYLINE_4859_">
		<polyline class="st9" points="61.9,34.2 51.9,34.2 51.9,41.1 		"/>
	</g>
	<g id="POLYLINE_4858_">
		<line class="st9" x1="51.9" y1="41.1" x2="53.6" y2="41.1"/>
	</g>
	<g id="POLYLINE_4857_">
		<polyline class="st9" points="53.6,41.1 53.6,35.9 61.9,35.9 		"/>
	</g>
	<g id="POLYLINE_4856_">
		<polyline class="st9" points="61.9,35.9 61.9,37.3 63.9,37.3 		"/>
	</g>
	<g id="POLYLINE_4855_">
		<polyline class="st9" points="63.9,37.3 63.9,73.3 65,73.3 65,37.3 		"/>
	</g>
	<g id="LINE_640_">
		<line class="st9" x1="65" y1="37.3" x2="65" y2="35.4"/>
	</g>
	<g id="POLYLINE_4854_">
		<polyline class="st9" points="65,35.4 67.7,35.4 67.7,75.3 65,75.3 		"/>
	</g>
	<g id="POLYLINE_4853_">
		<polyline class="st9" points="65,75.3 65,73.3 61.9,73.3 61.9,74.8 		"/>
	</g>
	<g id="POLYLINE_4852_">
		<polyline class="st9" points="61.9,74.8 53.6,74.8 53.6,70.2 		"/>
	</g>
	<g id="POLYLINE_4851_">
		<line class="st9" x1="53.6" y1="70.2" x2="51.9" y2="70.2"/>
	</g>
	<g id="POLYLINE_4850_">
		<polyline class="st9" points="51.9,70.2 51.9,76.5 61.9,76.5 		"/>
	</g>
	<g id="POLYLINE_4845_">
		<line class="st9" x1="61.9" y1="76.5" x2="65" y2="76.5"/>
	</g>
	<g id="POLYLINE_4755_">
		<line class="st9" x1="65" y1="76.5" x2="68.8" y2="76.5"/>
	</g>
	<g id="POLYLINE_4754_">
		<polyline class="st9" points="68.2,34.2 75.2,34.2 75.2,35.4 68.8,35.4 		"/>
	</g>
	<g id="LINE_639_">
		<line class="st9" x1="68.8" y1="35.4" x2="68.8" y2="54"/>
	</g>
	<g id="POLYLINE_4753_">
		<polyline class="st9" points="68.8,54 82.9,54 82.9,55.1 68.8,55.1 		"/>
	</g>
	<g id="LINE_638_">
		<line class="st9" x1="68.8" y1="55.1" x2="68.8" y2="75.3"/>
	</g>
	<g id="POLYLINE_4752_">
		<polyline class="st9" points="68.8,75.3 75.2,75.3 75.2,76.5 68.2,76.5 		"/>
	</g>
	<g id="POLYLINE_4751_">
		<polyline class="st9" points="79.8,117.1 82.9,117.1 82.9,114 79.8,114 79.8,116 		"/>
	</g>
	<g id="LINE_637_">
		<line class="st9" x1="79.8" y1="116" x2="66.1" y2="116"/>
	</g>
	<g id="POLYLINE_4750_">
		<line class="st9" x1="66.1" y1="116" x2="66.1" y2="117.1"/>
	</g>
	<g id="LINE_636_">
		<line class="st9" x1="66.1" y1="117.1" x2="80.3" y2="117.1"/>
	</g>
	<g id="POLYLINE_4749_">
		<line class="st9" x1="61" y1="115.3" x2="61" y2="117.1"/>
	</g>
	<g id="POLYLINE_4748_">
		<line class="st9" x1="61" y1="117.1" x2="61" y2="116"/>
	</g>
	<g id="POLYLINE_4747_">
		<line class="st9" x1="48.8" y1="108.9" x2="49.9" y2="108.9"/>
	</g>
	<g id="POLYLINE_4746_">
		<polyline class="st9" points="49.9,108.9 49.9,87.6 59.8,87.6 59.8,116 51.9,116 		"/>
	</g>
	<g id="POLYLINE_4745_">
		<polyline class="st9" points="51.9,116 51.9,114 48.8,114 48.8,117.1 51.9,117.1 		"/>
	</g>
	<g id="POLYLINE_4744_">
		<polyline class="st9" points="51.9,117.1 61,117.1 61,89.2 		"/>
	</g>
	<g id="POLYLINE_4715_">
		<polyline class="st9" points="61,89.2 82.9,89.2 82.9,88.1 61,88.1 		"/>
	</g>
	<g id="POLYLINE_4714_">
		<polyline class="st9" points="61,88.1 61,86.5 48.8,86.5 48.8,108.9 		"/>
	</g>
	<g id="LINE_623_">
		<line class="st9" x1="48.8" y1="114" x2="49.9" y2="114"/>
	</g>
	<g id="POLYLINE_4686_">
		<line class="st9" x1="49.9" y1="114" x2="48.8" y2="114"/>
	</g>
	<g id="POLYLINE_4685_">
		<line class="st9" x1="67.3" y1="19.4" x2="65.2" y2="19.4"/>
	</g>
	<g id="LINE_622_">
		<line class="st9" x1="65.2" y1="19.4" x2="65.2" y2="7.4"/>
	</g>
	<g id="POLYLINE_4684_">
		<polyline class="st9" points="65.2,7.4 62.2,7.4 62.2,6.3 		"/>
	</g>
	<g id="LINE_621_">
		<line class="st9" x1="62.2" y1="6.3" x2="37.5" y2="6.3"/>
	</g>
	<g id="POLYLINE_4683_">
		<polyline class="st9" points="37.5,6.3 37.5,17.8 57.1,17.8 57.1,28.1 25.2,28.1 		"/>
	</g>
	<g id="POLYLINE_4682_">
		<line class="st9" x1="25.2" y1="28.1" x2="25.2" y2="27"/>
	</g>
	<g id="POLYLINE_4681_">
		<line class="st9" x1="25.2" y1="27" x2="30.9" y2="27"/>
	</g>
	<g id="POLYLINE_4680_">
		<line class="st9" x1="30.9" y1="27" x2="30.9" y2="18.9"/>
	</g>
	<g id="POLYLINE_4679_">
		<line class="st9" x1="30.9" y1="18.9" x2="20.7" y2="18.9"/>
	</g>
	<g id="POLYLINE_4678_">
		<polyline class="st9" points="20.7,18.9 20.7,28.1 18,28.1 18,26.3 18.6,26.3 18.6,4.3 67.3,4.3 67.3,19.4 		"/>
	</g>
	<g id="POLYLINE_4677_">
		<line class="st9" x1="67.3" y1="25.6" x2="65.2" y2="25.6"/>
	</g>
	<g id="POLYLINE_4676_">
		<polyline class="st9" points="65.2,25.6 65.2,28.1 67.3,28.1 67.3,25.6 		"/>
	</g>
	<g id="POLYLINE_4675_">
		<polyline class="st9" points="28.7,6.3 28.7,7.4 25.5,7.4 25.5,6.3 		"/>
	</g>
	<g id="POLYLINE_4674_">
		<polyline class="st9" points="25.5,6.3 20.7,6.3 20.7,17.8 		"/>
	</g>
	<g id="POLYLINE_4673_">
		<line class="st9" x1="20.7" y1="17.8" x2="36.4" y2="17.8"/>
	</g>
	<g id="POLYLINE_4672_">
		<line class="st9" x1="36.4" y1="17.8" x2="36.4" y2="6.3"/>
	</g>
	<g id="LINE_620_">
		<line class="st9" x1="36.4" y1="6.3" x2="28.7" y2="6.3"/>
	</g>
	<g id="POLYLINE_4671_">
		<rect x="3.9" y="236" class="st9" width="3.1" height="3.1"/>
	</g>
	<g id="POLYLINE_4670_">
		<rect x="48.8" y="236" class="st9" width="3.1" height="3.1"/>
	</g>
	<g id="POLYLINE_4669_">
		<rect x="79.8" y="236" class="st9" width="3.1" height="3.1"/>
	</g>
	<g id="POLYLINE_4668_">
		<rect x="79.8" y="195.3" class="st9" width="3.1" height="3.1"/>
	</g>
	<g id="POLYLINE_4667_">
		<rect x="48.8" y="195.3" class="st9" width="3.1" height="3.1"/>
	</g>
	<g id="POLYLINE_4666_">
		<rect x="3.9" y="195.3" class="st9" width="3.1" height="3.1"/>
	</g>
	<g id="POLYLINE_4547_">
		<rect x="79.8" y="154.7" class="st9" width="3.1" height="3.1"/>
	</g>
	<g id="POLYLINE_4546_">
		<rect x="48.8" y="154.7" class="st9" width="3.1" height="3.1"/>
	</g>
	<g id="POLYLINE_4545_">
		<rect x="3.9" y="154.7" class="st9" width="3.1" height="3.1"/>
	</g>
	<g id="POLYLINE_4482_">
		<rect x="3.9" y="114" class="st9" width="3.1" height="3.1"/>
	</g>
	<g id="POLYLINE_4481_">
		<rect x="79.8" y="32.7" class="st9" width="3.1" height="3.1"/>
	</g>
	<g id="POLYLINE_4480_">
		<rect x="3.9" y="32.7" class="st9" width="3.1" height="3.1"/>
	</g>
	<g id="POLYLINE_4479_">
		<rect x="79.8" y="73.3" class="st9" width="3.1" height="3.1"/>
	</g>
	<g id="POLYLINE_4478_">
		<rect x="37.7" y="86.5" class="st9" width="1.1" height="30.6"/>
	</g>
	<g id="POLYLINE_4477_">
		<line class="st9" x1="28.7" y1="4.3" x2="25.5" y2="4.3"/>
	</g>
	<g id="POLYLINE_4476_">
		<line class="st9" x1="65.3" y1="4.3" x2="62.2" y2="4.3"/>
	</g>
	<g id="LINE_619_">
		<line class="st9" x1="26" y1="76.5" x2="6.4" y2="76.5"/>
	</g>
	<g id="POLYLINE_4475_">
		<line class="st9" x1="25.5" y1="76.5" x2="28.7" y2="76.5"/>
	</g>
</g>
<g id="PLAN_x24_STRUCTURE_1.2">
</g>
<g id="PLAN_x24_STRUCTURE_1.1">
</g>
</svg>
