<?xml version="1.0" encoding="utf-8"?>
<!-- Generator: Adobe Illustrator 22.0.1, SVG Export Plug-In . SVG Version: 6.00 Build 0)  -->
<svg version="1.1" id="Calque_1" xmlns="http://www.w3.org/2000/svg" xmlns:xlink="http://www.w3.org/1999/xlink" x="0px" y="0px"
	 viewBox="0 0 294.4 95.6" style="enable-background:new 0 0 294.4 95.6;" xml:space="preserve">
<style type="text/css">
	.st0{display:none;}
	.st1{display:inline;}
	.st2{fill:none;}
	.st3{fill:none;stroke:#000000;stroke-width:0.1;stroke-linecap:square;stroke-miterlimit:10;stroke-dasharray:0.5,0.5;}
	.st4{fill:none;stroke:#000000;stroke-width:5.000000e-02;stroke-linecap:square;stroke-miterlimit:10;}
	.st5{fill:none;stroke:#000000;stroke-width:8.000000e-02;stroke-linecap:square;stroke-miterlimit:10;}
	.st6{fill:none;stroke:#000000;stroke-width:0.14;stroke-linecap:square;stroke-miterlimit:10;}
	.st7{fill:none;stroke:#000000;stroke-width:0.32;stroke-linecap:square;stroke-miterlimit:10;}
	.st8{fill:none;stroke:#000000;stroke-width:0.41;stroke-linecap:square;stroke-miterlimit:10;}
</style>
<g id="Calque_1_1_">
</g>
<g id="INFOS_x24_A4" class="st0">
	<g id="POLYLINE_4968_" class="st1">
		<rect x="-149.8" y="-365.1" class="st2" width="595.3" height="841.9"/>
	</g>
</g>
<g id="PLAN_x24_FOND">
</g>
<g id="PLAN_x24_POINTILLE">
	<g id="POLYLINE_6947_">
		<line class="st3" x1="56.1" y1="31.4" x2="53.3" y2="24.8"/>
	</g>
	<g id="POLYLINE_6946_">
		<line class="st3" x1="55.3" y1="31.4" x2="52.5" y2="24.8"/>
	</g>
</g>
<g id="PLAN_x24_VITRAGE">
	<g id="POLYLINE_6469_">
		<rect x="277.5" y="85.1" class="st4" width="9.9" height="0.3"/>
	</g>
	<g id="POLYLINE_6468_">
		<rect x="253" y="85.1" class="st4" width="9.3" height="0.3"/>
	</g>
	<g id="POLYLINE_6467_">
		
			<rect x="288.9" y="69" transform="matrix(6.899836e-03 -1 1 6.899836e-03 220.2626 360.0969)" class="st4" width="5.1" height="0.3"/>
	</g>
	<g id="POLYLINE_6466_">
		<rect x="99.1" y="22.9" class="st4" width="0.3" height="17.6"/>
	</g>
	<g id="ARC_510_">
		<path class="st4" d="M5.7,42.8c-2.4,2-3.9,5-4,8.1"/>
	</g>
	<g id="ARC_509_">
		<path class="st4" d="M13.4,39.8c-2.5-0.1-4.9,0.7-7,2.1"/>
	</g>
	<g id="LINE_726_">
		<line class="st4" x1="13.4" y1="39.8" x2="13.4" y2="40.1"/>
	</g>
	<g id="ARC_508_">
		<path class="st4" d="M13.4,40.1c-2.4-0.1-4.8,0.6-6.8,2"/>
	</g>
	<g id="ARC_463_">
		<path class="st4" d="M5.5,42.5c-2.5,2.1-4,5.1-4.1,8.3"/>
	</g>
	<g id="ARC_462_">
		<path class="st4" d="M1.7,52c0.1,2.6,1.1,5,2.8,6.9"/>
	</g>
	<g id="LINE_725_">
		<line class="st4" x1="4.4" y1="58.9" x2="4.2" y2="59.1"/>
	</g>
	<g id="ARC_461_">
		<path class="st4" d="M1.4,52c0.1,2.6,1.1,5.1,2.8,7.1"/>
	</g>
	<g id="ARC_460_">
		<path class="st4" d="M31.1,90.2c2.2,2.2,5.1,3.5,8.2,3.5"/>
	</g>
	<g id="LINE_724_">
		<line class="st4" x1="31.1" y1="90.2" x2="31.3" y2="90"/>
	</g>
	<g id="ARC_459_">
		<path class="st4" d="M31.3,90c2.1,2.2,5,3.4,8,3.4"/>
	</g>
	<g id="LINE_723_">
		<line class="st4" x1="39.4" y1="93.4" x2="39.4" y2="93.7"/>
	</g>
	<g id="POLYLINE_6465_">
		<rect x="189" y="40.6" class="st4" width="8.8" height="0.3"/>
	</g>
	<g id="POLYLINE_6464_">
		<rect x="179.1" y="40.6" class="st4" width="8.8" height="0.3"/>
	</g>
	<g id="POLYLINE_6463_">
		<rect x="169.2" y="40.6" class="st4" width="8.8" height="0.3"/>
	</g>
	<g id="POLYLINE_6462_">
		<rect x="159.3" y="40.6" class="st4" width="8.8" height="0.3"/>
	</g>
	<g id="POLYLINE_6461_">
		<rect x="149.4" y="40.6" class="st4" width="8.8" height="0.3"/>
	</g>
	<g id="POLYLINE_6460_">
		<rect x="139.5" y="40.6" class="st4" width="8.8" height="0.3"/>
	</g>
	<g id="POLYLINE_6459_">
		<rect x="129.6" y="40.6" class="st4" width="8.8" height="0.3"/>
	</g>
	<g id="POLYLINE_6458_">
		<rect x="119.7" y="40.6" class="st4" width="8.8" height="0.3"/>
	</g>
	<g id="POLYLINE_6457_">
		<rect x="109.8" y="40.6" class="st4" width="8.8" height="0.3"/>
	</g>
	<g id="POLYLINE_6456_">
		<rect x="99.9" y="40.6" class="st4" width="8.8" height="0.3"/>
	</g>
	<g id="POLYLINE_6455_">
		<rect x="24.4" y="39.8" class="st4" width="8.8" height="0.3"/>
	</g>
	<g id="POLYLINE_6454_">
		<rect x="14.5" y="39.8" class="st4" width="8.8" height="0.3"/>
	</g>
	<g id="POLYLINE_6453_">
		<rect x="7.8" y="58.8" transform="matrix(0.756 -0.6545 0.6545 0.756 -39.4136 20.632)" class="st4" width="0.3" height="8.9"/>
	</g>
	<g id="POLYLINE_6452_">
		<rect x="14.4" y="66.3" transform="matrix(0.756 -0.6545 0.6545 0.756 -42.7643 26.7605)" class="st4" width="0.3" height="8.9"/>
	</g>
	<g id="POLYLINE_6451_">
		<rect x="20.9" y="73.9" transform="matrix(0.756 -0.6545 0.6545 0.756 -46.1159 32.8894)" class="st4" width="0.3" height="8.9"/>
	</g>
	<g id="POLYLINE_6450_">
		<rect x="27.5" y="81.4" transform="matrix(0.756 -0.6545 0.6545 0.756 -49.4676 39.0183)" class="st4" width="0.3" height="8.9"/>
	</g>
	<g id="POLYLINE_6449_">
		<rect x="40.5" y="93.4" class="st4" width="8.8" height="0.3"/>
	</g>
	<g id="POLYLINE_6448_">
		<rect x="50.4" y="93.4" class="st4" width="8.8" height="0.3"/>
	</g>
	<g id="POLYLINE_6447_">
		<rect x="60.3" y="93.4" class="st4" width="8.8" height="0.3"/>
	</g>
	<g id="POLYLINE_6446_">
		<rect x="70.2" y="93.4" class="st4" width="8.8" height="0.3"/>
	</g>
	<g id="POLYLINE_6445_">
		<rect x="80.1" y="93.4" class="st4" width="8.8" height="0.3"/>
	</g>
	<g id="POLYLINE_6444_">
		<rect x="90" y="93.4" class="st4" width="8.8" height="0.3"/>
	</g>
	<g id="POLYLINE_6443_">
		<rect x="99.9" y="93.4" class="st4" width="8.8" height="0.3"/>
	</g>
	<g id="POLYLINE_6442_">
		<rect x="109.8" y="93.4" class="st4" width="8.8" height="0.3"/>
	</g>
	<g id="POLYLINE_6441_">
		<rect x="119.7" y="93.4" class="st4" width="8.8" height="0.3"/>
	</g>
	<g id="POLYLINE_6440_">
		<rect x="129.6" y="93.4" class="st4" width="8.8" height="0.3"/>
	</g>
	<g id="POLYLINE_6439_">
		<rect x="139.5" y="93.4" class="st4" width="8.8" height="0.3"/>
	</g>
	<g id="POLYLINE_6438_">
		<rect x="149.4" y="93.4" class="st4" width="8.8" height="0.3"/>
	</g>
	<g id="POLYLINE_6437_">
		<rect x="159.3" y="93.4" class="st4" width="8.8" height="0.3"/>
	</g>
	<g id="POLYLINE_6436_">
		<rect x="169.2" y="93.4" class="st4" width="8.8" height="0.3"/>
	</g>
	<g id="POLYLINE_6435_">
		<rect x="179.1" y="93.4" class="st4" width="8.8" height="0.3"/>
	</g>
	<g id="POLYLINE_6434_">
		<rect x="189" y="93.4" class="st4" width="8.8" height="0.3"/>
	</g>
	<g id="POLYLINE_6433_">
		<rect x="198.9" y="93.4" class="st4" width="8.8" height="0.3"/>
	</g>
	<g id="POLYLINE_6432_">
		<rect x="208.8" y="93.4" class="st4" width="8.8" height="0.3"/>
	</g>
	<g id="POLYLINE_6431_">
		<rect x="218.7" y="93.4" class="st4" width="8.8" height="0.3"/>
	</g>
	<g id="POLYLINE_6430_">
		<rect x="228.6" y="93.4" class="st4" width="8.8" height="0.3"/>
	</g>
	<g id="POLYLINE_6429_">
		<rect x="39.9" y="17.5" class="st4" width="0.3" height="13.8"/>
	</g>
	<g id="POLYLINE_6427_">
		<rect x="39.9" y="32.2" class="st4" width="0.3" height="8.3"/>
	</g>
</g>
<g id="PLAN_x24_MOBILIER">
	<g id="SPLINE_290_">
		<path class="st5" d="M287.5,59.9c-0.1,0.2-0.1,0.5-0.1,0.7c0,0.2,0,0.4,0,0.5c0,0.2,0,0.5,0.1,0.7c0,0.1,0.1,0.2,0.2,0.3
			c0.2,0.1,0.4,0.2,0.6,0.2c0.1,0,0.2,0,0.3,0c0.2,0,0.3-0.1,0.4-0.2c0.2-0.2,0.3-0.4,0.3-0.7c0-0.3,0.1-0.5,0-0.8
			c0-0.2,0-0.4-0.1-0.5c0-0.1,0-0.2-0.1-0.3"/>
	</g>
	<g id="POLYLINE_6632_">
		<rect x="286.9" y="58.4" class="st5" width="3" height="1.5"/>
	</g>
	<g id="SPLINE_289_">
		<path class="st5" d="M282.3,59.9c-0.1,0.2-0.1,0.5-0.1,0.7c0,0.2,0,0.4,0,0.5c0,0.2,0,0.5,0.1,0.7c0,0.1,0.1,0.2,0.2,0.3
			c0.2,0.1,0.4,0.2,0.6,0.2c0.1,0,0.2,0,0.3,0c0.2,0,0.3-0.1,0.4-0.2c0.2-0.2,0.3-0.4,0.3-0.7c0-0.3,0.1-0.5,0-0.8
			c0-0.2,0-0.4-0.1-0.5c0-0.1,0-0.2-0.1-0.3"/>
	</g>
	<g id="POLYLINE_6631_">
		<rect x="281.8" y="58.4" class="st5" width="3" height="1.5"/>
	</g>
	<g id="POLYLINE_6630_">
		<rect x="288.5" y="72.3" class="st5" width="2.2" height="2.1"/>
	</g>
	<g id="POLYLINE_6629_">
		<rect x="288.5" y="75.4" class="st5" width="2.2" height="2.1"/>
	</g>
	<g id="POLYLINE_6628_">
		<rect x="288.5" y="78.9" class="st5" width="2.2" height="2.1"/>
	</g>
	<g id="CIRCLE">
		<path class="st5" d="M274.7,73.4c0-0.2,0.1-0.3,0.3-0.3s0.3,0.1,0.3,0.3s-0.1,0.3-0.3,0.3C274.8,73.7,274.7,73.6,274.7,73.4
			L274.7,73.4z"/>
	</g>
	<g id="POLYLINE_6627_">
		<rect x="274.3" y="71.8" class="st5" width="2.6" height="3.2"/>
	</g>
	<g id="POLYLINE_6626_">
		<rect x="274.3" y="75.9" class="st5" width="2.6" height="3.2"/>
	</g>
	<g id="CIRCLE_468_">
		<path class="st5" d="M274.7,77.4c0-0.2,0.1-0.3,0.3-0.3s0.3,0.1,0.3,0.3s-0.1,0.3-0.3,0.3C274.8,77.7,274.7,77.6,274.7,77.4
			L274.7,77.4z"/>
	</g>
	<g id="CIRCLE_467_">
		<path class="st5" d="M274.7,81.8c0-0.2,0.1-0.3,0.3-0.3s0.3,0.1,0.3,0.3S275.1,82,275,82C274.8,82,274.7,81.9,274.7,81.8
			L274.7,81.8z"/>
	</g>
	<g id="POLYLINE_6625_">
		<rect x="274.3" y="80.2" class="st5" width="2.6" height="3.2"/>
	</g>
	<g id="CIRCLE_394_">
		<path class="st5" d="M89.3,30.7c0-0.2,0.1-0.3,0.3-0.3s0.3,0.1,0.3,0.3S89.7,31,89.6,31C89.4,31,89.3,30.8,89.3,30.7L89.3,30.7z"
			/>
	</g>
	<g id="CIRCLE_391_">
		<path class="st5" d="M83.3,30.7c0-0.2,0.1-0.3,0.3-0.3s0.3,0.1,0.3,0.3S83.7,31,83.6,31C83.4,31,83.3,30.8,83.3,30.7L83.3,30.7z"
			/>
	</g>
	<g id="SPLINE_288_">
		<path class="st5" d="M90.5,21c0.2,0.1,0.5,0.1,0.7,0.1c0.2,0,0.4,0,0.5,0c0.2,0,0.5,0,0.7-0.1c0.1,0,0.2-0.1,0.3-0.2
			c0.1-0.2,0.2-0.4,0.2-0.6c0-0.1,0-0.2,0-0.3c0-0.2-0.1-0.3-0.2-0.4c-0.2-0.2-0.4-0.3-0.7-0.3c-0.3,0-0.5-0.1-0.8,0
			c-0.2,0-0.4,0-0.5,0.1c-0.1,0-0.2,0-0.3,0.1"/>
	</g>
	<g id="POLYLINE_6624_">
		<rect x="89.1" y="18.6" class="st5" width="1.5" height="3"/>
	</g>
	<g id="SPLINE_287_">
		<path class="st5" d="M87.3,21c-0.2,0.1-0.5,0.1-0.7,0.1c-0.2,0-0.4,0-0.5,0c-0.2,0-0.5,0-0.7-0.1c-0.1,0-0.2-0.1-0.3-0.2
			c-0.1-0.2-0.2-0.4-0.2-0.6c0-0.1,0-0.2,0-0.3c0-0.2,0.1-0.3,0.2-0.4c0.2-0.2,0.4-0.3,0.7-0.3c0.3,0,0.5-0.1,0.8,0
			c0.2,0,0.4,0,0.5,0.1c0.1,0,0.2,0,0.3,0.1"/>
	</g>
	<g id="POLYLINE_6623_">
		<rect x="87.3" y="18.6" class="st5" width="1.5" height="3"/>
	</g>
	<g id="POLYLINE_6622_">
		<rect x="88" y="28.7" class="st5" width="3.2" height="2.6"/>
	</g>
	<g id="POLYLINE_6621_">
		<rect x="82" y="28.7" class="st5" width="3.2" height="2.6"/>
	</g>
</g>
<g id="PLAN_x24_DETAIL">
	<g id="POLYLINE_6741_">
		<line class="st5" x1="262.3" y1="83.7" x2="253" y2="83.7"/>
	</g>
	<g id="POLYLINE_6740_">
		<line class="st5" x1="253" y1="83.7" x2="253" y2="57.1"/>
	</g>
	<g id="ARC_530_">
		<path class="st5" d="M253,65c-3,0-5.4,2.4-5.4,5.4s2.4,5.4,5.4,5.4"/>
	</g>
	<g id="POLYLINE_6739_">
		<line class="st5" x1="253" y1="65" x2="253" y2="57.1"/>
	</g>
	<g id="ARC_529_">
		<path class="st5" d="M253,57.1c-7.4,0-13.3,6-13.3,13.3s6,13.3,13.3,13.3"/>
	</g>
	<g id="POLYLINE_6738_">
		<line class="st5" x1="253" y1="83.7" x2="253" y2="75.8"/>
	</g>
	<g id="POLYLINE_6737_">
		<line class="st5" x1="60.3" y1="24.8" x2="60.3" y2="31.4"/>
	</g>
	<g id="POLYLINE_6736_">
		<line class="st5" x1="58.9" y1="24.8" x2="58.9" y2="31.4"/>
	</g>
	<g id="POLYLINE_6735_">
		<line class="st5" x1="57.5" y1="24.8" x2="57.5" y2="31.4"/>
	</g>
	<g id="POLYLINE_6734_">
		<line class="st5" x1="56.1" y1="24.8" x2="56.1" y2="31.4"/>
	</g>
	<g id="POLYLINE_6733_">
		<line class="st5" x1="51.9" y1="24.8" x2="51.9" y2="31.4"/>
	</g>
	<g id="POLYLINE_6732_">
		<line class="st5" x1="50.4" y1="24.8" x2="50.4" y2="31.4"/>
	</g>
	<g id="POLYLINE_6731_">
		<line class="st5" x1="49" y1="24.8" x2="49" y2="31.4"/>
	</g>
	<g id="POLYLINE_6730_">
		<line class="st5" x1="47.6" y1="24.8" x2="47.6" y2="31.4"/>
	</g>
	<g id="POLYLINE_6729_">
		<line class="st5" x1="47.6" y1="24.1" x2="47.6" y2="17.5"/>
	</g>
	<g id="POLYLINE_6728_">
		<line class="st5" x1="49" y1="24.1" x2="49" y2="17.5"/>
	</g>
	<g id="POLYLINE_6727_">
		<line class="st5" x1="50.4" y1="24.1" x2="50.4" y2="17.5"/>
	</g>
	<g id="POLYLINE_6726_">
		<line class="st5" x1="51.9" y1="24.1" x2="51.9" y2="17.5"/>
	</g>
	<g id="POLYLINE_6725_">
		<line class="st5" x1="53.3" y1="24.1" x2="53.3" y2="17.5"/>
	</g>
	<g id="POLYLINE_6724_">
		<line class="st5" x1="54.7" y1="24.1" x2="54.7" y2="17.5"/>
	</g>
	<g id="POLYLINE_6723_">
		<line class="st5" x1="56.1" y1="24.1" x2="56.1" y2="17.5"/>
	</g>
	<g id="POLYLINE_6722_">
		<line class="st5" x1="57.5" y1="24.1" x2="57.5" y2="17.5"/>
	</g>
	<g id="POLYLINE_6721_">
		<line class="st5" x1="58.9" y1="24.1" x2="58.9" y2="17.5"/>
	</g>
	<g id="POLYLINE_6720_">
		<line class="st5" x1="86.7" y1="33.3" x2="81.1" y2="38.8"/>
	</g>
	<g id="POLYLINE_6719_">
		<line class="st5" x1="81.1" y1="33.3" x2="86.7" y2="38.8"/>
	</g>
	<g id="POLYLINE_6718_">
		<rect x="81.1" y="33.3" class="st5" width="5.7" height="5.5"/>
	</g>
	<g id="POLYLINE_6717_">
		<line class="st5" x1="57.3" y1="33.3" x2="51.6" y2="38.8"/>
	</g>
	<g id="POLYLINE_6716_">
		<line class="st5" x1="51.6" y1="33.3" x2="57.3" y2="38.8"/>
	</g>
	<g id="POLYLINE_6715_">
		<rect x="51.6" y="33.3" class="st5" width="5.7" height="5.5"/>
	</g>
	<g id="POLYLINE_6714_">
		<line class="st5" x1="271.5" y1="69.3" x2="264.4" y2="75.2"/>
	</g>
	<g id="POLYLINE_6713_">
		<line class="st5" x1="264.4" y1="69.3" x2="271.5" y2="75.2"/>
	</g>
	<g id="POLYLINE_6712_">
		<rect x="264.4" y="69.3" class="st5" width="7.1" height="5.9"/>
	</g>
	<g id="POLYLINE_6711_">
		<line class="st5" x1="272.4" y1="59" x2="264.5" y2="66.7"/>
	</g>
	<g id="POLYLINE_6710_">
		<line class="st5" x1="264.5" y1="59" x2="272.4" y2="66.7"/>
	</g>
	<g id="POLYLINE_6709_">
		<rect x="264.5" y="59" class="st5" width="7.9" height="7.7"/>
	</g>
	<g id="POLYLINE_6708_">
		<line class="st5" x1="252" y1="65.1" x2="250.4" y2="57.4"/>
	</g>
	<g id="POLYLINE_6707_">
		<line class="st5" x1="251" y1="65.4" x2="247.9" y2="58.1"/>
	</g>
	<g id="POLYLINE_6706_">
		<line class="st5" x1="250" y1="65.9" x2="245.6" y2="59.3"/>
	</g>
	<g id="POLYLINE_6705_">
		<line class="st5" x1="249.2" y1="66.6" x2="243.6" y2="61"/>
	</g>
	<g id="POLYLINE_6704_">
		<line class="st5" x1="248.5" y1="67.4" x2="242" y2="63"/>
	</g>
	<g id="POLYLINE_6703_">
		<line class="st5" x1="248" y1="68.3" x2="240.7" y2="65.3"/>
	</g>
	<g id="POLYLINE_6702_">
		<line class="st5" x1="247.7" y1="69.4" x2="240" y2="67.8"/>
	</g>
	<g id="POLYLINE_6701_">
		<line class="st5" x1="247.6" y1="70.4" x2="239.7" y2="70.4"/>
	</g>
	<g id="POLYLINE_6700_">
		<line class="st5" x1="247.7" y1="71.5" x2="240" y2="73"/>
	</g>
	<g id="POLYLINE_6699_">
		<line class="st5" x1="248" y1="72.5" x2="240.7" y2="75.5"/>
	</g>
	<g id="POLYLINE_6698_">
		<line class="st5" x1="248.5" y1="73.4" x2="242" y2="77.8"/>
	</g>
	<g id="POLYLINE_6697_">
		<line class="st5" x1="249.2" y1="74.2" x2="243.6" y2="79.8"/>
	</g>
	<g id="POLYLINE_6696_">
		<line class="st5" x1="250" y1="74.9" x2="245.6" y2="81.5"/>
	</g>
	<g id="POLYLINE_6695_">
		<line class="st5" x1="251" y1="75.4" x2="247.9" y2="82.7"/>
	</g>
	<g id="POLYLINE_6694_">
		<line class="st5" x1="252" y1="75.7" x2="250.4" y2="83.5"/>
	</g>
	<g id="POLYLINE_6693_">
		<line class="st5" x1="277.5" y1="83.7" x2="287.4" y2="83.7"/>
	</g>
	<g id="POLYLINE_6692_">
		<line class="st5" x1="290.7" y1="66.6" x2="290.7" y2="71.7"/>
	</g>
	<g id="POLYLINE_6691_">
		<line class="st5" x1="286.5" y1="66.5" x2="286.5" y2="63.1"/>
	</g>
	<g id="ARC_528_">
		<path class="st5" d="M286.5,63.1c1.9,0,3.4,1.5,3.4,3.4"/>
	</g>
	<g id="POLYLINE_6690_">
		<line class="st5" x1="285.1" y1="66.5" x2="285.1" y2="63.1"/>
	</g>
	<g id="ARC_527_">
		<path class="st5" d="M285.1,63.1c-1.9,0-3.4,1.5-3.4,3.4"/>
	</g>
	<g id="POLYLINE_6689_">
		<line class="st5" x1="275.1" y1="58" x2="275.1" y2="62.5"/>
	</g>
	<g id="ARC_526_">
		<path class="st5" d="M275.1,62.5c2.5,0,4.5-2,4.5-4.5"/>
	</g>
	<g id="POLYLINE_6688_">
		<line class="st5" x1="97.8" y1="41.7" x2="97.8" y2="36.6"/>
	</g>
	<g id="ARC_525_">
		<path class="st5" d="M97.8,36.6c-2.8,0-5.1,2.3-5.1,5.1"/>
	</g>
	<g id="POLYLINE_6687_">
		<line class="st5" x1="263.4" y1="59.8" x2="263.4" y2="66.6"/>
	</g>
	<g id="POLYLINE_6686_">
		<line class="st5" x1="262.6" y1="66.6" x2="262.6" y2="59.8"/>
	</g>
	<g id="POLYLINE_6685_">
		<line class="st5" x1="263.4" y1="74.7" x2="263.4" y2="69.6"/>
	</g>
	<g id="POLYLINE_6684_">
		<line class="st5" x1="262.6" y1="69.6" x2="262.6" y2="74.7"/>
	</g>
	<g id="ARC_524_">
		<path class="st5" d="M98.5,18c-2.7,0-4.9,2.2-4.9,4.9"/>
	</g>
	<g id="ARC_523_">
		<path class="st5" d="M84.7,22.9c0-2.7-2.2-4.9-4.9-4.9"/>
	</g>
	<g id="POLYLINE_6683_">
		<line class="st5" x1="60.3" y1="24.1" x2="60.3" y2="17.5"/>
	</g>
	<g id="POLYLINE_6682_">
		<line class="st5" x1="98.5" y1="22.9" x2="98.5" y2="40.4"/>
	</g>
	<g id="ARC_522_">
		<path class="st5" d="M13.4,41.5c-5.5-0.2-10.1,4.1-10.3,9.6c-0.1,2.5,0.8,5,2.4,6.9"/>
	</g>
	<g id="ARC_521_">
		<path class="st5" d="M32.4,89.1c1.8,1.9,4.3,2.9,6.9,2.9"/>
	</g>
	<g id="POLYLINE_6681_">
		<line class="st5" x1="189" y1="42.3" x2="197.8" y2="42.3"/>
	</g>
	<g id="POLYLINE_6680_">
		<line class="st5" x1="179.1" y1="42.3" x2="187.9" y2="42.3"/>
	</g>
	<g id="POLYLINE_6679_">
		<line class="st5" x1="169.2" y1="42.3" x2="178" y2="42.3"/>
	</g>
	<g id="POLYLINE_6678_">
		<line class="st5" x1="159.3" y1="42.3" x2="168.1" y2="42.3"/>
	</g>
	<g id="POLYLINE_6677_">
		<line class="st5" x1="149.4" y1="42.3" x2="158.2" y2="42.3"/>
	</g>
	<g id="POLYLINE_6676_">
		<line class="st5" x1="139.5" y1="42.3" x2="148.3" y2="42.3"/>
	</g>
	<g id="POLYLINE_6675_">
		<line class="st5" x1="129.6" y1="42.3" x2="138.4" y2="42.3"/>
	</g>
	<g id="POLYLINE_6674_">
		<line class="st5" x1="119.7" y1="42.3" x2="128.5" y2="42.3"/>
	</g>
	<g id="POLYLINE_6673_">
		<line class="st5" x1="109.8" y1="42.3" x2="118.6" y2="42.3"/>
	</g>
	<g id="POLYLINE_6672_">
		<line class="st5" x1="99.9" y1="42.3" x2="108.7" y2="42.3"/>
	</g>
	<g id="POLYLINE_6671_">
		<line class="st5" x1="24.4" y1="41.5" x2="33.2" y2="41.5"/>
	</g>
	<g id="POLYLINE_6670_">
		<line class="st5" x1="14.5" y1="41.5" x2="23.3" y2="41.5"/>
	</g>
	<g id="POLYLINE_6669_">
		<line class="st5" x1="12" y1="65.5" x2="6.2" y2="58.8"/>
	</g>
	<g id="POLYLINE_6668_">
		<line class="st5" x1="18.6" y1="73.1" x2="12.8" y2="66.4"/>
	</g>
	<g id="POLYLINE_6667_">
		<line class="st5" x1="25.1" y1="80.7" x2="19.3" y2="74"/>
	</g>
	<g id="POLYLINE_6666_">
		<line class="st5" x1="31.7" y1="88.2" x2="25.9" y2="81.5"/>
	</g>
	<g id="POLYLINE_6665_">
		<line class="st5" x1="49.3" y1="92" x2="40.5" y2="92"/>
	</g>
	<g id="POLYLINE_6664_">
		<line class="st5" x1="59.2" y1="92" x2="50.4" y2="92"/>
	</g>
	<g id="POLYLINE_6663_">
		<line class="st5" x1="69.1" y1="92" x2="60.3" y2="92"/>
	</g>
	<g id="POLYLINE_6662_">
		<line class="st5" x1="79" y1="92" x2="70.2" y2="92"/>
	</g>
	<g id="POLYLINE_6661_">
		<line class="st5" x1="88.9" y1="92" x2="80.1" y2="92"/>
	</g>
	<g id="POLYLINE_6660_">
		<line class="st5" x1="98.8" y1="92" x2="90" y2="92"/>
	</g>
	<g id="POLYLINE_6659_">
		<line class="st5" x1="108.7" y1="92" x2="99.9" y2="92"/>
	</g>
	<g id="POLYLINE_6658_">
		<line class="st5" x1="118.6" y1="92" x2="109.8" y2="92"/>
	</g>
	<g id="POLYLINE_6657_">
		<line class="st5" x1="128.5" y1="92" x2="119.7" y2="92"/>
	</g>
	<g id="POLYLINE_6656_">
		<line class="st5" x1="138.4" y1="92" x2="129.6" y2="92"/>
	</g>
	<g id="POLYLINE_6655_">
		<line class="st5" x1="148.3" y1="92" x2="139.5" y2="92"/>
	</g>
	<g id="POLYLINE_6654_">
		<line class="st5" x1="158.2" y1="92" x2="149.4" y2="92"/>
	</g>
	<g id="POLYLINE_6653_">
		<line class="st5" x1="168.1" y1="92" x2="159.3" y2="92"/>
	</g>
	<g id="POLYLINE_6652_">
		<line class="st5" x1="178" y1="92" x2="169.2" y2="92"/>
	</g>
	<g id="POLYLINE_6651_">
		<line class="st5" x1="187.9" y1="92" x2="179.1" y2="92"/>
	</g>
	<g id="POLYLINE_6650_">
		<line class="st5" x1="197.8" y1="92" x2="189" y2="92"/>
	</g>
	<g id="POLYLINE_6649_">
		<line class="st5" x1="207.7" y1="92" x2="198.9" y2="92"/>
	</g>
	<g id="POLYLINE_6648_">
		<line class="st5" x1="217.6" y1="92" x2="208.8" y2="92"/>
	</g>
	<g id="POLYLINE_6643_">
		<line class="st5" x1="227.5" y1="92" x2="218.7" y2="92"/>
	</g>
	<g id="POLYLINE_6642_">
		<line class="st5" x1="237.4" y1="92" x2="228.6" y2="92"/>
	</g>
	<g id="POLYLINE_6641_">
		<rect x="57.9" y="33.7" class="st5" width="0.9" height="5.1"/>
	</g>
	<g id="POLYLINE_6640_">
		<line class="st5" x1="79" y1="33.7" x2="79" y2="38.8"/>
	</g>
	<g id="POLYLINE_6639_">
		<line class="st5" x1="79.8" y1="38.8" x2="79.8" y2="33.7"/>
	</g>
	<g id="POLYLINE_6638_">
		<line class="st5" x1="92.7" y1="41.1" x2="92.7" y2="32.2"/>
	</g>
	<g id="POLYLINE_6637_">
		<line class="st5" x1="54.7" y1="24.8" x2="54.7" y2="28.1"/>
	</g>
	<g id="POLYLINE_6636_">
		<line class="st5" x1="54.7" y1="29.8" x2="54.7" y2="31.4"/>
	</g>
	<g id="POLYLINE_6635_">
		<line class="st5" x1="53.3" y1="26.5" x2="53.3" y2="31.4"/>
	</g>
</g>
<g id="PLAN_x24_CLOISON_TRANSLUCIDE">
</g>
<g id="PLAN_x24_CLOISON_1.3">
	<g id="POLYLINE_6765_">
		<line class="st6" x1="281.7" y1="66.3" x2="281.7" y2="66.6"/>
	</g>
	<g id="POLYLINE_6764_">
		<polyline class="st6" points="281.7,66.6 280.2,66.6 280.2,58.4 280.5,58.4 280.5,66.3 281.7,66.3 		"/>
	</g>
	<g id="POLYLINE_6763_">
		<polyline class="st6" points="289.9,66.3 290.7,66.3 290.7,66.6 289.9,66.6 		"/>
	</g>
	<g id="POLYLINE_6762_">
		<line class="st6" x1="289.9" y1="66.6" x2="289.9" y2="66.3"/>
	</g>
	<g id="POLYLINE_6761_">
		<line class="st6" x1="285.9" y1="66.3" x2="286.5" y2="66.3"/>
	</g>
	<g id="POLYLINE_6760_">
		<line class="st6" x1="286.5" y1="66.3" x2="286.5" y2="66.6"/>
	</g>
	<g id="POLYLINE_6759_">
		<line class="st6" x1="286.5" y1="66.6" x2="285.1" y2="66.6"/>
	</g>
	<g id="POLYLINE_6758_">
		<line class="st6" x1="285.1" y1="66.6" x2="285.1" y2="66.3"/>
	</g>
	<g id="POLYLINE_6757_">
		<line class="st6" x1="285.1" y1="66.3" x2="285.6" y2="66.3"/>
	</g>
	<g id="POLYLINE_6756_">
		<polyline class="st6" points="285.6,66.3 285.6,58.4 285.9,58.4 285.9,66.3 		"/>
	</g>
	<g id="POLYLINE_6755_">
		<rect x="84.7" y="22.6" class="st6" width="8.9" height="0.3"/>
	</g>
	<g id="POLYLINE_6754_">
		<rect x="88.8" y="17.5" class="st6" width="0.3" height="5.1"/>
	</g>
</g>
<g id="PLAN_x24_CLOISON_1.2">
</g>
<g id="PLAN_x24_CLOISON_1.1">
</g>
<g id="PLAN_x24_STRUCTURE_2.3">
</g>
<g id="PLAN_x24_STRUCTURE_2.2">
	<g id="POLYLINE_6414_">
		<line class="st7" x1="42.8" y1="31.4" x2="42.8" y2="32.2"/>
	</g>
	<g id="POLYLINE_6413_">
		<polyline class="st7" points="42.8,32.2 39.9,32.2 39.9,31.4 42.8,31.4 		"/>
	</g>
	<g id="POLYLINE_6412_">
		<polyline class="st7" points="58.2,31.4 60.3,31.4 60.3,32.2 58.8,32.2 		"/>
	</g>
	<g id="POLYLINE_6411_">
		<line class="st7" x1="58.8" y1="32.2" x2="58.8" y2="33.7"/>
	</g>
	<g id="POLYLINE_6410_">
		<line class="st7" x1="58.8" y1="33.7" x2="57.9" y2="33.7"/>
	</g>
	<g id="POLYLINE_6409_">
		<polyline class="st7" points="57.9,33.7 57.9,32.2 49.3,32.2 49.3,39.7 57.9,39.7 57.9,38.8 		"/>
	</g>
	<g id="POLYLINE_6408_">
		<line class="st7" x1="57.9" y1="38.8" x2="58.8" y2="38.8"/>
	</g>
	<g id="POLYLINE_6407_">
		<polyline class="st7" points="58.8,38.8 58.8,40.6 48.5,40.6 48.5,32.2 		"/>
	</g>
	<g id="POLYLINE_6404_">
		<line class="st7" x1="48.5" y1="32.2" x2="47.3" y2="32.2"/>
	</g>
	<g id="POLYLINE_6403_">
		<line class="st7" x1="47.3" y1="32.2" x2="47.4" y2="31.4"/>
	</g>
	<g id="POLYLINE_6402_">
		<line class="st7" x1="47.4" y1="31.4" x2="48.5" y2="31.4"/>
	</g>
	<g id="POLYLINE_6401_">
		<line class="st7" x1="48.5" y1="31.4" x2="58.8" y2="31.4"/>
	</g>
	<g id="POLYLINE_6400_">
		<polyline class="st7" points="99.3,17.5 99.3,22.9 98.5,22.9 98.5,17.5 		"/>
	</g>
	<g id="POLYLINE_6399_">
		<polyline class="st7" points="98.5,17.5 39.5,17.5 39.5,16.7 99.3,16.7 99.3,17.5 		"/>
	</g>
	<g id="POLYLINE_6398_">
		<polyline class="st7" points="200.8,15.8 202.5,15.8 202.5,19 200.8,19 		"/>
	</g>
	<g id="POLYLINE_6397_">
		<polyline class="st7" points="200.8,19 200.8,42.3 198.9,42.3 198.9,2.2 200.8,2.2 200.8,15.8 		"/>
	</g>
	<g id="POLYLINE_6396_">
		<polyline class="st7" points="262.6,82.9 262.6,83.7 263.4,83.7 263.4,82.9 		"/>
	</g>
	<g id="POLYLINE_6395_">
		<line class="st7" x1="263.4" y1="82.9" x2="262.6" y2="82.9"/>
	</g>
	<g id="POLYLINE_6394_">
		<polyline class="st7" points="274,85.4 277.5,85.4 277.5,83.7 274.3,83.7 		"/>
	</g>
	<g id="POLYLINE_6393_">
		<line class="st7" x1="274.3" y1="83.7" x2="274.3" y2="58.4"/>
	</g>
	<g id="POLYLINE_6392_">
		<line class="st7" x1="274.3" y1="58.4" x2="275.1" y2="58.4"/>
	</g>
	<g id="POLYLINE_6391_">
		<line class="st7" x1="275.1" y1="58.4" x2="275.1" y2="57.5"/>
	</g>
	<g id="POLYLINE_6390_">
		<line class="st7" x1="275.1" y1="57.5" x2="274.3" y2="57.5"/>
	</g>
	<g id="POLYLINE_6389_">
		<line class="st7" x1="274.3" y1="57.5" x2="268.4" y2="57.5"/>
	</g>
	<g id="POLYLINE_6388_">
		<polyline class="st7" points="268.4,57.5 268.4,56.2 261.6,56.2 261.6,58.4 262.6,58.4 		"/>
	</g>
	<g id="POLYLINE_6387_">
		<line class="st7" x1="262.6" y1="58.4" x2="262.6" y2="59.8"/>
	</g>
	<g id="POLYLINE_6386_">
		<line class="st7" x1="262.6" y1="59.8" x2="263.4" y2="59.8"/>
	</g>
	<g id="POLYLINE_6202_">
		<line class="st7" x1="263.4" y1="59.8" x2="263.4" y2="58.4"/>
	</g>
	<g id="POLYLINE_6201_">
		<line class="st7" x1="263.4" y1="58.4" x2="268.4" y2="58.4"/>
	</g>
	<g id="POLYLINE_6200_">
		<polyline class="st7" points="268.4,58.4 273.4,58.4 273.4,67.4 		"/>
	</g>
	<g id="LINE_722_">
		<line class="st7" x1="273.4" y1="67.4" x2="263.4" y2="67.4"/>
	</g>
	<g id="POLYLINE_6199_">
		<line class="st7" x1="263.4" y1="67.4" x2="263.4" y2="66.6"/>
	</g>
	<g id="POLYLINE_6198_">
		<line class="st7" x1="263.4" y1="66.6" x2="262.6" y2="66.6"/>
	</g>
	<g id="POLYLINE_6197_">
		<line class="st7" x1="262.6" y1="66.6" x2="262.6" y2="69.6"/>
	</g>
	<g id="POLYLINE_6196_">
		<line class="st7" x1="262.6" y1="69.6" x2="263.4" y2="69.6"/>
	</g>
	<g id="POLYLINE_6195_">
		<line class="st7" x1="263.4" y1="69.6" x2="263.4" y2="68.2"/>
	</g>
	<g id="LINE_721_">
		<line class="st7" x1="263.4" y1="68.2" x2="273.4" y2="68.2"/>
	</g>
	<g id="POLYLINE_6194_">
		<line class="st7" x1="273.4" y1="68.2" x2="273.4" y2="75.9"/>
	</g>
	<g id="LINE_720_">
		<line class="st7" x1="273.4" y1="75.9" x2="263.4" y2="75.9"/>
	</g>
	<g id="POLYLINE_6193_">
		<line class="st7" x1="263.4" y1="75.9" x2="263.4" y2="74.7"/>
	</g>
	<g id="POLYLINE_6192_">
		<line class="st7" x1="263.4" y1="74.7" x2="262.6" y2="74.7"/>
	</g>
	<g id="POLYLINE_6191_">
		<line class="st7" x1="262.6" y1="74.7" x2="262.6" y2="79"/>
	</g>
	<g id="POLYLINE_6190_">
		<line class="st7" x1="262.6" y1="79" x2="263.4" y2="79"/>
	</g>
	<g id="POLYLINE_6189_">
		<line class="st7" x1="263.4" y1="79" x2="263.4" y2="76.8"/>
	</g>
	<g id="LINE_719_">
		<line class="st7" x1="263.4" y1="76.8" x2="273.4" y2="76.8"/>
	</g>
	<g id="POLYLINE_6188_">
		<line class="st7" x1="273.4" y1="76.8" x2="273.4" y2="83.7"/>
	</g>
	<g id="POLYLINE_6187_">
		<polyline class="st7" points="273.4,83.7 263.4,83.7 263.4,85.4 274.3,85.4 		"/>
	</g>
	<g id="POLYLINE_6186_">
		<line class="st7" x1="290.6" y1="83.5" x2="290.6" y2="83.7"/>
	</g>
	<g id="POLYLINE_6185_">
		<polyline class="st7" points="290.6,83.7 287.4,83.7 287.4,85.4 291.5,85.4 		"/>
	</g>
	<g id="POLYLINE_6184_">
		<line class="st7" x1="291.5" y1="85.4" x2="291.5" y2="83.5"/>
	</g>
	<g id="POLYLINE_6183_">
		<line class="st7" x1="291.5" y1="83.5" x2="291.6" y2="71.7"/>
	</g>
	<g id="POLYLINE_6182_">
		<line class="st7" x1="291.6" y1="71.7" x2="290.7" y2="71.7"/>
	</g>
	<g id="LINE_718_">
		<line class="st7" x1="290.7" y1="71.7" x2="290.6" y2="83.5"/>
	</g>
	<g id="POLYLINE_6181_">
		<line class="st7" x1="291.6" y1="66.6" x2="292" y2="4.8"/>
	</g>
	<g id="POLYLINE_6180_">
		<polyline class="st7" points="292,4.8 292,3.1 200.8,3.1 200.8,4.8 291.2,4.8 		"/>
	</g>
	<g id="LINE_717_">
		<line class="st7" x1="291.2" y1="4.8" x2="290.8" y2="57.5"/>
	</g>
	<g id="POLYLINE_6179_">
		<line class="st7" x1="290.8" y1="57.5" x2="279.6" y2="57.5"/>
	</g>
	<g id="POLYLINE_6178_">
		<line class="st7" x1="279.6" y1="57.5" x2="279.6" y2="58.4"/>
	</g>
	<g id="POLYLINE_6177_">
		<line class="st7" x1="279.6" y1="58.4" x2="290.8" y2="58.4"/>
	</g>
	<g id="LINE_716_">
		<line class="st7" x1="290.8" y1="58.4" x2="290.7" y2="66.6"/>
	</g>
	<g id="POLYLINE_6176_">
		<line class="st7" x1="290.7" y1="66.6" x2="291.6" y2="66.6"/>
	</g>
	<g id="POLYLINE_6175_">
		<polyline class="st7" points="79.8,38.8 79.8,39.7 88.4,39.7 88.4,32.2 79.8,32.2 79.8,33.7 		"/>
	</g>
	<g id="POLYLINE_6174_">
		<line class="st7" x1="79.8" y1="33.7" x2="79" y2="33.7"/>
	</g>
	<g id="POLYLINE_5145_">
		<polyline class="st7" points="79,33.7 79,17.5 79.8,17.5 79.8,31.4 		"/>
	</g>
	<g id="POLYLINE_5144_">
		<polyline class="st7" points="79.8,31.4 93.1,31.4 93.1,32.2 89.3,32.2 		"/>
	</g>
	<g id="POLYLINE_5143_">
		<line class="st7" x1="89.3" y1="32.2" x2="89.3" y2="40.6"/>
	</g>
	<g id="POLYLINE_5142_">
		<line class="st7" x1="88.4" y1="39.7" x2="88.4" y2="32.2"/>
	</g>
	<g id="POLYLINE_5141_">
		<line class="st7" x1="88.4" y1="32.2" x2="79.8" y2="32.2"/>
	</g>
	<g id="POLYLINE_5140_">
		<line class="st7" x1="79.8" y1="32.2" x2="79.8" y2="33.7"/>
	</g>
	<g id="POLYLINE_5139_">
		<polyline class="st7" points="79.8,40.6 79,40.6 79,38.8 		"/>
	</g>
	<g id="POLYLINE_5138_">
		<line class="st7" x1="79" y1="38.8" x2="79.8" y2="38.8"/>
	</g>
	<g id="POLYLINE_5137_">
		<line class="st7" x1="79.8" y1="38.8" x2="79.8" y2="39.7"/>
	</g>
	<g id="POLYLINE_5136_">
		<polyline class="st7" points="238.5,92 237.9,92 237.9,56.2 239.1,56.2 		"/>
	</g>
	<g id="POLYLINE_5135_">
		<polyline class="st7" points="239.1,56.2 253,56.2 253,57.1 239.1,57.1 		"/>
	</g>
	<g id="POLYLINE_5134_">
		<line class="st7" x1="239.1" y1="57.1" x2="239.1" y2="83.7"/>
	</g>
	<g id="POLYLINE_5133_">
		<polyline class="st7" points="239.1,83.7 251.9,83.7 251.9,85.4 239.1,85.4 		"/>
	</g>
	<g id="POLYLINE_5132_">
		<line class="st7" x1="239.1" y1="85.4" x2="239.1" y2="92"/>
	</g>
	<g id="POLYLINE_5131_">
		<polyline class="st7" points="239.1,92 239.1,93.7 238.5,93.7 		"/>
	</g>
	<g id="POLYLINE_5130_">
		<polyline class="st7" points="98.8,42.3 97.8,42.3 97.8,40.4 99.1,40.4 99.1,40.6 		"/>
	</g>
	<g id="POLYLINE_5129_">
		<rect x="47.6" y="24.1" class="st7" width="12.7" height="0.7"/>
	</g>
	<g id="POLYLINE_5128_">
		<polyline class="st7" points="80.1,41.1 80.1,42.3 92.7,42.3 92.7,41.1 90,41.1 		"/>
	</g>
	<g id="LINE_715_">
		<line class="st7" x1="262.6" y1="76.8" x2="262.6" y2="75.9"/>
	</g>
	<g id="POLYLINE_5127_">
		<rect x="58.2" y="39.7" class="st7" width="2.1" height="0.9"/>
	</g>
	<g id="POLYLINE_5126_">
		<line class="st7" x1="60.3" y1="40.6" x2="34.3" y2="40.6"/>
	</g>
	<g id="POLYLINE_5125_">
		<line class="st7" x1="59.2" y1="42.3" x2="34.3" y2="42.3"/>
	</g>
</g>
<g id="PLAN_x24_STRUCTURE_2.1">
</g>
<g id="PLAN_x24_STRUCTURE_1.3">
	<g id="POLYLINE_6903_">
		<rect x="5.9" y="42" transform="matrix(0.7947 -0.6071 0.6071 0.7947 -24.6836 12.7104)" class="st8" width="1.1" height="1.7"/>
	</g>
	<g id="POLYLINE_6902_">
		<rect x="1.4" y="50.9" class="st8" width="1.7" height="1.1"/>
	</g>
	<g id="POLYLINE_6901_">
		<rect x="262.3" y="83.7" class="st8" width="1.1" height="1.7"/>
	</g>
	<g id="POLYLINE_6900_">
		<rect x="251.9" y="83.7" class="st8" width="1.1" height="1.7"/>
	</g>
	<g id="POLYLINE_6899_">
		<rect x="199.6" y="3.1" class="st8" width="1.1" height="1.7"/>
	</g>
	<g id="POLYLINE_6898_">
		<rect x="4.4" y="58.4" transform="matrix(0.756 -0.6545 0.6545 0.756 -37.3339 17.8132)" class="st8" width="1.7" height="1.1"/>
	</g>
	<g id="POLYLINE_6897_">
		<rect x="10.9" y="66" transform="matrix(0.756 -0.6545 0.6545 0.756 -40.6864 23.9422)" class="st8" width="1.7" height="1.1"/>
	</g>
	<g id="POLYLINE_6896_">
		<rect x="17.5" y="73.5" transform="matrix(0.756 -0.6545 0.6545 0.756 -44.0384 30.0717)" class="st8" width="1.7" height="1.1"/>
	</g>
	<g id="POLYLINE_6895_">
		<rect x="24" y="81.1" transform="matrix(0.756 -0.6545 0.6545 0.756 -47.3904 36.2009)" class="st8" width="1.7" height="1.1"/>
	</g>
	<g id="POLYLINE_6894_">
		<rect x="30.6" y="88.7" transform="matrix(0.756 -0.6545 0.6545 0.756 -50.7423 42.3304)" class="st8" width="1.7" height="1.1"/>
	</g>
	<g id="POLYLINE_6893_">
		<rect x="257.2" y="3.1" class="st8" width="1.1" height="1.7"/>
	</g>
	<g id="POLYLINE_6892_">
		<rect x="267.1" y="3.1" class="st8" width="1.1" height="1.7"/>
	</g>
	<g id="POLYLINE_6891_">
		<rect x="277" y="3.1" class="st8" width="1.1" height="1.7"/>
	</g>
	<g id="POLYLINE_6890_">
		<rect x="286.9" y="3.1" class="st8" width="1.1" height="1.7"/>
	</g>
	<g id="POLYLINE_6889_">
		<rect x="207.7" y="3.1" class="st8" width="1.1" height="1.7"/>
	</g>
	<g id="POLYLINE_6888_">
		<rect x="247.3" y="3.1" class="st8" width="1.1" height="1.7"/>
	</g>
	<g id="POLYLINE_6887_">
		<rect x="237.4" y="3.1" class="st8" width="1.1" height="1.7"/>
	</g>
	<g id="POLYLINE_6886_">
		<rect x="227.5" y="3.1" class="st8" width="1.1" height="1.7"/>
	</g>
	<g id="POLYLINE_6885_">
		<rect x="217.6" y="3.1" class="st8" width="1.1" height="1.7"/>
	</g>
	<g id="POLYLINE_6884_">
		<rect x="267.1" y="40.1" class="st8" width="1.1" height="1.7"/>
	</g>
	<g id="POLYLINE_6883_">
		<rect x="237.4" y="40.1" class="st8" width="1.1" height="1.7"/>
	</g>
	<g id="POLYLINE_6882_">
		<rect x="13.4" y="39.8" class="st8" width="1.1" height="1.7"/>
	</g>
	<g id="POLYLINE_6881_">
		<rect x="23.3" y="39.8" class="st8" width="1.1" height="1.7"/>
	</g>
	<g id="POLYLINE_6880_">
		<rect x="33.2" y="39.8" class="st8" width="1.1" height="2.5"/>
	</g>
	<g id="POLYLINE_6879_">
		<rect x="39.4" y="40.6" class="st8" width="1.1" height="1.7"/>
	</g>
	<g id="POLYLINE_6878_">
		<rect x="49.3" y="40.6" class="st8" width="1.1" height="1.7"/>
	</g>
	<g id="POLYLINE_6877_">
		<rect x="59.2" y="40.6" class="st8" width="1.1" height="1.7"/>
	</g>
	<g id="POLYLINE_6876_">
		<rect x="79" y="40.6" class="st8" width="1.1" height="1.7"/>
	</g>
	<g id="POLYLINE_6875_">
		<rect x="88.9" y="40.6" class="st8" width="1.1" height="1.7"/>
	</g>
	<g id="POLYLINE_6874_">
		<rect x="98.8" y="40.6" class="st8" width="1.1" height="1.7"/>
	</g>
	<g id="POLYLINE_6873_">
		<rect x="108.7" y="40.6" class="st8" width="1.1" height="1.7"/>
	</g>
	<g id="POLYLINE_6872_">
		<rect x="118.6" y="40.6" class="st8" width="1.1" height="1.7"/>
	</g>
	<g id="POLYLINE_6871_">
		<rect x="128.5" y="40.6" class="st8" width="1.1" height="1.7"/>
	</g>
	<g id="POLYLINE_6870_">
		<rect x="138.4" y="40.6" class="st8" width="1.1" height="1.7"/>
	</g>
	<g id="POLYLINE_6869_">
		<rect x="148.3" y="40.6" class="st8" width="1.1" height="1.7"/>
	</g>
	<g id="POLYLINE_6868_">
		<rect x="158.2" y="40.6" class="st8" width="1.1" height="1.7"/>
	</g>
	<g id="POLYLINE_6867_">
		<rect x="168.1" y="40.6" class="st8" width="1.1" height="1.7"/>
	</g>
	<g id="POLYLINE_6866_">
		<rect x="178" y="40.6" class="st8" width="1.1" height="1.7"/>
	</g>
	<g id="POLYLINE_6865_">
		<rect x="187.9" y="40.6" class="st8" width="1.1" height="1.7"/>
	</g>
	<g id="POLYLINE_6864_">
		<rect x="197.8" y="40.6" class="st8" width="1.1" height="1.7"/>
	</g>
	<g id="POLYLINE_6863_">
		<rect x="197.8" y="92" class="st8" width="1.1" height="1.7"/>
	</g>
	<g id="POLYLINE_6862_">
		<rect x="187.9" y="92" class="st8" width="1.1" height="1.7"/>
	</g>
	<g id="POLYLINE_6861_">
		<rect x="178" y="92" class="st8" width="1.1" height="1.7"/>
	</g>
	<g id="POLYLINE_6860_">
		<rect x="168.1" y="92" class="st8" width="1.1" height="1.7"/>
	</g>
	<g id="POLYLINE_6859_">
		<rect x="158.2" y="92" class="st8" width="1.1" height="1.7"/>
	</g>
	<g id="POLYLINE_6858_">
		<rect x="148.3" y="92" class="st8" width="1.1" height="1.7"/>
	</g>
	<g id="POLYLINE_6857_">
		<rect x="138.4" y="92" class="st8" width="1.1" height="1.7"/>
	</g>
	<g id="POLYLINE_6856_">
		<rect x="128.5" y="92" class="st8" width="1.1" height="1.7"/>
	</g>
	<g id="POLYLINE_6855_">
		<rect x="118.6" y="92" class="st8" width="1.1" height="1.7"/>
	</g>
	<g id="POLYLINE_6854_">
		<rect x="108.7" y="92" class="st8" width="1.1" height="1.7"/>
	</g>
	<g id="POLYLINE_6853_">
		<rect x="98.8" y="92" class="st8" width="1.1" height="1.7"/>
	</g>
	<g id="POLYLINE_6852_">
		<rect x="88.9" y="92" class="st8" width="1.1" height="1.7"/>
	</g>
	<g id="POLYLINE_6851_">
		<rect x="79" y="92" class="st8" width="1.1" height="1.7"/>
	</g>
	<g id="POLYLINE_6850_">
		<rect x="69.1" y="92" class="st8" width="1.1" height="1.7"/>
	</g>
	<g id="POLYLINE_6849_">
		<rect x="59.2" y="92" class="st8" width="1.1" height="1.7"/>
	</g>
	<g id="POLYLINE_6848_">
		<rect x="49.3" y="92" class="st8" width="1.1" height="1.7"/>
	</g>
	<g id="POLYLINE_6847_">
		<rect x="39.4" y="92" class="st8" width="1.1" height="1.7"/>
	</g>
	<g id="POLYLINE_6846_">
		<rect x="237.4" y="92" class="st8" width="1.1" height="1.7"/>
	</g>
	<g id="POLYLINE_6845_">
		<rect x="227.5" y="92" class="st8" width="1.1" height="1.7"/>
	</g>
	<g id="POLYLINE_6844_">
		<rect x="217.6" y="92" class="st8" width="1.1" height="1.7"/>
	</g>
	<g id="POLYLINE_6843_">
		<rect x="207.7" y="92" class="st8" width="1.1" height="1.7"/>
	</g>
</g>
<g id="PLAN_x24_STRUCTURE_1.2">
</g>
<g id="PLAN_x24_STRUCTURE_1.1">
</g>
</svg>
