<?xml version="1.0" encoding="utf-8"?>
<!-- Generator: Adobe Illustrator 22.0.1, SVG Export Plug-In . SVG Version: 6.00 Build 0)  -->
<svg version="1.1" id="Calque_1" xmlns="http://www.w3.org/2000/svg" xmlns:xlink="http://www.w3.org/1999/xlink" x="0px" y="0px"
	 viewBox="0 0 627.7 203.8" style="enable-background:new 0 0 627.7 203.8;" xml:space="preserve">
<style type="text/css">
	.st0{display:none;}
	.st1{display:inline;}
	.st2{fill:none;}
	.st3{fill:none;stroke:#000000;stroke-width:0.2;stroke-linecap:square;stroke-miterlimit:10;stroke-dasharray:1,1;}
	.st4{fill:none;stroke:#000000;stroke-width:0.1;stroke-linecap:square;stroke-miterlimit:10;}
	.st5{fill:none;stroke:#000000;stroke-width:0.16;stroke-linecap:square;stroke-miterlimit:10;}
	.st6{fill:none;stroke:#000000;stroke-width:0.28;stroke-linecap:square;stroke-miterlimit:10;}
	.st7{fill:none;stroke:#000000;stroke-width:0.64;stroke-linecap:square;stroke-miterlimit:10;}
	.st8{fill:none;stroke:#000000;stroke-width:0.82;stroke-linecap:square;stroke-miterlimit:10;}
</style>
<g id="Calque_1_1_">
</g>
<g id="INFOS_x24_A4" class="st0">
	<g id="POLYLINE_4968_" class="st1">
		<rect x="16.8" y="-311" class="st2" width="595.3" height="841.9"/>
	</g>
</g>
<g id="PLAN_x24_FOND">
</g>
<g id="PLAN_x24_POINTILLE">
	<g id="POLYLINE_6947_">
		<line class="st3" x1="132.1" y1="69" x2="126.5" y2="55.8"/>
	</g>
	<g id="POLYLINE_6946_">
		<line class="st3" x1="130.5" y1="69" x2="124.9" y2="55.8"/>
	</g>
</g>
<g id="PLAN_x24_VITRAGE">
	<g id="POLYLINE_6469_">
		<rect x="574.9" y="176.4" class="st4" width="19.8" height="0.6"/>
	</g>
	<g id="POLYLINE_6468_">
		<rect x="525.9" y="176.4" class="st4" width="18.6" height="0.6"/>
	</g>
	<g id="POLYLINE_6467_">
		
			<rect x="597.7" y="144.1" transform="matrix(6.899672e-03 -1 1 6.899672e-03 454.2157 746.1771)" class="st4" width="10.2" height="0.6"/>
	</g>
	<g id="POLYLINE_6466_">
		<rect x="218.1" y="52" class="st4" width="0.6" height="35.2"/>
	</g>
	<g id="ARC_510_">
		<path class="st4" d="M31.3,91.8c-4.8,4-7.8,10-8,16.2"/>
	</g>
	<g id="ARC_509_">
		<path class="st4" d="M46.7,85.8c-5-0.2-9.8,1.4-14,4.2"/>
	</g>
	<g id="LINE_726_">
		<line class="st4" x1="46.7" y1="85.8" x2="46.7" y2="86.4"/>
	</g>
	<g id="ARC_508_">
		<path class="st4" d="M46.7,86.4c-4.8-0.2-9.6,1.2-13.6,4"/>
	</g>
	<g id="ARC_463_">
		<path class="st4" d="M30.9,91.2c-5,4.2-8,10.2-8.2,16.6"/>
	</g>
	<g id="ARC_462_">
		<path class="st4" d="M23.3,110.2c0.2,5.2,2.2,10,5.6,13.8"/>
	</g>
	<g id="LINE_725_">
		<line class="st4" x1="28.7" y1="124" x2="28.3" y2="124.4"/>
	</g>
	<g id="ARC_461_">
		<path class="st4" d="M22.7,110.2c0.2,5.2,2.2,10.2,5.6,14.2"/>
	</g>
	<g id="ARC_460_">
		<path class="st4" d="M82.1,186.6c4.4,4.4,10.2,7,16.4,7"/>
	</g>
	<g id="LINE_724_">
		<line class="st4" x1="82.1" y1="186.6" x2="82.5" y2="186.2"/>
	</g>
	<g id="ARC_459_">
		<path class="st4" d="M82.5,186.2c4.2,4.4,10,6.8,16,6.8"/>
	</g>
	<g id="LINE_723_">
		<line class="st4" x1="98.7" y1="193" x2="98.7" y2="193.6"/>
	</g>
	<g id="POLYLINE_6465_">
		<rect x="397.9" y="87.4" class="st4" width="17.6" height="0.6"/>
	</g>
	<g id="POLYLINE_6464_">
		<rect x="378.1" y="87.4" class="st4" width="17.6" height="0.6"/>
	</g>
	<g id="POLYLINE_6463_">
		<rect x="358.3" y="87.4" class="st4" width="17.6" height="0.6"/>
	</g>
	<g id="POLYLINE_6462_">
		<rect x="338.5" y="87.4" class="st4" width="17.6" height="0.6"/>
	</g>
	<g id="POLYLINE_6461_">
		<rect x="318.7" y="87.4" class="st4" width="17.6" height="0.6"/>
	</g>
	<g id="POLYLINE_6460_">
		<rect x="298.9" y="87.4" class="st4" width="17.6" height="0.6"/>
	</g>
	<g id="POLYLINE_6459_">
		<rect x="279.1" y="87.4" class="st4" width="17.6" height="0.6"/>
	</g>
	<g id="POLYLINE_6458_">
		<rect x="259.3" y="87.4" class="st4" width="17.6" height="0.6"/>
	</g>
	<g id="POLYLINE_6457_">
		<rect x="239.5" y="87.4" class="st4" width="17.6" height="0.6"/>
	</g>
	<g id="POLYLINE_6456_">
		<rect x="219.7" y="87.4" class="st4" width="17.6" height="0.6"/>
	</g>
	<g id="POLYLINE_6455_">
		<rect x="68.7" y="85.8" class="st4" width="17.6" height="0.6"/>
	</g>
	<g id="POLYLINE_6454_">
		<rect x="48.9" y="85.8" class="st4" width="17.6" height="0.6"/>
	</g>
	<g id="POLYLINE_6453_">
		
			<rect x="35.6" y="123.8" transform="matrix(0.756 -0.6545 0.6545 0.756 -78.0614 55.8729)" class="st4" width="0.6" height="17.8"/>
	</g>
	<g id="POLYLINE_6452_">
		
			<rect x="48.7" y="138.7" transform="matrix(0.756 -0.6545 0.6545 0.756 -84.6569 68.0933)" class="st4" width="0.6" height="17.8"/>
	</g>
	<g id="POLYLINE_6451_">
		<rect x="61.8" y="154" transform="matrix(0.756 -0.6545 0.6545 0.756 -91.4428 80.3683)" class="st4" width="0.6" height="17.8"/>
	</g>
	<g id="POLYLINE_6450_">
		
			<rect x="74.9" y="168.9" transform="matrix(0.756 -0.6545 0.6545 0.756 -98.0393 92.5876)" class="st4" width="0.6" height="17.8"/>
	</g>
	<g id="POLYLINE_6449_">
		<rect x="100.9" y="193" class="st4" width="17.6" height="0.6"/>
	</g>
	<g id="POLYLINE_6448_">
		<rect x="120.7" y="193" class="st4" width="17.6" height="0.6"/>
	</g>
	<g id="POLYLINE_6447_">
		<rect x="140.5" y="193" class="st4" width="17.6" height="0.6"/>
	</g>
	<g id="POLYLINE_6446_">
		<rect x="160.3" y="193" class="st4" width="17.6" height="0.6"/>
	</g>
	<g id="POLYLINE_6445_">
		<rect x="180.1" y="193" class="st4" width="17.6" height="0.6"/>
	</g>
	<g id="POLYLINE_6444_">
		<rect x="199.9" y="193" class="st4" width="17.6" height="0.6"/>
	</g>
	<g id="POLYLINE_6443_">
		<rect x="219.7" y="193" class="st4" width="17.6" height="0.6"/>
	</g>
	<g id="POLYLINE_6442_">
		<rect x="239.5" y="193" class="st4" width="17.6" height="0.6"/>
	</g>
	<g id="POLYLINE_6441_">
		<rect x="259.3" y="193" class="st4" width="17.6" height="0.6"/>
	</g>
	<g id="POLYLINE_6440_">
		<rect x="279.1" y="193" class="st4" width="17.6" height="0.6"/>
	</g>
	<g id="POLYLINE_6439_">
		<rect x="298.9" y="193" class="st4" width="17.6" height="0.6"/>
	</g>
	<g id="POLYLINE_6438_">
		<rect x="318.7" y="193" class="st4" width="17.6" height="0.6"/>
	</g>
	<g id="POLYLINE_6437_">
		<rect x="338.5" y="193" class="st4" width="17.6" height="0.6"/>
	</g>
	<g id="POLYLINE_6436_">
		<rect x="358.3" y="193" class="st4" width="17.6" height="0.6"/>
	</g>
	<g id="POLYLINE_6435_">
		<rect x="378.1" y="193" class="st4" width="17.6" height="0.6"/>
	</g>
	<g id="POLYLINE_6434_">
		<rect x="397.9" y="193" class="st4" width="17.6" height="0.6"/>
	</g>
	<g id="POLYLINE_6433_">
		<rect x="417.7" y="193" class="st4" width="17.6" height="0.6"/>
	</g>
	<g id="POLYLINE_6432_">
		<rect x="437.5" y="193" class="st4" width="17.6" height="0.6"/>
	</g>
	<g id="POLYLINE_6431_">
		<rect x="457.3" y="193" class="st4" width="17.6" height="0.6"/>
	</g>
	<g id="POLYLINE_6430_">
		<rect x="477.1" y="193" class="st4" width="17.6" height="0.6"/>
	</g>
	<g id="POLYLINE_6429_">
		<rect x="99.7" y="41.2" class="st4" width="0.6" height="27.6"/>
	</g>
	<g id="POLYLINE_6427_">
		<rect x="99.7" y="70.6" class="st4" width="0.6" height="16.6"/>
	</g>
</g>
<g id="PLAN_x24_MOBILIER">
	<g id="SPLINE_290_">
		<path class="st5" d="M594.9,126c-0.2,0.4-0.2,1-0.2,1.4s0,0.8,0,1c0,0.4,0,1,0.2,1.4c0,0.2,0.2,0.4,0.4,0.6
			c0.4,0.2,0.8,0.4,1.2,0.4c0.2,0,0.4,0,0.6,0c0.4,0,0.6-0.2,0.8-0.4c0.4-0.4,0.6-0.8,0.6-1.4c0-0.6,0.2-1,0-1.6c0-0.4,0-0.8-0.2-1
			c0-0.2,0-0.4-0.2-0.6"/>
	</g>
	<g id="POLYLINE_6632_">
		<rect x="593.7" y="123" class="st5" width="6" height="3"/>
	</g>
	<g id="SPLINE_289_">
		<path class="st5" d="M584.5,126c-0.2,0.4-0.2,1-0.2,1.4s0,0.8,0,1c0,0.4,0,1,0.2,1.4c0,0.2,0.2,0.4,0.4,0.6
			c0.4,0.2,0.8,0.4,1.2,0.4c0.2,0,0.4,0,0.6,0c0.4,0,0.6-0.2,0.8-0.4c0.4-0.4,0.6-0.8,0.6-1.4c0-0.6,0.2-1,0-1.6c0-0.4,0-0.8-0.2-1
			c0-0.2,0-0.4-0.2-0.6"/>
	</g>
	<g id="POLYLINE_6631_">
		<rect x="583.5" y="123" class="st5" width="6" height="3"/>
	</g>
	<g id="POLYLINE_6630_">
		<rect x="596.9" y="150.8" class="st5" width="4.4" height="4.2"/>
	</g>
	<g id="POLYLINE_6629_">
		<rect x="596.9" y="157" class="st5" width="4.4" height="4.2"/>
	</g>
	<g id="POLYLINE_6628_">
		<rect x="596.9" y="164" class="st5" width="4.4" height="4.2"/>
	</g>
	<g id="CIRCLE">
		<path class="st5" d="M569.3,153c0-0.4,0.2-0.6,0.6-0.6s0.6,0.2,0.6,0.6s-0.2,0.6-0.6,0.6C569.5,153.6,569.3,153.4,569.3,153
			L569.3,153z"/>
	</g>
	<g id="POLYLINE_6627_">
		<rect x="568.5" y="149.8" class="st5" width="5.2" height="6.4"/>
	</g>
	<g id="POLYLINE_6626_">
		<rect x="568.5" y="158" class="st5" width="5.2" height="6.4"/>
	</g>
	<g id="CIRCLE_468_">
		<path class="st5" d="M569.3,161c0-0.4,0.2-0.6,0.6-0.6s0.6,0.2,0.6,0.6s-0.2,0.6-0.6,0.6C569.5,161.6,569.3,161.4,569.3,161
			L569.3,161z"/>
	</g>
	<g id="CIRCLE_467_">
		<path class="st5" d="M569.3,169.8c0-0.4,0.2-0.6,0.6-0.6s0.6,0.2,0.6,0.6s-0.4,0.4-0.6,0.4C569.5,170.2,569.3,170,569.3,169.8
			L569.3,169.8z"/>
	</g>
	<g id="POLYLINE_6625_">
		<rect x="568.5" y="166.6" class="st5" width="5.2" height="6.4"/>
	</g>
	<g id="CIRCLE_394_">
		<path class="st5" d="M198.5,67.6c0-0.4,0.2-0.6,0.6-0.6s0.6,0.2,0.6,0.6c0,0.4-0.4,0.6-0.6,0.6C198.7,68.2,198.5,67.8,198.5,67.6
			L198.5,67.6z"/>
	</g>
	<g id="CIRCLE_391_">
		<path class="st5" d="M186.5,67.6c0-0.4,0.2-0.6,0.6-0.6s0.6,0.2,0.6,0.6c0,0.4-0.4,0.6-0.6,0.6C186.7,68.2,186.5,67.8,186.5,67.6
			L186.5,67.6z"/>
	</g>
	<g id="SPLINE_288_">
		<path class="st5" d="M200.9,48.2c0.4,0.2,1,0.2,1.4,0.2s0.8,0,1,0c0.4,0,1,0,1.4-0.2c0.2,0,0.4-0.2,0.6-0.4
			c0.2-0.4,0.4-0.8,0.4-1.2c0-0.2,0-0.4,0-0.6c0-0.4-0.2-0.6-0.4-0.8c-0.4-0.4-0.8-0.6-1.4-0.6c-0.6,0-1-0.2-1.6,0
			c-0.4,0-0.8,0-1,0.2c-0.2,0-0.4,0-0.6,0.2"/>
	</g>
	<g id="POLYLINE_6624_">
		<rect x="198.1" y="43.4" class="st5" width="3" height="6"/>
	</g>
	<g id="SPLINE_287_">
		<path class="st5" d="M194.5,48.2c-0.4,0.2-1,0.2-1.4,0.2s-0.8,0-1,0c-0.4,0-1,0-1.4-0.2c-0.2,0-0.4-0.2-0.6-0.4
			c-0.2-0.4-0.4-0.8-0.4-1.2c0-0.2,0-0.4,0-0.6c0-0.4,0.2-0.6,0.4-0.8c0.4-0.4,0.8-0.6,1.4-0.6c0.6,0,1-0.2,1.6,0c0.4,0,0.8,0,1,0.2
			c0.2,0,0.4,0,0.6,0.2"/>
	</g>
	<g id="POLYLINE_6623_">
		<rect x="194.5" y="43.4" class="st5" width="3" height="6"/>
	</g>
	<g id="POLYLINE_6622_">
		<rect x="195.9" y="63.6" class="st5" width="6.4" height="5.2"/>
	</g>
	<g id="POLYLINE_6621_">
		<rect x="183.9" y="63.6" class="st5" width="6.4" height="5.2"/>
	</g>
</g>
<g id="PLAN_x24_DETAIL">
	<g id="POLYLINE_6741_">
		<line class="st5" x1="544.5" y1="173.6" x2="525.9" y2="173.6"/>
	</g>
	<g id="POLYLINE_6740_">
		<line class="st5" x1="525.9" y1="173.6" x2="525.9" y2="120.4"/>
	</g>
	<g id="ARC_530_">
		<path class="st5" d="M525.9,136.2c-6,0-10.8,4.8-10.8,10.8s4.8,10.8,10.8,10.8"/>
	</g>
	<g id="POLYLINE_6739_">
		<line class="st5" x1="525.9" y1="136.2" x2="525.9" y2="120.4"/>
	</g>
	<g id="ARC_529_">
		<path class="st5" d="M525.9,120.4c-14.8,0-26.6,12-26.6,26.6s12,26.6,26.6,26.6"/>
	</g>
	<g id="POLYLINE_6738_">
		<line class="st5" x1="525.9" y1="173.6" x2="525.9" y2="157.8"/>
	</g>
	<g id="POLYLINE_6737_">
		<line class="st5" x1="140.5" y1="55.8" x2="140.5" y2="69"/>
	</g>
	<g id="POLYLINE_6736_">
		<line class="st5" x1="137.7" y1="55.8" x2="137.7" y2="69"/>
	</g>
	<g id="POLYLINE_6735_">
		<line class="st5" x1="134.9" y1="55.8" x2="134.9" y2="69"/>
	</g>
	<g id="POLYLINE_6734_">
		<line class="st5" x1="132.1" y1="55.8" x2="132.1" y2="69"/>
	</g>
	<g id="POLYLINE_6733_">
		<line class="st5" x1="123.7" y1="55.8" x2="123.7" y2="69"/>
	</g>
	<g id="POLYLINE_6732_">
		<line class="st5" x1="120.7" y1="55.8" x2="120.7" y2="69"/>
	</g>
	<g id="POLYLINE_6731_">
		<line class="st5" x1="117.9" y1="55.8" x2="117.9" y2="69"/>
	</g>
	<g id="POLYLINE_6730_">
		<line class="st5" x1="115.1" y1="55.8" x2="115.1" y2="69"/>
	</g>
	<g id="POLYLINE_6729_">
		<line class="st5" x1="115.1" y1="54.4" x2="115.1" y2="41.2"/>
	</g>
	<g id="POLYLINE_6728_">
		<line class="st5" x1="117.9" y1="54.4" x2="117.9" y2="41.2"/>
	</g>
	<g id="POLYLINE_6727_">
		<line class="st5" x1="120.7" y1="54.4" x2="120.7" y2="41.2"/>
	</g>
	<g id="POLYLINE_6726_">
		<line class="st5" x1="123.7" y1="54.4" x2="123.7" y2="41.2"/>
	</g>
	<g id="POLYLINE_6725_">
		<line class="st5" x1="126.5" y1="54.4" x2="126.5" y2="41.2"/>
	</g>
	<g id="POLYLINE_6724_">
		<line class="st5" x1="129.3" y1="54.4" x2="129.3" y2="41.2"/>
	</g>
	<g id="POLYLINE_6723_">
		<line class="st5" x1="132.1" y1="54.4" x2="132.1" y2="41.2"/>
	</g>
	<g id="POLYLINE_6722_">
		<line class="st5" x1="134.9" y1="54.4" x2="134.9" y2="41.2"/>
	</g>
	<g id="POLYLINE_6721_">
		<line class="st5" x1="137.7" y1="54.4" x2="137.7" y2="41.2"/>
	</g>
	<g id="POLYLINE_6720_">
		<line class="st5" x1="193.3" y1="72.8" x2="182.1" y2="83.8"/>
	</g>
	<g id="POLYLINE_6719_">
		<line class="st5" x1="182.1" y1="72.8" x2="193.3" y2="83.8"/>
	</g>
	<g id="POLYLINE_6718_">
		<rect x="182.1" y="72.8" class="st5" width="11.4" height="11"/>
	</g>
	<g id="POLYLINE_6717_">
		<line class="st5" x1="134.5" y1="72.8" x2="123.1" y2="83.8"/>
	</g>
	<g id="POLYLINE_6716_">
		<line class="st5" x1="123.1" y1="72.8" x2="134.5" y2="83.8"/>
	</g>
	<g id="POLYLINE_6715_">
		<rect x="123.1" y="72.8" class="st5" width="11.4" height="11"/>
	</g>
	<g id="POLYLINE_6714_">
		<line class="st5" x1="562.9" y1="144.8" x2="548.7" y2="156.6"/>
	</g>
	<g id="POLYLINE_6713_">
		<line class="st5" x1="548.7" y1="144.8" x2="562.9" y2="156.6"/>
	</g>
	<g id="POLYLINE_6712_">
		<rect x="548.7" y="144.8" class="st5" width="14.2" height="11.8"/>
	</g>
	<g id="POLYLINE_6711_">
		<line class="st5" x1="564.7" y1="124.2" x2="548.9" y2="139.6"/>
	</g>
	<g id="POLYLINE_6710_">
		<line class="st5" x1="548.9" y1="124.2" x2="564.7" y2="139.6"/>
	</g>
	<g id="POLYLINE_6709_">
		<rect x="548.9" y="124.2" class="st5" width="15.8" height="15.4"/>
	</g>
	<g id="POLYLINE_6708_">
		<line class="st5" x1="523.9" y1="136.4" x2="520.7" y2="121"/>
	</g>
	<g id="POLYLINE_6707_">
		<line class="st5" x1="521.9" y1="137" x2="515.7" y2="122.4"/>
	</g>
	<g id="POLYLINE_6706_">
		<line class="st5" x1="519.9" y1="138" x2="511.1" y2="124.8"/>
	</g>
	<g id="POLYLINE_6705_">
		<line class="st5" x1="518.3" y1="139.4" x2="507.1" y2="128.2"/>
	</g>
	<g id="POLYLINE_6704_">
		<line class="st5" x1="516.9" y1="141" x2="503.9" y2="132.2"/>
	</g>
	<g id="POLYLINE_6703_">
		<line class="st5" x1="515.9" y1="142.8" x2="501.3" y2="136.8"/>
	</g>
	<g id="POLYLINE_6702_">
		<line class="st5" x1="515.3" y1="145" x2="499.9" y2="141.8"/>
	</g>
	<g id="POLYLINE_6701_">
		<line class="st5" x1="515.1" y1="147" x2="499.3" y2="147"/>
	</g>
	<g id="POLYLINE_6700_">
		<line class="st5" x1="515.3" y1="149.2" x2="499.9" y2="152.2"/>
	</g>
	<g id="POLYLINE_6699_">
		<line class="st5" x1="515.9" y1="151.2" x2="501.3" y2="157.2"/>
	</g>
	<g id="POLYLINE_6698_">
		<line class="st5" x1="516.9" y1="153" x2="503.9" y2="161.8"/>
	</g>
	<g id="POLYLINE_6697_">
		<line class="st5" x1="518.3" y1="154.6" x2="507.1" y2="165.8"/>
	</g>
	<g id="POLYLINE_6696_">
		<line class="st5" x1="519.9" y1="156" x2="511.1" y2="169.2"/>
	</g>
	<g id="POLYLINE_6695_">
		<line class="st5" x1="521.9" y1="157" x2="515.7" y2="171.6"/>
	</g>
	<g id="POLYLINE_6694_">
		<line class="st5" x1="523.9" y1="157.6" x2="520.7" y2="173.2"/>
	</g>
	<g id="POLYLINE_6693_">
		<line class="st5" x1="574.9" y1="173.6" x2="594.7" y2="173.6"/>
	</g>
	<g id="POLYLINE_6692_">
		<line class="st5" x1="601.3" y1="139.4" x2="601.3" y2="149.6"/>
	</g>
	<g id="POLYLINE_6691_">
		<line class="st5" x1="592.9" y1="139.2" x2="592.9" y2="132.4"/>
	</g>
	<g id="ARC_528_">
		<path class="st5" d="M592.9,132.4c3.8,0,6.8,3,6.8,6.8"/>
	</g>
	<g id="POLYLINE_6690_">
		<line class="st5" x1="590.1" y1="139.2" x2="590.1" y2="132.4"/>
	</g>
	<g id="ARC_527_">
		<path class="st5" d="M590.1,132.4c-3.8,0-6.8,3-6.8,6.8"/>
	</g>
	<g id="POLYLINE_6689_">
		<line class="st5" x1="570.1" y1="122.2" x2="570.1" y2="131.2"/>
	</g>
	<g id="ARC_526_">
		<path class="st5" d="M570.1,131.2c5,0,9-4,9-9"/>
	</g>
	<g id="POLYLINE_6688_">
		<line class="st5" x1="215.5" y1="89.6" x2="215.5" y2="79.4"/>
	</g>
	<g id="ARC_525_">
		<path class="st5" d="M215.5,79.4c-5.6,0-10.2,4.6-10.2,10.2"/>
	</g>
	<g id="POLYLINE_6687_">
		<line class="st5" x1="546.7" y1="125.8" x2="546.7" y2="139.4"/>
	</g>
	<g id="POLYLINE_6686_">
		<line class="st5" x1="545.1" y1="139.4" x2="545.1" y2="125.8"/>
	</g>
	<g id="POLYLINE_6685_">
		<line class="st5" x1="546.7" y1="155.6" x2="546.7" y2="145.4"/>
	</g>
	<g id="POLYLINE_6684_">
		<line class="st5" x1="545.1" y1="145.4" x2="545.1" y2="155.6"/>
	</g>
	<g id="ARC_524_">
		<path class="st5" d="M216.9,42.2c-5.4,0-9.8,4.4-9.8,9.8"/>
	</g>
	<g id="ARC_523_">
		<path class="st5" d="M189.3,52c0-5.4-4.4-9.8-9.8-9.8"/>
	</g>
	<g id="POLYLINE_6683_">
		<line class="st5" x1="140.5" y1="54.4" x2="140.5" y2="41.2"/>
	</g>
	<g id="POLYLINE_6682_">
		<line class="st5" x1="216.9" y1="52" x2="216.9" y2="87"/>
	</g>
	<g id="ARC_522_">
		<path class="st5" d="M46.7,89.2c-11-0.4-20.2,8.2-20.6,19.2c-0.2,5,1.6,10,4.8,13.8"/>
	</g>
	<g id="ARC_521_">
		<path class="st5" d="M84.7,184.4c3.6,3.8,8.6,5.8,13.8,5.8"/>
	</g>
	<g id="POLYLINE_6681_">
		<line class="st5" x1="397.9" y1="90.8" x2="415.5" y2="90.8"/>
	</g>
	<g id="POLYLINE_6680_">
		<line class="st5" x1="378.1" y1="90.8" x2="395.7" y2="90.8"/>
	</g>
	<g id="POLYLINE_6679_">
		<line class="st5" x1="358.3" y1="90.8" x2="375.9" y2="90.8"/>
	</g>
	<g id="POLYLINE_6678_">
		<line class="st5" x1="338.5" y1="90.8" x2="356.1" y2="90.8"/>
	</g>
	<g id="POLYLINE_6677_">
		<line class="st5" x1="318.7" y1="90.8" x2="336.3" y2="90.8"/>
	</g>
	<g id="POLYLINE_6676_">
		<line class="st5" x1="298.9" y1="90.8" x2="316.5" y2="90.8"/>
	</g>
	<g id="POLYLINE_6675_">
		<line class="st5" x1="279.1" y1="90.8" x2="296.7" y2="90.8"/>
	</g>
	<g id="POLYLINE_6674_">
		<line class="st5" x1="259.3" y1="90.8" x2="276.9" y2="90.8"/>
	</g>
	<g id="POLYLINE_6673_">
		<line class="st5" x1="239.5" y1="90.8" x2="257.1" y2="90.8"/>
	</g>
	<g id="POLYLINE_6672_">
		<line class="st5" x1="219.7" y1="90.8" x2="237.3" y2="90.8"/>
	</g>
	<g id="POLYLINE_6671_">
		<line class="st5" x1="68.7" y1="89.2" x2="86.3" y2="89.2"/>
	</g>
	<g id="POLYLINE_6670_">
		<line class="st5" x1="48.9" y1="89.2" x2="66.5" y2="89.2"/>
	</g>
	<g id="POLYLINE_6669_">
		<line class="st5" x1="43.9" y1="137.2" x2="32.3" y2="123.8"/>
	</g>
	<g id="POLYLINE_6668_">
		<line class="st5" x1="57.1" y1="152.4" x2="45.5" y2="139"/>
	</g>
	<g id="POLYLINE_6667_">
		<line class="st5" x1="70.1" y1="167.6" x2="58.5" y2="154.2"/>
	</g>
	<g id="POLYLINE_6666_">
		<line class="st5" x1="83.3" y1="182.6" x2="71.7" y2="169.2"/>
	</g>
	<g id="POLYLINE_6665_">
		<line class="st5" x1="118.5" y1="190.2" x2="100.9" y2="190.2"/>
	</g>
	<g id="POLYLINE_6664_">
		<line class="st5" x1="138.3" y1="190.2" x2="120.7" y2="190.2"/>
	</g>
	<g id="POLYLINE_6663_">
		<line class="st5" x1="158.1" y1="190.2" x2="140.5" y2="190.2"/>
	</g>
	<g id="POLYLINE_6662_">
		<line class="st5" x1="177.9" y1="190.2" x2="160.3" y2="190.2"/>
	</g>
	<g id="POLYLINE_6661_">
		<line class="st5" x1="197.7" y1="190.2" x2="180.1" y2="190.2"/>
	</g>
	<g id="POLYLINE_6660_">
		<line class="st5" x1="217.5" y1="190.2" x2="199.9" y2="190.2"/>
	</g>
	<g id="POLYLINE_6659_">
		<line class="st5" x1="237.3" y1="190.2" x2="219.7" y2="190.2"/>
	</g>
	<g id="POLYLINE_6658_">
		<line class="st5" x1="257.1" y1="190.2" x2="239.5" y2="190.2"/>
	</g>
	<g id="POLYLINE_6657_">
		<line class="st5" x1="276.9" y1="190.2" x2="259.3" y2="190.2"/>
	</g>
	<g id="POLYLINE_6656_">
		<line class="st5" x1="296.7" y1="190.2" x2="279.1" y2="190.2"/>
	</g>
	<g id="POLYLINE_6655_">
		<line class="st5" x1="316.5" y1="190.2" x2="298.9" y2="190.2"/>
	</g>
	<g id="POLYLINE_6654_">
		<line class="st5" x1="336.3" y1="190.2" x2="318.7" y2="190.2"/>
	</g>
	<g id="POLYLINE_6653_">
		<line class="st5" x1="356.1" y1="190.2" x2="338.5" y2="190.2"/>
	</g>
	<g id="POLYLINE_6652_">
		<line class="st5" x1="375.9" y1="190.2" x2="358.3" y2="190.2"/>
	</g>
	<g id="POLYLINE_6651_">
		<line class="st5" x1="395.7" y1="190.2" x2="378.1" y2="190.2"/>
	</g>
	<g id="POLYLINE_6650_">
		<line class="st5" x1="415.5" y1="190.2" x2="397.9" y2="190.2"/>
	</g>
	<g id="POLYLINE_6649_">
		<line class="st5" x1="435.3" y1="190.2" x2="417.7" y2="190.2"/>
	</g>
	<g id="POLYLINE_6648_">
		<line class="st5" x1="455.1" y1="190.2" x2="437.5" y2="190.2"/>
	</g>
	<g id="POLYLINE_6643_">
		<line class="st5" x1="474.9" y1="190.2" x2="457.3" y2="190.2"/>
	</g>
	<g id="POLYLINE_6642_">
		<line class="st5" x1="494.7" y1="190.2" x2="477.1" y2="190.2"/>
	</g>
	<g id="POLYLINE_6641_">
		<rect x="135.7" y="73.6" class="st5" width="1.8" height="10.2"/>
	</g>
	<g id="POLYLINE_6640_">
		<line class="st5" x1="177.9" y1="73.6" x2="177.9" y2="83.8"/>
	</g>
	<g id="POLYLINE_6639_">
		<line class="st5" x1="179.5" y1="83.8" x2="179.5" y2="73.6"/>
	</g>
	<g id="POLYLINE_6638_">
		<line class="st5" x1="205.3" y1="88.4" x2="205.3" y2="70.6"/>
	</g>
	<g id="POLYLINE_6637_">
		<line class="st5" x1="129.3" y1="55.8" x2="129.3" y2="62.4"/>
	</g>
	<g id="POLYLINE_6636_">
		<line class="st5" x1="129.3" y1="65.8" x2="129.3" y2="69"/>
	</g>
	<g id="POLYLINE_6635_">
		<line class="st5" x1="126.5" y1="59.2" x2="126.5" y2="69"/>
	</g>
</g>
<g id="PLAN_x24_CLOISON_TRANSLUCIDE">
</g>
<g id="PLAN_x24_CLOISON_1.3">
	<g id="POLYLINE_6765_">
		<line class="st6" x1="583.3" y1="138.8" x2="583.3" y2="139.4"/>
	</g>
	<g id="POLYLINE_6764_">
		<polyline class="st6" points="583.3,139.4 580.3,139.4 580.3,123 580.9,123 580.9,138.8 583.3,138.8 		"/>
	</g>
	<g id="POLYLINE_6763_">
		<polyline class="st6" points="599.7,138.8 601.3,138.8 601.3,139.4 599.7,139.4 		"/>
	</g>
	<g id="POLYLINE_6762_">
		<line class="st6" x1="599.7" y1="139.4" x2="599.7" y2="138.8"/>
	</g>
	<g id="POLYLINE_6761_">
		<line class="st6" x1="591.7" y1="138.8" x2="592.9" y2="138.8"/>
	</g>
	<g id="POLYLINE_6760_">
		<line class="st6" x1="592.9" y1="138.8" x2="592.9" y2="139.4"/>
	</g>
	<g id="POLYLINE_6759_">
		<line class="st6" x1="592.9" y1="139.4" x2="590.1" y2="139.4"/>
	</g>
	<g id="POLYLINE_6758_">
		<line class="st6" x1="590.1" y1="139.4" x2="590.1" y2="138.8"/>
	</g>
	<g id="POLYLINE_6757_">
		<line class="st6" x1="590.1" y1="138.8" x2="591.1" y2="138.8"/>
	</g>
	<g id="POLYLINE_6756_">
		<polyline class="st6" points="591.1,138.8 591.1,123 591.7,123 591.7,138.8 		"/>
	</g>
	<g id="POLYLINE_6755_">
		<rect x="189.3" y="51.4" class="st6" width="17.8" height="0.6"/>
	</g>
	<g id="POLYLINE_6754_">
		<rect x="197.5" y="41.2" class="st6" width="0.6" height="10.2"/>
	</g>
</g>
<g id="PLAN_x24_CLOISON_1.2">
</g>
<g id="PLAN_x24_CLOISON_1.1">
</g>
<g id="PLAN_x24_STRUCTURE_2.3">
</g>
<g id="PLAN_x24_STRUCTURE_2.2">
	<g id="POLYLINE_6414_">
		<line class="st7" x1="105.5" y1="69" x2="105.5" y2="70.6"/>
	</g>
	<g id="POLYLINE_6413_">
		<polyline class="st7" points="105.5,70.6 99.7,70.6 99.7,69 105.5,69 		"/>
	</g>
	<g id="POLYLINE_6412_">
		<polyline class="st7" points="136.3,69 140.5,69 140.5,70.6 137.5,70.6 		"/>
	</g>
	<g id="POLYLINE_6411_">
		<line class="st7" x1="137.5" y1="70.6" x2="137.5" y2="73.6"/>
	</g>
	<g id="POLYLINE_6410_">
		<line class="st7" x1="137.5" y1="73.6" x2="135.7" y2="73.6"/>
	</g>
	<g id="POLYLINE_6409_">
		<polyline class="st7" points="135.7,73.6 135.7,70.6 118.5,70.6 118.5,85.6 135.7,85.6 135.7,83.8 		"/>
	</g>
	<g id="POLYLINE_6408_">
		<line class="st7" x1="135.7" y1="83.8" x2="137.5" y2="83.8"/>
	</g>
	<g id="POLYLINE_6407_">
		<polyline class="st7" points="137.5,83.8 137.5,87.4 116.9,87.4 116.9,70.6 		"/>
	</g>
	<g id="POLYLINE_6404_">
		<line class="st7" x1="116.9" y1="70.6" x2="114.5" y2="70.6"/>
	</g>
	<g id="POLYLINE_6403_">
		<line class="st7" x1="114.5" y1="70.6" x2="114.7" y2="69"/>
	</g>
	<g id="POLYLINE_6402_">
		<line class="st7" x1="114.7" y1="69" x2="116.9" y2="69"/>
	</g>
	<g id="POLYLINE_6401_">
		<line class="st7" x1="116.9" y1="69" x2="137.5" y2="69"/>
	</g>
	<g id="POLYLINE_6400_">
		<polyline class="st7" points="218.5,41.2 218.5,52 216.9,52 216.9,41.2 		"/>
	</g>
	<g id="POLYLINE_6399_">
		<polyline class="st7" points="216.9,41.2 98.9,41.2 98.9,39.6 218.5,39.6 218.5,41.2 		"/>
	</g>
	<g id="POLYLINE_6398_">
		<polyline class="st7" points="421.5,37.8 424.9,37.8 424.9,44.2 421.5,44.2 		"/>
	</g>
	<g id="POLYLINE_6397_">
		<polyline class="st7" points="421.5,44.2 421.5,90.8 417.7,90.8 417.7,10.6 421.5,10.6 421.5,37.8 		"/>
	</g>
	<g id="POLYLINE_6396_">
		<polyline class="st7" points="545.1,172 545.1,173.6 546.7,173.6 546.7,172 		"/>
	</g>
	<g id="POLYLINE_6395_">
		<line class="st7" x1="546.7" y1="172" x2="545.1" y2="172"/>
	</g>
	<g id="POLYLINE_6394_">
		<polyline class="st7" points="567.9,177 574.9,177 574.9,173.6 568.5,173.6 		"/>
	</g>
	<g id="POLYLINE_6393_">
		<line class="st7" x1="568.5" y1="173.6" x2="568.5" y2="123"/>
	</g>
	<g id="POLYLINE_6392_">
		<line class="st7" x1="568.5" y1="123" x2="570.1" y2="123"/>
	</g>
	<g id="POLYLINE_6391_">
		<line class="st7" x1="570.1" y1="123" x2="570.1" y2="121.2"/>
	</g>
	<g id="POLYLINE_6390_">
		<line class="st7" x1="570.1" y1="121.2" x2="568.5" y2="121.2"/>
	</g>
	<g id="POLYLINE_6389_">
		<line class="st7" x1="568.5" y1="121.2" x2="556.7" y2="121.2"/>
	</g>
	<g id="POLYLINE_6388_">
		<polyline class="st7" points="556.7,121.2 556.7,118.6 543.1,118.6 543.1,123 545.1,123 		"/>
	</g>
	<g id="POLYLINE_6387_">
		<line class="st7" x1="545.1" y1="123" x2="545.1" y2="125.8"/>
	</g>
	<g id="POLYLINE_6386_">
		<line class="st7" x1="545.1" y1="125.8" x2="546.7" y2="125.8"/>
	</g>
	<g id="POLYLINE_6202_">
		<line class="st7" x1="546.7" y1="125.8" x2="546.7" y2="123"/>
	</g>
	<g id="POLYLINE_6201_">
		<line class="st7" x1="546.7" y1="123" x2="556.7" y2="123"/>
	</g>
	<g id="POLYLINE_6200_">
		<polyline class="st7" points="556.7,123 566.7,123 566.7,141 		"/>
	</g>
	<g id="LINE_722_">
		<line class="st7" x1="566.7" y1="141" x2="546.7" y2="141"/>
	</g>
	<g id="POLYLINE_6199_">
		<line class="st7" x1="546.7" y1="141" x2="546.7" y2="139.4"/>
	</g>
	<g id="POLYLINE_6198_">
		<line class="st7" x1="546.7" y1="139.4" x2="545.1" y2="139.4"/>
	</g>
	<g id="POLYLINE_6197_">
		<line class="st7" x1="545.1" y1="139.4" x2="545.1" y2="145.4"/>
	</g>
	<g id="POLYLINE_6196_">
		<line class="st7" x1="545.1" y1="145.4" x2="546.7" y2="145.4"/>
	</g>
	<g id="POLYLINE_6195_">
		<line class="st7" x1="546.7" y1="145.4" x2="546.7" y2="142.6"/>
	</g>
	<g id="LINE_721_">
		<line class="st7" x1="546.7" y1="142.6" x2="566.7" y2="142.6"/>
	</g>
	<g id="POLYLINE_6194_">
		<line class="st7" x1="566.7" y1="142.6" x2="566.7" y2="158"/>
	</g>
	<g id="LINE_720_">
		<line class="st7" x1="566.7" y1="158" x2="546.7" y2="158"/>
	</g>
	<g id="POLYLINE_6193_">
		<line class="st7" x1="546.7" y1="158" x2="546.7" y2="155.6"/>
	</g>
	<g id="POLYLINE_6192_">
		<line class="st7" x1="546.7" y1="155.6" x2="545.1" y2="155.6"/>
	</g>
	<g id="POLYLINE_6191_">
		<line class="st7" x1="545.1" y1="155.6" x2="545.1" y2="164.2"/>
	</g>
	<g id="POLYLINE_6190_">
		<line class="st7" x1="545.1" y1="164.2" x2="546.7" y2="164.2"/>
	</g>
	<g id="POLYLINE_6189_">
		<line class="st7" x1="546.7" y1="164.2" x2="546.7" y2="159.8"/>
	</g>
	<g id="LINE_719_">
		<line class="st7" x1="546.7" y1="159.8" x2="566.7" y2="159.8"/>
	</g>
	<g id="POLYLINE_6188_">
		<line class="st7" x1="566.7" y1="159.8" x2="566.7" y2="173.6"/>
	</g>
	<g id="POLYLINE_6187_">
		<polyline class="st7" points="566.7,173.6 546.7,173.6 546.7,177 568.5,177 		"/>
	</g>
	<g id="POLYLINE_6186_">
		<line class="st7" x1="601.1" y1="173.2" x2="601.1" y2="173.6"/>
	</g>
	<g id="POLYLINE_6185_">
		<polyline class="st7" points="601.1,173.6 594.7,173.6 594.7,177 602.9,177 		"/>
	</g>
	<g id="POLYLINE_6184_">
		<line class="st7" x1="602.9" y1="177" x2="602.9" y2="173.2"/>
	</g>
	<g id="POLYLINE_6183_">
		<line class="st7" x1="602.9" y1="173.2" x2="603.1" y2="149.6"/>
	</g>
	<g id="POLYLINE_6182_">
		<line class="st7" x1="603.1" y1="149.6" x2="601.3" y2="149.6"/>
	</g>
	<g id="LINE_718_">
		<line class="st7" x1="601.3" y1="149.6" x2="601.1" y2="173.2"/>
	</g>
	<g id="POLYLINE_6181_">
		<line class="st7" x1="603.1" y1="139.4" x2="603.9" y2="15.8"/>
	</g>
	<g id="POLYLINE_6180_">
		<polyline class="st7" points="603.9,15.8 603.9,12.4 421.5,12.4 421.5,15.8 602.3,15.8 		"/>
	</g>
	<g id="LINE_717_">
		<line class="st7" x1="602.3" y1="15.8" x2="601.5" y2="121.2"/>
	</g>
	<g id="POLYLINE_6179_">
		<line class="st7" x1="601.5" y1="121.2" x2="579.1" y2="121.2"/>
	</g>
	<g id="POLYLINE_6178_">
		<line class="st7" x1="579.1" y1="121.2" x2="579.1" y2="123"/>
	</g>
	<g id="POLYLINE_6177_">
		<line class="st7" x1="579.1" y1="123" x2="601.5" y2="123"/>
	</g>
	<g id="LINE_716_">
		<line class="st7" x1="601.5" y1="123" x2="601.3" y2="139.4"/>
	</g>
	<g id="POLYLINE_6176_">
		<line class="st7" x1="601.3" y1="139.4" x2="603.1" y2="139.4"/>
	</g>
	<g id="POLYLINE_6175_">
		<polyline class="st7" points="179.5,83.8 179.5,85.6 196.7,85.6 196.7,70.6 179.5,70.6 179.5,73.6 		"/>
	</g>
	<g id="POLYLINE_6174_">
		<line class="st7" x1="179.5" y1="73.6" x2="177.9" y2="73.6"/>
	</g>
	<g id="POLYLINE_5145_">
		<polyline class="st7" points="177.9,73.6 177.9,41.2 179.5,41.2 179.5,69 		"/>
	</g>
	<g id="POLYLINE_5144_">
		<polyline class="st7" points="179.5,69 206.1,69 206.1,70.6 198.5,70.6 		"/>
	</g>
	<g id="POLYLINE_5143_">
		<line class="st7" x1="198.5" y1="70.6" x2="198.5" y2="87.4"/>
	</g>
	<g id="POLYLINE_5142_">
		<line class="st7" x1="196.7" y1="85.6" x2="196.7" y2="70.6"/>
	</g>
	<g id="POLYLINE_5141_">
		<line class="st7" x1="196.7" y1="70.6" x2="179.5" y2="70.6"/>
	</g>
	<g id="POLYLINE_5140_">
		<line class="st7" x1="179.5" y1="70.6" x2="179.5" y2="73.6"/>
	</g>
	<g id="POLYLINE_5139_">
		<polyline class="st7" points="179.5,87.4 177.9,87.4 177.9,83.8 		"/>
	</g>
	<g id="POLYLINE_5138_">
		<line class="st7" x1="177.9" y1="83.8" x2="179.5" y2="83.8"/>
	</g>
	<g id="POLYLINE_5137_">
		<line class="st7" x1="179.5" y1="83.8" x2="179.5" y2="85.6"/>
	</g>
	<g id="POLYLINE_5136_">
		<polyline class="st7" points="496.9,190.2 495.7,190.2 495.7,118.6 498.1,118.6 		"/>
	</g>
	<g id="POLYLINE_5135_">
		<polyline class="st7" points="498.1,118.6 525.9,118.6 525.9,120.4 498.1,120.4 		"/>
	</g>
	<g id="POLYLINE_5134_">
		<line class="st7" x1="498.1" y1="120.4" x2="498.1" y2="173.6"/>
	</g>
	<g id="POLYLINE_5133_">
		<polyline class="st7" points="498.1,173.6 523.7,173.6 523.7,177 498.1,177 		"/>
	</g>
	<g id="POLYLINE_5132_">
		<line class="st7" x1="498.1" y1="177" x2="498.1" y2="190.2"/>
	</g>
	<g id="POLYLINE_5131_">
		<polyline class="st7" points="498.1,190.2 498.1,193.6 496.9,193.6 		"/>
	</g>
	<g id="POLYLINE_5130_">
		<polyline class="st7" points="217.5,90.8 215.5,90.8 215.5,87 218.1,87 218.1,87.4 		"/>
	</g>
	<g id="POLYLINE_5129_">
		<rect x="115.1" y="54.4" class="st7" width="25.4" height="1.4"/>
	</g>
	<g id="POLYLINE_5128_">
		<polyline class="st7" points="180.1,88.4 180.1,90.8 205.3,90.8 205.3,88.4 199.9,88.4 		"/>
	</g>
	<g id="LINE_715_">
		<line class="st7" x1="545.1" y1="159.8" x2="545.1" y2="158"/>
	</g>
	<g id="POLYLINE_5127_">
		<rect x="136.3" y="85.6" class="st7" width="4.2" height="1.8"/>
	</g>
	<g id="POLYLINE_5126_">
		<line class="st7" x1="140.5" y1="87.4" x2="88.5" y2="87.4"/>
	</g>
	<g id="POLYLINE_5125_">
		<line class="st7" x1="138.3" y1="90.8" x2="88.5" y2="90.8"/>
	</g>
</g>
<g id="PLAN_x24_STRUCTURE_2.1">
</g>
<g id="PLAN_x24_STRUCTURE_1.3">
	<g id="POLYLINE_6903_">
		
			<rect x="31.7" y="90.2" transform="matrix(0.7947 -0.6071 0.6071 0.7947 -49.0173 38.8014)" class="st8" width="2.2" height="3.4"/>
	</g>
	<g id="POLYLINE_6902_">
		<rect x="22.7" y="108" class="st8" width="3.4" height="2.2"/>
	</g>
	<g id="POLYLINE_6901_">
		<rect x="544.5" y="173.6" class="st8" width="2.2" height="3.4"/>
	</g>
	<g id="POLYLINE_6900_">
		<rect x="523.7" y="173.6" class="st8" width="2.2" height="3.4"/>
	</g>
	<g id="POLYLINE_6899_">
		<rect x="419.1" y="12.4" class="st8" width="2.2" height="3.4"/>
	</g>
	<g id="POLYLINE_6898_">
		
			<rect x="28.7" y="122.9" transform="matrix(0.756 -0.6545 0.6545 0.756 -73.7837 50.1399)" class="st8" width="3.4" height="2.2"/>
	</g>
	<g id="POLYLINE_6897_">
		
			<rect x="41.7" y="138.2" transform="matrix(0.756 -0.6545 0.6545 0.756 -80.5702 62.4137)" class="st8" width="3.4" height="2.2"/>
	</g>
	<g id="POLYLINE_6896_">
		
			<rect x="54.8" y="153.1" transform="matrix(0.756 -0.6545 0.6545 0.756 -87.1676 74.6329)" class="st8" width="3.4" height="2.2"/>
	</g>
	<g id="POLYLINE_6895_">
		
			<rect x="67.9" y="168.4" transform="matrix(0.756 -0.6545 0.6545 0.756 -93.9542 86.9075)" class="st8" width="3.4" height="2.2"/>
	</g>
	<g id="POLYLINE_6894_">
		
			<rect x="81.1" y="183.5" transform="matrix(0.756 -0.6545 0.6545 0.756 -100.6185 99.2493)" class="st8" width="3.4" height="2.2"/>
	</g>
	<g id="POLYLINE_6893_">
		<rect x="534.3" y="12.4" class="st8" width="2.2" height="3.4"/>
	</g>
	<g id="POLYLINE_6892_">
		<rect x="554.1" y="12.4" class="st8" width="2.2" height="3.4"/>
	</g>
	<g id="POLYLINE_6891_">
		<rect x="573.9" y="12.4" class="st8" width="2.2" height="3.4"/>
	</g>
	<g id="POLYLINE_6890_">
		<rect x="593.7" y="12.4" class="st8" width="2.2" height="3.4"/>
	</g>
	<g id="POLYLINE_6889_">
		<rect x="435.3" y="12.4" class="st8" width="2.2" height="3.4"/>
	</g>
	<g id="POLYLINE_6888_">
		<rect x="514.5" y="12.4" class="st8" width="2.2" height="3.4"/>
	</g>
	<g id="POLYLINE_6887_">
		<rect x="494.7" y="12.4" class="st8" width="2.2" height="3.4"/>
	</g>
	<g id="POLYLINE_6886_">
		<rect x="474.9" y="12.4" class="st8" width="2.2" height="3.4"/>
	</g>
	<g id="POLYLINE_6885_">
		<rect x="455.1" y="12.4" class="st8" width="2.2" height="3.4"/>
	</g>
	<g id="POLYLINE_6884_">
		<rect x="554.1" y="86.4" class="st8" width="2.2" height="3.4"/>
	</g>
	<g id="POLYLINE_6883_">
		<rect x="494.7" y="86.4" class="st8" width="2.2" height="3.4"/>
	</g>
	<g id="POLYLINE_6882_">
		<rect x="46.7" y="85.8" class="st8" width="2.2" height="3.4"/>
	</g>
	<g id="POLYLINE_6881_">
		<rect x="66.5" y="85.8" class="st8" width="2.2" height="3.4"/>
	</g>
	<g id="POLYLINE_6880_">
		<rect x="86.3" y="85.8" class="st8" width="2.2" height="5"/>
	</g>
	<g id="POLYLINE_6879_">
		<rect x="98.7" y="87.4" class="st8" width="2.2" height="3.4"/>
	</g>
	<g id="POLYLINE_6878_">
		<rect x="118.5" y="87.4" class="st8" width="2.2" height="3.4"/>
	</g>
	<g id="POLYLINE_6877_">
		<rect x="138.3" y="87.4" class="st8" width="2.2" height="3.4"/>
	</g>
	<g id="POLYLINE_6876_">
		<rect x="177.9" y="87.4" class="st8" width="2.2" height="3.4"/>
	</g>
	<g id="POLYLINE_6875_">
		<rect x="197.7" y="87.4" class="st8" width="2.2" height="3.4"/>
	</g>
	<g id="POLYLINE_6874_">
		<rect x="217.5" y="87.4" class="st8" width="2.2" height="3.4"/>
	</g>
	<g id="POLYLINE_6873_">
		<rect x="237.3" y="87.4" class="st8" width="2.2" height="3.4"/>
	</g>
	<g id="POLYLINE_6872_">
		<rect x="257.1" y="87.4" class="st8" width="2.2" height="3.4"/>
	</g>
	<g id="POLYLINE_6871_">
		<rect x="276.9" y="87.4" class="st8" width="2.2" height="3.4"/>
	</g>
	<g id="POLYLINE_6870_">
		<rect x="296.7" y="87.4" class="st8" width="2.2" height="3.4"/>
	</g>
	<g id="POLYLINE_6869_">
		<rect x="316.5" y="87.4" class="st8" width="2.2" height="3.4"/>
	</g>
	<g id="POLYLINE_6868_">
		<rect x="336.3" y="87.4" class="st8" width="2.2" height="3.4"/>
	</g>
	<g id="POLYLINE_6867_">
		<rect x="356.1" y="87.4" class="st8" width="2.2" height="3.4"/>
	</g>
	<g id="POLYLINE_6866_">
		<rect x="375.9" y="87.4" class="st8" width="2.2" height="3.4"/>
	</g>
	<g id="POLYLINE_6865_">
		<rect x="395.7" y="87.4" class="st8" width="2.2" height="3.4"/>
	</g>
	<g id="POLYLINE_6864_">
		<rect x="415.5" y="87.4" class="st8" width="2.2" height="3.4"/>
	</g>
	<g id="POLYLINE_6863_">
		<rect x="415.5" y="190.2" class="st8" width="2.2" height="3.4"/>
	</g>
	<g id="POLYLINE_6862_">
		<rect x="395.7" y="190.2" class="st8" width="2.2" height="3.4"/>
	</g>
	<g id="POLYLINE_6861_">
		<rect x="375.9" y="190.2" class="st8" width="2.2" height="3.4"/>
	</g>
	<g id="POLYLINE_6860_">
		<rect x="356.1" y="190.2" class="st8" width="2.2" height="3.4"/>
	</g>
	<g id="POLYLINE_6859_">
		<rect x="336.3" y="190.2" class="st8" width="2.2" height="3.4"/>
	</g>
	<g id="POLYLINE_6858_">
		<rect x="316.5" y="190.2" class="st8" width="2.2" height="3.4"/>
	</g>
	<g id="POLYLINE_6857_">
		<rect x="296.7" y="190.2" class="st8" width="2.2" height="3.4"/>
	</g>
	<g id="POLYLINE_6856_">
		<rect x="276.9" y="190.2" class="st8" width="2.2" height="3.4"/>
	</g>
	<g id="POLYLINE_6855_">
		<rect x="257.1" y="190.2" class="st8" width="2.2" height="3.4"/>
	</g>
	<g id="POLYLINE_6854_">
		<rect x="237.3" y="190.2" class="st8" width="2.2" height="3.4"/>
	</g>
	<g id="POLYLINE_6853_">
		<rect x="217.5" y="190.2" class="st8" width="2.2" height="3.4"/>
	</g>
	<g id="POLYLINE_6852_">
		<rect x="197.7" y="190.2" class="st8" width="2.2" height="3.4"/>
	</g>
	<g id="POLYLINE_6851_">
		<rect x="177.9" y="190.2" class="st8" width="2.2" height="3.4"/>
	</g>
	<g id="POLYLINE_6850_">
		<rect x="158.1" y="190.2" class="st8" width="2.2" height="3.4"/>
	</g>
	<g id="POLYLINE_6849_">
		<rect x="138.3" y="190.2" class="st8" width="2.2" height="3.4"/>
	</g>
	<g id="POLYLINE_6848_">
		<rect x="118.5" y="190.2" class="st8" width="2.2" height="3.4"/>
	</g>
	<g id="POLYLINE_6847_">
		<rect x="98.7" y="190.2" class="st8" width="2.2" height="3.4"/>
	</g>
	<g id="POLYLINE_6846_">
		<rect x="494.7" y="190.2" class="st8" width="2.2" height="3.4"/>
	</g>
	<g id="POLYLINE_6845_">
		<rect x="474.9" y="190.2" class="st8" width="2.2" height="3.4"/>
	</g>
	<g id="POLYLINE_6844_">
		<rect x="455.1" y="190.2" class="st8" width="2.2" height="3.4"/>
	</g>
	<g id="POLYLINE_6843_">
		<rect x="435.3" y="190.2" class="st8" width="2.2" height="3.4"/>
	</g>
</g>
<g id="PLAN_x24_STRUCTURE_1.2">
</g>
<g id="PLAN_x24_STRUCTURE_1.1">
</g>
</svg>
