<?xml version="1.0" encoding="utf-8"?>
<!-- Generator: Adobe Illustrator 22.0.1, SVG Export Plug-In . SVG Version: 6.00 Build 0)  -->
<svg version="1.1" id="Calque_1" xmlns="http://www.w3.org/2000/svg" xmlns:xlink="http://www.w3.org/1999/xlink" x="0px" y="0px"
	 viewBox="0 0 146.9 171.3" style="enable-background:new 0 0 146.9 171.3;" xml:space="preserve">
<style type="text/css">
	.st0{display:none;}
	.st1{display:inline;}
	.st2{fill:none;}
	.st3{fill:none;stroke:#000000;stroke-width:0.1;stroke-linecap:square;stroke-miterlimit:10;stroke-dasharray:0.5,0.5;}
	.st4{fill:none;stroke:#000000;stroke-width:5.000000e-02;stroke-linecap:square;stroke-miterlimit:10;}
	.st5{fill:none;stroke:#000000;stroke-width:8.000000e-02;stroke-linecap:square;stroke-miterlimit:10;}
	.st6{fill:none;stroke:#000000;stroke-width:0.22;stroke-linecap:round;stroke-linejoin:round;stroke-miterlimit:10;}
	.st7{fill:none;stroke:#000000;stroke-width:0.41;stroke-linecap:square;stroke-miterlimit:10;}
</style>
<g id="Calque_1_1_">
</g>
<g id="INFOS_x24_A4" class="st0">
	<g id="POLYLINE_20669_" class="st1">
		<rect x="-222.2" y="-325.3" class="st2" width="595.3" height="841.9"/>
	</g>
</g>
<g id="PLAN_x24_FOND">
</g>
<g id="PLAN_x24_POINTILLE">
	<g id="LINE_2479_">
		<line class="st3" x1="6.4" y1="4.9" x2="140.2" y2="29.1"/>
	</g>
	<g id="LINE_2478_">
		<line class="st3" x1="20.4" y1="163.9" x2="5" y2="6.2"/>
	</g>
	<g id="LINE_2477_">
		<line class="st3" x1="140" y1="165" x2="21.6" y2="165"/>
	</g>
	<g id="LINE_2476_">
		<line class="st3" x1="141.2" y1="30.3" x2="141.2" y2="163.8"/>
	</g>
	<g id="POLYLINE_25129_">
		<polyline class="st3" points="111.7,25.6 129.3,28.7 129.1,29.6 111.6,26.5 		"/>
	</g>
	<g id="POLYLINE_25128_">
		<polyline class="st3" points="112.1,162.3 129.9,162.3 129.9,163.2 112.1,163.2 		"/>
	</g>
</g>
<g id="PLAN_x24_VITRAGE">
	<g id="POLYLINE_22588_">
		<line class="st4" x1="140" y1="30.3" x2="140" y2="163.8"/>
	</g>
	<g id="POLYLINE_22587_">
		<line class="st4" x1="140" y1="163.8" x2="21.6" y2="163.8"/>
	</g>
	<g id="POLYLINE_22586_">
		<line class="st4" x1="21.6" y1="163.8" x2="6.2" y2="6.1"/>
	</g>
	<g id="POLYLINE_22585_">
		<line class="st4" x1="6.2" y1="6.1" x2="140" y2="30.3"/>
	</g>
	<g id="LINE_2303_">
		<line class="st4" x1="140" y1="164.1" x2="21.6" y2="164.1"/>
	</g>
	<g id="LINE_2302_">
		<line class="st4" x1="140.3" y1="30.3" x2="140.3" y2="163.8"/>
	</g>
	<g id="LINE_2301_">
		<line class="st4" x1="21.3" y1="163.8" x2="5.9" y2="6.1"/>
	</g>
	<g id="LINE_2300_">
		<line class="st4" x1="6.3" y1="5.8" x2="140" y2="30"/>
	</g>
</g>
<g id="PLAN_x24_MOBILIER">
	<g id="SPLINE_601_">
		<path class="st5" d="M80.3,71.6c0.1,0.2,0.1,0.5,0.1,0.7c0,0.2,0,0.4,0,0.5c0,0.2,0,0.5-0.1,0.7c0,0.1-0.1,0.2-0.2,0.3
			c-0.2,0.1-0.4,0.2-0.6,0.2c-0.1,0-0.2,0-0.3,0c-0.2,0-0.3-0.1-0.4-0.2c-0.2-0.2-0.3-0.4-0.3-0.7c0-0.3-0.1-0.5,0-0.8
			c0-0.2,0-0.4,0.1-0.5c0-0.1,0-0.2,0.1-0.3"/>
	</g>
	<g id="POLYLINE_24949_">
		<rect x="77.9" y="70.1" class="st5" width="3" height="1.5"/>
	</g>
	<g id="SPLINE_600_">
		<path class="st5" d="M90,71.6c-0.1,0.2-0.1,0.5-0.1,0.7c0,0.2,0,0.4,0,0.5c0,0.2,0,0.5,0.1,0.7c0,0.1,0.1,0.2,0.2,0.3
			c0.2,0.1,0.4,0.2,0.6,0.2c0.1,0,0.2,0,0.3,0c0.2,0,0.3-0.1,0.4-0.2c0.2-0.2,0.3-0.4,0.3-0.7c0-0.3,0.1-0.5,0-0.8
			c0-0.2,0-0.4-0.1-0.5c0-0.1,0-0.2-0.1-0.3"/>
	</g>
	<g id="POLYLINE_24948_">
		<rect x="89.4" y="70.1" class="st5" width="3" height="1.5"/>
	</g>
	<g id="POLYLINE_24947_">
		<rect x="77.1" y="77.8" class="st5" width="1.7" height="2"/>
	</g>
	<g id="POLYLINE_24946_">
		<rect x="91.4" y="77.8" class="st5" width="1.7" height="2"/>
	</g>
	<g id="POLYLINE_24945_">
		<rect x="63.6" y="73.5" class="st5" width="2" height="1.7"/>
	</g>
</g>
<g id="PLAN_x24_DETAIL">
	<g id="POLYLINE_24871_">
		<line class="st5" x1="73.6" y1="66.2" x2="65.7" y2="66.2"/>
	</g>
	<g id="POLYLINE_24870_">
		<line class="st5" x1="65.7" y1="66.2" x2="65.7" y2="72.8"/>
	</g>
	<g id="POLYLINE_24869_">
		<line class="st5" x1="83.3" y1="114" x2="75.4" y2="114"/>
	</g>
	<g id="ARC_2261_">
		<path class="st5" d="M75.4,114c-0.3,0-0.6,0.3-0.6,0.6s0.3,0.6,0.6,0.6"/>
	</g>
	<g id="POLYLINE_24868_">
		<line class="st5" x1="75.4" y1="115.1" x2="83.3" y2="115.1"/>
	</g>
	<g id="POLYLINE_24867_">
		<polyline class="st5" points="2.7,6.4 6.2,6.1 6.9,2.6 		"/>
	</g>
	<g id="POLYLINE_24866_">
		<polyline class="st5" points="6.9,2.6 140.6,26.8 140,30.3 143.5,30.3 143.5,163.8 140,163.8 140,167.4 21.6,167.4 21.6,163.8 
			18,164.2 2.7,6.4 		"/>
	</g>
	<g id="POLYLINE_24865_">
		<line class="st5" x1="67.1" y1="72.8" x2="67.1" y2="64.8"/>
	</g>
	<g id="POLYLINE_24864_">
		<line class="st5" x1="67.1" y1="64.8" x2="73.6" y2="64.8"/>
	</g>
	<g id="POLYLINE_24863_">
		<polyline class="st5" points="6.9,2.1 141.2,26.3 140.6,29.8 144.1,29.8 144.1,164.3 140.5,164.3 140.5,167.9 21.1,167.9 
			21.1,164.4 17.6,164.7 2.2,6.5 		"/>
	</g>
	<g id="POLYLINE_24862_">
		
			<rect x="102.5" y="17.7" transform="matrix(0.1779 -0.9841 0.9841 0.1779 60.5936 121.3776)" class="st5" width="0.9" height="13.5"/>
	</g>
	<g id="POLYLINE_24861_">
		<rect x="96.5" y="162.3" class="st5" width="13.5" height="0.9"/>
	</g>
	<g id="CIRCLE_615_">
		<path class="st5" d="M64.2,64.8c0-0.8,0.7-1.5,1.5-1.5c0.8,0,1.5,0.7,1.5,1.5c0,0.8-0.7,1.5-1.5,1.5
			C64.8,66.2,64.2,65.6,64.2,64.8L64.2,64.8z"/>
	</g>
	<g id="POLYLINE_24860_">
		<line class="st5" x1="65.5" y1="63.3" x2="64.7" y2="56.7"/>
	</g>
	<g id="POLYLINE_24859_">
		<line class="st5" x1="66" y1="63.3" x2="67.5" y2="56.7"/>
	</g>
	<g id="POLYLINE_24858_">
		<line class="st5" x1="66.4" y1="63.5" x2="70.7" y2="56.7"/>
	</g>
	<g id="POLYLINE_24857_">
		<line class="st5" x1="66.8" y1="63.8" x2="73.6" y2="58.4"/>
	</g>
	<g id="POLYLINE_24856_">
		<line class="st5" x1="67" y1="64.3" x2="73.6" y2="62"/>
	</g>
	<g id="POLYLINE_24855_">
		<line class="st5" x1="64.4" y1="65.5" x2="57.7" y2="69.8"/>
	</g>
	<g id="POLYLINE_24854_">
		<line class="st5" x1="64.2" y1="65.1" x2="57.7" y2="66.6"/>
	</g>
	<g id="POLYLINE_24853_">
		<line class="st5" x1="64.2" y1="64.6" x2="57.7" y2="63.9"/>
	</g>
	<g id="POLYLINE_22688_">
		<line class="st5" x1="64.3" y1="64.1" x2="57.7" y2="60.9"/>
	</g>
	<g id="POLYLINE_22687_">
		<line class="st5" x1="64.6" y1="63.7" x2="57.7" y2="56.8"/>
	</g>
	<g id="POLYLINE_22686_">
		<line class="st5" x1="65" y1="63.4" x2="61.8" y2="56.7"/>
	</g>
	<g id="POLYLINE_22685_">
		<line class="st5" x1="64.7" y1="65.9" x2="59.2" y2="72.8"/>
	</g>
	<g id="POLYLINE_22684_">
		<line class="st5" x1="65.2" y1="66.2" x2="62.8" y2="72.8"/>
	</g>
	<g id="POLYLINE_22683_">
		<line class="st5" x1="83.3" y1="106.2" x2="83.3" y2="122.8"/>
	</g>
	<g id="LINE_2307_">
		<line class="st5" x1="81.7" y1="106.2" x2="81.7" y2="122.8"/>
	</g>
	<g id="LINE_2306_">
		<line class="st5" x1="80.1" y1="106.2" x2="80.1" y2="122.8"/>
	</g>
	<g id="LINE_2305_">
		<line class="st5" x1="78.5" y1="106.2" x2="78.5" y2="122.8"/>
	</g>
	<g id="LINE_2304_">
		<line class="st5" x1="77" y1="106.2" x2="77" y2="122.8"/>
	</g>
	<g id="POLYLINE_22682_">
		<line class="st5" x1="67.6" y1="108.7" x2="75.1" y2="114.1"/>
	</g>
	<g id="POLYLINE_22681_">
		<line class="st5" x1="74.9" y1="114.4" x2="67.6" y2="112.8"/>
	</g>
	<g id="POLYLINE_22680_">
		<line class="st5" x1="74.9" y1="114.7" x2="67.6" y2="116.2"/>
	</g>
	<g id="POLYLINE_22679_">
		<line class="st5" x1="75.1" y1="115" x2="67.6" y2="120.3"/>
	</g>
	<g id="POLYLINE_22678_">
		<line class="st5" x1="75.5" y1="115.1" x2="70.6" y2="122.8"/>
	</g>
	<g id="POLYLINE_22677_">
		<line class="st5" x1="75.5" y1="114" x2="70.6" y2="106.2"/>
	</g>
	<g id="POLYLINE_22676_">
		<line class="st5" x1="76.1" y1="114" x2="74.3" y2="106.2"/>
	</g>
	<g id="POLYLINE_22675_">
		<line class="st5" x1="76.1" y1="115.1" x2="74.3" y2="122.8"/>
	</g>
	<g id="POLYLINE_22674_">
		<rect x="63.1" y="93.9" class="st5" width="7.5" height="10.3"/>
	</g>
	<g id="POLYLINE_22673_">
		<rect x="73.8" y="93.9" class="st5" width="7.5" height="10.3"/>
	</g>
	<g id="POLYLINE_22672_">
		<line class="st5" x1="63.1" y1="93.9" x2="70.6" y2="104.2"/>
	</g>
	<g id="POLYLINE_22671_">
		<line class="st5" x1="70.6" y1="93.9" x2="63.1" y2="104.2"/>
	</g>
	<g id="POLYLINE_22670_">
		<line class="st5" x1="73.8" y1="93.9" x2="81.4" y2="104.2"/>
	</g>
	<g id="POLYLINE_22669_">
		<line class="st5" x1="81.4" y1="93.9" x2="73.8" y2="104.2"/>
	</g>
	<g id="POLYLINE_22668_">
		<line class="st5" x1="64.4" y1="92.2" x2="69.1" y2="92.2"/>
	</g>
	<g id="POLYLINE_22667_">
		<line class="st5" x1="69.1" y1="92.9" x2="64.4" y2="92.9"/>
	</g>
	<g id="POLYLINE_22666_">
		<line class="st5" x1="75.3" y1="92.2" x2="80" y2="92.2"/>
	</g>
	<g id="POLYLINE_22665_">
		<line class="st5" x1="80" y1="92.9" x2="75.3" y2="92.9"/>
	</g>
	<g id="POLYLINE_22664_">
		<line class="st5" x1="66.9" y1="123.5" x2="57" y2="109.3"/>
	</g>
	<g id="POLYLINE_22663_">
		<line class="st5" x1="98" y1="103.2" x2="93.8" y2="123.5"/>
	</g>
	<g id="POLYLINE_22662_">
		<line class="st5" x1="98" y1="102.5" x2="98" y2="98"/>
	</g>
	<g id="POLYLINE_22630_">
		<line class="st5" x1="98" y1="97.3" x2="98" y2="92.9"/>
	</g>
	<g id="POLYLINE_22629_">
		<line class="st5" x1="93.1" y1="92.9" x2="93.1" y2="97.3"/>
	</g>
	<g id="POLYLINE_22606_">
		<line class="st5" x1="98" y1="68.3" x2="98" y2="77.9"/>
	</g>
	<g id="POLYLINE_22605_">
		<line class="st5" x1="76.6" y1="56.7" x2="98" y2="67.6"/>
	</g>
	<g id="POLYLINE_22604_">
		<line class="st5" x1="57" y1="78.6" x2="57" y2="82.9"/>
	</g>
	<g id="POLYLINE_22603_">
		<line class="st5" x1="57" y1="92.9" x2="57" y2="97.3"/>
	</g>
	<g id="POLYLINE_22602_">
		<line class="st5" x1="57" y1="97.9" x2="57" y2="105.6"/>
	</g>
	<g id="POLYLINE_22601_">
		<line class="st5" x1="57.3" y1="84" x2="62.2" y2="84"/>
	</g>
	<g id="ARC_2260_">
		<path class="st5" d="M57.3,88.9c2.7,0,4.8-2.2,4.8-4.8"/>
	</g>
	<g id="ARC_2259_">
		<path class="st5" d="M60.3,91.8c0-1.6-1.3-3-3-3"/>
	</g>
	<g id="POLYLINE_22600_">
		<line class="st5" x1="60.3" y1="91.8" x2="57.3" y2="91.8"/>
	</g>
	<g id="POLYLINE_22599_">
		<line class="st5" x1="97.7" y1="84" x2="92.8" y2="84"/>
	</g>
	<g id="ARC_2258_">
		<path class="st5" d="M92.8,84c0,2.7,2.2,4.8,4.8,4.8"/>
	</g>
	<g id="ARC_2257_">
		<path class="st5" d="M97.7,88.9c-1.6,0-3,1.3-3,3"/>
	</g>
	<g id="POLYLINE_22598_">
		<line class="st5" x1="94.7" y1="91.8" x2="97.7" y2="91.8"/>
	</g>
	<g id="ARC_2256_">
		<path class="st5" d="M84.4,78.4c-2.7,0-4.8,2.2-4.8,4.8"/>
	</g>
	<g id="POLYLINE_22597_">
		<line class="st5" x1="84.4" y1="78.4" x2="84.4" y2="83.2"/>
	</g>
	<g id="ARC_2255_">
		<path class="st5" d="M90.7,83.2c0-2.7-2.2-4.8-4.8-4.8"/>
	</g>
	<g id="POLYLINE_22596_">
		<line class="st5" x1="85.9" y1="78.4" x2="85.9" y2="83.2"/>
	</g>
	<g id="POLYLINE_22595_">
		<line class="st5" x1="73.6" y1="82.9" x2="73.6" y2="78.6"/>
	</g>
	<g id="ARC_2254_">
		<path class="st5" d="M73.2,73.4c-2.7,0-4.8,2.2-4.8,4.8"/>
	</g>
	<g id="POLYLINE_22594_">
		<line class="st5" x1="73.2" y1="73.4" x2="73.2" y2="78.3"/>
	</g>
	<g id="POLYLINE_22593_">
		<line class="st5" x1="67.6" y1="82.6" x2="63.8" y2="82.6"/>
	</g>
	<g id="ARC_2253_">
		<path class="st5" d="M67.6,78.8c-2.1,0-3.8,1.7-3.8,3.8"/>
	</g>
	<g id="POLYLINE_22592_">
		<line class="st5" x1="92.5" y1="97.7" x2="92.5" y2="102.5"/>
	</g>
	<g id="ARC_2252_">
		<path class="st5" d="M87.7,97.7c0,2.7,2.2,4.8,4.8,4.8"/>
	</g>
	<g id="ARC_2251_">
		<path class="st5" d="M84.7,100.7c1.6,0,3-1.3,3-3"/>
	</g>
	<g id="POLYLINE_22591_">
		<line class="st5" x1="84.7" y1="100.7" x2="84.7" y2="97.7"/>
	</g>
	<g id="ARC_2250_">
		<path class="st5" d="M76.2,49.6c-2.7,0-4.8,2.2-4.8,4.8"/>
	</g>
	<g id="POLYLINE_22590_">
		<line class="st5" x1="71.4" y1="54.4" x2="76.2" y2="54.4"/>
	</g>
	<g id="ARC_2249_">
		<path class="st5" d="M76.2,129.8c2.7,0,4.8-2.2,4.8-4.8"/>
	</g>
	<g id="POLYLINE_22589_">
		<line class="st5" x1="81" y1="125" x2="76.2" y2="125"/>
	</g>
</g>
<g id="PLAN_x24_CLOISON_TRANSLUCIDE">
</g>
<g id="PLAN_x24_CLOISON_1.3">
</g>
<g id="PLAN_x24_CLOISON_1.2">
</g>
<g id="PLAN_x24_CLOISON_1.1">
	<g id="POLYLINE_53404_">
		<polyline class="st6" points="97.3,83.5 97.3,84 97.3,83.5 90.7,83.5 90.7,82.8 93.1,82.8 93.1,70.1 85.4,70.1 85.4,82.8 
			85.9,82.8 85.9,83.5 84.4,83.5 84.4,82.8 84.9,82.8 84.9,70.1 77.2,70.1 77.2,82.8 79.6,82.8 79.6,83.5 73.6,83.5 73.6,82.8 
			76.6,82.8 76.6,78.6 73.2,78.6 73.2,77.9 73.6,77.9 73.6,56.7 57.7,56.7 57.7,72.8 67.9,72.8 67.9,77.9 68.4,77.9 68.4,78.6 
			67.9,78.6 67.9,78.8 67.3,78.8 67.3,73.5 61.9,73.5 61.9,82.8 67.3,82.8 67.3,82.6 67.9,82.6 67.9,83.5 57.7,83.5 57.7,84 57,84 
			57,82.8 61.2,82.8 61.2,78.6 57,78.6 57,56 75.9,56 75.9,54.4 76.6,54.4 76.6,56.7 75.8,56.7 74.4,56.7 74.4,67.6 98,67.6 
			98,68.3 		"/>
	</g>
	<g id="POLYLINE_53403_">
		
			<rect x="110.1" y="24.7" transform="matrix(0.1779 -0.9841 0.9841 0.1779 65.5617 130.0322)" class="st6" width="0.9" height="2.1"/>
	</g>
	<g id="POLYLINE_53402_">
		<rect x="110" y="162.3" class="st6" width="2.1" height="0.9"/>
	</g>
	<g id="POLYLINE_53401_">
		<line class="st6" x1="59.6" y1="112.5" x2="59.1" y2="112.9"/>
	</g>
	<g id="POLYLINE_22463_">
		<line class="st6" x1="64.8" y1="119.9" x2="64.3" y2="120.3"/>
	</g>
	<g id="POLYLINE_22462_">
		<line class="st6" x1="95.2" y1="118.3" x2="94.6" y2="118.2"/>
	</g>
	<g id="POLYLINE_22461_">
		<line class="st6" x1="97.3" y1="108.5" x2="96.6" y2="108.3"/>
	</g>
	<g id="POLYLINE_22460_">
		<line class="st6" x1="94.5" y1="65.5" x2="94.3" y2="66.1"/>
	</g>
	<g id="POLYLINE_22459_">
		<line class="st6" x1="87.4" y1="61.9" x2="87.1" y2="62.4"/>
	</g>
	<g id="POLYLINE_22458_">
		<line class="st6" x1="80.3" y1="58.2" x2="80" y2="58.8"/>
	</g>
	<g id="POLYLINE_22457_">
		<line class="st6" x1="140" y1="139.5" x2="140.6" y2="139.5"/>
	</g>
	<g id="POLYLINE_22456_">
		<line class="st6" x1="140" y1="124.8" x2="140.6" y2="124.8"/>
	</g>
	<g id="POLYLINE_22455_">
		<line class="st6" x1="140" y1="110" x2="140.6" y2="110"/>
	</g>
	<g id="POLYLINE_22454_">
		<line class="st6" x1="140" y1="95.3" x2="140.6" y2="95.3"/>
	</g>
	<g id="POLYLINE_22453_">
		<line class="st6" x1="140" y1="80.6" x2="140.6" y2="80.6"/>
	</g>
	<g id="POLYLINE_22452_">
		<line class="st6" x1="140" y1="65.9" x2="140.6" y2="65.9"/>
	</g>
	<g id="POLYLINE_22451_">
		<line class="st6" x1="140" y1="51.1" x2="140.6" y2="51.1"/>
	</g>
	<g id="POLYLINE_22450_">
		<line class="st6" x1="140" y1="36.4" x2="140.6" y2="36.4"/>
	</g>
	<g id="POLYLINE_22449_">
		<line class="st6" x1="140" y1="154.1" x2="140.6" y2="154.1"/>
	</g>
	<g id="POLYLINE_22448_">
		<line class="st6" x1="27.7" y1="9.9" x2="27.8" y2="9.4"/>
	</g>
	<g id="POLYLINE_22447_">
		<line class="st6" x1="47.1" y1="13.4" x2="47.2" y2="12.9"/>
	</g>
	<g id="POLYLINE_20705_">
		<line class="st6" x1="66.4" y1="16.9" x2="66.5" y2="16.4"/>
	</g>
	<g id="POLYLINE_20704_">
		<line class="st6" x1="85.8" y1="20.4" x2="85.9" y2="19.9"/>
	</g>
	<g id="POLYLINE_20703_">
		<line class="st6" x1="105.1" y1="23.9" x2="105.2" y2="23.4"/>
	</g>
	<g id="POLYLINE_20702_">
		<line class="st6" x1="124.5" y1="27.4" x2="124.6" y2="26.9"/>
	</g>
	<g id="POLYLINE_20701_">
		<line class="st6" x1="7.7" y1="21.6" x2="7.2" y2="21.6"/>
	</g>
	<g id="POLYLINE_20700_">
		<line class="st6" x1="9.2" y1="36.3" x2="8.6" y2="36.4"/>
	</g>
	<g id="POLYLINE_20699_">
		<line class="st6" x1="10.6" y1="51.1" x2="10" y2="51.1"/>
	</g>
	<g id="POLYLINE_20698_">
		<line class="st6" x1="12" y1="65.8" x2="11.5" y2="65.8"/>
	</g>
	<g id="POLYLINE_20697_">
		<line class="st6" x1="13.5" y1="80.5" x2="12.9" y2="80.6"/>
	</g>
	<g id="POLYLINE_20696_">
		<line class="st6" x1="14.9" y1="95.2" x2="14.3" y2="95.3"/>
	</g>
	<g id="POLYLINE_20695_">
		<line class="st6" x1="16.4" y1="110" x2="15.8" y2="110"/>
	</g>
	<g id="POLYLINE_20694_">
		<line class="st6" x1="17.8" y1="124.7" x2="17.2" y2="124.8"/>
	</g>
	<g id="POLYLINE_20693_">
		<line class="st6" x1="19.2" y1="139.4" x2="18.6" y2="139.5"/>
	</g>
	<g id="POLYLINE_20692_">
		<line class="st6" x1="20.7" y1="154.2" x2="20.1" y2="154.2"/>
	</g>
	<g id="POLYLINE_20691_">
		<line class="st6" x1="47.2" y1="164.4" x2="47.2" y2="163.8"/>
	</g>
	<g id="POLYLINE_20690_">
		<line class="st6" x1="66.6" y1="164.4" x2="66.6" y2="163.8"/>
	</g>
	<g id="POLYLINE_20689_">
		<line class="st6" x1="85.9" y1="164.4" x2="85.9" y2="163.8"/>
	</g>
	<g id="POLYLINE_20688_">
		<line class="st6" x1="105.3" y1="164.4" x2="105.3" y2="163.8"/>
	</g>
	<g id="POLYLINE_20687_">
		<line class="st6" x1="124.6" y1="164.4" x2="124.6" y2="163.8"/>
	</g>
	<g id="POLYLINE_20686_">
		<line class="st6" x1="27.9" y1="164.4" x2="27.9" y2="163.8"/>
	</g>
	<g id="POLYLINE_20685_">
		<rect x="77.2" y="68.3" class="st6" width="7.7" height="1.2"/>
	</g>
	<g id="POLYLINE_20684_">
		<rect x="74.4" y="68.3" class="st6" width="2.2" height="9.6"/>
	</g>
	<g id="POLYLINE_20683_">
		<rect x="57.7" y="73.5" class="st6" width="3.5" height="4.4"/>
	</g>
	<g id="POLYLINE_20682_">
		<rect x="57.7" y="106.2" class="st6" width="6.4" height="2.4"/>
	</g>
	<g id="POLYLINE_20681_">
		<rect x="64.7" y="106.2" class="st6" width="2.2" height="2.4"/>
	</g>
	<g id="POLYLINE_20680_">
		<polyline class="st6" points="93.8,103.2 93.8,123.5 76.6,123.5 76.6,125 75.9,125 75.9,123.5 66.9,123.5 66.9,109.3 57,109.3 
			57,105.5 60.2,105.5 60.2,92.9 59.1,92.9 59.1,97.9 57,97.9 57,97.2 58.4,97.2 58.4,92.9 57,92.9 57,91.8 57.7,91.8 57.7,92.2 
			64.4,92.2 64.4,92.9 60.9,92.9 60.9,105.5 71.9,105.5 71.9,92.9 69.2,92.9 69.2,92.2 75.3,92.2 75.3,92.9 72.6,92.9 72.6,105.5 
			83.5,105.5 83.5,92.9 80,92.9 80,92.2 84.2,92.2 84.2,97.3 84.8,97.3 84.8,98 84.2,98 84.2,106.2 67.6,106.2 67.6,122.8 
			93.1,122.8 93.1,98 92.6,98 92.6,97.3 95.8,97.3 95.8,92.9 93.1,92.9 93.1,92.2 97.3,92.2 97.3,91.8 98,91.8 		"/>
	</g>
	<g id="POLYLINE_20679_">
		<polygon class="st6" points="75.9,49.6 75.9,18.7 76.6,18.8 76.6,49.6 		"/>
	</g>
	<g id="POLYLINE_20678_">
		<polyline class="st6" points="93.8,102.5 93.8,98 98,98 98,97.3 96.5,97.3 96.5,92.9 98,92.9 98,91.8 98,92.9 		"/>
	</g>
	<g id="POLYLINE_20677_">
		<polyline class="st6" points="93.1,102.5 98,102.5 98,103.2 93.1,103.2 		"/>
	</g>
	<g id="POLYLINE_20676_">
		<polyline class="st6" points="98,67.6 98,68.3 97.3,68.3 93.8,68.3 93.8,77.9 97.3,77.9 98,77.9 98,84 97.3,84 		"/>
	</g>
	<g id="POLYLINE_20675_">
		<rect x="85.4" y="68.3" class="st6" width="7.7" height="1.2"/>
	</g>
	<g id="POLYLINE_20674_">
		<rect x="93.8" y="78.6" class="st6" width="3.5" height="4.2"/>
	</g>
	<g id="POLYLINE_20673_">
		<rect x="75.9" y="129.8" class="st6" width="0.7" height="34"/>
	</g>
</g>
<g id="PLAN_x24_STRUCTURE_2.3">
</g>
<g id="PLAN_x24_STRUCTURE_2.2">
</g>
<g id="PLAN_x24_STRUCTURE_2.1">
</g>
<g id="PLAN_x24_STRUCTURE_1.3">
	<g id="POLYLINE_25123_">
		<line class="st7" x1="56.7" y1="161.9" x2="55.3" y2="161.9"/>
	</g>
	<g id="POLYLINE_25122_">
		<line class="st7" x1="55.3" y1="161.9" x2="56.7" y2="161.9"/>
	</g>
	<g id="POLYLINE_25121_">
		<line class="st7" x1="56" y1="161.9" x2="56" y2="163.4"/>
	</g>
	<g id="POLYLINE_25120_">
		<line class="st7" x1="56" y1="163.4" x2="56" y2="161.9"/>
	</g>
	<g id="POLYLINE_25119_">
		<line class="st7" x1="56.7" y1="163.4" x2="55.3" y2="163.4"/>
	</g>
	<g id="POLYLINE_25118_">
		<line class="st7" x1="55.3" y1="163.4" x2="56.7" y2="163.4"/>
	</g>
	<g id="POLYLINE_25117_">
		<line class="st7" x1="56.7" y1="17" x2="55.3" y2="17"/>
	</g>
	<g id="POLYLINE_25116_">
		<line class="st7" x1="55.3" y1="17" x2="56.7" y2="17"/>
	</g>
	<g id="POLYLINE_25115_">
		<line class="st7" x1="56" y1="15.5" x2="56" y2="17"/>
	</g>
	<g id="POLYLINE_25114_">
		<line class="st7" x1="56" y1="17" x2="56" y2="15.5"/>
	</g>
	<g id="POLYLINE_25113_">
		<line class="st7" x1="56.7" y1="15.5" x2="55.3" y2="15.5"/>
	</g>
	<g id="POLYLINE_25112_">
		<line class="st7" x1="55.3" y1="15.5" x2="56.7" y2="15.5"/>
	</g>
	<g id="POLYLINE_25111_">
		<line class="st7" x1="56.7" y1="104.7" x2="55.3" y2="104.7"/>
	</g>
	<g id="POLYLINE_25110_">
		<line class="st7" x1="55.3" y1="104.7" x2="56.7" y2="104.7"/>
	</g>
	<g id="POLYLINE_25109_">
		<line class="st7" x1="56" y1="103.2" x2="56" y2="104.7"/>
	</g>
	<g id="POLYLINE_25108_">
		<line class="st7" x1="56" y1="104.7" x2="56" y2="103.2"/>
	</g>
	<g id="POLYLINE_25107_">
		<line class="st7" x1="56.7" y1="103.2" x2="55.3" y2="103.2"/>
	</g>
	<g id="POLYLINE_25106_">
		<line class="st7" x1="55.3" y1="103.2" x2="56.7" y2="103.2"/>
	</g>
	<g id="POLYLINE_25105_">
		<line class="st7" x1="56.7" y1="44.3" x2="55.3" y2="44.3"/>
	</g>
	<g id="POLYLINE_25104_">
		<line class="st7" x1="55.3" y1="44.3" x2="56.7" y2="44.3"/>
	</g>
	<g id="POLYLINE_25103_">
		<line class="st7" x1="56" y1="44.3" x2="56" y2="45.7"/>
	</g>
	<g id="POLYLINE_25102_">
		<line class="st7" x1="56" y1="45.7" x2="56" y2="44.3"/>
	</g>
	<g id="POLYLINE_25101_">
		<line class="st7" x1="56.7" y1="45.7" x2="55.3" y2="45.7"/>
	</g>
	<g id="POLYLINE_25100_">
		<line class="st7" x1="55.3" y1="45.7" x2="56.7" y2="45.7"/>
	</g>
	<g id="POLYLINE_25099_">
		<line class="st7" x1="56.7" y1="75.2" x2="55.3" y2="75.2"/>
	</g>
	<g id="POLYLINE_25098_">
		<line class="st7" x1="55.3" y1="75.2" x2="56.7" y2="75.2"/>
	</g>
	<g id="POLYLINE_25097_">
		<line class="st7" x1="56" y1="73.7" x2="56" y2="75.2"/>
	</g>
	<g id="POLYLINE_25096_">
		<line class="st7" x1="56" y1="75.2" x2="56" y2="73.7"/>
	</g>
	<g id="POLYLINE_25095_">
		<line class="st7" x1="56.7" y1="73.7" x2="55.3" y2="73.7"/>
	</g>
	<g id="POLYLINE_25094_">
		<line class="st7" x1="55.3" y1="73.7" x2="56.7" y2="73.7"/>
	</g>
	<g id="POLYLINE_25093_">
		<line class="st7" x1="56.7" y1="134.2" x2="55.3" y2="134.2"/>
	</g>
	<g id="POLYLINE_25092_">
		<line class="st7" x1="55.3" y1="134.2" x2="56.7" y2="134.2"/>
	</g>
	<g id="POLYLINE_25091_">
		<line class="st7" x1="56" y1="132.7" x2="56" y2="134.2"/>
	</g>
	<g id="POLYLINE_25090_">
		<line class="st7" x1="56" y1="134.2" x2="56" y2="132.7"/>
	</g>
	<g id="POLYLINE_25089_">
		<line class="st7" x1="56.7" y1="132.7" x2="55.3" y2="132.7"/>
	</g>
	<g id="POLYLINE_25088_">
		<line class="st7" x1="55.3" y1="132.7" x2="56.7" y2="132.7"/>
	</g>
	<g id="POLYLINE_25087_">
		<line class="st7" x1="95.3" y1="132.7" x2="93.8" y2="132.7"/>
	</g>
	<g id="POLYLINE_25086_">
		<line class="st7" x1="94.5" y1="132.7" x2="94.5" y2="134.2"/>
	</g>
	<g id="POLYLINE_25085_">
		<line class="st7" x1="95.3" y1="134.2" x2="93.8" y2="134.2"/>
	</g>
	<g id="POLYLINE_25084_">
		<line class="st7" x1="95.3" y1="73.7" x2="93.8" y2="73.7"/>
	</g>
	<g id="POLYLINE_25083_">
		<line class="st7" x1="94.5" y1="73.7" x2="94.5" y2="75.2"/>
	</g>
	<g id="POLYLINE_25082_">
		<line class="st7" x1="95.3" y1="75.2" x2="93.8" y2="75.2"/>
	</g>
	<g id="POLYLINE_25081_">
		<line class="st7" x1="95.3" y1="45.7" x2="93.8" y2="45.7"/>
	</g>
	<g id="POLYLINE_25080_">
		<line class="st7" x1="94.5" y1="44.3" x2="94.5" y2="45.7"/>
	</g>
	<g id="POLYLINE_25079_">
		<line class="st7" x1="95.3" y1="44.3" x2="93.8" y2="44.3"/>
	</g>
	<g id="POLYLINE_25078_">
		<line class="st7" x1="95.3" y1="103.2" x2="93.8" y2="103.2"/>
	</g>
	<g id="POLYLINE_25077_">
		<line class="st7" x1="94.5" y1="103.2" x2="94.5" y2="104.7"/>
	</g>
	<g id="POLYLINE_25076_">
		<line class="st7" x1="95.3" y1="104.7" x2="93.8" y2="104.7"/>
	</g>
	<g id="POLYLINE_25075_">
		<line class="st7" x1="133.8" y1="132.7" x2="132.4" y2="132.7"/>
	</g>
	<g id="POLYLINE_25074_">
		<line class="st7" x1="133.1" y1="132.7" x2="133.1" y2="134.2"/>
	</g>
	<g id="POLYLINE_25073_">
		<line class="st7" x1="133.8" y1="134.2" x2="132.4" y2="134.2"/>
	</g>
	<g id="POLYLINE_25072_">
		<line class="st7" x1="133.8" y1="73.7" x2="132.4" y2="73.7"/>
	</g>
	<g id="POLYLINE_25071_">
		<line class="st7" x1="133.1" y1="73.7" x2="133.1" y2="75.2"/>
	</g>
	<g id="POLYLINE_25070_">
		<line class="st7" x1="133.8" y1="75.2" x2="132.4" y2="75.2"/>
	</g>
	<g id="POLYLINE_25069_">
		<line class="st7" x1="133.8" y1="45.7" x2="132.4" y2="45.7"/>
	</g>
	<g id="POLYLINE_25068_">
		<line class="st7" x1="133.1" y1="44.3" x2="133.1" y2="45.7"/>
	</g>
	<g id="POLYLINE_25067_">
		<line class="st7" x1="133.8" y1="44.3" x2="132.4" y2="44.3"/>
	</g>
	<g id="POLYLINE_25066_">
		<line class="st7" x1="133.8" y1="103.2" x2="132.4" y2="103.2"/>
	</g>
	<g id="POLYLINE_25065_">
		<line class="st7" x1="133.1" y1="103.2" x2="133.1" y2="104.7"/>
	</g>
	<g id="POLYLINE_25064_">
		<line class="st7" x1="133.8" y1="104.7" x2="132.4" y2="104.7"/>
	</g>
	<g id="POLYLINE_25063_">
		<line class="st7" x1="26.2" y1="134.2" x2="24.8" y2="134.2"/>
	</g>
	<g id="POLYLINE_25062_">
		<line class="st7" x1="25.5" y1="132.7" x2="25.5" y2="134.2"/>
	</g>
	<g id="POLYLINE_25061_">
		<line class="st7" x1="26.2" y1="132.7" x2="24.8" y2="132.7"/>
	</g>
	<g id="POLYLINE_25060_">
		<line class="st7" x1="23.4" y1="104.7" x2="22" y2="104.7"/>
	</g>
	<g id="POLYLINE_25059_">
		<line class="st7" x1="22.7" y1="103.2" x2="22.7" y2="104.7"/>
	</g>
	<g id="POLYLINE_25058_">
		<line class="st7" x1="23.4" y1="103.2" x2="22" y2="103.2"/>
	</g>
	<g id="POLYLINE_25057_">
		<line class="st7" x1="20.6" y1="75.2" x2="19.1" y2="75.2"/>
	</g>
	<g id="POLYLINE_25056_">
		<line class="st7" x1="19.9" y1="73.7" x2="19.9" y2="75.2"/>
	</g>
	<g id="POLYLINE_25055_">
		<line class="st7" x1="20.6" y1="73.7" x2="19.1" y2="73.7"/>
	</g>
	<g id="POLYLINE_25054_">
		<line class="st7" x1="17.7" y1="44.3" x2="16.2" y2="44.3"/>
	</g>
	<g id="POLYLINE_25053_">
		<line class="st7" x1="17" y1="44.3" x2="17" y2="45.7"/>
	</g>
	<g id="POLYLINE_25052_">
		<line class="st7" x1="17.7" y1="45.7" x2="16.2" y2="45.7"/>
	</g>
	<g id="POLYLINE_25051_">
		<line class="st7" x1="14.2" y1="9.3" x2="12.7" y2="9.3"/>
	</g>
	<g id="POLYLINE_25050_">
		<line class="st7" x1="13.4" y1="7.8" x2="13.4" y2="9.3"/>
	</g>
	<g id="POLYLINE_25049_">
		<line class="st7" x1="14.2" y1="7.8" x2="12.7" y2="7.8"/>
	</g>
	<g id="POLYLINE_25048_">
		<line class="st7" x1="95.3" y1="22.5" x2="93.8" y2="22.5"/>
	</g>
	<g id="POLYLINE_25047_">
		<line class="st7" x1="94.5" y1="22.5" x2="94.5" y2="23.9"/>
	</g>
	<g id="POLYLINE_25046_">
		<line class="st7" x1="95.3" y1="23.9" x2="93.8" y2="23.9"/>
	</g>
	<g id="POLYLINE_25045_">
		<line class="st7" x1="133.8" y1="29.4" x2="132.4" y2="29.4"/>
	</g>
	<g id="POLYLINE_25044_">
		<line class="st7" x1="133.1" y1="29.4" x2="133.1" y2="30.9"/>
	</g>
	<g id="POLYLINE_25043_">
		<line class="st7" x1="133.8" y1="30.9" x2="132.4" y2="30.9"/>
	</g>
	<g id="POLYLINE_25042_">
		<line class="st7" x1="29.2" y1="161.9" x2="27.7" y2="161.9"/>
	</g>
	<g id="POLYLINE_25041_">
		<line class="st7" x1="28.5" y1="161.9" x2="28.5" y2="163.4"/>
	</g>
	<g id="POLYLINE_25040_">
		<line class="st7" x1="29.2" y1="163.4" x2="27.7" y2="163.4"/>
	</g>
	<g id="POLYLINE_25039_">
		<line class="st7" x1="133.8" y1="163.4" x2="132.4" y2="163.4"/>
	</g>
	<g id="POLYLINE_25038_">
		<line class="st7" x1="133.1" y1="161.9" x2="133.1" y2="163.4"/>
	</g>
	<g id="POLYLINE_25037_">
		<line class="st7" x1="133.8" y1="161.9" x2="132.4" y2="161.9"/>
	</g>
	<g id="POLYLINE_25036_">
		<line class="st7" x1="95.3" y1="163.4" x2="93.8" y2="163.4"/>
	</g>
	<g id="POLYLINE_25035_">
		<line class="st7" x1="94.5" y1="161.9" x2="94.5" y2="163.4"/>
	</g>
	<g id="POLYLINE_25034_">
		<line class="st7" x1="95.3" y1="161.9" x2="93.8" y2="161.9"/>
	</g>
	<g id="POLYLINE_25033_">
		<line class="st7" x1="140" y1="73.2" x2="141.2" y2="73.2"/>
	</g>
	<g id="POLYLINE_25032_">
		<line class="st7" x1="140" y1="58.5" x2="141.2" y2="58.5"/>
	</g>
	<g id="POLYLINE_25031_">
		<line class="st7" x1="140" y1="43.8" x2="141.2" y2="43.8"/>
	</g>
	<g id="POLYLINE_25030_">
		<line class="st7" x1="140" y1="88" x2="141.2" y2="88"/>
	</g>
	<g id="POLYLINE_25029_">
		<line class="st7" x1="140" y1="102.7" x2="141.2" y2="102.7"/>
	</g>
	<g id="POLYLINE_25028_">
		<line class="st7" x1="140" y1="117.4" x2="141.2" y2="117.4"/>
	</g>
	<g id="POLYLINE_25027_">
		<line class="st7" x1="140" y1="132.2" x2="141.2" y2="132.2"/>
	</g>
	<g id="POLYLINE_25026_">
		<line class="st7" x1="140" y1="146.9" x2="141.2" y2="146.9"/>
	</g>
	<g id="POLYLINE_25025_">
		<line class="st7" x1="37.4" y1="11.7" x2="37.6" y2="10.6"/>
	</g>
	<g id="POLYLINE_25024_">
		<line class="st7" x1="18" y1="8.2" x2="18.3" y2="7.1"/>
	</g>
	<g id="POLYLINE_25023_">
		<line class="st7" x1="56.8" y1="15.2" x2="57" y2="14.1"/>
	</g>
	<g id="POLYLINE_25022_">
		<line class="st7" x1="76.1" y1="18.7" x2="76.3" y2="17.6"/>
	</g>
	<g id="POLYLINE_25021_">
		<line class="st7" x1="95.5" y1="22.2" x2="95.7" y2="21"/>
	</g>
	<g id="POLYLINE_25020_">
		<line class="st7" x1="114.8" y1="25.7" x2="115" y2="24.5"/>
	</g>
	<g id="POLYLINE_25019_">
		<line class="st7" x1="134.2" y1="29.2" x2="134.4" y2="28"/>
	</g>
	<g id="POLYLINE_25018_">
		<line class="st7" x1="7" y1="14.3" x2="5.8" y2="14.4"/>
	</g>
	<g id="POLYLINE_25017_">
		<line class="st7" x1="8.5" y1="29" x2="7.3" y2="29.1"/>
	</g>
	<g id="POLYLINE_25016_">
		<line class="st7" x1="9.9" y1="43.7" x2="8.7" y2="43.8"/>
	</g>
	<g id="POLYLINE_25015_">
		<line class="st7" x1="11.3" y1="58.4" x2="10.1" y2="58.6"/>
	</g>
	<g id="POLYLINE_25014_">
		<line class="st7" x1="12.8" y1="73.2" x2="11.6" y2="73.3"/>
	</g>
	<g id="POLYLINE_25013_">
		<line class="st7" x1="14.2" y1="87.9" x2="13" y2="88"/>
	</g>
	<g id="POLYLINE_25012_">
		<line class="st7" x1="15.6" y1="102.6" x2="14.4" y2="102.8"/>
	</g>
	<g id="POLYLINE_25011_">
		<line class="st7" x1="17.1" y1="117.4" x2="15.9" y2="117.5"/>
	</g>
	<g id="POLYLINE_25010_">
		<line class="st7" x1="18.5" y1="132.1" x2="17.3" y2="132.2"/>
	</g>
	<g id="POLYLINE_25009_">
		<line class="st7" x1="19.9" y1="146.8" x2="18.7" y2="146.9"/>
	</g>
	<g id="POLYLINE_25008_">
		<line class="st7" x1="37.5" y1="165" x2="37.5" y2="163.8"/>
	</g>
	<g id="POLYLINE_25007_">
		<line class="st7" x1="56.9" y1="165" x2="56.9" y2="163.8"/>
	</g>
	<g id="POLYLINE_25006_">
		<line class="st7" x1="76.2" y1="165" x2="76.2" y2="163.8"/>
	</g>
	<g id="POLYLINE_25005_">
		<line class="st7" x1="95.6" y1="165" x2="95.6" y2="163.8"/>
	</g>
	<g id="POLYLINE_25004_">
		<line class="st7" x1="114.9" y1="165" x2="114.9" y2="163.8"/>
	</g>
	<g id="POLYLINE_25003_">
		<line class="st7" x1="134.3" y1="165" x2="134.3" y2="163.8"/>
	</g>
</g>
<g id="PLAN_x24_STRUCTURE_1.2">
</g>
<g id="PLAN_x24_STRUCTURE_1.1">
</g>
</svg>
