<?xml version="1.0" encoding="utf-8"?>
<!-- Generator: Adobe Illustrator 22.0.1, SVG Export Plug-In . SVG Version: 6.00 Build 0)  -->
<svg version="1.1" id="Calque_1" xmlns="http://www.w3.org/2000/svg" xmlns:xlink="http://www.w3.org/1999/xlink" x="0px" y="0px"
	 viewBox="0 0 310.9 362.5" style="enable-background:new 0 0 310.9 362.5;" xml:space="preserve">
<style type="text/css">
	.st0{display:none;}
	.st1{display:inline;}
	.st2{fill:none;}
	.st3{fill:none;stroke:#000000;stroke-width:0.2;stroke-linecap:square;stroke-miterlimit:10;stroke-dasharray:1,1;}
	.st4{fill:none;stroke:#000000;stroke-width:0.1;stroke-linecap:square;stroke-miterlimit:10;}
	.st5{fill:none;stroke:#000000;stroke-width:0.16;stroke-linecap:square;stroke-miterlimit:10;}
	.st6{fill:none;stroke:#000000;stroke-width:0.44;stroke-linecap:round;stroke-linejoin:round;stroke-miterlimit:10;}
	.st7{fill:none;stroke:#000000;stroke-width:0.82;stroke-linecap:square;stroke-miterlimit:10;}
</style>
<g id="Calque_1_1_">
</g>
<g id="INFOS_x24_A4" class="st0">
	<g id="POLYLINE_20669_" class="st1">
		<rect x="-140.2" y="-229.7" class="st2" width="595.3" height="841.9"/>
	</g>
</g>
<g id="PLAN_x24_FOND">
</g>
<g id="PLAN_x24_POINTILLE">
	<g id="LINE_2479_">
		<line class="st3" x1="21.6" y1="20.4" x2="289.2" y2="68.8"/>
	</g>
	<g id="LINE_2478_">
		<line class="st3" x1="49.6" y1="338.4" x2="18.8" y2="23"/>
	</g>
	<g id="LINE_2477_">
		<line class="st3" x1="288.9" y1="340.6" x2="52" y2="340.6"/>
	</g>
	<g id="LINE_2476_">
		<line class="st3" x1="291.2" y1="71.2" x2="291.2" y2="338.2"/>
	</g>
	<g id="POLYLINE_25129_">
		<polyline class="st3" points="232.2,61.8 267.5,68 267.1,69.8 232,63.6 		"/>
	</g>
	<g id="POLYLINE_25128_">
		<polyline class="st3" points="233,335.2 268.6,335.2 268.6,337 233,337 		"/>
	</g>
</g>
<g id="PLAN_x24_VITRAGE">
	<g id="POLYLINE_22588_">
		<line class="st4" x1="288.9" y1="71.2" x2="288.9" y2="338.2"/>
	</g>
	<g id="POLYLINE_22587_">
		<line class="st4" x1="288.9" y1="338.2" x2="52" y2="338.2"/>
	</g>
	<g id="POLYLINE_22586_">
		<line class="st4" x1="52" y1="338.2" x2="21.2" y2="22.8"/>
	</g>
	<g id="POLYLINE_22585_">
		<line class="st4" x1="21.2" y1="22.8" x2="288.9" y2="71.2"/>
	</g>
	<g id="LINE_2303_">
		<line class="st4" x1="288.9" y1="338.8" x2="52" y2="338.8"/>
	</g>
	<g id="LINE_2302_">
		<line class="st4" x1="289.5" y1="71.2" x2="289.5" y2="338.2"/>
	</g>
	<g id="LINE_2301_">
		<line class="st4" x1="51.4" y1="338.2" x2="20.6" y2="22.8"/>
	</g>
	<g id="LINE_2300_">
		<line class="st4" x1="21.4" y1="22.2" x2="288.9" y2="70.6"/>
	</g>
</g>
<g id="PLAN_x24_MOBILIER">
	<g id="SPLINE_601_">
		<path class="st5" d="M169.4,153.8c0.2,0.4,0.2,1,0.2,1.4s0,0.8,0,1c0,0.4,0,1-0.2,1.4c0,0.2-0.2,0.4-0.4,0.6
			c-0.4,0.2-0.8,0.4-1.2,0.4c-0.2,0-0.4,0-0.6,0c-0.4,0-0.6-0.2-0.8-0.4c-0.4-0.4-0.6-0.8-0.6-1.4c0-0.6-0.2-1,0-1.6
			c0-0.4,0-0.8,0.2-1c0-0.2,0-0.4,0.2-0.6"/>
	</g>
	<g id="POLYLINE_24949_">
		<rect x="164.6" y="150.8" class="st5" width="6" height="3"/>
	</g>
	<g id="SPLINE_600_">
		<path class="st5" d="M188.8,153.8c-0.2,0.4-0.2,1-0.2,1.4s0,0.8,0,1c0,0.4,0,1,0.2,1.4c0,0.2,0.2,0.4,0.4,0.6
			c0.4,0.2,0.8,0.4,1.2,0.4c0.2,0,0.4,0,0.6,0c0.4,0,0.6-0.2,0.8-0.4c0.4-0.4,0.6-0.8,0.6-1.4c0-0.6,0.2-1,0-1.6c0-0.4,0-0.8-0.2-1
			c0-0.2,0-0.4-0.2-0.6"/>
	</g>
	<g id="POLYLINE_24948_">
		<rect x="187.6" y="150.8" class="st5" width="6" height="3"/>
	</g>
	<g id="POLYLINE_24947_">
		<rect x="163" y="166.2" class="st5" width="3.4" height="4"/>
	</g>
	<g id="POLYLINE_24946_">
		<rect x="191.6" y="166.2" class="st5" width="3.4" height="4"/>
	</g>
	<g id="POLYLINE_24945_">
		<rect x="136" y="157.6" class="st5" width="4" height="3.4"/>
	</g>
</g>
<g id="PLAN_x24_DETAIL">
	<g id="POLYLINE_24871_">
		<line class="st5" x1="156" y1="143" x2="140.2" y2="143"/>
	</g>
	<g id="POLYLINE_24870_">
		<line class="st5" x1="140.2" y1="143" x2="140.2" y2="156.2"/>
	</g>
	<g id="POLYLINE_24869_">
		<line class="st5" x1="175.4" y1="238.6" x2="159.6" y2="238.6"/>
	</g>
	<g id="ARC_2261_">
		<path class="st5" d="M159.6,238.6c-0.6,0-1.2,0.6-1.2,1.2s0.6,1.2,1.2,1.2"/>
	</g>
	<g id="POLYLINE_24868_">
		<line class="st5" x1="159.6" y1="240.8" x2="175.4" y2="240.8"/>
	</g>
	<g id="POLYLINE_24867_">
		<polyline class="st5" points="14.2,23.4 21.2,22.8 22.6,15.8 		"/>
	</g>
	<g id="POLYLINE_24866_">
		<polyline class="st5" points="22.6,15.8 290.1,64.2 288.9,71.2 295.9,71.2 295.9,338.2 288.9,338.2 288.9,345.4 52,345.4 
			52,338.2 44.8,339 14.2,23.4 		"/>
	</g>
	<g id="POLYLINE_24865_">
		<line class="st5" x1="143" y1="156.2" x2="143" y2="140.2"/>
	</g>
	<g id="POLYLINE_24864_">
		<line class="st5" x1="143" y1="140.2" x2="156" y2="140.2"/>
	</g>
	<g id="POLYLINE_24863_">
		<polyline class="st5" points="22.6,14.8 291.2,63.2 290.1,70.2 297.1,70.2 297.1,339.2 289.9,339.2 289.9,346.4 51,346.4 
			51,339.4 44,340 13.2,23.6 		"/>
	</g>
	<g id="POLYLINE_24862_">
		
			<rect x="213.9" y="45.9" transform="matrix(0.1779 -0.9841 0.9841 0.1779 118.0799 260.2366)" class="st5" width="1.8" height="27"/>
	</g>
	<g id="POLYLINE_24861_">
		<rect x="201.8" y="335.2" class="st5" width="27" height="1.8"/>
	</g>
	<g id="CIRCLE_615_">
		<path class="st5" d="M137.2,140.2c0-1.6,1.4-3,3-3s3,1.4,3,3s-1.4,3-3,3C138.4,143,137.2,141.8,137.2,140.2L137.2,140.2z"/>
	</g>
	<g id="POLYLINE_24860_">
		<line class="st5" x1="139.8" y1="137.2" x2="138.2" y2="124"/>
	</g>
	<g id="POLYLINE_24859_">
		<line class="st5" x1="140.8" y1="137.2" x2="143.8" y2="124"/>
	</g>
	<g id="POLYLINE_24858_">
		<line class="st5" x1="141.6" y1="137.6" x2="150.2" y2="124"/>
	</g>
	<g id="POLYLINE_24857_">
		<line class="st5" x1="142.4" y1="138.2" x2="156" y2="127.4"/>
	</g>
	<g id="POLYLINE_24856_">
		<line class="st5" x1="142.8" y1="139.2" x2="156" y2="134.6"/>
	</g>
	<g id="POLYLINE_24855_">
		<line class="st5" x1="137.6" y1="141.6" x2="124.2" y2="150.2"/>
	</g>
	<g id="POLYLINE_24854_">
		<line class="st5" x1="137.2" y1="140.8" x2="124.2" y2="143.8"/>
	</g>
	<g id="POLYLINE_24853_">
		<line class="st5" x1="137.2" y1="139.8" x2="124.2" y2="138.4"/>
	</g>
	<g id="POLYLINE_22688_">
		<line class="st5" x1="137.4" y1="138.8" x2="124.2" y2="132.4"/>
	</g>
	<g id="POLYLINE_22687_">
		<line class="st5" x1="138" y1="138" x2="124.2" y2="124.2"/>
	</g>
	<g id="POLYLINE_22686_">
		<line class="st5" x1="138.8" y1="137.4" x2="132.4" y2="124"/>
	</g>
	<g id="POLYLINE_22685_">
		<line class="st5" x1="138.2" y1="142.4" x2="127.2" y2="156.2"/>
	</g>
	<g id="POLYLINE_22684_">
		<line class="st5" x1="139.2" y1="143" x2="134.4" y2="156.2"/>
	</g>
	<g id="POLYLINE_22683_">
		<line class="st5" x1="175.4" y1="223" x2="175.4" y2="256.2"/>
	</g>
	<g id="LINE_2307_">
		<line class="st5" x1="172.2" y1="223" x2="172.2" y2="256.2"/>
	</g>
	<g id="LINE_2306_">
		<line class="st5" x1="169" y1="223" x2="169" y2="256.2"/>
	</g>
	<g id="LINE_2305_">
		<line class="st5" x1="165.8" y1="223" x2="165.8" y2="256.2"/>
	</g>
	<g id="LINE_2304_">
		<line class="st5" x1="162.8" y1="223" x2="162.8" y2="256.2"/>
	</g>
	<g id="POLYLINE_22682_">
		<line class="st5" x1="144" y1="228" x2="159" y2="238.8"/>
	</g>
	<g id="POLYLINE_22681_">
		<line class="st5" x1="158.6" y1="239.4" x2="144" y2="236.2"/>
	</g>
	<g id="POLYLINE_22680_">
		<line class="st5" x1="158.6" y1="240" x2="144" y2="243"/>
	</g>
	<g id="POLYLINE_22679_">
		<line class="st5" x1="159" y1="240.6" x2="144" y2="251.2"/>
	</g>
	<g id="POLYLINE_22678_">
		<line class="st5" x1="159.8" y1="240.8" x2="150" y2="256.2"/>
	</g>
	<g id="POLYLINE_22677_">
		<line class="st5" x1="159.8" y1="238.6" x2="150" y2="223"/>
	</g>
	<g id="POLYLINE_22676_">
		<line class="st5" x1="161" y1="238.6" x2="157.4" y2="223"/>
	</g>
	<g id="POLYLINE_22675_">
		<line class="st5" x1="161" y1="240.8" x2="157.4" y2="256.2"/>
	</g>
	<g id="POLYLINE_22674_">
		<rect x="135" y="198.4" class="st5" width="15" height="20.6"/>
	</g>
	<g id="POLYLINE_22673_">
		<rect x="156.4" y="198.4" class="st5" width="15" height="20.6"/>
	</g>
	<g id="POLYLINE_22672_">
		<line class="st5" x1="135" y1="198.4" x2="150" y2="219"/>
	</g>
	<g id="POLYLINE_22671_">
		<line class="st5" x1="150" y1="198.4" x2="135" y2="219"/>
	</g>
	<g id="POLYLINE_22670_">
		<line class="st5" x1="156.4" y1="198.4" x2="171.6" y2="219"/>
	</g>
	<g id="POLYLINE_22669_">
		<line class="st5" x1="171.6" y1="198.4" x2="156.4" y2="219"/>
	</g>
	<g id="POLYLINE_22668_">
		<line class="st5" x1="137.6" y1="195" x2="147" y2="195"/>
	</g>
	<g id="POLYLINE_22667_">
		<line class="st5" x1="147" y1="196.4" x2="137.6" y2="196.4"/>
	</g>
	<g id="POLYLINE_22666_">
		<line class="st5" x1="159.4" y1="195" x2="168.8" y2="195"/>
	</g>
	<g id="POLYLINE_22665_">
		<line class="st5" x1="168.8" y1="196.4" x2="159.4" y2="196.4"/>
	</g>
	<g id="POLYLINE_22664_">
		<line class="st5" x1="142.6" y1="257.6" x2="122.8" y2="229.2"/>
	</g>
	<g id="POLYLINE_22663_">
		<line class="st5" x1="204.8" y1="217" x2="196.4" y2="257.6"/>
	</g>
	<g id="POLYLINE_22662_">
		<line class="st5" x1="204.8" y1="215.6" x2="204.8" y2="206.6"/>
	</g>
	<g id="POLYLINE_22630_">
		<line class="st5" x1="204.8" y1="205.2" x2="204.8" y2="196.4"/>
	</g>
	<g id="POLYLINE_22629_">
		<line class="st5" x1="195" y1="196.4" x2="195" y2="205.2"/>
	</g>
	<g id="POLYLINE_22606_">
		<line class="st5" x1="204.8" y1="147.2" x2="204.8" y2="166.4"/>
	</g>
	<g id="POLYLINE_22605_">
		<line class="st5" x1="162" y1="124" x2="204.8" y2="145.8"/>
	</g>
	<g id="POLYLINE_22604_">
		<line class="st5" x1="122.8" y1="167.8" x2="122.8" y2="176.4"/>
	</g>
	<g id="POLYLINE_22603_">
		<line class="st5" x1="122.8" y1="196.4" x2="122.8" y2="205.2"/>
	</g>
	<g id="POLYLINE_22602_">
		<line class="st5" x1="122.8" y1="206.4" x2="122.8" y2="221.8"/>
	</g>
	<g id="POLYLINE_22601_">
		<line class="st5" x1="123.4" y1="178.6" x2="133.2" y2="178.6"/>
	</g>
	<g id="ARC_2260_">
		<path class="st5" d="M123.4,188.4c5.4,0,9.6-4.4,9.6-9.6"/>
	</g>
	<g id="ARC_2259_">
		<path class="st5" d="M129.4,194.2c0-3.2-2.6-6-6-6"/>
	</g>
	<g id="POLYLINE_22600_">
		<line class="st5" x1="129.4" y1="194.2" x2="123.4" y2="194.2"/>
	</g>
	<g id="POLYLINE_22599_">
		<line class="st5" x1="204.2" y1="178.6" x2="194.4" y2="178.6"/>
	</g>
	<g id="ARC_2258_">
		<path class="st5" d="M194.4,178.6c0,5.4,4.4,9.6,9.6,9.6"/>
	</g>
	<g id="ARC_2257_">
		<path class="st5" d="M204.2,188.4c-3.2,0-6,2.6-6,6"/>
	</g>
	<g id="POLYLINE_22598_">
		<line class="st5" x1="198.2" y1="194.2" x2="204.2" y2="194.2"/>
	</g>
	<g id="ARC_2256_">
		<path class="st5" d="M177.6,167.4c-5.4,0-9.6,4.4-9.6,9.6"/>
	</g>
	<g id="POLYLINE_22597_">
		<line class="st5" x1="177.6" y1="167.4" x2="177.6" y2="177"/>
	</g>
	<g id="ARC_2255_">
		<path class="st5" d="M190.2,177c0-5.4-4.4-9.6-9.6-9.6"/>
	</g>
	<g id="POLYLINE_22596_">
		<line class="st5" x1="180.6" y1="167.4" x2="180.6" y2="177"/>
	</g>
	<g id="POLYLINE_22595_">
		<line class="st5" x1="156" y1="176.4" x2="156" y2="167.8"/>
	</g>
	<g id="ARC_2254_">
		<path class="st5" d="M155.2,157.4c-5.4,0-9.6,4.4-9.6,9.6"/>
	</g>
	<g id="POLYLINE_22594_">
		<line class="st5" x1="155.2" y1="157.4" x2="155.2" y2="167.2"/>
	</g>
	<g id="POLYLINE_22593_">
		<line class="st5" x1="144" y1="175.8" x2="136.4" y2="175.8"/>
	</g>
	<g id="ARC_2253_">
		<path class="st5" d="M144,168.2c-4.2,0-7.6,3.4-7.6,7.6"/>
	</g>
	<g id="POLYLINE_22592_">
		<line class="st5" x1="193.8" y1="206" x2="193.8" y2="215.6"/>
	</g>
	<g id="ARC_2252_">
		<path class="st5" d="M184.2,206c0,5.4,4.4,9.6,9.6,9.6"/>
	</g>
	<g id="ARC_2251_">
		<path class="st5" d="M178.2,212c3.2,0,6-2.6,6-6"/>
	</g>
	<g id="POLYLINE_22591_">
		<line class="st5" x1="178.2" y1="212" x2="178.2" y2="206"/>
	</g>
	<g id="ARC_2250_">
		<path class="st5" d="M161.2,109.8c-5.4,0-9.6,4.4-9.6,9.6"/>
	</g>
	<g id="POLYLINE_22590_">
		<line class="st5" x1="151.6" y1="119.4" x2="161.2" y2="119.4"/>
	</g>
	<g id="ARC_2249_">
		<path class="st5" d="M161.2,270.2c5.4,0,9.6-4.4,9.6-9.6"/>
	</g>
	<g id="POLYLINE_22589_">
		<line class="st5" x1="170.8" y1="260.6" x2="161.2" y2="260.6"/>
	</g>
</g>
<g id="PLAN_x24_CLOISON_TRANSLUCIDE">
</g>
<g id="PLAN_x24_CLOISON_1.3">
</g>
<g id="PLAN_x24_CLOISON_1.2">
</g>
<g id="PLAN_x24_CLOISON_1.1">
	<g id="POLYLINE_53404_">
		<polyline class="st6" points="203.4,177.6 203.4,178.6 203.4,177.6 190.2,177.6 190.2,176.2 195,176.2 195,150.8 179.6,150.8 
			179.6,176.2 180.6,176.2 180.6,177.6 177.6,177.6 177.6,176.2 178.6,176.2 178.6,150.8 163.2,150.8 163.2,176.2 168,176.2 
			168,177.6 156,177.6 156,176.2 162,176.2 162,167.8 155.2,167.8 155.2,166.4 156,166.4 156,124 124.2,124 124.2,156.2 
			144.6,156.2 144.6,166.4 145.6,166.4 145.6,167.8 144.6,167.8 144.6,168.2 143.4,168.2 143.4,157.6 132.6,157.6 132.6,176.2 
			143.4,176.2 143.4,175.8 144.6,175.8 144.6,177.6 124.2,177.6 124.2,178.6 122.8,178.6 122.8,176.2 131.2,176.2 131.2,167.8 
			122.8,167.8 122.8,122.6 160.6,122.6 160.6,119.4 162,119.4 162,124 160.4,124 157.6,124 157.6,145.8 204.8,145.8 204.8,147.2 		
			"/>
	</g>
	<g id="POLYLINE_53403_">
		
			<rect x="229.1" y="60.2" transform="matrix(0.1779 -0.9841 0.9841 0.1779 127.8066 277.506)" class="st6" width="1.8" height="4.2"/>
	</g>
	<g id="POLYLINE_53402_">
		<rect x="228.8" y="335.2" class="st6" width="4.2" height="1.8"/>
	</g>
	<g id="POLYLINE_53401_">
		<line class="st6" x1="128" y1="235.6" x2="127" y2="236.4"/>
	</g>
	<g id="POLYLINE_22463_">
		<line class="st6" x1="138.4" y1="250.4" x2="137.4" y2="251.2"/>
	</g>
	<g id="POLYLINE_22462_">
		<line class="st6" x1="199.2" y1="247.2" x2="198" y2="247"/>
	</g>
	<g id="POLYLINE_22461_">
		<line class="st6" x1="203.4" y1="227.6" x2="202" y2="227.2"/>
	</g>
	<g id="POLYLINE_22460_">
		<line class="st6" x1="197.8" y1="141.6" x2="197.4" y2="142.8"/>
	</g>
	<g id="POLYLINE_22459_">
		<line class="st6" x1="183.6" y1="134.4" x2="183" y2="135.4"/>
	</g>
	<g id="POLYLINE_22458_">
		<line class="st6" x1="169.4" y1="127" x2="168.8" y2="128.2"/>
	</g>
	<g id="POLYLINE_22457_">
		<line class="st6" x1="288.9" y1="289.6" x2="290.1" y2="289.6"/>
	</g>
	<g id="POLYLINE_22456_">
		<line class="st6" x1="288.9" y1="260.2" x2="290.1" y2="260.2"/>
	</g>
	<g id="POLYLINE_22455_">
		<line class="st6" x1="288.9" y1="230.6" x2="290.1" y2="230.6"/>
	</g>
	<g id="POLYLINE_22454_">
		<line class="st6" x1="288.9" y1="201.2" x2="290.1" y2="201.2"/>
	</g>
	<g id="POLYLINE_22453_">
		<line class="st6" x1="288.9" y1="171.8" x2="290.1" y2="171.8"/>
	</g>
	<g id="POLYLINE_22452_">
		<line class="st6" x1="288.9" y1="142.4" x2="290.1" y2="142.4"/>
	</g>
	<g id="POLYLINE_22451_">
		<line class="st6" x1="288.9" y1="112.8" x2="290.1" y2="112.8"/>
	</g>
	<g id="POLYLINE_22450_">
		<line class="st6" x1="288.9" y1="83.4" x2="290.1" y2="83.4"/>
	</g>
	<g id="POLYLINE_22449_">
		<line class="st6" x1="288.9" y1="318.8" x2="290.1" y2="318.8"/>
	</g>
	<g id="POLYLINE_22448_">
		<line class="st6" x1="64.2" y1="30.4" x2="64.4" y2="29.4"/>
	</g>
	<g id="POLYLINE_22447_">
		<line class="st6" x1="103" y1="37.4" x2="103.2" y2="36.4"/>
	</g>
	<g id="POLYLINE_20705_">
		<line class="st6" x1="141.6" y1="44.4" x2="141.8" y2="43.4"/>
	</g>
	<g id="POLYLINE_20704_">
		<line class="st6" x1="180.4" y1="51.4" x2="180.6" y2="50.4"/>
	</g>
	<g id="POLYLINE_20703_">
		<line class="st6" x1="219" y1="58.4" x2="219.2" y2="57.4"/>
	</g>
	<g id="POLYLINE_20702_">
		<line class="st6" x1="257.9" y1="65.4" x2="258" y2="64.4"/>
	</g>
	<g id="POLYLINE_20701_">
		<line class="st6" x1="24.2" y1="53.8" x2="23.2" y2="53.8"/>
	</g>
	<g id="POLYLINE_20700_">
		<line class="st6" x1="27.2" y1="83.2" x2="26" y2="83.4"/>
	</g>
	<g id="POLYLINE_20699_">
		<line class="st6" x1="30" y1="112.8" x2="28.8" y2="112.8"/>
	</g>
	<g id="POLYLINE_20698_">
		<line class="st6" x1="32.8" y1="142.2" x2="31.8" y2="142.2"/>
	</g>
	<g id="POLYLINE_20697_">
		<line class="st6" x1="35.8" y1="171.6" x2="34.6" y2="171.8"/>
	</g>
	<g id="POLYLINE_20696_">
		<line class="st6" x1="38.6" y1="201" x2="37.4" y2="201.2"/>
	</g>
	<g id="POLYLINE_20695_">
		<line class="st6" x1="41.6" y1="230.6" x2="40.4" y2="230.6"/>
	</g>
	<g id="POLYLINE_20694_">
		<line class="st6" x1="44.4" y1="260" x2="43.2" y2="260.2"/>
	</g>
	<g id="POLYLINE_20693_">
		<line class="st6" x1="47.2" y1="289.4" x2="46" y2="289.6"/>
	</g>
	<g id="POLYLINE_20692_">
		<line class="st6" x1="50.2" y1="319" x2="49" y2="319"/>
	</g>
	<g id="POLYLINE_20691_">
		<line class="st6" x1="103.2" y1="339.4" x2="103.2" y2="338.2"/>
	</g>
	<g id="POLYLINE_20690_">
		<line class="st6" x1="142" y1="339.4" x2="142" y2="338.2"/>
	</g>
	<g id="POLYLINE_20689_">
		<line class="st6" x1="180.6" y1="339.4" x2="180.6" y2="338.2"/>
	</g>
	<g id="POLYLINE_20688_">
		<line class="st6" x1="219.4" y1="339.4" x2="219.4" y2="338.2"/>
	</g>
	<g id="POLYLINE_20687_">
		<line class="st6" x1="258" y1="339.4" x2="258" y2="338.2"/>
	</g>
	<g id="POLYLINE_20686_">
		<line class="st6" x1="64.6" y1="339.4" x2="64.6" y2="338.2"/>
	</g>
	<g id="POLYLINE_20685_">
		<rect x="163.2" y="147.2" class="st6" width="15.4" height="2.4"/>
	</g>
	<g id="POLYLINE_20684_">
		<rect x="157.6" y="147.2" class="st6" width="4.4" height="19.2"/>
	</g>
	<g id="POLYLINE_20683_">
		<rect x="124.2" y="157.6" class="st6" width="7" height="8.8"/>
	</g>
	<g id="POLYLINE_20682_">
		<rect x="124.2" y="223" class="st6" width="12.8" height="4.8"/>
	</g>
	<g id="POLYLINE_20681_">
		<rect x="138.2" y="223" class="st6" width="4.4" height="4.8"/>
	</g>
	<g id="POLYLINE_20680_">
		<polyline class="st6" points="196.4,217 196.4,257.6 162,257.6 162,260.6 160.6,260.6 160.6,257.6 142.6,257.6 142.6,229.2 
			122.8,229.2 122.8,221.6 129.2,221.6 129.2,196.4 127,196.4 127,206.4 122.8,206.4 122.8,205 125.7,205 125.7,196.4 122.8,196.4 
			122.8,194.2 124.2,194.2 124.2,195 137.6,195 137.6,196.4 130.6,196.4 130.6,221.6 152.6,221.6 152.6,196.4 147.2,196.4 
			147.2,195 159.4,195 159.4,196.4 154,196.4 154,221.6 175.8,221.6 175.8,196.4 168.8,196.4 168.8,195 177.2,195 177.2,205.2 
			178.4,205.2 178.4,206.6 177.2,206.6 177.2,223 144,223 144,256.2 195,256.2 195,206.6 194,206.6 194,205.2 200.4,205.2 
			200.4,196.4 195,196.4 195,195 203.4,195 203.4,194.2 204.8,194.2 		"/>
	</g>
	<g id="POLYLINE_20679_">
		<polygon class="st6" points="160.6,109.8 160.6,48 162,48.2 162,109.8 		"/>
	</g>
	<g id="POLYLINE_20678_">
		<polyline class="st6" points="196.4,215.6 196.4,206.6 204.8,206.6 204.8,205.2 201.8,205.2 201.8,196.4 204.8,196.4 204.8,194.2 
			204.8,196.4 		"/>
	</g>
	<g id="POLYLINE_20677_">
		<polyline class="st6" points="195,215.6 204.8,215.6 204.8,217 195,217 		"/>
	</g>
	<g id="POLYLINE_20676_">
		<polyline class="st6" points="204.8,145.8 204.8,147.2 203.4,147.2 196.4,147.2 196.4,166.4 203.4,166.4 204.8,166.4 204.8,178.6 
			203.4,178.6 		"/>
	</g>
	<g id="POLYLINE_20675_">
		<rect x="179.6" y="147.2" class="st6" width="15.4" height="2.4"/>
	</g>
	<g id="POLYLINE_20674_">
		<rect x="196.4" y="167.8" class="st6" width="7" height="8.4"/>
	</g>
	<g id="POLYLINE_20673_">
		<rect x="160.6" y="270.2" class="st6" width="1.4" height="68"/>
	</g>
</g>
<g id="PLAN_x24_STRUCTURE_2.3">
</g>
<g id="PLAN_x24_STRUCTURE_2.2">
</g>
<g id="PLAN_x24_STRUCTURE_2.1">
</g>
<g id="PLAN_x24_STRUCTURE_1.3">
	<g id="POLYLINE_25123_">
		<line class="st7" x1="122.2" y1="334.4" x2="119.4" y2="334.4"/>
	</g>
	<g id="POLYLINE_25122_">
		<line class="st7" x1="119.4" y1="334.4" x2="122.2" y2="334.4"/>
	</g>
	<g id="POLYLINE_25121_">
		<line class="st7" x1="120.8" y1="334.4" x2="120.8" y2="337.4"/>
	</g>
	<g id="POLYLINE_25120_">
		<line class="st7" x1="120.8" y1="337.4" x2="120.8" y2="334.4"/>
	</g>
	<g id="POLYLINE_25119_">
		<line class="st7" x1="122.2" y1="337.4" x2="119.4" y2="337.4"/>
	</g>
	<g id="POLYLINE_25118_">
		<line class="st7" x1="119.4" y1="337.4" x2="122.2" y2="337.4"/>
	</g>
	<g id="POLYLINE_25117_">
		<line class="st7" x1="122.2" y1="44.6" x2="119.4" y2="44.6"/>
	</g>
	<g id="POLYLINE_25116_">
		<line class="st7" x1="119.4" y1="44.6" x2="122.2" y2="44.6"/>
	</g>
	<g id="POLYLINE_25115_">
		<line class="st7" x1="120.8" y1="41.6" x2="120.8" y2="44.6"/>
	</g>
	<g id="POLYLINE_25114_">
		<line class="st7" x1="120.8" y1="44.6" x2="120.8" y2="41.6"/>
	</g>
	<g id="POLYLINE_25113_">
		<line class="st7" x1="122.2" y1="41.6" x2="119.4" y2="41.6"/>
	</g>
	<g id="POLYLINE_25112_">
		<line class="st7" x1="119.4" y1="41.6" x2="122.2" y2="41.6"/>
	</g>
	<g id="POLYLINE_25111_">
		<line class="st7" x1="122.2" y1="220" x2="119.4" y2="220"/>
	</g>
	<g id="POLYLINE_25110_">
		<line class="st7" x1="119.4" y1="220" x2="122.2" y2="220"/>
	</g>
	<g id="POLYLINE_25109_">
		<line class="st7" x1="120.8" y1="217" x2="120.8" y2="220"/>
	</g>
	<g id="POLYLINE_25108_">
		<line class="st7" x1="120.8" y1="220" x2="120.8" y2="217"/>
	</g>
	<g id="POLYLINE_25107_">
		<line class="st7" x1="122.2" y1="217" x2="119.4" y2="217"/>
	</g>
	<g id="POLYLINE_25106_">
		<line class="st7" x1="119.4" y1="217" x2="122.2" y2="217"/>
	</g>
	<g id="POLYLINE_25105_">
		<line class="st7" x1="122.2" y1="99.2" x2="119.4" y2="99.2"/>
	</g>
	<g id="POLYLINE_25104_">
		<line class="st7" x1="119.4" y1="99.2" x2="122.2" y2="99.2"/>
	</g>
	<g id="POLYLINE_25103_">
		<line class="st7" x1="120.8" y1="99.2" x2="120.8" y2="102"/>
	</g>
	<g id="POLYLINE_25102_">
		<line class="st7" x1="120.8" y1="102" x2="120.8" y2="99.2"/>
	</g>
	<g id="POLYLINE_25101_">
		<line class="st7" x1="122.2" y1="102" x2="119.4" y2="102"/>
	</g>
	<g id="POLYLINE_25100_">
		<line class="st7" x1="119.4" y1="102" x2="122.2" y2="102"/>
	</g>
	<g id="POLYLINE_25099_">
		<line class="st7" x1="122.2" y1="161" x2="119.4" y2="161"/>
	</g>
	<g id="POLYLINE_25098_">
		<line class="st7" x1="119.4" y1="161" x2="122.2" y2="161"/>
	</g>
	<g id="POLYLINE_25097_">
		<line class="st7" x1="120.8" y1="158" x2="120.8" y2="161"/>
	</g>
	<g id="POLYLINE_25096_">
		<line class="st7" x1="120.8" y1="161" x2="120.8" y2="158"/>
	</g>
	<g id="POLYLINE_25095_">
		<line class="st7" x1="122.2" y1="158" x2="119.4" y2="158"/>
	</g>
	<g id="POLYLINE_25094_">
		<line class="st7" x1="119.4" y1="158" x2="122.2" y2="158"/>
	</g>
	<g id="POLYLINE_25093_">
		<line class="st7" x1="122.2" y1="279" x2="119.4" y2="279"/>
	</g>
	<g id="POLYLINE_25092_">
		<line class="st7" x1="119.4" y1="279" x2="122.2" y2="279"/>
	</g>
	<g id="POLYLINE_25091_">
		<line class="st7" x1="120.8" y1="276" x2="120.8" y2="279"/>
	</g>
	<g id="POLYLINE_25090_">
		<line class="st7" x1="120.8" y1="279" x2="120.8" y2="276"/>
	</g>
	<g id="POLYLINE_25089_">
		<line class="st7" x1="122.2" y1="276" x2="119.4" y2="276"/>
	</g>
	<g id="POLYLINE_25088_">
		<line class="st7" x1="119.4" y1="276" x2="122.2" y2="276"/>
	</g>
	<g id="POLYLINE_25087_">
		<line class="st7" x1="199.4" y1="276" x2="196.4" y2="276"/>
	</g>
	<g id="POLYLINE_25086_">
		<line class="st7" x1="197.8" y1="276" x2="197.8" y2="279"/>
	</g>
	<g id="POLYLINE_25085_">
		<line class="st7" x1="199.4" y1="279" x2="196.4" y2="279"/>
	</g>
	<g id="POLYLINE_25084_">
		<line class="st7" x1="199.4" y1="158" x2="196.4" y2="158"/>
	</g>
	<g id="POLYLINE_25083_">
		<line class="st7" x1="197.8" y1="158" x2="197.8" y2="161"/>
	</g>
	<g id="POLYLINE_25082_">
		<line class="st7" x1="199.4" y1="161" x2="196.4" y2="161"/>
	</g>
	<g id="POLYLINE_25081_">
		<line class="st7" x1="199.4" y1="102" x2="196.4" y2="102"/>
	</g>
	<g id="POLYLINE_25080_">
		<line class="st7" x1="197.8" y1="99.2" x2="197.8" y2="102"/>
	</g>
	<g id="POLYLINE_25079_">
		<line class="st7" x1="199.4" y1="99.2" x2="196.4" y2="99.2"/>
	</g>
	<g id="POLYLINE_25078_">
		<line class="st7" x1="199.4" y1="217" x2="196.4" y2="217"/>
	</g>
	<g id="POLYLINE_25077_">
		<line class="st7" x1="197.8" y1="217" x2="197.8" y2="220"/>
	</g>
	<g id="POLYLINE_25076_">
		<line class="st7" x1="199.4" y1="220" x2="196.4" y2="220"/>
	</g>
	<g id="POLYLINE_25075_">
		<line class="st7" x1="276.5" y1="276" x2="273.6" y2="276"/>
	</g>
	<g id="POLYLINE_25074_">
		<line class="st7" x1="275.1" y1="276" x2="275.1" y2="279"/>
	</g>
	<g id="POLYLINE_25073_">
		<line class="st7" x1="276.5" y1="279" x2="273.6" y2="279"/>
	</g>
	<g id="POLYLINE_25072_">
		<line class="st7" x1="276.5" y1="158" x2="273.6" y2="158"/>
	</g>
	<g id="POLYLINE_25071_">
		<line class="st7" x1="275.1" y1="158" x2="275.1" y2="161"/>
	</g>
	<g id="POLYLINE_25070_">
		<line class="st7" x1="276.5" y1="161" x2="273.6" y2="161"/>
	</g>
	<g id="POLYLINE_25069_">
		<line class="st7" x1="276.5" y1="102" x2="273.6" y2="102"/>
	</g>
	<g id="POLYLINE_25068_">
		<line class="st7" x1="275.1" y1="99.2" x2="275.1" y2="102"/>
	</g>
	<g id="POLYLINE_25067_">
		<line class="st7" x1="276.5" y1="99.2" x2="273.6" y2="99.2"/>
	</g>
	<g id="POLYLINE_25066_">
		<line class="st7" x1="276.5" y1="217" x2="273.6" y2="217"/>
	</g>
	<g id="POLYLINE_25065_">
		<line class="st7" x1="275.1" y1="217" x2="275.1" y2="220"/>
	</g>
	<g id="POLYLINE_25064_">
		<line class="st7" x1="276.5" y1="220" x2="273.6" y2="220"/>
	</g>
	<g id="POLYLINE_25063_">
		<line class="st7" x1="61.2" y1="279" x2="58.4" y2="279"/>
	</g>
	<g id="POLYLINE_25062_">
		<line class="st7" x1="59.8" y1="276" x2="59.8" y2="279"/>
	</g>
	<g id="POLYLINE_25061_">
		<line class="st7" x1="61.2" y1="276" x2="58.4" y2="276"/>
	</g>
	<g id="POLYLINE_25060_">
		<line class="st7" x1="55.6" y1="220" x2="52.8" y2="220"/>
	</g>
	<g id="POLYLINE_25059_">
		<line class="st7" x1="54.2" y1="217" x2="54.2" y2="220"/>
	</g>
	<g id="POLYLINE_25058_">
		<line class="st7" x1="55.6" y1="217" x2="52.8" y2="217"/>
	</g>
	<g id="POLYLINE_25057_">
		<line class="st7" x1="50" y1="161" x2="47" y2="161"/>
	</g>
	<g id="POLYLINE_25056_">
		<line class="st7" x1="48.6" y1="158" x2="48.6" y2="161"/>
	</g>
	<g id="POLYLINE_25055_">
		<line class="st7" x1="50" y1="158" x2="47" y2="158"/>
	</g>
	<g id="POLYLINE_25054_">
		<line class="st7" x1="44.2" y1="99.2" x2="41.2" y2="99.2"/>
	</g>
	<g id="POLYLINE_25053_">
		<line class="st7" x1="42.8" y1="99.2" x2="42.8" y2="102"/>
	</g>
	<g id="POLYLINE_25052_">
		<line class="st7" x1="44.2" y1="102" x2="41.2" y2="102"/>
	</g>
	<g id="POLYLINE_25051_">
		<line class="st7" x1="37.2" y1="29.2" x2="34.2" y2="29.2"/>
	</g>
	<g id="POLYLINE_25050_">
		<line class="st7" x1="35.6" y1="26.2" x2="35.6" y2="29.2"/>
	</g>
	<g id="POLYLINE_25049_">
		<line class="st7" x1="37.2" y1="26.2" x2="34.2" y2="26.2"/>
	</g>
	<g id="POLYLINE_25048_">
		<line class="st7" x1="199.4" y1="55.6" x2="196.4" y2="55.6"/>
	</g>
	<g id="POLYLINE_25047_">
		<line class="st7" x1="197.8" y1="55.6" x2="197.8" y2="58.4"/>
	</g>
	<g id="POLYLINE_25046_">
		<line class="st7" x1="199.4" y1="58.4" x2="196.4" y2="58.4"/>
	</g>
	<g id="POLYLINE_25045_">
		<line class="st7" x1="276.5" y1="69.4" x2="273.6" y2="69.4"/>
	</g>
	<g id="POLYLINE_25044_">
		<line class="st7" x1="275.1" y1="69.4" x2="275.1" y2="72.4"/>
	</g>
	<g id="POLYLINE_25043_">
		<line class="st7" x1="276.5" y1="72.4" x2="273.6" y2="72.4"/>
	</g>
	<g id="POLYLINE_25042_">
		<line class="st7" x1="67.2" y1="334.4" x2="64.2" y2="334.4"/>
	</g>
	<g id="POLYLINE_25041_">
		<line class="st7" x1="65.8" y1="334.4" x2="65.8" y2="337.4"/>
	</g>
	<g id="POLYLINE_25040_">
		<line class="st7" x1="67.2" y1="337.4" x2="64.2" y2="337.4"/>
	</g>
	<g id="POLYLINE_25039_">
		<line class="st7" x1="276.5" y1="337.4" x2="273.6" y2="337.4"/>
	</g>
	<g id="POLYLINE_25038_">
		<line class="st7" x1="275.1" y1="334.4" x2="275.1" y2="337.4"/>
	</g>
	<g id="POLYLINE_25037_">
		<line class="st7" x1="276.5" y1="334.4" x2="273.6" y2="334.4"/>
	</g>
	<g id="POLYLINE_25036_">
		<line class="st7" x1="199.4" y1="337.4" x2="196.4" y2="337.4"/>
	</g>
	<g id="POLYLINE_25035_">
		<line class="st7" x1="197.8" y1="334.4" x2="197.8" y2="337.4"/>
	</g>
	<g id="POLYLINE_25034_">
		<line class="st7" x1="199.4" y1="334.4" x2="196.4" y2="334.4"/>
	</g>
	<g id="POLYLINE_25033_">
		<line class="st7" x1="288.9" y1="157" x2="291.2" y2="157"/>
	</g>
	<g id="POLYLINE_25032_">
		<line class="st7" x1="288.9" y1="127.6" x2="291.2" y2="127.6"/>
	</g>
	<g id="POLYLINE_25031_">
		<line class="st7" x1="288.9" y1="98.2" x2="291.2" y2="98.2"/>
	</g>
	<g id="POLYLINE_25030_">
		<line class="st7" x1="288.9" y1="186.6" x2="291.2" y2="186.6"/>
	</g>
	<g id="POLYLINE_25029_">
		<line class="st7" x1="288.9" y1="216" x2="291.2" y2="216"/>
	</g>
	<g id="POLYLINE_25028_">
		<line class="st7" x1="288.9" y1="245.4" x2="291.2" y2="245.4"/>
	</g>
	<g id="POLYLINE_25027_">
		<line class="st7" x1="288.9" y1="275" x2="291.2" y2="275"/>
	</g>
	<g id="POLYLINE_25026_">
		<line class="st7" x1="288.9" y1="304.4" x2="291.2" y2="304.4"/>
	</g>
	<g id="POLYLINE_25025_">
		<line class="st7" x1="83.7" y1="34" x2="84" y2="31.8"/>
	</g>
	<g id="POLYLINE_25024_">
		<line class="st7" x1="44.8" y1="27" x2="45.4" y2="24.8"/>
	</g>
	<g id="POLYLINE_25023_">
		<line class="st7" x1="122.4" y1="41" x2="122.8" y2="38.8"/>
	</g>
	<g id="POLYLINE_25022_">
		<line class="st7" x1="161" y1="48" x2="161.4" y2="45.8"/>
	</g>
	<g id="POLYLINE_25021_">
		<line class="st7" x1="199.8" y1="55" x2="200.2" y2="52.6"/>
	</g>
	<g id="POLYLINE_25020_">
		<line class="st7" x1="238.4" y1="62" x2="238.8" y2="59.6"/>
	</g>
	<g id="POLYLINE_25019_">
		<line class="st7" x1="277.2" y1="69" x2="277.6" y2="66.6"/>
	</g>
	<g id="POLYLINE_25018_">
		<line class="st7" x1="22.8" y1="39.2" x2="20.4" y2="39.4"/>
	</g>
	<g id="POLYLINE_25017_">
		<line class="st7" x1="25.8" y1="68.6" x2="23.4" y2="68.8"/>
	</g>
	<g id="POLYLINE_25016_">
		<line class="st7" x1="28.6" y1="98" x2="26.2" y2="98.2"/>
	</g>
	<g id="POLYLINE_25015_">
		<line class="st7" x1="31.4" y1="127.4" x2="29" y2="127.8"/>
	</g>
	<g id="POLYLINE_25014_">
		<line class="st7" x1="34.4" y1="157" x2="32" y2="157.2"/>
	</g>
	<g id="POLYLINE_25013_">
		<line class="st7" x1="37.2" y1="186.4" x2="34.8" y2="186.6"/>
	</g>
	<g id="POLYLINE_25012_">
		<line class="st7" x1="40" y1="215.8" x2="37.6" y2="216.2"/>
	</g>
	<g id="POLYLINE_25011_">
		<line class="st7" x1="43" y1="245.4" x2="40.6" y2="245.6"/>
	</g>
	<g id="POLYLINE_25010_">
		<line class="st7" x1="45.8" y1="274.8" x2="43.4" y2="275"/>
	</g>
	<g id="POLYLINE_25009_">
		<line class="st7" x1="48.6" y1="304.2" x2="46.2" y2="304.4"/>
	</g>
	<g id="POLYLINE_25008_">
		<line class="st7" x1="83.8" y1="340.6" x2="83.8" y2="338.2"/>
	</g>
	<g id="POLYLINE_25007_">
		<line class="st7" x1="122.7" y1="340.6" x2="122.7" y2="338.2"/>
	</g>
	<g id="POLYLINE_25006_">
		<line class="st7" x1="161.2" y1="340.6" x2="161.2" y2="338.2"/>
	</g>
	<g id="POLYLINE_25005_">
		<line class="st7" x1="200" y1="340.6" x2="200" y2="338.2"/>
	</g>
	<g id="POLYLINE_25004_">
		<line class="st7" x1="238.6" y1="340.6" x2="238.6" y2="338.2"/>
	</g>
	<g id="POLYLINE_25003_">
		<line class="st7" x1="277.5" y1="340.6" x2="277.5" y2="338.2"/>
	</g>
</g>
<g id="PLAN_x24_STRUCTURE_1.2">
</g>
<g id="PLAN_x24_STRUCTURE_1.1">
</g>
</svg>
