<?xml version="1.0" encoding="utf-8"?>
<!-- Generator: Adobe Illustrator 22.0.1, SVG Export Plug-In . SVG Version: 6.00 Build 0)  -->
<svg version="1.1" id="Calque_1" xmlns="http://www.w3.org/2000/svg" xmlns:xlink="http://www.w3.org/1999/xlink" x="0px" y="0px"
	 viewBox="0 0 100 47.6" style="enable-background:new 0 0 100 47.6;" xml:space="preserve">
<style type="text/css">
	.st0{display:none;}
	.st1{display:inline;}
	.st2{fill:none;}
	.st3{fill:none;stroke:#000000;stroke-width:0.1;stroke-linecap:square;stroke-miterlimit:10;stroke-dasharray:0.5,0.5;}
	.st4{fill:none;stroke:#000000;stroke-width:5.000000e-02;stroke-linecap:square;stroke-miterlimit:10;}
	.st5{fill:none;stroke:#000000;stroke-width:8.000000e-02;stroke-linecap:square;stroke-miterlimit:10;}
	.st6{fill:none;stroke:#000000;stroke-width:0.18;stroke-linecap:square;stroke-miterlimit:10;}
	.st7{fill:none;stroke:#000000;stroke-width:0.45;stroke-linecap:square;stroke-miterlimit:10;}
</style>
<g id="Calque_1_1_">
</g>
<g id="INFOS_x24_A4" class="st0">
	<g id="POLYLINE_33284_" class="st1">
		<rect x="-247.1" y="-396.9" class="st2" width="595.3" height="841.9"/>
	</g>
</g>
<g id="PLAN_x24_FOND">
</g>
<g id="PLAN_x24_POINTILLE">
	<g id="POLYLINE_34572_">
		<line class="st3" x1="73.1" y1="17.2" x2="73.2" y2="39.7"/>
	</g>
</g>
<g id="PLAN_x24_VITRAGE">
	<g id="POLYLINE_33324_">
		<rect x="96" y="20.5" class="st4" width="0.3" height="7.1"/>
	</g>
	<g id="POLYLINE_33323_">
		<rect x="21.1" y="32.8" class="st4" width="0.3" height="5.8"/>
	</g>
	<g id="POLYLINE_33322_">
		<rect x="21.1" y="16.8" class="st4" width="0.3" height="11.4"/>
	</g>
</g>
<g id="PLAN_x24_MOBILIER">
	<g id="POLYLINE_33373_">
		<line class="st5" x1="25.4" y1="16.3" x2="25.5" y2="10.6"/>
	</g>
	<g id="POLYLINE_33372_">
		<polyline class="st5" points="25.5,10.6 31.9,10.6 35.8,9.3 49.3,9.3 		"/>
	</g>
	<g id="POLYLINE_33371_">
		<line class="st5" x1="88.3" y1="22.8" x2="88.3" y2="21.2"/>
	</g>
	<g id="POLYLINE_33370_">
		<polyline class="st5" points="88.3,21.2 88.3,18.7 81.9,18.7 81.9,21.2 		"/>
	</g>
	<g id="POLYLINE_33369_">
		<line class="st5" x1="81.9" y1="21.2" x2="82" y2="22.8"/>
	</g>
	<g id="POLYLINE_33368_">
		<line class="st5" x1="92.4" y1="19.2" x2="92.8" y2="19.8"/>
	</g>
	<g id="POLYLINE_33367_">
		<line class="st5" x1="92.4" y1="18.3" x2="92.8" y2="17.7"/>
	</g>
	<g id="POLYLINE_33366_">
		<line class="st5" x1="91.5" y1="19" x2="91.1" y2="19.2"/>
	</g>
	<g id="POLYLINE_33365_">
		<rect x="91.2" y="17.7" transform="matrix(0.4307 -0.9025 0.9025 0.4307 35.4997 93.3434)" class="st5" width="1" height="1.7"/>
	</g>
	<g id="POLYLINE_33364_">
		<line class="st5" x1="59.2" y1="6.5" x2="59.2" y2="13.9"/>
	</g>
	<g id="POLYLINE_33363_">
		<rect x="30.8" y="19.5" transform="matrix(4.999937e-03 -1 1 4.999937e-03 13.708 56.13)" class="st5" width="8.6" height="3.4"/>
	</g>
	<g id="POLYLINE_33362_">
		
			<rect x="30.6" y="19.6" transform="matrix(4.999937e-03 -1 1 4.999937e-03 11.3813 52.8696)" class="st5" width="3.4" height="2.2"/>
	</g>
	<g id="POLYLINE_33361_">
		<line class="st5" x1="93.2" y1="20.3" x2="93.2" y2="27.9"/>
	</g>
	<g id="POLYLINE_33360_">
		<rect x="83" y="24.9" class="st5" width="4.5" height="4.6"/>
	</g>
	<g id="POLYLINE_33359_">
		<rect x="80.3" y="23.3" class="st5" width="9.6" height="7.5"/>
	</g>
	<g id="POLYLINE_33358_">
		
			<rect x="80.3" y="17.1" transform="matrix(1 -2.799989e-03 2.799989e-03 1 -5.559807e-02 0.2384)" class="st5" width="9.5" height="5.7"/>
	</g>
	<g id="POLYLINE_33357_">
		
			<rect x="50.8" y="6.9" transform="matrix(0.9999 -1.140040e-02 1.140040e-02 0.9999 -8.181276e-02 0.5927)" class="st5" width="2.3" height="1.2"/>
	</g>
	<g id="POLYLINE_33356_">
		
			<rect x="50.5" y="6.5" transform="matrix(0.9999 -1.140040e-02 1.140040e-02 0.9999 -8.181276e-02 0.5927)" class="st5" width="2.9" height="1.9"/>
	</g>
	<g id="CIRCLE_1494_">
		<path class="st5" d="M51.7,7.4c0-0.1,0.1-0.2,0.2-0.2s0.2,0.1,0.2,0.2S52,7.6,51.9,7.6C51.8,7.6,51.7,7.5,51.7,7.4L51.7,7.4z"/>
	</g>
	<g id="SPLINE_1220_">
		<path class="st5" d="M55,8c-0.1,0.2-0.1,0.5-0.1,0.7c0,0.2,0,0.4,0,0.5c0,0.2,0,0.5,0.1,0.7c0,0.1,0.1,0.2,0.2,0.3
			c0.2,0.1,0.4,0.2,0.6,0.2c0.1,0,0.2,0,0.3,0c0.2,0,0.3-0.1,0.4-0.2c0.2-0.2,0.3-0.4,0.3-0.7c0-0.3,0.1-0.5,0-0.8
			c0-0.2,0-0.4-0.1-0.5c0-0.1,0-0.2-0.1-0.3"/>
	</g>
	<g id="POLYLINE_33355_">
		<rect x="54.5" y="6.5" class="st5" width="3" height="1.5"/>
	</g>
	<g id="ARC_3038_">
		<path class="st5" d="M32.8,15.6c0.6,0,1-0.4,1-1s-0.4-1-1-1"/>
	</g>
	<g id="ARC_3037_">
		<path class="st5" d="M28.2,14c-0.6,0-1,0.4-1,1s0.4,1,1,1"/>
	</g>
	<g id="POLYLINE_33354_">
		
			<rect x="28.8" y="12.3" transform="matrix(4.999937e-03 -1 1 4.999937e-03 15.739 45.0704)" class="st5" width="3.4" height="4.6"/>
	</g>
	<g id="CIRCLE_1493_">
		<path class="st5" d="M23.8,13.6c0-0.1,0.1-0.2,0.2-0.2s0.2,0.1,0.2,0.2s-0.1,0.2-0.2,0.2S23.8,13.7,23.8,13.6L23.8,13.6z"/>
	</g>
	<g id="POLYLINE_33353_">
		
			<rect x="23.1" y="12" transform="matrix(0.9999 -1.140040e-02 1.140040e-02 0.9999 -0.1523 0.2754)" class="st5" width="1.9" height="2.9"/>
	</g>
	<g id="POLYLINE_33352_">
		<line class="st5" x1="35.8" y1="9.3" x2="35.8" y2="6.5"/>
	</g>
	<g id="POLYLINE_33351_">
		<rect x="23.3" y="34.6" class="st5" width="3" height="2.9"/>
	</g>
	<g id="POLYLINE_33350_">
		<rect x="28.2" y="35.1" class="st5" width="1.1" height="2"/>
	</g>
	<g id="POLYLINE_33348_">
		<rect x="26.8" y="34.8" class="st5" width="1.4" height="3.1"/>
	</g>
	<g id="POLYLINE_33347_">
		
			<rect x="22.4" y="34.3" transform="matrix(0.9996 -2.730075e-02 2.730075e-02 0.9996 -0.9829 0.6867)" class="st5" width="4.4" height="4.1"/>
	</g>
	<g id="POLYLINE_33346_">
		
			<rect x="34" y="33" transform="matrix(1.310019e-02 -0.9999 0.9999 1.310019e-02 -9.594184e-02 69.3409)" class="st5" width="2.2" height="3.4"/>
	</g>
	<g id="POLYLINE_33345_">
		
			<rect x="32.9" y="33.2" transform="matrix(1.310019e-02 -0.9999 0.9999 1.310019e-02 -3.3836 71.5956)" class="st5" width="3.4" height="8.6"/>
	</g>
	<g id="POLYLINE_33344_">
		
			<rect x="41.5" y="33.3" transform="matrix(1.310019e-02 -0.9999 0.9999 1.310019e-02 4.9702 80.2842)" class="st5" width="3.4" height="8.6"/>
	</g>
	<g id="POLYLINE_33343_">
		
			<rect x="42.6" y="33.1" transform="matrix(1.310019e-02 -0.9999 0.9999 1.310019e-02 8.2582 78.029)" class="st5" width="2.2" height="3.4"/>
	</g>
	<g id="POLYLINE_33342_">
		
			<rect x="50.1" y="33.4" transform="matrix(1.310019e-02 -0.9999 0.9999 1.310019e-02 13.3238 88.9729)" class="st5" width="3.4" height="8.6"/>
	</g>
	<g id="POLYLINE_33341_">
		
			<rect x="51.1" y="33.3" transform="matrix(1.310019e-02 -0.9999 0.9999 1.310019e-02 16.6127 86.7171)" class="st5" width="2.2" height="3.4"/>
	</g>
	<g id="POLYLINE_33340_">
		
			<rect x="58.6" y="33.6" transform="matrix(1.310019e-02 -0.9999 0.9999 1.310019e-02 21.6786 97.6604)" class="st5" width="3.4" height="8.6"/>
	</g>
	<g id="POLYLINE_33339_">
		
			<rect x="59.7" y="33.4" transform="matrix(1.310019e-02 -0.9999 0.9999 1.310019e-02 24.9672 95.4053)" class="st5" width="2.2" height="3.4"/>
	</g>
	<g id="POLYLINE_33338_">
		
			<rect x="67.2" y="33.7" transform="matrix(1.310019e-02 -0.9999 0.9999 1.310019e-02 30.0323 106.3491)" class="st5" width="3.4" height="8.6"/>
	</g>
	<g id="POLYLINE_33321_">
		
			<rect x="68.3" y="33.5" transform="matrix(1.310019e-02 -0.9999 0.9999 1.310019e-02 33.3213 104.0934)" class="st5" width="2.2" height="3.4"/>
	</g>
	<g id="POLYLINE_33320_">
		
			<rect x="54.2" y="19.6" transform="matrix(4.999937e-03 -1 1 4.999937e-03 36.8979 79.739)" class="st5" width="8.6" height="3.4"/>
	</g>
	<g id="POLYLINE_33319_">
		
			<rect x="64.8" y="19.7" transform="matrix(4.999937e-03 -1 1 4.999937e-03 47.3117 90.3163)" class="st5" width="8.6" height="3.4"/>
	</g>
	<g id="POLYLINE_33318_">
		
			<rect x="64.6" y="19.8" transform="matrix(4.999937e-03 -1 1 4.999937e-03 44.9805 87.0575)" class="st5" width="3.4" height="2.2"/>
	</g>
	<g id="POLYLINE_33317_">
		
			<rect x="50.9" y="19.6" transform="matrix(4.999937e-03 -1 1 4.999937e-03 33.6279 76.3485)" class="st5" width="8.6" height="3.4"/>
	</g>
	<g id="POLYLINE_33316_">
		
			<rect x="50.7" y="19.7" transform="matrix(4.999937e-03 -1 1 4.999937e-03 31.2987 73.0879)" class="st5" width="3.4" height="2.2"/>
	</g>
	<g id="POLYLINE_33315_">
		
			<rect x="42.4" y="19.6" transform="matrix(4.999937e-03 -1 1 4.999937e-03 25.2117 67.8069)" class="st5" width="8.6" height="3.4"/>
	</g>
	<g id="POLYLINE_33314_">
		
			<rect x="42.2" y="19.7" transform="matrix(4.999937e-03 -1 1 4.999937e-03 22.8852 64.547)" class="st5" width="3.4" height="2.2"/>
	</g>
	<g id="POLYLINE_33313_">
		
			<rect x="22.8" y="19.6" transform="matrix(4.999937e-03 -1 1 4.999937e-03 3.6627 45.036)" class="st5" width="3.4" height="2.2"/>
	</g>
	<g id="POLYLINE_33312_">
		<rect x="23" y="19.5" transform="matrix(4.999937e-03 -1 1 4.999937e-03 5.9895 48.2961)" class="st5" width="8.6" height="3.4"/>
	</g>
	<g id="POLYLINE_33311_">
		<rect x="7.3" y="16.5" class="st5" width="1.8" height="2.4"/>
	</g>
	<g id="POLYLINE_33310_">
		<rect x="7.3" y="21.1" class="st5" width="1.8" height="2.4"/>
	</g>
	<g id="POLYLINE_33309_">
		<rect x="7.3" y="25.5" class="st5" width="1.8" height="2.4"/>
	</g>
	<g id="POLYLINE_33308_">
		<rect x="14.7" y="25.5" class="st5" width="1.8" height="2.4"/>
	</g>
	<g id="POLYLINE_33307_">
		<rect x="14.7" y="21.1" class="st5" width="1.8" height="2.4"/>
	</g>
	<g id="POLYLINE_33306_">
		<rect x="14.7" y="16.5" class="st5" width="1.8" height="2.4"/>
	</g>
	<g id="POLYLINE_33305_">
		<rect x="10.7" y="29.2" class="st5" width="2.4" height="1.8"/>
	</g>
	<g id="POLYLINE_33304_">
		<rect x="10.7" y="13.6" class="st5" width="2.4" height="1.8"/>
	</g>
	<g id="POLYLINE_33303_">
		<rect x="9.2" y="15.4" class="st5" width="5.6" height="13.8"/>
	</g>
	<g id="POLYLINE_33302_">
		<polyline class="st5" points="18.2,39.8 18.2,38 6.8,38 6.8,39.8 		"/>
	</g>
</g>
<g id="PLAN_x24_DETAIL">
	<g id="POLYLINE_33337_">
		<line class="st5" x1="96" y1="8.6" x2="92.4" y2="8.6"/>
	</g>
	<g id="ARC_3025_">
		<path class="st5" d="M92.4,8.6c0,2,1.6,3.6,3.6,3.6"/>
	</g>
	<g id="ARC_3024_">
		<path class="st5" d="M96,12.2c-2,0-3.6,1.6-3.6,3.6"/>
	</g>
	<g id="POLYLINE_33336_">
		<line class="st5" x1="92.4" y1="15.8" x2="96" y2="15.8"/>
	</g>
	<g id="POLYLINE_33335_">
		<line class="st5" x1="16.6" y1="32.8" x2="21.1" y2="32.8"/>
	</g>
	<g id="POLYLINE_33334_">
		<line class="st5" x1="21.1" y1="32.8" x2="25.7" y2="32.8"/>
	</g>
	<g id="ARC_3023_">
		<path class="st5" d="M25.7,32.8c0-2.5-2-4.5-4.5-4.5"/>
	</g>
	<g id="ARC_3022_">
		<path class="st5" d="M21.1,28.2c-2.5,0-4.5,2-4.5,4.5"/>
	</g>
	<g id="POLYLINE_33333_">
		<line class="st5" x1="96" y1="33.4" x2="92.3" y2="33.4"/>
	</g>
	<g id="ARC_3021_">
		<path class="st5" d="M92.3,33.4c0,2,1.6,3.7,3.7,3.7"/>
	</g>
	<g id="ARC_3020_">
		<path class="st5" d="M96,37c-2,0-3.7,1.6-3.7,3.7"/>
	</g>
	<g id="POLYLINE_33332_">
		<line class="st5" x1="92.3" y1="40.7" x2="96" y2="40.7"/>
	</g>
	<g id="POLYLINE_33331_">
		<line class="st5" x1="10.4" y1="8.9" x2="15" y2="6.5"/>
	</g>
	<g id="POLYLINE_33330_">
		<line class="st5" x1="15" y1="6.5" x2="4.7" y2="6.5"/>
	</g>
	<g id="POLYLINE_33329_">
		<line class="st5" x1="4.7" y1="6.5" x2="9.3" y2="8.9"/>
	</g>
	<g id="ARC_3019_">
		<path class="st5" d="M9.3,8.9c0.4-0.7,0.6-1.5,0.6-2.3"/>
	</g>
	<g id="ARC_3018_">
		<path class="st5" d="M9.8,6.5c0,0.8,0.2,1.6,0.6,2.3"/>
	</g>
	<g id="POLYLINE_33328_">
		<line class="st5" x1="97.1" y1="27.7" x2="97.1" y2="20.5"/>
	</g>
	<g id="POLYLINE_33327_">
		<line class="st5" x1="49.3" y1="14.5" x2="47.4" y2="14.5"/>
	</g>
	<g id="ARC_3017_">
		<path class="st5" d="M47.4,14.5c0,1.1,0.9,1.9,1.9,1.9"/>
	</g>
	<g id="POLYLINE_33326_">
		<line class="st5" x1="37" y1="16.3" x2="37" y2="11.8"/>
	</g>
	<g id="ARC_3016_">
		<path class="st5" d="M41.5,16.3c0-2.5-2-4.5-4.5-4.5"/>
	</g>
	<g id="POLYLINE_33325_">
		<line class="st5" x1="49.9" y1="13.6" x2="53.2" y2="13.6"/>
	</g>
	<g id="ARC_3015_">
		<path class="st5" d="M53.2,13.6c0-1.8-1.5-3.3-3.3-3.3"/>
	</g>
</g>
<g id="PLAN_x24_CLOISON_TRANSLUCIDE">
</g>
<g id="PLAN_x24_CLOISON_1.3">
</g>
<g id="PLAN_x24_CLOISON_1.2">
	<g id="POLYLINE_34535_">
		<polyline class="st6" points="49.3,10.2 49.3,6.5 49.9,6.5 49.9,10.2 		"/>
	</g>
	<g id="POLYLINE_34534_">
		<line class="st6" x1="49.9" y1="10.2" x2="49.3" y2="10.2"/>
	</g>
	<g id="POLYLINE_34533_">
		<polyline class="st6" points="49.9,13.6 49.9,13.9 62.4,13.9 62.4,14.5 49.3,14.5 49.3,13.6 		"/>
	</g>
	<g id="POLYLINE_34477_">
		<line class="st6" x1="49.3" y1="13.6" x2="49.9" y2="13.6"/>
	</g>
	<g id="POLYLINE_34476_">
		<line class="st6" x1="41.5" y1="16.3" x2="41.5" y2="16.9"/>
	</g>
	<g id="POLYLINE_34475_">
		<polyline class="st6" points="41.5,16.9 64.6,17.1 64.6,16.5 41.5,16.4 		"/>
	</g>
	<g id="POLYLINE_34474_">
		<polyline class="st6" points="37,16.3 21.7,16.3 21.7,10.6 21.1,10.6 21.1,16.8 37,16.9 		"/>
	</g>
	<g id="POLYLINE_34473_">
		<line class="st6" x1="37" y1="16.9" x2="37" y2="16.3"/>
	</g>
	<g id="POLYLINE_34472_">
		<line class="st6" x1="71" y1="39.7" x2="71" y2="40.4"/>
	</g>
	<g id="POLYLINE_34471_">
		<line class="st6" x1="64.2" y1="39.6" x2="64.2" y2="40.3"/>
	</g>
	<g id="POLYLINE_34470_">
		<line class="st6" x1="59.1" y1="39.5" x2="59.1" y2="40.3"/>
	</g>
	<g id="POLYLINE_34469_">
		<line class="st6" x1="54" y1="39.5" x2="54" y2="40.2"/>
	</g>
	<g id="POLYLINE_34468_">
		<line class="st6" x1="48.3" y1="39.4" x2="48.3" y2="40.1"/>
	</g>
	<g id="POLYLINE_34467_">
		<line class="st6" x1="42.8" y1="39.3" x2="42.8" y2="40.1"/>
	</g>
	<g id="POLYLINE_34466_">
		<line class="st6" x1="37.1" y1="39.2" x2="37.1" y2="40"/>
	</g>
	<g id="POLYLINE_34465_">
		<line class="st6" x1="31.3" y1="39.2" x2="31.3" y2="39.9"/>
	</g>
	<g id="POLYLINE_34464_">
		<line class="st6" x1="26.3" y1="39.1" x2="26.2" y2="39.8"/>
	</g>
	<g id="POLYLINE_34463_">
		<line class="st6" x1="73.2" y1="39.7" x2="25.4" y2="39.1"/>
	</g>
	<g id="POLYLINE_33392_">
		<line class="st6" x1="4.5" y1="28.7" x2="3.9" y2="28.7"/>
	</g>
	<g id="POLYLINE_33391_">
		<line class="st6" x1="4.5" y1="33.3" x2="3.9" y2="33.3"/>
	</g>
	<g id="POLYLINE_33390_">
		<line class="st6" x1="4.5" y1="37.6" x2="3.9" y2="37.6"/>
	</g>
	<g id="POLYLINE_33389_">
		<line class="st6" x1="4.5" y1="28.3" x2="4.5" y2="38.4"/>
	</g>
	<g id="POLYLINE_33388_">
		<line class="st6" x1="4.5" y1="22.8" x2="3.9" y2="22.8"/>
	</g>
	<g id="POLYLINE_33387_">
		<line class="st6" x1="4.5" y1="18.2" x2="3.9" y2="18.2"/>
	</g>
	<g id="POLYLINE_33386_">
		<line class="st6" x1="4.5" y1="13.7" x2="3.9" y2="13.7"/>
	</g>
	<g id="POLYLINE_33385_">
		<line class="st6" x1="4.5" y1="8.9" x2="3.9" y2="8.9"/>
	</g>
	<g id="POLYLINE_33384_">
		<line class="st6" x1="4.5" y1="26.7" x2="4.5" y2="8.3"/>
	</g>
	<g id="POLYLINE_33383_">
		<line class="st6" x1="62.4" y1="15.6" x2="62.4" y2="16.5"/>
	</g>
	<g id="POLYLINE_33382_">
		<line class="st6" x1="64.6" y1="16.5" x2="64.6" y2="15.6"/>
	</g>
	<g id="POLYLINE_33381_">
		<line class="st6" x1="68.4" y1="16.5" x2="68.4" y2="17.1"/>
	</g>
	<g id="POLYLINE_33380_">
		<line class="st6" x1="71.2" y1="16.5" x2="71.2" y2="17.2"/>
	</g>
	<g id="POLYLINE_33379_">
		<line class="st6" x1="64.6" y1="17.1" x2="73.1" y2="17.2"/>
	</g>
	<g id="POLYLINE_33378_">
		<polygon class="st6" points="62.9,6.5 62.9,15 69,15 69,16 93.2,16 93.2,16.5 68.4,16.5 68.4,15.6 62.4,15.6 62.4,6.5 		"/>
	</g>
</g>
<g id="PLAN_x24_CLOISON_1.1">
</g>
<g id="PLAN_x24_STRUCTURE_2.3">
</g>
<g id="PLAN_x24_STRUCTURE_2.2">
</g>
<g id="PLAN_x24_STRUCTURE_2.1">
</g>
<g id="PLAN_x24_STRUCTURE_1.3">
</g>
<g id="PLAN_x24_STRUCTURE_1.2">
	<g id="POLYLINE_33288_">
		<polygon class="st7" points="97.1,27.7 96,27.7 96,27.9 93.2,27.9 93.2,33.1 96,33.1 96,33.4 97.1,33.4 		"/>
	</g>
	<g id="POLYLINE_33287_">
		<polygon class="st7" points="97.1,15.8 96,15.8 96,16 93.2,16 93.2,20.3 96,20.3 96,20.5 97.1,20.5 		"/>
	</g>
	<g id="POLYLINE_33286_">
		<line class="st7" x1="93.2" y1="16" x2="96" y2="16"/>
	</g>
	<g id="POLYLINE_33285_">
		<polygon class="st7" points="97.1,45.3 2.3,44.3 2.2,1.9 93.5,1.9 93.5,1.4 95.3,0.8 97.1,0.8 97.1,8.6 96,8.6 96,8.3 93.4,8.3 
			93.4,6.5 62.9,6.5 25.5,6.5 25.5,10.6 20.3,10.6 20.3,6.5 15,6.5 15,2.9 4.7,2.9 4.7,6.5 3.9,6.5 3.9,26.7 4.5,26.7 4.5,28.3 
			3.9,28.3 3.9,39.8 20.3,39.8 20.9,39.8 20.9,38.6 24.8,38.6 24.8,39.8 91.5,40.7 91.5,41.1 96,41.1 96,40.7 97.1,40.7 		"/>
	</g>
</g>
<g id="PLAN_x24_STRUCTURE_1.1">
</g>
</svg>
