<?xml version="1.0" encoding="utf-8"?>
<!-- Generator: Adobe Illustrator 22.0.1, SVG Export Plug-In . SVG Version: 6.00 Build 0)  -->
<svg version="1.1" id="Calque_1" xmlns="http://www.w3.org/2000/svg" xmlns:xlink="http://www.w3.org/1999/xlink" x="0px" y="0px"
	 viewBox="0 0 213.9 101.8" style="enable-background:new 0 0 213.9 101.8;" xml:space="preserve">
<style type="text/css">
	.st0{display:none;}
	.st1{display:inline;}
	.st2{fill:none;}
	.st3{fill:none;stroke:#000000;stroke-width:0.2;stroke-linecap:square;stroke-miterlimit:10;stroke-dasharray:1,1;}
	.st4{fill:none;stroke:#000000;stroke-width:0.1;stroke-linecap:square;stroke-miterlimit:10;}
	.st5{fill:none;stroke:#000000;stroke-width:0.16;stroke-linecap:square;stroke-miterlimit:10;}
	.st6{fill:none;stroke:#000000;stroke-width:0.36;stroke-linecap:square;stroke-miterlimit:10;}
	.st7{fill:none;stroke:#000000;stroke-width:0.9;stroke-linecap:square;stroke-miterlimit:10;}
</style>
<g id="Calque_1_1_">
</g>
<g id="INFOS_x24_A4" class="st0">
	<g id="POLYLINE_33284_" class="st1">
		<rect x="-190.1" y="-369.8" class="st2" width="595.3" height="841.9"/>
	</g>
</g>
<g id="PLAN_x24_FOND">
</g>
<g id="PLAN_x24_POINTILLE">
	<g id="POLYLINE_34572_">
		<line class="st3" x1="153.5" y1="38.5" x2="153.7" y2="83.5"/>
	</g>
</g>
<g id="PLAN_x24_VITRAGE">
	<g id="POLYLINE_33324_">
		<rect x="199.3" y="45.1" class="st4" width="0.6" height="14.2"/>
	</g>
	<g id="POLYLINE_33323_">
		<rect x="49.5" y="69.7" class="st4" width="0.6" height="11.6"/>
	</g>
	<g id="POLYLINE_33322_">
		<rect x="49.5" y="37.7" class="st4" width="0.6" height="22.8"/>
	</g>
</g>
<g id="PLAN_x24_MOBILIER">
	<g id="POLYLINE_33373_">
		<line class="st5" x1="58.1" y1="36.7" x2="58.3" y2="25.3"/>
	</g>
	<g id="POLYLINE_33372_">
		<polyline class="st5" points="58.3,25.3 71.1,25.3 78.9,22.7 105.9,22.7 		"/>
	</g>
	<g id="POLYLINE_33371_">
		<line class="st5" x1="183.9" y1="49.7" x2="183.9" y2="46.5"/>
	</g>
	<g id="POLYLINE_33370_">
		<polyline class="st5" points="183.9,46.5 183.9,41.5 171.1,41.5 171.1,46.5 		"/>
	</g>
	<g id="POLYLINE_33369_">
		<line class="st5" x1="171.1" y1="46.5" x2="171.3" y2="49.7"/>
	</g>
	<g id="POLYLINE_33368_">
		<line class="st5" x1="192.1" y1="42.5" x2="192.9" y2="43.7"/>
	</g>
	<g id="POLYLINE_33367_">
		<line class="st5" x1="192.1" y1="40.7" x2="192.9" y2="39.5"/>
	</g>
	<g id="POLYLINE_33366_">
		<line class="st5" x1="190.3" y1="42.1" x2="189.5" y2="42.5"/>
	</g>
	<g id="POLYLINE_33365_">
		<rect x="189.8" y="39.5" transform="matrix(0.4307 -0.9025 0.9025 0.4307 71.42 195.6348)" class="st5" width="2" height="3.4"/>
	</g>
	<g id="POLYLINE_33364_">
		<line class="st5" x1="125.7" y1="17.1" x2="125.7" y2="31.9"/>
	</g>
	<g id="POLYLINE_33363_">
		
			<rect x="68.9" y="42.9" transform="matrix(4.999875e-03 -1 1 4.999875e-03 30.7523 123.5709)" class="st5" width="17.2" height="6.8"/>
	</g>
	<g id="POLYLINE_33362_">
		
			<rect x="68.4" y="43.2" transform="matrix(4.999875e-03 -1 1 4.999875e-03 26.0251 116.9684)" class="st5" width="6.8" height="4.4"/>
	</g>
	<g id="POLYLINE_33361_">
		<line class="st5" x1="193.7" y1="44.7" x2="193.7" y2="59.9"/>
	</g>
	<g id="POLYLINE_33360_">
		<rect x="173.3" y="53.9" class="st5" width="9" height="9.2"/>
	</g>
	<g id="POLYLINE_33359_">
		<rect x="167.9" y="50.7" class="st5" width="19.2" height="15"/>
	</g>
	<g id="POLYLINE_33358_">
		
			<rect x="167.9" y="38.3" transform="matrix(1 -2.799978e-03 2.799978e-03 1 -0.1224 0.4969)" class="st5" width="19" height="11.4"/>
	</g>
	<g id="POLYLINE_33357_">
		
			<rect x="108.9" y="17.9" transform="matrix(0.9999 -1.140080e-02 1.140080e-02 0.9999 -0.2101 1.269)" class="st5" width="4.6" height="2.4"/>
	</g>
	<g id="POLYLINE_33356_">
		
			<rect x="108.3" y="17.1" transform="matrix(0.9999 -1.140080e-02 1.140080e-02 0.9999 -0.2089 1.269)" class="st5" width="5.8" height="3.8"/>
	</g>
	<g id="CIRCLE_1494_">
		<path class="st5" d="M110.7,18.9c0-0.2,0.2-0.4,0.4-0.4s0.4,0.2,0.4,0.4c0,0.2-0.2,0.4-0.4,0.4C110.9,19.3,110.7,19.1,110.7,18.9
			L110.7,18.9z"/>
	</g>
	<g id="SPLINE_1220_">
		<path class="st5" d="M117.3,20.1c-0.2,0.4-0.2,1-0.2,1.4s0,0.8,0,1c0,0.4,0,1,0.2,1.4c0,0.2,0.2,0.4,0.4,0.6
			c0.4,0.2,0.8,0.4,1.2,0.4c0.2,0,0.4,0,0.6,0c0.4,0,0.6-0.2,0.8-0.4c0.4-0.4,0.6-0.8,0.6-1.4s0.2-1,0-1.6c0-0.4,0-0.8-0.2-1
			c0-0.2,0-0.4-0.2-0.6"/>
	</g>
	<g id="POLYLINE_33355_">
		<rect x="116.3" y="17.1" class="st5" width="6" height="3"/>
	</g>
	<g id="ARC_3038_">
		<path class="st5" d="M72.9,35.3c1.2,0,2-0.8,2-2s-0.8-2-2-2"/>
	</g>
	<g id="ARC_3037_">
		<path class="st5" d="M63.7,32.1c-1.2,0-2,0.8-2,2s0.8,2,2,2"/>
	</g>
	<g id="POLYLINE_33354_">
		
			<rect x="64.9" y="28.7" transform="matrix(4.999875e-03 -1 1 4.999875e-03 34.5992 101.4667)" class="st5" width="6.8" height="9.2"/>
	</g>
	<g id="CIRCLE_1493_">
		<path class="st5" d="M54.9,31.3c0-0.2,0.2-0.4,0.4-0.4s0.4,0.2,0.4,0.4s-0.2,0.4-0.4,0.4S54.9,31.5,54.9,31.3L54.9,31.3z"/>
	</g>
	<g id="POLYLINE_33353_">
		
			<rect x="53.5" y="28.1" transform="matrix(0.9999 -1.140080e-02 1.140080e-02 0.9999 -0.3494 0.6336)" class="st5" width="3.8" height="5.8"/>
	</g>
	<g id="POLYLINE_33352_">
		<line class="st5" x1="78.9" y1="22.7" x2="78.9" y2="17.1"/>
	</g>
	<g id="POLYLINE_33351_">
		<rect x="53.9" y="73.3" class="st5" width="6" height="5.8"/>
	</g>
	<g id="POLYLINE_33350_">
		<rect x="63.7" y="74.3" class="st5" width="2.2" height="4"/>
	</g>
	<g id="POLYLINE_33348_">
		<rect x="60.9" y="73.7" class="st5" width="2.8" height="6.2"/>
	</g>
	<g id="POLYLINE_33347_">
		
			<rect x="52.1" y="72.7" transform="matrix(0.9996 -2.730150e-02 2.730150e-02 0.9996 -2.0746 1.5712)" class="st5" width="8.8" height="8.2"/>
	</g>
	<g id="POLYLINE_33346_">
		
			<rect x="75.2" y="70.1" transform="matrix(1.310038e-02 -0.9999 0.9999 1.310038e-02 2.9589 149.9143)" class="st5" width="4.4" height="6.8"/>
	</g>
	<g id="POLYLINE_33345_">
		
			<rect x="73" y="70.4" transform="matrix(1.310038e-02 -0.9999 0.9999 1.310038e-02 -3.5993 154.435)" class="st5" width="6.8" height="17.2"/>
	</g>
	<g id="POLYLINE_33344_">
		
			<rect x="90.2" y="70.6" transform="matrix(1.310038e-02 -0.9999 0.9999 1.310038e-02 13.1276 171.7456)" class="st5" width="6.8" height="17.2"/>
	</g>
	<g id="POLYLINE_33343_">
		
			<rect x="92.4" y="70.2" transform="matrix(1.310038e-02 -0.9999 0.9999 1.310038e-02 19.6875 167.2246)" class="st5" width="4.4" height="6.8"/>
	</g>
	<g id="POLYLINE_33342_">
		
			<rect x="107.3" y="70.8" transform="matrix(1.310038e-02 -0.9999 0.9999 1.310038e-02 29.854 189.0559)" class="st5" width="6.8" height="17.2"/>
	</g>
	<g id="POLYLINE_33341_">
		
			<rect x="109.7" y="70.6" transform="matrix(1.310038e-02 -0.9999 0.9999 1.310038e-02 36.409 184.9329)" class="st5" width="4.4" height="6.8"/>
	</g>
	<g id="POLYLINE_33340_">
		
			<rect x="124.6" y="71.2" transform="matrix(1.310038e-02 -0.9999 0.9999 1.310038e-02 46.5772 206.7637)" class="st5" width="6.8" height="17.2"/>
	</g>
	<g id="POLYLINE_33339_">
		
			<rect x="126.8" y="70.8" transform="matrix(1.310038e-02 -0.9999 0.9999 1.310038e-02 53.1381 202.2441)" class="st5" width="4.4" height="6.8"/>
	</g>
	<g id="POLYLINE_33338_">
		
			<rect x="141.8" y="71.4" transform="matrix(1.310038e-02 -0.9999 0.9999 1.310038e-02 63.3038 224.0742)" class="st5" width="6.8" height="17.2"/>
	</g>
	<g id="POLYLINE_33321_">
		
			<rect x="144" y="71" transform="matrix(1.310038e-02 -0.9999 0.9999 1.310038e-02 69.8666 219.5543)" class="st5" width="4.4" height="6.8"/>
	</g>
	<g id="POLYLINE_33320_">
		
			<rect x="115.7" y="43.4" transform="matrix(4.999875e-03 -1 1 4.999875e-03 76.913 170.801)" class="st5" width="17.2" height="6.8"/>
	</g>
	<g id="POLYLINE_33319_">
		
			<rect x="136.8" y="43.3" transform="matrix(4.999875e-03 -1 1 4.999875e-03 97.9854 191.8902)" class="st5" width="17.2" height="6.8"/>
	</g>
	<g id="POLYLINE_33318_">
		
			<rect x="136.3" y="43.6" transform="matrix(4.999875e-03 -1 1 4.999875e-03 93.246 185.2818)" class="st5" width="6.8" height="4.4"/>
	</g>
	<g id="POLYLINE_33317_">
		
			<rect x="109.1" y="43.2" transform="matrix(4.999875e-03 -1 1 4.999875e-03 70.5539 164.048)" class="st5" width="17.2" height="6.8"/>
	</g>
	<g id="POLYLINE_33316_">
		
			<rect x="108.6" y="43.4" transform="matrix(4.999875e-03 -1 1 4.999875e-03 65.8221 157.4401)" class="st5" width="6.8" height="4.4"/>
	</g>
	<g id="POLYLINE_33315_">
		
			<rect x="92.2" y="43.1" transform="matrix(4.999875e-03 -1 1 4.999875e-03 53.8043 147.048)" class="st5" width="17.2" height="6.8"/>
	</g>
	<g id="POLYLINE_33314_">
		
			<rect x="91.7" y="43.4" transform="matrix(4.999875e-03 -1 1 4.999875e-03 49.0765 140.4469)" class="st5" width="6.8" height="4.4"/>
	</g>
	<g id="POLYLINE_33313_">
		
			<rect x="52.9" y="43.1" transform="matrix(4.999875e-03 -1 1 4.999875e-03 10.6547 101.3865)" class="st5" width="6.8" height="4.4"/>
	</g>
	<g id="POLYLINE_33312_">
		
			<rect x="53.4" y="42.9" transform="matrix(4.999875e-03 -1 1 4.999875e-03 15.3827 107.9886)" class="st5" width="17.2" height="6.8"/>
	</g>
	<g id="POLYLINE_33311_">
		<rect x="21.9" y="37.1" class="st5" width="3.6" height="4.8"/>
	</g>
	<g id="POLYLINE_33310_">
		<rect x="21.9" y="46.3" class="st5" width="3.6" height="4.8"/>
	</g>
	<g id="POLYLINE_33309_">
		<rect x="21.9" y="55.1" class="st5" width="3.6" height="4.8"/>
	</g>
	<g id="POLYLINE_33308_">
		<rect x="36.7" y="55.1" class="st5" width="3.6" height="4.8"/>
	</g>
	<g id="POLYLINE_33307_">
		<rect x="36.7" y="46.3" class="st5" width="3.6" height="4.8"/>
	</g>
	<g id="POLYLINE_33306_">
		<rect x="36.7" y="37.1" class="st5" width="3.6" height="4.8"/>
	</g>
	<g id="POLYLINE_33305_">
		<rect x="28.7" y="62.5" class="st5" width="4.8" height="3.6"/>
	</g>
	<g id="POLYLINE_33304_">
		<rect x="28.7" y="31.3" class="st5" width="4.8" height="3.6"/>
	</g>
	<g id="POLYLINE_33303_">
		<rect x="25.7" y="34.9" class="st5" width="11.2" height="27.6"/>
	</g>
	<g id="POLYLINE_33302_">
		<polyline class="st5" points="43.7,83.7 43.7,80.1 20.9,80.1 20.9,83.7 		"/>
	</g>
</g>
<g id="PLAN_x24_DETAIL">
	<g id="POLYLINE_33337_">
		<line class="st5" x1="199.3" y1="21.3" x2="192.1" y2="21.3"/>
	</g>
	<g id="ARC_3025_">
		<path class="st5" d="M192.1,21.3c0,4,3.2,7.2,7.2,7.2"/>
	</g>
	<g id="ARC_3024_">
		<path class="st5" d="M199.3,28.5c-4,0-7.2,3.2-7.2,7.2"/>
	</g>
	<g id="POLYLINE_33336_">
		<line class="st5" x1="192.1" y1="35.7" x2="199.3" y2="35.7"/>
	</g>
	<g id="POLYLINE_33335_">
		<line class="st5" x1="40.5" y1="69.7" x2="49.5" y2="69.7"/>
	</g>
	<g id="POLYLINE_33334_">
		<line class="st5" x1="49.5" y1="69.7" x2="58.7" y2="69.7"/>
	</g>
	<g id="ARC_3023_">
		<path class="st5" d="M58.7,69.7c0-5-4-9-9-9"/>
	</g>
	<g id="ARC_3022_">
		<path class="st5" d="M49.5,60.5c-5,0-9,4-9,9"/>
	</g>
	<g id="POLYLINE_33333_">
		<line class="st5" x1="199.3" y1="70.9" x2="191.9" y2="70.9"/>
	</g>
	<g id="ARC_3021_">
		<path class="st5" d="M191.9,70.9c0,4,3.2,7.4,7.4,7.4"/>
	</g>
	<g id="ARC_3020_">
		<path class="st5" d="M199.3,78.1c-4,0-7.4,3.2-7.4,7.4"/>
	</g>
	<g id="POLYLINE_33332_">
		<line class="st5" x1="191.9" y1="85.5" x2="199.3" y2="85.5"/>
	</g>
	<g id="POLYLINE_33331_">
		<line class="st5" x1="28.1" y1="21.9" x2="37.3" y2="17.1"/>
	</g>
	<g id="POLYLINE_33330_">
		<line class="st5" x1="37.3" y1="17.1" x2="16.7" y2="17.1"/>
	</g>
	<g id="POLYLINE_33329_">
		<line class="st5" x1="16.7" y1="17.1" x2="25.9" y2="21.9"/>
	</g>
	<g id="ARC_3019_">
		<path class="st5" d="M25.9,21.9c0.8-1.4,1.2-3,1.2-4.6"/>
	</g>
	<g id="ARC_3018_">
		<path class="st5" d="M26.9,17.1c0,1.6,0.4,3.2,1.2,4.6"/>
	</g>
	<g id="POLYLINE_33328_">
		<line class="st5" x1="201.5" y1="59.5" x2="201.5" y2="45.1"/>
	</g>
	<g id="POLYLINE_33327_">
		<line class="st5" x1="105.9" y1="33.1" x2="102.1" y2="33.1"/>
	</g>
	<g id="ARC_3017_">
		<path class="st5" d="M102.1,33.1c0,2.2,1.8,3.8,3.8,3.8"/>
	</g>
	<g id="POLYLINE_33326_">
		<line class="st5" x1="81.3" y1="36.7" x2="81.3" y2="27.7"/>
	</g>
	<g id="ARC_3016_">
		<path class="st5" d="M90.3,36.7c0-5-4-9-9-9"/>
	</g>
	<g id="POLYLINE_33325_">
		<line class="st5" x1="107.1" y1="31.3" x2="113.7" y2="31.3"/>
	</g>
	<g id="ARC_3015_">
		<path class="st5" d="M113.7,31.3c0-3.6-3-6.6-6.6-6.6"/>
	</g>
</g>
<g id="PLAN_x24_CLOISON_TRANSLUCIDE">
</g>
<g id="PLAN_x24_CLOISON_1.3">
</g>
<g id="PLAN_x24_CLOISON_1.2">
	<g id="POLYLINE_34535_">
		<polyline class="st6" points="105.9,24.5 105.9,17.1 107.1,17.1 107.1,24.5 		"/>
	</g>
	<g id="POLYLINE_34534_">
		<line class="st6" x1="107.1" y1="24.5" x2="105.9" y2="24.5"/>
	</g>
	<g id="POLYLINE_34533_">
		<polyline class="st6" points="107.1,31.3 107.1,31.9 132.1,31.9 132.1,33.1 105.9,33.1 105.9,31.3 		"/>
	</g>
	<g id="POLYLINE_34477_">
		<line class="st6" x1="105.9" y1="31.3" x2="107.1" y2="31.3"/>
	</g>
	<g id="POLYLINE_34476_">
		<line class="st6" x1="90.3" y1="36.7" x2="90.3" y2="37.9"/>
	</g>
	<g id="POLYLINE_34475_">
		<polyline class="st6" points="90.3,37.9 136.5,38.3 136.5,37.1 90.3,36.9 		"/>
	</g>
	<g id="POLYLINE_34474_">
		<polyline class="st6" points="81.3,36.7 50.7,36.7 50.7,25.3 49.5,25.3 49.5,37.7 81.3,37.9 		"/>
	</g>
	<g id="POLYLINE_34473_">
		<line class="st6" x1="81.3" y1="37.9" x2="81.3" y2="36.7"/>
	</g>
	<g id="POLYLINE_34472_">
		<line class="st6" x1="149.3" y1="83.5" x2="149.3" y2="84.9"/>
	</g>
	<g id="POLYLINE_34471_">
		<line class="st6" x1="135.7" y1="83.3" x2="135.7" y2="84.7"/>
	</g>
	<g id="POLYLINE_34470_">
		<line class="st6" x1="125.5" y1="83.1" x2="125.5" y2="84.7"/>
	</g>
	<g id="POLYLINE_34469_">
		<line class="st6" x1="115.3" y1="83.1" x2="115.3" y2="84.5"/>
	</g>
	<g id="POLYLINE_34468_">
		<line class="st6" x1="103.9" y1="82.9" x2="103.9" y2="84.3"/>
	</g>
	<g id="POLYLINE_34467_">
		<line class="st6" x1="92.9" y1="82.7" x2="92.9" y2="84.3"/>
	</g>
	<g id="POLYLINE_34466_">
		<line class="st6" x1="81.5" y1="82.5" x2="81.5" y2="84.1"/>
	</g>
	<g id="POLYLINE_34465_">
		<line class="st6" x1="69.9" y1="82.5" x2="69.9" y2="83.9"/>
	</g>
	<g id="POLYLINE_34464_">
		<line class="st6" x1="59.9" y1="82.3" x2="59.7" y2="83.7"/>
	</g>
	<g id="POLYLINE_34463_">
		<line class="st6" x1="153.7" y1="83.5" x2="58.1" y2="82.3"/>
	</g>
	<g id="POLYLINE_33392_">
		<line class="st6" x1="16.3" y1="61.5" x2="15.1" y2="61.5"/>
	</g>
	<g id="POLYLINE_33391_">
		<line class="st6" x1="16.3" y1="70.7" x2="15.1" y2="70.7"/>
	</g>
	<g id="POLYLINE_33390_">
		<line class="st6" x1="16.3" y1="79.3" x2="15.1" y2="79.3"/>
	</g>
	<g id="POLYLINE_33389_">
		<line class="st6" x1="16.3" y1="60.7" x2="16.3" y2="80.9"/>
	</g>
	<g id="POLYLINE_33388_">
		<line class="st6" x1="16.3" y1="49.7" x2="15.1" y2="49.7"/>
	</g>
	<g id="POLYLINE_33387_">
		<line class="st6" x1="16.3" y1="40.5" x2="15.1" y2="40.5"/>
	</g>
	<g id="POLYLINE_33386_">
		<line class="st6" x1="16.3" y1="31.5" x2="15.1" y2="31.5"/>
	</g>
	<g id="POLYLINE_33385_">
		<line class="st6" x1="16.3" y1="21.9" x2="15.1" y2="21.9"/>
	</g>
	<g id="POLYLINE_33384_">
		<line class="st6" x1="16.3" y1="57.5" x2="16.3" y2="20.7"/>
	</g>
	<g id="POLYLINE_33383_">
		<line class="st6" x1="132.1" y1="35.3" x2="132.1" y2="37.1"/>
	</g>
	<g id="POLYLINE_33382_">
		<line class="st6" x1="136.5" y1="37.1" x2="136.5" y2="35.3"/>
	</g>
	<g id="POLYLINE_33381_">
		<line class="st6" x1="144.1" y1="37.1" x2="144.1" y2="38.3"/>
	</g>
	<g id="POLYLINE_33380_">
		<line class="st6" x1="149.7" y1="37.1" x2="149.7" y2="38.5"/>
	</g>
	<g id="POLYLINE_33379_">
		<line class="st6" x1="136.5" y1="38.3" x2="153.5" y2="38.5"/>
	</g>
	<g id="POLYLINE_33378_">
		<polygon class="st6" points="133.1,17.1 133.1,34.1 145.3,34.1 145.3,36.1 193.7,36.1 193.7,37.1 144.1,37.1 144.1,35.3 
			132.1,35.3 132.1,17.1 		"/>
	</g>
</g>
<g id="PLAN_x24_CLOISON_1.1">
</g>
<g id="PLAN_x24_STRUCTURE_2.3">
</g>
<g id="PLAN_x24_STRUCTURE_2.2">
</g>
<g id="PLAN_x24_STRUCTURE_2.1">
</g>
<g id="PLAN_x24_STRUCTURE_1.3">
</g>
<g id="PLAN_x24_STRUCTURE_1.2">
	<g id="POLYLINE_33288_">
		<polygon class="st7" points="201.5,59.5 199.3,59.5 199.3,59.9 193.7,59.9 193.7,70.3 199.3,70.3 199.3,70.9 201.5,70.9 		"/>
	</g>
	<g id="POLYLINE_33287_">
		<polygon class="st7" points="201.5,35.7 199.3,35.7 199.3,36.1 193.7,36.1 193.7,44.7 199.3,44.7 199.3,45.1 201.5,45.1 		"/>
	</g>
	<g id="POLYLINE_33286_">
		<line class="st7" x1="193.7" y1="36.1" x2="199.3" y2="36.1"/>
	</g>
	<g id="POLYLINE_33285_">
		<polygon class="st7" points="201.5,94.7 11.9,92.7 11.7,7.9 194.3,7.9 194.3,6.9 197.9,5.7 201.5,5.7 201.5,21.3 199.3,21.3 
			199.3,20.7 194.1,20.7 194.1,17.1 133.1,17.1 58.3,17.1 58.3,25.3 47.9,25.3 47.9,17.1 37.3,17.1 37.3,9.9 16.7,9.9 16.7,17.1 
			15.1,17.1 15.1,57.5 16.3,57.5 16.3,60.7 15.1,60.7 15.1,83.7 47.9,83.7 49.1,83.7 49.1,81.3 56.9,81.3 56.9,83.7 190.3,85.5 
			190.3,86.3 199.3,86.3 199.3,85.5 201.5,85.5 		"/>
	</g>
</g>
<g id="PLAN_x24_STRUCTURE_1.1">
</g>
</svg>
