<?xml version="1.0" encoding="utf-8"?>
<!-- Generator: Adobe Illustrator 17.0.0, SVG Export Plug-In . SVG Version: 6.00 Build 0)  -->
<!DOCTYPE svg PUBLIC "-//W3C//DTD SVG 1.1//EN" "http://www.w3.org/Graphics/SVG/1.1/DTD/svg11.dtd">
<svg version="1.1" xmlns="http://www.w3.org/2000/svg" xmlns:xlink="http://www.w3.org/1999/xlink" x="0px" y="0px"
	 width="595.276px" height="841.89px" viewBox="0 0 595.276 841.89" enable-background="new 0 0 595.276 841.89"
	 xml:space="preserve">
<g id="Calque_1">
</g>
<g id="INFOS_x24_A4" display="none">
	<g id="POLYLINE_33284_" display="inline">
		<rect x="0" y="-0.797" fill="none" width="595.276" height="841.89"/>
	</g>
</g>
<g id="PLAN_x24_FOND">
</g>
<g id="PLAN_x24_POINTILLE">
	<g id="POLYLINE_34572_">
		
			<line fill="none" stroke="#000000" stroke-width="0.1" stroke-linecap="square" stroke-miterlimit="10" stroke-dasharray="0.5,0.5" x1="320.267" y1="413.357" x2="320.278" y2="435.816"/>
	</g>
</g>
<g id="PLAN_x24_VITRAGE">
	<g id="POLYLINE_33324_">
		
			<rect x="339.673" y="420.106" transform="matrix(-9.110410e-04 -1 1 -9.110410e-04 -76.6955 763.8699)" fill="none" stroke="#000000" stroke-width="0.05" stroke-linecap="square" stroke-miterlimit="10" width="7.134" height="0.283"/>
	</g>
	<g id="POLYLINE_33323_">
		
			<rect x="268.257" y="428.899" fill="none" stroke="#000000" stroke-width="0.05" stroke-linecap="square" stroke-miterlimit="10" width="0.283" height="5.799"/>
	</g>
	<g id="POLYLINE_33322_">
		
			<rect x="268.257" y="412.974" fill="none" stroke="#000000" stroke-width="0.05" stroke-linecap="square" stroke-miterlimit="10" width="0.283" height="11.39"/>
	</g>
</g>
<g id="PLAN_x24_MOBILIER">
	<g id="POLYLINE_33373_">
		
			<line fill="none" stroke="#000000" stroke-width="0.08" stroke-linecap="square" stroke-miterlimit="10" x1="272.574" y1="412.428" x2="272.603" y2="406.765"/>
	</g>
	<g id="POLYLINE_33372_">
		<polyline fill="none" stroke="#000000" stroke-width="0.08" stroke-linecap="square" stroke-miterlimit="10" points="
			272.603,406.765 279.048,406.765 282.906,405.464 296.418,405.464 		"/>
	</g>
	<g id="POLYLINE_33371_">
		
			<line fill="none" stroke="#000000" stroke-width="0.08" stroke-linecap="square" stroke-miterlimit="10" x1="335.415" y1="418.959" x2="335.411" y2="417.363"/>
	</g>
	<g id="POLYLINE_33370_">
		<polyline fill="none" stroke="#000000" stroke-width="0.08" stroke-linecap="square" stroke-miterlimit="10" points="
			335.411,417.363 335.404,414.836 329.065,414.854 329.072,417.38 		"/>
	</g>
	<g id="POLYLINE_33369_">
		
			<line fill="none" stroke="#000000" stroke-width="0.08" stroke-linecap="square" stroke-miterlimit="10" x1="329.072" y1="417.38" x2="329.076" y2="418.977"/>
	</g>
	<g id="POLYLINE_33368_">
		
			<line fill="none" stroke="#000000" stroke-width="0.08" stroke-linecap="square" stroke-miterlimit="10" x1="339.525" y1="415.296" x2="339.889" y2="415.894"/>
	</g>
	<g id="POLYLINE_33367_">
		
			<line fill="none" stroke="#000000" stroke-width="0.08" stroke-linecap="square" stroke-miterlimit="10" x1="339.53" y1="414.43" x2="339.973" y2="413.853"/>
	</g>
	<g id="POLYLINE_33366_">
		
			<line fill="none" stroke="#000000" stroke-width="0.08" stroke-linecap="square" stroke-miterlimit="10" x1="338.638" y1="415.163" x2="338.2" y2="415.359"/>
	</g>
	<g id="POLYLINE_33365_">
		
			<rect x="338.341" y="413.833" transform="matrix(0.4307 -0.9025 0.9025 0.4307 -181.3458 541.889)" fill="none" stroke="#000000" stroke-width="0.08" stroke-linecap="square" stroke-miterlimit="10" width="1.046" height="1.717"/>
	</g>
	<g id="POLYLINE_33364_">
		
			<line fill="none" stroke="#000000" stroke-width="0.08" stroke-linecap="square" stroke-miterlimit="10" x1="306.29" y1="402.688" x2="306.29" y2="410.059"/>
	</g>
	<g id="POLYLINE_33363_">
		
			<rect x="280.488" y="413.043" transform="matrix(-1 -0.005 0.005 -1 562.269 836.0584)" fill="none" stroke="#000000" stroke-width="0.08" stroke-linecap="square" stroke-miterlimit="10" width="3.366" height="8.579"/>
	</g>
	<g id="POLYLINE_33362_">
		
			<rect x="277.716" y="415.779" transform="matrix(-0.005 1 -1 -0.005 697.6489 139.5389)" fill="none" stroke="#000000" stroke-width="0.08" stroke-linecap="square" stroke-miterlimit="10" width="3.367" height="2.18"/>
	</g>
	<g id="POLYLINE_33361_">
		
			<line fill="none" stroke="#000000" stroke-width="0.08" stroke-linecap="square" stroke-miterlimit="10" x1="340.31" y1="416.442" x2="340.317" y2="424.031"/>
	</g>
	<g id="POLYLINE_33360_">
		
			<rect x="330.099" y="421.055" fill="none" stroke="#000000" stroke-width="0.08" stroke-linecap="square" stroke-miterlimit="10" width="4.528" height="4.581"/>
	</g>
	<g id="POLYLINE_33359_">
		
			<rect x="327.425" y="419.466" fill="none" stroke="#000000" stroke-width="0.08" stroke-linecap="square" stroke-miterlimit="10" width="9.559" height="7.493"/>
	</g>
	<g id="POLYLINE_33358_">
		
			<rect x="327.471" y="413.248" transform="matrix(-1 0.0028 -0.0028 -1 665.6297 831.2918)" fill="none" stroke="#000000" stroke-width="0.08" stroke-linecap="square" stroke-miterlimit="10" width="9.532" height="5.72"/>
	</g>
	<g id="POLYLINE_33357_">
		
			<rect x="298.491" y="402.483" transform="matrix(-0.0114 -0.9999 0.9999 -0.0114 -101.0962 707.2766)" fill="none" stroke="#000000" stroke-width="0.08" stroke-linecap="square" stroke-miterlimit="10" width="1.207" height="2.264"/>
	</g>
	<g id="POLYLINE_33356_">
		
			<rect x="298.151" y="402.143" transform="matrix(-0.0114 -0.9999 0.9999 -0.0114 -101.0962 707.2766)" fill="none" stroke="#000000" stroke-width="0.08" stroke-linecap="square" stroke-miterlimit="10" width="1.887" height="2.944"/>
	</g>
	<g id="CIRCLE_1494_">
		<path fill="none" stroke="#000000" stroke-width="0.08" stroke-linecap="square" stroke-miterlimit="10" d="M298.839,403.556
			c0-0.099,0.08-0.179,0.179-0.179c0.099,0,0.179,0.08,0.179,0.179c0,0.099-0.08,0.179-0.179,0.179
			C298.919,403.736,298.839,403.655,298.839,403.556L298.839,403.556z"/>
	</g>
	<g id="SPLINE_1220_">
		<path fill="none" stroke="#000000" stroke-width="0.08" stroke-linecap="square" stroke-miterlimit="10" d="M302.17,404.161
			c-0.059,0.23-0.098,0.466-0.112,0.703c-0.01,0.18-0.006,0.36,0.006,0.54c0.016,0.23,0.044,0.46,0.13,0.679
			c0.048,0.124,0.115,0.245,0.212,0.33c0.151,0.132,0.375,0.175,0.584,0.187c0.112,0.007,0.219,0.005,0.329-0.013
			c0.156-0.025,0.317-0.082,0.433-0.182c0.177-0.153,0.251-0.409,0.295-0.654c0.049-0.272,0.061-0.531,0.049-0.795
			c-0.008-0.175-0.027-0.352-0.058-0.527c-0.016-0.091-0.036-0.18-0.058-0.269"/>
	</g>
	<g id="POLYLINE_33355_">
		
			<rect x="301.588" y="402.688" fill="none" stroke="#000000" stroke-width="0.08" stroke-linecap="square" stroke-miterlimit="10" width="2.971" height="1.473"/>
	</g>
	<g id="ARC_3038_">
		<path fill="none" stroke="#000000" stroke-width="0.08" stroke-linecap="square" stroke-miterlimit="10" d="M279.955,411.719
			c0.556,0.003,1.009-0.446,1.012-1.002c0.003-0.556-0.446-1.009-1.002-1.012"/>
	</g>
	<g id="ARC_3037_">
		<path fill="none" stroke="#000000" stroke-width="0.08" stroke-linecap="square" stroke-miterlimit="10" d="M275.356,410.128
			c-0.556-0.003-1.009,0.446-1.012,1.002c-0.003,0.556,0.446,1.009,1.002,1.012"/>
	</g>
	<g id="POLYLINE_33354_">
		
			<rect x="275.353" y="409.043" transform="matrix(1 0.005 -0.005 1 2.0399 -1.3716)" fill="none" stroke="#000000" stroke-width="0.08" stroke-linecap="square" stroke-miterlimit="10" width="4.607" height="3.41"/>
	</g>
	<g id="CIRCLE_1493_">
		<path fill="none" stroke="#000000" stroke-width="0.08" stroke-linecap="square" stroke-miterlimit="10" d="M270.972,409.69
			c0-0.099,0.08-0.179,0.179-0.179s0.179,0.08,0.179,0.179c0,0.099-0.08,0.179-0.179,0.179S270.972,409.789,270.972,409.69
			L270.972,409.69z"/>
	</g>
	<g id="POLYLINE_33353_">
		
			<rect x="270.267" y="408.142" transform="matrix(-0.9999 0.0114 -0.0114 -0.9999 547.0583 816.1193)" fill="none" stroke="#000000" stroke-width="0.08" stroke-linecap="square" stroke-miterlimit="10" width="1.887" height="2.944"/>
	</g>
	<g id="POLYLINE_33352_">
		
			<line fill="none" stroke="#000000" stroke-width="0.08" stroke-linecap="square" stroke-miterlimit="10" x1="282.906" y1="405.464" x2="282.906" y2="402.688"/>
	</g>
	<g id="POLYLINE_33351_">
		
			<rect x="270.404" y="430.709" fill="none" stroke="#000000" stroke-width="0.08" stroke-linecap="square" stroke-miterlimit="10" width="3.019" height="2.905"/>
	</g>
	<g id="POLYLINE_33350_">
		
			<rect x="275.343" y="431.268" fill="none" stroke="#000000" stroke-width="0.08" stroke-linecap="square" stroke-miterlimit="10" width="1.061" height="2.012"/>
	</g>
	<g id="POLYLINE_33348_">
		
			<rect x="273.97" y="430.905" fill="none" stroke="#000000" stroke-width="0.08" stroke-linecap="square" stroke-miterlimit="10" width="1.373" height="3.098"/>
	</g>
	<g id="POLYLINE_33347_">
		
			<rect x="269.57" y="430.399" transform="matrix(-0.9996 0.0273 -0.0273 -0.9996 555.2703 857.3407)" fill="none" stroke="#000000" stroke-width="0.08" stroke-linecap="square" stroke-miterlimit="10" width="4.441" height="4.113"/>
	</g>
	<g id="POLYLINE_33346_">
		
			<rect x="280.501" y="429.772" transform="matrix(-0.9999 -0.0131 0.0131 -0.9999 558.7167 865.373)" fill="none" stroke="#000000" stroke-width="0.08" stroke-linecap="square" stroke-miterlimit="10" width="3.367" height="2.18"/>
	</g>
	<g id="POLYLINE_33345_">
		
			<rect x="280.015" y="429.34" transform="matrix(0.0131 -0.9999 0.9999 0.0131 -155.5733 709.6396)" fill="none" stroke="#000000" stroke-width="0.08" stroke-linecap="square" stroke-miterlimit="10" width="3.366" height="8.579"/>
	</g>
	<g id="POLYLINE_33344_">
		
			<rect x="288.593" y="429.452" transform="matrix(0.0131 -0.9999 0.9999 0.0131 -147.2192 718.3276)" fill="none" stroke="#000000" stroke-width="0.08" stroke-linecap="square" stroke-miterlimit="10" width="3.366" height="8.579"/>
	</g>
	<g id="POLYLINE_33343_">
		
			<rect x="289.079" y="429.884" transform="matrix(-0.9999 -0.0131 0.0131 -0.9999 575.8708 865.7092)" fill="none" stroke="#000000" stroke-width="0.08" stroke-linecap="square" stroke-miterlimit="10" width="3.367" height="2.18"/>
	</g>
	<g id="POLYLINE_33342_">
		
			<rect x="297.171" y="429.564" transform="matrix(0.0131 -0.9999 0.9999 0.0131 -138.8651 727.0157)" fill="none" stroke="#000000" stroke-width="0.08" stroke-linecap="square" stroke-miterlimit="10" width="3.366" height="8.579"/>
	</g>
	<g id="POLYLINE_33341_">
		
			<rect x="297.657" y="429.996" transform="matrix(-0.9999 -0.0131 0.0131 -0.9999 593.025 866.0453)" fill="none" stroke="#000000" stroke-width="0.08" stroke-linecap="square" stroke-miterlimit="10" width="3.367" height="2.18"/>
	</g>
	<g id="POLYLINE_33340_">
		
			<rect x="305.75" y="429.676" transform="matrix(0.0131 -0.9999 0.9999 0.0131 -130.511 735.7037)" fill="none" stroke="#000000" stroke-width="0.08" stroke-linecap="square" stroke-miterlimit="10" width="3.366" height="8.579"/>
	</g>
	<g id="POLYLINE_33339_">
		
			<rect x="306.235" y="430.108" transform="matrix(-0.9999 -0.0131 0.0131 -0.9999 610.1793 866.3815)" fill="none" stroke="#000000" stroke-width="0.08" stroke-linecap="square" stroke-miterlimit="10" width="3.367" height="2.18"/>
	</g>
	<g id="POLYLINE_33338_">
		
			<rect x="314.328" y="429.788" transform="matrix(0.0131 -0.9999 0.9999 0.0131 -122.1569 744.3918)" fill="none" stroke="#000000" stroke-width="0.08" stroke-linecap="square" stroke-miterlimit="10" width="3.366" height="8.579"/>
	</g>
	<g id="POLYLINE_33321_">
		
			<rect x="314.813" y="430.22" transform="matrix(-0.9999 -0.0131 0.0131 -0.9999 627.3334 866.7177)" fill="none" stroke="#000000" stroke-width="0.08" stroke-linecap="square" stroke-miterlimit="10" width="3.367" height="2.18"/>
	</g>
	<g id="POLYLINE_33320_">
		
			<rect x="303.974" y="413.159" transform="matrix(1 0.005 -0.005 1 2.0735 -1.5103)" fill="none" stroke="#000000" stroke-width="0.08" stroke-linecap="square" stroke-miterlimit="10" width="3.366" height="8.579"/>
	</g>
	<g id="POLYLINE_33319_">
		
			<rect x="314.469" y="413.252" transform="matrix(-1 -0.005 0.005 -1 630.2296 836.6444)" fill="none" stroke="#000000" stroke-width="0.08" stroke-linecap="square" stroke-miterlimit="10" width="3.366" height="8.579"/>
	</g>
	<g id="POLYLINE_33318_">
		
			<rect x="311.698" y="415.988" transform="matrix(-0.005 1 -1 -0.005 732.0071 105.7681)" fill="none" stroke="#000000" stroke-width="0.08" stroke-linecap="square" stroke-miterlimit="10" width="3.367" height="2.18"/>
	</g>
	<g id="POLYLINE_33317_">
		
			<rect x="300.607" y="413.142" transform="matrix(-1 -0.005 0.005 -1 602.5074 836.3574)" fill="none" stroke="#000000" stroke-width="0.08" stroke-linecap="square" stroke-miterlimit="10" width="3.366" height="8.579"/>
	</g>
	<g id="POLYLINE_33316_">
		
			<rect x="297.836" y="415.879" transform="matrix(-0.005 1 -1 -0.005 717.9681 119.5199)" fill="none" stroke="#000000" stroke-width="0.08" stroke-linecap="square" stroke-miterlimit="10" width="3.367" height="2.18"/>
	</g>
	<g id="POLYLINE_33315_">
		
			<rect x="292.108" y="413.1" transform="matrix(-1 -0.005 0.005 -1 585.5083 836.2313)" fill="none" stroke="#000000" stroke-width="0.08" stroke-linecap="square" stroke-miterlimit="10" width="3.366" height="8.579"/>
	</g>
	<g id="POLYLINE_33314_">
		
			<rect x="289.336" y="415.836" transform="matrix(-0.005 1 -1 -0.005 709.384 127.9771)" fill="none" stroke="#000000" stroke-width="0.08" stroke-linecap="square" stroke-miterlimit="10" width="3.367" height="2.18"/>
	</g>
	<g id="POLYLINE_33313_">
		
			<rect x="269.92" y="415.74" transform="matrix(-0.005 1 -1 -0.005 689.7752 147.2965)" fill="none" stroke="#000000" stroke-width="0.08" stroke-linecap="square" stroke-miterlimit="10" width="3.367" height="2.18"/>
	</g>
	<g id="POLYLINE_33312_">
		
			<rect x="272.691" y="413.004" transform="matrix(-1 -0.005 0.005 -1 546.6764 835.9421)" fill="none" stroke="#000000" stroke-width="0.08" stroke-linecap="square" stroke-miterlimit="10" width="3.366" height="8.579"/>
	</g>
	<g id="POLYLINE_33311_">
		
			<rect x="254.412" y="412.607" fill="none" stroke="#000000" stroke-width="0.08" stroke-linecap="square" stroke-miterlimit="10" width="1.765" height="2.419"/>
	</g>
	<g id="POLYLINE_33310_">
		
			<rect x="254.412" y="417.216" fill="none" stroke="#000000" stroke-width="0.08" stroke-linecap="square" stroke-miterlimit="10" width="1.765" height="2.419"/>
	</g>
	<g id="POLYLINE_33309_">
		
			<rect x="254.412" y="421.629" fill="none" stroke="#000000" stroke-width="0.08" stroke-linecap="square" stroke-miterlimit="10" width="1.765" height="2.419"/>
	</g>
	<g id="POLYLINE_33308_">
		
			<rect x="261.865" y="421.629" fill="none" stroke="#000000" stroke-width="0.08" stroke-linecap="square" stroke-miterlimit="10" width="1.765" height="2.419"/>
	</g>
	<g id="POLYLINE_33307_">
		
			<rect x="261.865" y="417.216" fill="none" stroke="#000000" stroke-width="0.08" stroke-linecap="square" stroke-miterlimit="10" width="1.765" height="2.419"/>
	</g>
	<g id="POLYLINE_33306_">
		
			<rect x="261.865" y="412.607" fill="none" stroke="#000000" stroke-width="0.08" stroke-linecap="square" stroke-miterlimit="10" width="1.765" height="2.419"/>
	</g>
	<g id="POLYLINE_33305_">
		
			<rect x="257.812" y="425.323" fill="none" stroke="#000000" stroke-width="0.08" stroke-linecap="square" stroke-miterlimit="10" width="2.419" height="1.765"/>
	</g>
	<g id="POLYLINE_33304_">
		
			<rect x="257.812" y="409.73" fill="none" stroke="#000000" stroke-width="0.08" stroke-linecap="square" stroke-miterlimit="10" width="2.419" height="1.765"/>
	</g>
	<g id="POLYLINE_33303_">
		
			<rect x="256.276" y="411.495" fill="none" stroke="#000000" stroke-width="0.08" stroke-linecap="square" stroke-miterlimit="10" width="5.59" height="13.827"/>
	</g>
	<g id="POLYLINE_33302_">
		<polyline fill="none" stroke="#000000" stroke-width="0.08" stroke-linecap="square" stroke-miterlimit="10" points="
			265.33,435.93 265.33,434.116 253.955,434.116 253.955,435.93 		"/>
	</g>
</g>
<g id="PLAN_x24_DETAIL">
	<g id="POLYLINE_33337_">
		
			<line fill="none" stroke="#000000" stroke-width="0.08" stroke-linecap="square" stroke-miterlimit="10" x1="343.094" y1="404.701" x2="339.497" y2="404.701"/>
	</g>
	<g id="ARC_3025_">
		<path fill="none" stroke="#000000" stroke-width="0.08" stroke-linecap="square" stroke-miterlimit="10" d="M339.497,404.701
			c0,1.987,1.611,3.598,3.597,3.598"/>
	</g>
	<g id="ARC_3024_">
		<path fill="none" stroke="#000000" stroke-width="0.08" stroke-linecap="square" stroke-miterlimit="10" d="M343.094,408.298
			c-1.987,0-3.597,1.611-3.597,3.597"/>
	</g>
	<g id="POLYLINE_33336_">
		
			<line fill="none" stroke="#000000" stroke-width="0.08" stroke-linecap="square" stroke-miterlimit="10" x1="339.497" y1="411.896" x2="343.094" y2="411.896"/>
	</g>
	<g id="POLYLINE_33335_">
		
			<line fill="none" stroke="#000000" stroke-width="0.08" stroke-linecap="square" stroke-miterlimit="10" x1="263.722" y1="428.899" x2="268.257" y2="428.899"/>
	</g>
	<g id="POLYLINE_33334_">
		
			<line fill="none" stroke="#000000" stroke-width="0.08" stroke-linecap="square" stroke-miterlimit="10" x1="268.257" y1="428.899" x2="272.793" y2="428.899"/>
	</g>
	<g id="ARC_3023_">
		<path fill="none" stroke="#000000" stroke-width="0.08" stroke-linecap="square" stroke-miterlimit="10" d="M272.793,428.899
			c0-2.505-2.031-4.535-4.535-4.535"/>
	</g>
	<g id="ARC_3022_">
		<path fill="none" stroke="#000000" stroke-width="0.08" stroke-linecap="square" stroke-miterlimit="10" d="M268.257,424.364
			c-2.505,0-4.535,2.031-4.535,4.535"/>
	</g>
	<g id="POLYLINE_33333_">
		
			<line fill="none" stroke="#000000" stroke-width="0.08" stroke-linecap="square" stroke-miterlimit="10" x1="343.101" y1="429.501" x2="339.418" y2="429.501"/>
	</g>
	<g id="ARC_3021_">
		<path fill="none" stroke="#000000" stroke-width="0.08" stroke-linecap="square" stroke-miterlimit="10" d="M339.418,429.501
			c0,2.034,1.649,3.683,3.683,3.683"/>
	</g>
	<g id="ARC_3020_">
		<path fill="none" stroke="#000000" stroke-width="0.08" stroke-linecap="square" stroke-miterlimit="10" d="M343.101,433.184
			c-2.034,0-3.683,1.649-3.683,3.683"/>
	</g>
	<g id="POLYLINE_33332_">
		
			<line fill="none" stroke="#000000" stroke-width="0.08" stroke-linecap="square" stroke-miterlimit="10" x1="339.418" y1="436.867" x2="343.101" y2="436.867"/>
	</g>
	<g id="POLYLINE_33331_">
		
			<line fill="none" stroke="#000000" stroke-width="0.08" stroke-linecap="square" stroke-miterlimit="10" x1="257.508" y1="405.028" x2="262.084" y2="402.688"/>
	</g>
	<g id="POLYLINE_33330_">
		
			<line fill="none" stroke="#000000" stroke-width="0.08" stroke-linecap="square" stroke-miterlimit="10" x1="262.084" y1="402.688" x2="251.804" y2="402.688"/>
	</g>
	<g id="POLYLINE_33329_">
		
			<line fill="none" stroke="#000000" stroke-width="0.08" stroke-linecap="square" stroke-miterlimit="10" x1="251.804" y1="402.688" x2="256.381" y2="405.028"/>
	</g>
	<g id="ARC_3019_">
		<path fill="none" stroke="#000000" stroke-width="0.08" stroke-linecap="square" stroke-miterlimit="10" d="M256.381,405.028
			c0.37-0.724,0.564-1.526,0.564-2.34"/>
	</g>
	<g id="ARC_3018_">
		<path fill="none" stroke="#000000" stroke-width="0.08" stroke-linecap="square" stroke-miterlimit="10" d="M256.944,402.688
			c0,0.814,0.193,1.616,0.564,2.34"/>
	</g>
	<g id="POLYLINE_33328_">
		
			<line fill="none" stroke="#000000" stroke-width="0.08" stroke-linecap="square" stroke-miterlimit="10" x1="344.267" y1="423.815" x2="344.26" y2="416.681"/>
	</g>
	<g id="POLYLINE_33327_">
		
			<line fill="none" stroke="#000000" stroke-width="0.08" stroke-linecap="square" stroke-miterlimit="10" x1="296.418" y1="410.625" x2="294.497" y2="410.625"/>
	</g>
	<g id="ARC_3017_">
		<path fill="none" stroke="#000000" stroke-width="0.08" stroke-linecap="square" stroke-miterlimit="10" d="M294.497,410.625
			c0,1.061,0.86,1.921,1.921,1.921"/>
	</g>
	<g id="POLYLINE_33326_">
		
			<line fill="none" stroke="#000000" stroke-width="0.08" stroke-linecap="square" stroke-miterlimit="10" x1="284.111" y1="412.464" x2="284.111" y2="407.928"/>
	</g>
	<g id="ARC_3016_">
		<path fill="none" stroke="#000000" stroke-width="0.08" stroke-linecap="square" stroke-miterlimit="10" d="M288.646,412.464
			c0-2.505-2.031-4.535-4.535-4.535"/>
	</g>
	<g id="POLYLINE_33325_">
		
			<line fill="none" stroke="#000000" stroke-width="0.08" stroke-linecap="square" stroke-miterlimit="10" x1="296.985" y1="409.695" x2="300.307" y2="409.695"/>
	</g>
	<g id="ARC_3015_">
		<path fill="none" stroke="#000000" stroke-width="0.08" stroke-linecap="square" stroke-miterlimit="10" d="M300.307,409.695
			c0-1.835-1.487-3.322-3.322-3.322"/>
	</g>
</g>
<g id="PLAN_x24_CLOISON_TRANSLUCIDE">
</g>
<g id="PLAN_x24_CLOISON_1.3">
</g>
<g id="PLAN_x24_CLOISON_1.2">
	<g id="POLYLINE_34535_">
		<polyline fill="none" stroke="#000000" stroke-width="0.18" stroke-linecap="square" stroke-miterlimit="10" points="
			296.418,406.373 296.418,402.688 296.985,402.688 296.985,406.373 		"/>
	</g>
	<g id="POLYLINE_34534_">
		
			<line fill="none" stroke="#000000" stroke-width="0.18" stroke-linecap="square" stroke-miterlimit="10" x1="296.985" y1="406.373" x2="296.418" y2="406.373"/>
	</g>
	<g id="POLYLINE_34533_">
		<polyline fill="none" stroke="#000000" stroke-width="0.18" stroke-linecap="square" stroke-miterlimit="10" points="
			296.985,409.695 296.985,410.059 309.483,410.059 309.483,410.625 296.418,410.625 296.418,409.695 		"/>
	</g>
	<g id="POLYLINE_34477_">
		
			<line fill="none" stroke="#000000" stroke-width="0.18" stroke-linecap="square" stroke-miterlimit="10" x1="296.418" y1="409.695" x2="296.985" y2="409.695"/>
	</g>
	<g id="POLYLINE_34476_">
		
			<line fill="none" stroke="#000000" stroke-width="0.18" stroke-linecap="square" stroke-miterlimit="10" x1="288.646" y1="412.464" x2="288.643" y2="413.075"/>
	</g>
	<g id="POLYLINE_34475_">
		<polyline fill="none" stroke="#000000" stroke-width="0.18" stroke-linecap="square" stroke-miterlimit="10" points="
			288.643,413.075 311.759,413.189 311.762,412.622 288.646,412.508 		"/>
	</g>
	<g id="POLYLINE_34474_">
		<polyline fill="none" stroke="#000000" stroke-width="0.18" stroke-linecap="square" stroke-miterlimit="10" points="
			284.111,412.485 268.824,412.41 268.824,406.765 268.257,406.765 268.257,412.974 284.108,413.052 		"/>
	</g>
	<g id="POLYLINE_34473_">
		
			<line fill="none" stroke="#000000" stroke-width="0.18" stroke-linecap="square" stroke-miterlimit="10" x1="284.108" y1="413.052" x2="284.111" y2="412.464"/>
	</g>
	<g id="POLYLINE_34472_">
		
			<line fill="none" stroke="#000000" stroke-width="0.18" stroke-linecap="square" stroke-miterlimit="10" x1="318.095" y1="435.791" x2="318.085" y2="436.572"/>
	</g>
	<g id="POLYLINE_34471_">
		
			<line fill="none" stroke="#000000" stroke-width="0.18" stroke-linecap="square" stroke-miterlimit="10" x1="311.361" y1="435.712" x2="311.351" y2="436.484"/>
	</g>
	<g id="POLYLINE_34470_">
		
			<line fill="none" stroke="#000000" stroke-width="0.18" stroke-linecap="square" stroke-miterlimit="10" x1="306.257" y1="435.652" x2="306.247" y2="436.418"/>
	</g>
	<g id="POLYLINE_34469_">
		
			<line fill="none" stroke="#000000" stroke-width="0.18" stroke-linecap="square" stroke-miterlimit="10" x1="301.087" y1="435.591" x2="301.077" y2="436.35"/>
	</g>
	<g id="POLYLINE_34468_">
		
			<line fill="none" stroke="#000000" stroke-width="0.18" stroke-linecap="square" stroke-miterlimit="10" x1="295.446" y1="435.492" x2="295.436" y2="436.276"/>
	</g>
	<g id="POLYLINE_34467_">
		
			<line fill="none" stroke="#000000" stroke-width="0.18" stroke-linecap="square" stroke-miterlimit="10" x1="289.892" y1="435.46" x2="289.882" y2="436.204"/>
	</g>
	<g id="POLYLINE_34466_">
		
			<line fill="none" stroke="#000000" stroke-width="0.18" stroke-linecap="square" stroke-miterlimit="10" x1="284.229" y1="435.345" x2="284.219" y2="436.13"/>
	</g>
	<g id="POLYLINE_34465_">
		
			<line fill="none" stroke="#000000" stroke-width="0.18" stroke-linecap="square" stroke-miterlimit="10" x1="278.396" y1="435.325" x2="278.387" y2="436.054"/>
	</g>
	<g id="POLYLINE_34464_">
		
			<line fill="none" stroke="#000000" stroke-width="0.18" stroke-linecap="square" stroke-miterlimit="10" x1="273.377" y1="435.266" x2="273.368" y2="435.988"/>
	</g>
	<g id="POLYLINE_34463_">
		
			<line fill="none" stroke="#000000" stroke-width="0.18" stroke-linecap="square" stroke-miterlimit="10" x1="320.278" y1="435.816" x2="272.519" y2="435.256"/>
	</g>
	<g id="POLYLINE_33392_">
		
			<line fill="none" stroke="#000000" stroke-width="0.18" stroke-linecap="square" stroke-miterlimit="10" x1="251.641" y1="424.881" x2="251.02" y2="424.881"/>
	</g>
	<g id="POLYLINE_33391_">
		
			<line fill="none" stroke="#000000" stroke-width="0.18" stroke-linecap="square" stroke-miterlimit="10" x1="251.641" y1="429.473" x2="251.02" y2="429.473"/>
	</g>
	<g id="POLYLINE_33390_">
		
			<line fill="none" stroke="#000000" stroke-width="0.18" stroke-linecap="square" stroke-miterlimit="10" x1="251.641" y1="433.782" x2="251.02" y2="433.782"/>
	</g>
	<g id="POLYLINE_33389_">
		
			<line fill="none" stroke="#000000" stroke-width="0.18" stroke-linecap="square" stroke-miterlimit="10" x1="251.641" y1="424.456" x2="251.641" y2="434.49"/>
	</g>
	<g id="POLYLINE_33388_">
		
			<line fill="none" stroke="#000000" stroke-width="0.18" stroke-linecap="square" stroke-miterlimit="10" x1="251.641" y1="418.919" x2="251.02" y2="418.919"/>
	</g>
	<g id="POLYLINE_33387_">
		
			<line fill="none" stroke="#000000" stroke-width="0.18" stroke-linecap="square" stroke-miterlimit="10" x1="251.641" y1="414.351" x2="251.02" y2="414.351"/>
	</g>
	<g id="POLYLINE_33386_">
		
			<line fill="none" stroke="#000000" stroke-width="0.18" stroke-linecap="square" stroke-miterlimit="10" x1="251.641" y1="409.804" x2="251.02" y2="409.804"/>
	</g>
	<g id="POLYLINE_33385_">
		
			<line fill="none" stroke="#000000" stroke-width="0.18" stroke-linecap="square" stroke-miterlimit="10" x1="251.641" y1="405.086" x2="251.02" y2="405.086"/>
	</g>
	<g id="POLYLINE_33384_">
		
			<line fill="none" stroke="#000000" stroke-width="0.18" stroke-linecap="square" stroke-miterlimit="10" x1="251.641" y1="422.854" x2="251.641" y2="404.421"/>
	</g>
	<g id="POLYLINE_33383_">
		
			<line fill="none" stroke="#000000" stroke-width="0.18" stroke-linecap="square" stroke-miterlimit="10" x1="309.483" y1="411.698" x2="309.478" y2="412.611"/>
	</g>
	<g id="POLYLINE_33382_">
		
			<line fill="none" stroke="#000000" stroke-width="0.18" stroke-linecap="square" stroke-miterlimit="10" x1="311.762" y1="412.622" x2="311.762" y2="411.698"/>
	</g>
	<g id="POLYLINE_33381_">
		
			<line fill="none" stroke="#000000" stroke-width="0.18" stroke-linecap="square" stroke-miterlimit="10" x1="315.53" y1="412.679" x2="315.518" y2="413.264"/>
	</g>
	<g id="POLYLINE_33380_">
		
			<line fill="none" stroke="#000000" stroke-width="0.18" stroke-linecap="square" stroke-miterlimit="10" x1="318.306" y1="412.679" x2="318.293" y2="413.318"/>
	</g>
	<g id="POLYLINE_33379_">
		
			<line fill="none" stroke="#000000" stroke-width="0.18" stroke-linecap="square" stroke-miterlimit="10" x1="311.759" y1="413.189" x2="320.267" y2="413.357"/>
	</g>
	<g id="POLYLINE_33378_">
		<polygon fill="none" stroke="#000000" stroke-width="0.18" stroke-linecap="square" stroke-miterlimit="10" points="
			310.049,402.688 310.049,411.131 316.097,411.131 316.097,412.112 340.31,412.112 340.31,412.679 315.53,412.679 315.53,411.698 
			309.483,411.698 309.483,402.688 		"/>
	</g>
</g>
<g id="PLAN_x24_CLOISON_1.1">
</g>
<g id="PLAN_x24_STRUCTURE_2.3">
</g>
<g id="PLAN_x24_STRUCTURE_2.2">
</g>
<g id="PLAN_x24_STRUCTURE_2.1">
</g>
<g id="PLAN_x24_STRUCTURE_1.3">
</g>
<g id="PLAN_x24_STRUCTURE_1.2">
	<g id="POLYLINE_33288_">
		<polygon fill="none" stroke="#000000" stroke-width="0.45" stroke-linecap="square" stroke-miterlimit="10" points="
			344.267,423.815 343.101,423.815 343.101,424.031 340.317,424.031 340.317,429.262 343.101,429.262 343.101,429.501 
			344.267,429.501 		"/>
	</g>
	<g id="POLYLINE_33287_">
		<polygon fill="none" stroke="#000000" stroke-width="0.45" stroke-linecap="square" stroke-miterlimit="10" points="
			344.26,411.896 343.094,411.896 343.094,412.112 340.31,412.112 340.31,416.442 343.094,416.442 343.094,416.681 344.26,416.681 
					"/>
	</g>
	<g id="POLYLINE_33286_">
		
			<line fill="none" stroke="#000000" stroke-width="0.45" stroke-linecap="square" stroke-miterlimit="10" x1="340.31" y1="412.112" x2="343.094" y2="412.112"/>
	</g>
	<g id="POLYLINE_33285_">
		<polygon fill="none" stroke="#000000" stroke-width="0.45" stroke-linecap="square" stroke-miterlimit="10" points="
			344.267,441.426 249.453,440.479 249.353,398.08 340.58,398.08 340.58,397.502 342.458,396.914 344.26,396.914 344.26,404.701 
			343.094,404.701 343.094,404.462 340.552,404.462 340.552,402.688 310.049,402.688 272.603,402.688 272.603,406.765 
			267.436,406.765 267.436,402.688 262.084,402.688 262.084,399.076 251.804,399.076 251.804,402.688 251.02,402.688 
			251.02,422.854 251.641,422.854 251.641,424.456 251.02,424.456 251.02,435.93 267.436,435.93 268.032,435.969 268.032,434.698 
			271.897,434.698 271.897,435.969 338.625,436.84 338.625,437.211 343.1,437.238 343.126,436.867 344.26,436.867 		"/>
	</g>
</g>
<g id="PLAN_x24_STRUCTURE_1.1">
</g>
</svg>
