<?xml version="1.0" encoding="utf-8"?>
<!-- Generator: Adobe Illustrator 22.0.1, SVG Export Plug-In . SVG Version: 6.00 Build 0)  -->
<svg version="1.1" id="Calque_1" xmlns="http://www.w3.org/2000/svg" xmlns:xlink="http://www.w3.org/1999/xlink" x="0px" y="0px"
	 viewBox="0 0 254.5 465.9" style="enable-background:new 0 0 254.5 465.9;" xml:space="preserve">
<style type="text/css">
	.st0{display:none;}
	.st1{display:inline;}
	.st2{fill:none;}
	.st3{fill:none;stroke:#000000;stroke-width:0.1;stroke-linecap:square;stroke-miterlimit:10;}
	.st4{fill:none;stroke:#000000;stroke-width:0.16;stroke-linecap:square;stroke-miterlimit:10;}
	.st5{fill:none;stroke:#000000;stroke-width:0.28;stroke-linecap:square;stroke-miterlimit:10;}
	.st6{fill:none;stroke:#000000;stroke-width:0.64;stroke-linecap:square;stroke-miterlimit:10;}
	.st7{fill:none;stroke:#000000;stroke-linecap:square;stroke-miterlimit:10;}
</style>
<g id="Calque_1_1_">
</g>
<g id="INFOS_x24_A4" class="st0">
	<g id="POLYLINE_46618_" class="st1">
		<rect x="-167.4" y="-207.2" class="st2" width="595.3" height="841.9"/>
	</g>
</g>
<g id="PLAN_x24_FOND">
</g>
<g id="PLAN_x24_POINTILLE">
</g>
<g id="PLAN_x24_VITRAGE">
	<g id="POLYLINE_47128_">
		<rect x="145.8" y="397.8" class="st3" width="0.6" height="10.2"/>
	</g>
	<g id="POLYLINE_47127_">
		<rect x="145.8" y="428.4" class="st3" width="0.6" height="20.4"/>
	</g>
	<g id="POLYLINE_47126_">
		<polygon class="st3" points="243,181 204,181 204,129.4 204.6,129.4 204.6,180.4 243,180.4 		"/>
	</g>
	<g id="POLYLINE_47125_">
		<rect x="204" y="111" class="st3" width="0.6" height="8.2"/>
	</g>
	<g id="POLYLINE_47124_">
		<polygon class="st3" points="239.6,335.4 208.8,335.4 208.8,344.2 209.2,344.2 209.2,336 239.6,336 		"/>
	</g>
	<g id="POLYLINE_47123_">
		<polygon class="st3" points="243,389.2 208.8,389.2 208.8,354.6 209.2,354.6 209.2,388.6 243,388.6 		"/>
	</g>
	<g id="POLYLINE_47122_">
		<rect x="194.2" y="450" class="st3" width="40.8" height="0.6"/>
	</g>
	<g id="POLYLINE_47121_">
		<rect x="153.4" y="450" class="st3" width="20.4" height="0.6"/>
	</g>
	<g id="POLYLINE_47120_">
		<rect x="57" y="450" class="st3" width="81.6" height="0.6"/>
	</g>
</g>
<g id="PLAN_x24_MOBILIER">
	<g id="POLYLINE_46853_">
		<polyline class="st4" points="102.8,41 101.4,40.4 93.8,37.8 98.6,23.4 106.2,26 107.6,26.6 		"/>
	</g>
	<g id="POLYLINE_46852_">
		<polyline class="st4" points="138.2,43.6 136.8,43.2 129.2,40.6 134.2,26.2 141.8,28.8 143.2,29.2 		"/>
	</g>
	<g id="POLYLINE_46851_">
		<rect x="108.6" y="308.8" class="st4" width="4.6" height="3.4"/>
	</g>
	<g id="POLYLINE_46850_">
		<rect x="98.2" y="308.8" class="st4" width="4.6" height="3.4"/>
	</g>
	<g id="POLYLINE_46849_">
		<rect x="88" y="308.8" class="st4" width="4.6" height="3.4"/>
	</g>
	<g id="POLYLINE_46848_">
		<rect x="77.6" y="308.8" class="st4" width="4.6" height="3.4"/>
	</g>
	<g id="POLYLINE_46847_">
		<rect x="67.4" y="308.8" class="st4" width="4.6" height="3.4"/>
	</g>
	<g id="POLYLINE_46846_">
		<rect x="57" y="308.8" class="st4" width="4.6" height="3.4"/>
	</g>
	<g id="POLYLINE_46845_">
		<rect x="46.8" y="308.8" class="st4" width="4.6" height="3.4"/>
	</g>
	<g id="POLYLINE_46844_">
		<rect x="36.6" y="308.8" class="st4" width="4.6" height="3.4"/>
	</g>
	<g id="POLYLINE_46843_">
		<rect x="36.6" y="288.4" class="st4" width="4.6" height="3.4"/>
	</g>
	<g id="POLYLINE_46842_">
		<rect x="46.8" y="288.4" class="st4" width="4.6" height="3.4"/>
	</g>
	<g id="POLYLINE_46841_">
		<rect x="57" y="288.4" class="st4" width="4.6" height="3.4"/>
	</g>
	<g id="POLYLINE_46840_">
		<rect x="67.4" y="288.4" class="st4" width="4.6" height="3.4"/>
	</g>
	<g id="POLYLINE_46839_">
		<rect x="77.6" y="288.4" class="st4" width="4.6" height="3.4"/>
	</g>
	<g id="POLYLINE_46838_">
		<rect x="88" y="288.4" class="st4" width="4.6" height="3.4"/>
	</g>
	<g id="POLYLINE_46837_">
		<rect x="98.2" y="288.4" class="st4" width="4.6" height="3.4"/>
	</g>
	<g id="POLYLINE_46836_">
		<rect x="108.6" y="288.4" class="st4" width="4.6" height="3.4"/>
	</g>
	<g id="POLYLINE_46835_">
		
			<rect x="218.8" y="392.3" transform="matrix(4.620297e-02 -0.9989 0.9989 4.620297e-02 -183.6846 601.2222)" class="st4" width="8.4" height="9"/>
	</g>
	<g id="POLYLINE_46834_">
		<line class="st4" x1="218.8" y1="394" x2="227.8" y2="394.4"/>
	</g>
	<g id="POLYLINE_46833_">
		<line class="st4" x1="226" y1="401.2" x2="226.4" y2="394.4"/>
	</g>
	<g id="POLYLINE_46832_">
		<line class="st4" x1="219.8" y1="400.8" x2="220" y2="394.2"/>
	</g>
	<g id="POLYLINE_46831_">
		
			<rect x="205.6" y="401.4" transform="matrix(0.7065 -0.7077 0.7077 0.7065 -225.3641 267.7431)" class="st4" width="9" height="8.4"/>
	</g>
	<g id="POLYLINE_46830_">
		<line class="st4" x1="205.2" y1="407" x2="211.6" y2="400.4"/>
	</g>
	<g id="POLYLINE_46829_">
		<line class="st4" x1="215.2" y1="406.2" x2="210.6" y2="401.4"/>
	</g>
	<g id="POLYLINE_46828_">
		<line class="st4" x1="210.8" y1="410.6" x2="206" y2="406"/>
	</g>
	<g id="POLYLINE_46827_">
		<line class="st4" x1="61.2" y1="44.2" x2="55" y2="41.8"/>
	</g>
	<g id="POLYLINE_46826_">
		<line class="st4" x1="63.6" y1="38.4" x2="57.2" y2="35.8"/>
	</g>
	<g id="POLYLINE_46825_">
		<line class="st4" x1="54.4" y1="43" x2="57.8" y2="34.6"/>
	</g>
	<g id="POLYLINE_46824_">
		
			<rect x="54" y="35.6" transform="matrix(0.3692 -0.9293 0.9293 0.3692 -6.952375e-02 79.4498)" class="st4" width="9" height="8.4"/>
	</g>
	<g id="POLYLINE_46823_">
		<rect x="72.3" y="27.4" transform="matrix(0.35 -0.9367 0.9367 0.35 20.3036 92.4876)" class="st4" width="9" height="8.4"/>
	</g>
	<g id="POLYLINE_46822_">
		<line class="st4" x1="72.8" y1="34.8" x2="76" y2="26.4"/>
	</g>
	<g id="POLYLINE_46821_">
		<line class="st4" x1="81.8" y1="30" x2="75.4" y2="27.6"/>
	</g>
	<g id="POLYLINE_46820_">
		<line class="st4" x1="79.6" y1="36" x2="73.2" y2="33.6"/>
	</g>
	<g id="POLYLINE_46819_">
		
			<rect x="90.9" y="26.4" transform="matrix(0.3217 -0.9468 0.9468 0.3217 37.6246 116.2739)" class="st4" width="18.2" height="11"/>
	</g>
	<g id="POLYLINE_46818_">
		<line class="st4" x1="96.2" y1="30.6" x2="105.2" y2="33.8"/>
	</g>
	<g id="POLYLINE_46817_">
		<line class="st4" x1="131.8" y1="33.4" x2="140.8" y2="36.4"/>
	</g>
	<g id="POLYLINE_46816_">
		
			<rect x="126.4" y="29.3" transform="matrix(0.3217 -0.9468 0.9468 0.3217 58.9867 151.8535)" class="st4" width="18.2" height="11"/>
	</g>
	<g id="POLYLINE_46815_">
		<line class="st4" x1="184.4" y1="38.8" x2="179.4" y2="34.4"/>
	</g>
	<g id="POLYLINE_46814_">
		<line class="st4" x1="188.6" y1="34" x2="183.6" y2="29.6"/>
	</g>
	<g id="POLYLINE_46813_">
		<line class="st4" x1="178.4" y1="35.4" x2="184.4" y2="28.6"/>
	</g>
	<g id="POLYLINE_46812_">
		
			<rect x="178.7" y="29.4" transform="matrix(0.6545 -0.7561 0.7561 0.6545 37.8881 150.1629)" class="st4" width="9" height="8.4"/>
	</g>
	<g id="POLYLINE_46811_">
		
			<rect x="161.8" y="25.7" transform="matrix(0.6545 -0.7561 0.7561 0.6545 34.8246 136.1042)" class="st4" width="9" height="8.4"/>
	</g>
	<g id="POLYLINE_46810_">
		<line class="st4" x1="161.4" y1="31.6" x2="167.4" y2="24.8"/>
	</g>
	<g id="POLYLINE_46809_">
		<line class="st4" x1="171.6" y1="30.2" x2="166.4" y2="25.8"/>
	</g>
	<g id="POLYLINE_46808_">
		<line class="st4" x1="167.4" y1="35" x2="162.4" y2="30.6"/>
	</g>
	<g id="POLYLINE_46807_">
		
			<rect x="55.9" y="81.7" transform="matrix(9.319956e-02 -0.9956 0.9956 9.319956e-02 -30.8799 134.0898)" class="st4" width="4.6" height="4.6"/>
	</g>
	<g id="POLYLINE_46806_">
		<rect x="56.4" y="68" transform="matrix(0.1177 -0.993 0.993 0.1177 -17.9827 120.2798)" class="st4" width="4.6" height="4.6"/>
	</g>
	<g id="POLYLINE_46805_">
		
			<rect x="53" y="57.6" transform="matrix(0.1577 -0.9875 0.9875 0.1577 -12.6027 105.0791)" class="st4" width="4.6" height="4.6"/>
	</g>
	<g id="POLYLINE_46804_">
		
			<rect x="69.2" y="52.1" transform="matrix(0.2951 -0.9555 0.9555 0.2951 -1.5173 106.6593)" class="st4" width="4.6" height="4.6"/>
	</g>
	<g id="POLYLINE_46803_">
		
			<rect x="72" y="65.2" transform="matrix(0.9995 -3.289728e-02 3.289728e-02 0.9995 -2.1807 2.4799)" class="st4" width="4.6" height="4.6"/>
	</g>
	<g id="POLYLINE_46802_">
		
			<rect x="74.6" y="79.9" transform="matrix(0.1026 -0.9947 0.9947 0.1026 -12.8086 150.2451)" class="st4" width="4.6" height="4.6"/>
	</g>
	<g id="POLYLINE_46801_">
		
			<rect x="92.6" y="91.4" transform="matrix(0.9339 -0.3576 0.3576 0.9339 -27.2285 40.1191)" class="st4" width="4.6" height="4.6"/>
	</g>
	<g id="POLYLINE_46800_">
		
			<rect x="91.2" y="75.9" transform="matrix(6.219550e-02 -0.9981 0.9981 6.219550e-02 9.6324 166.7226)" class="st4" width="4.6" height="4.6"/>
	</g>
	<g id="POLYLINE_46799_">
		<rect x="89.1" y="62" transform="matrix(0.2676 -0.9635 0.9635 0.2676 4.994 135.128)" class="st4" width="4.6" height="4.6"/>
	</g>
	<g id="POLYLINE_46798_">
		
			<rect x="91.2" y="48.9" transform="matrix(0.2583 -0.9661 0.9661 0.2583 19.8867 128.2338)" class="st4" width="4.6" height="4.6"/>
	</g>
	<g id="POLYLINE_46797_">
		
			<rect x="113.6" y="48.4" transform="matrix(0.3671 -0.9302 0.9302 0.3671 26.2238 139.851)" class="st4" width="4.6" height="4.6"/>
	</g>
	<g id="POLYLINE_46796_">
		
			<rect x="114.5" y="62.2" transform="matrix(6.779987e-02 -0.9977 0.9977 6.779987e-02 44.5176 176.5798)" class="st4" width="4.6" height="4.6"/>
	</g>
	<g id="POLYLINE_46795_">
		<rect x="114" y="73" transform="matrix(0.1211 -0.9926 0.9926 0.1211 27.4477 181.6937)" class="st4" width="4.6" height="4.6"/>
	</g>
	<g id="POLYLINE_46794_">
		<rect x="114" y="88.4" transform="matrix(0.9783 -0.2071 0.2071 0.9783 -16.2609 26.045)" class="st4" width="4.6" height="4.6"/>
	</g>
	<g id="POLYLINE_46793_">
		
			<rect x="137" y="90.8" transform="matrix(0.9339 -0.3576 0.3576 0.9339 -24.0917 55.9708)" class="st4" width="4.6" height="4.6"/>
	</g>
	<g id="POLYLINE_46792_">
		
			<rect x="135.5" y="76" transform="matrix(0.9339 -0.3576 0.3576 0.9339 -18.8862 54.4704)" class="st4" width="4.6" height="4.6"/>
	</g>
	<g id="POLYLINE_46791_">
		
			<rect x="136.1" y="61.9" transform="matrix(0.159 -0.9873 0.9873 0.159 53.0292 190.6542)" class="st4" width="4.6" height="4.6"/>
	</g>
	<g id="POLYLINE_46790_">
		
			<rect x="136.3" y="51.1" transform="matrix(0.1205 -0.9927 0.9927 0.1205 68.9409 184.5229)" class="st4" width="4.6" height="4.6"/>
	</g>
	<g id="POLYLINE_46789_">
		
			<rect x="153.1" y="51.1" transform="matrix(0.2422 -0.9702 0.9702 0.2422 65.9792 191.2387)" class="st4" width="4.6" height="4.6"/>
	</g>
	<g id="POLYLINE_46788_">
		
			<rect x="154.4" y="62.1" transform="matrix(5.099986e-02 -0.9987 0.9987 5.099986e-02 84.38 217.5579)" class="st4" width="4.6" height="4.6"/>
	</g>
	<g id="POLYLINE_46787_">
		
			<rect x="155.2" y="75.6" transform="matrix(6.090533e-02 -0.9981 0.9981 6.090533e-02 70.1768 230.3291)" class="st4" width="4.6" height="4.6"/>
	</g>
	<g id="POLYLINE_46786_">
		<rect x="155" y="89" transform="matrix(0.9339 -0.3576 0.3576 0.9339 -22.2335 62.2872)" class="st4" width="4.6" height="4.6"/>
	</g>
	<g id="POLYLINE_46785_">
		
			<rect x="169.7" y="45.6" transform="matrix(0.4145 -0.9101 0.9101 0.4145 57.0797 184.5431)" class="st4" width="4.6" height="4.6"/>
	</g>
	<g id="POLYLINE_46784_">
		
			<rect x="171.9" y="60.2" transform="matrix(9.360184e-02 -0.9956 0.9956 9.360184e-02 95.6596 230.0185)" class="st4" width="4.6" height="4.6"/>
	</g>
	<g id="POLYLINE_46783_">
		
			<rect x="173.5" y="73.5" transform="matrix(0.1337 -0.991 0.991 0.1337 77.2586 239.8999)" class="st4" width="4.6" height="4.6"/>
	</g>
	<g id="POLYLINE_46782_">
		<rect x="56.4" y="95" transform="matrix(0.9339 -0.3576 0.3576 0.9339 -30.9044 27.4167)" class="st4" width="4.6" height="4.6"/>
	</g>
	<g id="POLYLINE_46781_">
		<rect x="74" y="92" transform="matrix(0.9339 -0.3576 0.3576 0.9339 -28.6833 33.523)" class="st4" width="4.6" height="4.6"/>
	</g>
	<g id="POLYLINE_46780_">
		
			<rect x="172.6" y="88.2" transform="matrix(0.9339 -0.3576 0.3576 0.9339 -20.8114 68.5151)" class="st4" width="4.6" height="4.6"/>
	</g>
	<g id="SPLINE_1430_">
		<path class="st4" d="M109.4,117.8c0.4,0.2,1,0.2,1.4,0.2s0.8,0,1,0c0.4,0,1,0,1.4-0.2c0.2,0,0.4-0.2,0.6-0.4
			c0.2-0.4,0.4-0.8,0.4-1.2c0-0.2,0-0.4,0-0.6c0-0.4-0.2-0.6-0.4-0.8c-0.4-0.4-0.8-0.6-1.4-0.6s-1-0.2-1.6,0c-0.4,0-0.8,0-1,0.2
			c-0.2,0-0.4,0-0.6,0.2"/>
	</g>
	<g id="POLYLINE_46779_">
		<rect x="106.4" y="113" class="st4" width="3" height="6"/>
	</g>
	<g id="SPLINE_1429_">
		<path class="st4" d="M109.4,134c0.4,0.2,1,0.2,1.4,0.2s0.8,0,1,0c0.4,0,1,0,1.4-0.2c0.2,0,0.4-0.2,0.6-0.4
			c0.2-0.4,0.4-0.8,0.4-1.2c0-0.2,0-0.4,0-0.6c0-0.4-0.2-0.6-0.4-0.8c-0.4-0.4-0.8-0.6-1.4-0.6s-1-0.2-1.6,0c-0.4,0-0.8,0-1,0.2
			c-0.2,0-0.4,0-0.6,0.2"/>
	</g>
	<g id="POLYLINE_46778_">
		<rect x="106.4" y="129.2" class="st4" width="3" height="6"/>
	</g>
	<g id="SPLINE_1428_">
		<path class="st4" d="M109.4,143.2c0.4,0.2,1,0.2,1.4,0.2s0.8,0,1,0c0.4,0,1,0,1.4-0.2c0.2,0,0.4-0.2,0.6-0.4
			c0.2-0.4,0.4-0.8,0.4-1.2c0-0.2,0-0.4,0-0.6c0-0.4-0.2-0.6-0.4-0.8c-0.4-0.4-0.8-0.6-1.4-0.6s-1-0.2-1.6,0c-0.4,0-0.8,0-1,0.2
			c-0.2,0-0.4,0-0.6,0.2"/>
	</g>
	<g id="POLYLINE_46777_">
		<rect x="106.4" y="138.4" class="st4" width="3" height="6"/>
	</g>
	<g id="SPLINE_1427_">
		<path class="st4" d="M109.4,152.4c0.4,0.2,1,0.2,1.4,0.2s0.8,0,1,0c0.4,0,1,0,1.4-0.2c0.2,0,0.4-0.2,0.6-0.4
			c0.2-0.4,0.4-0.8,0.4-1.2c0-0.2,0-0.4,0-0.6c0-0.4-0.2-0.6-0.4-0.8c-0.4-0.4-0.8-0.6-1.4-0.6s-1-0.2-1.6,0c-0.4,0-0.8,0-1,0.2
			c-0.2,0-0.4,0-0.6,0.2"/>
	</g>
	<g id="POLYLINE_46776_">
		<rect x="106.4" y="147.6" class="st4" width="3" height="6"/>
	</g>
	<g id="POLYLINE_46775_">
		<rect x="140" y="147.6" class="st4" width="4.2" height="6"/>
	</g>
	<g id="CIRCLE_1513_">
		<path class="st4" d="M143.2,150.6c0-0.2,0.2-0.2,0.2-0.2l0.2,0.2l-0.2,0.2C143.4,150.8,143.2,150.8,143.2,150.6L143.2,150.6z"/>
	</g>
	<g id="CIRCLE_1512_">
		<path class="st4" d="M143.2,140.8c0-0.2,0.2-0.2,0.2-0.2s0.4,0,0.4,0.2s-0.2,0.2-0.2,0.2S143.2,141,143.2,140.8L143.2,140.8z"/>
	</g>
	<g id="POLYLINE_46774_">
		<rect x="140" y="137.6" class="st4" width="4.2" height="6"/>
	</g>
	<g id="POLYLINE_46773_">
		<rect x="172" y="142.8" class="st4" width="3.4" height="4.6"/>
	</g>
	<g id="POLYLINE_46772_">
		<rect x="155" y="142.8" class="st4" width="3.4" height="4.6"/>
	</g>
	<g id="POLYLINE_46771_">
		<rect x="172" y="167.6" class="st4" width="3.4" height="4.6"/>
	</g>
	<g id="POLYLINE_46770_">
		<rect x="155" y="167.6" class="st4" width="3.4" height="4.6"/>
	</g>
	<g id="POLYLINE_46769_">
		<rect x="172" y="192.6" class="st4" width="3.4" height="4.6"/>
	</g>
	<g id="POLYLINE_46768_">
		<rect x="155" y="192.6" class="st4" width="3.4" height="4.6"/>
	</g>
	<g id="POLYLINE_46767_">
		<rect x="172" y="216.4" class="st4" width="3.4" height="4.6"/>
	</g>
	<g id="POLYLINE_46766_">
		<rect x="155" y="216.4" class="st4" width="3.4" height="4.6"/>
	</g>
	<g id="POLYLINE_46765_">
		<rect x="172" y="247.6" class="st4" width="3.4" height="4.6"/>
	</g>
	<g id="POLYLINE_46764_">
		<rect x="155" y="247.6" class="st4" width="3.4" height="4.6"/>
	</g>
	<g id="POLYLINE_46763_">
		<rect x="155" y="272.6" class="st4" width="3.4" height="4.6"/>
	</g>
	<g id="POLYLINE_46762_">
		<rect x="172" y="272.6" class="st4" width="3.4" height="4.6"/>
	</g>
	<g id="POLYLINE_46761_">
		<rect x="235" y="151" class="st4" width="4.6" height="3.4"/>
	</g>
	<g id="POLYLINE_46760_">
		<rect x="219" y="151" class="st4" width="4.6" height="3.4"/>
	</g>
	<g id="POLYLINE_46759_">
		<rect x="219" y="131.6" class="st4" width="4.6" height="3.4"/>
	</g>
	<g id="POLYLINE_46758_">
		<rect x="235" y="131.6" class="st4" width="4.6" height="3.4"/>
	</g>
	<g id="POLYLINE_46757_">
		<rect x="231.2" y="208" class="st4" width="4.6" height="3.4"/>
	</g>
	<g id="POLYLINE_46756_">
		<rect x="215.2" y="208" class="st4" width="4.6" height="3.4"/>
	</g>
	<g id="POLYLINE_46755_">
		<rect x="215.2" y="188.8" class="st4" width="4.6" height="3.4"/>
	</g>
	<g id="POLYLINE_46754_">
		<rect x="231.2" y="188.8" class="st4" width="4.6" height="3.4"/>
	</g>
	<g id="POLYLINE_46753_">
		<rect x="231.2" y="258.8" class="st4" width="4.6" height="3.4"/>
	</g>
	<g id="POLYLINE_46752_">
		<rect x="215.2" y="258.8" class="st4" width="4.6" height="3.4"/>
	</g>
	<g id="POLYLINE_46751_">
		<rect x="215.2" y="239.6" class="st4" width="4.6" height="3.4"/>
	</g>
	<g id="POLYLINE_46750_">
		<rect x="231.2" y="239.6" class="st4" width="4.6" height="3.4"/>
	</g>
	<g id="POLYLINE_46749_">
		<rect x="231.2" y="298.6" class="st4" width="4.6" height="3.4"/>
	</g>
	<g id="POLYLINE_46748_">
		<rect x="215.2" y="298.6" class="st4" width="4.6" height="3.4"/>
	</g>
	<g id="POLYLINE_46747_">
		<rect x="215.2" y="318" class="st4" width="4.6" height="3.4"/>
	</g>
	<g id="POLYLINE_46746_">
		<rect x="231.2" y="318" class="st4" width="4.6" height="3.4"/>
	</g>
	<g id="POLYLINE_46745_">
		<rect x="233" y="357.8" class="st4" width="3.4" height="4.6"/>
	</g>
	<g id="POLYLINE_46744_">
		<rect x="222.4" y="376.6" class="st4" width="4.6" height="3.4"/>
	</g>
	<g id="POLYLINE_46743_">
		<line class="st4" x1="121.4" y1="359.2" x2="117.4" y2="359.2"/>
	</g>
	<g id="POLYLINE_46742_">
		<rect x="117.4" y="354.8" class="st4" width="4" height="8.6"/>
	</g>
	<g id="POLYLINE_46741_">
		<line class="st4" x1="122.8" y1="353.4" x2="116" y2="353.4"/>
	</g>
	<g id="POLYLINE_46740_">
		<line class="st4" x1="122.8" y1="346.6" x2="116" y2="346.6"/>
	</g>
	<g id="POLYLINE_46739_">
		<line class="st4" x1="124.8" y1="344.6" x2="124.8" y2="337.8"/>
	</g>
	<g id="POLYLINE_46738_">
		<polyline class="st4" points="131.6,337.8 116,337.8 116,368.2 122.8,368.2 122.8,346.6 124.8,344.6 131.6,344.6 		"/>
	</g>
	<g id="POLYLINE_46737_">
		
			<rect x="176" y="350.4" transform="matrix(0.2076 -0.9782 0.9782 0.2076 -203.7268 453.8991)" class="st4" width="4.6" height="4.6"/>
	</g>
	<g id="POLYLINE_46736_">
		
			<rect x="162.9" y="358.6" transform="matrix(0.2076 -0.9782 0.9782 0.2076 -222.1215 447.5416)" class="st4" width="4.6" height="4.6"/>
	</g>
	<g id="POLYLINE_46735_">
		
			<rect x="154.7" y="345.3" transform="matrix(0.2076 -0.9782 0.9782 0.2076 -215.543 429.0309)" class="st4" width="4.6" height="4.6"/>
	</g>
	<g id="POLYLINE_46734_">
		
			<rect x="167.9" y="337.1" transform="matrix(0.2076 -0.9782 0.9782 0.2076 -197.1476 435.3885)" class="st4" width="4.6" height="4.6"/>
	</g>
	<g id="POLYLINE_46733_">
		
			<rect x="172.4" y="379.8" transform="matrix(0.9855 -0.1698 0.1698 0.9855 -62.3428 35.2083)" class="st4" width="4.6" height="4.6"/>
	</g>
	<g id="POLYLINE_46732_">
		
			<rect x="163.2" y="392.2" transform="matrix(0.9855 -0.1698 0.1698 0.9855 -64.5823 33.8232)" class="st4" width="4.6" height="4.6"/>
	</g>
	<g id="POLYLINE_46731_">
		
			<rect x="150.6" y="383" transform="matrix(0.9855 -0.1698 0.1698 0.9855 -63.2058 31.5507)" class="st4" width="4.6" height="4.6"/>
	</g>
	<g id="POLYLINE_46730_">
		
			<rect x="159.8" y="370.6" transform="matrix(0.9855 -0.1698 0.1698 0.9855 -60.9663 32.9357)" class="st4" width="4.6" height="4.6"/>
	</g>
	<g id="POLYLINE_46729_">
		
			<rect x="115.5" y="379.2" transform="matrix(0.8081 -0.589 0.589 0.8081 -202.0983 142.6089)" class="st4" width="4.6" height="4.6"/>
	</g>
	<g id="POLYLINE_46728_">
		
			<rect x="100.3" y="376.4" transform="matrix(0.8081 -0.589 0.589 0.8081 -203.3653 133.102)" class="st4" width="4.6" height="4.6"/>
	</g>
	<g id="POLYLINE_46727_">
		
			<rect x="97.6" y="391.8" transform="matrix(0.8081 -0.589 0.589 0.8081 -212.9454 134.4696)" class="st4" width="4.6" height="4.6"/>
	</g>
	<g id="POLYLINE_46726_">
		
			<rect x="112.7" y="394.4" transform="matrix(0.8081 -0.589 0.589 0.8081 -211.6049 143.8766)" class="st4" width="4.6" height="4.6"/>
	</g>
	<g id="POLYLINE_46725_">
		
			<rect x="72.8" y="405.7" transform="matrix(0.8081 -0.589 0.589 0.8081 -225.9202 122.5223)" class="st4" width="4.6" height="4.6"/>
	</g>
	<g id="POLYLINE_46724_">
		
			<rect x="57.4" y="403" transform="matrix(0.8081 -0.589 0.589 0.8081 -227.2891 112.9413)" class="st4" width="4.6" height="4.6"/>
	</g>
	<g id="POLYLINE_46723_">
		
			<rect x="60.2" y="387.8" transform="matrix(0.8081 -0.589 0.589 0.8081 -217.7803 111.6737)" class="st4" width="4.6" height="4.6"/>
	</g>
	<g id="POLYLINE_46722_">
		
			<rect x="75.4" y="390.6" transform="matrix(0.8081 -0.589 0.589 0.8081 -216.513 121.1813)" class="st4" width="4.6" height="4.6"/>
	</g>
	<g id="POLYLINE_46721_">
		<rect x="115" y="423.6" class="st4" width="4.6" height="4.6"/>
	</g>
	<g id="POLYLINE_46720_">
		<rect x="115" y="438.2" class="st4" width="4.6" height="4.6"/>
	</g>
	<g id="POLYLINE_46719_">
		<rect x="106.6" y="423.6" class="st4" width="4.6" height="4.6"/>
	</g>
	<g id="POLYLINE_46718_">
		<rect x="106.6" y="438.2" class="st4" width="4.6" height="4.6"/>
	</g>
	<g id="POLYLINE_46717_">
		<rect x="99.8" y="423.6" class="st4" width="4.6" height="4.6"/>
	</g>
	<g id="POLYLINE_46716_">
		<rect x="99.8" y="438.2" class="st4" width="4.6" height="4.6"/>
	</g>
	<g id="POLYLINE_46715_">
		<rect x="90.4" y="423.6" class="st4" width="4.6" height="4.6"/>
	</g>
	<g id="POLYLINE_46714_">
		<rect x="90.4" y="438.2" class="st4" width="4.6" height="4.6"/>
	</g>
	<g id="POLYLINE_46713_">
		<rect x="82.6" y="423.6" class="st4" width="4.6" height="4.6"/>
	</g>
	<g id="POLYLINE_46712_">
		<rect x="82.6" y="438.2" class="st4" width="4.6" height="4.6"/>
	</g>
	<g id="POLYLINE_46711_">
		<rect x="74.2" y="423.6" class="st4" width="4.6" height="4.6"/>
	</g>
	<g id="POLYLINE_46710_">
		<rect x="74.2" y="438.2" class="st4" width="4.6" height="4.6"/>
	</g>
	<g id="POLYLINE_46709_">
		<rect x="64" y="438.2" class="st4" width="4.6" height="4.6"/>
	</g>
	<g id="POLYLINE_46708_">
		<rect x="64" y="423.6" class="st4" width="4.6" height="4.6"/>
	</g>
	<g id="POLYLINE_46707_">
		<rect x="57.4" y="360.6" class="st4" width="4.6" height="4.6"/>
	</g>
	<g id="POLYLINE_46706_">
		<rect x="57.4" y="350.2" class="st4" width="4.6" height="4.6"/>
	</g>
	<g id="POLYLINE_46705_">
		<rect x="84" y="350.2" class="st4" width="4.6" height="4.6"/>
	</g>
	<g id="POLYLINE_46704_">
		<rect x="84" y="360.4" class="st4" width="4.6" height="4.6"/>
	</g>
	<g id="CIRCLE_1511_">
		<path class="st4" d="M234,94.2c0-1.2,1-2.4,2.4-2.4s2.4,1,2.4,2.4s-1,2.4-2.4,2.4S234,95.4,234,94.2L234,94.2z"/>
	</g>
	<g id="CIRCLE_1510_">
		<path class="st4" d="M229.4,86.8c0-1.2,1-2.4,2.4-2.4s2.4,1,2.4,2.4s-1,2.4-2.4,2.4S229.4,88,229.4,86.8L229.4,86.8z"/>
	</g>
	<g id="CIRCLE_1509_">
		<path class="st4" d="M160.2,350.2c0-4,3.2-7.4,7.4-7.4s7.4,3.2,7.4,7.4s-3.2,7.4-7.4,7.4S160.2,354.2,160.2,350.2L160.2,350.2z"/>
	</g>
	<g id="CIRCLE_1508_">
		<path class="st4" d="M223.2,438.8c0-1.2,1-2.4,2.4-2.4s2.4,1,2.4,2.4c0,1.2-1,2.4-2.4,2.4S223.2,440.2,223.2,438.8L223.2,438.8z"
			/>
	</g>
	<g id="CIRCLE_1507_">
		<path class="st4" d="M213.6,432.2c0-1.2,1-2.4,2.4-2.4s2.4,1,2.4,2.4c0,1.2-1,2.4-2.4,2.4S213.6,433.6,213.6,432.2L213.6,432.2z"
			/>
	</g>
	<g id="CIRCLE_1506_">
		<path class="st4" d="M217,419c0-3,2.4-5.4,5.4-5.4s5.4,2.4,5.4,5.4s-2.4,5.4-5.4,5.4C219.4,424.4,217,422,217,419L217,419z"/>
	</g>
	<g id="POLYLINE_46703_">
		<rect x="113.6" y="429.8" class="st4" width="6.8" height="6.8"/>
	</g>
	<g id="POLYLINE_46702_">
		<rect x="97.2" y="429.8" class="st4" width="6.8" height="6.8"/>
	</g>
	<g id="POLYLINE_46701_">
		<rect x="81.2" y="429.8" class="st4" width="6.8" height="6.8"/>
	</g>
	<g id="POLYLINE_46700_">
		<rect x="72.8" y="429.8" class="st4" width="6.8" height="6.8"/>
	</g>
	<g id="POLYLINE_46699_">
		<rect x="89" y="429.8" class="st4" width="6.8" height="6.8"/>
	</g>
	<g id="POLYLINE_46698_">
		<rect x="105.2" y="429.8" class="st4" width="6.8" height="6.8"/>
	</g>
	<g id="POLYLINE_46697_">
		<rect x="62.6" y="429.8" class="st4" width="6.8" height="6.8"/>
	</g>
	<g id="CIRCLE_1505_">
		<path class="st4" d="M61.4,399c0-4,3.2-7.4,7.4-7.4c4.2,0,7.4,3.4,7.4,7.4s-3.2,7.4-7.4,7.4S61.4,403,61.4,399L61.4,399z"/>
	</g>
	<g id="CIRCLE_1504_">
		<path class="st4" d="M101.6,387.8c0-4,3.2-7.4,7.4-7.4s7.4,3.4,7.4,7.4s-3.2,7.4-7.4,7.4S101.6,391.8,101.6,387.8L101.6,387.8z"/>
	</g>
	<g id="CIRCLE_1503_">
		<path class="st4" d="M156.4,383.6c0-4,3.2-7.4,7.4-7.4s7.4,3.2,7.4,7.4c0,4-3.2,7.4-7.4,7.4S156.4,387.8,156.4,383.6L156.4,383.6z
			"/>
	</g>
	<g id="POLYLINE_46696_">
		<rect x="205.2" y="170.4" class="st4" width="9" height="8"/>
	</g>
	<g id="POLYLINE_46695_">
		<rect x="209.8" y="336.6" class="st4" width="25.4" height="5.6"/>
	</g>
	<g id="POLYLINE_46694_">
		<rect x="139.2" y="134.2" class="st4" width="5.6" height="21"/>
	</g>
	<g id="POLYLINE_46693_">
		<line class="st4" x1="125" y1="155.2" x2="125" y2="154"/>
	</g>
	<g id="POLYLINE_46692_">
		<rect x="205.2" y="111" class="st4" width="23.4" height="5.6"/>
	</g>
	<g id="POLYLINE_46691_">
		<rect x="147.2" y="203" class="st4" width="5.6" height="8"/>
	</g>
	<g id="POLYLINE_46690_">
		<rect x="147.2" y="178.6" class="st4" width="5.6" height="8"/>
	</g>
	<g id="POLYLINE_46689_">
		<rect x="147.2" y="154.4" class="st4" width="5.6" height="8"/>
	</g>
	<g id="POLYLINE_46688_">
		<rect x="131.6" y="337.8" class="st4" width="11.4" height="6.8"/>
	</g>
	<g id="POLYLINE_46687_">
		<rect x="136.4" y="351.4" class="st4" width="6.8" height="6.8"/>
	</g>
	<g id="POLYLINE_46686_">
		<rect x="136.4" y="344.6" class="st4" width="6.8" height="6.8"/>
	</g>
	<g id="POLYLINE_46685_">
		<rect x="147.2" y="285" class="st4" width="5.6" height="8"/>
	</g>
	<g id="POLYLINE_46684_">
		<rect x="147.2" y="259.6" class="st4" width="5.6" height="8"/>
	</g>
	<g id="POLYLINE_46683_">
		<rect x="147.2" y="232.4" class="st4" width="5.6" height="8"/>
	</g>
	<g id="POLYLINE_46682_">
		<rect x="147.2" y="356.4" class="st4" width="5.6" height="11.4"/>
	</g>
	<g id="POLYLINE_46681_">
		
			<rect x="135.4" y="363.6" transform="matrix(1 -8.199449e-03 8.199449e-03 1 -2.9998 1.1452)" class="st4" width="5.6" height="5.6"/>
	</g>
	<g id="POLYLINE_46680_">
		
			<rect x="135.6" y="371" transform="matrix(1 -8.199449e-03 8.199449e-03 1 -3.0605 1.1471)" class="st4" width="5.6" height="5.6"/>
	</g>
	<g id="POLYLINE_46679_">
		<rect x="64.6" y="346.6" class="st4" width="17" height="22.8"/>
	</g>
	<g id="POLYLINE_46678_">
		<rect x="235.2" y="442" class="st4" width="5.6" height="5.6"/>
	</g>
	<g id="POLYLINE_46677_">
		<rect x="228.4" y="442" class="st4" width="5.6" height="5.6"/>
	</g>
	<g id="POLYLINE_46676_">
		<rect x="221" y="442" class="st4" width="5.6" height="5.6"/>
	</g>
	<g id="POLYLINE_46675_">
		<rect x="212.4" y="442" class="st4" width="5.6" height="5.6"/>
	</g>
	<g id="POLYLINE_46674_">
		<rect x="237.2" y="398.4" class="st4" width="5.6" height="40.8"/>
	</g>
	<g id="POLYLINE_46673_">
		<rect x="212.8" y="135" class="st4" width="30.2" height="19"/>
	</g>
	<g id="POLYLINE_46672_">
		<rect x="226.4" y="172.6" class="st4" width="16.6" height="5.6"/>
	</g>
	<g id="POLYLINE_46671_">
		<rect x="209" y="192.2" class="st4" width="34" height="15.8"/>
	</g>
	<g id="POLYLINE_46670_">
		<rect x="209" y="243" class="st4" width="34" height="15.8"/>
	</g>
	<g id="POLYLINE_46669_">
		<rect x="237.2" y="273.8" class="st4" width="5.6" height="16"/>
	</g>
	<g id="POLYLINE_46654_">
		<rect x="209" y="302" class="st4" width="34" height="15.8"/>
	</g>
	<g id="POLYLINE_46653_">
		<rect x="158.4" y="210.2" class="st4" width="13.6" height="17"/>
	</g>
	<g id="POLYLINE_46652_">
		<rect x="213.6" y="222.2" class="st4" width="23" height="5.6"/>
	</g>
	<g id="POLYLINE_46651_">
		<rect x="63" y="267.4" class="st4" width="17" height="5.6"/>
	</g>
	<g id="POLYLINE_46650_">
		<rect x="46" y="267.4" class="st4" width="17" height="5.6"/>
	</g>
	<g id="POLYLINE_46649_">
		<rect x="29" y="267.4" class="st4" width="17" height="5.6"/>
	</g>
	<g id="POLYLINE_46648_">
		<rect x="12" y="267.4" class="st4" width="17" height="5.6"/>
	</g>
	<g id="POLYLINE_46647_">
		<rect x="29.6" y="291.8" class="st4" width="88" height="17"/>
	</g>
	<g id="POLYLINE_46646_">
		<rect x="158.4" y="136.6" class="st4" width="13.6" height="17"/>
	</g>
	<g id="POLYLINE_46640_">
		<rect x="158.4" y="241.4" class="st4" width="13.6" height="17"/>
	</g>
	<g id="POLYLINE_46639_">
		<rect x="158.4" y="266.4" class="st4" width="13.6" height="17"/>
	</g>
	<g id="POLYLINE_46638_">
		<rect x="158.4" y="186.4" class="st4" width="13.6" height="17"/>
	</g>
	<g id="POLYLINE_46637_">
		<rect x="158.4" y="161.4" class="st4" width="13.6" height="17"/>
	</g>
	<g id="POLYLINE_46636_">
		<rect x="216" y="368.6" class="st4" width="17" height="8"/>
	</g>
	<g id="POLYLINE_46635_">
		<rect x="225.2" y="351.6" class="st4" width="8" height="17"/>
	</g>
	<g id="POLYLINE_46634_">
		<rect x="238.6" y="40.6" class="st4" width="1.2" height="35.8"/>
	</g>
	<g id="POLYLINE_46633_">
		<rect x="236.6" y="19.4" class="st4" width="5.6" height="16"/>
	</g>
	<g id="CIRCLE_1502_">
		<path class="st4" d="M118.4,361c0-0.2,0.2-0.2,0.2-0.2l0.2,0.2l-0.2,0.2L118.4,361L118.4,361z"/>
	</g>
	<g id="CIRCLE_1501_">
		<path class="st4" d="M118.2,357.6c0-0.2,0.2-0.4,0.4-0.4s0.4,0.2,0.4,0.4s-0.2,0.4-0.4,0.4C118.4,357.8,118.2,357.6,118.2,357.6
			L118.2,357.6z"/>
	</g>
</g>
<g id="PLAN_x24_DETAIL">
	<g id="POLYLINE_46668_">
		<line class="st4" x1="204.4" y1="119.2" x2="214.6" y2="119.2"/>
	</g>
	<g id="ARC_3806_">
		<path class="st4" d="M204.4,129.4c5.6,0,10.2-4.6,10.2-10.2"/>
	</g>
	<g id="POLYLINE_46667_">
		<line class="st4" x1="209" y1="344.2" x2="219.2" y2="344.2"/>
	</g>
	<g id="ARC_3805_">
		<path class="st4" d="M209,354.6c5.6,0,10.2-4.6,10.2-10.2"/>
	</g>
	<g id="POLYLINE_46666_">
		<line class="st4" x1="188.6" y1="109.8" x2="188.6" y2="99.6"/>
	</g>
	<g id="ARC_3804_">
		<path class="st4" d="M198.8,109.8c0-5.6-4.6-10.2-10.2-10.2"/>
	</g>
	<g id="POLYLINE_46665_">
		<line class="st4" x1="146" y1="116.6" x2="135.8" y2="116.6"/>
	</g>
	<g id="ARC_3803_">
		<path class="st4" d="M135.8,116.6c0,5.6,4.6,10.2,10.2,10.2"/>
	</g>
	<g id="POLYLINE_46664_">
		<line class="st4" x1="146" y1="428.4" x2="135.8" y2="428.4"/>
	</g>
	<g id="ARC_3802_">
		<path class="st4" d="M146,418.2c-5.6,0-10.2,4.6-10.2,10.2"/>
	</g>
	<g id="ARC_3801_">
		<path class="st4" d="M135.8,408c0,5.6,4.6,10.2,10.2,10.2"/>
	</g>
	<g id="POLYLINE_46663_">
		<line class="st4" x1="135.8" y1="408" x2="146" y2="408"/>
	</g>
	<g id="POLYLINE_46662_">
		<line class="st4" x1="173.8" y1="450.4" x2="173.8" y2="440"/>
	</g>
	<g id="ARC_3800_">
		<path class="st4" d="M184,450.4c0-5.6-4.6-10.2-10.2-10.2"/>
	</g>
	<g id="ARC_3799_">
		<path class="st4" d="M194.2,440c-5.6,0-10.2,4.6-10.2,10.2"/>
	</g>
	<g id="POLYLINE_46661_">
		<line class="st4" x1="194.2" y1="440" x2="194.2" y2="450.4"/>
	</g>
	<g id="POLYLINE_46660_">
		<line class="st4" x1="146" y1="299.4" x2="135.8" y2="299.4"/>
	</g>
	<g id="ARC_3798_">
		<path class="st4" d="M135.8,299.4c0,5.6,4.6,10.2,10.2,10.2"/>
	</g>
	<g id="ARC_3797_">
		<path class="st4" d="M146,309.6c-5.6,0-10.2,4.6-10.2,10.2"/>
	</g>
	<g id="POLYLINE_46659_">
		<line class="st4" x1="135.8" y1="319.8" x2="146" y2="319.8"/>
	</g>
	<g id="ARC_3796_">
		<path class="st4" d="M118.2,147.2c0,3.8,3,6.8,6.8,6.8"/>
	</g>
	<g id="POLYLINE_46658_">
		<line class="st4" x1="118.2" y1="147.2" x2="125" y2="147.2"/>
	</g>
	<g id="ARC_3795_">
		<path class="st4" d="M118.2,138c0,3.8,3,6.8,6.8,6.8"/>
	</g>
	<g id="POLYLINE_46657_">
		<line class="st4" x1="118.2" y1="138" x2="125" y2="138"/>
	</g>
	<g id="ARC_3794_">
		<path class="st4" d="M118.2,128.6c0,3.8,3,6.8,6.8,6.8"/>
	</g>
	<g id="POLYLINE_46656_">
		<line class="st4" x1="118.2" y1="128.6" x2="125" y2="128.6"/>
	</g>
	<g id="ARC_3793_">
		<path class="st4" d="M118.2,119.4c0,3.8,3,6.8,6.8,6.8"/>
	</g>
	<g id="POLYLINE_46655_">
		<line class="st4" x1="118.2" y1="119.4" x2="125" y2="119.4"/>
	</g>
</g>
<g id="PLAN_x24_CLOISON_TRANSLUCIDE">
</g>
<g id="PLAN_x24_CLOISON_1.3">
	<g id="POLYLINE_46645_">
		<rect x="124.6" y="154" class="st5" width="0.6" height="1.2"/>
	</g>
	<g id="POLYLINE_46644_">
		<rect x="124.6" y="111" class="st5" width="0.6" height="8.4"/>
	</g>
	<g id="POLYLINE_46643_">
		<polyline class="st5" points="106.4,127.8 124.6,127.8 124.6,128.6 125,128.6 125,126.2 124.6,126.2 124.6,127.2 106.4,127.2 		
			"/>
	</g>
	<g id="POLYLINE_46642_">
		<polyline class="st5" points="106.4,137 124.6,137 124.6,138 125,138 125,135.4 124.6,135.4 124.6,136.4 106.4,136.4 		"/>
	</g>
	<g id="POLYLINE_46641_">
		<polyline class="st5" points="106.4,146.2 124.6,146.2 124.6,147.2 125,147.2 125,144.8 124.6,144.8 124.6,145.6 106.4,145.6 		
			"/>
	</g>
</g>
<g id="PLAN_x24_CLOISON_1.2">
</g>
<g id="PLAN_x24_CLOISON_1.1">
</g>
<g id="PLAN_x24_STRUCTURE_2.3">
</g>
<g id="PLAN_x24_STRUCTURE_2.2">
	<g id="POLYLINE_47082_">
		<rect x="144.8" y="341.2" class="st6" width="2.2" height="56.6"/>
	</g>
	<g id="POLYLINE_47081_">
		<rect x="144.8" y="319.8" class="st6" width="2.2" height="15.8"/>
	</g>
	<g id="POLYLINE_47080_">
		<rect x="144.8" y="227.8" class="st6" width="2.2" height="71.6"/>
	</g>
	<g id="POLYLINE_47079_">
		<rect x="144.8" y="126.8" class="st6" width="2.2" height="95.2"/>
	</g>
	<g id="POLYLINE_47078_">
		<rect x="198.8" y="108.8" class="st6" width="40.8" height="2.2"/>
	</g>
	<g id="POLYLINE_47077_">
		<rect x="148.8" y="108.8" class="st6" width="39.8" height="2.2"/>
	</g>
	<g id="POLYLINE_47076_">
		<polygon class="st6" points="106.4,111 143.2,111 143.2,108.8 52.4,108.8 52.4,111 104.2,111 104.2,157.4 144.8,157.4 
			144.8,155.2 106.4,155.2 		"/>
	</g>
	<g id="POLYLINE_47075_">
		<rect x="48.6" y="18" class="st6" width="2.2" height="90.8"/>
	</g>
	<g id="POLYLINE_47074_">
		<line class="st6" x1="106.4" y1="108.8" x2="104.2" y2="108.8"/>
	</g>
	<g id="POLYLINE_47073_">
		<rect x="148.8" y="14" class="st6" width="90.8" height="2.2"/>
	</g>
	<g id="POLYLINE_46880_">
		<rect x="52.4" y="14" class="st6" width="90.8" height="2.2"/>
	</g>
	<g id="POLYLINE_46879_">
		<rect x="243" y="18" class="st6" width="2.2" height="90.8"/>
	</g>
	<g id="POLYLINE_46878_">
		<polygon class="st6" points="46.8,335.4 12,335.4 12,267.4 144.8,267.4 144.8,265.2 9.8,265.2 9.8,337.8 46.8,337.8 		"/>
	</g>
	<g id="POLYLINE_46877_">
		<rect x="52.4" y="335.4" class="st6" width="90.8" height="2.2"/>
	</g>
	<g id="POLYLINE_46876_">
		<rect x="48.6" y="341.2" class="st6" width="2.2" height="107.8"/>
	</g>
	<g id="POLYLINE_46875_">
		<polyline class="st6" points="52.4,451.8 57,451.8 57,448.8 52.4,448.8 		"/>
	</g>
	<g id="POLYLINE_46874_">
		<polyline class="st6" points="143.2,451.8 138.6,451.8 138.6,448.8 143.2,448.8 		"/>
	</g>
	<g id="POLYLINE_46873_">
		<rect x="243" y="114.4" class="st6" width="2.2" height="107.8"/>
	</g>
	<g id="POLYLINE_46872_">
		<rect x="243" y="227.8" class="st6" width="2.2" height="107.8"/>
	</g>
	<g id="POLYLINE_46871_">
		<rect x="243" y="341.2" class="st6" width="2.2" height="107.8"/>
	</g>
	<g id="POLYLINE_46870_">
		<rect x="235" y="448.8" class="st6" width="4.6" height="2.8"/>
	</g>
	<g id="POLYLINE_46869_">
		<polyline class="st6" points="148.8,451.8 153.4,451.8 153.4,448.8 148.8,448.8 		"/>
	</g>
</g>
<g id="PLAN_x24_STRUCTURE_2.1">
</g>
<g id="PLAN_x24_STRUCTURE_1.3">
</g>
<g id="PLAN_x24_STRUCTURE_1.2">
</g>
<g id="PLAN_x24_STRUCTURE_1.1">
	<g id="POLYLINE_46617_">
		<polyline class="st7" points="147.2,114.4 147.2,116.6 144.8,116.6 144.8,114.4 		"/>
	</g>
	<g id="POLYLINE_46616_">
		<rect x="143.2" y="12.4" class="st7" width="5.6" height="5.6"/>
	</g>
	<g id="POLYLINE_46615_">
		<rect x="239.6" y="12.4" class="st7" width="5.6" height="5.6"/>
	</g>
	<g id="POLYLINE_46614_">
		<rect x="46.8" y="12.4" class="st7" width="5.6" height="5.6"/>
	</g>
	<g id="POLYLINE_46613_">
		<rect x="46.8" y="108.8" class="st7" width="5.6" height="5.6"/>
	</g>
	<g id="POLYLINE_46612_">
		<rect x="46.8" y="335.4" class="st7" width="5.6" height="5.6"/>
	</g>
	<g id="POLYLINE_46611_">
		<rect x="46.8" y="448.8" class="st7" width="5.6" height="5.6"/>
	</g>
	<g id="POLYLINE_46610_">
		<rect x="239.6" y="448.8" class="st7" width="5.6" height="5.6"/>
	</g>
	<g id="POLYLINE_46609_">
		<rect x="239.6" y="108.8" class="st7" width="5.6" height="5.6"/>
	</g>
	<g id="POLYLINE_46608_">
		<rect x="239.6" y="335.4" class="st7" width="5.6" height="5.6"/>
	</g>
	<g id="POLYLINE_46607_">
		<rect x="239.6" y="222.2" class="st7" width="5.6" height="5.6"/>
	</g>
	<g id="POLYLINE_46606_">
		<rect x="143.2" y="108.8" class="st7" width="5.6" height="5.6"/>
	</g>
	<g id="POLYLINE_46605_">
		<rect x="143.2" y="222.2" class="st7" width="5.6" height="5.6"/>
	</g>
	<g id="POLYLINE_46604_">
		<rect x="143.2" y="335.4" class="st7" width="5.6" height="5.6"/>
	</g>
	<g id="POLYLINE_46603_">
		<rect x="143.2" y="448.8" class="st7" width="5.6" height="5.6"/>
	</g>
</g>
</svg>
