<?xml version="1.0" encoding="utf-8"?>
<!-- Generator: Adobe Illustrator 22.0.1, SVG Export Plug-In . SVG Version: 6.00 Build 0)  -->
<svg version="1.1" id="Calque_1" xmlns="http://www.w3.org/2000/svg" xmlns:xlink="http://www.w3.org/1999/xlink" x="0px" y="0px"
	 viewBox="0 0 123.3 225.7" style="enable-background:new 0 0 123.3 225.7;" xml:space="preserve">
<style type="text/css">
	.st0{display:none;}
	.st1{display:inline;}
	.st2{fill:none;}
	.st3{fill:none;stroke:#000000;stroke-width:5.000000e-02;stroke-linecap:square;stroke-miterlimit:10;}
	.st4{fill:none;stroke:#000000;stroke-width:8.000000e-02;stroke-linecap:square;stroke-miterlimit:10;}
	.st5{fill:none;stroke:#000000;stroke-width:0.14;stroke-linecap:square;stroke-miterlimit:10;}
	.st6{fill:none;stroke:#000000;stroke-width:0.32;stroke-linecap:square;stroke-miterlimit:10;}
	.st7{fill:none;stroke:#000000;stroke-width:0.5;stroke-linecap:square;stroke-miterlimit:10;}
</style>
<g id="Calque_1_1_">
</g>
<g id="INFOS_x24_A4" class="st0">
	<g id="POLYLINE_46618_" class="st1">
		<rect x="-233" y="-327.3" class="st2" width="595.3" height="841.9"/>
	</g>
</g>
<g id="PLAN_x24_FOND">
</g>
<g id="PLAN_x24_POINTILLE">
</g>
<g id="PLAN_x24_VITRAGE">
	<g id="POLYLINE_47128_">
		<rect x="71" y="195.5" class="st3" width="0.3" height="5.1"/>
	</g>
	<g id="POLYLINE_47127_">
		<rect x="71" y="210.8" class="st3" width="0.3" height="10.2"/>
	</g>
	<g id="POLYLINE_47126_">
		<polygon class="st3" points="119.6,87.1 100.1,87.1 100.1,61.3 100.4,61.3 100.4,86.8 119.6,86.8 		"/>
	</g>
	<g id="POLYLINE_47125_">
		<rect x="100.1" y="52.1" class="st3" width="0.3" height="4.1"/>
	</g>
	<g id="POLYLINE_47124_">
		<polygon class="st3" points="117.9,164.3 102.5,164.3 102.5,168.7 102.7,168.7 102.7,164.6 117.9,164.6 		"/>
	</g>
	<g id="POLYLINE_47123_">
		<polygon class="st3" points="119.6,191.2 102.5,191.2 102.5,173.9 102.7,173.9 102.7,190.9 119.6,190.9 		"/>
	</g>
	<g id="POLYLINE_47122_">
		<rect x="95.2" y="221.6" class="st3" width="20.4" height="0.3"/>
	</g>
	<g id="POLYLINE_47121_">
		<rect x="74.8" y="221.6" class="st3" width="10.2" height="0.3"/>
	</g>
	<g id="POLYLINE_47120_">
		<rect x="26.6" y="221.6" class="st3" width="40.8" height="0.3"/>
	</g>
</g>
<g id="PLAN_x24_MOBILIER">
	<g id="POLYLINE_46853_">
		<polyline class="st4" points="49.5,17.1 48.8,16.8 45,15.5 47.4,8.3 51.2,9.6 51.9,9.9 		"/>
	</g>
	<g id="POLYLINE_46852_">
		<polyline class="st4" points="67.2,18.4 66.5,18.2 62.7,16.9 65.2,9.7 69,11 69.7,11.2 		"/>
	</g>
	<g id="POLYLINE_46851_">
		<rect x="52.4" y="151" class="st4" width="2.3" height="1.7"/>
	</g>
	<g id="POLYLINE_46850_">
		<rect x="47.2" y="151" class="st4" width="2.3" height="1.7"/>
	</g>
	<g id="POLYLINE_46849_">
		<rect x="42.1" y="151" class="st4" width="2.3" height="1.7"/>
	</g>
	<g id="POLYLINE_46848_">
		<rect x="36.9" y="151" class="st4" width="2.3" height="1.7"/>
	</g>
	<g id="POLYLINE_46847_">
		<rect x="31.8" y="151" class="st4" width="2.3" height="1.7"/>
	</g>
	<g id="POLYLINE_46846_">
		<rect x="26.6" y="151" class="st4" width="2.3" height="1.7"/>
	</g>
	<g id="POLYLINE_46845_">
		<rect x="21.5" y="151" class="st4" width="2.3" height="1.7"/>
	</g>
	<g id="POLYLINE_46844_">
		<rect x="16.4" y="151" class="st4" width="2.3" height="1.7"/>
	</g>
	<g id="POLYLINE_46843_">
		<rect x="16.4" y="140.8" class="st4" width="2.3" height="1.7"/>
	</g>
	<g id="POLYLINE_46842_">
		<rect x="21.5" y="140.8" class="st4" width="2.3" height="1.7"/>
	</g>
	<g id="POLYLINE_46841_">
		<rect x="26.6" y="140.8" class="st4" width="2.3" height="1.7"/>
	</g>
	<g id="POLYLINE_46840_">
		<rect x="31.8" y="140.8" class="st4" width="2.3" height="1.7"/>
	</g>
	<g id="POLYLINE_46839_">
		<rect x="36.9" y="140.8" class="st4" width="2.3" height="1.7"/>
	</g>
	<g id="POLYLINE_46838_">
		<rect x="42.1" y="140.8" class="st4" width="2.3" height="1.7"/>
	</g>
	<g id="POLYLINE_46837_">
		<rect x="47.2" y="140.8" class="st4" width="2.3" height="1.7"/>
	</g>
	<g id="POLYLINE_46836_">
		<rect x="52.4" y="140.8" class="st4" width="2.3" height="1.7"/>
	</g>
	<g id="POLYLINE_46835_">
		
			<rect x="107.6" y="192.7" transform="matrix(4.620149e-02 -0.9989 0.9989 4.620149e-02 -90.1899 295.567)" class="st4" width="4.2" height="4.5"/>
	</g>
	<g id="POLYLINE_46834_">
		<line class="st4" x1="107.5" y1="193.6" x2="112" y2="193.8"/>
	</g>
	<g id="POLYLINE_46833_">
		<line class="st4" x1="111.1" y1="197.2" x2="111.3" y2="193.8"/>
	</g>
	<g id="POLYLINE_46832_">
		<line class="st4" x1="108" y1="197" x2="108.1" y2="193.7"/>
	</g>
	<g id="POLYLINE_46831_">
		
			<rect x="100.9" y="197.3" transform="matrix(0.7065 -0.7077 0.7077 0.7065 -110.8115 131.51)" class="st4" width="4.5" height="4.2"/>
	</g>
	<g id="POLYLINE_46830_">
		<line class="st4" x1="100.7" y1="200.1" x2="103.9" y2="196.8"/>
	</g>
	<g id="POLYLINE_46829_">
		<line class="st4" x1="105.7" y1="199.7" x2="103.4" y2="197.3"/>
	</g>
	<g id="POLYLINE_46828_">
		<line class="st4" x1="103.5" y1="201.9" x2="101.1" y2="199.6"/>
	</g>
	<g id="POLYLINE_46827_">
		<line class="st4" x1="28.7" y1="18.7" x2="25.6" y2="17.5"/>
	</g>
	<g id="POLYLINE_46826_">
		<line class="st4" x1="29.9" y1="15.8" x2="26.7" y2="14.5"/>
	</g>
	<g id="POLYLINE_46825_">
		<line class="st4" x1="25.3" y1="18.1" x2="27" y2="13.9"/>
	</g>
	<g id="POLYLINE_46824_">
		<rect x="25.1" y="14.4" transform="matrix(0.3692 -0.9293 0.9293 0.3692 1.9321 35.8075)" class="st4" width="4.5" height="4.2"/>
	</g>
	<g id="POLYLINE_46823_">
		<rect x="34.2" y="10.3" transform="matrix(0.35 -0.9367 0.9367 0.35 12.143 42.2042)" class="st4" width="4.5" height="4.2"/>
	</g>
	<g id="POLYLINE_46822_">
		<line class="st4" x1="34.5" y1="14" x2="36.1" y2="9.8"/>
	</g>
	<g id="POLYLINE_46821_">
		<line class="st4" x1="39" y1="11.6" x2="35.8" y2="10.4"/>
	</g>
	<g id="POLYLINE_46820_">
		<line class="st4" x1="37.9" y1="14.6" x2="34.7" y2="13.4"/>
	</g>
	<g id="POLYLINE_46819_">
		<rect x="43.6" y="9.8" transform="matrix(0.3217 -0.9468 0.9468 0.3217 20.7282 54.0842)" class="st4" width="9.1" height="5.5"/>
	</g>
	<g id="POLYLINE_46818_">
		<line class="st4" x1="46.2" y1="11.9" x2="50.7" y2="13.5"/>
	</g>
	<g id="POLYLINE_46817_">
		<line class="st4" x1="64" y1="13.3" x2="68.5" y2="14.8"/>
	</g>
	<g id="POLYLINE_46816_">
		
			<rect x="61.3" y="11.2" transform="matrix(0.3217 -0.9468 0.9468 0.3217 31.4657 71.8321)" class="st4" width="9.1" height="5.5"/>
	</g>
	<g id="POLYLINE_46815_">
		<line class="st4" x1="90.3" y1="16" x2="87.8" y2="13.8"/>
	</g>
	<g id="POLYLINE_46814_">
		<line class="st4" x1="92.4" y1="13.6" x2="89.9" y2="11.4"/>
	</g>
	<g id="POLYLINE_46813_">
		<line class="st4" x1="87.3" y1="14.3" x2="90.3" y2="10.9"/>
	</g>
	<g id="POLYLINE_46812_">
		
			<rect x="87.5" y="11.3" transform="matrix(0.6545 -0.7561 0.7561 0.6545 20.8639 72.4982)" class="st4" width="4.5" height="4.2"/>
	</g>
	<g id="POLYLINE_46811_">
		<rect x="79" y="9.5" transform="matrix(0.6545 -0.7561 0.7561 0.6545 19.3313 65.4107)" class="st4" width="4.5" height="4.2"/>
	</g>
	<g id="POLYLINE_46810_">
		<line class="st4" x1="78.8" y1="12.4" x2="81.8" y2="9"/>
	</g>
	<g id="POLYLINE_46809_">
		<line class="st4" x1="83.9" y1="11.7" x2="81.3" y2="9.5"/>
	</g>
	<g id="POLYLINE_46808_">
		<line class="st4" x1="81.8" y1="14.1" x2="79.3" y2="11.9"/>
	</g>
	<g id="POLYLINE_46807_">
		
			<rect x="26.1" y="37.5" transform="matrix(9.319512e-02 -0.9956 0.9956 9.319512e-02 -13.8157 62.1218)" class="st4" width="2.3" height="2.3"/>
	</g>
	<g id="POLYLINE_46806_">
		<rect x="26.3" y="30.6" transform="matrix(0.1177 -0.993 0.993 0.1177 -7.2928 55.2457)" class="st4" width="2.3" height="2.3"/>
	</g>
	<g id="POLYLINE_46805_">
		
			<rect x="24.6" y="25.4" transform="matrix(0.1577 -0.9875 0.9875 0.1577 -4.5149 47.7996)" class="st4" width="2.3" height="2.3"/>
	</g>
	<g id="POLYLINE_46804_">
		<rect x="32.7" y="22.6" transform="matrix(0.2951 -0.9555 0.9555 0.2951 1.1981 49.1089)" class="st4" width="2.3" height="2.3"/>
	</g>
	<g id="POLYLINE_46803_">
		
			<rect x="34.1" y="29.2" transform="matrix(0.9995 -3.289864e-02 3.289864e-02 0.9995 -0.9776 1.1752)" class="st4" width="2.3" height="2.3"/>
	</g>
	<g id="POLYLINE_46802_">
		<rect x="35.4" y="36.5" transform="matrix(0.1026 -0.9947 0.9947 0.1026 -4.6509 70.199)" class="st4" width="2.3" height="2.3"/>
	</g>
	<g id="POLYLINE_46801_">
		
			<rect x="44.4" y="42.3" transform="matrix(0.9339 -0.3576 0.3576 0.9339 -12.5254 19.1487)" class="st4" width="2.3" height="2.3"/>
	</g>
	<g id="POLYLINE_46800_">
		
			<rect x="43.7" y="34.6" transform="matrix(6.219774e-02 -0.9981 0.9981 6.219774e-02 6.4122 78.2539)" class="st4" width="2.3" height="2.3"/>
	</g>
	<g id="POLYLINE_46799_">
		<rect x="42.6" y="27.6" transform="matrix(0.2676 -0.9635 0.9635 0.2676 4.4005 63.194)" class="st4" width="2.3" height="2.3"/>
	</g>
	<g id="POLYLINE_46798_">
		
			<rect x="43.7" y="21.1" transform="matrix(0.2583 -0.9661 0.9661 0.2583 11.7638 59.7602)" class="st4" width="2.3" height="2.3"/>
	</g>
	<g id="POLYLINE_46797_">
		
			<rect x="54.9" y="20.8" transform="matrix(0.3671 -0.9302 0.9302 0.3671 15.0638 66.0022)" class="st4" width="2.3" height="2.3"/>
	</g>
	<g id="POLYLINE_46796_">
		
			<rect x="55.3" y="27.7" transform="matrix(6.779993e-02 -0.9977 0.9977 6.779993e-02 23.882 83.1926)" class="st4" width="2.3" height="2.3"/>
	</g>
	<g id="POLYLINE_46795_">
		
			<rect x="55.1" y="33.1" transform="matrix(0.1211 -0.9926 0.9926 0.1211 15.4724 85.9544)" class="st4" width="2.3" height="2.3"/>
	</g>
	<g id="POLYLINE_46794_">
		<rect x="55.1" y="40.8" transform="matrix(0.9783 -0.2071 0.2071 0.9783 -7.4683 12.548)" class="st4" width="2.3" height="2.3"/>
	</g>
	<g id="POLYLINE_46793_">
		<rect x="66.6" y="42" transform="matrix(0.9339 -0.3576 0.3576 0.9339 -10.9348 27.0895)" class="st4" width="2.3" height="2.3"/>
	</g>
	<g id="POLYLINE_46792_">
		<rect x="65.9" y="34.6" transform="matrix(0.9339 -0.3576 0.3576 0.9339 -8.362 26.3371)" class="st4" width="2.3" height="2.3"/>
	</g>
	<g id="POLYLINE_46791_">
		<rect x="66.2" y="27.6" transform="matrix(0.159 -0.9873 0.9873 0.159 28.2343 90.6187)" class="st4" width="2.3" height="2.3"/>
	</g>
	<g id="POLYLINE_46790_">
		
			<rect x="66.3" y="22.2" transform="matrix(0.1205 -0.9927 0.9927 0.1205 36.1138 87.4157)" class="st4" width="2.3" height="2.3"/>
	</g>
	<g id="POLYLINE_46789_">
		
			<rect x="74.7" y="22.2" transform="matrix(0.2422 -0.9702 0.9702 0.2422 34.7987 91.2201)" class="st4" width="2.3" height="2.3"/>
	</g>
	<g id="POLYLINE_46788_">
		
			<rect x="75.3" y="27.6" transform="matrix(5.099993e-02 -0.9987 0.9987 5.099993e-02 43.8381 103.669)" class="st4" width="2.3" height="2.3"/>
	</g>
	<g id="POLYLINE_46787_">
		
			<rect x="75.8" y="34.4" transform="matrix(6.090267e-02 -0.9981 0.9981 6.090267e-02 36.6951 110.1685)" class="st4" width="2.3" height="2.3"/>
	</g>
	<g id="POLYLINE_46786_">
		
			<rect x="75.6" y="41.1" transform="matrix(0.9339 -0.3576 0.3576 0.9339 -10.0136 30.2153)" class="st4" width="2.3" height="2.3"/>
	</g>
	<g id="POLYLINE_46785_">
		
			<rect x="82.9" y="19.4" transform="matrix(0.4145 -0.9101 0.9101 0.4145 30.5532 88.5272)" class="st4" width="2.3" height="2.3"/>
	</g>
	<g id="POLYLINE_46784_">
		
			<rect x="84.1" y="26.7" transform="matrix(9.360092e-02 -0.9956 0.9956 9.360092e-02 49.4893 110.0989)" class="st4" width="2.3" height="2.3"/>
	</g>
	<g id="POLYLINE_46783_">
		<rect x="84.9" y="33.4" transform="matrix(0.1337 -0.991 0.991 0.1337 40.2974 115.1306)" class="st4" width="2.3" height="2.3"/>
	</g>
	<g id="POLYLINE_46782_">
		
			<rect x="26.3" y="44.1" transform="matrix(0.9339 -0.3576 0.3576 0.9339 -14.3584 12.7894)" class="st4" width="2.3" height="2.3"/>
	</g>
	<g id="POLYLINE_46781_">
		
			<rect x="35.1" y="42.6" transform="matrix(0.9339 -0.3576 0.3576 0.9339 -13.2292 15.8608)" class="st4" width="2.3" height="2.3"/>
	</g>
	<g id="POLYLINE_46780_">
		<rect x="84.4" y="40.7" transform="matrix(0.9339 -0.3576 0.3576 0.9339 -9.3132 33.37)" class="st4" width="2.3" height="2.3"/>
	</g>
	<g id="SPLINE_1430_">
		<path class="st4" d="M52.8,55.5c0.2,0.1,0.5,0.1,0.7,0.1c0.2,0,0.4,0,0.5,0c0.2,0,0.5,0,0.7-0.1c0.1,0,0.2-0.1,0.3-0.2
			c0.1-0.2,0.2-0.4,0.2-0.6c0-0.1,0-0.2,0-0.3c0-0.2-0.1-0.3-0.2-0.4c-0.2-0.2-0.4-0.3-0.7-0.3c-0.3,0-0.5-0.1-0.8,0
			c-0.2,0-0.4,0-0.5,0.1c-0.1,0-0.2,0-0.3,0.1"/>
	</g>
	<g id="POLYLINE_46779_">
		<rect x="51.3" y="53.1" class="st4" width="1.5" height="3"/>
	</g>
	<g id="SPLINE_1429_">
		<path class="st4" d="M52.8,63.6c0.2,0.1,0.5,0.1,0.7,0.1c0.2,0,0.4,0,0.5,0c0.2,0,0.5,0,0.7-0.1c0.1,0,0.2-0.1,0.3-0.2
			c0.1-0.2,0.2-0.4,0.2-0.6c0-0.1,0-0.2,0-0.3c0-0.2-0.1-0.3-0.2-0.4c-0.2-0.2-0.4-0.3-0.7-0.3c-0.3,0-0.5-0.1-0.8,0
			c-0.2,0-0.4,0-0.5,0.1c-0.1,0-0.2,0-0.3,0.1"/>
	</g>
	<g id="POLYLINE_46778_">
		<rect x="51.3" y="61.2" class="st4" width="1.5" height="3"/>
	</g>
	<g id="SPLINE_1428_">
		<path class="st4" d="M52.8,68.2c0.2,0.1,0.5,0.1,0.7,0.1c0.2,0,0.4,0,0.5,0c0.2,0,0.5,0,0.7-0.1c0.1,0,0.2-0.1,0.3-0.2
			c0.1-0.2,0.2-0.4,0.2-0.6c0-0.1,0-0.2,0-0.3c0-0.2-0.1-0.3-0.2-0.4c-0.2-0.2-0.4-0.3-0.7-0.3c-0.3,0-0.5-0.1-0.8,0
			c-0.2,0-0.4,0-0.5,0.1c-0.1,0-0.2,0-0.3,0.1"/>
	</g>
	<g id="POLYLINE_46777_">
		<rect x="51.3" y="65.8" class="st4" width="1.5" height="3"/>
	</g>
	<g id="SPLINE_1427_">
		<path class="st4" d="M52.8,72.8c0.2,0.1,0.5,0.1,0.7,0.1c0.2,0,0.4,0,0.5,0c0.2,0,0.5,0,0.7-0.1c0.1,0,0.2-0.1,0.3-0.2
			c0.1-0.2,0.2-0.4,0.2-0.6c0-0.1,0-0.2,0-0.3c0-0.2-0.1-0.3-0.2-0.4c-0.2-0.2-0.4-0.3-0.7-0.3c-0.3,0-0.5-0.1-0.8,0
			c-0.2,0-0.4,0-0.5,0.1c-0.1,0-0.2,0-0.3,0.1"/>
	</g>
	<g id="POLYLINE_46776_">
		<rect x="51.3" y="70.4" class="st4" width="1.5" height="3"/>
	</g>
	<g id="POLYLINE_46775_">
		<rect x="68.1" y="70.4" class="st4" width="2.1" height="3"/>
	</g>
	<g id="CIRCLE_1513_">
		<path class="st4" d="M69.7,71.9c0-0.1,0.1-0.1,0.1-0.1s0.1,0.1,0.1,0.1s-0.1,0.1-0.1,0.1S69.7,72,69.7,71.9L69.7,71.9z"/>
	</g>
	<g id="CIRCLE_1512_">
		<path class="st4" d="M69.7,67c0-0.1,0.1-0.1,0.1-0.1S70,66.9,70,67c0,0.1-0.1,0.1-0.1,0.1S69.7,67.1,69.7,67L69.7,67z"/>
	</g>
	<g id="POLYLINE_46774_">
		<rect x="68.1" y="65.4" class="st4" width="2.1" height="3"/>
	</g>
	<g id="POLYLINE_46773_">
		<rect x="84.1" y="68" class="st4" width="1.7" height="2.3"/>
	</g>
	<g id="POLYLINE_46772_">
		<rect x="75.6" y="68" class="st4" width="1.7" height="2.3"/>
	</g>
	<g id="POLYLINE_46771_">
		<rect x="84.1" y="80.4" class="st4" width="1.7" height="2.3"/>
	</g>
	<g id="POLYLINE_46770_">
		<rect x="75.6" y="80.4" class="st4" width="1.7" height="2.3"/>
	</g>
	<g id="POLYLINE_46769_">
		<rect x="84.1" y="92.9" class="st4" width="1.7" height="2.3"/>
	</g>
	<g id="POLYLINE_46768_">
		<rect x="75.6" y="92.9" class="st4" width="1.7" height="2.3"/>
	</g>
	<g id="POLYLINE_46767_">
		<rect x="84.1" y="104.8" class="st4" width="1.7" height="2.3"/>
	</g>
	<g id="POLYLINE_46766_">
		<rect x="75.6" y="104.8" class="st4" width="1.7" height="2.3"/>
	</g>
	<g id="POLYLINE_46765_">
		<rect x="84.1" y="120.4" class="st4" width="1.7" height="2.3"/>
	</g>
	<g id="POLYLINE_46764_">
		<rect x="75.6" y="120.4" class="st4" width="1.7" height="2.3"/>
	</g>
	<g id="POLYLINE_46763_">
		<rect x="75.6" y="132.9" class="st4" width="1.7" height="2.3"/>
	</g>
	<g id="POLYLINE_46762_">
		<rect x="84.1" y="132.9" class="st4" width="1.7" height="2.3"/>
	</g>
	<g id="POLYLINE_46761_">
		<rect x="115.6" y="72.1" class="st4" width="2.3" height="1.7"/>
	</g>
	<g id="POLYLINE_46760_">
		<rect x="107.6" y="72.1" class="st4" width="2.3" height="1.7"/>
	</g>
	<g id="POLYLINE_46759_">
		<rect x="107.6" y="62.4" class="st4" width="2.3" height="1.7"/>
	</g>
	<g id="POLYLINE_46758_">
		<rect x="115.6" y="62.4" class="st4" width="2.3" height="1.7"/>
	</g>
	<g id="POLYLINE_46757_">
		<rect x="113.7" y="100.6" class="st4" width="2.3" height="1.7"/>
	</g>
	<g id="POLYLINE_46756_">
		<rect x="105.7" y="100.6" class="st4" width="2.3" height="1.7"/>
	</g>
	<g id="POLYLINE_46755_">
		<rect x="105.7" y="91" class="st4" width="2.3" height="1.7"/>
	</g>
	<g id="POLYLINE_46754_">
		<rect x="113.7" y="91" class="st4" width="2.3" height="1.7"/>
	</g>
	<g id="POLYLINE_46753_">
		<rect x="113.7" y="126" class="st4" width="2.3" height="1.7"/>
	</g>
	<g id="POLYLINE_46752_">
		<rect x="105.7" y="126" class="st4" width="2.3" height="1.7"/>
	</g>
	<g id="POLYLINE_46751_">
		<rect x="105.7" y="116.4" class="st4" width="2.3" height="1.7"/>
	</g>
	<g id="POLYLINE_46750_">
		<rect x="113.7" y="116.4" class="st4" width="2.3" height="1.7"/>
	</g>
	<g id="POLYLINE_46749_">
		<rect x="113.7" y="145.9" class="st4" width="2.3" height="1.7"/>
	</g>
	<g id="POLYLINE_46748_">
		<rect x="105.7" y="145.9" class="st4" width="2.3" height="1.7"/>
	</g>
	<g id="POLYLINE_46747_">
		<rect x="105.7" y="155.6" class="st4" width="2.3" height="1.7"/>
	</g>
	<g id="POLYLINE_46746_">
		<rect x="113.7" y="155.6" class="st4" width="2.3" height="1.7"/>
	</g>
	<g id="POLYLINE_46745_">
		<rect x="114.6" y="175.5" class="st4" width="1.7" height="2.3"/>
	</g>
	<g id="POLYLINE_46744_">
		<rect x="109.3" y="184.9" class="st4" width="2.3" height="1.7"/>
	</g>
	<g id="POLYLINE_46743_">
		<line class="st4" x1="58.8" y1="176.2" x2="56.8" y2="176.2"/>
	</g>
	<g id="POLYLINE_46742_">
		<rect x="56.8" y="174" class="st4" width="2" height="4.3"/>
	</g>
	<g id="POLYLINE_46741_">
		<line class="st4" x1="59.5" y1="173.3" x2="56.1" y2="173.3"/>
	</g>
	<g id="POLYLINE_46740_">
		<line class="st4" x1="59.5" y1="169.9" x2="56.1" y2="169.9"/>
	</g>
	<g id="POLYLINE_46739_">
		<line class="st4" x1="60.5" y1="168.9" x2="60.5" y2="165.5"/>
	</g>
	<g id="POLYLINE_46738_">
		<polyline class="st4" points="63.9,165.5 56.1,165.5 56.1,180.7 59.5,180.7 59.5,169.9 60.5,168.9 63.9,168.9 		"/>
	</g>
	<g id="POLYLINE_46737_">
		
			<rect x="86.1" y="171.8" transform="matrix(0.2076 -0.9782 0.9782 0.2076 -100.0232 222.3883)" class="st4" width="2.3" height="2.3"/>
	</g>
	<g id="POLYLINE_46736_">
		
			<rect x="79.5" y="175.9" transform="matrix(0.2076 -0.9782 0.9782 0.2076 -109.2244 219.1687)" class="st4" width="2.3" height="2.3"/>
	</g>
	<g id="POLYLINE_46735_">
		
			<rect x="75.5" y="169.3" transform="matrix(0.2076 -0.9782 0.9782 0.2076 -106.0061 209.9681)" class="st4" width="2.3" height="2.3"/>
	</g>
	<g id="POLYLINE_46734_">
		
			<rect x="82.1" y="165.2" transform="matrix(0.2076 -0.9782 0.9782 0.2076 -96.8047 213.1875)" class="st4" width="2.3" height="2.3"/>
	</g>
	<g id="POLYLINE_46733_">
		
			<rect x="84.3" y="186.5" transform="matrix(0.9855 -0.1698 0.1698 0.9855 -30.6176 17.2253)" class="st4" width="2.3" height="2.3"/>
	</g>
	<g id="POLYLINE_46732_">
		
			<rect x="79.7" y="192.7" transform="matrix(0.9855 -0.1698 0.1698 0.9855 -31.746 16.5348)" class="st4" width="2.3" height="2.3"/>
	</g>
	<g id="POLYLINE_46731_">
		
			<rect x="73.4" y="188.1" transform="matrix(0.9855 -0.1698 0.1698 0.9855 -31.0554 15.4064)" class="st4" width="2.3" height="2.3"/>
	</g>
	<g id="POLYLINE_46730_">
		<rect x="78" y="181.9" transform="matrix(0.9855 -0.1698 0.1698 0.9855 -29.9271 16.097)" class="st4" width="2.3" height="2.3"/>
	</g>
	<g id="POLYLINE_46729_">
		<rect x="55.9" y="186.2" transform="matrix(0.8081 -0.589 0.589 0.8081 -99.4161 69.549)" class="st4" width="2.3" height="2.3"/>
	</g>
	<g id="POLYLINE_46728_">
		
			<rect x="48.3" y="184.8" transform="matrix(0.8081 -0.589 0.589 0.8081 -100.0626 64.7996)" class="st4" width="2.3" height="2.3"/>
	</g>
	<g id="POLYLINE_46727_">
		
			<rect x="46.9" y="192.5" transform="matrix(0.8081 -0.589 0.589 0.8081 -104.8121 65.4466)" class="st4" width="2.3" height="2.3"/>
	</g>
	<g id="POLYLINE_46726_">
		
			<rect x="54.5" y="193.8" transform="matrix(0.8081 -0.589 0.589 0.8081 -104.165 70.1955)" class="st4" width="2.3" height="2.3"/>
	</g>
	<g id="POLYLINE_46725_">
		
			<rect x="34.5" y="199.5" transform="matrix(0.8081 -0.589 0.589 0.8081 -111.3271 59.4568)" class="st4" width="2.3" height="2.3"/>
	</g>
	<g id="POLYLINE_46724_">
		
			<rect x="26.8" y="198.1" transform="matrix(0.8081 -0.589 0.589 0.8081 -111.9751 54.7081)" class="st4" width="2.3" height="2.3"/>
	</g>
	<g id="POLYLINE_46723_">
		<rect x="28.2" y="190.5" transform="matrix(0.8081 -0.589 0.589 0.8081 -107.2257 54.06)" class="st4" width="2.3" height="2.3"/>
	</g>
	<g id="POLYLINE_46722_">
		
			<rect x="35.8" y="191.9" transform="matrix(0.8081 -0.589 0.589 0.8081 -106.5785 58.8094)" class="st4" width="2.3" height="2.3"/>
	</g>
	<g id="POLYLINE_46721_">
		<rect x="55.6" y="208.4" class="st4" width="2.3" height="2.3"/>
	</g>
	<g id="POLYLINE_46720_">
		<rect x="55.6" y="215.7" class="st4" width="2.3" height="2.3"/>
	</g>
	<g id="POLYLINE_46719_">
		<rect x="51.4" y="208.4" class="st4" width="2.3" height="2.3"/>
	</g>
	<g id="POLYLINE_46718_">
		<rect x="51.4" y="215.7" class="st4" width="2.3" height="2.3"/>
	</g>
	<g id="POLYLINE_46717_">
		<rect x="48" y="208.4" class="st4" width="2.3" height="2.3"/>
	</g>
	<g id="POLYLINE_46716_">
		<rect x="48" y="215.7" class="st4" width="2.3" height="2.3"/>
	</g>
	<g id="POLYLINE_46715_">
		<rect x="43.3" y="208.4" class="st4" width="2.3" height="2.3"/>
	</g>
	<g id="POLYLINE_46714_">
		<rect x="43.3" y="215.7" class="st4" width="2.3" height="2.3"/>
	</g>
	<g id="POLYLINE_46713_">
		<rect x="39.4" y="208.4" class="st4" width="2.3" height="2.3"/>
	</g>
	<g id="POLYLINE_46712_">
		<rect x="39.4" y="215.7" class="st4" width="2.3" height="2.3"/>
	</g>
	<g id="POLYLINE_46711_">
		<rect x="35.2" y="208.4" class="st4" width="2.3" height="2.3"/>
	</g>
	<g id="POLYLINE_46710_">
		<rect x="35.2" y="215.7" class="st4" width="2.3" height="2.3"/>
	</g>
	<g id="POLYLINE_46709_">
		<rect x="30.1" y="215.7" class="st4" width="2.3" height="2.3"/>
	</g>
	<g id="POLYLINE_46708_">
		<rect x="30.1" y="208.4" class="st4" width="2.3" height="2.3"/>
	</g>
	<g id="POLYLINE_46707_">
		<rect x="26.8" y="176.9" class="st4" width="2.3" height="2.3"/>
	</g>
	<g id="POLYLINE_46706_">
		<rect x="26.8" y="171.7" class="st4" width="2.3" height="2.3"/>
	</g>
	<g id="POLYLINE_46705_">
		<rect x="40.1" y="171.7" class="st4" width="2.3" height="2.3"/>
	</g>
	<g id="POLYLINE_46704_">
		<rect x="40.1" y="176.8" class="st4" width="2.3" height="2.3"/>
	</g>
	<g id="CIRCLE_1511_">
		<path class="st4" d="M115.1,43.7c0-0.6,0.5-1.2,1.2-1.2s1.2,0.5,1.2,1.2s-0.5,1.2-1.2,1.2S115.1,44.3,115.1,43.7L115.1,43.7z"/>
	</g>
	<g id="CIRCLE_1510_">
		<path class="st4" d="M112.8,40c0-0.6,0.5-1.2,1.2-1.2s1.2,0.5,1.2,1.2s-0.5,1.2-1.2,1.2S112.8,40.6,112.8,40L112.8,40z"/>
	</g>
	<g id="CIRCLE_1509_">
		<path class="st4" d="M78.2,171.7c0-2,1.6-3.7,3.7-3.7s3.7,1.6,3.7,3.7s-1.6,3.7-3.7,3.7S78.2,173.7,78.2,171.7L78.2,171.7z"/>
	</g>
	<g id="CIRCLE_1508_">
		<path class="st4" d="M109.7,216c0-0.6,0.5-1.2,1.2-1.2s1.2,0.5,1.2,1.2c0,0.6-0.5,1.2-1.2,1.2S109.7,216.7,109.7,216L109.7,216z"
			/>
	</g>
	<g id="CIRCLE_1507_">
		<path class="st4" d="M104.9,212.7c0-0.6,0.5-1.2,1.2-1.2s1.2,0.5,1.2,1.2c0,0.6-0.5,1.2-1.2,1.2S104.9,213.4,104.9,212.7
			L104.9,212.7z"/>
	</g>
	<g id="CIRCLE_1506_">
		<path class="st4" d="M106.6,206.1c0-1.5,1.2-2.7,2.7-2.7c1.5,0,2.7,1.2,2.7,2.7s-1.2,2.7-2.7,2.7
			C107.8,208.8,106.6,207.6,106.6,206.1L106.6,206.1z"/>
	</g>
	<g id="POLYLINE_46703_">
		<rect x="54.9" y="211.5" class="st4" width="3.4" height="3.4"/>
	</g>
	<g id="POLYLINE_46702_">
		<rect x="46.7" y="211.5" class="st4" width="3.4" height="3.4"/>
	</g>
	<g id="POLYLINE_46701_">
		<rect x="38.7" y="211.5" class="st4" width="3.4" height="3.4"/>
	</g>
	<g id="POLYLINE_46700_">
		<rect x="34.5" y="211.5" class="st4" width="3.4" height="3.4"/>
	</g>
	<g id="POLYLINE_46699_">
		<rect x="42.6" y="211.5" class="st4" width="3.4" height="3.4"/>
	</g>
	<g id="POLYLINE_46698_">
		<rect x="50.7" y="211.5" class="st4" width="3.4" height="3.4"/>
	</g>
	<g id="POLYLINE_46697_">
		<rect x="29.4" y="211.5" class="st4" width="3.4" height="3.4"/>
	</g>
	<g id="CIRCLE_1505_">
		<path class="st4" d="M28.8,196.1c0-2,1.6-3.7,3.7-3.7s3.7,1.7,3.7,3.7s-1.6,3.7-3.7,3.7S28.8,198.1,28.8,196.1L28.8,196.1z"/>
	</g>
	<g id="CIRCLE_1504_">
		<path class="st4" d="M48.9,190.5c0-2,1.6-3.7,3.7-3.7s3.7,1.7,3.7,3.7s-1.6,3.7-3.7,3.7S48.9,192.5,48.9,190.5L48.9,190.5z"/>
	</g>
	<g id="CIRCLE_1503_">
		<path class="st4" d="M76.3,188.4c0-2,1.6-3.7,3.7-3.7s3.7,1.6,3.7,3.7c0,2-1.6,3.7-3.7,3.7S76.3,190.5,76.3,188.4L76.3,188.4z"/>
	</g>
	<g id="POLYLINE_46696_">
		<rect x="100.7" y="81.8" class="st4" width="4.5" height="4"/>
	</g>
	<g id="POLYLINE_46695_">
		<rect x="103" y="164.9" class="st4" width="12.7" height="2.8"/>
	</g>
	<g id="POLYLINE_46694_">
		<rect x="67.7" y="63.7" class="st4" width="2.8" height="10.5"/>
	</g>
	<g id="POLYLINE_46693_">
		<line class="st4" x1="60.6" y1="74.2" x2="60.6" y2="73.6"/>
	</g>
	<g id="POLYLINE_46692_">
		<rect x="100.7" y="52.1" class="st4" width="11.7" height="2.8"/>
	</g>
	<g id="POLYLINE_46691_">
		<rect x="71.7" y="98.1" class="st4" width="2.8" height="4"/>
	</g>
	<g id="POLYLINE_46690_">
		<rect x="71.7" y="85.9" class="st4" width="2.8" height="4"/>
	</g>
	<g id="POLYLINE_46689_">
		<rect x="71.7" y="73.8" class="st4" width="2.8" height="4"/>
	</g>
	<g id="POLYLINE_46688_">
		<rect x="63.9" y="165.5" class="st4" width="5.7" height="3.4"/>
	</g>
	<g id="POLYLINE_46687_">
		<rect x="66.3" y="172.3" class="st4" width="3.4" height="3.4"/>
	</g>
	<g id="POLYLINE_46686_">
		<rect x="66.3" y="168.9" class="st4" width="3.4" height="3.4"/>
	</g>
	<g id="POLYLINE_46685_">
		<rect x="71.7" y="139.1" class="st4" width="2.8" height="4"/>
	</g>
	<g id="POLYLINE_46684_">
		<rect x="71.7" y="126.4" class="st4" width="2.8" height="4"/>
	</g>
	<g id="POLYLINE_46683_">
		<rect x="71.7" y="112.8" class="st4" width="2.8" height="4"/>
	</g>
	<g id="POLYLINE_46682_">
		<rect x="71.7" y="174.8" class="st4" width="2.8" height="5.7"/>
	</g>
	<g id="POLYLINE_46681_">
		
			<rect x="65.8" y="178.4" transform="matrix(1 -8.199724e-03 8.199724e-03 1 -1.4725 0.5574)" class="st4" width="2.8" height="2.8"/>
	</g>
	<g id="POLYLINE_46680_">
		
			<rect x="65.9" y="182.1" transform="matrix(1 -8.199724e-03 8.199724e-03 1 -1.5023 0.5578)" class="st4" width="2.8" height="2.8"/>
	</g>
	<g id="POLYLINE_46679_">
		<rect x="30.4" y="169.9" class="st4" width="8.5" height="11.4"/>
	</g>
	<g id="POLYLINE_46678_">
		<rect x="115.7" y="217.6" class="st4" width="2.8" height="2.8"/>
	</g>
	<g id="POLYLINE_46677_">
		<rect x="112.3" y="217.6" class="st4" width="2.8" height="2.8"/>
	</g>
	<g id="POLYLINE_46676_">
		<rect x="108.6" y="217.6" class="st4" width="2.8" height="2.8"/>
	</g>
	<g id="POLYLINE_46675_">
		<rect x="104.3" y="217.6" class="st4" width="2.8" height="2.8"/>
	</g>
	<g id="POLYLINE_46674_">
		<rect x="116.7" y="195.8" class="st4" width="2.8" height="20.4"/>
	</g>
	<g id="POLYLINE_46673_">
		<rect x="104.5" y="64.1" class="st4" width="15.1" height="9.5"/>
	</g>
	<g id="POLYLINE_46672_">
		<rect x="111.3" y="82.9" class="st4" width="8.3" height="2.8"/>
	</g>
	<g id="POLYLINE_46671_">
		<rect x="102.6" y="92.7" class="st4" width="17" height="7.9"/>
	</g>
	<g id="POLYLINE_46670_">
		<rect x="102.6" y="118.1" class="st4" width="17" height="7.9"/>
	</g>
	<g id="POLYLINE_46669_">
		<rect x="116.7" y="133.5" class="st4" width="2.8" height="8"/>
	</g>
	<g id="POLYLINE_46654_">
		<rect x="102.6" y="147.6" class="st4" width="17" height="7.9"/>
	</g>
	<g id="POLYLINE_46653_">
		<rect x="77.3" y="101.7" class="st4" width="6.8" height="8.5"/>
	</g>
	<g id="POLYLINE_46652_">
		<rect x="104.9" y="107.7" class="st4" width="11.5" height="2.8"/>
	</g>
	<g id="POLYLINE_46651_">
		<rect x="29.6" y="130.3" class="st4" width="8.5" height="2.8"/>
	</g>
	<g id="POLYLINE_46650_">
		<rect x="21.1" y="130.3" class="st4" width="8.5" height="2.8"/>
	</g>
	<g id="POLYLINE_46649_">
		<rect x="12.6" y="130.3" class="st4" width="8.5" height="2.8"/>
	</g>
	<g id="POLYLINE_46648_">
		<rect x="4.1" y="130.3" class="st4" width="8.5" height="2.8"/>
	</g>
	<g id="POLYLINE_46647_">
		<rect x="12.9" y="142.5" class="st4" width="44" height="8.5"/>
	</g>
	<g id="POLYLINE_46646_">
		<rect x="77.3" y="64.9" class="st4" width="6.8" height="8.5"/>
	</g>
	<g id="POLYLINE_46640_">
		<rect x="77.3" y="117.3" class="st4" width="6.8" height="8.5"/>
	</g>
	<g id="POLYLINE_46639_">
		<rect x="77.3" y="129.8" class="st4" width="6.8" height="8.5"/>
	</g>
	<g id="POLYLINE_46638_">
		<rect x="77.3" y="89.8" class="st4" width="6.8" height="8.5"/>
	</g>
	<g id="POLYLINE_46637_">
		<rect x="77.3" y="77.3" class="st4" width="6.8" height="8.5"/>
	</g>
	<g id="POLYLINE_46636_">
		<rect x="106.1" y="180.9" class="st4" width="8.5" height="4"/>
	</g>
	<g id="POLYLINE_46635_">
		<rect x="110.7" y="172.4" class="st4" width="4" height="8.5"/>
	</g>
	<g id="POLYLINE_46634_">
		<rect x="117.4" y="16.9" class="st4" width="0.6" height="17.9"/>
	</g>
	<g id="POLYLINE_46633_">
		<rect x="116.4" y="6.3" class="st4" width="2.8" height="8"/>
	</g>
	<g id="CIRCLE_1502_">
		<path class="st4" d="M57.3,177.1c0-0.1,0.1-0.1,0.1-0.1s0.1,0.1,0.1,0.1s-0.1,0.1-0.1,0.1S57.3,177.1,57.3,177.1L57.3,177.1z"/>
	</g>
	<g id="CIRCLE_1501_">
		<path class="st4" d="M57.2,175.4c0-0.1,0.1-0.2,0.2-0.2s0.2,0.1,0.2,0.2s-0.1,0.2-0.2,0.2C57.3,175.5,57.2,175.4,57.2,175.4
			L57.2,175.4z"/>
	</g>
</g>
<g id="PLAN_x24_DETAIL">
	<g id="POLYLINE_46668_">
		<line class="st4" x1="100.3" y1="56.2" x2="105.4" y2="56.2"/>
	</g>
	<g id="ARC_3806_">
		<path class="st4" d="M100.3,61.3c2.8,0,5.1-2.3,5.1-5.1"/>
	</g>
	<g id="POLYLINE_46667_">
		<line class="st4" x1="102.6" y1="168.7" x2="107.7" y2="168.7"/>
	</g>
	<g id="ARC_3805_">
		<path class="st4" d="M102.6,173.9c2.8,0,5.1-2.3,5.1-5.1"/>
	</g>
	<g id="POLYLINE_46666_">
		<line class="st4" x1="92.4" y1="51.5" x2="92.4" y2="46.4"/>
	</g>
	<g id="ARC_3804_">
		<path class="st4" d="M97.5,51.5c0-2.8-2.3-5.1-5.1-5.1"/>
	</g>
	<g id="POLYLINE_46665_">
		<line class="st4" x1="71.1" y1="54.9" x2="66" y2="54.9"/>
	</g>
	<g id="ARC_3803_">
		<path class="st4" d="M66,54.9c0,2.8,2.3,5.1,5.1,5.1"/>
	</g>
	<g id="POLYLINE_46664_">
		<line class="st4" x1="71.1" y1="210.8" x2="66" y2="210.8"/>
	</g>
	<g id="ARC_3802_">
		<path class="st4" d="M71.1,205.7c-2.8,0-5.1,2.3-5.1,5.1"/>
	</g>
	<g id="ARC_3801_">
		<path class="st4" d="M66,200.6c0,2.8,2.3,5.1,5.1,5.1"/>
	</g>
	<g id="POLYLINE_46663_">
		<line class="st4" x1="66" y1="200.6" x2="71.1" y2="200.6"/>
	</g>
	<g id="POLYLINE_46662_">
		<line class="st4" x1="85" y1="221.8" x2="85" y2="216.6"/>
	</g>
	<g id="ARC_3800_">
		<path class="st4" d="M90.1,221.8c0-2.8-2.3-5.1-5.1-5.1"/>
	</g>
	<g id="ARC_3799_">
		<path class="st4" d="M95.2,216.6c-2.8,0-5.1,2.3-5.1,5.1"/>
	</g>
	<g id="POLYLINE_46661_">
		<line class="st4" x1="95.2" y1="216.6" x2="95.2" y2="221.8"/>
	</g>
	<g id="POLYLINE_46660_">
		<line class="st4" x1="71.1" y1="146.3" x2="66" y2="146.3"/>
	</g>
	<g id="ARC_3798_">
		<path class="st4" d="M66,146.3c0,2.8,2.3,5.1,5.1,5.1"/>
	</g>
	<g id="ARC_3797_">
		<path class="st4" d="M71.1,151.4c-2.8,0-5.1,2.3-5.1,5.1"/>
	</g>
	<g id="POLYLINE_46659_">
		<line class="st4" x1="66" y1="156.5" x2="71.1" y2="156.5"/>
	</g>
	<g id="ARC_3796_">
		<path class="st4" d="M57.2,70.2c0,1.9,1.5,3.4,3.4,3.4"/>
	</g>
	<g id="POLYLINE_46658_">
		<line class="st4" x1="57.2" y1="70.2" x2="60.6" y2="70.2"/>
	</g>
	<g id="ARC_3795_">
		<path class="st4" d="M57.2,65.6c0,1.9,1.5,3.4,3.4,3.4"/>
	</g>
	<g id="POLYLINE_46657_">
		<line class="st4" x1="57.2" y1="65.6" x2="60.6" y2="65.6"/>
	</g>
	<g id="ARC_3794_">
		<path class="st4" d="M57.2,60.9c0,1.9,1.5,3.4,3.4,3.4"/>
	</g>
	<g id="POLYLINE_46656_">
		<line class="st4" x1="57.2" y1="60.9" x2="60.6" y2="60.9"/>
	</g>
	<g id="ARC_3793_">
		<path class="st4" d="M57.2,56.3c0,1.9,1.5,3.4,3.4,3.4"/>
	</g>
	<g id="POLYLINE_46655_">
		<line class="st4" x1="57.2" y1="56.3" x2="60.6" y2="56.3"/>
	</g>
</g>
<g id="PLAN_x24_CLOISON_TRANSLUCIDE">
</g>
<g id="PLAN_x24_CLOISON_1.3">
	<g id="POLYLINE_46645_">
		<rect x="60.4" y="73.6" class="st5" width="0.3" height="0.6"/>
	</g>
	<g id="POLYLINE_46644_">
		<rect x="60.4" y="52.1" class="st5" width="0.3" height="4.2"/>
	</g>
	<g id="POLYLINE_46643_">
		<polyline class="st5" points="51.3,60.5 60.4,60.5 60.4,60.9 60.6,60.9 60.6,59.7 60.4,59.7 60.4,60.2 51.3,60.2 		"/>
	</g>
	<g id="POLYLINE_46642_">
		<polyline class="st5" points="51.3,65.1 60.4,65.1 60.4,65.6 60.6,65.6 60.6,64.3 60.4,64.3 60.4,64.8 51.3,64.8 		"/>
	</g>
	<g id="POLYLINE_46641_">
		<polyline class="st5" points="51.3,69.7 60.4,69.7 60.4,70.2 60.6,70.2 60.6,69 60.4,69 60.4,69.4 51.3,69.4 		"/>
	</g>
</g>
<g id="PLAN_x24_CLOISON_1.2">
</g>
<g id="PLAN_x24_CLOISON_1.1">
</g>
<g id="PLAN_x24_STRUCTURE_2.3">
</g>
<g id="PLAN_x24_STRUCTURE_2.2">
	<g id="POLYLINE_47082_">
		<rect x="70.5" y="167.2" class="st6" width="1.1" height="28.3"/>
	</g>
	<g id="POLYLINE_47081_">
		<rect x="70.5" y="156.5" class="st6" width="1.1" height="7.9"/>
	</g>
	<g id="POLYLINE_47080_">
		<rect x="70.5" y="110.5" class="st6" width="1.1" height="35.8"/>
	</g>
	<g id="POLYLINE_47079_">
		<rect x="70.5" y="60" class="st6" width="1.1" height="47.6"/>
	</g>
	<g id="POLYLINE_47078_">
		<rect x="97.5" y="51" class="st6" width="20.4" height="1.1"/>
	</g>
	<g id="POLYLINE_47077_">
		<rect x="72.5" y="51" class="st6" width="19.9" height="1.1"/>
	</g>
	<g id="POLYLINE_47076_">
		<polygon class="st6" points="51.3,52.1 69.7,52.1 69.7,51 24.3,51 24.3,52.1 50.2,52.1 50.2,75.3 70.5,75.3 70.5,74.2 51.3,74.2 
					"/>
	</g>
	<g id="POLYLINE_47075_">
		<rect x="22.4" y="5.6" class="st6" width="1.1" height="45.4"/>
	</g>
	<g id="POLYLINE_47074_">
		<line class="st6" x1="51.3" y1="51" x2="50.2" y2="51"/>
	</g>
	<g id="POLYLINE_47073_">
		<rect x="72.5" y="3.6" class="st6" width="45.4" height="1.1"/>
	</g>
	<g id="POLYLINE_46880_">
		<rect x="24.3" y="3.6" class="st6" width="45.4" height="1.1"/>
	</g>
	<g id="POLYLINE_46879_">
		<rect x="119.6" y="5.6" class="st6" width="1.1" height="45.4"/>
	</g>
	<g id="POLYLINE_46878_">
		<polygon class="st6" points="21.5,164.3 4.1,164.3 4.1,130.3 70.5,130.3 70.5,129.2 3,129.2 3,165.5 21.5,165.5 		"/>
	</g>
	<g id="POLYLINE_46877_">
		<rect x="24.3" y="164.3" class="st6" width="45.4" height="1.1"/>
	</g>
	<g id="POLYLINE_46876_">
		<rect x="22.4" y="167.2" class="st6" width="1.1" height="53.9"/>
	</g>
	<g id="POLYLINE_46875_">
		<polyline class="st6" points="24.3,222.5 26.6,222.5 26.6,221 24.3,221 		"/>
	</g>
	<g id="POLYLINE_46874_">
		<polyline class="st6" points="69.7,222.5 67.4,222.5 67.4,221 69.7,221 		"/>
	</g>
	<g id="POLYLINE_46873_">
		<rect x="119.6" y="53.8" class="st6" width="1.1" height="53.9"/>
	</g>
	<g id="POLYLINE_46872_">
		<rect x="119.6" y="110.5" class="st6" width="1.1" height="53.9"/>
	</g>
	<g id="POLYLINE_46871_">
		<rect x="119.6" y="167.2" class="st6" width="1.1" height="53.9"/>
	</g>
	<g id="POLYLINE_46870_">
		<rect x="115.6" y="221" class="st6" width="2.3" height="1.4"/>
	</g>
	<g id="POLYLINE_46869_">
		<polyline class="st6" points="72.5,222.5 74.8,222.5 74.8,221 72.5,221 		"/>
	</g>
</g>
<g id="PLAN_x24_STRUCTURE_2.1">
</g>
<g id="PLAN_x24_STRUCTURE_1.3">
</g>
<g id="PLAN_x24_STRUCTURE_1.2">
</g>
<g id="PLAN_x24_STRUCTURE_1.1">
	<g id="POLYLINE_46617_">
		<polyline class="st7" points="71.7,53.8 71.7,54.9 70.5,54.9 70.5,53.8 		"/>
	</g>
	<g id="POLYLINE_46616_">
		<rect x="69.7" y="2.8" class="st7" width="2.8" height="2.8"/>
	</g>
	<g id="POLYLINE_46615_">
		<rect x="117.9" y="2.8" class="st7" width="2.8" height="2.8"/>
	</g>
	<g id="POLYLINE_46614_">
		<rect x="21.5" y="2.8" class="st7" width="2.8" height="2.8"/>
	</g>
	<g id="POLYLINE_46613_">
		<rect x="21.5" y="51" class="st7" width="2.8" height="2.8"/>
	</g>
	<g id="POLYLINE_46612_">
		<rect x="21.5" y="164.3" class="st7" width="2.8" height="2.8"/>
	</g>
	<g id="POLYLINE_46611_">
		<rect x="21.5" y="221" class="st7" width="2.8" height="2.8"/>
	</g>
	<g id="POLYLINE_46610_">
		<rect x="117.9" y="221" class="st7" width="2.8" height="2.8"/>
	</g>
	<g id="POLYLINE_46609_">
		<rect x="117.9" y="51" class="st7" width="2.8" height="2.8"/>
	</g>
	<g id="POLYLINE_46608_">
		<rect x="117.9" y="164.3" class="st7" width="2.8" height="2.8"/>
	</g>
	<g id="POLYLINE_46607_">
		<rect x="117.9" y="107.7" class="st7" width="2.8" height="2.8"/>
	</g>
	<g id="POLYLINE_46606_">
		<rect x="69.7" y="51" class="st7" width="2.8" height="2.8"/>
	</g>
	<g id="POLYLINE_46605_">
		<rect x="69.7" y="107.7" class="st7" width="2.8" height="2.8"/>
	</g>
	<g id="POLYLINE_46604_">
		<rect x="69.7" y="164.3" class="st7" width="2.8" height="2.8"/>
	</g>
	<g id="POLYLINE_46603_">
		<rect x="69.7" y="221" class="st7" width="2.8" height="2.8"/>
	</g>
</g>
</svg>
