<?xml version="1.0" encoding="utf-8"?>
<!-- Generator: Adobe Illustrator 22.0.1, SVG Export Plug-In . SVG Version: 6.00 Build 0)  -->
<svg version="1.1" id="Calque_1" xmlns="http://www.w3.org/2000/svg" xmlns:xlink="http://www.w3.org/1999/xlink" x="0px" y="0px"
	 viewBox="0 0 236.6 196.5" style="enable-background:new 0 0 236.6 196.5;" xml:space="preserve">
<style type="text/css">
	.st0{display:none;}
	.st1{display:inline;}
	.st2{fill:none;}
	.st3{fill:none;stroke:#000000;stroke-width:0.2;stroke-linecap:square;stroke-miterlimit:10;stroke-dasharray:1,1;}
	.st4{fill:none;stroke:#000000;stroke-width:0.1;stroke-linecap:square;stroke-miterlimit:10;}
	.st5{fill:none;stroke:#000000;stroke-width:0.16;stroke-linecap:square;stroke-miterlimit:10;}
	.st6{fill:none;stroke:#000000;stroke-width:0.36;stroke-linecap:square;stroke-miterlimit:10;}
	.st7{fill:none;stroke:#000000;stroke-width:0.54;stroke-linecap:square;stroke-miterlimit:10;}
	.st8{fill:none;stroke:#000000;stroke-width:0.82;stroke-linecap:square;stroke-miterlimit:10;}
	.st9{fill:none;stroke:#000000;stroke-width:0.9;stroke-linecap:square;stroke-miterlimit:10;}
</style>
<g id="Calque_1_1_">
</g>
<g id="INFOS_x24_A4" class="st0">
	<g id="POLYLINE_47613_" class="st1">
		<rect x="-158.4" y="-313.4" class="st2" width="595.3" height="841.9"/>
	</g>
</g>
<g id="PLAN_x24_FOND">
</g>
<g id="PLAN_x24_POINTILLE">
	<g id="POLYLINE_52747_">
		<line class="st3" x1="12.9" y1="47.3" x2="24.1" y2="54.3"/>
	</g>
	<g id="POLYLINE_52746_">
		<line class="st3" x1="12.9" y1="64.9" x2="24.1" y2="64.9"/>
	</g>
	<g id="ARC_4271_">
		<path class="st3" d="M71.2,86.5c-2.6-4.4-8.4-5.8-12.8-3.2c-3.4,2-5,6-4.4,9.8"/>
	</g>
	<g id="POLYLINE_52745_">
		<line class="st3" x1="62.1" y1="90.7" x2="55.1" y2="86.9"/>
	</g>
	<g id="POLYLINE_52744_">
		<line class="st3" x1="62.7" y1="90.1" x2="59.9" y2="82.7"/>
	</g>
	<g id="POLYLINE_52743_">
		<line class="st3" x1="63.7" y1="90.1" x2="66.2" y2="82.5"/>
	</g>
	<g id="POLYLINE_52742_">
		<line class="st3" x1="12.9" y1="61.3" x2="24.1" y2="61.3"/>
	</g>
	<g id="POLYLINE_52741_">
		<line class="st3" x1="12.9" y1="57.9" x2="24.1" y2="57.9"/>
	</g>
	<g id="POLYLINE_52740_">
		<line class="st3" x1="12.9" y1="48.9" x2="24.1" y2="55.9"/>
	</g>
	<g id="POLYLINE_52739_">
		<line class="st3" x1="12.9" y1="50.9" x2="16.1" y2="50.9"/>
	</g>
	<g id="POLYLINE_52737_">
		<line class="st3" x1="12.9" y1="54.3" x2="21.7" y2="54.3"/>
	</g>
</g>
<g id="PLAN_x24_VITRAGE">
	<g id="POLYLINE_51110_">
		<polyline class="st4" points="73.1,100.9 52.2,100.9 52.2,101.5 73.1,101.5 		"/>
	</g>
	<g id="POLYLINE_51109_">
		<polyline class="st4" points="12.9,89.7 34.7,89.7 34.7,101.5 36.5,101.5 36.5,100.9 35,100.9 35,89.1 12.9,89.1 		"/>
	</g>
	<g id="POLYLINE_51108_">
		
			<rect x="192.7" y="13.4" transform="matrix(0.4364 -0.8997 0.8997 0.4364 79.6567 191.8692)" class="st4" width="0.6" height="38"/>
	</g>
	<g id="POLYLINE_51107_">
		<rect x="52" y="23.2" transform="matrix(0.4364 -0.8997 0.8997 0.4364 -5.8609 69.2201)" class="st4" width="0.6" height="32.2"/>
	</g>
	<g id="POLYLINE_51106_">
		<rect x="184.6" y="156.5" class="st4" width="8.6" height="0.6"/>
	</g>
</g>
<g id="PLAN_x24_MOBILIER">
	<g id="POLYLINE_52205_">
		<polyline class="st5" points="62.5,79.9 63.9,79.9 71.5,79.9 71.5,57.5 63.9,57.5 62.5,57.5 		"/>
	</g>
	<g id="POLYLINE_52204_">
		<polyline class="st5" points="44.1,47.7 44.9,46.5 48.2,39.3 61.9,45.9 58.5,53.1 57.9,54.5 		"/>
	</g>
	<g id="POLYLINE_52203_">
		<line class="st5" x1="35" y1="61.7" x2="28.5" y2="61.7"/>
	</g>
	<g id="ARC_4258_">
		<path class="st5" d="M49.5,61.7c-1.8,0.2-3,1.6-3,3.4c0.2,1.8,1.6,3,3.4,3c1,0,1.8-0.6,2.4-1.2"/>
	</g>
	<g id="CIRCLE_1620_">
		<path class="st5" d="M49.5,62.5c0-2.6,2-4.6,4.6-4.6s4.6,2,4.6,4.6c0,2.6-2,4.6-4.6,4.6C51.7,67.1,49.5,65.1,49.5,62.5L49.5,62.5z
			"/>
	</g>
	<g id="CIRCLE_1619_">
		<path class="st5" d="M63.5,51.7c0-1.8,1.4-3.4,3.4-3.4c1.8,0,3.4,1.4,3.4,3.4s-1.4,3.4-3.4,3.4S63.5,53.5,63.5,51.7L63.5,51.7z"/>
	</g>
	<g id="POLYLINE_52202_">
		<line class="st5" x1="55.1" y1="42.5" x2="51.1" y2="51.1"/>
	</g>
	<g id="POLYLINE_52201_">
		
			<rect x="47.9" y="37.1" transform="matrix(0.4364 -0.8997 0.8997 0.4364 -11.5427 74.0698)" class="st5" width="11" height="18.2"/>
	</g>
	<g id="POLYLINE_52200_">
		<line class="st5" x1="71.5" y1="72.7" x2="62.5" y2="72.7"/>
	</g>
	<g id="POLYLINE_52199_">
		<line class="st5" x1="71.5" y1="65.1" x2="62.5" y2="65.1"/>
	</g>
	<g id="POLYLINE_52198_">
		<rect x="62.5" y="56.1" class="st5" width="10.6" height="25.4"/>
	</g>
	<g id="POLYLINE_52197_">
		<line class="st5" x1="28.5" y1="63.1" x2="28.5" y2="53.9"/>
	</g>
	<g id="POLYLINE_52196_">
		<rect x="26.7" y="53.9" class="st5" width="8.4" height="9"/>
	</g>
	<g id="POLYLINE_52195_">
		<polyline class="st5" points="35,87.1 35.2,87.5 39.1,86.5 38.1,82.7 35,83.5 		"/>
	</g>
	<g id="POLYLINE_52194_">
		<rect x="36.8" y="77.1" transform="matrix(0.9676 -0.2524 0.2524 0.9676 -18.6942 12.363)" class="st5" width="4" height="3.8"/>
	</g>
	<g id="POLYLINE_52193_">
		<rect x="30.3" y="75.5" class="st5" width="5" height="13.8"/>
	</g>
	<g id="POLYLINE_52192_">
		<rect x="12.9" y="81.5" class="st5" width="8" height="7.6"/>
	</g>
	<g id="POLYLINE_52191_">
		<rect x="54.9" y="156.9" class="st5" width="4.6" height="3.4"/>
	</g>
	<g id="POLYLINE_52190_">
		<rect x="61.9" y="168.9" class="st5" width="3.4" height="4.6"/>
	</g>
	<g id="POLYLINE_52189_">
		<polygon class="st5" points="73.1,149.5 50.1,149.5 50.1,156.9 65.2,156.9 65.2,177.3 73.1,177.3 		"/>
	</g>
	<g id="POLYLINE_52188_">
		<rect x="19.5" y="124.5" class="st5" width="3.4" height="4.6"/>
	</g>
	<g id="POLYLINE_52187_">
		<rect x="19.5" y="136.5" class="st5" width="3.4" height="4.6"/>
	</g>
	<g id="POLYLINE_52186_">
		<rect x="33.9" y="136.5" class="st5" width="3.4" height="4.6"/>
	</g>
	<g id="POLYLINE_52185_">
		<rect x="33.9" y="124.5" class="st5" width="3.4" height="4.6"/>
	</g>
	<g id="POLYLINE_52184_">
		<rect x="22.9" y="121.7" class="st5" width="11" height="22.6"/>
	</g>
	<g id="POLYLINE_52183_">
		<rect x="12.9" y="103.5" class="st5" width="15" height="7.2"/>
	</g>
	<g id="POLYLINE_52182_">
		<rect x="17.9" y="100.1" class="st5" width="4.6" height="3.4"/>
	</g>
	<g id="POLYLINE_52181_">
		<rect x="50.9" y="116.1" class="st5" width="7.2" height="14.8"/>
	</g>
	<g id="POLYLINE_52180_">
		<rect x="47.5" y="121.1" class="st5" width="3.4" height="4.4"/>
	</g>
	<g id="POLYLINE_52179_">
		<rect x="63.1" y="112.7" class="st5" width="4.6" height="3.4"/>
	</g>
	<g id="POLYLINE_52178_">
		<rect x="58.1" y="116.1" class="st5" width="15" height="7.2"/>
	</g>
	<g id="POLYLINE_52177_">
		<rect x="58.1" y="123.3" class="st5" width="15" height="7.2"/>
	</g>
	<g id="POLYLINE_52176_">
		<rect x="63.1" y="130.7" class="st5" width="4.6" height="3.4"/>
	</g>
	<g id="POLYLINE_52175_">
		<rect x="23.3" y="162.7" class="st5" width="4.6" height="3.4"/>
	</g>
	<g id="POLYLINE_52174_">
		<rect x="18.3" y="155.3" class="st5" width="15" height="7.2"/>
	</g>
	<g id="POLYLINE_52173_">
		<rect x="48.7" y="177.3" class="st5" width="14" height="6.4"/>
	</g>
	<g id="POLYLINE_52172_">
		<polygon class="st5" points="172.8,43.3 172.8,22.9 168.2,20.5 167.4,22.1 163.8,20.5 163.8,43.3 		"/>
	</g>
	<g id="POLYLINE_52171_">
		<rect x="200.2" y="68.9" class="st5" width="3.4" height="4.6"/>
	</g>
	<g id="POLYLINE_51517_">
		<rect x="200.2" y="77.5" class="st5" width="3.4" height="4.6"/>
	</g>
	<g id="POLYLINE_51516_">
		<rect x="200.2" y="60.3" class="st5" width="3.4" height="4.6"/>
	</g>
	<g id="POLYLINE_51515_">
		<rect x="214.2" y="60.3" class="st5" width="3.4" height="4.6"/>
	</g>
	<g id="POLYLINE_51514_">
		<rect x="214.2" y="77.5" class="st5" width="3.4" height="4.6"/>
	</g>
	<g id="POLYLINE_51513_">
		<rect x="214.2" y="68.9" class="st5" width="3.4" height="4.6"/>
	</g>
	<g id="POLYLINE_51512_">
		<rect x="203.6" y="57.9" class="st5" width="10.8" height="26.6"/>
	</g>
	<g id="POLYLINE_51511_">
		<rect x="163.8" y="132.7" class="st5" width="2.8" height="12.2"/>
	</g>
	<g id="POLYLINE_51510_">
		<line class="st5" x1="169.6" y1="121.1" x2="174.2" y2="132.7"/>
	</g>
	<g id="POLYLINE_51509_">
		<line class="st5" x1="169.6" y1="121.1" x2="169.6" y2="132.7"/>
	</g>
	<g id="POLYLINE_51508_">
		<rect x="164.6" y="124.3" class="st5" width="4.4" height="5.8"/>
	</g>
	<g id="POLYLINE_51507_">
		<rect x="163.8" y="121.1" class="st5" width="25.6" height="11.6"/>
	</g>
	<g id="POLYLINE_51506_">
		<line class="st5" x1="169.6" y1="144.9" x2="174.2" y2="156.5"/>
	</g>
	<g id="POLYLINE_51505_">
		<line class="st5" x1="169.6" y1="144.9" x2="169.6" y2="156.5"/>
	</g>
	<g id="POLYLINE_51504_">
		<rect x="164.6" y="148.1" class="st5" width="4.4" height="5.8"/>
	</g>
	<g id="POLYLINE_51503_">
		<rect x="163.8" y="144.9" class="st5" width="25.6" height="11.6"/>
	</g>
	<g id="POLYLINE_51502_">
		<rect x="199.6" y="136.3" class="st5" width="4.8" height="10"/>
	</g>
	<g id="POLYLINE_51501_">
		<rect x="199.6" y="146.5" class="st5" width="4.8" height="10"/>
	</g>
	<g id="CIRCLE_1618_">
		<path class="st5" d="M220.8,128.5c0-0.4,0.2-0.6,0.6-0.6s0.6,0.2,0.6,0.6c0,0.4-0.2,0.6-0.6,0.6S220.8,128.9,220.8,128.5
			L220.8,128.5z"/>
	</g>
	<g id="POLYLINE_51500_">
		<rect x="217.2" y="126.9" class="st5" width="6" height="6.2"/>
	</g>
	<g id="POLYLINE_51499_">
		<line class="st5" x1="224" y1="151.9" x2="216.4" y2="151.9"/>
	</g>
	<g id="POLYLINE_51498_">
		<line class="st5" x1="224" y1="144.9" x2="216.4" y2="144.9"/>
	</g>
	<g id="POLYLINE_51497_">
		<line class="st5" x1="224" y1="119.7" x2="216.4" y2="119.7"/>
	</g>
	<g id="POLYLINE_51496_">
		<line class="st5" x1="224" y1="112.1" x2="216.4" y2="112.1"/>
	</g>
	<g id="POLYLINE_51495_">
		<line class="st5" x1="220.2" y1="104.3" x2="216.4" y2="104.3"/>
	</g>
	<g id="POLYLINE_51494_">
		<polygon class="st5" points="216.4,98.3 216.4,156.5 224,156.5 224,104.3 220.2,104.3 220.2,98.3 		"/>
	</g>
	<g id="POLYLINE_51493_">
		
			<rect x="206.2" y="176.6" transform="matrix(0.2703 -0.9628 0.9628 0.2703 -20.1985 332.0561)" class="st5" width="5.6" height="5.6"/>
	</g>
	<g id="POLYLINE_51492_">
		
			<rect x="199.9" y="165" transform="matrix(0.2703 -0.9628 0.9628 0.2703 -13.6882 317.6009)" class="st5" width="5.6" height="5.6"/>
	</g>
	<g id="POLYLINE_51491_">
		<rect x="216.4" y="158.7" class="st5" width="7.8" height="25"/>
	</g>
	<g id="POLYLINE_51490_">
		<rect x="193" y="175.5" class="st5" width="8.8" height="8.2"/>
	</g>
	<g id="POLYLINE_51489_">
		<rect x="175.2" y="100.1" class="st5" width="7.4" height="4.8"/>
	</g>
	<g id="CIRCLE_1617_">
		<path class="st5" d="M179.2,101.9c0-0.2-0.2-0.4-0.4-0.4s-0.4,0.2-0.4,0.4s0.2,0.4,0.4,0.4C179,102.3,179.2,102.1,179.2,101.9
			L179.2,101.9z"/>
	</g>
	<g id="SPLINE_1476_">
		<path class="st5" d="M186.4,117.1c0.2-0.4,0.2-1,0.2-1.4s0-0.8,0-1c0-0.4,0-1-0.2-1.4c0-0.2-0.2-0.4-0.4-0.6
			c-0.4-0.2-0.8-0.4-1.2-0.4c-0.2,0-0.4,0-0.6,0c-0.4,0-0.6,0.2-0.8,0.4c-0.4,0.4-0.6,0.8-0.6,1.4s-0.2,1,0,1.6c0,0.4,0,0.8,0.2,1
			c0,0.2,0,0.4,0.2,0.6"/>
	</g>
	<g id="POLYLINE_51488_">
		<rect x="181.6" y="117.1" class="st5" width="6" height="3"/>
	</g>
	<g id="POLYLINE_51487_">
		<line class="st5" x1="35" y1="55.3" x2="28.5" y2="55.3"/>
	</g>
</g>
<g id="PLAN_x24_DETAIL">
	<g id="POLYLINE_52255_">
		<polyline class="st5" points="163.8,78.3 176,78.3 188.2,78.3 		"/>
	</g>
	<g id="POLYLINE_52254_">
		<line class="st5" x1="61.9" y1="91.7" x2="54.1" y2="93.1"/>
	</g>
	<g id="ARC_4269_">
		<path class="st5" d="M54.1,93.1c1,5,5.8,8.4,11,7.4c5-1,8.4-5.8,7.4-11c-0.2-1-0.6-2-1.2-3"/>
	</g>
	<g id="POLYLINE_52253_">
		<line class="st5" x1="71.2" y1="86.5" x2="64.2" y2="90.7"/>
	</g>
	<g id="POLYLINE_52252_">
		<polyline class="st5" points="163.8,67.9 176,67.9 188.2,67.9 		"/>
	</g>
	<g id="POLYLINE_52251_">
		<polyline class="st5" points="163.8,71.3 176,71.3 188.2,71.3 		"/>
	</g>
	<g id="POLYLINE_52250_">
		<polyline class="st5" points="163.8,74.9 176,74.9 188.2,74.9 		"/>
	</g>
	<g id="POLYLINE_52249_">
		<polyline class="st5" points="163.8,60.9 176,60.9 188.2,60.9 		"/>
	</g>
	<g id="POLYLINE_52248_">
		<polyline class="st5" points="163.8,64.3 176,64.3 188.2,64.3 		"/>
	</g>
	<g id="POLYLINE_52247_">
		<polyline class="st5" points="163.8,81.9 176,81.9 188.2,81.9 		"/>
	</g>
	<g id="POLYLINE_52246_">
		<line class="st5" x1="163.8" y1="85.5" x2="188.2" y2="85.5"/>
	</g>
	<g id="POLYLINE_52245_">
		<line class="st5" x1="176" y1="57.3" x2="176" y2="85.5"/>
	</g>
	<g id="POLYLINE_52244_">
		<polyline class="st5" points="68.7,42.5 39.7,28.3 38.1,31.9 		"/>
	</g>
	<g id="POLYLINE_52243_">
		<line class="st5" x1="27.9" y1="30.9" x2="29.3" y2="20.9"/>
	</g>
	<g id="ARC_4268_">
		<path class="st5" d="M29.3,20.9c5.4,0.8,9.4,5.8,8.6,11.4"/>
	</g>
	<g id="POLYLINE_52242_">
		<line class="st5" x1="17.3" y1="20.9" x2="12.9" y2="29.9"/>
	</g>
	<g id="ARC_4267_">
		<path class="st5" d="M12.9,29.9c5,2.4,11,0.4,13.6-4.6"/>
	</g>
	<g id="POLYLINE_52241_">
		<rect x="167.8" y="177.1" class="st5" width="25.2" height="6.6"/>
	</g>
	<g id="POLYLINE_52240_">
		<line class="st5" x1="167.8" y1="183.7" x2="224" y2="183.7"/>
	</g>
	<g id="POLYLINE_52239_">
		<line class="st5" x1="167.8" y1="186.5" x2="224" y2="186.5"/>
	</g>
	<g id="POLYLINE_52238_">
		<polyline class="st5" points="172.8,119.9 172.8,106.7 163.8,106.7 		"/>
	</g>
	<g id="CIRCLE_1622_">
		<path class="st5" d="M165.6,113.7c0-0.2,0.2-0.4,0.4-0.4s0.4,0.2,0.4,0.4s-0.2,0.4-0.4,0.4S165.6,113.9,165.6,113.7L165.6,113.7z"
			/>
	</g>
	<g id="POLYLINE_52237_">
		<line class="st5" x1="167" y1="114.7" x2="169" y2="116.9"/>
	</g>
	<g id="POLYLINE_52236_">
		<line class="st5" x1="167" y1="112.7" x2="169" y2="110.7"/>
	</g>
	<g id="POLYLINE_52235_">
		<line class="st5" x1="167.4" y1="113.7" x2="170.2" y2="113.7"/>
	</g>
	<g id="POLYLINE_52234_">
		<line class="st5" x1="12.9" y1="36.9" x2="24.1" y2="36.9"/>
	</g>
	<g id="POLYLINE_52233_">
		<line class="st5" x1="163.8" y1="57.3" x2="188.2" y2="57.3"/>
	</g>
	<g id="POLYLINE_52232_">
		<line class="st5" x1="64.4" y1="91.5" x2="72.5" y2="92.9"/>
	</g>
	<g id="POLYLINE_52231_">
		<line class="st5" x1="64.1" y1="92.3" x2="69.2" y2="98.5"/>
	</g>
	<g id="POLYLINE_52230_">
		<line class="st5" x1="63.2" y1="92.7" x2="63.2" y2="100.7"/>
	</g>
	<g id="POLYLINE_52229_">
		<line class="st5" x1="62.2" y1="92.5" x2="57.2" y2="98.7"/>
	</g>
	<g id="CIRCLE_1621_">
		<path class="st5" d="M61.9,91.3c0-0.8,0.6-1.4,1.4-1.4c0.8,0,1.4,0.6,1.4,1.4s-0.6,1.4-1.4,1.4C62.5,92.7,61.9,92.1,61.9,91.3
			L61.9,91.3z"/>
	</g>
	<g id="POLYLINE_52228_">
		<line class="st5" x1="52.2" y1="101.3" x2="52.2" y2="93.3"/>
	</g>
	<g id="ARC_4266_">
		<path class="st5" d="M52.2,93.3c-4.4,0-8,3.6-8,8"/>
	</g>
	<g id="POLYLINE_52227_">
		<line class="st5" x1="36.5" y1="101.3" x2="36.5" y2="93.3"/>
	</g>
	<g id="ARC_4265_">
		<path class="st5" d="M36.5,93.3c4.4,0,8,3.6,8,8"/>
	</g>
	<g id="POLYLINE_52226_">
		<line class="st5" x1="13.9" y1="70.9" x2="13.9" y2="60.7"/>
	</g>
	<g id="ARC_4264_">
		<path class="st5" d="M13.9,60.7c5.6,0,10.2,4.6,10.2,10.2"/>
	</g>
	<g id="POLYLINE_52225_">
		<line class="st5" x1="176.8" y1="43.9" x2="176.8" y2="33.7"/>
	</g>
	<g id="ARC_4263_">
		<path class="st5" d="M176.8,33.7c5.6,0,10.2,4.6,10.2,10.2"/>
	</g>
	<g id="POLYLINE_52224_">
		<line class="st5" x1="206" y1="157.7" x2="206" y2="147.5"/>
	</g>
	<g id="ARC_4262_">
		<path class="st5" d="M206,147.5c5.6,0,10.2,4.6,10.2,10.2"/>
	</g>
	<g id="POLYLINE_52223_">
		<line class="st5" x1="193.4" y1="111.5" x2="193.4" y2="121.7"/>
	</g>
	<g id="ARC_4261_">
		<path class="st5" d="M193.4,121.7c5.6,0,10.2-4.6,10.2-10.2"/>
	</g>
	<g id="POLYLINE_52222_">
		<line class="st5" x1="191.6" y1="109.1" x2="183.6" y2="109.1"/>
	</g>
	<g id="ARC_4260_">
		<path class="st5" d="M183.6,109.1c0-4.4,3.6-8,8-8"/>
	</g>
	<g id="POLYLINE_52221_">
		<polyline class="st5" points="216.8,41.1 220.8,33.1 175.2,10.9 171.4,19.1 		"/>
	</g>
	<g id="POLYLINE_52220_">
		<polyline class="st5" points="218,41.5 222.4,32.5 174.8,9.5 170.4,18.5 		"/>
	</g>
	<g id="POLYLINE_52219_">
		<line class="st5" x1="12.9" y1="47.3" x2="24.1" y2="47.3"/>
	</g>
	<g id="POLYLINE_52218_">
		<line class="st5" x1="12.9" y1="43.9" x2="24.1" y2="43.9"/>
	</g>
	<g id="POLYLINE_52217_">
		<line class="st5" x1="12.9" y1="40.3" x2="24.1" y2="40.3"/>
	</g>
	<g id="POLYLINE_52216_">
		<line class="st5" x1="18.5" y1="50.9" x2="24.1" y2="50.9"/>
	</g>
</g>
<g id="PLAN_x24_CLOISON_TRANSLUCIDE">
</g>
<g id="PLAN_x24_CLOISON_1.3">
</g>
<g id="PLAN_x24_CLOISON_1.2">
	<g id="POLYLINE_52355_">
		<polyline class="st6" points="163.8,43.3 176.8,43.3 176.8,44.5 163.8,44.5 		"/>
	</g>
	<g id="POLYLINE_52354_">
		<polyline class="st6" points="163.8,119.9 191,119.9 191,109.1 192.2,109.1 192.2,110.9 193.4,110.9 193.4,111.9 192.2,111.9 
			192.2,121.1 163.8,121.1 		"/>
	</g>
	<g id="POLYLINE_52353_">
		<polyline class="st6" points="163.8,98.9 188.2,98.9 188.2,44.5 187,44.5 187,43.3 189.4,43.3 189.4,98.9 192.2,98.9 192.2,101.1 
			191,101.1 191,99.9 163.8,99.9 		"/>
	</g>
	<g id="POLYLINE_52352_">
		<polygon class="st6" points="204.2,111.9 204.2,156.5 205.4,156.5 205.4,110.9 204.2,110.9 203.6,110.9 203.6,111.9 		"/>
	</g>
	<g id="POLYLINE_52351_">
		<polyline class="st6" points="12.9,176.3 45.7,176.3 45.7,183.7 		"/>
	</g>
	<g id="POLYLINE_52350_">
		<polyline class="st6" points="12.9,175.1 46.9,175.1 46.9,183.7 		"/>
	</g>
	<g id="POLYLINE_52349_">
		<rect x="216.4" y="97.1" class="st6" width="4" height="1.2"/>
	</g>
</g>
<g id="PLAN_x24_CLOISON_1.1">
</g>
<g id="PLAN_x24_STRUCTURE_2.3">
	<g id="POLYLINE_51069_">
		<rect x="163.8" y="156.5" class="st7" width="20.8" height="2.2"/>
	</g>
	<g id="POLYLINE_51068_">
		<rect x="216.4" y="156.5" class="st7" width="7.8" height="2.2"/>
	</g>
	<g id="POLYLINE_51067_">
		<rect x="193" y="156.5" class="st7" width="13" height="2.2"/>
	</g>
	<g id="POLYLINE_51065_">
		<line class="st7" x1="27.1" y1="22.3" x2="28.7" y2="23.1"/>
	</g>
	<g id="POLYLINE_51064_">
		<rect x="12.9" y="70.1" class="st7" width="1.2" height="1.8"/>
	</g>
	<g id="POLYLINE_51063_">
		<rect x="167.8" y="175.5" class="st7" width="25.2" height="1.4"/>
	</g>
</g>
<g id="PLAN_x24_STRUCTURE_2.2">
</g>
<g id="PLAN_x24_STRUCTURE_2.1">
</g>
<g id="PLAN_x24_STRUCTURE_1.3">
	<g id="POLYLINE_51066_">
		<polygon class="st8" points="25.9,35.5 27.7,33.9 28.7,23.1 27.1,22.3 24.1,35.3 24.1,71.7 25.9,71.7 		"/>
	</g>
</g>
<g id="PLAN_x24_STRUCTURE_1.2">
	<g id="POLYLINE_52341_">
		<polygon class="st9" points="168.2,20.5 175.6,24.3 177,21.7 161,13.9 161,186.5 167.8,186.5 167.8,183.7 167.8,175.5 
			163.8,175.5 163.8,20.3 167.4,22.1 		"/>
	</g>
	<g id="POLYLINE_52340_">
		<polygon class="st9" points="224,104.3 224,180.7 224,186.5 226.8,186.5 226.8,45.9 211.2,38.3 210,40.9 218.6,45.1 217.8,46.5 
			223.6,49.3 222.6,51.1 224,51.9 224,97.1 220.2,97.1 220.2,104.3 		"/>
	</g>
	<g id="POLYLINE_52339_">
		<polygon class="st9" points="16.7,22.3 12.9,20.3 12.9,180.7 16.9,180.7 16.9,183.7 69.1,183.7 69.1,180.7 73.1,180.7 73.1,51.9 
			71.7,51.1 72.5,49.3 66.7,46.5 68.7,42.5 75.8,45.9 75.8,186.5 9.9,186.5 9.9,13.9 18.7,18.1 		"/>
	</g>
</g>
<g id="PLAN_x24_STRUCTURE_1.1">
</g>
</svg>
