<?xml version="1.0" encoding="utf-8"?>
<!-- Generator: Adobe Illustrator 22.0.1, SVG Export Plug-In . SVG Version: 6.00 Build 0)  -->
<svg version="1.1" id="Calque_1" xmlns="http://www.w3.org/2000/svg" xmlns:xlink="http://www.w3.org/1999/xlink" x="0px" y="0px"
	 viewBox="0 0 112.6 93.5" style="enable-background:new 0 0 112.6 93.5;" xml:space="preserve">
<style type="text/css">
	.st0{display:none;}
	.st1{display:inline;}
	.st2{fill:none;}
	.st3{fill:none;stroke:#000000;stroke-width:0.1;stroke-linecap:square;stroke-miterlimit:10;stroke-dasharray:0.5,0.5;}
	.st4{fill:none;stroke:#000000;stroke-width:5.000000e-02;stroke-linecap:square;stroke-miterlimit:10;}
	.st5{fill:none;stroke:#000000;stroke-width:8.000000e-02;stroke-linecap:square;stroke-miterlimit:10;}
	.st6{fill:none;stroke:#000000;stroke-width:0.18;stroke-linecap:square;stroke-miterlimit:10;}
	.st7{fill:none;stroke:#000000;stroke-width:0.27;stroke-linecap:square;stroke-miterlimit:10;}
	.st8{fill:none;stroke:#000000;stroke-width:0.41;stroke-linecap:square;stroke-miterlimit:10;}
	.st9{fill:none;stroke:#000000;stroke-width:0.45;stroke-linecap:square;stroke-miterlimit:10;}
</style>
<g id="Calque_1_1_">
</g>
<g id="INFOS_x24_A4" class="st0">
	<g id="POLYLINE_47613_" class="st1">
		<rect x="-220.4" y="-364.9" class="st2" width="595.3" height="841.9"/>
	</g>
</g>
<g id="PLAN_x24_FOND">
</g>
<g id="PLAN_x24_POINTILLE">
	<g id="POLYLINE_52747_">
		<line class="st3" x1="3.6" y1="21.2" x2="9.2" y2="24.7"/>
	</g>
	<g id="POLYLINE_52746_">
		<line class="st3" x1="3.6" y1="30" x2="9.2" y2="30"/>
	</g>
	<g id="ARC_4271_">
		<path class="st3" d="M32.8,40.8c-1.3-2.2-4.2-2.9-6.4-1.6c-1.7,1-2.5,3-2.2,4.9"/>
	</g>
	<g id="POLYLINE_52745_">
		<line class="st3" x1="28.2" y1="42.9" x2="24.7" y2="41"/>
	</g>
	<g id="POLYLINE_52744_">
		<line class="st3" x1="28.5" y1="42.6" x2="27.1" y2="38.9"/>
	</g>
	<g id="POLYLINE_52743_">
		<line class="st3" x1="29" y1="42.6" x2="30.3" y2="38.8"/>
	</g>
	<g id="POLYLINE_52742_">
		<line class="st3" x1="3.6" y1="28.2" x2="9.2" y2="28.2"/>
	</g>
	<g id="POLYLINE_52741_">
		<line class="st3" x1="3.6" y1="26.5" x2="9.2" y2="26.5"/>
	</g>
	<g id="POLYLINE_52740_">
		<line class="st3" x1="3.6" y1="22" x2="9.2" y2="25.5"/>
	</g>
	<g id="POLYLINE_52739_">
		<line class="st3" x1="3.6" y1="23" x2="5.2" y2="23"/>
	</g>
	<g id="POLYLINE_52737_">
		<line class="st3" x1="3.6" y1="24.7" x2="8" y2="24.7"/>
	</g>
</g>
<g id="PLAN_x24_VITRAGE">
	<g id="POLYLINE_51110_">
		<polyline class="st4" points="33.7,48 23.3,48 23.3,48.3 33.7,48.3 		"/>
	</g>
	<g id="POLYLINE_51109_">
		<polyline class="st4" points="3.6,42.4 14.5,42.4 14.5,48.3 15.4,48.3 15.4,48 14.7,48 14.7,42.1 3.6,42.1 		"/>
	</g>
	<g id="POLYLINE_51108_">
		<rect x="93.5" y="4.2" transform="matrix(0.4364 -0.8997 0.8997 0.4364 40.4732 91.9864)" class="st4" width="0.3" height="19"/>
	</g>
	<g id="POLYLINE_51107_">
		
			<rect x="23.2" y="9.1" transform="matrix(0.4364 -0.8997 0.8997 0.4364 -2.2829 30.7014)" class="st4" width="0.3" height="16.1"/>
	</g>
	<g id="POLYLINE_51106_">
		<rect x="89.5" y="75.8" class="st4" width="4.3" height="0.3"/>
	</g>
</g>
<g id="PLAN_x24_MOBILIER">
	<g id="POLYLINE_52205_">
		<polyline class="st5" points="28.4,37.5 29.1,37.5 32.9,37.5 32.9,26.3 29.1,26.3 28.4,26.3 		"/>
	</g>
	<g id="POLYLINE_52204_">
		<polyline class="st5" points="19.2,21.4 19.6,20.8 21.3,17.2 28.1,20.5 26.4,24.1 26.1,24.8 		"/>
	</g>
	<g id="POLYLINE_52203_">
		<line class="st5" x1="14.7" y1="28.4" x2="11.4" y2="28.4"/>
	</g>
	<g id="ARC_4258_">
		<path class="st5" d="M21.9,28.4c-0.9,0.1-1.5,0.8-1.5,1.7c0.1,0.9,0.8,1.5,1.7,1.5c0.5,0,0.9-0.3,1.2-0.6"/>
	</g>
	<g id="CIRCLE_1620_">
		<path class="st5" d="M21.9,28.8c0-1.3,1-2.3,2.3-2.3s2.3,1,2.3,2.3s-1,2.3-2.3,2.3C23,31.1,21.9,30.1,21.9,28.8L21.9,28.8z"/>
	</g>
	<g id="CIRCLE_1619_">
		<path class="st5" d="M28.9,23.4c0-0.9,0.7-1.7,1.7-1.7c0.9,0,1.7,0.7,1.7,1.7s-0.7,1.7-1.7,1.7C29.6,25.1,28.9,24.3,28.9,23.4
			L28.9,23.4z"/>
	</g>
	<g id="POLYLINE_52202_">
		<line class="st5" x1="24.7" y1="18.8" x2="22.7" y2="23.1"/>
	</g>
	<g id="POLYLINE_52201_">
		<rect x="21.1" y="16.1" transform="matrix(0.4364 -0.8997 0.8997 0.4364 -5.1349 33.104)" class="st5" width="5.5" height="9.1"/>
	</g>
	<g id="POLYLINE_52200_">
		<line class="st5" x1="32.9" y1="33.9" x2="28.4" y2="33.9"/>
	</g>
	<g id="POLYLINE_52199_">
		<line class="st5" x1="32.9" y1="30.1" x2="28.4" y2="30.1"/>
	</g>
	<g id="POLYLINE_52198_">
		<rect x="28.4" y="25.6" class="st5" width="5.3" height="12.7"/>
	</g>
	<g id="POLYLINE_52197_">
		<line class="st5" x1="11.4" y1="29.1" x2="11.4" y2="24.5"/>
	</g>
	<g id="POLYLINE_52196_">
		<rect x="10.5" y="24.5" class="st5" width="4.2" height="4.5"/>
	</g>
	<g id="POLYLINE_52195_">
		<polyline class="st5" points="14.7,41.1 14.8,41.3 16.7,40.8 16.2,38.9 14.7,39.3 		"/>
	</g>
	<g id="POLYLINE_52194_">
		<rect x="15.6" y="36.1" transform="matrix(0.9676 -0.2524 0.2524 0.9676 -8.8183 5.3969)" class="st5" width="2" height="1.9"/>
	</g>
	<g id="POLYLINE_52193_">
		<rect x="12.3" y="35.3" class="st5" width="2.5" height="6.9"/>
	</g>
	<g id="POLYLINE_52192_">
		<rect x="3.6" y="38.3" class="st5" width="4" height="3.8"/>
	</g>
	<g id="POLYLINE_52191_">
		<rect x="24.6" y="76" class="st5" width="2.3" height="1.7"/>
	</g>
	<g id="POLYLINE_52190_">
		<rect x="28.1" y="82" class="st5" width="1.7" height="2.3"/>
	</g>
	<g id="POLYLINE_52189_">
		<polygon class="st5" points="33.7,72.3 22.2,72.3 22.2,76 29.8,76 29.8,86.2 33.7,86.2 		"/>
	</g>
	<g id="POLYLINE_52188_">
		<rect x="6.9" y="59.8" class="st5" width="1.7" height="2.3"/>
	</g>
	<g id="POLYLINE_52187_">
		<rect x="6.9" y="65.8" class="st5" width="1.7" height="2.3"/>
	</g>
	<g id="POLYLINE_52186_">
		<rect x="14.1" y="65.8" class="st5" width="1.7" height="2.3"/>
	</g>
	<g id="POLYLINE_52185_">
		<rect x="14.1" y="59.8" class="st5" width="1.7" height="2.3"/>
	</g>
	<g id="POLYLINE_52184_">
		<rect x="8.6" y="58.4" class="st5" width="5.5" height="11.3"/>
	</g>
	<g id="POLYLINE_52183_">
		<rect x="3.6" y="49.3" class="st5" width="7.5" height="3.6"/>
	</g>
	<g id="POLYLINE_52182_">
		<rect x="6.1" y="47.6" class="st5" width="2.3" height="1.7"/>
	</g>
	<g id="POLYLINE_52181_">
		<rect x="22.6" y="55.6" class="st5" width="3.6" height="7.4"/>
	</g>
	<g id="POLYLINE_52180_">
		<rect x="20.9" y="58.1" class="st5" width="1.7" height="2.2"/>
	</g>
	<g id="POLYLINE_52179_">
		<rect x="28.7" y="53.9" class="st5" width="2.3" height="1.7"/>
	</g>
	<g id="POLYLINE_52178_">
		<rect x="26.2" y="55.6" class="st5" width="7.5" height="3.6"/>
	</g>
	<g id="POLYLINE_52177_">
		<rect x="26.2" y="59.2" class="st5" width="7.5" height="3.6"/>
	</g>
	<g id="POLYLINE_52176_">
		<rect x="28.7" y="62.9" class="st5" width="2.3" height="1.7"/>
	</g>
	<g id="POLYLINE_52175_">
		<rect x="8.8" y="78.9" class="st5" width="2.3" height="1.7"/>
	</g>
	<g id="POLYLINE_52174_">
		<rect x="6.3" y="75.2" class="st5" width="7.5" height="3.6"/>
	</g>
	<g id="POLYLINE_52173_">
		<rect x="21.5" y="86.2" class="st5" width="7" height="3.2"/>
	</g>
	<g id="POLYLINE_52172_">
		<polygon class="st5" points="83.6,19.2 83.6,9 81.3,7.8 80.9,8.6 79.1,7.8 79.1,19.2 		"/>
	</g>
	<g id="POLYLINE_52171_">
		<rect x="97.3" y="32" class="st5" width="1.7" height="2.3"/>
	</g>
	<g id="POLYLINE_51517_">
		<rect x="97.3" y="36.3" class="st5" width="1.7" height="2.3"/>
	</g>
	<g id="POLYLINE_51516_">
		<rect x="97.3" y="27.7" class="st5" width="1.7" height="2.3"/>
	</g>
	<g id="POLYLINE_51515_">
		<rect x="104.3" y="27.7" class="st5" width="1.7" height="2.3"/>
	</g>
	<g id="POLYLINE_51514_">
		<rect x="104.3" y="36.3" class="st5" width="1.7" height="2.3"/>
	</g>
	<g id="POLYLINE_51513_">
		<rect x="104.3" y="32" class="st5" width="1.7" height="2.3"/>
	</g>
	<g id="POLYLINE_51512_">
		<rect x="99" y="26.5" class="st5" width="5.4" height="13.3"/>
	</g>
	<g id="POLYLINE_51511_">
		<rect x="79.1" y="63.9" class="st5" width="1.4" height="6.1"/>
	</g>
	<g id="POLYLINE_51510_">
		<line class="st5" x1="82" y1="58.1" x2="84.3" y2="63.9"/>
	</g>
	<g id="POLYLINE_51509_">
		<line class="st5" x1="82" y1="58.1" x2="82" y2="63.9"/>
	</g>
	<g id="POLYLINE_51508_">
		<rect x="79.5" y="59.7" class="st5" width="2.2" height="2.9"/>
	</g>
	<g id="POLYLINE_51507_">
		<rect x="79.1" y="58.1" class="st5" width="12.8" height="5.8"/>
	</g>
	<g id="POLYLINE_51506_">
		<line class="st5" x1="82" y1="70" x2="84.3" y2="75.8"/>
	</g>
	<g id="POLYLINE_51505_">
		<line class="st5" x1="82" y1="70" x2="82" y2="75.8"/>
	</g>
	<g id="POLYLINE_51504_">
		<rect x="79.5" y="71.6" class="st5" width="2.2" height="2.9"/>
	</g>
	<g id="POLYLINE_51503_">
		<rect x="79.1" y="70" class="st5" width="12.8" height="5.8"/>
	</g>
	<g id="POLYLINE_51502_">
		<rect x="97" y="65.7" class="st5" width="2.4" height="5"/>
	</g>
	<g id="POLYLINE_51501_">
		<rect x="97" y="70.8" class="st5" width="2.4" height="5"/>
	</g>
	<g id="CIRCLE_1618_">
		<path class="st5" d="M107.6,61.8c0-0.2,0.1-0.3,0.3-0.3s0.3,0.1,0.3,0.3s-0.1,0.3-0.3,0.3S107.6,62,107.6,61.8L107.6,61.8z"/>
	</g>
	<g id="POLYLINE_51500_">
		<rect x="105.8" y="61" class="st5" width="3" height="3.1"/>
	</g>
	<g id="POLYLINE_51499_">
		<line class="st5" x1="109.2" y1="73.5" x2="105.4" y2="73.5"/>
	</g>
	<g id="POLYLINE_51498_">
		<line class="st5" x1="109.2" y1="70" x2="105.4" y2="70"/>
	</g>
	<g id="POLYLINE_51497_">
		<line class="st5" x1="109.2" y1="57.4" x2="105.4" y2="57.4"/>
	</g>
	<g id="POLYLINE_51496_">
		<line class="st5" x1="109.2" y1="53.6" x2="105.4" y2="53.6"/>
	</g>
	<g id="POLYLINE_51495_">
		<line class="st5" x1="107.3" y1="49.7" x2="105.4" y2="49.7"/>
	</g>
	<g id="POLYLINE_51494_">
		<polygon class="st5" points="105.4,46.7 105.4,75.8 109.2,75.8 109.2,49.7 107.3,49.7 107.3,46.7 		"/>
	</g>
	<g id="POLYLINE_51493_">
		
			<rect x="100.3" y="85.8" transform="matrix(0.2703 -0.9628 0.9628 0.2703 -9.7912 161.5566)" class="st5" width="2.8" height="2.8"/>
	</g>
	<g id="POLYLINE_51492_">
		<rect x="97.1" y="80" transform="matrix(0.2703 -0.9628 0.9628 0.2703 -6.4825 154.2821)" class="st5" width="2.8" height="2.8"/>
	</g>
	<g id="POLYLINE_51491_">
		<rect x="105.4" y="76.9" class="st5" width="3.9" height="12.5"/>
	</g>
	<g id="POLYLINE_51490_">
		<rect x="93.7" y="85.3" class="st5" width="4.4" height="4.1"/>
	</g>
	<g id="POLYLINE_51489_">
		<rect x="84.8" y="47.6" class="st5" width="3.7" height="2.4"/>
	</g>
	<g id="CIRCLE_1617_">
		<path class="st5" d="M86.8,48.5c0-0.1-0.1-0.2-0.2-0.2s-0.2,0.1-0.2,0.2s0.1,0.2,0.2,0.2C86.7,48.7,86.8,48.6,86.8,48.5L86.8,48.5
			z"/>
	</g>
	<g id="SPLINE_1476_">
		<path class="st5" d="M90.4,56.1c0.1-0.2,0.1-0.5,0.1-0.7c0-0.2,0-0.4,0-0.5c0-0.2,0-0.5-0.1-0.7c0-0.1-0.1-0.2-0.2-0.3
			c-0.2-0.1-0.4-0.2-0.6-0.2c-0.1,0-0.2,0-0.3,0c-0.2,0-0.3,0.1-0.4,0.2c-0.2,0.2-0.3,0.4-0.3,0.7c0,0.3-0.1,0.5,0,0.8
			c0,0.2,0,0.4,0.1,0.5c0,0.1,0,0.2,0.1,0.3"/>
	</g>
	<g id="POLYLINE_51488_">
		<rect x="88" y="56.1" class="st5" width="3" height="1.5"/>
	</g>
	<g id="POLYLINE_51487_">
		<line class="st5" x1="14.7" y1="25.2" x2="11.4" y2="25.2"/>
	</g>
</g>
<g id="PLAN_x24_DETAIL">
	<g id="POLYLINE_52255_">
		<polyline class="st5" points="79.1,36.7 85.2,36.7 91.3,36.7 		"/>
	</g>
	<g id="POLYLINE_52254_">
		<line class="st5" x1="28.1" y1="43.4" x2="24.2" y2="44.1"/>
	</g>
	<g id="ARC_4269_">
		<path class="st5" d="M24.2,44.1c0.5,2.5,2.9,4.2,5.5,3.7c2.5-0.5,4.2-2.9,3.7-5.5c-0.1-0.5-0.3-1-0.6-1.5"/>
	</g>
	<g id="POLYLINE_52253_">
		<line class="st5" x1="32.8" y1="40.8" x2="29.3" y2="42.9"/>
	</g>
	<g id="POLYLINE_52252_">
		<polyline class="st5" points="79.1,31.5 85.2,31.5 91.3,31.5 		"/>
	</g>
	<g id="POLYLINE_52251_">
		<polyline class="st5" points="79.1,33.2 85.2,33.2 91.3,33.2 		"/>
	</g>
	<g id="POLYLINE_52250_">
		<polyline class="st5" points="79.1,35 85.2,35 91.3,35 		"/>
	</g>
	<g id="POLYLINE_52249_">
		<polyline class="st5" points="79.1,28 85.2,28 91.3,28 		"/>
	</g>
	<g id="POLYLINE_52248_">
		<polyline class="st5" points="79.1,29.7 85.2,29.7 91.3,29.7 		"/>
	</g>
	<g id="POLYLINE_52247_">
		<polyline class="st5" points="79.1,38.5 85.2,38.5 91.3,38.5 		"/>
	</g>
	<g id="POLYLINE_52246_">
		<line class="st5" x1="79.1" y1="40.3" x2="91.3" y2="40.3"/>
	</g>
	<g id="POLYLINE_52245_">
		<line class="st5" x1="85.2" y1="26.2" x2="85.2" y2="40.3"/>
	</g>
	<g id="POLYLINE_52244_">
		<polyline class="st5" points="31.5,18.8 17,11.7 16.2,13.5 		"/>
	</g>
	<g id="POLYLINE_52243_">
		<line class="st5" x1="11.1" y1="13" x2="11.8" y2="8"/>
	</g>
	<g id="ARC_4268_">
		<path class="st5" d="M11.8,8c2.7,0.4,4.7,2.9,4.3,5.7"/>
	</g>
	<g id="POLYLINE_52242_">
		<line class="st5" x1="5.8" y1="8" x2="3.6" y2="12.5"/>
	</g>
	<g id="ARC_4267_">
		<path class="st5" d="M3.6,12.5c2.5,1.2,5.5,0.2,6.8-2.3"/>
	</g>
	<g id="POLYLINE_52241_">
		<rect x="81.1" y="86.1" class="st5" width="12.6" height="3.3"/>
	</g>
	<g id="POLYLINE_52240_">
		<line class="st5" x1="81.1" y1="89.4" x2="109.2" y2="89.4"/>
	</g>
	<g id="POLYLINE_52239_">
		<line class="st5" x1="81.1" y1="90.8" x2="109.2" y2="90.8"/>
	</g>
	<g id="POLYLINE_52238_">
		<polyline class="st5" points="83.6,57.5 83.6,50.9 79.1,50.9 		"/>
	</g>
	<g id="CIRCLE_1622_">
		<path class="st5" d="M80,54.4c0-0.1,0.1-0.2,0.2-0.2s0.2,0.1,0.2,0.2s-0.1,0.2-0.2,0.2S80,54.5,80,54.4L80,54.4z"/>
	</g>
	<g id="POLYLINE_52237_">
		<line class="st5" x1="80.7" y1="54.9" x2="81.7" y2="56"/>
	</g>
	<g id="POLYLINE_52236_">
		<line class="st5" x1="80.7" y1="53.9" x2="81.7" y2="52.9"/>
	</g>
	<g id="POLYLINE_52235_">
		<line class="st5" x1="80.9" y1="54.4" x2="82.3" y2="54.4"/>
	</g>
	<g id="POLYLINE_52234_">
		<line class="st5" x1="3.6" y1="16" x2="9.2" y2="16"/>
	</g>
	<g id="POLYLINE_52233_">
		<line class="st5" x1="79.1" y1="26.2" x2="91.3" y2="26.2"/>
	</g>
	<g id="POLYLINE_52232_">
		<line class="st5" x1="29.4" y1="43.3" x2="33.4" y2="44"/>
	</g>
	<g id="POLYLINE_52231_">
		<line class="st5" x1="29.2" y1="43.7" x2="31.8" y2="46.8"/>
	</g>
	<g id="POLYLINE_52230_">
		<line class="st5" x1="28.8" y1="43.9" x2="28.8" y2="47.9"/>
	</g>
	<g id="POLYLINE_52229_">
		<line class="st5" x1="28.3" y1="43.8" x2="25.8" y2="46.9"/>
	</g>
	<g id="CIRCLE_1621_">
		<path class="st5" d="M28.1,43.2c0-0.4,0.3-0.7,0.7-0.7s0.7,0.3,0.7,0.7s-0.3,0.7-0.7,0.7S28.1,43.6,28.1,43.2L28.1,43.2z"/>
	</g>
	<g id="POLYLINE_52228_">
		<line class="st5" x1="23.3" y1="48.2" x2="23.3" y2="44.2"/>
	</g>
	<g id="ARC_4266_">
		<path class="st5" d="M23.3,44.2c-2.2,0-4,1.8-4,4"/>
	</g>
	<g id="POLYLINE_52227_">
		<line class="st5" x1="15.4" y1="48.2" x2="15.4" y2="44.2"/>
	</g>
	<g id="ARC_4265_">
		<path class="st5" d="M15.4,44.2c2.2,0,4,1.8,4,4"/>
	</g>
	<g id="POLYLINE_52226_">
		<line class="st5" x1="4.1" y1="33" x2="4.1" y2="27.9"/>
	</g>
	<g id="ARC_4264_">
		<path class="st5" d="M4.1,27.9c2.8,0,5.1,2.3,5.1,5.1"/>
	</g>
	<g id="POLYLINE_52225_">
		<line class="st5" x1="85.6" y1="19.5" x2="85.6" y2="14.4"/>
	</g>
	<g id="ARC_4263_">
		<path class="st5" d="M85.6,14.4c2.8,0,5.1,2.3,5.1,5.1"/>
	</g>
	<g id="POLYLINE_52224_">
		<line class="st5" x1="100.2" y1="76.4" x2="100.2" y2="71.3"/>
	</g>
	<g id="ARC_4262_">
		<path class="st5" d="M100.2,71.3c2.8,0,5.1,2.3,5.1,5.1"/>
	</g>
	<g id="POLYLINE_52223_">
		<line class="st5" x1="93.9" y1="53.3" x2="93.9" y2="58.4"/>
	</g>
	<g id="ARC_4261_">
		<path class="st5" d="M93.9,58.4c2.8,0,5.1-2.3,5.1-5.1"/>
	</g>
	<g id="POLYLINE_52222_">
		<line class="st5" x1="93" y1="52.1" x2="89" y2="52.1"/>
	</g>
	<g id="ARC_4260_">
		<path class="st5" d="M89,52.1c0-2.2,1.8-4,4-4"/>
	</g>
	<g id="POLYLINE_52221_">
		<polyline class="st5" points="105.6,18.1 107.6,14.1 84.8,3 82.9,7.1 		"/>
	</g>
	<g id="POLYLINE_52220_">
		<polyline class="st5" points="106.2,18.3 108.4,13.8 84.6,2.3 82.4,6.8 		"/>
	</g>
	<g id="POLYLINE_52219_">
		<line class="st5" x1="3.6" y1="21.2" x2="9.2" y2="21.2"/>
	</g>
	<g id="POLYLINE_52218_">
		<line class="st5" x1="3.6" y1="19.5" x2="9.2" y2="19.5"/>
	</g>
	<g id="POLYLINE_52217_">
		<line class="st5" x1="3.6" y1="17.7" x2="9.2" y2="17.7"/>
	</g>
	<g id="POLYLINE_52216_">
		<line class="st5" x1="6.4" y1="23" x2="9.2" y2="23"/>
	</g>
</g>
<g id="PLAN_x24_CLOISON_TRANSLUCIDE">
</g>
<g id="PLAN_x24_CLOISON_1.3">
</g>
<g id="PLAN_x24_CLOISON_1.2">
	<g id="POLYLINE_52355_">
		<polyline class="st6" points="79.1,19.2 85.6,19.2 85.6,19.8 79.1,19.8 		"/>
	</g>
	<g id="POLYLINE_52354_">
		<polyline class="st6" points="79.1,57.5 92.7,57.5 92.7,52.1 93.3,52.1 93.3,53 93.9,53 93.9,53.5 93.3,53.5 93.3,58.1 79.1,58.1 
					"/>
	</g>
	<g id="POLYLINE_52353_">
		<polyline class="st6" points="79.1,47 91.3,47 91.3,19.8 90.7,19.8 90.7,19.2 91.9,19.2 91.9,47 93.3,47 93.3,48.1 92.7,48.1 
			92.7,47.5 79.1,47.5 		"/>
	</g>
	<g id="POLYLINE_52352_">
		<polygon class="st6" points="99.3,53.5 99.3,75.8 99.9,75.8 99.9,53 99.3,53 99,53 99,53.5 		"/>
	</g>
	<g id="POLYLINE_52351_">
		<polyline class="st6" points="3.6,85.7 20,85.7 20,89.4 		"/>
	</g>
	<g id="POLYLINE_52350_">
		<polyline class="st6" points="3.6,85.1 20.6,85.1 20.6,89.4 		"/>
	</g>
	<g id="POLYLINE_52349_">
		<rect x="105.4" y="46.1" class="st6" width="2" height="0.6"/>
	</g>
</g>
<g id="PLAN_x24_CLOISON_1.1">
</g>
<g id="PLAN_x24_STRUCTURE_2.3">
	<g id="POLYLINE_51069_">
		<rect x="79.1" y="75.8" class="st7" width="10.4" height="1.1"/>
	</g>
	<g id="POLYLINE_51068_">
		<rect x="105.4" y="75.8" class="st7" width="3.9" height="1.1"/>
	</g>
	<g id="POLYLINE_51067_">
		<rect x="93.7" y="75.8" class="st7" width="6.5" height="1.1"/>
	</g>
	<g id="POLYLINE_51065_">
		<line class="st7" x1="10.7" y1="8.7" x2="11.5" y2="9.1"/>
	</g>
	<g id="POLYLINE_51064_">
		<rect x="3.6" y="32.6" class="st7" width="0.6" height="0.9"/>
	</g>
	<g id="POLYLINE_51063_">
		<rect x="81.1" y="85.3" class="st7" width="12.6" height="0.7"/>
	</g>
</g>
<g id="PLAN_x24_STRUCTURE_2.2">
</g>
<g id="PLAN_x24_STRUCTURE_2.1">
</g>
<g id="PLAN_x24_STRUCTURE_1.3">
	<g id="POLYLINE_51066_">
		<polygon class="st8" points="10.1,15.3 11,14.5 11.5,9.1 10.7,8.7 9.2,15.2 9.2,33.4 10.1,33.4 		"/>
	</g>
</g>
<g id="PLAN_x24_STRUCTURE_1.2">
	<g id="POLYLINE_52341_">
		<polygon class="st9" points="81.3,7.8 85,9.7 85.7,8.4 77.7,4.5 77.7,90.8 81.1,90.8 81.1,89.4 81.1,85.3 79.1,85.3 79.1,7.7 
			80.9,8.6 		"/>
	</g>
	<g id="POLYLINE_52340_">
		<polygon class="st9" points="109.2,49.7 109.2,87.9 109.2,90.8 110.6,90.8 110.6,20.5 102.8,16.7 102.2,18 106.5,20.1 106.1,20.8 
			109,22.2 108.5,23.1 109.2,23.5 109.2,46.1 107.3,46.1 107.3,49.7 		"/>
	</g>
	<g id="POLYLINE_52339_">
		<polygon class="st9" points="5.5,8.7 3.6,7.7 3.6,87.9 5.6,87.9 5.6,89.4 31.7,89.4 31.7,87.9 33.7,87.9 33.7,23.5 33,23.1 
			33.4,22.2 30.5,20.8 31.5,18.8 35.1,20.5 35.1,90.8 2.1,90.8 2.1,4.5 6.5,6.6 		"/>
	</g>
</g>
<g id="PLAN_x24_STRUCTURE_1.1">
</g>
</svg>
