<?xml version="1.0" encoding="utf-8"?>
<!-- Generator: Adobe Illustrator 17.0.0, SVG Export Plug-In . SVG Version: 6.00 Build 0)  -->
<!DOCTYPE svg PUBLIC "-//W3C//DTD SVG 1.1//EN" "http://www.w3.org/Graphics/SVG/1.1/DTD/svg11.dtd">
<svg version="1.1" xmlns="http://www.w3.org/2000/svg" xmlns:xlink="http://www.w3.org/1999/xlink" x="0px" y="0px"
	 width="595.276px" height="841.89px" viewBox="0 0 595.276 841.89" enable-background="new 0 0 595.276 841.89"
	 xml:space="preserve">
<g id="Calque_1">
</g>
<g id="INFOS_x24_A4" display="none">
	<g id="POLYLINE_47613_" display="inline">
		<rect x="6.143" y="-3.69" fill="none" width="595.276" height="841.89"/>
	</g>
</g>
<g id="PLAN_x24_FOND">
</g>
<g id="PLAN_x24_POINTILLE">
	<g id="POLYLINE_52747_">
		
			<line fill="none" stroke="#000000" stroke-width="0.1" stroke-linecap="square" stroke-miterlimit="10" stroke-dasharray="0.5,0.5" x1="230.062" y1="382.392" x2="235.728" y2="385.901"/>
	</g>
	<g id="POLYLINE_52746_">
		
			<line fill="none" stroke="#000000" stroke-width="0.1" stroke-linecap="square" stroke-miterlimit="10" stroke-dasharray="0.5,0.5" x1="230.062" y1="391.163" x2="235.728" y2="391.163"/>
	</g>
	<g id="ARC_4271_">
		
			<path fill="none" stroke="#000000" stroke-width="0.1" stroke-linecap="square" stroke-miterlimit="10" stroke-dasharray="0.5,0.5" d="
			M259.252,402.012c-1.329-2.205-4.194-2.915-6.399-1.586c-1.678,1.012-2.545,2.965-2.168,4.888"/>
	</g>
	<g id="POLYLINE_52745_">
		
			<line fill="none" stroke="#000000" stroke-width="0.1" stroke-linecap="square" stroke-miterlimit="10" stroke-dasharray="0.5,0.5" x1="254.686" y1="404.101" x2="251.179" y2="402.164"/>
	</g>
	<g id="POLYLINE_52744_">
		
			<line fill="none" stroke="#000000" stroke-width="0.1" stroke-linecap="square" stroke-miterlimit="10" stroke-dasharray="0.5,0.5" x1="255.024" y1="403.806" x2="253.583" y2="400.068"/>
	</g>
	<g id="POLYLINE_52743_">
		
			<line fill="none" stroke="#000000" stroke-width="0.1" stroke-linecap="square" stroke-miterlimit="10" stroke-dasharray="0.5,0.5" x1="255.472" y1="403.798" x2="256.771" y2="400.008"/>
	</g>
	<g id="POLYLINE_52742_">
		
			<line fill="none" stroke="#000000" stroke-width="0.1" stroke-linecap="square" stroke-miterlimit="10" stroke-dasharray="0.5,0.5" x1="230.062" y1="389.409" x2="235.728" y2="389.409"/>
	</g>
	<g id="POLYLINE_52741_">
		
			<line fill="none" stroke="#000000" stroke-width="0.1" stroke-linecap="square" stroke-miterlimit="10" stroke-dasharray="0.5,0.5" x1="230.062" y1="387.655" x2="235.728" y2="387.655"/>
	</g>
	<g id="POLYLINE_52740_">
		
			<line fill="none" stroke="#000000" stroke-width="0.1" stroke-linecap="square" stroke-miterlimit="10" stroke-dasharray="0.5,0.5" x1="230.062" y1="383.129" x2="235.728" y2="386.638"/>
	</g>
	<g id="POLYLINE_52739_">
		
			<line fill="none" stroke="#000000" stroke-width="0.1" stroke-linecap="square" stroke-miterlimit="10" stroke-dasharray="0.5,0.5" x1="230.062" y1="384.147" x2="231.705" y2="384.147"/>
	</g>
	<g id="POLYLINE_52737_">
		
			<line fill="none" stroke="#000000" stroke-width="0.1" stroke-linecap="square" stroke-miterlimit="10" stroke-dasharray="0.5,0.5" x1="230.062" y1="385.901" x2="234.538" y2="385.901"/>
	</g>
</g>
<g id="PLAN_x24_VITRAGE">
	<g id="POLYLINE_51110_">
		<polyline fill="none" stroke="#000000" stroke-width="0.05" stroke-linecap="square" stroke-miterlimit="10" points="
			260.174,409.19 249.842,409.19 249.842,409.474 260.174,409.474 		"/>
	</g>
	<g id="POLYLINE_51109_">
		<polyline fill="none" stroke="#000000" stroke-width="0.05" stroke-linecap="square" stroke-miterlimit="10" points="
			230.062,403.602 240.958,403.602 240.958,409.474 241.905,409.474 241.905,409.19 241.242,409.19 241.242,403.319 
			230.062,403.319 		"/>
	</g>
	<g id="POLYLINE_51108_">
		
			<rect x="310.65" y="374.74" transform="matrix(0.8997 0.4364 -0.4364 0.8997 195.7043 -102.1442)" fill="none" stroke="#000000" stroke-width="0.05" stroke-linecap="square" stroke-miterlimit="10" width="19.042" height="0.283"/>
	</g>
	<g id="POLYLINE_51107_">
		
			<rect x="249.702" y="370.289" transform="matrix(-0.4364 0.8997 -0.8997 -0.4364 699.2997 318.6746)" fill="none" stroke="#000000" stroke-width="0.05" stroke-linecap="square" stroke-miterlimit="10" width="0.283" height="16.124"/>
	</g>
	<g id="POLYLINE_51106_">
		
			<rect x="315.976" y="436.982" fill="none" stroke="#000000" stroke-width="0.05" stroke-linecap="square" stroke-miterlimit="10" width="4.252" height="0.283"/>
	</g>
</g>
<g id="PLAN_x24_MOBILIER">
	<g id="POLYLINE_52205_">
		<polyline fill="none" stroke="#000000" stroke-width="0.08" stroke-linecap="square" stroke-miterlimit="10" points="
			254.879,398.719 255.616,398.719 259.437,398.719 259.437,387.501 255.616,387.501 254.879,387.501 		"/>
	</g>
	<g id="POLYLINE_52204_">
		<polyline fill="none" stroke="#000000" stroke-width="0.08" stroke-linecap="square" stroke-miterlimit="10" points="
			245.739,382.613 246.061,381.95 247.811,378.341 254.646,381.656 252.895,385.265 252.573,385.928 		"/>
	</g>
	<g id="POLYLINE_52203_">
		
			<line fill="none" stroke="#000000" stroke-width="0.08" stroke-linecap="square" stroke-miterlimit="10" x1="241.207" y1="389.561" x2="237.852" y2="389.561"/>
	</g>
	<g id="ARC_4258_">
		<path fill="none" stroke="#000000" stroke-width="0.08" stroke-linecap="square" stroke-miterlimit="10" d="M248.437,389.618
			c-0.862,0.058-1.514,0.803-1.456,1.665c0.058,0.862,0.803,1.514,1.665,1.456c0.462-0.031,0.886-0.265,1.159-0.639"/>
	</g>
	<g id="CIRCLE_1620_">
		<path fill="none" stroke="#000000" stroke-width="0.08" stroke-linecap="square" stroke-miterlimit="10" d="M248.412,389.96
			c0-1.293,1.048-2.341,2.341-2.341c1.293,0,2.341,1.048,2.341,2.341c0,1.293-1.048,2.341-2.341,2.341
			C249.46,392.3,248.412,391.252,248.412,389.96L248.412,389.96z"/>
	</g>
	<g id="CIRCLE_1619_">
		<path fill="none" stroke="#000000" stroke-width="0.08" stroke-linecap="square" stroke-miterlimit="10" d="M255.367,384.601
			c0-0.919,0.745-1.665,1.665-1.665c0.919,0,1.665,0.745,1.665,1.665s-0.745,1.665-1.665,1.665
			C256.112,386.266,255.367,385.521,255.367,384.601L255.367,384.601z"/>
	</g>
	<g id="POLYLINE_52202_">
		
			<line fill="none" stroke="#000000" stroke-width="0.08" stroke-linecap="square" stroke-miterlimit="10" x1="251.228" y1="379.999" x2="249.156" y2="384.271"/>
	</g>
	<g id="POLYLINE_52201_">
		
			<rect x="245.818" y="379.061" transform="matrix(-0.8997 -0.4364 0.4364 -0.8997 308.981 834.587)" fill="none" stroke="#000000" stroke-width="0.08" stroke-linecap="square" stroke-miterlimit="10" width="9.07" height="5.485"/>
	</g>
	<g id="POLYLINE_52200_">
		
			<line fill="none" stroke="#000000" stroke-width="0.08" stroke-linecap="square" stroke-miterlimit="10" x1="259.437" y1="395.122" x2="254.879" y2="395.122"/>
	</g>
	<g id="POLYLINE_52199_">
		
			<line fill="none" stroke="#000000" stroke-width="0.08" stroke-linecap="square" stroke-miterlimit="10" x1="259.437" y1="391.235" x2="254.879" y2="391.235"/>
	</g>
	<g id="POLYLINE_52198_">
		
			<rect x="254.879" y="386.764" fill="none" stroke="#000000" stroke-width="0.08" stroke-linecap="square" stroke-miterlimit="10" width="5.295" height="12.692"/>
	</g>
	<g id="POLYLINE_52197_">
		
			<line fill="none" stroke="#000000" stroke-width="0.08" stroke-linecap="square" stroke-miterlimit="10" x1="237.852" y1="390.248" x2="237.852" y2="385.713"/>
	</g>
	<g id="POLYLINE_52196_">
		
			<rect x="237.016" y="385.713" fill="none" stroke="#000000" stroke-width="0.08" stroke-linecap="square" stroke-miterlimit="10" width="4.191" height="4.535"/>
	</g>
	<g id="POLYLINE_52195_">
		<polyline fill="none" stroke="#000000" stroke-width="0.08" stroke-linecap="square" stroke-miterlimit="10" points="
			241.242,402.244 241.292,402.436 243.212,401.935 242.727,400.077 241.242,400.464 		"/>
	</g>
	<g id="POLYLINE_52194_">
		
			<rect x="242.122" y="397.281" transform="matrix(-0.9676 0.2524 -0.2524 -0.9676 578.8795 722.2191)" fill="none" stroke="#000000" stroke-width="0.08" stroke-linecap="square" stroke-miterlimit="10" width="1.984" height="1.92"/>
	</g>
	<g id="POLYLINE_52193_">
		
			<rect x="238.786" y="396.448" fill="none" stroke="#000000" stroke-width="0.08" stroke-linecap="square" stroke-miterlimit="10" width="2.455" height="6.87"/>
	</g>
	<g id="POLYLINE_52192_">
		
			<rect x="230.062" y="399.506" fill="none" stroke="#000000" stroke-width="0.08" stroke-linecap="square" stroke-miterlimit="10" width="3.969" height="3.813"/>
	</g>
	<g id="POLYLINE_52191_">
		
			<rect x="251.082" y="437.176" fill="none" stroke="#000000" stroke-width="0.08" stroke-linecap="square" stroke-miterlimit="10" width="2.268" height="1.701"/>
	</g>
	<g id="POLYLINE_52190_">
		
			<rect x="254.625" y="443.147" fill="none" stroke="#000000" stroke-width="0.08" stroke-linecap="square" stroke-miterlimit="10" width="1.701" height="2.268"/>
	</g>
	<g id="POLYLINE_52189_">
		<polygon fill="none" stroke="#000000" stroke-width="0.08" stroke-linecap="square" stroke-miterlimit="10" points="
			260.174,433.44 248.725,433.44 248.725,437.176 256.326,437.176 256.326,447.368 260.174,447.368 		"/>
	</g>
	<g id="POLYLINE_52188_">
		
			<rect x="233.435" y="420.936" fill="none" stroke="#000000" stroke-width="0.08" stroke-linecap="square" stroke-miterlimit="10" width="1.701" height="2.268"/>
	</g>
	<g id="POLYLINE_52187_">
		
			<rect x="233.435" y="426.958" fill="none" stroke="#000000" stroke-width="0.08" stroke-linecap="square" stroke-miterlimit="10" width="1.701" height="2.268"/>
	</g>
	<g id="POLYLINE_52186_">
		
			<rect x="240.64" y="426.958" fill="none" stroke="#000000" stroke-width="0.08" stroke-linecap="square" stroke-miterlimit="10" width="1.701" height="2.268"/>
	</g>
	<g id="POLYLINE_52185_">
		
			<rect x="240.64" y="420.936" fill="none" stroke="#000000" stroke-width="0.08" stroke-linecap="square" stroke-miterlimit="10" width="1.701" height="2.268"/>
	</g>
	<g id="POLYLINE_52184_">
		
			<rect x="235.135" y="419.593" fill="none" stroke="#000000" stroke-width="0.08" stroke-linecap="square" stroke-miterlimit="10" width="5.505" height="11.324"/>
	</g>
	<g id="POLYLINE_52183_">
		
			<rect x="230.062" y="410.512" fill="none" stroke="#000000" stroke-width="0.08" stroke-linecap="square" stroke-miterlimit="10" width="7.464" height="3.646"/>
	</g>
	<g id="POLYLINE_52182_">
		
			<rect x="232.573" y="408.812" fill="none" stroke="#000000" stroke-width="0.08" stroke-linecap="square" stroke-miterlimit="10" width="2.268" height="1.701"/>
	</g>
	<g id="POLYLINE_52181_">
		
			<rect x="249.107" y="416.763" fill="none" stroke="#000000" stroke-width="0.08" stroke-linecap="square" stroke-miterlimit="10" width="3.603" height="7.377"/>
	</g>
	<g id="POLYLINE_52180_">
		
			<rect x="247.426" y="419.245" fill="none" stroke="#000000" stroke-width="0.08" stroke-linecap="square" stroke-miterlimit="10" width="1.681" height="2.241"/>
	</g>
	<g id="POLYLINE_52179_">
		
			<rect x="255.221" y="415.062" fill="none" stroke="#000000" stroke-width="0.08" stroke-linecap="square" stroke-miterlimit="10" width="2.268" height="1.701"/>
	</g>
	<g id="POLYLINE_52178_">
		
			<rect x="252.71" y="416.763" fill="none" stroke="#000000" stroke-width="0.08" stroke-linecap="square" stroke-miterlimit="10" width="7.464" height="3.646"/>
	</g>
	<g id="POLYLINE_52177_">
		
			<rect x="252.71" y="420.409" fill="none" stroke="#000000" stroke-width="0.08" stroke-linecap="square" stroke-miterlimit="10" width="7.464" height="3.646"/>
	</g>
	<g id="POLYLINE_52176_">
		
			<rect x="255.221" y="424.055" fill="none" stroke="#000000" stroke-width="0.08" stroke-linecap="square" stroke-miterlimit="10" width="2.268" height="1.701"/>
	</g>
	<g id="POLYLINE_52175_">
		
			<rect x="235.279" y="440.05" fill="none" stroke="#000000" stroke-width="0.08" stroke-linecap="square" stroke-miterlimit="10" width="2.268" height="1.701"/>
	</g>
	<g id="POLYLINE_52174_">
		
			<rect x="232.768" y="436.404" fill="none" stroke="#000000" stroke-width="0.08" stroke-linecap="square" stroke-miterlimit="10" width="7.464" height="3.646"/>
	</g>
	<g id="POLYLINE_52173_">
		
			<rect x="248.031" y="447.405" fill="none" stroke="#000000" stroke-width="0.08" stroke-linecap="square" stroke-miterlimit="10" width="7.007" height="3.165"/>
	</g>
	<g id="POLYLINE_52172_">
		<polygon fill="none" stroke="#000000" stroke-width="0.08" stroke-linecap="square" stroke-miterlimit="10" points="
			310.072,380.422 310.072,370.141 307.766,369.023 307.395,369.788 305.592,369.023 305.592,380.422 		"/>
	</g>
	<g id="POLYLINE_52171_">
		
			<rect x="323.784" y="393.18" fill="none" stroke="#000000" stroke-width="0.08" stroke-linecap="square" stroke-miterlimit="10" width="1.701" height="2.268"/>
	</g>
	<g id="POLYLINE_51517_">
		
			<rect x="323.784" y="397.514" fill="none" stroke="#000000" stroke-width="0.08" stroke-linecap="square" stroke-miterlimit="10" width="1.701" height="2.268"/>
	</g>
	<g id="POLYLINE_51516_">
		
			<rect x="323.784" y="388.847" fill="none" stroke="#000000" stroke-width="0.08" stroke-linecap="square" stroke-miterlimit="10" width="1.701" height="2.268"/>
	</g>
	<g id="POLYLINE_51515_">
		
			<rect x="330.835" y="388.847" fill="none" stroke="#000000" stroke-width="0.08" stroke-linecap="square" stroke-miterlimit="10" width="1.701" height="2.268"/>
	</g>
	<g id="POLYLINE_51514_">
		
			<rect x="330.835" y="397.514" fill="none" stroke="#000000" stroke-width="0.08" stroke-linecap="square" stroke-miterlimit="10" width="1.701" height="2.268"/>
	</g>
	<g id="POLYLINE_51513_">
		
			<rect x="330.835" y="393.18" fill="none" stroke="#000000" stroke-width="0.08" stroke-linecap="square" stroke-miterlimit="10" width="1.701" height="2.268"/>
	</g>
	<g id="POLYLINE_51512_">
		
			<rect x="325.485" y="387.647" fill="none" stroke="#000000" stroke-width="0.08" stroke-linecap="square" stroke-miterlimit="10" width="5.351" height="13.334"/>
	</g>
	<g id="POLYLINE_51511_">
		
			<rect x="305.592" y="425.062" fill="none" stroke="#000000" stroke-width="0.08" stroke-linecap="square" stroke-miterlimit="10" width="1.385" height="6.137"/>
	</g>
	<g id="POLYLINE_51510_">
		
			<line fill="none" stroke="#000000" stroke-width="0.08" stroke-linecap="square" stroke-miterlimit="10" x1="308.511" y1="419.28" x2="310.784" y2="425.062"/>
	</g>
	<g id="POLYLINE_51509_">
		
			<line fill="none" stroke="#000000" stroke-width="0.08" stroke-linecap="square" stroke-miterlimit="10" x1="308.511" y1="419.28" x2="308.511" y2="425.062"/>
	</g>
	<g id="POLYLINE_51508_">
		
			<rect x="305.97" y="420.824" fill="none" stroke="#000000" stroke-width="0.08" stroke-linecap="square" stroke-miterlimit="10" width="2.162" height="2.855"/>
	</g>
	<g id="POLYLINE_51507_">
		
			<rect x="305.592" y="419.28" fill="none" stroke="#000000" stroke-width="0.08" stroke-linecap="square" stroke-miterlimit="10" width="12.756" height="5.783"/>
	</g>
	<g id="POLYLINE_51506_">
		
			<line fill="none" stroke="#000000" stroke-width="0.08" stroke-linecap="square" stroke-miterlimit="10" x1="308.511" y1="431.2" x2="310.784" y2="436.982"/>
	</g>
	<g id="POLYLINE_51505_">
		
			<line fill="none" stroke="#000000" stroke-width="0.08" stroke-linecap="square" stroke-miterlimit="10" x1="308.511" y1="431.2" x2="308.511" y2="436.982"/>
	</g>
	<g id="POLYLINE_51504_">
		
			<rect x="305.97" y="432.743" fill="none" stroke="#000000" stroke-width="0.08" stroke-linecap="square" stroke-miterlimit="10" width="2.162" height="2.855"/>
	</g>
	<g id="POLYLINE_51503_">
		
			<rect x="305.592" y="431.199" fill="none" stroke="#000000" stroke-width="0.08" stroke-linecap="square" stroke-miterlimit="10" width="12.756" height="5.783"/>
	</g>
	<g id="POLYLINE_51502_">
		
			<rect x="323.488" y="426.913" fill="none" stroke="#000000" stroke-width="0.08" stroke-linecap="square" stroke-miterlimit="10" width="2.354" height="5.034"/>
	</g>
	<g id="POLYLINE_51501_">
		
			<rect x="323.488" y="431.948" fill="none" stroke="#000000" stroke-width="0.08" stroke-linecap="square" stroke-miterlimit="10" width="2.354" height="5.034"/>
	</g>
	<g id="CIRCLE_1618_">
		<path fill="none" stroke="#000000" stroke-width="0.08" stroke-linecap="square" stroke-miterlimit="10" d="M334.079,422.978
			c0-0.163,0.132-0.294,0.294-0.294s0.294,0.132,0.294,0.294s-0.132,0.294-0.294,0.294S334.079,423.141,334.079,422.978
			L334.079,422.978z"/>
	</g>
	<g id="POLYLINE_51500_">
		
			<rect x="332.274" y="422.165" fill="none" stroke="#000000" stroke-width="0.08" stroke-linecap="square" stroke-miterlimit="10" width="2.979" height="3.137"/>
	</g>
	<g id="POLYLINE_51499_">
		
			<line fill="none" stroke="#000000" stroke-width="0.08" stroke-linecap="square" stroke-miterlimit="10" x1="335.704" y1="434.625" x2="331.856" y2="434.625"/>
	</g>
	<g id="POLYLINE_51498_">
		
			<line fill="none" stroke="#000000" stroke-width="0.08" stroke-linecap="square" stroke-miterlimit="10" x1="335.704" y1="431.217" x2="331.856" y2="431.217"/>
	</g>
	<g id="POLYLINE_51497_">
		
			<line fill="none" stroke="#000000" stroke-width="0.08" stroke-linecap="square" stroke-miterlimit="10" x1="335.704" y1="418.53" x2="331.856" y2="418.53"/>
	</g>
	<g id="POLYLINE_51496_">
		
			<line fill="none" stroke="#000000" stroke-width="0.08" stroke-linecap="square" stroke-miterlimit="10" x1="335.704" y1="414.756" x2="331.856" y2="414.756"/>
	</g>
	<g id="POLYLINE_51495_">
		
			<line fill="none" stroke="#000000" stroke-width="0.08" stroke-linecap="square" stroke-miterlimit="10" x1="333.836" y1="410.918" x2="331.856" y2="410.918"/>
	</g>
	<g id="POLYLINE_51494_">
		<polygon fill="none" stroke="#000000" stroke-width="0.08" stroke-linecap="square" stroke-miterlimit="10" points="
			331.856,407.873 331.856,436.982 335.704,436.982 335.704,410.918 333.836,410.918 333.836,407.873 		"/>
	</g>
	<g id="POLYLINE_51493_">
		
			<rect x="326.782" y="446.974" transform="matrix(0.9628 0.2703 -0.2703 0.9628 133.3934 -72.0127)" fill="none" stroke="#000000" stroke-width="0.08" stroke-linecap="square" stroke-miterlimit="10" width="2.835" height="2.835"/>
	</g>
	<g id="POLYLINE_51492_">
		
			<rect x="323.637" y="441.154" transform="matrix(0.9628 0.2703 -0.2703 0.9628 131.7036 -71.3791)" fill="none" stroke="#000000" stroke-width="0.08" stroke-linecap="square" stroke-miterlimit="10" width="2.835" height="2.835"/>
	</g>
	<g id="POLYLINE_51491_">
		
			<rect x="331.851" y="438.116" fill="none" stroke="#000000" stroke-width="0.08" stroke-linecap="square" stroke-miterlimit="10" width="3.853" height="12.454"/>
	</g>
	<g id="POLYLINE_51490_">
		
			<rect x="320.162" y="446.509" fill="none" stroke="#000000" stroke-width="0.08" stroke-linecap="square" stroke-miterlimit="10" width="4.437" height="4.061"/>
	</g>
	<g id="POLYLINE_51489_">
		
			<rect x="311.264" y="408.817" fill="none" stroke="#000000" stroke-width="0.08" stroke-linecap="square" stroke-miterlimit="10" width="3.745" height="2.4"/>
	</g>
	<g id="CIRCLE_1617_">
		<path fill="none" stroke="#000000" stroke-width="0.08" stroke-linecap="square" stroke-miterlimit="10" d="M313.271,409.681
			c0.001-0.126-0.099-0.229-0.225-0.231s-0.229,0.099-0.231,0.225s0.099,0.229,0.225,0.231
			C313.166,409.908,313.27,409.807,313.271,409.681L313.271,409.681z"/>
	</g>
	<g id="SPLINE_1476_">
		<path fill="none" stroke="#000000" stroke-width="0.08" stroke-linecap="square" stroke-miterlimit="10" d="M316.883,417.24
			c0.059-0.23,0.098-0.466,0.112-0.703c0.01-0.18,0.006-0.36-0.006-0.54c-0.016-0.23-0.044-0.46-0.13-0.679
			c-0.048-0.124-0.115-0.245-0.212-0.33c-0.151-0.132-0.375-0.175-0.584-0.187c-0.112-0.007-0.219-0.005-0.329,0.013
			c-0.156,0.025-0.317,0.082-0.433,0.182c-0.177,0.153-0.251,0.409-0.295,0.654c-0.049,0.272-0.061,0.531-0.049,0.795
			c0.008,0.175,0.027,0.352,0.058,0.527c0.016,0.091,0.036,0.18,0.058,0.269"/>
	</g>
	<g id="POLYLINE_51488_">
		
			<rect x="314.493" y="417.24" fill="none" stroke="#000000" stroke-width="0.08" stroke-linecap="square" stroke-miterlimit="10" width="2.971" height="1.473"/>
	</g>
	<g id="POLYLINE_51487_">
		
			<line fill="none" stroke="#000000" stroke-width="0.08" stroke-linecap="square" stroke-miterlimit="10" x1="241.207" y1="386.4" x2="237.852" y2="386.4"/>
	</g>
</g>
<g id="PLAN_x24_DETAIL">
	<g id="POLYLINE_52255_">
		<polyline fill="none" stroke="#000000" stroke-width="0.08" stroke-linecap="square" stroke-miterlimit="10" points="
			305.592,397.919 311.706,397.919 317.821,397.919 		"/>
	</g>
	<g id="POLYLINE_52254_">
		
			<line fill="none" stroke="#000000" stroke-width="0.08" stroke-linecap="square" stroke-miterlimit="10" x1="254.616" y1="404.544" x2="250.685" y2="405.314"/>
	</g>
	<g id="ARC_4269_">
		<path fill="none" stroke="#000000" stroke-width="0.08" stroke-linecap="square" stroke-miterlimit="10" d="M250.685,405.314
			c0.495,2.526,2.944,4.173,5.47,3.679c2.526-0.495,4.173-2.944,3.679-5.47c-0.104-0.534-0.302-1.045-0.582-1.511"/>
	</g>
	<g id="POLYLINE_52253_">
		
			<line fill="none" stroke="#000000" stroke-width="0.08" stroke-linecap="square" stroke-miterlimit="10" x1="259.252" y1="402.012" x2="255.821" y2="404.08"/>
	</g>
	<g id="POLYLINE_52252_">
		<polyline fill="none" stroke="#000000" stroke-width="0.08" stroke-linecap="square" stroke-miterlimit="10" points="
			305.592,392.657 311.706,392.657 317.821,392.657 		"/>
	</g>
	<g id="POLYLINE_52251_">
		<polyline fill="none" stroke="#000000" stroke-width="0.08" stroke-linecap="square" stroke-miterlimit="10" points="
			305.592,394.411 311.706,394.411 317.821,394.411 		"/>
	</g>
	<g id="POLYLINE_52250_">
		<polyline fill="none" stroke="#000000" stroke-width="0.08" stroke-linecap="square" stroke-miterlimit="10" points="
			305.592,396.165 311.706,396.165 317.821,396.165 		"/>
	</g>
	<g id="POLYLINE_52249_">
		<polyline fill="none" stroke="#000000" stroke-width="0.08" stroke-linecap="square" stroke-miterlimit="10" points="
			305.592,389.148 311.706,389.148 317.821,389.148 		"/>
	</g>
	<g id="POLYLINE_52248_">
		<polyline fill="none" stroke="#000000" stroke-width="0.08" stroke-linecap="square" stroke-miterlimit="10" points="
			305.592,390.903 311.706,390.903 317.821,390.903 		"/>
	</g>
	<g id="POLYLINE_52247_">
		<polyline fill="none" stroke="#000000" stroke-width="0.08" stroke-linecap="square" stroke-miterlimit="10" points="
			305.592,399.674 311.706,399.674 317.821,399.674 		"/>
	</g>
	<g id="POLYLINE_52246_">
		
			<line fill="none" stroke="#000000" stroke-width="0.08" stroke-linecap="square" stroke-miterlimit="10" x1="305.592" y1="401.428" x2="317.821" y2="401.428"/>
	</g>
	<g id="POLYLINE_52245_">
		
			<line fill="none" stroke="#000000" stroke-width="0.08" stroke-linecap="square" stroke-miterlimit="10" x1="311.706" y1="387.394" x2="311.706" y2="401.428"/>
	</g>
	<g id="POLYLINE_52244_">
		<polyline fill="none" stroke="#000000" stroke-width="0.08" stroke-linecap="square" stroke-miterlimit="10" points="
			258.026,379.956 243.518,372.92 242.652,374.705 		"/>
	</g>
	<g id="POLYLINE_52243_">
		
			<line fill="none" stroke="#000000" stroke-width="0.08" stroke-linecap="square" stroke-miterlimit="10" x1="237.622" y1="374.147" x2="238.308" y2="369.179"/>
	</g>
	<g id="ARC_4268_">
		<path fill="none" stroke="#000000" stroke-width="0.08" stroke-linecap="square" stroke-miterlimit="10" d="M238.308,369.179
			c2.744,0.379,4.661,2.91,4.282,5.653"/>
	</g>
	<g id="POLYLINE_52242_">
		
			<line fill="none" stroke="#000000" stroke-width="0.08" stroke-linecap="square" stroke-miterlimit="10" x1="232.329" y1="369.196" x2="230.084" y2="373.721"/>
	</g>
	<g id="ARC_4267_">
		<path fill="none" stroke="#000000" stroke-width="0.08" stroke-linecap="square" stroke-miterlimit="10" d="M230.084,373.721
			c2.499,1.24,5.53,0.218,6.77-2.281"/>
	</g>
	<g id="POLYLINE_52241_">
		
			<rect x="307.599" y="447.246" fill="none" stroke="#000000" stroke-width="0.08" stroke-linecap="square" stroke-miterlimit="10" width="12.563" height="3.324"/>
	</g>
	<g id="POLYLINE_52240_">
		
			<line fill="none" stroke="#000000" stroke-width="0.08" stroke-linecap="square" stroke-miterlimit="10" x1="307.599" y1="450.57" x2="335.704" y2="450.57"/>
	</g>
	<g id="POLYLINE_52239_">
		
			<line fill="none" stroke="#000000" stroke-width="0.08" stroke-linecap="square" stroke-miterlimit="10" x1="307.599" y1="451.987" x2="335.704" y2="451.987"/>
	</g>
	<g id="POLYLINE_52238_">
		<polyline fill="none" stroke="#000000" stroke-width="0.08" stroke-linecap="square" stroke-miterlimit="10" points="
			310.071,418.713 310.071,412.112 305.592,412.112 		"/>
	</g>
	<g id="CIRCLE_1622_">
		<path fill="none" stroke="#000000" stroke-width="0.08" stroke-linecap="square" stroke-miterlimit="10" d="M306.466,415.571
			c0-0.103,0.084-0.187,0.187-0.187s0.187,0.084,0.187,0.187s-0.084,0.187-0.187,0.187S306.466,415.674,306.466,415.571
			L306.466,415.571z"/>
	</g>
	<g id="POLYLINE_52237_">
		
			<line fill="none" stroke="#000000" stroke-width="0.08" stroke-linecap="square" stroke-miterlimit="10" x1="307.173" y1="416.099" x2="308.183" y2="417.124"/>
	</g>
	<g id="POLYLINE_52236_">
		
			<line fill="none" stroke="#000000" stroke-width="0.08" stroke-linecap="square" stroke-miterlimit="10" x1="307.181" y1="415.05" x2="308.207" y2="414.041"/>
	</g>
	<g id="POLYLINE_52235_">
		
			<line fill="none" stroke="#000000" stroke-width="0.08" stroke-linecap="square" stroke-miterlimit="10" x1="307.395" y1="415.571" x2="308.833" y2="415.571"/>
	</g>
	<g id="POLYLINE_52234_">
		
			<line fill="none" stroke="#000000" stroke-width="0.08" stroke-linecap="square" stroke-miterlimit="10" x1="230.062" y1="377.13" x2="235.728" y2="377.13"/>
	</g>
	<g id="POLYLINE_52233_">
		
			<line fill="none" stroke="#000000" stroke-width="0.08" stroke-linecap="square" stroke-miterlimit="10" x1="305.592" y1="387.394" x2="317.821" y2="387.394"/>
	</g>
	<g id="POLYLINE_52232_">
		
			<line fill="none" stroke="#000000" stroke-width="0.08" stroke-linecap="square" stroke-miterlimit="10" x1="255.907" y1="404.52" x2="259.864" y2="405.141"/>
	</g>
	<g id="POLYLINE_52231_">
		
			<line fill="none" stroke="#000000" stroke-width="0.08" stroke-linecap="square" stroke-miterlimit="10" x1="255.69" y1="404.912" x2="258.322" y2="407.932"/>
	</g>
	<g id="POLYLINE_52230_">
		
			<line fill="none" stroke="#000000" stroke-width="0.08" stroke-linecap="square" stroke-miterlimit="10" x1="255.272" y1="405.073" x2="255.347" y2="409.079"/>
	</g>
	<g id="POLYLINE_52229_">
		
			<line fill="none" stroke="#000000" stroke-width="0.08" stroke-linecap="square" stroke-miterlimit="10" x1="254.847" y1="404.928" x2="252.331" y2="408.045"/>
	</g>
	<g id="CIRCLE_1621_">
		<path fill="none" stroke="#000000" stroke-width="0.08" stroke-linecap="square" stroke-miterlimit="10" d="M254.604,404.418
			c0-0.362,0.293-0.655,0.655-0.655c0.362,0,0.655,0.293,0.655,0.655c0,0.362-0.293,0.655-0.655,0.655
			C254.897,405.073,254.604,404.78,254.604,404.418L254.604,404.418z"/>
	</g>
	<g id="POLYLINE_52228_">
		
			<line fill="none" stroke="#000000" stroke-width="0.08" stroke-linecap="square" stroke-miterlimit="10" x1="249.842" y1="409.332" x2="249.842" y2="405.363"/>
	</g>
	<g id="ARC_4266_">
		<path fill="none" stroke="#000000" stroke-width="0.08" stroke-linecap="square" stroke-miterlimit="10" d="M249.842,405.363
			c-2.192,0-3.969,1.777-3.969,3.969"/>
	</g>
	<g id="POLYLINE_52227_">
		
			<line fill="none" stroke="#000000" stroke-width="0.08" stroke-linecap="square" stroke-miterlimit="10" x1="241.905" y1="409.332" x2="241.905" y2="405.363"/>
	</g>
	<g id="ARC_4265_">
		<path fill="none" stroke="#000000" stroke-width="0.08" stroke-linecap="square" stroke-miterlimit="10" d="M241.905,405.363
			c2.192,0,3.969,1.777,3.969,3.969"/>
	</g>
	<g id="POLYLINE_52226_">
		
			<line fill="none" stroke="#000000" stroke-width="0.08" stroke-linecap="square" stroke-miterlimit="10" x1="230.626" y1="394.208" x2="230.626" y2="389.106"/>
	</g>
	<g id="ARC_4264_">
		<path fill="none" stroke="#000000" stroke-width="0.08" stroke-linecap="square" stroke-miterlimit="10" d="M230.626,389.106
			c2.818,0,5.102,2.284,5.102,5.102"/>
	</g>
	<g id="POLYLINE_52225_">
		
			<line fill="none" stroke="#000000" stroke-width="0.08" stroke-linecap="square" stroke-miterlimit="10" x1="312.123" y1="380.705" x2="312.123" y2="375.603"/>
	</g>
	<g id="ARC_4263_">
		<path fill="none" stroke="#000000" stroke-width="0.08" stroke-linecap="square" stroke-miterlimit="10" d="M312.123,375.603
			c2.818,0,5.102,2.284,5.102,5.102"/>
	</g>
	<g id="POLYLINE_52224_">
		
			<line fill="none" stroke="#000000" stroke-width="0.08" stroke-linecap="square" stroke-miterlimit="10" x1="326.749" y1="437.549" x2="326.749" y2="432.447"/>
	</g>
	<g id="ARC_4262_">
		<path fill="none" stroke="#000000" stroke-width="0.08" stroke-linecap="square" stroke-miterlimit="10" d="M326.749,432.447
			c2.818,0,5.102,2.284,5.102,5.102"/>
	</g>
	<g id="POLYLINE_52223_">
		
			<line fill="none" stroke="#000000" stroke-width="0.08" stroke-linecap="square" stroke-miterlimit="10" x1="320.353" y1="414.436" x2="320.353" y2="419.538"/>
	</g>
	<g id="ARC_4261_">
		<path fill="none" stroke="#000000" stroke-width="0.08" stroke-linecap="square" stroke-miterlimit="10" d="M320.353,419.538
			c2.818,0,5.102-2.284,5.102-5.102"/>
	</g>
	<g id="POLYLINE_52222_">
		
			<line fill="none" stroke="#000000" stroke-width="0.08" stroke-linecap="square" stroke-miterlimit="10" x1="319.501" y1="413.26" x2="315.533" y2="413.26"/>
	</g>
	<g id="ARC_4260_">
		<path fill="none" stroke="#000000" stroke-width="0.08" stroke-linecap="square" stroke-miterlimit="10" d="M315.533,413.26
			c0-2.192,1.777-3.969,3.969-3.969"/>
	</g>
	<g id="POLYLINE_52221_">
		<polyline fill="none" stroke="#000000" stroke-width="0.08" stroke-linecap="square" stroke-miterlimit="10" points="
			332.146,379.273 334.1,375.245 311.341,364.206 309.388,368.234 		"/>
	</g>
	<g id="POLYLINE_52220_">
		<polyline fill="none" stroke="#000000" stroke-width="0.08" stroke-linecap="square" stroke-miterlimit="10" points="
			332.657,379.52 334.858,374.983 311.078,363.449 308.877,367.986 		"/>
	</g>
	<g id="POLYLINE_52219_">
		
			<line fill="none" stroke="#000000" stroke-width="0.08" stroke-linecap="square" stroke-miterlimit="10" x1="230.062" y1="382.392" x2="235.728" y2="382.392"/>
	</g>
	<g id="POLYLINE_52218_">
		
			<line fill="none" stroke="#000000" stroke-width="0.08" stroke-linecap="square" stroke-miterlimit="10" x1="230.062" y1="380.638" x2="235.728" y2="380.638"/>
	</g>
	<g id="POLYLINE_52217_">
		
			<line fill="none" stroke="#000000" stroke-width="0.08" stroke-linecap="square" stroke-miterlimit="10" x1="230.062" y1="378.884" x2="235.728" y2="378.884"/>
	</g>
	<g id="POLYLINE_52216_">
		
			<line fill="none" stroke="#000000" stroke-width="0.08" stroke-linecap="square" stroke-miterlimit="10" x1="232.895" y1="384.147" x2="235.728" y2="384.147"/>
	</g>
</g>
<g id="PLAN_x24_CLOISON_TRANSLUCIDE">
</g>
<g id="PLAN_x24_CLOISON_1.3">
</g>
<g id="PLAN_x24_CLOISON_1.2">
	<g id="POLYLINE_52355_">
		<polyline fill="none" stroke="#000000" stroke-width="0.18" stroke-linecap="square" stroke-miterlimit="10" points="
			305.592,380.422 312.123,380.422 312.123,380.988 305.592,380.988 		"/>
	</g>
	<g id="POLYLINE_52354_">
		<polyline fill="none" stroke="#000000" stroke-width="0.18" stroke-linecap="square" stroke-miterlimit="10" points="
			305.592,418.713 319.218,418.713 319.218,413.26 319.785,413.26 319.785,414.152 320.353,414.152 320.353,414.719 
			319.785,414.719 319.785,419.28 305.592,419.28 		"/>
	</g>
	<g id="POLYLINE_52353_">
		<polyline fill="none" stroke="#000000" stroke-width="0.18" stroke-linecap="square" stroke-miterlimit="10" points="
			305.592,408.154 317.821,408.154 317.821,380.988 317.225,380.988 317.225,380.422 318.388,380.422 318.388,408.154 
			319.785,408.154 319.785,409.292 319.218,409.292 319.218,408.721 305.592,408.721 		"/>
	</g>
	<g id="POLYLINE_52352_">
		<polygon fill="none" stroke="#000000" stroke-width="0.18" stroke-linecap="square" stroke-miterlimit="10" points="
			325.842,414.719 325.842,436.982 326.409,436.982 326.409,414.152 325.842,414.152 325.456,414.152 325.456,414.719 		"/>
	</g>
	<g id="POLYLINE_52351_">
		<polyline fill="none" stroke="#000000" stroke-width="0.18" stroke-linecap="square" stroke-miterlimit="10" points="
			230.062,446.873 246.488,446.873 246.488,450.57 		"/>
	</g>
	<g id="POLYLINE_52350_">
		<polyline fill="none" stroke="#000000" stroke-width="0.18" stroke-linecap="square" stroke-miterlimit="10" points="
			230.062,446.306 247.055,446.306 247.055,450.57 		"/>
	</g>
	<g id="POLYLINE_52349_">
		
			<rect x="331.856" y="407.306" fill="none" stroke="#000000" stroke-width="0.18" stroke-linecap="square" stroke-miterlimit="10" width="1.98" height="0.567"/>
	</g>
</g>
<g id="PLAN_x24_CLOISON_1.1">
</g>
<g id="PLAN_x24_STRUCTURE_2.3">
	<g id="POLYLINE_51069_">
		
			<rect x="305.592" y="436.982" fill="none" stroke="#000000" stroke-width="0.27" stroke-linecap="square" stroke-miterlimit="10" width="10.384" height="1.134"/>
	</g>
	<g id="POLYLINE_51068_">
		
			<rect x="331.851" y="436.982" fill="none" stroke="#000000" stroke-width="0.27" stroke-linecap="square" stroke-miterlimit="10" width="3.853" height="1.134"/>
	</g>
	<g id="POLYLINE_51067_">
		
			<rect x="320.228" y="436.982" fill="none" stroke="#000000" stroke-width="0.27" stroke-linecap="square" stroke-miterlimit="10" width="6.521" height="1.134"/>
	</g>
	<g id="POLYLINE_51065_">
		
			<line fill="none" stroke="#000000" stroke-width="0.27" stroke-linecap="square" stroke-miterlimit="10" x1="237.208" y1="369.859" x2="237.993" y2="370.24"/>
	</g>
	<g id="POLYLINE_51064_">
		
			<rect x="230.062" y="393.764" fill="none" stroke="#000000" stroke-width="0.27" stroke-linecap="square" stroke-miterlimit="10" width="0.564" height="0.85"/>
	</g>
	<g id="POLYLINE_51063_">
		
			<rect x="307.599" y="446.509" fill="none" stroke="#000000" stroke-width="0.27" stroke-linecap="square" stroke-miterlimit="10" width="12.563" height="0.737"/>
	</g>
</g>
<g id="PLAN_x24_STRUCTURE_2.2">
</g>
<g id="PLAN_x24_STRUCTURE_2.1">
</g>
<g id="PLAN_x24_STRUCTURE_1.3">
	<g id="POLYLINE_51066_">
		<polygon fill="none" stroke="#000000" stroke-width="0.41" stroke-linecap="square" stroke-miterlimit="10" points="
			236.579,376.466 237.476,375.631 237.993,370.24 237.208,369.859 235.728,376.37 235.728,394.614 236.579,394.614 		"/>
	</g>
</g>
<g id="PLAN_x24_STRUCTURE_1.2">
	<g id="POLYLINE_52341_">
		<polygon fill="none" stroke="#000000" stroke-width="0.45" stroke-linecap="square" stroke-miterlimit="10" points="
			307.766,369.023 311.542,370.854 312.161,369.579 304.174,365.705 304.174,451.987 307.599,451.987 307.599,450.57 
			307.599,446.509 305.592,446.509 305.592,368.913 307.395,369.788 		"/>
	</g>
	<g id="POLYLINE_52340_">
		<polygon fill="none" stroke="#000000" stroke-width="0.45" stroke-linecap="square" stroke-miterlimit="10" points="
			335.704,410.918 335.704,449.057 335.704,451.987 337.122,451.987 337.122,381.686 329.294,377.889 328.675,379.165 
			332.967,381.246 332.596,382.011 335.459,383.4 335.021,384.304 335.704,384.666 335.704,407.306 333.836,407.306 
			333.836,410.918 		"/>
	</g>
	<g id="POLYLINE_52339_">
		<polygon fill="none" stroke="#000000" stroke-width="0.45" stroke-linecap="square" stroke-miterlimit="10" points="
			232.003,369.855 230.062,368.913 230.062,449.057 232.069,449.057 232.069,450.57 258.167,450.57 258.167,449.057 
			260.174,449.057 260.174,384.666 259.491,384.304 259.929,383.4 257.036,381.997 258.026,379.956 261.592,381.686 
			261.592,451.987 228.645,451.987 228.645,365.705 232.993,367.814 		"/>
	</g>
</g>
<g id="PLAN_x24_STRUCTURE_1.1">
</g>
</svg>
