<?xml version="1.0" encoding="utf-8"?>
<!-- Generator: Adobe Illustrator 22.0.1, SVG Export Plug-In . SVG Version: 6.00 Build 0)  -->
<svg version="1.1" id="Calque_1" xmlns="http://www.w3.org/2000/svg" xmlns:xlink="http://www.w3.org/1999/xlink" x="0px" y="0px"
	 viewBox="0 0 192.5 142.2" style="enable-background:new 0 0 192.5 142.2;" xml:space="preserve">
<style type="text/css">
	.st0{display:none;}
	.st1{display:inline;}
	.st2{fill:none;}
	.st3{fill:none;stroke:#000000;stroke-width:5.000000e-02;stroke-linecap:square;stroke-miterlimit:10;}
	.st4{fill:none;stroke:#000000;stroke-width:0.1;stroke-linecap:square;stroke-miterlimit:10;stroke-dasharray:0.5,0.5;}
	.st5{fill:none;stroke:#000000;stroke-width:8.000000e-02;stroke-linecap:square;stroke-miterlimit:10;}
	.st6{fill:none;stroke:#000000;stroke-width:0.18;stroke-linecap:square;stroke-miterlimit:10;}
	.st7{fill:none;stroke:#000000;stroke-width:0.45;stroke-linecap:square;stroke-miterlimit:10;}
</style>
<g id="Calque_1_1_">
</g>
<g id="INFOS_x24_A4" class="st0">
	<g id="POLYLINE_52738_" class="st1">
		<rect x="-213.5" y="-350" class="st2" width="595.3" height="841.9"/>
	</g>
</g>
<g id="PLAN_x24_FOND">
	<g id="POLYLINE_51926_">
		<polyline class="st3" points="132.7,115.9 132.7,135.7 187.2,135.7 187.2,77.1 		"/>
	</g>
	<g id="LINE_6676_">
		<line class="st3" x1="153.7" y1="115.9" x2="153.7" y2="135.7"/>
	</g>
	<g id="POLYLINE_51925_">
		<line class="st3" x1="57" y1="135.7" x2="57" y2="77.1"/>
	</g>
</g>
<g id="PLAN_x24_POINTILLE">
	<g id="POLYLINE_51924_">
		<polygon class="st4" points="168.7,37.7 153.4,55.5 153.4,37.7 		"/>
	</g>
	<g id="POLYLINE_51923_">
		<line class="st4" x1="4" y1="43.8" x2="10" y2="46.6"/>
	</g>
	<g id="POLYLINE_51744_">
		<line class="st4" x1="153.4" y1="37.7" x2="168.7" y2="55.5"/>
	</g>
	<g id="POLYLINE_51743_">
		<polyline class="st4" points="38.5,37.7 23.3,37.7 23.3,55.5 		"/>
	</g>
	<g id="POLYLINE_51742_">
		<line class="st4" x1="4" y1="43.1" x2="10" y2="45.9"/>
	</g>
</g>
<g id="PLAN_x24_VITRAGE">
	<g id="POLYLINE_52732_">
		<line class="st3" x1="153.1" y1="97.3" x2="153.1" y2="108.1"/>
	</g>
	<g id="POLYLINE_52731_">
		<line class="st3" x1="153.1" y1="79.8" x2="153.1" y2="90.6"/>
	</g>
	<g id="POLYLINE_52730_">
		<line class="st3" x1="174.8" y1="76.4" x2="163.5" y2="76.4"/>
	</g>
	<g id="POLYLINE_52729_">
		<line class="st3" x1="163" y1="3.9" x2="156.8" y2="3.9"/>
	</g>
	<g id="POLYLINE_52364_">
		<line class="st3" x1="178.7" y1="3.9" x2="172.5" y2="3.9"/>
	</g>
	<g id="POLYLINE_52363_">
		<line class="st3" x1="147.3" y1="3.9" x2="141.2" y2="3.9"/>
	</g>
	<g id="POLYLINE_52362_">
		<line class="st3" x1="17.2" y1="3.9" x2="11" y2="3.9"/>
	</g>
	<g id="POLYLINE_52361_">
		<line class="st3" x1="48.6" y1="3.9" x2="42.4" y2="3.9"/>
	</g>
	<g id="POLYLINE_52360_">
		<line class="st3" x1="46.9" y1="76.4" x2="42.3" y2="76.4"/>
	</g>
	<g id="POLYLINE_52359_">
		<line class="st3" x1="23" y1="85.3" x2="23" y2="98.6"/>
	</g>
	<g id="POLYLINE_52358_">
		<line class="st3" x1="23" y1="123.6" x2="23" y2="130.6"/>
	</g>
	<g id="POLYLINE_52357_">
		<line class="st3" x1="23" y1="108" x2="23" y2="115.1"/>
	</g>
</g>
<g id="PLAN_x24_MOBILIER">
	<g id="POLYLINE_51741_">
		<polyline class="st5" points="175.2,59.3 169.4,59.3 163.6,59.3 		"/>
	</g>
	<g id="POLYLINE_51740_">
		<polyline class="st5" points="15.5,56.9 15.5,60.9 16.5,60.9 16.5,56.9 8.6,56.9 8.6,60.9 9.6,60.9 9.6,56.9 		"/>
	</g>
	<g id="POLYLINE_51739_">
		<polyline class="st5" points="55.6,26 51.7,26 51.7,27 55.6,27 55.6,19.1 51.7,19.1 51.7,20.1 55.6,20.1 		"/>
	</g>
	<g id="POLYLINE_51738_">
		<polyline class="st5" points="55.6,15.7 51.7,15.7 51.7,16.7 55.6,16.7 55.6,8.8 51.7,8.8 51.7,9.8 55.6,9.8 		"/>
	</g>
	<g id="POLYLINE_51737_">
		<polyline class="st5" points="49.8,4.6 49.8,8.5 50.8,8.5 50.8,4.6 42.9,4.6 42.9,8.5 43.9,8.5 43.9,4.6 		"/>
	</g>
	<g id="POLYLINE_51736_">
		<polyline class="st5" points="136.5,70.4 136.5,76.2 136.5,82 		"/>
	</g>
	<g id="POLYLINE_51735_">
		<rect x="134.1" y="4.6" class="st5" width="5.8" height="11.5"/>
	</g>
	<g id="POLYLINE_51734_">
		<line class="st5" x1="139.9" y1="7" x2="134.1" y2="7"/>
	</g>
	<g id="POLYLINE_51733_">
		<line class="st5" x1="139.9" y1="8.6" x2="135.9" y2="7"/>
	</g>
	<g id="POLYLINE_51732_">
		<rect x="135.7" y="5" class="st5" width="2.7" height="1.5"/>
	</g>
	<g id="POLYLINE_51731_">
		<rect x="135.7" y="28" class="st5" width="2.7" height="1.5"/>
	</g>
	<g id="POLYLINE_51730_">
		<line class="st5" x1="139.9" y1="25.9" x2="135.9" y2="27.5"/>
	</g>
	<g id="POLYLINE_51729_">
		<line class="st5" x1="139.9" y1="27.5" x2="134.1" y2="27.5"/>
	</g>
	<g id="POLYLINE_51728_">
		<rect x="134.1" y="18.5" class="st5" width="5.8" height="11.5"/>
	</g>
	<g id="POLYLINE_51727_">
		<rect x="134.6" y="58.5" class="st5" width="1.5" height="2.7"/>
	</g>
	<g id="POLYLINE_51726_">
		<line class="st5" x1="138.1" y1="56.9" x2="136.5" y2="61"/>
	</g>
	<g id="POLYLINE_51725_">
		<line class="st5" x1="136.5" y1="56.9" x2="136.5" y2="62.7"/>
	</g>
	<g id="POLYLINE_51724_">
		<rect x="134.1" y="56.9" class="st5" width="11.5" height="5.8"/>
	</g>
	<g id="POLYLINE_51723_">
		<rect x="134.1" y="86.1" class="st5" width="11.5" height="5.8"/>
	</g>
	<g id="POLYLINE_51722_">
		<line class="st5" x1="136.5" y1="86.1" x2="136.5" y2="91.9"/>
	</g>
	<g id="POLYLINE_51721_">
		<line class="st5" x1="138.1" y1="86.1" x2="136.5" y2="90.1"/>
	</g>
	<g id="POLYLINE_51720_">
		<rect x="134.6" y="87.7" class="st5" width="1.5" height="2.7"/>
	</g>
	<g id="POLYLINE_51719_">
		<rect x="134.1" y="70.4" class="st5" width="11.5" height="5.8"/>
	</g>
	<g id="POLYLINE_51718_">
		<line class="st5" x1="138.1" y1="70.4" x2="136.5" y2="74.5"/>
	</g>
	<g id="POLYLINE_51717_">
		<rect x="134.6" y="72" class="st5" width="1.5" height="2.7"/>
	</g>
	<g id="POLYLINE_51707_">
		<rect x="134.6" y="77.8" class="st5" width="1.5" height="2.7"/>
	</g>
	<g id="POLYLINE_51706_">
		<line class="st5" x1="138.1" y1="76.2" x2="136.5" y2="80.3"/>
	</g>
	<g id="POLYLINE_51705_">
		<rect x="134.1" y="76.2" class="st5" width="11.5" height="5.8"/>
	</g>
	<g id="POLYLINE_51704_">
		<rect x="163.6" y="56.9" class="st5" width="5.8" height="11.5"/>
	</g>
	<g id="POLYLINE_51703_">
		<line class="st5" x1="169.4" y1="61" x2="165.4" y2="59.3"/>
	</g>
	<g id="POLYLINE_51702_">
		<rect x="165.2" y="57.4" class="st5" width="2.7" height="1.5"/>
	</g>
	<g id="POLYLINE_51701_">
		<rect x="171" y="57.4" class="st5" width="2.7" height="1.5"/>
	</g>
	<g id="POLYLINE_51700_">
		<line class="st5" x1="175.2" y1="61" x2="171.2" y2="59.3"/>
	</g>
	<g id="POLYLINE_51699_">
		<rect x="169.4" y="56.9" class="st5" width="5.8" height="11.5"/>
	</g>
	<g id="POLYLINE_51698_">
		<rect x="179.9" y="64.2" class="st5" width="5.8" height="11.5"/>
	</g>
	<g id="POLYLINE_51697_">
		<line class="st5" x1="179.9" y1="73.2" x2="185.7" y2="73.2"/>
	</g>
	<g id="POLYLINE_51696_">
		<line class="st5" x1="179.9" y1="71.6" x2="184" y2="73.2"/>
	</g>
	<g id="POLYLINE_51695_">
		<rect x="181.5" y="73.7" class="st5" width="2.7" height="1.5"/>
	</g>
	<g id="POLYLINE_51694_">
		<rect x="154.7" y="73.7" class="st5" width="2.7" height="1.5"/>
	</g>
	<g id="POLYLINE_51693_">
		<line class="st5" x1="153.1" y1="71.6" x2="157.2" y2="73.2"/>
	</g>
	<g id="POLYLINE_51692_">
		<line class="st5" x1="153.1" y1="73.2" x2="158.9" y2="73.2"/>
	</g>
	<g id="POLYLINE_51691_">
		<rect x="153.1" y="64.2" class="st5" width="5.8" height="11.5"/>
	</g>
	<g id="POLYLINE_51690_">
		<rect x="162.9" y="4.6" class="st5" width="5.8" height="11.5"/>
	</g>
	<g id="POLYLINE_51689_">
		<line class="st5" x1="162.9" y1="13.6" x2="168.7" y2="13.6"/>
	</g>
	<g id="POLYLINE_51688_">
		<line class="st5" x1="162.9" y1="12" x2="166.9" y2="13.6"/>
	</g>
	<g id="POLYLINE_51687_">
		<rect x="164.4" y="14.1" class="st5" width="2.7" height="1.5"/>
	</g>
	<g id="POLYLINE_51686_">
		<rect x="162.9" y="18.5" class="st5" width="5.8" height="11.5"/>
	</g>
	<g id="POLYLINE_51685_">
		<line class="st5" x1="168.7" y1="27.5" x2="162.9" y2="27.5"/>
	</g>
	<g id="POLYLINE_51684_">
		<line class="st5" x1="168.7" y1="25.9" x2="164.6" y2="27.5"/>
	</g>
	<g id="POLYLINE_51683_">
		<rect x="164.4" y="28" class="st5" width="2.7" height="1.5"/>
	</g>
	<g id="CIRCLE_1614_">
		<path class="st5" d="M137.8,113.5c0-0.2,0.2-0.4,0.4-0.4c0.2,0,0.4,0.2,0.4,0.4c0,0.2-0.2,0.4-0.4,0.4S137.8,113.6,137.8,113.5
			L137.8,113.5z"/>
	</g>
	<g id="CIRCLE_1613_">
		<path class="st5" d="M172.1,25.4c0-0.2,0.2-0.4,0.4-0.4c0.2,0,0.4,0.2,0.4,0.4c0,0.2-0.2,0.4-0.4,0.4
			C172.3,25.8,172.1,25.6,172.1,25.4L172.1,25.4z"/>
	</g>
	<g id="CIRCLE_1612_">
		<path class="st5" d="M182.7,25.4c0-0.2,0.2-0.4,0.4-0.4c0.2,0,0.4,0.2,0.4,0.4c0,0.2-0.2,0.4-0.4,0.4
			C182.9,25.8,182.7,25.6,182.7,25.4L182.7,25.4z"/>
	</g>
	<g id="CIRCLE_1611_">
		<path class="st5" d="M182.7,13.7c0-0.2,0.2-0.4,0.4-0.4c0.2,0,0.4,0.2,0.4,0.4c0,0.2-0.2,0.4-0.4,0.4
			C182.9,14,182.7,13.9,182.7,13.7L182.7,13.7z"/>
	</g>
	<g id="POLYLINE_51682_">
		<line class="st5" x1="180.6" y1="9.8" x2="185.7" y2="9.8"/>
	</g>
	<g id="POLYLINE_51681_">
		<line class="st5" x1="180.6" y1="21.5" x2="185.7" y2="21.5"/>
	</g>
	<g id="POLYLINE_51680_">
		<line class="st5" x1="175" y1="21.5" x2="169.8" y2="21.5"/>
	</g>
	<g id="POLYLINE_51679_">
		<line class="st5" x1="141.9" y1="108.1" x2="134.1" y2="108.1"/>
	</g>
	<g id="SPLINE_1475_">
		<path class="st5" d="M142.8,111.8c0-1,0.5-1.5,1.5-1.5s1.5,0.5,1.5,1.5"/>
	</g>
	<g id="SPLINE_1464_">
		<path class="st5" d="M152.1,111.8c0-1-0.5-1.5-1.5-1.5s-1.5,0.5-1.5,1.5"/>
	</g>
	<g id="SPLINE_1463_">
		<path class="st5" d="M185.7,35.3c-1,0-1.5,0.5-1.5,1.5s0.5,1.5,1.5,1.5"/>
	</g>
	<g id="SPLINE_1462_">
		<path class="st5" d="M185.7,29c-1,0-1.5,0.5-1.5,1.5s0.5,1.5,1.5,1.5"/>
	</g>
	<g id="SPLINE_1461_">
		<path class="st5" d="M185.7,44.6c-1,0-1.5-0.5-1.5-1.5s0.5-1.5,1.5-1.5"/>
	</g>
	<g id="POLYLINE_51678_">
		<line class="st5" x1="172.5" y1="4.6" x2="172.5" y2="14.9"/>
	</g>
	<g id="SPLINE_1460_">
		<path class="st5" d="M178.2,54c-0.1-0.2-0.1-0.5-0.1-0.7c0-0.2,0-0.4,0-0.5c0-0.2,0-0.5,0.1-0.7c0-0.1,0.1-0.2,0.2-0.3
			c0.2-0.1,0.4-0.2,0.6-0.2c0.1,0,0.2,0,0.3,0c0.2,0,0.3,0.1,0.4,0.2c0.2,0.2,0.3,0.4,0.3,0.7c0,0.3,0.1,0.5,0,0.8
			c0,0.2,0,0.4-0.1,0.5c0,0.1,0,0.2-0.1,0.3"/>
	</g>
	<g id="POLYLINE_51677_">
		<rect x="177.6" y="54" class="st5" width="3" height="1.5"/>
	</g>
	<g id="SPLINE_1459_">
		<path class="st5" d="M171.8,54c-0.1-0.2-0.1-0.5-0.1-0.7c0-0.2,0-0.4,0-0.5c0-0.2,0-0.5,0.1-0.7c0-0.1,0.1-0.2,0.2-0.3
			c0.2-0.1,0.4-0.2,0.6-0.2c0.1,0,0.2,0,0.3,0c0.2,0,0.3,0.1,0.4,0.2c0.2,0.2,0.3,0.4,0.3,0.7c0,0.3,0.1,0.5,0,0.8
			c0,0.2,0,0.4-0.1,0.5c0,0.1,0,0.2-0.1,0.3"/>
	</g>
	<g id="POLYLINE_51676_">
		<rect x="171.2" y="54" class="st5" width="3" height="1.5"/>
	</g>
	<g id="SPLINE_1458_">
		<path class="st5" d="M135.6,93.8c0.2-0.1,0.5-0.1,0.7-0.1c0.2,0,0.4,0,0.5,0c0.2,0,0.5,0,0.7,0.1c0.1,0,0.2,0.1,0.3,0.2
			c0.1,0.2,0.2,0.4,0.2,0.6c0,0.1,0,0.2,0,0.3c0,0.2-0.1,0.3-0.2,0.4c-0.2,0.2-0.4,0.3-0.7,0.3c-0.3,0-0.5,0.1-0.8,0
			c-0.2,0-0.4,0-0.5-0.1c-0.1,0-0.2,0-0.3-0.1"/>
	</g>
	<g id="POLYLINE_51675_">
		<rect x="134.1" y="93.2" class="st5" width="1.5" height="3"/>
	</g>
	<g id="SPLINE_1457_">
		<path class="st5" d="M135.6,99.1c0.2-0.1,0.5-0.1,0.7-0.1c0.2,0,0.4,0,0.5,0c0.2,0,0.5,0,0.7,0.1c0.1,0,0.2,0.1,0.3,0.2
			c0.1,0.2,0.2,0.4,0.2,0.6c0,0.1,0,0.2,0,0.3c0,0.2-0.1,0.3-0.2,0.4c-0.2,0.2-0.4,0.3-0.7,0.3c-0.3,0-0.5,0.1-0.8,0
			c-0.2,0-0.4,0-0.5-0.1c-0.1,0-0.2,0-0.3-0.1"/>
	</g>
	<g id="POLYLINE_51674_">
		<rect x="134.1" y="98.6" class="st5" width="1.5" height="3"/>
	</g>
	<g id="POLYLINE_51673_">
		<rect x="46.9" y="5.6" class="st5" width="2.9" height="2.9"/>
	</g>
	<g id="POLYLINE_51672_">
		<rect x="43.9" y="5.6" class="st5" width="2.9" height="2.9"/>
	</g>
	<g id="POLYLINE_51671_">
		<line class="st5" x1="51.4" y1="77.9" x2="51.4" y2="80.7"/>
	</g>
	<g id="POLYLINE_51670_">
		<rect x="49.1" y="77.9" class="st5" width="4.6" height="2.8"/>
	</g>
	<g id="POLYLINE_51669_">
		<rect x="42.6" y="77.9" class="st5" width="4.1" height="2.8"/>
	</g>
	<g id="POLYLINE_51668_">
		<rect x="38.9" y="77.1" class="st5" width="18.1" height="4.2"/>
	</g>
	<g id="POLYLINE_51667_">
		<rect x="5.5" y="5" class="st5" width="2.7" height="1.5"/>
	</g>
	<g id="POLYLINE_51666_">
		<line class="st5" x1="9.8" y1="8.6" x2="5.7" y2="7"/>
	</g>
	<g id="POLYLINE_51665_">
		<line class="st5" x1="9.8" y1="7" x2="4" y2="7"/>
	</g>
	<g id="POLYLINE_51664_">
		<rect x="4" y="4.6" class="st5" width="5.8" height="11.5"/>
	</g>
	<g id="POLYLINE_51663_">
		<rect x="47" y="46.4" class="st5" width="5.9" height="2.5"/>
	</g>
	<g id="POLYLINE_51662_">
		<rect x="11.4" y="64.1" class="st5" width="5.1" height="8.2"/>
	</g>
	<g id="POLYLINE_51661_">
		<rect x="13.7" y="131.3" class="st5" width="2.6" height="1.6"/>
	</g>
	<g id="POLYLINE_51660_">
		<rect x="10" y="131.3" class="st5" width="2.6" height="1.6"/>
	</g>
	<g id="POLYLINE_51659_">
		<rect x="10" y="118.2" class="st5" width="2.6" height="1.6"/>
	</g>
	<g id="POLYLINE_51658_">
		<rect x="13.7" y="118.2" class="st5" width="2.6" height="1.6"/>
	</g>
	<g id="POLYLINE_51657_">
		<rect x="10" y="122.5" class="st5" width="2.6" height="1.6"/>
	</g>
	<g id="POLYLINE_51656_">
		<rect x="13.7" y="122.5" class="st5" width="2.6" height="1.6"/>
	</g>
	<g id="POLYLINE_51655_">
		<rect x="13.7" y="113.9" class="st5" width="2.6" height="1.6"/>
	</g>
	<g id="POLYLINE_51654_">
		<rect x="10" y="113.9" class="st5" width="2.6" height="1.6"/>
	</g>
	<g id="POLYLINE_51653_">
		<rect x="9" y="110.6" class="st5" width="8.2" height="1.9"/>
	</g>
	<g id="POLYLINE_51652_">
		<rect x="9" y="112.5" class="st5" width="8.2" height="13.1"/>
	</g>
	<g id="POLYLINE_51651_">
		<line class="st5" x1="22.4" y1="130.6" x2="4" y2="130.6"/>
	</g>
	<g id="POLYLINE_51650_">
		<rect x="51.7" y="9.8" class="st5" width="2.9" height="2.9"/>
	</g>
	<g id="POLYLINE_51649_">
		<rect x="51.7" y="12.7" class="st5" width="2.9" height="2.9"/>
	</g>
	<g id="POLYLINE_51648_">
		<rect x="51.7" y="23.1" class="st5" width="2.9" height="2.9"/>
	</g>
	<g id="POLYLINE_51647_">
		<rect x="51.7" y="20.1" class="st5" width="2.9" height="2.9"/>
	</g>
	<g id="POLYLINE_51646_">
		<rect x="51.7" y="51.6" class="st5" width="2.9" height="2.9"/>
	</g>
	<g id="POLYLINE_51645_">
		<rect x="48.7" y="51.6" class="st5" width="2.9" height="2.9"/>
	</g>
	<g id="POLYLINE_51644_">
		<rect x="45.8" y="51.6" class="st5" width="2.9" height="2.9"/>
	</g>
	<g id="POLYLINE_51643_">
		<polyline class="st5" points="45.8,55.5 45.8,51.6 44.8,51.6 44.8,55.5 55.6,55.5 55.6,51.6 54.6,51.6 54.6,55.5 		"/>
	</g>
	<g id="POLYLINE_51642_">
		<rect x="51.7" y="28.6" class="st5" width="2.9" height="2.9"/>
	</g>
	<g id="POLYLINE_51641_">
		<rect x="51.7" y="31.5" class="st5" width="2.9" height="2.9"/>
	</g>
	<g id="POLYLINE_51640_">
		<rect x="51.7" y="34.5" class="st5" width="2.9" height="2.9"/>
	</g>
	<g id="POLYLINE_51639_">
		<polyline class="st5" points="55.6,37.4 51.7,37.4 51.7,38.4 55.6,38.4 55.6,27.6 51.7,27.6 51.7,28.6 55.6,28.6 		"/>
	</g>
	<g id="POLYLINE_51565_">
		<polyline class="st5" points="39.7,28.6 43.6,28.6 43.6,27.6 39.7,27.6 39.7,38.4 43.6,38.4 43.6,37.4 39.7,37.4 		"/>
	</g>
	<g id="POLYLINE_51564_">
		<rect x="40.7" y="28.6" class="st5" width="2.9" height="2.9"/>
	</g>
	<g id="POLYLINE_51563_">
		<rect x="40.7" y="31.5" class="st5" width="2.9" height="2.9"/>
	</g>
	<g id="POLYLINE_51562_">
		<rect x="40.7" y="34.5" class="st5" width="2.9" height="2.9"/>
	</g>
	<g id="POLYLINE_51561_">
		<polyline class="st5" points="39.7,47.1 43.6,47.1 43.6,46.1 39.7,46.1 39.7,47.1 39.7,51.1 43.6,51.1 43.6,50.1 39.7,50.1 		"/>
	</g>
	<g id="POLYLINE_51560_">
		<polyline class="st5" points="4,62.4 7.9,62.4 7.9,61.4 4,61.4 4,72.2 7.9,72.2 7.9,71.2 4,71.2 		"/>
	</g>
	<g id="POLYLINE_51559_">
		<rect x="40.7" y="47.1" class="st5" width="2.9" height="2.9"/>
	</g>
	<g id="POLYLINE_51558_">
		<rect x="12.5" y="57.9" class="st5" width="2.9" height="2.9"/>
	</g>
	<g id="POLYLINE_51557_">
		<rect x="9.6" y="57.9" class="st5" width="2.9" height="2.9"/>
	</g>
	<g id="POLYLINE_51556_">
		<rect x="5" y="62.4" class="st5" width="2.9" height="2.9"/>
	</g>
	<g id="POLYLINE_51555_">
		<rect x="5" y="65.3" class="st5" width="2.9" height="2.9"/>
	</g>
	<g id="POLYLINE_51554_">
		<rect x="5" y="68.3" class="st5" width="2.9" height="2.9"/>
	</g>
	<g id="POLYLINE_51553_">
		<line class="st5" x1="5" y1="71.2" x2="5" y2="62.4"/>
	</g>
	<g id="CIRCLE_1610_">
		<path class="st5" d="M34.4,27.5c0-0.6,0.5-1.1,1.1-1.1s1.1,0.5,1.1,1.1s-0.5,1.1-1.1,1.1S34.4,28,34.4,27.5L34.4,27.5z"/>
	</g>
	<g id="CIRCLE_1609_">
		<path class="st5" d="M34.4,22.4c0-0.6,0.5-1.1,1.1-1.1s1.1,0.5,1.1,1.1s-0.5,1.1-1.1,1.1S34.4,23,34.4,22.4L34.4,22.4z"/>
	</g>
	<g id="POLYLINE_51552_">
		<rect x="30" y="19.5" class="st5" width="3" height="11.5"/>
	</g>
	<g id="SPLINE_1456_">
		<path class="st5" d="M43.2,75.7c0-1,0.5-1.5,1.5-1.5s1.5,0.5,1.5,1.5"/>
	</g>
	<g id="SPLINE_1455_">
		<path class="st5" d="M41.2,67.9c0-1,0.5-1.5,1.5-1.5c1,0,1.5,0.5,1.5,1.5"/>
	</g>
	<g id="SPLINE_1454_">
		<path class="st5" d="M54.1,63.4c-0.2,0.1-0.5,0.1-0.7,0.1c-0.2,0-0.4,0-0.5,0c-0.2,0-0.5,0-0.7-0.1c-0.1,0-0.2-0.1-0.3-0.2
			c-0.1-0.2-0.2-0.4-0.2-0.6c0-0.1,0-0.2,0-0.3c0-0.2,0.1-0.3,0.2-0.4c0.2-0.2,0.4-0.3,0.7-0.3c0.3,0,0.5-0.1,0.8,0
			c0.2,0,0.4,0,0.5,0.1c0.1,0,0.2,0,0.3,0.1"/>
	</g>
	<g id="POLYLINE_51551_">
		<rect x="54.1" y="61" class="st5" width="1.5" height="3"/>
	</g>
	<g id="SPLINE_1453_">
		<path class="st5" d="M51.3,74.2c-0.1-0.2-0.1-0.5-0.1-0.7c0-0.2,0-0.4,0-0.5c0-0.2,0-0.5,0.1-0.7c0-0.1,0.1-0.2,0.2-0.3
			c0.2-0.1,0.4-0.2,0.6-0.2c0.1,0,0.2,0,0.3,0c0.2,0,0.3,0.1,0.4,0.2c0.2,0.2,0.3,0.4,0.3,0.7c0,0.3,0.1,0.5,0,0.8
			c0,0.2,0,0.4-0.1,0.5c0,0.1,0,0.2-0.1,0.3"/>
	</g>
	<g id="POLYLINE_51550_">
		<rect x="50.7" y="74.2" class="st5" width="3" height="1.5"/>
	</g>
	<g id="POLYLINE_51549_">
		
			<rect x="48.4" y="127.8" transform="matrix(0.7071 -0.7071 0.7071 0.7071 -76.4465 72.6948)" class="st5" width="2.3" height="1.7"/>
	</g>
	<g id="POLYLINE_51548_">
		
			<rect x="43.4" y="122.8" transform="matrix(0.7071 -0.7071 0.7071 0.7071 -74.3946 67.7413)" class="st5" width="2.3" height="1.7"/>
	</g>
	<g id="POLYLINE_51547_">
		
			<rect x="44.4" y="123.5" transform="matrix(0.7071 -0.7071 0.7071 0.7071 -75.4216 70.2104)" class="st5" width="5.3" height="5.3"/>
	</g>
	<g id="POLYLINE_51546_">
		
			<rect x="48.7" y="122.5" transform="matrix(0.7071 -0.7071 0.7071 0.7071 -72.9402 71.2401)" class="st5" width="1.7" height="2.3"/>
	</g>
	<g id="POLYLINE_51545_">
		
			<rect x="43.7" y="127.5" transform="matrix(0.7071 -0.7071 0.7071 0.7071 -77.8941 69.1879)" class="st5" width="1.7" height="2.3"/>
	</g>
	<g id="POLYLINE_51544_">
		
			<rect x="43.7" y="114.5" transform="matrix(0.7071 -0.7071 0.7071 0.7071 -68.704 65.3813)" class="st5" width="1.7" height="2.3"/>
	</g>
	<g id="POLYLINE_51543_">
		
			<rect x="48.7" y="109.5" transform="matrix(0.7071 -0.7071 0.7071 0.7071 -63.75 67.4333)" class="st5" width="1.7" height="2.3"/>
	</g>
	<g id="POLYLINE_51540_">
		
			<rect x="44.4" y="110.5" transform="matrix(0.7071 -0.7071 0.7071 0.7071 -66.2314 66.4037)" class="st5" width="5.3" height="5.3"/>
	</g>
	<g id="POLYLINE_51539_">
		
			<rect x="43.4" y="109.8" transform="matrix(0.7071 -0.7071 0.7071 0.7071 -65.2042 63.9344)" class="st5" width="2.3" height="1.7"/>
	</g>
	<g id="POLYLINE_51538_">
		
			<rect x="48.4" y="114.8" transform="matrix(0.7071 -0.7071 0.7071 0.7071 -67.2565 68.8883)" class="st5" width="2.3" height="1.7"/>
	</g>
	<g id="POLYLINE_51537_">
		
			<rect x="48.4" y="103.4" transform="matrix(0.7071 -0.7071 0.7071 0.7071 -59.2226 65.5606)" class="st5" width="2.3" height="1.7"/>
	</g>
	<g id="POLYLINE_51536_">
		
			<rect x="43.4" y="98.5" transform="matrix(0.7071 -0.7071 0.7071 0.7071 -57.1702 60.6066)" class="st5" width="2.3" height="1.7"/>
	</g>
	<g id="POLYLINE_51535_">
		
			<rect x="44.4" y="99.1" transform="matrix(0.7071 -0.7071 0.7071 0.7071 -58.1973 63.0759)" class="st5" width="5.3" height="5.3"/>
	</g>
	<g id="POLYLINE_51534_">
		
			<rect x="48.7" y="98.2" transform="matrix(0.7071 -0.7071 0.7071 0.7071 -55.7159 64.1055)" class="st5" width="1.7" height="2.3"/>
	</g>
	<g id="POLYLINE_51533_">
		
			<rect x="43.7" y="103.1" transform="matrix(0.7071 -0.7071 0.7071 0.7071 -60.6699 62.0536)" class="st5" width="1.7" height="2.3"/>
	</g>
	<g id="POLYLINE_51532_">
		
			<rect x="7.1" y="103.1" transform="matrix(0.7071 -0.7071 0.7071 0.7071 -71.3969 36.1568)" class="st5" width="1.7" height="2.3"/>
	</g>
	<g id="POLYLINE_51531_">
		<rect x="12" y="98.2" transform="matrix(0.7071 -0.7071 0.7071 0.7071 -66.443 38.2087)" class="st5" width="1.7" height="2.3"/>
	</g>
	<g id="POLYLINE_51530_">
		<rect x="7.8" y="99.1" transform="matrix(0.7071 -0.7071 0.7071 0.7071 -68.924 37.1789)" class="st5" width="5.3" height="5.3"/>
	</g>
	<g id="POLYLINE_51529_">
		
			<rect x="6.8" y="98.5" transform="matrix(0.7071 -0.7071 0.7071 0.7071 -67.8975 34.7094)" class="st5" width="2.3" height="1.7"/>
	</g>
	<g id="POLYLINE_51528_">
		
			<rect x="11.8" y="103.4" transform="matrix(0.7071 -0.7071 0.7071 0.7071 -69.9497 39.6635)" class="st5" width="2.3" height="1.7"/>
	</g>
	<g id="POLYLINE_51527_">
		
			<rect x="11.8" y="91.5" transform="matrix(0.7071 -0.7071 0.7071 0.7071 -61.5203 36.1719)" class="st5" width="2.3" height="1.7"/>
	</g>
	<g id="POLYLINE_51526_">
		
			<rect x="6.8" y="86.5" transform="matrix(0.7071 -0.7071 0.7071 0.7071 -59.4682 31.2179)" class="st5" width="2.3" height="1.7"/>
	</g>
	<g id="POLYLINE_51525_">
		
			<rect x="7.8" y="87.2" transform="matrix(0.7071 -0.7071 0.7071 0.7071 -60.4947 33.6874)" class="st5" width="5.3" height="5.3"/>
	</g>
	<g id="POLYLINE_51524_">
		<rect x="12" y="86.3" transform="matrix(0.7071 -0.7071 0.7071 0.7071 -58.0137 34.7171)" class="st5" width="1.7" height="2.3"/>
	</g>
	<g id="POLYLINE_51523_">
		
			<rect x="7.1" y="91.2" transform="matrix(0.7071 -0.7071 0.7071 0.7071 -62.9675 32.6652)" class="st5" width="1.7" height="2.3"/>
	</g>
	<g id="POLYLINE_51522_">
		
			<rect x="7.1" y="81.4" transform="matrix(0.7071 -0.7071 0.7071 0.7071 -55.9991 29.7785)" class="st5" width="1.7" height="2.3"/>
	</g>
	<g id="POLYLINE_51521_">
		<rect x="12" y="76.4" transform="matrix(0.7071 -0.7071 0.7071 0.7071 -51.0452 31.8304)" class="st5" width="1.7" height="2.3"/>
	</g>
	<g id="POLYLINE_51520_">
		<rect x="7.8" y="77.4" transform="matrix(0.7071 -0.7071 0.7071 0.7071 -53.526 30.8012)" class="st5" width="5.3" height="5.3"/>
	</g>
	<g id="POLYLINE_51519_">
		
			<rect x="6.8" y="76.7" transform="matrix(0.7071 -0.7071 0.7071 0.7071 -52.4991 28.3309)" class="st5" width="2.3" height="1.7"/>
	</g>
	<g id="POLYLINE_51518_">
		
			<rect x="11.8" y="81.6" transform="matrix(0.7071 -0.7071 0.7071 0.7071 -54.5513 33.2849)" class="st5" width="2.3" height="1.7"/>
	</g>
</g>
<g id="PLAN_x24_DETAIL">
	<g id="POLYLINE_52170_">
		<line class="st5" x1="24.1" y1="135" x2="24.1" y2="140.6"/>
	</g>
	<g id="ARC_4316_">
		<path class="st5" d="M24.1,140.6c3.1,0,5.7-2.5,5.7-5.7"/>
	</g>
	<g id="ARC_4315_">
		<path class="st5" d="M29.8,135c0,3.1,2.5,5.7,5.7,5.7"/>
	</g>
	<g id="POLYLINE_52169_">
		<line class="st5" x1="35.5" y1="140.6" x2="35.5" y2="135"/>
	</g>
	<g id="POLYLINE_52168_">
		<line class="st5" x1="39.1" y1="12.5" x2="42.5" y2="12.5"/>
	</g>
	<g id="ARC_4314_">
		<path class="st5" d="M39.1,15.9c1.9,0,3.4-1.5,3.4-3.4"/>
	</g>
	<g id="ARC_4313_">
		<path class="st5" d="M42.5,19.3c0-1.9-1.5-3.4-3.4-3.4"/>
	</g>
	<g id="POLYLINE_52167_">
		<line class="st5" x1="42.5" y1="19.3" x2="39.1" y2="19.3"/>
	</g>
	<g id="POLYLINE_52166_">
		<line class="st5" x1="39.1" y1="45.6" x2="42.5" y2="45.6"/>
	</g>
	<g id="ARC_4312_">
		<path class="st5" d="M42.5,45.6c0-1.9-1.5-3.4-3.4-3.4"/>
	</g>
	<g id="ARC_4311_">
		<path class="st5" d="M39.1,42.2c1.9,0,3.4-1.5,3.4-3.4"/>
	</g>
	<g id="POLYLINE_52165_">
		<line class="st5" x1="42.5" y1="38.8" x2="39.1" y2="38.8"/>
	</g>
	<g id="POLYLINE_52164_">
		<line class="st5" x1="35.5" y1="56.2" x2="35.5" y2="50.6"/>
	</g>
	<g id="ARC_4310_">
		<path class="st5" d="M35.5,50.6c-3.1,0-5.7,2.5-5.7,5.7"/>
	</g>
	<g id="ARC_4304_">
		<path class="st5" d="M29.8,56.2c0-3.1-2.5-5.7-5.7-5.7"/>
	</g>
	<g id="POLYLINE_52163_">
		<line class="st5" x1="24.1" y1="50.6" x2="24.1" y2="56.2"/>
	</g>
	<g id="POLYLINE_52162_">
		<line class="st5" x1="24.1" y1="4.4" x2="24.1" y2="10.1"/>
	</g>
	<g id="ARC_4303_">
		<path class="st5" d="M24.1,10.1c3.1,0,5.7-2.5,5.7-5.7"/>
	</g>
	<g id="ARC_4302_">
		<path class="st5" d="M29.8,4.4c0,3.1,2.5,5.7,5.7,5.7"/>
	</g>
	<g id="POLYLINE_52161_">
		<line class="st5" x1="35.5" y1="10.1" x2="35.5" y2="4.4"/>
	</g>
	<g id="POLYLINE_52160_">
		<line class="st5" x1="21" y1="12" x2="24.1" y2="12"/>
	</g>
	<g id="POLYLINE_52159_">
		<line class="st5" x1="24.1" y1="12" x2="24.1" y2="17.7"/>
	</g>
	<g id="ARC_4301_">
		<path class="st5" d="M24.1,17.7c3.1,0,5.7-2.5,5.7-5.7"/>
	</g>
	<g id="ARC_4300_">
		<path class="st5" d="M29.8,12c0,3.1,2.5,5.7,5.7,5.7"/>
	</g>
	<g id="POLYLINE_52158_">
		<line class="st5" x1="35.5" y1="17.7" x2="35.5" y2="12"/>
	</g>
	<g id="POLYLINE_52156_">
		<line class="st5" x1="35.5" y1="12" x2="38.5" y2="12"/>
	</g>
	<g id="ARC_4299_">
		<path class="st5" d="M29.8,76.4c0,3.1,2.5,5.7,5.7,5.7"/>
	</g>
	<g id="POLYLINE_52155_">
		<line class="st5" x1="35.5" y1="82" x2="35.5" y2="76.4"/>
	</g>
	<g id="POLYLINE_52154_">
		<line class="st5" x1="35.5" y1="76.4" x2="24.1" y2="76.4"/>
	</g>
	<g id="POLYLINE_52153_">
		<line class="st5" x1="24.1" y1="76.4" x2="24.1" y2="82"/>
	</g>
	<g id="ARC_4298_">
		<path class="st5" d="M24.1,82c3.1,0,5.7-2.5,5.7-5.7"/>
	</g>
	<g id="LINE_6694_">
		<line class="st5" x1="8.4" y1="45.9" x2="4" y2="45.9"/>
	</g>
	<g id="LINE_6693_">
		<line class="st5" x1="16" y1="45.9" x2="10" y2="45.9"/>
	</g>
	<g id="LINE_6692_">
		<line class="st5" x1="5.4" y1="44.5" x2="4" y2="44.5"/>
	</g>
	<g id="LINE_6691_">
		<line class="st5" x1="16" y1="44.5" x2="7" y2="44.5"/>
	</g>
	<g id="POLYLINE_52152_">
		<line class="st5" x1="151.7" y1="92.2" x2="151.7" y2="96.7"/>
	</g>
	<g id="ARC_4297_">
		<path class="st5" d="M147.2,92.2c0,2.5,2,4.5,4.5,4.5"/>
	</g>
	<g id="POLYLINE_52151_">
		<line class="st5" x1="151.7" y1="63.5" x2="151.7" y2="68.1"/>
	</g>
	<g id="ARC_4296_">
		<path class="st5" d="M147.2,63.5c0,2.5,2,4.5,4.5,4.5"/>
	</g>
	<g id="POLYLINE_52150_">
		<line class="st5" x1="153.7" y1="108.1" x2="153.7" y2="97.3"/>
	</g>
	<g id="POLYLINE_52149_">
		<line class="st5" x1="152.5" y1="97.3" x2="152.5" y2="108.1"/>
	</g>
	<g id="POLYLINE_52148_">
		<line class="st5" x1="153.7" y1="90.6" x2="153.7" y2="79.8"/>
	</g>
	<g id="POLYLINE_52147_">
		<line class="st5" x1="152.5" y1="79.8" x2="152.5" y2="90.6"/>
	</g>
	<g id="POLYLINE_52146_">
		<line class="st5" x1="163.5" y1="77.1" x2="174.8" y2="77.1"/>
	</g>
	<g id="POLYLINE_52145_">
		<line class="st5" x1="174.8" y1="75.7" x2="163.5" y2="75.7"/>
	</g>
	<g id="POLYLINE_52144_">
		<line class="st5" x1="163" y1="3.2" x2="156.8" y2="3.2"/>
	</g>
	<g id="POLYLINE_52143_">
		<line class="st5" x1="163" y1="4.6" x2="156.8" y2="4.6"/>
	</g>
	<g id="POLYLINE_52142_">
		<line class="st5" x1="142.4" y1="102.7" x2="137.9" y2="102.7"/>
	</g>
	<g id="ARC_4295_">
		<path class="st5" d="M137.9,102.7c0,2.5,2,4.5,4.5,4.5"/>
	</g>
	<g id="POLYLINE_52141_">
		<line class="st5" x1="142.4" y1="102.1" x2="137.9" y2="102.1"/>
	</g>
	<g id="ARC_4294_">
		<path class="st5" d="M142.4,97.6c-2.5,0-4.5,2-4.5,4.5"/>
	</g>
	<g id="POLYLINE_52140_">
		<line class="st5" x1="142.4" y1="97" x2="137.9" y2="97"/>
	</g>
	<g id="ARC_4293_">
		<path class="st5" d="M142.4,92.5c-2.5,0-4.5,2-4.5,4.5"/>
	</g>
	<g id="POLYLINE_52139_">
		<line class="st5" x1="152.8" y1="57.5" x2="157.4" y2="57.5"/>
	</g>
	<g id="ARC_4292_">
		<path class="st5" d="M152.8,62.1c2.5,0,4.5-2,4.5-4.5"/>
	</g>
	<g id="POLYLINE_52138_">
		<line class="st5" x1="176.3" y1="46.7" x2="176.3" y2="51.2"/>
	</g>
	<g id="ARC_4291_">
		<path class="st5" d="M176.3,51.2c2.5,0,4.5-2,4.5-4.5"/>
	</g>
	<g id="POLYLINE_52137_">
		<line class="st5" x1="170.1" y1="46.7" x2="170.1" y2="51.2"/>
	</g>
	<g id="ARC_4290_">
		<path class="st5" d="M170.1,51.2c2.5,0,4.5-2,4.5-4.5"/>
	</g>
	<g id="POLYLINE_52136_">
		<line class="st5" x1="175.2" y1="15.8" x2="170.7" y2="15.8"/>
	</g>
	<g id="ARC_4289_">
		<path class="st5" d="M170.7,15.8c0,2.5,2,4.5,4.5,4.5"/>
	</g>
	<g id="POLYLINE_52135_">
		<line class="st5" x1="180.3" y1="15.8" x2="184.8" y2="15.8"/>
	</g>
	<g id="ARC_4288_">
		<path class="st5" d="M180.3,20.4c2.5,0,4.5-2,4.5-4.5"/>
	</g>
	<g id="POLYLINE_52134_">
		<line class="st5" x1="180.3" y1="5" x2="184.8" y2="5"/>
	</g>
	<g id="ARC_4287_">
		<path class="st5" d="M180.3,9.5c2.5,0,4.5-2,4.5-4.5"/>
	</g>
	<g id="POLYLINE_52133_">
		<line class="st5" x1="169.2" y1="37.1" x2="173.8" y2="37.1"/>
	</g>
	<g id="ARC_4286_">
		<path class="st5" d="M173.8,37.1c0-2.5-2-4.5-4.5-4.5"/>
	</g>
	<g id="POLYLINE_52132_">
		<line class="st5" x1="151.9" y1="30.5" x2="151.9" y2="26"/>
	</g>
	<g id="ARC_4285_">
		<path class="st5" d="M156.5,30.5c0-2.5-2-4.5-4.5-4.5"/>
	</g>
	<g id="POLYLINE_52131_">
		<line class="st5" x1="140.1" y1="37.4" x2="140.1" y2="48.7"/>
	</g>
	<g id="LINE_6690_">
		<line class="st5" x1="146.2" y1="37.4" x2="134.1" y2="37.4"/>
	</g>
	<g id="LINE_6689_">
		<line class="st5" x1="146.2" y1="38.8" x2="134.1" y2="38.8"/>
	</g>
	<g id="LINE_6688_">
		<line class="st5" x1="146.2" y1="40.2" x2="134.1" y2="40.2"/>
	</g>
	<g id="LINE_6687_">
		<line class="st5" x1="146.2" y1="41.6" x2="134.1" y2="41.6"/>
	</g>
	<g id="LINE_6686_">
		<line class="st5" x1="146.2" y1="43.1" x2="134.1" y2="43.1"/>
	</g>
	<g id="LINE_6685_">
		<line class="st5" x1="146.2" y1="44.5" x2="134.1" y2="44.5"/>
	</g>
	<g id="LINE_6684_">
		<line class="st5" x1="146.2" y1="45.9" x2="134.1" y2="45.9"/>
	</g>
	<g id="LINE_6683_">
		<line class="st5" x1="146.2" y1="47.3" x2="134.1" y2="47.3"/>
	</g>
	<g id="POLYLINE_51951_">
		<line class="st5" x1="146.2" y1="48.7" x2="134.1" y2="48.7"/>
	</g>
	<g id="POLYLINE_51950_">
		<line class="st5" x1="178.7" y1="4.6" x2="172.5" y2="4.6"/>
	</g>
	<g id="POLYLINE_51949_">
		<line class="st5" x1="178.7" y1="3.2" x2="172.5" y2="3.2"/>
	</g>
	<g id="POLYLINE_51948_">
		<line class="st5" x1="147.3" y1="4.6" x2="141.2" y2="4.6"/>
	</g>
	<g id="POLYLINE_51947_">
		<line class="st5" x1="147.3" y1="3.2" x2="141.2" y2="3.2"/>
	</g>
	<g id="POLYLINE_51946_">
		<line class="st5" x1="35.5" y1="3.2" x2="24.1" y2="3.2"/>
	</g>
	<g id="POLYLINE_51945_">
		<line class="st5" x1="17.2" y1="3.2" x2="11" y2="3.2"/>
	</g>
	<g id="POLYLINE_51944_">
		<line class="st5" x1="17.2" y1="4.6" x2="11" y2="4.6"/>
	</g>
	<g id="POLYLINE_51943_">
		<line class="st5" x1="48.6" y1="3.2" x2="42.4" y2="3.2"/>
	</g>
	<g id="POLYLINE_51942_">
		<line class="st5" x1="48.6" y1="4.6" x2="42.4" y2="4.6"/>
	</g>
	<g id="POLYLINE_51941_">
		<line class="st5" x1="23.5" y1="98.6" x2="23.5" y2="85.3"/>
	</g>
	<g id="POLYLINE_51940_">
		<line class="st5" x1="22.4" y1="85.3" x2="22.4" y2="98.6"/>
	</g>
	<g id="POLYLINE_51939_">
		<line class="st5" x1="22.4" y1="123.6" x2="22.4" y2="130.6"/>
	</g>
	<g id="POLYLINE_51938_">
		<line class="st5" x1="23.5" y1="130.6" x2="23.5" y2="123.6"/>
	</g>
	<g id="POLYLINE_51937_">
		<line class="st5" x1="46.9" y1="77.1" x2="42.3" y2="77.1"/>
	</g>
	<g id="POLYLINE_51936_">
		<line class="st5" x1="46.9" y1="75.7" x2="42.3" y2="75.7"/>
	</g>
	<g id="POLYLINE_51935_">
		<line class="st5" x1="23.5" y1="115.1" x2="23.5" y2="108"/>
	</g>
	<g id="POLYLINE_51934_">
		<line class="st5" x1="22.4" y1="108" x2="22.4" y2="115.1"/>
	</g>
	<g id="POLYLINE_51933_">
		<line class="st5" x1="40" y1="69" x2="35.4" y2="69"/>
	</g>
	<g id="ARC_4284_">
		<path class="st5" d="M35.4,69c0,2.5,2,4.5,4.5,4.5"/>
	</g>
	<g id="POLYLINE_51932_">
		<line class="st5" x1="40" y1="57.5" x2="35.4" y2="57.5"/>
	</g>
	<g id="ARC_4283_">
		<path class="st5" d="M35.4,57.5c0,2.5,2,4.5,4.5,4.5"/>
	</g>
	<g id="POLYLINE_51931_">
		<line class="st5" x1="16.3" y1="31.4" x2="11.8" y2="31.4"/>
	</g>
	<g id="ARC_4282_">
		<path class="st5" d="M11.8,31.4c0,2.5,2,4.5,4.5,4.5"/>
	</g>
	<g id="POLYLINE_51930_">
		<line class="st5" x1="5.4" y1="30.5" x2="5.4" y2="26"/>
	</g>
	<g id="ARC_4281_">
		<path class="st5" d="M10,30.5c0-2.5-2-4.5-4.5-4.5"/>
	</g>
	<g id="POLYLINE_51929_">
		<line class="st5" x1="20.5" y1="19.1" x2="15.9" y2="19.1"/>
	</g>
	<g id="ARC_4280_">
		<path class="st5" d="M20.5,14.6c-2.5,0-4.5,2-4.5,4.5"/>
	</g>
	<g id="POLYLINE_51928_">
		<line class="st5" x1="16" y1="48.7" x2="4" y2="48.7"/>
	</g>
	<g id="LINE_6682_">
		<line class="st5" x1="16" y1="47.3" x2="4" y2="47.3"/>
	</g>
	<g id="LINE_6681_">
		<line class="st5" x1="16" y1="43.1" x2="4" y2="43.1"/>
	</g>
	<g id="LINE_6680_">
		<line class="st5" x1="16" y1="41.6" x2="4" y2="41.6"/>
	</g>
	<g id="LINE_6679_">
		<line class="st5" x1="16" y1="40.2" x2="4" y2="40.2"/>
	</g>
	<g id="LINE_6678_">
		<line class="st5" x1="16" y1="38.8" x2="4" y2="38.8"/>
	</g>
	<g id="LINE_6677_">
		<line class="st5" x1="16" y1="37.4" x2="4" y2="37.4"/>
	</g>
	<g id="POLYLINE_51927_">
		<line class="st5" x1="10" y1="37.4" x2="10" y2="48.7"/>
	</g>
</g>
<g id="PLAN_x24_CLOISON_TRANSLUCIDE">
</g>
<g id="PLAN_x24_CLOISON_1.3">
</g>
<g id="PLAN_x24_CLOISON_1.2">
	<g id="POLYLINE_51105_">
		<polyline class="st6" points="146.7,31.1 146.7,49.8 146.2,49.8 146.2,31.1 		"/>
	</g>
	<g id="POLYLINE_51104_">
		<polyline class="st6" points="146.7,56.9 146.7,63.3 147.2,63.3 147.2,63.8 146.2,63.8 146.2,56.9 		"/>
	</g>
	<g id="POLYLINE_51103_">
		<polyline class="st6" points="185.7,47 182,47 182,55.5 		"/>
	</g>
	<g id="POLYLINE_51102_">
		<polyline class="st6" points="185.7,15.5 180.6,15.5 180.6,15.8 180,15.8 180,9.5 180.6,9.5 180.6,14.9 185.7,14.9 		"/>
	</g>
	<g id="POLYLINE_51101_">
		<polyline class="st6" points="169.8,14.9 175.5,14.9 175.5,15.8 175,15.8 175,15.5 169.8,15.5 		"/>
	</g>
	<g id="POLYLINE_51100_">
		<polyline class="st6" points="169.8,26.6 175,26.6 175,20.4 175.5,20.4 175.5,27.2 169.8,27.2 		"/>
	</g>
	<g id="POLYLINE_51099_">
		<polyline class="st6" points="180.6,4.6 180.6,5 180,5 180,4.6 		"/>
	</g>
	<g id="POLYLINE_51098_">
		<polyline class="st6" points="181.5,55.5 181.5,47 180.8,47 180.8,46.4 185.7,46.4 		"/>
	</g>
	<g id="POLYLINE_51097_">
		<polyline class="st6" points="185.7,27.2 180,27.2 180,20.4 180.6,20.4 180.6,26.6 185.7,26.6 		"/>
	</g>
	<g id="POLYLINE_51096_">
		<polyline class="st6" points="175.2,55.5 175.2,47 174.7,47 174.7,46.4 176.3,46.4 176.3,47 175.8,47 175.8,55.5 		"/>
	</g>
	<g id="POLYLINE_51095_">
		<polyline class="st6" points="169.8,46.4 170.1,46.4 170.1,47 169.8,47 		"/>
	</g>
	<g id="POLYLINE_51094_">
		<polyline class="st6" points="134.1,91.9 147.2,91.9 147.2,92.5 134.1,92.5 		"/>
	</g>
	<g id="POLYLINE_51093_">
		<polyline class="st6" points="152.5,75.7 152.5,63.8 151.7,63.8 151.7,63.3 152.5,63.3 152.5,62.1 153.1,62.1 153.1,75.7 		"/>
	</g>
	<g id="POLYLINE_51092_">
		<polyline class="st6" points="153.1,56.9 153.1,57.5 152.5,57.5 152.5,56.9 		"/>
	</g>
	<g id="POLYLINE_51091_">
		<polyline class="st6" points="152.5,92.5 151.7,92.5 151.7,91.9 152.5,91.9 		"/>
	</g>
	<g id="POLYLINE_51090_">
		<polyline class="st6" points="134.1,97.6 141.9,97.6 142.4,97.6 142.4,97 134.1,97 		"/>
	</g>
	<g id="POLYLINE_51089_">
		<polyline class="st6" points="134.1,102.1 141.9,102.1 142.4,102.1 142.4,102.7 141.9,102.7 134.1,102.7 		"/>
	</g>
	<g id="POLYLINE_51088_">
		<polyline class="st6" points="152.5,112.4 142.4,112.4 142.4,114.8 		"/>
	</g>
	<g id="POLYLINE_51087_">
		<polyline class="st6" points="152.5,111.8 142.4,111.8 142.4,107.2 141.9,107.2 141.9,114.8 		"/>
	</g>
	<g id="POLYLINE_51086_">
		<polyline class="st6" points="55.6,27 51.4,27 51.4,27.6 55.6,27.6 		"/>
	</g>
	<g id="POLYLINE_51085_">
		<polyline class="st6" points="39.7,27 43.9,27 43.9,27.6 39.7,27.6 		"/>
	</g>
	<g id="POLYLINE_51084_">
		<line class="st6" x1="19.9" y1="22.1" x2="4" y2="22.1"/>
	</g>
	<g id="LINE_6657_">
		<line class="st6" x1="19.9" y1="22.6" x2="4" y2="22.6"/>
	</g>
	<g id="POLYLINE_51083_">
		<polyline class="st6" points="40.2,56.9 40.2,57.5 39.7,57.5 39.7,56.9 		"/>
	</g>
	<g id="POLYLINE_51082_">
		<polyline class="st6" points="55.6,68.5 40.2,68.5 40.2,69 39.7,69 39.7,62.1 40.2,62.1 40.2,67.9 55.6,67.9 		"/>
	</g>
	<g id="POLYLINE_51081_">
		<polyline class="st6" points="39.7,75.7 39.7,73.5 40.2,73.5 40.2,75.7 		"/>
	</g>
	<g id="POLYLINE_51080_">
		<line class="st6" x1="10" y1="37.4" x2="10" y2="36.8"/>
	</g>
	<g id="POLYLINE_51079_">
		<polyline class="st6" points="16.6,55.5 16.6,35.9 16,35.9 16,36.8 10,36.8 		"/>
	</g>
	<g id="POLYLINE_51078_">
		<polyline class="st6" points="10,37.4 16,37.4 16,55.5 		"/>
	</g>
	<g id="POLYLINE_51077_">
		<polyline class="st6" points="16.6,31.1 16.6,31.4 16,31.4 16,31.1 		"/>
	</g>
</g>
<g id="PLAN_x24_CLOISON_1.1">
</g>
<g id="PLAN_x24_STRUCTURE_2.3">
</g>
<g id="PLAN_x24_STRUCTURE_2.2">
</g>
<g id="PLAN_x24_STRUCTURE_2.1">
</g>
<g id="PLAN_x24_STRUCTURE_1.3">
</g>
<g id="PLAN_x24_STRUCTURE_1.2">
	<g id="POLYLINE_52327_">
		<polygon class="st7" points="174.8,75.7 185.7,75.7 185.7,56.9 153.1,56.9 152.5,56.9 152.5,55.5 168.7,55.5 168.7,37.1 
			169.8,37.1 169.8,55.5 185.7,55.5 185.7,4.6 178.7,4.6 178.7,3.2 187.2,3.2 187.2,77.1 174.8,77.1 		"/>
	</g>
	<g id="POLYLINE_52326_">
		<rect x="22.4" y="115.1" class="st7" width="1.1" height="8.5"/>
	</g>
	<g id="POLYLINE_52325_">
		<rect x="22.4" y="98.6" class="st7" width="1.1" height="9.4"/>
	</g>
	<g id="POLYLINE_52324_">
		<polygon class="st7" points="146.7,55.5 146.7,56.9 134.1,56.9 134.1,114.8 152.5,114.8 152.5,108.1 153.7,108.1 153.7,115.9 
			132.7,115.9 132.7,3.2 141.2,3.2 141.2,4.6 134.1,4.6 134.1,30 150,30 150,19.1 151.2,19.1 151.2,30 151.9,30 151.9,31.1 
			151.2,31.1 134.1,31.1 134.1,55.5 		"/>
	</g>
	<g id="POLYLINE_52323_">
		<rect x="152.5" y="90.6" class="st7" width="1.1" height="6.7"/>
	</g>
	<g id="POLYLINE_52322_">
		<polygon class="st7" points="151.2,14.6 151.2,4.6 156.8,4.6 156.8,3.2 147.3,3.2 147.3,4.6 150,4.6 150,14.6 		"/>
	</g>
	<g id="POLYLINE_52321_">
		<polygon class="st7" points="152.5,75.7 163.5,75.7 163.5,77.1 153.7,77.1 153.7,79.8 152.5,79.8 		"/>
	</g>
	<g id="POLYLINE_52320_">
		<polygon class="st7" points="168.7,31.1 168.7,32.5 169.8,32.5 169.8,4.6 172.5,4.6 172.5,3.2 163,3.2 163,4.6 168.7,4.6 
			168.7,30 156.5,30 156.5,31.1 		"/>
	</g>
	<g id="POLYLINE_52319_">
		<polygon class="st7" points="35.5,3.2 42.4,3.2 42.4,4.6 39.7,4.6 39.7,12.5 38.5,12.5 38.5,5.7 35.5,5.7 		"/>
	</g>
	<g id="POLYLINE_52318_">
		<polygon class="st7" points="21,5.7 21,14.6 19.9,14.6 19.9,4.6 17.2,4.6 17.2,3.2 24.1,3.2 24.1,5.7 		"/>
	</g>
	<g id="POLYLINE_52317_">
		<rect x="38.5" y="19.3" class="st7" width="1.1" height="19.5"/>
	</g>
	<g id="POLYLINE_52316_">
		<polygon class="st7" points="23.5,77.1 23.5,85.3 22.4,85.3 22.4,75.7 24.1,75.7 24.1,77.1 		"/>
	</g>
	<g id="POLYLINE_52315_">
		<polygon class="st7" points="4,30 4,4.6 11,4.6 11,3.2 2.6,3.2 2.6,135.7 24.1,135.7 24.1,134.3 23.5,134.3 23.5,130.6 
			22.4,130.6 22.4,134.3 4,134.3 4,56.9 24.1,56.9 24.1,55.5 4,55.5 4,31.1 5.4,31.1 5.4,30 		"/>
	</g>
	<g id="POLYLINE_52314_">
		<polygon class="st7" points="10,31.1 10,30 19.9,30 19.9,19.1 21,19.1 21,31.1 		"/>
	</g>
	<g id="POLYLINE_52313_">
		<polyline class="st7" points="57,135.7 35.5,135.7 35.5,134.3 57,134.3 		"/>
	</g>
	<g id="POLYLINE_52312_">
		<polygon class="st7" points="46.9,75.7 55.6,75.7 55.6,56.9 35.5,56.9 35.5,55.5 38.5,55.5 38.5,45.6 39.7,45.6 39.7,55.5 
			55.6,55.5 55.6,4.6 48.6,4.6 48.6,3.2 57,3.2 57,77.1 46.9,77.1 		"/>
	</g>
	<g id="POLYLINE_52311_">
		<rect x="35.5" y="75.7" class="st7" width="6.9" height="1.4"/>
	</g>
</g>
<g id="PLAN_x24_STRUCTURE_1.1">
</g>
</svg>
