<?xml version="1.0" encoding="utf-8"?>
<!-- Generator: Adobe Illustrator 22.0.1, SVG Export Plug-In . SVG Version: 6.00 Build 0)  -->
<svg version="1.1" id="Calque_1" xmlns="http://www.w3.org/2000/svg" xmlns:xlink="http://www.w3.org/1999/xlink" x="0px" y="0px"
	 viewBox="0 0 396.5 292.9" style="enable-background:new 0 0 396.5 292.9;" xml:space="preserve">
<style type="text/css">
	.st0{display:none;}
	.st1{display:inline;}
	.st2{fill:none;}
	.st3{fill:none;stroke:#000000;stroke-width:0.1;stroke-linecap:square;stroke-miterlimit:10;}
	.st4{fill:none;stroke:#000000;stroke-width:0.2;stroke-linecap:square;stroke-miterlimit:10;stroke-dasharray:1,1;}
	.st5{fill:none;stroke:#000000;stroke-width:0.16;stroke-linecap:square;stroke-miterlimit:10;}
	.st6{fill:none;stroke:#000000;stroke-width:0.36;stroke-linecap:square;stroke-miterlimit:10;}
	.st7{fill:none;stroke:#000000;stroke-width:0.9;stroke-linecap:square;stroke-miterlimit:10;}
</style>
<g id="Calque_1_1_">
</g>
<g id="INFOS_x24_A4" class="st0">
	<g id="POLYLINE_52738_" class="st1">
		<rect x="-111.5" y="-274.7" class="st2" width="595.3" height="841.9"/>
	</g>
</g>
<g id="PLAN_x24_FOND">
	<g id="POLYLINE_51926_">
		<polyline class="st3" points="272.5,235.2 272.5,274.8 381.5,274.8 381.5,157.6 		"/>
	</g>
	<g id="LINE_6676_">
		<line class="st3" x1="314.5" y1="235.2" x2="314.5" y2="274.8"/>
	</g>
	<g id="POLYLINE_51925_">
		<line class="st3" x1="121.1" y1="274.8" x2="121.1" y2="157.6"/>
	</g>
</g>
<g id="PLAN_x24_POINTILLE">
	<g id="POLYLINE_51924_">
		<polygon class="st4" points="344.5,78.8 313.9,114.4 313.9,78.8 		"/>
	</g>
	<g id="POLYLINE_51923_">
		<line class="st4" x1="15.1" y1="91" x2="27.1" y2="96.6"/>
	</g>
	<g id="POLYLINE_51744_">
		<line class="st4" x1="313.9" y1="78.8" x2="344.5" y2="114.4"/>
	</g>
	<g id="POLYLINE_51743_">
		<polyline class="st4" points="84.1,78.8 53.7,78.8 53.7,114.4 		"/>
	</g>
	<g id="POLYLINE_51742_">
		<line class="st4" x1="15.1" y1="89.6" x2="27.1" y2="95.2"/>
	</g>
</g>
<g id="PLAN_x24_VITRAGE">
	<g id="POLYLINE_52732_">
		<line class="st3" x1="313.3" y1="198" x2="313.3" y2="219.6"/>
	</g>
	<g id="POLYLINE_52731_">
		<line class="st3" x1="313.3" y1="163" x2="313.3" y2="184.6"/>
	</g>
	<g id="POLYLINE_52730_">
		<line class="st3" x1="356.7" y1="156.2" x2="334.1" y2="156.2"/>
	</g>
	<g id="POLYLINE_52729_">
		<line class="st3" x1="333.1" y1="11.2" x2="320.7" y2="11.2"/>
	</g>
	<g id="POLYLINE_52364_">
		<line class="st3" x1="364.5" y1="11.2" x2="352.1" y2="11.2"/>
	</g>
	<g id="POLYLINE_52363_">
		<line class="st3" x1="301.7" y1="11.2" x2="289.5" y2="11.2"/>
	</g>
	<g id="POLYLINE_52362_">
		<line class="st3" x1="41.5" y1="11.2" x2="29.1" y2="11.2"/>
	</g>
	<g id="POLYLINE_52361_">
		<line class="st3" x1="104.3" y1="11.2" x2="91.9" y2="11.2"/>
	</g>
	<g id="POLYLINE_52360_">
		<line class="st3" x1="100.9" y1="156.2" x2="91.7" y2="156.2"/>
	</g>
	<g id="POLYLINE_52359_">
		<line class="st3" x1="53.1" y1="174" x2="53.1" y2="200.6"/>
	</g>
	<g id="POLYLINE_52358_">
		<line class="st3" x1="53.1" y1="250.6" x2="53.1" y2="264.6"/>
	</g>
	<g id="POLYLINE_52357_">
		<line class="st3" x1="53.1" y1="219.4" x2="53.1" y2="233.6"/>
	</g>
</g>
<g id="PLAN_x24_MOBILIER">
	<g id="POLYLINE_51741_">
		<polyline class="st5" points="357.5,122 345.9,122 334.3,122 		"/>
	</g>
	<g id="POLYLINE_51740_">
		<polyline class="st5" points="38.1,117.2 38.1,125.2 40.1,125.2 40.1,117.2 24.3,117.2 24.3,125.2 26.3,125.2 26.3,117.2 		"/>
	</g>
	<g id="POLYLINE_51739_">
		<polyline class="st5" points="118.3,55.4 110.5,55.4 110.5,57.4 118.3,57.4 118.3,41.6 110.5,41.6 110.5,43.6 118.3,43.6 		"/>
	</g>
	<g id="POLYLINE_51738_">
		<polyline class="st5" points="118.3,34.8 110.5,34.8 110.5,36.8 118.3,36.8 118.3,21 110.5,21 110.5,23 118.3,23 		"/>
	</g>
	<g id="POLYLINE_51737_">
		<polyline class="st5" points="106.7,12.6 106.7,20.4 108.7,20.4 108.7,12.6 92.9,12.6 92.9,20.4 94.9,20.4 94.9,12.6 		"/>
	</g>
	<g id="POLYLINE_51736_">
		<polyline class="st5" points="280.1,144.2 280.1,155.8 280.1,167.4 		"/>
	</g>
	<g id="POLYLINE_51735_">
		<rect x="275.3" y="12.6" class="st5" width="11.6" height="23"/>
	</g>
	<g id="POLYLINE_51734_">
		<line class="st5" x1="286.9" y1="17.4" x2="275.3" y2="17.4"/>
	</g>
	<g id="POLYLINE_51733_">
		<line class="st5" x1="286.9" y1="20.6" x2="278.9" y2="17.4"/>
	</g>
	<g id="POLYLINE_51732_">
		<rect x="278.5" y="13.4" class="st5" width="5.4" height="3"/>
	</g>
	<g id="POLYLINE_51731_">
		<rect x="278.5" y="59.4" class="st5" width="5.4" height="3"/>
	</g>
	<g id="POLYLINE_51730_">
		<line class="st5" x1="286.9" y1="55.2" x2="278.9" y2="58.4"/>
	</g>
	<g id="POLYLINE_51729_">
		<line class="st5" x1="286.9" y1="58.4" x2="275.3" y2="58.4"/>
	</g>
	<g id="POLYLINE_51728_">
		<rect x="275.3" y="40.4" class="st5" width="11.6" height="23"/>
	</g>
	<g id="POLYLINE_51727_">
		<rect x="276.3" y="120.4" class="st5" width="3" height="5.4"/>
	</g>
	<g id="POLYLINE_51726_">
		<line class="st5" x1="283.3" y1="117.2" x2="280.1" y2="125.4"/>
	</g>
	<g id="POLYLINE_51725_">
		<line class="st5" x1="280.1" y1="117.2" x2="280.1" y2="128.8"/>
	</g>
	<g id="POLYLINE_51724_">
		<rect x="275.3" y="117.2" class="st5" width="23" height="11.6"/>
	</g>
	<g id="POLYLINE_51723_">
		<rect x="275.3" y="175.6" class="st5" width="23" height="11.6"/>
	</g>
	<g id="POLYLINE_51722_">
		<line class="st5" x1="280.1" y1="175.6" x2="280.1" y2="187.2"/>
	</g>
	<g id="POLYLINE_51721_">
		<line class="st5" x1="283.3" y1="175.6" x2="280.1" y2="183.6"/>
	</g>
	<g id="POLYLINE_51720_">
		<rect x="276.3" y="178.8" class="st5" width="3" height="5.4"/>
	</g>
	<g id="POLYLINE_51719_">
		<rect x="275.3" y="144.2" class="st5" width="23" height="11.6"/>
	</g>
	<g id="POLYLINE_51718_">
		<line class="st5" x1="283.3" y1="144.2" x2="280.1" y2="152.4"/>
	</g>
	<g id="POLYLINE_51717_">
		<rect x="276.3" y="147.4" class="st5" width="3" height="5.4"/>
	</g>
	<g id="POLYLINE_51707_">
		<rect x="276.3" y="159" class="st5" width="3" height="5.4"/>
	</g>
	<g id="POLYLINE_51706_">
		<line class="st5" x1="283.3" y1="155.8" x2="280.1" y2="164"/>
	</g>
	<g id="POLYLINE_51705_">
		<rect x="275.3" y="155.8" class="st5" width="23" height="11.6"/>
	</g>
	<g id="POLYLINE_51704_">
		<rect x="334.3" y="117.2" class="st5" width="11.6" height="23"/>
	</g>
	<g id="POLYLINE_51703_">
		<line class="st5" x1="345.9" y1="125.4" x2="337.9" y2="122"/>
	</g>
	<g id="POLYLINE_51702_">
		<rect x="337.5" y="118.2" class="st5" width="5.4" height="3"/>
	</g>
	<g id="POLYLINE_51701_">
		<rect x="349.1" y="118.2" class="st5" width="5.4" height="3"/>
	</g>
	<g id="POLYLINE_51700_">
		<line class="st5" x1="357.5" y1="125.4" x2="349.5" y2="122"/>
	</g>
	<g id="POLYLINE_51699_">
		<rect x="345.9" y="117.2" class="st5" width="11.6" height="23"/>
	</g>
	<g id="POLYLINE_51698_">
		<rect x="366.9" y="131.8" class="st5" width="11.6" height="23"/>
	</g>
	<g id="POLYLINE_51697_">
		<line class="st5" x1="366.9" y1="149.8" x2="378.5" y2="149.8"/>
	</g>
	<g id="POLYLINE_51696_">
		<line class="st5" x1="366.9" y1="146.6" x2="375.1" y2="149.8"/>
	</g>
	<g id="POLYLINE_51695_">
		<rect x="370.1" y="150.8" class="st5" width="5.4" height="3"/>
	</g>
	<g id="POLYLINE_51694_">
		<rect x="316.5" y="150.8" class="st5" width="5.4" height="3"/>
	</g>
	<g id="POLYLINE_51693_">
		<line class="st5" x1="313.3" y1="146.6" x2="321.5" y2="149.8"/>
	</g>
	<g id="POLYLINE_51692_">
		<line class="st5" x1="313.3" y1="149.8" x2="324.9" y2="149.8"/>
	</g>
	<g id="POLYLINE_51691_">
		<rect x="313.3" y="131.8" class="st5" width="11.6" height="23"/>
	</g>
	<g id="POLYLINE_51690_">
		<rect x="332.9" y="12.6" class="st5" width="11.6" height="23"/>
	</g>
	<g id="POLYLINE_51689_">
		<line class="st5" x1="332.9" y1="30.6" x2="344.5" y2="30.6"/>
	</g>
	<g id="POLYLINE_51688_">
		<line class="st5" x1="332.9" y1="27.4" x2="340.9" y2="30.6"/>
	</g>
	<g id="POLYLINE_51687_">
		<rect x="335.9" y="31.6" class="st5" width="5.4" height="3"/>
	</g>
	<g id="POLYLINE_51686_">
		<rect x="332.9" y="40.4" class="st5" width="11.6" height="23"/>
	</g>
	<g id="POLYLINE_51685_">
		<line class="st5" x1="344.5" y1="58.4" x2="332.9" y2="58.4"/>
	</g>
	<g id="POLYLINE_51684_">
		<line class="st5" x1="344.5" y1="55.2" x2="336.3" y2="58.4"/>
	</g>
	<g id="POLYLINE_51683_">
		<rect x="335.9" y="59.4" class="st5" width="5.4" height="3"/>
	</g>
	<g id="CIRCLE_1614_">
		<path class="st5" d="M282.7,230.4c0-0.4,0.4-0.8,0.8-0.8s0.8,0.4,0.8,0.8c0,0.4-0.4,0.8-0.8,0.8S282.7,230.6,282.7,230.4
			L282.7,230.4z"/>
	</g>
	<g id="CIRCLE_1613_">
		<path class="st5" d="M351.3,54.2c0-0.4,0.4-0.8,0.8-0.8s0.8,0.4,0.8,0.8c0,0.4-0.4,0.8-0.8,0.8S351.3,54.6,351.3,54.2L351.3,54.2z
			"/>
	</g>
	<g id="CIRCLE_1612_">
		<path class="st5" d="M372.5,54.2c0-0.4,0.4-0.8,0.8-0.8s0.8,0.4,0.8,0.8c0,0.4-0.4,0.8-0.8,0.8S372.5,54.6,372.5,54.2L372.5,54.2z
			"/>
	</g>
	<g id="CIRCLE_1611_">
		<path class="st5" d="M372.5,30.8c0-0.4,0.4-0.8,0.8-0.8s0.8,0.4,0.8,0.8s-0.4,0.8-0.8,0.8C372.9,31.4,372.5,31.2,372.5,30.8
			L372.5,30.8z"/>
	</g>
	<g id="POLYLINE_51682_">
		<line class="st5" x1="368.3" y1="23" x2="378.5" y2="23"/>
	</g>
	<g id="POLYLINE_51681_">
		<line class="st5" x1="368.3" y1="46.4" x2="378.5" y2="46.4"/>
	</g>
	<g id="POLYLINE_51680_">
		<line class="st5" x1="357.1" y1="46.4" x2="346.7" y2="46.4"/>
	</g>
	<g id="POLYLINE_51679_">
		<line class="st5" x1="290.9" y1="219.6" x2="275.3" y2="219.6"/>
	</g>
	<g id="SPLINE_1475_">
		<path class="st5" d="M292.7,227c0-2,1-3,3-3s3,1,3,3"/>
	</g>
	<g id="SPLINE_1464_">
		<path class="st5" d="M311.3,227c0-2-1-3-3-3s-3,1-3,3"/>
	</g>
	<g id="SPLINE_1463_">
		<path class="st5" d="M378.5,74c-2,0-3,1-3,3s1,3,3,3"/>
	</g>
	<g id="SPLINE_1462_">
		<path class="st5" d="M378.5,61.4c-2,0-3,1-3,3c0,2,1,3,3,3"/>
	</g>
	<g id="SPLINE_1461_">
		<path class="st5" d="M378.5,92.6c-2,0-3-1-3-3s1-3,3-3"/>
	</g>
	<g id="POLYLINE_51678_">
		<line class="st5" x1="352.1" y1="12.6" x2="352.1" y2="33.2"/>
	</g>
	<g id="SPLINE_1460_">
		<path class="st5" d="M363.5,111.4c-0.2-0.4-0.2-1-0.2-1.4s0-0.8,0-1c0-0.4,0-1,0.2-1.4c0-0.2,0.2-0.4,0.4-0.6
			c0.4-0.2,0.8-0.4,1.2-0.4c0.2,0,0.4,0,0.6,0c0.4,0,0.6,0.2,0.8,0.4c0.4,0.4,0.6,0.8,0.6,1.4s0.2,1,0,1.6c0,0.4,0,0.8-0.2,1
			c0,0.2,0,0.4-0.2,0.6"/>
	</g>
	<g id="POLYLINE_51677_">
		<rect x="362.3" y="111.4" class="st5" width="6" height="3"/>
	</g>
	<g id="SPLINE_1459_">
		<path class="st5" d="M350.7,111.4c-0.2-0.4-0.2-1-0.2-1.4s0-0.8,0-1c0-0.4,0-1,0.2-1.4c0-0.2,0.2-0.4,0.4-0.6
			c0.4-0.2,0.8-0.4,1.2-0.4c0.2,0,0.4,0,0.6,0c0.4,0,0.6,0.2,0.8,0.4c0.4,0.4,0.6,0.8,0.6,1.4s0.2,1,0,1.6c0,0.4,0,0.8-0.2,1
			c0,0.2,0,0.4-0.2,0.6"/>
	</g>
	<g id="POLYLINE_51676_">
		<rect x="349.5" y="111.4" class="st5" width="6" height="3"/>
	</g>
	<g id="SPLINE_1458_">
		<path class="st5" d="M278.3,191c0.4-0.2,1-0.2,1.4-0.2s0.8,0,1,0c0.4,0,1,0,1.4,0.2c0.2,0,0.4,0.2,0.6,0.4
			c0.2,0.4,0.4,0.8,0.4,1.2c0,0.2,0,0.4,0,0.6c0,0.4-0.2,0.6-0.4,0.8c-0.4,0.4-0.8,0.6-1.4,0.6s-1,0.2-1.6,0c-0.4,0-0.8,0-1-0.2
			c-0.2,0-0.4,0-0.6-0.2"/>
	</g>
	<g id="POLYLINE_51675_">
		<rect x="275.3" y="189.8" class="st5" width="3" height="6"/>
	</g>
	<g id="SPLINE_1457_">
		<path class="st5" d="M278.3,201.6c0.4-0.2,1-0.2,1.4-0.2s0.8,0,1,0c0.4,0,1,0,1.4,0.2c0.2,0,0.4,0.2,0.6,0.4
			c0.2,0.4,0.4,0.8,0.4,1.2c0,0.2,0,0.4,0,0.6c0,0.4-0.2,0.6-0.4,0.8c-0.4,0.4-0.8,0.6-1.4,0.6s-1,0.2-1.6,0c-0.4,0-0.8,0-1-0.2
			c-0.2,0-0.4,0-0.6-0.2"/>
	</g>
	<g id="POLYLINE_51674_">
		<rect x="275.3" y="200.6" class="st5" width="3" height="6"/>
	</g>
	<g id="POLYLINE_51673_">
		<rect x="100.9" y="14.6" class="st5" width="5.8" height="5.8"/>
	</g>
	<g id="POLYLINE_51672_">
		<rect x="94.9" y="14.6" class="st5" width="5.8" height="5.8"/>
	</g>
	<g id="POLYLINE_51671_">
		<line class="st5" x1="109.9" y1="159.2" x2="109.9" y2="164.8"/>
	</g>
	<g id="POLYLINE_51670_">
		<rect x="105.3" y="159.2" class="st5" width="9.2" height="5.6"/>
	</g>
	<g id="POLYLINE_51669_">
		<rect x="92.3" y="159.2" class="st5" width="8.2" height="5.6"/>
	</g>
	<g id="POLYLINE_51668_">
		<rect x="84.9" y="157.6" class="st5" width="36.2" height="8.4"/>
	</g>
	<g id="POLYLINE_51667_">
		<rect x="18.1" y="13.4" class="st5" width="5.4" height="3"/>
	</g>
	<g id="POLYLINE_51666_">
		<line class="st5" x1="26.7" y1="20.6" x2="18.5" y2="17.4"/>
	</g>
	<g id="POLYLINE_51665_">
		<line class="st5" x1="26.7" y1="17.4" x2="15.1" y2="17.4"/>
	</g>
	<g id="POLYLINE_51664_">
		<rect x="15.1" y="12.6" class="st5" width="11.6" height="23"/>
	</g>
	<g id="POLYLINE_51663_">
		<rect x="101.1" y="96.2" class="st5" width="11.8" height="5"/>
	</g>
	<g id="POLYLINE_51662_">
		<rect x="29.9" y="131.6" class="st5" width="10.2" height="16.4"/>
	</g>
	<g id="POLYLINE_51661_">
		<rect x="34.5" y="266" class="st5" width="5.2" height="3.2"/>
	</g>
	<g id="POLYLINE_51660_">
		<rect x="27.1" y="266" class="st5" width="5.2" height="3.2"/>
	</g>
	<g id="POLYLINE_51659_">
		<rect x="27.1" y="239.8" class="st5" width="5.2" height="3.2"/>
	</g>
	<g id="POLYLINE_51658_">
		<rect x="34.5" y="239.8" class="st5" width="5.2" height="3.2"/>
	</g>
	<g id="POLYLINE_51657_">
		<rect x="27.1" y="248.4" class="st5" width="5.2" height="3.2"/>
	</g>
	<g id="POLYLINE_51656_">
		<rect x="34.5" y="248.4" class="st5" width="5.2" height="3.2"/>
	</g>
	<g id="POLYLINE_51655_">
		<rect x="34.5" y="231.2" class="st5" width="5.2" height="3.2"/>
	</g>
	<g id="POLYLINE_51654_">
		<rect x="27.1" y="231.2" class="st5" width="5.2" height="3.2"/>
	</g>
	<g id="POLYLINE_51653_">
		<rect x="25.1" y="224.6" class="st5" width="16.4" height="3.8"/>
	</g>
	<g id="POLYLINE_51652_">
		<rect x="25.1" y="228.4" class="st5" width="16.4" height="26.2"/>
	</g>
	<g id="POLYLINE_51651_">
		<line class="st5" x1="51.9" y1="264.6" x2="15.1" y2="264.6"/>
	</g>
	<g id="POLYLINE_51650_">
		<rect x="110.5" y="23" class="st5" width="5.8" height="5.8"/>
	</g>
	<g id="POLYLINE_51649_">
		<rect x="110.5" y="28.8" class="st5" width="5.8" height="5.8"/>
	</g>
	<g id="POLYLINE_51648_">
		<rect x="110.5" y="49.6" class="st5" width="5.8" height="5.8"/>
	</g>
	<g id="POLYLINE_51647_">
		<rect x="110.5" y="43.6" class="st5" width="5.8" height="5.8"/>
	</g>
	<g id="POLYLINE_51646_">
		<rect x="110.5" y="106.6" class="st5" width="5.8" height="5.8"/>
	</g>
	<g id="POLYLINE_51645_">
		<rect x="104.5" y="106.6" class="st5" width="5.8" height="5.8"/>
	</g>
	<g id="POLYLINE_51644_">
		<rect x="98.7" y="106.6" class="st5" width="5.8" height="5.8"/>
	</g>
	<g id="POLYLINE_51643_">
		<polyline class="st5" points="98.7,114.4 98.7,106.6 96.7,106.6 96.7,114.4 118.3,114.4 118.3,106.6 116.3,106.6 116.3,114.4 		
			"/>
	</g>
	<g id="POLYLINE_51642_">
		<rect x="110.5" y="60.6" class="st5" width="5.8" height="5.8"/>
	</g>
	<g id="POLYLINE_51641_">
		<rect x="110.5" y="66.4" class="st5" width="5.8" height="5.8"/>
	</g>
	<g id="POLYLINE_51640_">
		<rect x="110.5" y="72.4" class="st5" width="5.8" height="5.8"/>
	</g>
	<g id="POLYLINE_51639_">
		<polyline class="st5" points="118.3,78.2 110.5,78.2 110.5,80.2 118.3,80.2 118.3,58.6 110.5,58.6 110.5,60.6 118.3,60.6 		"/>
	</g>
	<g id="POLYLINE_51565_">
		<polyline class="st5" points="86.5,60.6 94.3,60.6 94.3,58.6 86.5,58.6 86.5,80.2 94.3,80.2 94.3,78.2 86.5,78.2 		"/>
	</g>
	<g id="POLYLINE_51564_">
		<rect x="88.5" y="60.6" class="st5" width="5.8" height="5.8"/>
	</g>
	<g id="POLYLINE_51563_">
		<rect x="88.5" y="66.4" class="st5" width="5.8" height="5.8"/>
	</g>
	<g id="POLYLINE_51562_">
		<rect x="88.5" y="72.4" class="st5" width="5.8" height="5.8"/>
	</g>
	<g id="POLYLINE_51561_">
		<polyline class="st5" points="86.5,97.6 94.3,97.6 94.3,95.6 86.5,95.6 86.5,97.6 86.5,105.6 94.3,105.6 94.3,103.6 86.5,103.6 		
			"/>
	</g>
	<g id="POLYLINE_51560_">
		<polyline class="st5" points="15.1,128.2 22.9,128.2 22.9,126.2 15.1,126.2 15.1,147.8 22.9,147.8 22.9,145.8 15.1,145.8 		"/>
	</g>
	<g id="POLYLINE_51559_">
		<rect x="88.5" y="97.6" class="st5" width="5.8" height="5.8"/>
	</g>
	<g id="POLYLINE_51558_">
		<rect x="32.1" y="119.2" class="st5" width="5.8" height="5.8"/>
	</g>
	<g id="POLYLINE_51557_">
		<rect x="26.3" y="119.2" class="st5" width="5.8" height="5.8"/>
	</g>
	<g id="POLYLINE_51556_">
		<rect x="17.1" y="128.2" class="st5" width="5.8" height="5.8"/>
	</g>
	<g id="POLYLINE_51555_">
		<rect x="17.1" y="134" class="st5" width="5.8" height="5.8"/>
	</g>
	<g id="POLYLINE_51554_">
		<rect x="17.1" y="140" class="st5" width="5.8" height="5.8"/>
	</g>
	<g id="POLYLINE_51553_">
		<line class="st5" x1="17.1" y1="145.8" x2="17.1" y2="128.2"/>
	</g>
	<g id="CIRCLE_1610_">
		<path class="st5" d="M75.9,58.4c0-1.2,1-2.2,2.2-2.2s2.2,1,2.2,2.2s-1,2.2-2.2,2.2S75.9,59.4,75.9,58.4L75.9,58.4z"/>
	</g>
	<g id="CIRCLE_1609_">
		<path class="st5" d="M75.9,48.2c0-1.2,1-2.2,2.2-2.2s2.2,1,2.2,2.2s-1,2.2-2.2,2.2S75.9,49.4,75.9,48.2L75.9,48.2z"/>
	</g>
	<g id="POLYLINE_51552_">
		<rect x="67.1" y="42.4" class="st5" width="6" height="23"/>
	</g>
	<g id="SPLINE_1456_">
		<path class="st5" d="M93.5,154.8c0-2,1-3,3-3s3,1,3,3"/>
	</g>
	<g id="SPLINE_1455_">
		<path class="st5" d="M89.5,139.2c0-2,1-3,3-3s3,1,3,3"/>
	</g>
	<g id="SPLINE_1454_">
		<path class="st5" d="M115.3,130.2c-0.4,0.2-1,0.2-1.4,0.2s-0.8,0-1,0c-0.4,0-1,0-1.4-0.2c-0.2,0-0.4-0.2-0.6-0.4
			c-0.2-0.4-0.4-0.8-0.4-1.2c0-0.2,0-0.4,0-0.6c0-0.4,0.2-0.6,0.4-0.8c0.4-0.4,0.8-0.6,1.4-0.6s1-0.2,1.6,0c0.4,0,0.8,0,1,0.2
			c0.2,0,0.4,0,0.6,0.2"/>
	</g>
	<g id="POLYLINE_51551_">
		<rect x="115.3" y="125.4" class="st5" width="3" height="6"/>
	</g>
	<g id="SPLINE_1453_">
		<path class="st5" d="M109.7,151.8c-0.2-0.4-0.2-1-0.2-1.4s0-0.8,0-1c0-0.4,0-1,0.2-1.4c0-0.2,0.2-0.4,0.4-0.6
			c0.4-0.2,0.8-0.4,1.2-0.4c0.2,0,0.4,0,0.6,0c0.4,0,0.6,0.2,0.8,0.4c0.4,0.4,0.6,0.8,0.6,1.4c0,0.6,0.2,1,0,1.6c0,0.4,0,0.8-0.2,1
			c0,0.2,0,0.4-0.2,0.6"/>
	</g>
	<g id="POLYLINE_51550_">
		<rect x="108.5" y="151.8" class="st5" width="6" height="3"/>
	</g>
	<g id="POLYLINE_51549_">
		
			<rect x="103.9" y="259" transform="matrix(0.7071 -0.7071 0.7071 0.7071 -153.1973 151.4498)" class="st5" width="4.6" height="3.4"/>
	</g>
	<g id="POLYLINE_51548_">
		
			<rect x="93.9" y="249" transform="matrix(0.7071 -0.7071 0.7071 0.7071 -149.1321 141.45)" class="st5" width="4.6" height="3.4"/>
	</g>
	<g id="POLYLINE_51547_">
		
			<rect x="95.9" y="250.4" transform="matrix(0.7071 -0.7071 0.7071 0.7071 -151.1545 146.4439)" class="st5" width="10.6" height="10.6"/>
	</g>
	<g id="POLYLINE_51546_">
		
			<rect x="104.5" y="248.4" transform="matrix(0.7071 -0.7071 0.7071 0.7071 -146.1572 148.4853)" class="st5" width="3.4" height="4.6"/>
	</g>
	<g id="POLYLINE_51545_">
		
			<rect x="94.6" y="258.4" transform="matrix(0.7071 -0.7071 0.7071 0.7071 -156.1567 144.4194)" class="st5" width="3.4" height="4.6"/>
	</g>
	<g id="POLYLINE_51544_">
		
			<rect x="94.5" y="232.4" transform="matrix(0.7071 -0.7071 0.7071 0.7071 -137.7748 136.8017)" class="st5" width="3.4" height="4.6"/>
	</g>
	<g id="POLYLINE_51543_">
		
			<rect x="104.5" y="222.4" transform="matrix(0.7071 -0.7071 0.7071 0.7071 -127.7749 140.8676)" class="st5" width="3.4" height="4.6"/>
	</g>
	<g id="POLYLINE_51540_">
		
			<rect x="95.9" y="224.4" transform="matrix(0.7071 -0.7071 0.7071 0.7071 -132.7723 138.8263)" class="st5" width="10.6" height="10.6"/>
	</g>
	<g id="POLYLINE_51539_">
		
			<rect x="93.9" y="223" transform="matrix(0.7071 -0.7071 0.7071 0.7071 -130.7495 133.8326)" class="st5" width="4.6" height="3.4"/>
	</g>
	<g id="POLYLINE_51538_">
		
			<rect x="103.9" y="233" transform="matrix(0.7071 -0.7071 0.7071 0.7071 -134.8155 143.832)" class="st5" width="4.6" height="3.4"/>
	</g>
	<g id="POLYLINE_51537_">
		
			<rect x="103.9" y="210.2" transform="matrix(0.7071 -0.7071 0.7071 0.7071 -118.7254 137.1225)" class="st5" width="4.6" height="3.4"/>
	</g>
	<g id="POLYLINE_51536_">
		
			<rect x="94" y="200.4" transform="matrix(0.7071 -0.7071 0.7071 0.7071 -114.7178 127.2645)" class="st5" width="4.6" height="3.4"/>
	</g>
	<g id="POLYLINE_51535_">
		
			<rect x="95.8" y="201.6" transform="matrix(0.7071 -0.7071 0.7071 0.7071 -116.6819 132.117)" class="st5" width="10.6" height="10.6"/>
	</g>
	<g id="POLYLINE_51534_">
		
			<rect x="104.5" y="199.7" transform="matrix(0.7071 -0.7071 0.7071 0.7071 -111.7431 134.2997)" class="st5" width="3.4" height="4.6"/>
	</g>
	<g id="POLYLINE_51533_">
		
			<rect x="94.5" y="209.6" transform="matrix(0.7071 -0.7071 0.7071 0.7071 -121.6846 130.0924)" class="st5" width="3.4" height="4.6"/>
	</g>
	<g id="POLYLINE_51532_">
		
			<rect x="21.3" y="209.6" transform="matrix(0.7071 -0.7071 0.7071 0.7071 -143.1044 78.3126)" class="st5" width="3.4" height="4.6"/>
	</g>
	<g id="POLYLINE_51531_">
		
			<rect x="31.2" y="199.8" transform="matrix(0.7071 -0.7071 0.7071 0.7071 -133.3044 82.4612)" class="st5" width="3.4" height="4.6"/>
	</g>
	<g id="POLYLINE_51530_">
		
			<rect x="22.6" y="201.6" transform="matrix(0.7071 -0.7071 0.7071 0.7071 -138.1013 80.3375)" class="st5" width="10.6" height="10.6"/>
	</g>
	<g id="POLYLINE_51529_">
		
			<rect x="20.7" y="200.4" transform="matrix(0.7071 -0.7071 0.7071 0.7071 -136.1372 75.484)" class="st5" width="4.6" height="3.4"/>
	</g>
	<g id="POLYLINE_51528_">
		
			<rect x="30.6" y="210.1" transform="matrix(0.7071 -0.7071 0.7071 0.7071 -140.1449 85.3423)" class="st5" width="4.6" height="3.4"/>
	</g>
	<g id="POLYLINE_51527_">
		
			<rect x="30.7" y="186.3" transform="matrix(0.7071 -0.7071 0.7071 0.7071 -123.2984 78.389)" class="st5" width="4.6" height="3.4"/>
	</g>
	<g id="POLYLINE_51526_">
		
			<rect x="20.6" y="176.4" transform="matrix(0.7071 -0.7071 0.7071 0.7071 -119.2324 68.3892)" class="st5" width="4.6" height="3.4"/>
	</g>
	<g id="POLYLINE_51525_">
		
			<rect x="22.7" y="177.8" transform="matrix(0.7071 -0.7071 0.7071 0.7071 -121.255 73.384)" class="st5" width="10.6" height="10.6"/>
	</g>
	<g id="POLYLINE_51524_">
		
			<rect x="31.2" y="176" transform="matrix(0.7071 -0.7071 0.7071 0.7071 -116.458 75.5077)" class="st5" width="3.4" height="4.6"/>
	</g>
	<g id="POLYLINE_51523_">
		
			<rect x="21.3" y="185.8" transform="matrix(0.7071 -0.7071 0.7071 0.7071 -126.2579 71.3592)" class="st5" width="3.4" height="4.6"/>
	</g>
	<g id="POLYLINE_51522_">
		
			<rect x="21.4" y="166.2" transform="matrix(0.7071 -0.7071 0.7071 0.7071 -112.3529 65.6639)" class="st5" width="3.4" height="4.6"/>
	</g>
	<g id="POLYLINE_51521_">
		
			<rect x="31.2" y="156.3" transform="matrix(0.7071 -0.7071 0.7071 0.7071 -102.4943 69.6711)" class="st5" width="3.4" height="4.6"/>
	</g>
	<g id="POLYLINE_51520_">
		
			<rect x="22.7" y="158.1" transform="matrix(0.7071 -0.7071 0.7071 0.7071 -107.3505 67.6894)" class="st5" width="10.6" height="10.6"/>
	</g>
	<g id="POLYLINE_51519_">
		
			<rect x="20.7" y="156.8" transform="matrix(0.7071 -0.7071 0.7071 0.7071 -105.3265 62.6946)" class="st5" width="4.6" height="3.4"/>
	</g>
	<g id="POLYLINE_51518_">
		
			<rect x="30.6" y="166.6" transform="matrix(0.7071 -0.7071 0.7071 0.7071 -109.334 72.5529)" class="st5" width="4.6" height="3.4"/>
	</g>
</g>
<g id="PLAN_x24_DETAIL">
	<g id="POLYLINE_52170_">
		<line class="st5" x1="55.3" y1="273.4" x2="55.3" y2="284.6"/>
	</g>
	<g id="ARC_4316_">
		<path class="st5" d="M55.3,284.6c6.2,0,11.4-5,11.4-11.4"/>
	</g>
	<g id="ARC_4315_">
		<path class="st5" d="M66.7,273.4c0,6.2,5,11.4,11.4,11.4"/>
	</g>
	<g id="POLYLINE_52169_">
		<line class="st5" x1="78.1" y1="284.6" x2="78.1" y2="273.4"/>
	</g>
	<g id="POLYLINE_52168_">
		<line class="st5" x1="85.3" y1="28.4" x2="92.1" y2="28.4"/>
	</g>
	<g id="ARC_4314_">
		<path class="st5" d="M85.3,35.2c3.8,0,6.8-3,6.8-6.8"/>
	</g>
	<g id="ARC_4313_">
		<path class="st5" d="M92.1,42c0-3.8-3-6.8-6.8-6.8"/>
	</g>
	<g id="POLYLINE_52167_">
		<line class="st5" x1="92.1" y1="42" x2="85.3" y2="42"/>
	</g>
	<g id="POLYLINE_52166_">
		<line class="st5" x1="85.3" y1="94.6" x2="92.1" y2="94.6"/>
	</g>
	<g id="ARC_4312_">
		<path class="st5" d="M92.1,94.6c0-3.8-3-6.8-6.8-6.8"/>
	</g>
	<g id="ARC_4311_">
		<path class="st5" d="M85.3,87.8c3.8,0,6.8-3,6.8-6.8"/>
	</g>
	<g id="POLYLINE_52165_">
		<line class="st5" x1="92.1" y1="81" x2="85.3" y2="81"/>
	</g>
	<g id="POLYLINE_52164_">
		<line class="st5" x1="78.1" y1="115.8" x2="78.1" y2="104.6"/>
	</g>
	<g id="ARC_4310_">
		<path class="st5" d="M78.1,104.6c-6.2,0-11.4,5-11.4,11.4"/>
	</g>
	<g id="ARC_4304_">
		<path class="st5" d="M66.7,115.8c0-6.2-5-11.4-11.4-11.4"/>
	</g>
	<g id="POLYLINE_52163_">
		<line class="st5" x1="55.3" y1="104.6" x2="55.3" y2="115.8"/>
	</g>
	<g id="POLYLINE_52162_">
		<line class="st5" x1="55.3" y1="12.2" x2="55.3" y2="23.6"/>
	</g>
	<g id="ARC_4303_">
		<path class="st5" d="M55.3,23.6c6.2,0,11.4-5,11.4-11.4"/>
	</g>
	<g id="ARC_4302_">
		<path class="st5" d="M66.7,12.2c0,6.2,5,11.4,11.4,11.4"/>
	</g>
	<g id="POLYLINE_52161_">
		<line class="st5" x1="78.1" y1="23.6" x2="78.1" y2="12.2"/>
	</g>
	<g id="POLYLINE_52160_">
		<line class="st5" x1="49.1" y1="27.4" x2="55.3" y2="27.4"/>
	</g>
	<g id="POLYLINE_52159_">
		<line class="st5" x1="55.3" y1="27.4" x2="55.3" y2="38.8"/>
	</g>
	<g id="ARC_4301_">
		<path class="st5" d="M55.3,38.8c6.2,0,11.4-5,11.4-11.4"/>
	</g>
	<g id="ARC_4300_">
		<path class="st5" d="M66.7,27.4c0,6.2,5,11.4,11.4,11.4"/>
	</g>
	<g id="POLYLINE_52158_">
		<line class="st5" x1="78.1" y1="38.8" x2="78.1" y2="27.4"/>
	</g>
	<g id="POLYLINE_52156_">
		<line class="st5" x1="78.1" y1="27.4" x2="84.1" y2="27.4"/>
	</g>
	<g id="ARC_4299_">
		<path class="st5" d="M66.7,156.2c0,6.2,5,11.4,11.4,11.4"/>
	</g>
	<g id="POLYLINE_52155_">
		<line class="st5" x1="78.1" y1="167.4" x2="78.1" y2="156.2"/>
	</g>
	<g id="POLYLINE_52154_">
		<line class="st5" x1="78.1" y1="156.2" x2="55.3" y2="156.2"/>
	</g>
	<g id="POLYLINE_52153_">
		<line class="st5" x1="55.3" y1="156.2" x2="55.3" y2="167.4"/>
	</g>
	<g id="ARC_4298_">
		<path class="st5" d="M55.3,167.4c6.2,0,11.4-5,11.4-11.4"/>
	</g>
	<g id="LINE_6694_">
		<line class="st5" x1="23.9" y1="95.2" x2="15.1" y2="95.2"/>
	</g>
	<g id="LINE_6693_">
		<line class="st5" x1="39.1" y1="95.2" x2="27.1" y2="95.2"/>
	</g>
	<g id="LINE_6692_">
		<line class="st5" x1="17.9" y1="92.4" x2="15.1" y2="92.4"/>
	</g>
	<g id="LINE_6691_">
		<line class="st5" x1="39.1" y1="92.4" x2="21.1" y2="92.4"/>
	</g>
	<g id="POLYLINE_52152_">
		<line class="st5" x1="310.5" y1="187.8" x2="310.5" y2="196.8"/>
	</g>
	<g id="ARC_4297_">
		<path class="st5" d="M301.5,187.8c0,5,4,9,9,9"/>
	</g>
	<g id="POLYLINE_52151_">
		<line class="st5" x1="310.5" y1="130.4" x2="310.5" y2="139.6"/>
	</g>
	<g id="ARC_4296_">
		<path class="st5" d="M301.5,130.4c0,5,4,9,9,9"/>
	</g>
	<g id="POLYLINE_52150_">
		<line class="st5" x1="314.5" y1="219.6" x2="314.5" y2="198"/>
	</g>
	<g id="POLYLINE_52149_">
		<line class="st5" x1="312.1" y1="198" x2="312.1" y2="219.6"/>
	</g>
	<g id="POLYLINE_52148_">
		<line class="st5" x1="314.5" y1="184.6" x2="314.5" y2="163"/>
	</g>
	<g id="POLYLINE_52147_">
		<line class="st5" x1="312.1" y1="163" x2="312.1" y2="184.6"/>
	</g>
	<g id="POLYLINE_52146_">
		<line class="st5" x1="334.1" y1="157.6" x2="356.7" y2="157.6"/>
	</g>
	<g id="POLYLINE_52145_">
		<line class="st5" x1="356.7" y1="154.8" x2="334.1" y2="154.8"/>
	</g>
	<g id="POLYLINE_52144_">
		<line class="st5" x1="333.1" y1="9.8" x2="320.7" y2="9.8"/>
	</g>
	<g id="POLYLINE_52143_">
		<line class="st5" x1="333.1" y1="12.6" x2="320.7" y2="12.6"/>
	</g>
	<g id="POLYLINE_52142_">
		<line class="st5" x1="291.9" y1="208.8" x2="282.9" y2="208.8"/>
	</g>
	<g id="ARC_4295_">
		<path class="st5" d="M282.9,208.8c0,5,4,9,9,9"/>
	</g>
	<g id="POLYLINE_52141_">
		<line class="st5" x1="291.9" y1="207.6" x2="282.9" y2="207.6"/>
	</g>
	<g id="ARC_4294_">
		<path class="st5" d="M291.9,198.6c-5,0-9,4-9,9"/>
	</g>
	<g id="POLYLINE_52140_">
		<line class="st5" x1="291.9" y1="197.4" x2="282.9" y2="197.4"/>
	</g>
	<g id="ARC_4293_">
		<path class="st5" d="M291.9,188.4c-5,0-9,4-9,9"/>
	</g>
	<g id="POLYLINE_52139_">
		<line class="st5" x1="312.7" y1="118.4" x2="321.9" y2="118.4"/>
	</g>
	<g id="ARC_4292_">
		<path class="st5" d="M312.7,127.6c5,0,9-4,9-9"/>
	</g>
	<g id="POLYLINE_52138_">
		<line class="st5" x1="359.7" y1="96.8" x2="359.7" y2="105.8"/>
	</g>
	<g id="ARC_4291_">
		<path class="st5" d="M359.7,105.8c5,0,9-4,9-9"/>
	</g>
	<g id="POLYLINE_52137_">
		<line class="st5" x1="347.3" y1="96.8" x2="347.3" y2="105.8"/>
	</g>
	<g id="ARC_4290_">
		<path class="st5" d="M347.3,105.8c5,0,9-4,9-9"/>
	</g>
	<g id="POLYLINE_52136_">
		<line class="st5" x1="357.5" y1="35" x2="348.5" y2="35"/>
	</g>
	<g id="ARC_4289_">
		<path class="st5" d="M348.5,35c0,5,4,9,9,9"/>
	</g>
	<g id="POLYLINE_52135_">
		<line class="st5" x1="367.7" y1="35" x2="376.7" y2="35"/>
	</g>
	<g id="ARC_4288_">
		<path class="st5" d="M367.7,44.2c5,0,9-4,9-9"/>
	</g>
	<g id="POLYLINE_52134_">
		<line class="st5" x1="367.7" y1="13.4" x2="376.7" y2="13.4"/>
	</g>
	<g id="ARC_4287_">
		<path class="st5" d="M367.7,22.4c5,0,9-4,9-9"/>
	</g>
	<g id="POLYLINE_52133_">
		<line class="st5" x1="345.5" y1="77.6" x2="354.7" y2="77.6"/>
	</g>
	<g id="ARC_4286_">
		<path class="st5" d="M354.7,77.6c0-5-4-9-9-9"/>
	</g>
	<g id="POLYLINE_52132_">
		<line class="st5" x1="310.9" y1="64.4" x2="310.9" y2="55.4"/>
	</g>
	<g id="ARC_4285_">
		<path class="st5" d="M320.1,64.4c0-5-4-9-9-9"/>
	</g>
	<g id="POLYLINE_52131_">
		<line class="st5" x1="287.3" y1="78.2" x2="287.3" y2="100.8"/>
	</g>
	<g id="LINE_6690_">
		<line class="st5" x1="299.5" y1="78.2" x2="275.3" y2="78.2"/>
	</g>
	<g id="LINE_6689_">
		<line class="st5" x1="299.5" y1="81" x2="275.3" y2="81"/>
	</g>
	<g id="LINE_6688_">
		<line class="st5" x1="299.5" y1="83.8" x2="275.3" y2="83.8"/>
	</g>
	<g id="LINE_6687_">
		<line class="st5" x1="299.5" y1="86.6" x2="275.3" y2="86.6"/>
	</g>
	<g id="LINE_6686_">
		<line class="st5" x1="299.5" y1="89.6" x2="275.3" y2="89.6"/>
	</g>
	<g id="LINE_6685_">
		<line class="st5" x1="299.5" y1="92.4" x2="275.3" y2="92.4"/>
	</g>
	<g id="LINE_6684_">
		<line class="st5" x1="299.5" y1="95.2" x2="275.3" y2="95.2"/>
	</g>
	<g id="LINE_6683_">
		<line class="st5" x1="299.5" y1="98" x2="275.3" y2="98"/>
	</g>
	<g id="POLYLINE_51951_">
		<line class="st5" x1="299.5" y1="100.8" x2="275.3" y2="100.8"/>
	</g>
	<g id="POLYLINE_51950_">
		<line class="st5" x1="364.5" y1="12.6" x2="352.1" y2="12.6"/>
	</g>
	<g id="POLYLINE_51949_">
		<line class="st5" x1="364.5" y1="9.8" x2="352.1" y2="9.8"/>
	</g>
	<g id="POLYLINE_51948_">
		<line class="st5" x1="301.7" y1="12.6" x2="289.5" y2="12.6"/>
	</g>
	<g id="POLYLINE_51947_">
		<line class="st5" x1="301.7" y1="9.8" x2="289.5" y2="9.8"/>
	</g>
	<g id="POLYLINE_51946_">
		<line class="st5" x1="78.1" y1="9.8" x2="55.3" y2="9.8"/>
	</g>
	<g id="POLYLINE_51945_">
		<line class="st5" x1="41.5" y1="9.8" x2="29.1" y2="9.8"/>
	</g>
	<g id="POLYLINE_51944_">
		<line class="st5" x1="41.5" y1="12.6" x2="29.1" y2="12.6"/>
	</g>
	<g id="POLYLINE_51943_">
		<line class="st5" x1="104.3" y1="9.8" x2="91.9" y2="9.8"/>
	</g>
	<g id="POLYLINE_51942_">
		<line class="st5" x1="104.3" y1="12.6" x2="91.9" y2="12.6"/>
	</g>
	<g id="POLYLINE_51941_">
		<line class="st5" x1="54.1" y1="200.6" x2="54.1" y2="174"/>
	</g>
	<g id="POLYLINE_51940_">
		<line class="st5" x1="51.9" y1="174" x2="51.9" y2="200.6"/>
	</g>
	<g id="POLYLINE_51939_">
		<line class="st5" x1="51.9" y1="250.6" x2="51.9" y2="264.6"/>
	</g>
	<g id="POLYLINE_51938_">
		<line class="st5" x1="54.1" y1="264.6" x2="54.1" y2="250.6"/>
	</g>
	<g id="POLYLINE_51937_">
		<line class="st5" x1="100.9" y1="157.6" x2="91.7" y2="157.6"/>
	</g>
	<g id="POLYLINE_51936_">
		<line class="st5" x1="100.9" y1="154.8" x2="91.7" y2="154.8"/>
	</g>
	<g id="POLYLINE_51935_">
		<line class="st5" x1="54.1" y1="233.6" x2="54.1" y2="219.4"/>
	</g>
	<g id="POLYLINE_51934_">
		<line class="st5" x1="51.9" y1="219.4" x2="51.9" y2="233.6"/>
	</g>
	<g id="POLYLINE_51933_">
		<line class="st5" x1="87.1" y1="141.4" x2="77.9" y2="141.4"/>
	</g>
	<g id="ARC_4284_">
		<path class="st5" d="M77.9,141.4c0,5,4,9,9,9"/>
	</g>
	<g id="POLYLINE_51932_">
		<line class="st5" x1="87.1" y1="118.4" x2="77.9" y2="118.4"/>
	</g>
	<g id="ARC_4283_">
		<path class="st5" d="M77.9,118.4c0,5,4,9,9,9"/>
	</g>
	<g id="POLYLINE_51931_">
		<line class="st5" x1="39.7" y1="66.2" x2="30.7" y2="66.2"/>
	</g>
	<g id="ARC_4282_">
		<path class="st5" d="M30.7,66.2c0,5,4,9,9,9"/>
	</g>
	<g id="POLYLINE_51930_">
		<line class="st5" x1="17.9" y1="64.4" x2="17.9" y2="55.4"/>
	</g>
	<g id="ARC_4281_">
		<path class="st5" d="M27.1,64.4c0-5-4-9-9-9"/>
	</g>
	<g id="POLYLINE_51929_">
		<line class="st5" x1="48.1" y1="41.6" x2="38.9" y2="41.6"/>
	</g>
	<g id="ARC_4280_">
		<path class="st5" d="M48.1,32.6c-5,0-9,4-9,9"/>
	</g>
	<g id="POLYLINE_51928_">
		<line class="st5" x1="39.1" y1="100.8" x2="15.1" y2="100.8"/>
	</g>
	<g id="LINE_6682_">
		<line class="st5" x1="39.1" y1="98" x2="15.1" y2="98"/>
	</g>
	<g id="LINE_6681_">
		<line class="st5" x1="39.1" y1="89.6" x2="15.1" y2="89.6"/>
	</g>
	<g id="LINE_6680_">
		<line class="st5" x1="39.1" y1="86.6" x2="15.1" y2="86.6"/>
	</g>
	<g id="LINE_6679_">
		<line class="st5" x1="39.1" y1="83.8" x2="15.1" y2="83.8"/>
	</g>
	<g id="LINE_6678_">
		<line class="st5" x1="39.1" y1="81" x2="15.1" y2="81"/>
	</g>
	<g id="LINE_6677_">
		<line class="st5" x1="39.1" y1="78.2" x2="15.1" y2="78.2"/>
	</g>
	<g id="POLYLINE_51927_">
		<line class="st5" x1="27.1" y1="78.2" x2="27.1" y2="100.8"/>
	</g>
</g>
<g id="PLAN_x24_CLOISON_TRANSLUCIDE">
</g>
<g id="PLAN_x24_CLOISON_1.3">
</g>
<g id="PLAN_x24_CLOISON_1.2">
	<g id="POLYLINE_51105_">
		<polyline class="st6" points="300.5,65.6 300.5,103 299.5,103 299.5,65.6 		"/>
	</g>
	<g id="POLYLINE_51104_">
		<polyline class="st6" points="300.5,117.2 300.5,130 301.5,130 301.5,131 299.5,131 299.5,117.2 		"/>
	</g>
	<g id="POLYLINE_51103_">
		<polyline class="st6" points="378.5,97.4 371.1,97.4 371.1,114.4 		"/>
	</g>
	<g id="POLYLINE_51102_">
		<polyline class="st6" points="378.5,34.4 368.3,34.4 368.3,35 367.1,35 367.1,22.4 368.3,22.4 368.3,33.2 378.5,33.2 		"/>
	</g>
	<g id="POLYLINE_51101_">
		<polyline class="st6" points="346.7,33.2 358.1,33.2 358.1,35 357.1,35 357.1,34.4 346.7,34.4 		"/>
	</g>
	<g id="POLYLINE_51100_">
		<polyline class="st6" points="346.7,56.6 357.1,56.6 357.1,44.2 358.1,44.2 358.1,57.8 346.7,57.8 		"/>
	</g>
	<g id="POLYLINE_51099_">
		<polyline class="st6" points="368.3,12.6 368.3,13.4 367.1,13.4 367.1,12.6 		"/>
	</g>
	<g id="POLYLINE_51098_">
		<polyline class="st6" points="370.1,114.4 370.1,97.4 368.7,97.4 368.7,96.2 378.5,96.2 		"/>
	</g>
	<g id="POLYLINE_51097_">
		<polyline class="st6" points="378.5,57.8 367.1,57.8 367.1,44.2 368.3,44.2 368.3,56.6 378.5,56.6 		"/>
	</g>
	<g id="POLYLINE_51096_">
		<polyline class="st6" points="357.5,114.4 357.5,97.4 356.5,97.4 356.5,96.2 359.7,96.2 359.7,97.4 358.7,97.4 358.7,114.4 		"/>
	</g>
	<g id="POLYLINE_51095_">
		<polyline class="st6" points="346.7,96.2 347.3,96.2 347.3,97.4 346.7,97.4 		"/>
	</g>
	<g id="POLYLINE_51094_">
		<polyline class="st6" points="275.3,187.2 301.5,187.2 301.5,188.4 275.3,188.4 		"/>
	</g>
	<g id="POLYLINE_51093_">
		<polyline class="st6" points="312.1,154.8 312.1,131 310.5,131 310.5,130 312.1,130 312.1,127.6 313.3,127.6 313.3,154.8 		"/>
	</g>
	<g id="POLYLINE_51092_">
		<polyline class="st6" points="313.3,117.2 313.3,118.4 312.1,118.4 312.1,117.2 		"/>
	</g>
	<g id="POLYLINE_51091_">
		<polyline class="st6" points="312.1,188.4 310.5,188.4 310.5,187.2 312.1,187.2 		"/>
	</g>
	<g id="POLYLINE_51090_">
		<polyline class="st6" points="275.3,198.6 290.9,198.6 291.9,198.6 291.9,197.4 275.3,197.4 		"/>
	</g>
	<g id="POLYLINE_51089_">
		<polyline class="st6" points="275.3,207.6 290.9,207.6 291.9,207.6 291.9,208.8 290.9,208.8 275.3,208.8 		"/>
	</g>
	<g id="POLYLINE_51088_">
		<polyline class="st6" points="312.1,228.2 291.9,228.2 291.9,233 		"/>
	</g>
	<g id="POLYLINE_51087_">
		<polyline class="st6" points="312.1,227 291.9,227 291.9,217.8 290.9,217.8 290.9,233 		"/>
	</g>
	<g id="POLYLINE_51086_">
		<polyline class="st6" points="118.3,57.4 109.9,57.4 109.9,58.6 118.3,58.6 		"/>
	</g>
	<g id="POLYLINE_51085_">
		<polyline class="st6" points="86.5,57.4 94.9,57.4 94.9,58.6 86.5,58.6 		"/>
	</g>
	<g id="POLYLINE_51084_">
		<line class="st6" x1="46.9" y1="47.6" x2="15.1" y2="47.6"/>
	</g>
	<g id="LINE_6657_">
		<line class="st6" x1="46.9" y1="48.6" x2="15.1" y2="48.6"/>
	</g>
	<g id="POLYLINE_51083_">
		<polyline class="st6" points="87.5,117.2 87.5,118.4 86.5,118.4 86.5,117.2 		"/>
	</g>
	<g id="POLYLINE_51082_">
		<polyline class="st6" points="118.3,140.4 87.5,140.4 87.5,141.4 86.5,141.4 86.5,127.6 87.5,127.6 87.5,139.2 118.3,139.2 		"/>
	</g>
	<g id="POLYLINE_51081_">
		<polyline class="st6" points="86.5,154.8 86.5,150.4 87.5,150.4 87.5,154.8 		"/>
	</g>
	<g id="POLYLINE_51080_">
		<line class="st6" x1="27.1" y1="78.2" x2="27.1" y2="77"/>
	</g>
	<g id="POLYLINE_51079_">
		<polyline class="st6" points="40.3,114.4 40.3,75.2 39.1,75.2 39.1,77 27.1,77 		"/>
	</g>
	<g id="POLYLINE_51078_">
		<polyline class="st6" points="27.1,78.2 39.1,78.2 39.1,114.4 		"/>
	</g>
	<g id="POLYLINE_51077_">
		<polyline class="st6" points="40.3,65.6 40.3,66.2 39.1,66.2 39.1,65.6 		"/>
	</g>
</g>
<g id="PLAN_x24_CLOISON_1.1">
</g>
<g id="PLAN_x24_STRUCTURE_2.3">
</g>
<g id="PLAN_x24_STRUCTURE_2.2">
</g>
<g id="PLAN_x24_STRUCTURE_2.1">
</g>
<g id="PLAN_x24_STRUCTURE_1.3">
</g>
<g id="PLAN_x24_STRUCTURE_1.2">
	<g id="POLYLINE_52327_">
		<polygon class="st7" points="356.7,154.8 378.5,154.8 378.5,117.2 313.3,117.2 312.1,117.2 312.1,114.4 344.5,114.4 344.5,77.6 
			346.7,77.6 346.7,114.4 378.5,114.4 378.5,12.6 364.5,12.6 364.5,9.8 381.5,9.8 381.5,157.6 356.7,157.6 		"/>
	</g>
	<g id="POLYLINE_52326_">
		<rect x="51.9" y="233.6" class="st7" width="2.2" height="17"/>
	</g>
	<g id="POLYLINE_52325_">
		<rect x="51.9" y="200.6" class="st7" width="2.2" height="18.8"/>
	</g>
	<g id="POLYLINE_52324_">
		<polygon class="st7" points="300.5,114.4 300.5,117.2 275.3,117.2 275.3,233 312.1,233 312.1,219.6 314.5,219.6 314.5,235.2 
			272.5,235.2 272.5,9.8 289.5,9.8 289.5,12.6 275.3,12.6 275.3,63.4 307.1,63.4 307.1,41.6 309.5,41.6 309.5,63.4 310.9,63.4 
			310.9,65.6 309.5,65.6 275.3,65.6 275.3,114.4 		"/>
	</g>
	<g id="POLYLINE_52323_">
		<rect x="312.1" y="184.6" class="st7" width="2.2" height="13.4"/>
	</g>
	<g id="POLYLINE_52322_">
		<polygon class="st7" points="309.5,32.6 309.5,12.6 320.7,12.6 320.7,9.8 301.7,9.8 301.7,12.6 307.1,12.6 307.1,32.6 		"/>
	</g>
	<g id="POLYLINE_52321_">
		<polygon class="st7" points="312.1,154.8 334.1,154.8 334.1,157.6 314.5,157.6 314.5,163 312.1,163 		"/>
	</g>
	<g id="POLYLINE_52320_">
		<polygon class="st7" points="344.5,65.6 344.5,68.4 346.7,68.4 346.7,12.6 352.1,12.6 352.1,9.8 333.1,9.8 333.1,12.6 344.5,12.6 
			344.5,63.4 320.1,63.4 320.1,65.6 		"/>
	</g>
	<g id="POLYLINE_52319_">
		<polygon class="st7" points="78.1,9.8 91.9,9.8 91.9,12.6 86.5,12.6 86.5,28.4 84.1,28.4 84.1,14.8 78.1,14.8 		"/>
	</g>
	<g id="POLYLINE_52318_">
		<polygon class="st7" points="49.1,14.8 49.1,32.6 46.9,32.6 46.9,12.6 41.5,12.6 41.5,9.8 55.3,9.8 55.3,14.8 		"/>
	</g>
	<g id="POLYLINE_52317_">
		<rect x="84.1" y="42" class="st7" width="2.2" height="39"/>
	</g>
	<g id="POLYLINE_52316_">
		<polygon class="st7" points="54.1,157.6 54.1,174 51.9,174 51.9,154.8 55.3,154.8 55.3,157.6 		"/>
	</g>
	<g id="POLYLINE_52315_">
		<polygon class="st7" points="15.1,63.4 15.1,12.6 29.1,12.6 29.1,9.8 12.3,9.8 12.3,274.8 55.3,274.8 55.3,272 54.1,272 
			54.1,264.6 51.9,264.6 51.9,272 15.1,272 15.1,117.2 55.3,117.2 55.3,114.4 15.1,114.4 15.1,65.6 17.9,65.6 17.9,63.4 		"/>
	</g>
	<g id="POLYLINE_52314_">
		<polygon class="st7" points="27.1,65.6 27.1,63.4 46.9,63.4 46.9,41.6 49.1,41.6 49.1,65.6 		"/>
	</g>
	<g id="POLYLINE_52313_">
		<polyline class="st7" points="121.1,274.8 78.1,274.8 78.1,272 121.1,272 		"/>
	</g>
	<g id="POLYLINE_52312_">
		<polygon class="st7" points="100.9,154.8 118.3,154.8 118.3,117.2 78.1,117.2 78.1,114.4 84.1,114.4 84.1,94.6 86.5,94.6 
			86.5,114.4 118.3,114.4 118.3,12.6 104.3,12.6 104.3,9.8 121.1,9.8 121.1,157.6 100.9,157.6 		"/>
	</g>
	<g id="POLYLINE_52311_">
		<rect x="78.1" y="154.8" class="st7" width="13.8" height="2.8"/>
	</g>
</g>
<g id="PLAN_x24_STRUCTURE_1.1">
</g>
</svg>
