<?xml version="1.0" encoding="utf-8"?>
<!-- Generator: Adobe Illustrator 22.0.1, SVG Export Plug-In . SVG Version: 6.00 Build 0)  -->
<svg version="1.1" id="Calque_1" xmlns="http://www.w3.org/2000/svg" xmlns:xlink="http://www.w3.org/1999/xlink" x="0px" y="0px"
	 viewBox="0 0 185.1 189.8" style="enable-background:new 0 0 185.1 189.8;" xml:space="preserve">
<style type="text/css">
	.st0{display:none;}
	.st1{display:inline;}
	.st2{fill:none;}
	.st3{fill:none;stroke:#000000;stroke-width:0.2;stroke-linecap:square;stroke-miterlimit:10;stroke-dasharray:1,1;}
	.st4{fill:none;stroke:#000000;stroke-width:0.1;stroke-linecap:square;stroke-miterlimit:10;}
	.st5{fill:none;stroke:#000000;stroke-width:0.16;stroke-linecap:square;stroke-miterlimit:10;}
	.st6{fill:none;stroke:#000000;stroke-width:0.28;stroke-linecap:square;stroke-miterlimit:10;}
	.st7{fill:none;stroke:#000000;stroke-width:0.36;stroke-linecap:square;stroke-miterlimit:10;}
	.st8{fill:none;stroke:#000000;stroke-width:0.82;stroke-linecap:square;stroke-miterlimit:10;}
</style>
<g id="Calque_1_1_">
</g>
<g id="INFOS_x24_A4" class="st0">
	<g id="POLYLINE_52265_" class="st1">
		<rect x="-203.3" y="-323.2" class="st2" width="595.3" height="841.9"/>
	</g>
</g>
<g id="PLAN_x24_FOND">
</g>
<g id="PLAN_x24_POINTILLE">
	<g id="POLYLINE_53515_">
		<line class="st3" x1="49.4" y1="97.8" x2="33.8" y2="103.4"/>
	</g>
	<g id="POLYLINE_53514_">
		<line class="st3" x1="49.4" y1="99.4" x2="33.8" y2="105"/>
	</g>
</g>
<g id="PLAN_x24_VITRAGE">
	<g id="LINE_6720_">
		<line class="st4" x1="51.8" y1="129.6" x2="51.8" y2="122.8"/>
	</g>
	<g id="LINE_6719_">
		<line class="st4" x1="51.8" y1="115.6" x2="51.8" y2="108.8"/>
	</g>
	<g id="LINE_6718_">
		<line class="st4" x1="51.8" y1="101" x2="51.8" y2="95.4"/>
	</g>
	<g id="POLYLINE_52310_">
		<line class="st4" x1="44.4" y1="175" x2="33" y2="175"/>
	</g>
	<g id="POLYLINE_52309_">
		<line class="st4" x1="80.4" y1="175" x2="69" y2="175"/>
	</g>
	<g id="POLYLINE_52308_">
		<line class="st4" x1="117.2" y1="175" x2="106" y2="175"/>
	</g>
	<g id="POLYLINE_52307_">
		<line class="st4" x1="155.4" y1="175" x2="144" y2="175"/>
	</g>
	<g id="LINE_6717_">
		<line class="st4" x1="142.6" y1="85.6" x2="142.6" y2="95.8"/>
	</g>
	<g id="LINE_6716_">
		<line class="st4" x1="142.6" y1="72" x2="142.6" y2="82.2"/>
	</g>
	<g id="LINE_6715_">
		<line class="st4" x1="158" y1="101.6" x2="146.6" y2="101.6"/>
	</g>
	<g id="LINE_6658_">
		<line class="st4" x1="168.2" y1="121.4" x2="162.8" y2="121.4"/>
	</g>
	<g id="POLYLINE_52306_">
		<line class="st4" x1="141.4" y1="14.8" x2="155" y2="14.8"/>
	</g>
	<g id="POLYLINE_52305_">
		<line class="st4" x1="82.4" y1="14.8" x2="106.2" y2="14.8"/>
	</g>
	<g id="POLYLINE_52304_">
		<line class="st4" x1="35.2" y1="14.8" x2="48.8" y2="14.8"/>
	</g>
</g>
<g id="PLAN_x24_MOBILIER">
	<g id="POLYLINE_53271_">
		
			<rect x="25.5" y="155.9" transform="matrix(0.3036 -0.9528 0.9528 0.3036 -131.4733 137.5143)" class="st5" width="5.6" height="5.6"/>
	</g>
	<g id="POLYLINE_53270_">
		<rect x="27.2" y="144" transform="matrix(0.7574 -0.653 0.653 0.7574 -88.5854 55.195)" class="st5" width="5.6" height="5.6"/>
	</g>
	<g id="CIRCLE_1660_">
		<path class="st5" d="M22.6,152.2c0-1.4,1.2-2.6,2.6-2.6s2.6,1.2,2.6,2.6s-1.2,2.4-2.6,2.4S22.6,153.6,22.6,152.2L22.6,152.2z"/>
	</g>
	<g id="POLYLINE_53269_">
		<rect x="57.2" y="125.2" class="st5" width="3.4" height="4.6"/>
	</g>
	<g id="POLYLINE_53268_">
		<rect x="52.4" y="122" class="st5" width="4.8" height="11.2"/>
	</g>
	<g id="POLYLINE_53267_">
		<rect x="104.6" y="111" class="st5" width="4.6" height="3.4"/>
	</g>
	<g id="POLYLINE_53266_">
		<line class="st5" x1="101.4" y1="114.4" x2="101.4" y2="118.6"/>
	</g>
	<g id="POLYLINE_53265_">
		<line class="st5" x1="112.6" y1="114.4" x2="112.6" y2="118.6"/>
	</g>
	<g id="POLYLINE_53264_">
		<line class="st5" x1="124.2" y1="114.4" x2="124.2" y2="118.6"/>
	</g>
	<g id="POLYLINE_53263_">
		<line class="st5" x1="142" y1="117" x2="134.2" y2="114.4"/>
	</g>
	<g id="POLYLINE_53262_">
		<rect x="97.4" y="114.4" class="st5" width="36.6" height="4.2"/>
	</g>
	<g id="CIRCLE_1659_">
		<path class="st5" d="M136.6,105.2c0-1.4,1.2-2.6,2.6-2.6s2.6,1.2,2.6,2.6s-1.2,2.6-2.6,2.6S136.6,106.6,136.6,105.2L136.6,105.2z"
			/>
	</g>
	<g id="POLYLINE_53261_">
		
			<rect x="135.1" y="95.4" transform="matrix(0.5544 -0.8322 0.8322 0.5544 -20.3135 158.502)" class="st5" width="5.6" height="5.6"/>
	</g>
	<g id="POLYLINE_53260_">
		<rect x="133.8" y="74.4" class="st5" width="3.4" height="4.6"/>
	</g>
	<g id="POLYLINE_53259_">
		<rect x="137.2" y="71.2" class="st5" width="4.8" height="11.2"/>
	</g>
	<g id="POLYLINE_53258_">
		<rect x="97.4" y="83.6" class="st5" width="4.2" height="15.2"/>
	</g>
	<g id="POLYLINE_53257_">
		<rect x="107.8" y="83.6" class="st5" width="22.2" height="2.2"/>
	</g>
	<g id="POLYLINE_53256_">
		<rect x="111.2" y="85.8" class="st5" width="15.8" height="20.4"/>
	</g>
	<g id="POLYLINE_53255_">
		<line class="st5" x1="127" y1="90" x2="111.2" y2="90"/>
	</g>
	<g id="POLYLINE_53254_">
		<rect x="121" y="86.6" class="st5" width="4.6" height="2.8"/>
	</g>
	<g id="POLYLINE_53253_">
		<rect x="113" y="86.6" class="st5" width="4.6" height="2.8"/>
	</g>
	<g id="POLYLINE_53252_">
		<line class="st5" x1="127" y1="90" x2="111.2" y2="96"/>
	</g>
	<g id="POLYLINE_53251_">
		<rect x="136.6" y="29.6" class="st5" width="15.8" height="20.4"/>
	</g>
	<g id="POLYLINE_53250_">
		<line class="st5" x1="136.6" y1="45.6" x2="152.6" y2="45.6"/>
	</g>
	<g id="POLYLINE_53249_">
		<rect x="138.2" y="46.2" class="st5" width="4.6" height="2.8"/>
	</g>
	<g id="POLYLINE_53248_">
		<rect x="146.2" y="46.2" class="st5" width="4.6" height="2.8"/>
	</g>
	<g id="POLYLINE_53247_">
		<line class="st5" x1="136.6" y1="45.6" x2="152.6" y2="39.8"/>
	</g>
	<g id="POLYLINE_53246_">
		<rect x="133.6" y="50" class="st5" width="22.2" height="2.2"/>
	</g>
	<g id="POLYLINE_53245_">
		<rect x="143.2" y="61.4" class="st5" width="13.6" height="3.2"/>
	</g>
	<g id="POLYLINE_53244_">
		<rect x="156.8" y="60" class="st5" width="12" height="4.6"/>
	</g>
	<g id="POLYLINE_53243_">
		
			<rect x="162.6" y="24.3" transform="matrix(0.2108 -0.9775 0.9775 0.2108 103.9973 183.0623)" class="st5" width="5.6" height="5.6"/>
	</g>
	<g id="CIRCLE_1658_">
		<path class="st5" d="M157.2,25.8c0-1.4,1.2-2.6,2.6-2.6s2.6,1.2,2.6,2.6s-1.2,2.6-2.6,2.6S157.2,27.2,157.2,25.8L157.2,25.8z"/>
	</g>
	<g id="POLYLINE_53242_">
		
			<rect x="157.8" y="17.3" transform="matrix(0.2108 -0.9775 0.9775 0.2108 107.1161 172.8282)" class="st5" width="5.6" height="5.6"/>
	</g>
	<g id="POLYLINE_53241_">
		<rect x="122.8" y="16.6" class="st5" width="17.4" height="4.8"/>
	</g>
	<g id="POLYLINE_53240_">
		<rect x="101.8" y="61.6" class="st5" width="13.6" height="3"/>
	</g>
	<g id="POLYLINE_53239_">
		<rect x="81.4" y="61.6" class="st5" width="7" height="3"/>
	</g>
	<g id="POLYLINE_53238_">
		<line class="st5" x1="115.4" y1="22" x2="121.4" y2="22"/>
	</g>
	<g id="POLYLINE_53237_">
		<line class="st5" x1="115.4" y1="27.8" x2="121.4" y2="27.8"/>
	</g>
	<g id="POLYLINE_53236_">
		<line class="st5" x1="115.4" y1="35" x2="121.4" y2="35"/>
	</g>
	<g id="POLYLINE_53235_">
		<line class="st5" x1="115.4" y1="44" x2="121.4" y2="44"/>
	</g>
	<g id="POLYLINE_53234_">
		<line class="st5" x1="115.4" y1="50" x2="121.4" y2="50"/>
	</g>
	<g id="POLYLINE_53233_">
		<line class="st5" x1="115.4" y1="16.6" x2="115.4" y2="64.6"/>
	</g>
	<g id="POLYLINE_53232_">
		<rect x="82.2" y="46.4" class="st5" width="3.4" height="4.6"/>
	</g>
	<g id="POLYLINE_53231_">
		<rect x="82.2" y="40.8" class="st5" width="3.4" height="4.6"/>
	</g>
	<g id="POLYLINE_53230_">
		<rect x="82.2" y="34.4" class="st5" width="3.4" height="4.6"/>
	</g>
	<g id="POLYLINE_53229_">
		<rect x="82.2" y="28.4" class="st5" width="3.4" height="4.6"/>
	</g>
	<g id="POLYLINE_53228_">
		<rect x="99.4" y="28" class="st5" width="5" height="23.6"/>
	</g>
	<g id="POLYLINE_53227_">
		<rect x="94.4" y="28" class="st5" width="5" height="23.6"/>
	</g>
	<g id="POLYLINE_53226_">
		<rect x="85.6" y="28" class="st5" width="7.6" height="23.6"/>
	</g>
	<g id="POLYLINE_53225_">
		<line class="st5" x1="46.8" y1="55.6" x2="46.8" y2="42.8"/>
	</g>
	<g id="POLYLINE_53224_">
		<line class="st5" x1="46.8" y1="49.2" x2="39.4" y2="49.2"/>
	</g>
	<g id="POLYLINE_53223_">
		<line class="st5" x1="39.4" y1="42.8" x2="49" y2="42.8"/>
	</g>
	<g id="POLYLINE_53222_">
		<line class="st5" x1="49" y1="55.6" x2="39.4" y2="55.6"/>
	</g>
	<g id="POLYLINE_53221_">
		<rect x="39.4" y="40.4" class="st5" width="9.6" height="17.4"/>
	</g>
	<g id="POLYLINE_53220_">
		
			<rect x="20.2" y="42.4" transform="matrix(2.219794e-02 -0.9998 0.9998 2.219794e-02 -22.6381 67.1997)" class="st5" width="5.6" height="5.6"/>
	</g>
	<g id="POLYLINE_53219_">
		
			<rect x="19.4" y="51.8" transform="matrix(0.9438 -0.3304 0.3304 0.9438 -16.7953 10.4107)" class="st5" width="5.6" height="5.6"/>
	</g>
	<g id="POLYLINE_53218_">
		<rect x="28.8" y="41.8" class="st5" width="7.4" height="14.6"/>
	</g>
	<g id="POLYLINE_53217_">
		<rect x="16.6" y="27.2" class="st5" width="17.4" height="5.2"/>
	</g>
	<g id="POLYLINE_53216_">
		<rect x="16.6" y="16.6" class="st5" width="17.4" height="5.2"/>
	</g>
	<g id="POLYLINE_53215_">
		<rect x="50.2" y="16.6" class="st5" width="15.8" height="10.8"/>
	</g>
	<g id="SPLINE_1489_">
		<path class="st5" d="M70.6,157.2c-0.2,0.4-0.2,1-0.2,1.4s0,0.8,0,1c0,0.4,0,1,0.2,1.4c0,0.2,0.2,0.4,0.4,0.6
			c0.4,0.2,0.8,0.4,1.2,0.4c0.2,0,0.4,0,0.6,0c0.4,0,0.6-0.2,0.8-0.4c0.4-0.4,0.6-0.8,0.6-1.4c0-0.6,0.2-1,0-1.6c0-0.4,0-0.8-0.2-1
			c0-0.2,0-0.4-0.2-0.6"/>
	</g>
	<g id="POLYLINE_53214_">
		<rect x="69.4" y="154.2" class="st5" width="6" height="3"/>
	</g>
	<g id="SPLINE_1488_">
		<path class="st5" d="M71.8,139c0.4,0.2,1,0.2,1.4,0.2s0.8,0,1,0c0.4,0,1,0,1.4-0.2c0.2,0,0.4-0.2,0.6-0.4c0.2-0.4,0.4-0.8,0.4-1.2
			c0-0.2,0-0.4,0-0.6c0-0.4-0.2-0.6-0.4-0.8c-0.4-0.4-0.8-0.6-1.4-0.6s-1-0.2-1.6,0c-0.4,0-0.8,0-1,0.2c-0.2,0-0.4,0-0.6,0.2"/>
	</g>
	<g id="POLYLINE_53213_">
		<rect x="68.8" y="134.2" class="st5" width="3" height="6"/>
	</g>
	<g id="SPLINE_1487_">
		<path class="st5" d="M163.8,125c-0.2,0.4-0.2,1-0.2,1.4s0,0.8,0,1c0,0.4,0,1,0.2,1.4c0,0.2,0.2,0.4,0.4,0.6
			c0.4,0.2,0.8,0.4,1.2,0.4c0.2,0,0.4,0,0.6,0c0.4,0,0.6-0.2,0.8-0.4c0.4-0.4,0.6-0.8,0.6-1.4s0.2-1,0-1.6c0-0.4,0-0.8-0.2-1
			c0-0.2,0-0.4-0.2-0.6"/>
	</g>
	<g id="POLYLINE_53212_">
		<rect x="162.6" y="122" class="st5" width="6" height="3"/>
	</g>
	<g id="SPLINE_1486_">
		<path class="st5" d="M80.2,98.4c0.2-0.4,0.2-1,0.2-1.4s0-0.8,0-1c0-0.4,0-1-0.2-1.4c0-0.2-0.2-0.4-0.4-0.6
			c-0.4-0.2-0.8-0.4-1.2-0.4c-0.2,0-0.4,0-0.6,0c-0.4,0-0.6,0.2-0.8,0.4c-0.4,0.4-0.6,0.8-0.6,1.4s-0.2,1,0,1.6c0,0.4,0,0.8,0.2,1
			c0,0.2,0,0.4,0.2,0.6"/>
	</g>
	<g id="POLYLINE_53211_">
		<rect x="75.4" y="98.4" class="st5" width="6" height="3"/>
	</g>
	<g id="SPLINE_1485_">
		<path class="st5" d="M71.4,98.4c0.2-0.4,0.2-1,0.2-1.4s0-0.8,0-1c0-0.4,0-1-0.2-1.4c0-0.2-0.2-0.4-0.4-0.6
			c-0.4-0.2-0.8-0.4-1.2-0.4c-0.2,0-0.4,0-0.6,0c-0.4,0-0.6,0.2-0.8,0.4c-0.4,0.4-0.6,0.8-0.6,1.4s-0.2,1,0,1.6c0,0.4,0,0.8,0.2,1
			c0,0.2,0,0.4,0.2,0.6"/>
	</g>
	<g id="POLYLINE_53210_">
		<rect x="66.6" y="98.4" class="st5" width="6" height="3"/>
	</g>
	<g id="POLYLINE_53209_">
		<rect x="44.4" y="145" class="st5" width="20.4" height="15.8"/>
	</g>
	<g id="POLYLINE_53208_">
		<line class="st5" x1="60.4" y1="160.8" x2="60.4" y2="145"/>
	</g>
	<g id="POLYLINE_53207_">
		<rect x="61" y="154.8" class="st5" width="2.8" height="4.6"/>
	</g>
	<g id="POLYLINE_53206_">
		<rect x="61" y="146.8" class="st5" width="2.8" height="4.6"/>
	</g>
	<g id="POLYLINE_53205_">
		<line class="st5" x1="60.4" y1="160.8" x2="54.6" y2="145"/>
	</g>
	<g id="POLYLINE_53204_">
		<rect x="64.8" y="132.6" class="st5" width="2.6" height="9.2"/>
	</g>
	<g id="POLYLINE_53203_">
		<rect x="64.8" y="141.8" class="st5" width="2.6" height="22.2"/>
	</g>
	<g id="POLYLINE_53202_">
		<rect x="82.4" y="163.8" class="st5" width="4.6" height="9.6"/>
	</g>
	<g id="POLYLINE_53201_">
		<rect x="86.4" y="143" class="st5" width="4.8" height="10"/>
	</g>
	<g id="POLYLINE_53200_">
		<rect x="88.4" y="154.2" class="st5" width="4" height="14.4"/>
	</g>
	<g id="POLYLINE_53199_">
		<rect x="132.8" y="149.6" class="st5" width="20.4" height="15.8"/>
	</g>
	<g id="POLYLINE_53198_">
		<line class="st5" x1="137" y1="149.6" x2="137" y2="165.4"/>
	</g>
	<g id="POLYLINE_53197_">
		<rect x="133.6" y="151" class="st5" width="2.8" height="4.6"/>
	</g>
	<g id="POLYLINE_53196_">
		<rect x="133.6" y="159.2" class="st5" width="2.8" height="4.6"/>
	</g>
	<g id="POLYLINE_53195_">
		<line class="st5" x1="137" y1="149.6" x2="143" y2="165.4"/>
	</g>
	<g id="POLYLINE_53194_">
		<rect x="130.6" y="146.4" class="st5" width="2.2" height="22.2"/>
	</g>
	<g id="POLYLINE_53193_">
		<rect x="127.2" y="146.4" class="st5" width="2.2" height="22.2"/>
	</g>
	<g id="POLYLINE_53192_">
		<rect x="106.8" y="149.6" class="st5" width="20.4" height="15.8"/>
	</g>
	<g id="POLYLINE_53191_">
		<line class="st5" x1="122.8" y1="149.6" x2="122.8" y2="165.4"/>
	</g>
	<g id="POLYLINE_53190_">
		<rect x="123.4" y="151" class="st5" width="2.8" height="4.6"/>
	</g>
	<g id="POLYLINE_53189_">
		<rect x="123.4" y="159.2" class="st5" width="2.8" height="4.6"/>
	</g>
	<g id="POLYLINE_53188_">
		<line class="st5" x1="122.8" y1="149.6" x2="117" y2="165.4"/>
	</g>
	<g id="POLYLINE_53187_">
		<rect x="118" y="134" class="st5" width="11.4" height="4.8"/>
	</g>
	<g id="POLYLINE_53186_">
		<rect x="106.6" y="134" class="st5" width="11.4" height="4.8"/>
	</g>
	<g id="POLYLINE_53185_">
		<rect x="138.2" y="122" class="st5" width="5.2" height="10"/>
	</g>
	<g id="POLYLINE_53184_">
		<rect x="138.2" y="132" class="st5" width="5.2" height="6.2"/>
	</g>
	<g id="POLYLINE_53183_">
		<rect x="143.4" y="133.8" class="st5" width="11.2" height="4.4"/>
	</g>
	<g id="POLYLINE_53182_">
		<rect x="145.8" y="138" class="st5" width="4.6" height="3.4"/>
	</g>
	<g id="POLYLINE_53181_">
		<rect x="17.6" y="17.4" class="st5" width="3.2" height="2.4"/>
	</g>
	<g id="POLYLINE_53180_">
		<rect x="24" y="17.4" class="st5" width="3.2" height="2.4"/>
	</g>
	<g id="POLYLINE_53179_">
		<rect x="29.6" y="17.4" class="st5" width="3.2" height="2.4"/>
	</g>
	<g id="POLYLINE_53178_">
		<rect x="29.6" y="29" class="st5" width="3.2" height="2.4"/>
	</g>
	<g id="POLYLINE_53177_">
		<rect x="23.6" y="29" class="st5" width="3.2" height="2.4"/>
	</g>
	<g id="POLYLINE_53176_">
		<rect x="18" y="29" class="st5" width="3.2" height="2.4"/>
	</g>
</g>
<g id="PLAN_x24_DETAIL">
	<g id="POLYLINE_53372_">
		<line class="st5" x1="66.8" y1="34" x2="73.6" y2="34"/>
	</g>
	<g id="ARC_4391_">
		<path class="st5" d="M66.8,40.8c3.8,0,6.8-3,6.8-6.8"/>
	</g>
	<g id="ARC_4390_">
		<path class="st5" d="M73.6,47.6c0-3.8-3-6.8-6.8-6.8"/>
	</g>
	<g id="POLYLINE_53371_">
		<line class="st5" x1="73.6" y1="47.6" x2="66.8" y2="47.6"/>
	</g>
	<g id="ARC_4389_">
		<path class="st5" d="M27.2,64.6c0-2.2-0.8-4.4-2.2-6"/>
	</g>
	<g id="ARC_4388_">
		<path class="st5" d="M29.4,58.6c-1.4,1.6-2.2,3.8-2.2,6"/>
	</g>
	<g id="POLYLINE_53370_">
		<line class="st5" x1="29.4" y1="58.6" x2="36.4" y2="64.6"/>
	</g>
	<g id="POLYLINE_53369_">
		<line class="st5" x1="36.4" y1="64.6" x2="18.2" y2="64.6"/>
	</g>
	<g id="POLYLINE_53368_">
		<line class="st5" x1="18.2" y1="64.6" x2="25" y2="58.6"/>
	</g>
	<g id="POLYLINE_53367_">
		<polygon class="st5" points="16.6,34 13.2,36.8 13.2,40.8 13.2,44.6 16.6,47.6 		"/>
	</g>
	<g id="POLYLINE_53366_">
		<polygon class="st5" points="169.2,48.2 172.6,45.4 172.6,41.4 172.6,37.4 169.2,34.6 		"/>
	</g>
	<g id="POLYLINE_53365_">
		<polygon class="st5" points="19.8,146.4 16.6,149.4 16.6,153.2 16.6,157.2 19.8,160 		"/>
	</g>
	<g id="POLYLINE_53364_">
		<polygon class="st5" points="165.6,146.4 168.8,149.4 168.8,153.2 168.8,157.2 165.6,160 		"/>
	</g>
	<g id="POLYLINE_53363_">
		<polygon class="st5" points="89.6,172.6 92.2,175.8 95.8,175.8 99.4,175.8 102,172.6 		"/>
	</g>
	<g id="POLYLINE_53362_">
		<polyline class="st5" points="49.4,95.4 49.4,100.6 45.8,100.6 		"/>
	</g>
	<g id="LINE_6824_">
		<line class="st5" x1="52.4" y1="122.8" x2="52.4" y2="129.6"/>
	</g>
	<g id="LINE_6823_">
		<line class="st5" x1="52.4" y1="108.8" x2="52.4" y2="115.6"/>
	</g>
	<g id="LINE_6822_">
		<line class="st5" x1="52.4" y1="95.4" x2="52.4" y2="101"/>
	</g>
	<g id="LINE_6821_">
		<line class="st5" x1="142" y1="95.8" x2="142" y2="85.6"/>
	</g>
	<g id="LINE_6820_">
		<line class="st5" x1="142" y1="82.2" x2="142" y2="72"/>
	</g>
	<g id="LINE_6819_">
		<line class="st5" x1="146.6" y1="102.8" x2="158" y2="102.8"/>
	</g>
	<g id="LINE_6818_">
		<line class="st5" x1="162.8" y1="122" x2="168.2" y2="122"/>
	</g>
	<g id="POLYLINE_53361_">
		<line class="st5" x1="66.4" y1="85.8" x2="66.4" y2="92.6"/>
	</g>
	<g id="ARC_4387_">
		<path class="st5" d="M66.4,92.6c3.8,0,6.8-3,6.8-6.8"/>
	</g>
	<g id="POLYLINE_53360_">
		<line class="st5" x1="77.8" y1="148.2" x2="77.8" y2="141"/>
	</g>
	<g id="POLYLINE_53359_">
		<line class="st5" x1="82.4" y1="163.2" x2="76.8" y2="163.2"/>
	</g>
	<g id="POLYLINE_53358_">
		<line class="st5" x1="152" y1="118.6" x2="152" y2="102.8"/>
	</g>
	<g id="POLYLINE_53357_">
		<line class="st5" x1="156" y1="132.4" x2="156" y2="124"/>
	</g>
	<g id="POLYLINE_53356_">
		<line class="st5" x1="156.4" y1="111" x2="153.4" y2="111"/>
	</g>
	<g id="POLYLINE_53355_">
		<line class="st5" x1="156.8" y1="112" x2="154.6" y2="114"/>
	</g>
	<g id="POLYLINE_53354_">
		<line class="st5" x1="156.8" y1="109.8" x2="154.8" y2="107.8"/>
	</g>
	<g id="CIRCLE_1665_">
		<path class="st5" d="M157.4,111c0-0.2,0.2-0.4,0.4-0.4s0.4,0.2,0.4,0.4s-0.2,0.4-0.4,0.4S157.4,111.2,157.4,111L157.4,111z"/>
	</g>
	<g id="CIRCLE_1664_">
		<path class="st5" d="M146.6,128.2c0-0.2,0.2-0.4,0.4-0.4s0.4,0.2,0.4,0.4c0,0.2-0.2,0.4-0.4,0.4S146.6,128.6,146.6,128.2
			L146.6,128.2z"/>
	</g>
	<g id="POLYLINE_53353_">
		<line class="st5" x1="148" y1="129.4" x2="150" y2="131.4"/>
	</g>
	<g id="POLYLINE_53352_">
		<line class="st5" x1="148" y1="127.2" x2="150" y2="125.2"/>
	</g>
	<g id="POLYLINE_53351_">
		<line class="st5" x1="148.4" y1="128.2" x2="151.4" y2="128.2"/>
	</g>
	<g id="CIRCLE_1663_">
		<path class="st5" d="M72.8,151c0-0.2,0.2-0.4,0.4-0.4s0.4,0.2,0.4,0.4s-0.2,0.4-0.4,0.4S72.8,151.2,72.8,151L72.8,151z"/>
	</g>
	<g id="POLYLINE_53350_">
		<line class="st5" x1="74.2" y1="150" x2="76.2" y2="148"/>
	</g>
	<g id="POLYLINE_53349_">
		<line class="st5" x1="72" y1="150" x2="70" y2="147.8"/>
	</g>
	<g id="POLYLINE_53348_">
		<line class="st5" x1="73" y1="149.4" x2="73" y2="146.6"/>
	</g>
	<g id="CIRCLE_1662_">
		<path class="st5" d="M138.6,63.2c0-0.2,0.2-0.4,0.4-0.4s0.4,0.2,0.4,0.4s-0.2,0.4-0.4,0.4S138.6,63.4,138.6,63.2L138.6,63.2z"/>
	</g>
	<g id="POLYLINE_53347_">
		<line class="st5" x1="140" y1="62" x2="142" y2="60"/>
	</g>
	<g id="POLYLINE_53346_">
		<line class="st5" x1="138" y1="62" x2="135.8" y2="60"/>
	</g>
	<g id="POLYLINE_53345_">
		<line class="st5" x1="139" y1="61.6" x2="139" y2="58.8"/>
	</g>
	<g id="POLYLINE_53344_">
		<line class="st5" x1="143.2" y1="53.4" x2="143.2" y2="64.6"/>
	</g>
	<g id="POLYLINE_53343_">
		<polygon class="st5" points="101.8,63.4 99,66.8 95.2,66.8 91.2,66.8 88.4,63.4 		"/>
	</g>
	<g id="POLYLINE_53342_">
		<rect x="88.4" y="61.6" class="st5" width="13.4" height="6.8"/>
	</g>
	<g id="POLYLINE_53341_">
		<rect x="89.6" y="170.8" class="st5" width="12.4" height="6.8"/>
	</g>
	<g id="POLYLINE_53340_">
		<line class="st5" x1="163.6" y1="161.8" x2="163.6" y2="173.2"/>
	</g>
	<g id="POLYLINE_53339_">
		<line class="st5" x1="163.6" y1="144.8" x2="163.6" y2="133.6"/>
	</g>
	<g id="POLYLINE_53338_">
		<rect x="163.6" y="144.8" class="st5" width="5.2" height="16.8"/>
	</g>
	<g id="POLYLINE_53337_">
		<line class="st5" x1="21.8" y1="161.8" x2="21.8" y2="173.2"/>
	</g>
	<g id="POLYLINE_53336_">
		<line class="st5" x1="21.8" y1="144.8" x2="21.8" y2="133.6"/>
	</g>
	<g id="POLYLINE_53335_">
		<rect x="16.6" y="144.8" class="st5" width="5.2" height="16.8"/>
	</g>
	<g id="POLYLINE_53334_">
		<rect x="167.4" y="34.6" class="st5" width="5.2" height="13.6"/>
	</g>
	<g id="POLYLINE_53333_">
		<rect x="13.2" y="34" class="st5" width="5.2" height="13.6"/>
	</g>
	<g id="POLYLINE_53332_">
		<line class="st5" x1="50.8" y1="76" x2="60" y2="76"/>
	</g>
	<g id="ARC_4386_">
		<path class="st5" d="M50.8,85c5,0,9-4,9-9"/>
	</g>
	<g id="POLYLINE_53331_">
		<line class="st5" x1="35.2" y1="16.6" x2="48.8" y2="16.6"/>
	</g>
	<g id="POLYLINE_53330_">
		<line class="st5" x1="48.8" y1="11" x2="35.2" y2="11"/>
	</g>
	<g id="POLYLINE_53329_">
		<line class="st5" x1="82.4" y1="11" x2="106.2" y2="11"/>
	</g>
	<g id="POLYLINE_53328_">
		<line class="st5" x1="106.2" y1="16.6" x2="82.4" y2="16.6"/>
	</g>
	<g id="POLYLINE_53327_">
		<line class="st5" x1="155" y1="16.6" x2="141.4" y2="16.6"/>
	</g>
	<g id="POLYLINE_53326_">
		<line class="st5" x1="155" y1="11" x2="141.4" y2="11"/>
	</g>
	<g id="POLYLINE_53325_">
		<line class="st5" x1="145" y1="82.2" x2="145" y2="72"/>
	</g>
	<g id="POLYLINE_53324_">
		<line class="st5" x1="145" y1="95.8" x2="145" y2="85.6"/>
	</g>
	<g id="POLYLINE_53323_">
		<line class="st5" x1="158" y1="99.4" x2="146.6" y2="99.4"/>
	</g>
	<g id="POLYLINE_53322_">
		<line class="st5" x1="155.4" y1="173.2" x2="144" y2="173.2"/>
	</g>
	<g id="POLYLINE_53321_">
		<line class="st5" x1="144" y1="179" x2="155.4" y2="179"/>
	</g>
	<g id="POLYLINE_53320_">
		<line class="st5" x1="117.2" y1="173.2" x2="106" y2="173.2"/>
	</g>
	<g id="POLYLINE_53319_">
		<line class="st5" x1="106" y1="179" x2="117.2" y2="179"/>
	</g>
	<g id="POLYLINE_53318_">
		<line class="st5" x1="80.4" y1="179" x2="69" y2="179"/>
	</g>
	<g id="POLYLINE_53317_">
		<line class="st5" x1="69" y1="173.2" x2="80.4" y2="173.2"/>
	</g>
	<g id="POLYLINE_53316_">
		<line class="st5" x1="33" y1="173.2" x2="44.4" y2="173.2"/>
	</g>
	<g id="POLYLINE_53315_">
		<line class="st5" x1="44.4" y1="179" x2="33" y2="179"/>
	</g>
	<g id="POLYLINE_53314_">
		<line class="st5" x1="75.6" y1="123.2" x2="67.6" y2="123.2"/>
	</g>
	<g id="ARC_4385_">
		<path class="st5" d="M67.6,123.2c0,4.4,3.6,8,8,8"/>
	</g>
	<g id="POLYLINE_53313_">
		<line class="st5" x1="106.6" y1="131" x2="114.6" y2="131"/>
	</g>
	<g id="ARC_4384_">
		<path class="st5" d="M114.6,131c0-4.4-3.6-8-8-8"/>
	</g>
	<g id="POLYLINE_53312_">
		<line class="st5" x1="94" y1="133.2" x2="94" y2="141"/>
	</g>
	<g id="ARC_4383_">
		<path class="st5" d="M86.2,133.2c0,4.4,3.6,8,8,8"/>
	</g>
	<g id="POLYLINE_53311_">
		<line class="st5" x1="67.4" y1="170.8" x2="60.6" y2="170.8"/>
	</g>
	<g id="ARC_4382_">
		<path class="st5" d="M67.4,164c-3.8,0-6.8,3-6.8,6.8"/>
	</g>
	<g id="POLYLINE_53310_">
		<line class="st5" x1="96.8" y1="99" x2="104.8" y2="99"/>
	</g>
	<g id="ARC_4381_">
		<path class="st5" d="M96.8,106.8c4.4,0,8-3.6,8-8"/>
	</g>
	<g id="POLYLINE_53309_">
		<line class="st5" x1="83" y1="115.6" x2="75" y2="115.6"/>
	</g>
	<g id="ARC_4380_">
		<path class="st5" d="M83,107.8c-4.4,0-8,3.6-8,8"/>
	</g>
	<g id="POLYLINE_53308_">
		<line class="st5" x1="68.8" y1="67.4" x2="68.8" y2="58.4"/>
	</g>
	<g id="ARC_4379_">
		<path class="st5" d="M78,67.4c0-5-4-9-9-9"/>
	</g>
	<g id="POLYLINE_53307_">
		<line class="st5" x1="83.2" y1="87" x2="76.4" y2="87"/>
	</g>
	<g id="ARC_4378_">
		<path class="st5" d="M76.4,87c0,3.8,3,6.8,6.8,6.8"/>
	</g>
	<g id="POLYLINE_53306_">
		<line class="st5" x1="64" y1="85.8" x2="64" y2="93.8"/>
	</g>
	<g id="ARC_4377_">
		<path class="st5" d="M56.2,85.8c0,4.4,3.6,8,8,8"/>
	</g>
	<g id="POLYLINE_53305_">
		<line class="st5" x1="94" y1="85.8" x2="94" y2="93.8"/>
	</g>
	<g id="ARC_4376_">
		<path class="st5" d="M86.2,85.8c0,4.4,3.6,8,8,8"/>
	</g>
	<g id="POLYLINE_53304_">
		<line class="st5" x1="118.4" y1="81.6" x2="127.6" y2="81.6"/>
	</g>
	<g id="ARC_4375_">
		<path class="st5" d="M127.6,81.6c0-5-4-9-9-9"/>
	</g>
	<g id="POLYLINE_53303_">
		<line class="st5" x1="62.2" y1="67.4" x2="62.2" y2="58.4"/>
	</g>
	<g id="ARC_4374_">
		<path class="st5" d="M62.2,58.4c-5,0-9,4-9,9"/>
	</g>
	<g id="POLYLINE_53302_">
		<line class="st5" x1="162.8" y1="118.6" x2="168.2" y2="118.6"/>
	</g>
	<g id="POLYLINE_53301_">
		<line class="st5" x1="49.4" y1="86.6" x2="16.6" y2="86.6"/>
	</g>
	<g id="POLYLINE_53300_">
		<line class="st5" x1="49.4" y1="117.6" x2="16.6" y2="117.6"/>
	</g>
	<g id="POLYLINE_53299_">
		<rect x="32.2" y="86.6" class="st5" width="1.6" height="31"/>
	</g>
	<g id="POLYLINE_53298_">
		<line class="st5" x1="49.4" y1="89.4" x2="33.8" y2="89.4"/>
	</g>
	<g id="POLYLINE_53297_">
		<line class="st5" x1="32.2" y1="89.4" x2="16.6" y2="89.4"/>
	</g>
	<g id="POLYLINE_53296_">
		<line class="st5" x1="49.4" y1="92.2" x2="33.8" y2="92.2"/>
	</g>
	<g id="POLYLINE_53295_">
		<line class="st5" x1="32.2" y1="92.2" x2="16.6" y2="92.2"/>
	</g>
	<g id="POLYLINE_53294_">
		<line class="st5" x1="49.4" y1="95" x2="33.8" y2="95"/>
	</g>
	<g id="POLYLINE_53293_">
		<line class="st5" x1="32.2" y1="95" x2="16.6" y2="95"/>
	</g>
	<g id="POLYLINE_53292_">
		<line class="st5" x1="49.4" y1="97.8" x2="33.8" y2="97.8"/>
	</g>
	<g id="POLYLINE_53291_">
		<line class="st5" x1="32.2" y1="97.8" x2="16.6" y2="97.8"/>
	</g>
	<g id="POLYLINE_53290_">
		<line class="st5" x1="32.2" y1="100.6" x2="16.6" y2="100.6"/>
	</g>
	<g id="POLYLINE_53289_">
		<line class="st5" x1="32.2" y1="103.4" x2="16.6" y2="103.4"/>
	</g>
	<g id="POLYLINE_53288_">
		<line class="st5" x1="32.2" y1="106.4" x2="16.6" y2="106.4"/>
	</g>
	<g id="POLYLINE_53287_">
		<line class="st5" x1="49.4" y1="109.2" x2="33.8" y2="109.2"/>
	</g>
	<g id="POLYLINE_53286_">
		<line class="st5" x1="32.2" y1="109.2" x2="16.6" y2="109.2"/>
	</g>
	<g id="POLYLINE_53285_">
		<line class="st5" x1="49.4" y1="112" x2="33.8" y2="112"/>
	</g>
	<g id="POLYLINE_53284_">
		<line class="st5" x1="32.2" y1="112" x2="16.6" y2="112"/>
	</g>
	<g id="POLYLINE_53283_">
		<line class="st5" x1="49.4" y1="114.8" x2="33.8" y2="114.8"/>
	</g>
	<g id="POLYLINE_53282_">
		<line class="st5" x1="32.2" y1="114.8" x2="16.6" y2="114.8"/>
	</g>
	<g id="POLYLINE_53281_">
		<line class="st5" x1="49.4" y1="115.6" x2="49.4" y2="108.8"/>
	</g>
	<g id="POLYLINE_53280_">
		<line class="st5" x1="49.4" y1="129.6" x2="49.4" y2="122.8"/>
	</g>
	<g id="CIRCLE_1661_">
		<path class="st5" d="M85.4,159c0-0.2,0.2-0.4,0.4-0.4s0.4,0.2,0.4,0.4s-0.2,0.4-0.4,0.4S85.4,159.2,85.4,159L85.4,159z"/>
	</g>
	<g id="POLYLINE_53279_">
		<line class="st5" x1="84.8" y1="158" x2="82.8" y2="156"/>
	</g>
	<g id="POLYLINE_53278_">
		<line class="st5" x1="84.8" y1="160" x2="82.8" y2="162"/>
	</g>
	<g id="POLYLINE_53277_">
		<line class="st5" x1="84.4" y1="159" x2="81.4" y2="159"/>
	</g>
	<g id="POLYLINE_53276_">
		<line class="st5" x1="49.4" y1="106.4" x2="33.8" y2="106.4"/>
	</g>
	<g id="POLYLINE_53275_">
		<line class="st5" x1="49.4" y1="103.4" x2="37.8" y2="103.4"/>
	</g>
	<g id="POLYLINE_53274_">
		<line class="st5" x1="41.6" y1="100.6" x2="33.8" y2="100.6"/>
	</g>
</g>
<g id="PLAN_x24_CLOISON_TRANSLUCIDE">
</g>
<g id="PLAN_x24_CLOISON_1.3">
	<g id="POLYLINE_53472_">
		<rect x="82.4" y="163.2" class="st6" width="4.6" height="0.6"/>
	</g>
	<g id="POLYLINE_53471_">
		<rect x="76.2" y="154.2" class="st6" width="0.6" height="9.6"/>
	</g>
	<g id="POLYLINE_53470_">
		<rect x="77.8" y="148.2" class="st6" width="0.6" height="4.6"/>
	</g>
	<g id="POLYLINE_53469_">
		<rect x="68.8" y="140.6" class="st6" width="9.6" height="0.6"/>
	</g>
</g>
<g id="PLAN_x24_CLOISON_1.2">
	<g id="POLYLINE_53506_">
		<polygon class="st7" points="83.6,115.6 82.4,115.6 82.2,118.6 83.6,118.6 		"/>
	</g>
	<g id="POLYLINE_53505_">
		<polygon class="st7" points="73.2,101.4 65.8,101.4 65.8,86.4 66.4,86.4 66.4,85 64,85 64,86.4 64.6,86.4 64.6,102 52.4,102 
			52.4,103.4 82.4,103.4 82.4,107.8 83.8,107.8 83.8,93.8 82.6,93.8 82.4,101.4 74.4,101.4 74.4,86.4 82.6,86.4 82.6,87 84,87 
			84,86.4 86.2,86.4 86.2,85 73.2,85 73.2,86.4 		"/>
	</g>
	<g id="POLYLINE_53504_">
		<rect x="66" y="16.6" class="st7" width="1.4" height="17.6"/>
	</g>
	<g id="POLYLINE_53503_">
		<rect x="66" y="47.6" class="st7" width="1.4" height="16.8"/>
	</g>
	<g id="POLYLINE_53502_">
		<rect x="117.8" y="70.2" class="st7" width="1.4" height="2.2"/>
	</g>
	<g id="POLYLINE_53501_">
		<rect x="52.4" y="85" class="st7" width="3.8" height="1.4"/>
	</g>
	<g id="POLYLINE_53500_">
		<polyline class="st7" points="74.8,122 74.8,123.2 76.2,123.2 76.2,122 		"/>
	</g>
	<g id="POLYLINE_53499_">
		<rect x="105.2" y="122" class="st7" width="1.4" height="1.2"/>
	</g>
	<g id="POLYLINE_53498_">
		<line class="st7" x1="66" y1="170.8" x2="67.4" y2="170.8"/>
	</g>
	<g id="POLYLINE_53497_">
		<polygon class="st7" points="68.8,154.2 87,154.2 87,173.2 88.4,173.2 88.4,154.2 92.4,154.2 92.4,152.8 92.4,143 91,143 
			91,152.8 68.8,152.8 68.8,134 86.2,134 86.2,132.6 76.2,132.6 76.2,131 74.8,131 74.8,132.6 67.4,132.6 67.4,164 68.8,164 		"/>
	</g>
	<g id="POLYLINE_53496_">
		<polygon class="st7" points="106.6,132.6 106.6,131 105.2,131 105.2,132.6 94,132.6 94,134 129.2,134 129.2,173.2 130.6,173.2 
			130.6,132.6 		"/>
	</g>
	<g id="POLYLINE_53495_">
		<polygon class="st7" points="117.8,82.2 96.2,82.2 96.2,85 94,85 94,86.4 96.2,86.4 96.2,99 97.4,99 97.4,83.6 142,83.6 142,82.2 
			119.2,82.2 119.2,81.6 117.8,81.6 		"/>
	</g>
	<g id="POLYLINE_53494_">
		<rect x="96.2" y="106.8" class="st7" width="1.4" height="11.8"/>
	</g>
	<g id="POLYLINE_53493_">
		<rect x="163.4" y="132.4" class="st7" width="5.4" height="1.4"/>
	</g>
	<g id="POLYLINE_53492_">
		<rect x="48.8" y="16.6" class="st7" width="1.4" height="10.8"/>
	</g>
	<g id="POLYLINE_53491_">
		<polygon class="st7" points="143.4,124 143.4,133.8 156.6,133.8 156.6,132.4 144.6,132.4 144.6,124 		"/>
	</g>
	<g id="POLYLINE_53490_">
		<polygon class="st7" points="133.4,64.6 133.4,52 157,52 157,53.4 134.8,53.4 134.8,64.6 		"/>
	</g>
	<g id="POLYLINE_53489_">
		<rect x="121.4" y="16.6" class="st7" width="1.4" height="48"/>
	</g>
	<g id="POLYLINE_53488_">
		<rect x="16.6" y="32.6" class="st7" width="18.4" height="1.4"/>
	</g>
</g>
<g id="PLAN_x24_CLOISON_1.1">
</g>
<g id="PLAN_x24_STRUCTURE_2.3">
</g>
<g id="PLAN_x24_STRUCTURE_2.2">
</g>
<g id="PLAN_x24_STRUCTURE_2.1">
</g>
<g id="PLAN_x24_STRUCTURE_1.3">
	<g id="POLYLINE_52284_">
		<polygon class="st8" points="168.2,122 168.8,122 168.8,173.2 155.4,173.2 155.4,179 174.4,179 174.4,11 155,11 155,16.6 
			168.8,16.6 168.8,34.6 172.6,34.6 172.6,48.2 168.8,48.2 168.8,64.6 133.4,64.6 133.4,70.2 142,70.2 142,72 145,72 145,70.2 
			168.8,70.2 168.8,118.6 168.2,118.6 		"/>
	</g>
	<g id="POLYLINE_52283_">
		<rect x="48.8" y="11" class="st8" width="33.6" height="5.6"/>
	</g>
	<g id="POLYLINE_52282_">
		<rect x="106.2" y="11" class="st8" width="35.2" height="5.6"/>
	</g>
	<g id="POLYLINE_52281_">
		<rect x="62.2" y="64.6" class="st8" width="6.8" height="5.6"/>
	</g>
	<g id="POLYLINE_52280_">
		<rect x="49.4" y="85" class="st8" width="2.8" height="10.2"/>
	</g>
	<g id="POLYLINE_52279_">
		<rect x="49.4" y="101" class="st8" width="2.8" height="7.8"/>
	</g>
	<g id="POLYLINE_52278_">
		<rect x="117.2" y="173.2" class="st8" width="26.8" height="5.6"/>
	</g>
	<g id="POLYLINE_52277_">
		<polygon class="st8" points="80.4,173.2 80.4,179 106,179 106,173.2 102,173.2 102,177.4 89.6,177.4 89.6,173.2 		"/>
	</g>
	<g id="POLYLINE_52276_">
		<polygon class="st8" points="44.4,173.2 44.4,179 69,179 69,173.2 67.4,173.2 67.4,170.8 65.2,170.8 65.2,173.2 		"/>
	</g>
	<g id="POLYLINE_52275_">
		<polygon class="st8" points="78,64.6 88.4,64.6 88.4,68.4 101.8,68.4 101.8,64.6 124.4,64.6 124.4,70.2 78,70.2 		"/>
	</g>
	<g id="POLYLINE_52274_">
		<polygon class="st8" points="158,102.8 158,99.4 162.4,99.4 162.4,118.6 162.8,118.6 162.8,122 162.4,122 162.4,124 143.4,124 
			143.4,122 96.2,122 96.2,118.6 142,118.6 142,117 145,117 145,118.6 159,118.6 159,102.8 		"/>
	</g>
	<g id="POLYLINE_52273_">
		<polygon class="st8" points="146.6,99.4 146.6,102.8 145,102.8 145,109 142,109 142,95.8 145,95.8 145,99.4 		"/>
	</g>
	<g id="POLYLINE_52272_">
		<polygon class="st8" points="36.4,64.6 36.4,67.2 18.2,67.2 18.2,64.6 16.6,64.6 16.6,47.6 13.2,47.6 13.2,34 16.6,34 16.6,16.6 
			35.2,16.6 35.2,11 10.8,11 10.8,179 33,179 33,173.2 16.6,173.2 16.6,133.6 52.4,133.6 52.4,129.6 49.4,129.6 49.4,130.8 
			16.6,130.8 16.6,70.2 49.4,70.2 49.4,76 52.4,76 52.4,70.2 53,70.2 53,64.6 		"/>
	</g>
	<g id="POLYLINE_52271_">
		<rect x="142" y="82.2" class="st8" width="2.8" height="3.4"/>
	</g>
	<g id="POLYLINE_52270_">
		<polyline class="st8" points="74.8,122 52.4,122 52.4,122.8 49.4,122.8 49.4,115.6 52.4,115.6 52.4,118.6 83.6,118.6 83.6,122 
			76.2,122 		"/>
	</g>
</g>
<g id="PLAN_x24_STRUCTURE_1.2">
</g>
<g id="PLAN_x24_STRUCTURE_1.1">
</g>
</svg>
