<?xml version="1.0" encoding="utf-8"?>
<!-- Generator: Adobe Illustrator 22.0.1, SVG Export Plug-In . SVG Version: 6.00 Build 0)  -->
<svg version="1.1" id="Calque_1" xmlns="http://www.w3.org/2000/svg" xmlns:xlink="http://www.w3.org/1999/xlink" x="0px" y="0px"
	 viewBox="0 0 83.9 86" style="enable-background:new 0 0 83.9 86;" xml:space="preserve">
<style type="text/css">
	.st0{display:none;}
	.st1{display:inline;}
	.st2{fill:none;}
	.st3{fill:none;stroke:#000000;stroke-width:0.1;stroke-linecap:square;stroke-miterlimit:10;stroke-dasharray:0.5,0.5;}
	.st4{fill:none;stroke:#000000;stroke-width:5.000000e-02;stroke-linecap:square;stroke-miterlimit:10;}
	.st5{fill:none;stroke:#000000;stroke-width:8.000000e-02;stroke-linecap:square;stroke-miterlimit:10;}
	.st6{fill:none;stroke:#000000;stroke-width:0.14;stroke-linecap:square;stroke-miterlimit:10;}
	.st7{fill:none;stroke:#000000;stroke-width:0.18;stroke-linecap:square;stroke-miterlimit:10;}
	.st8{fill:none;stroke:#000000;stroke-width:0.41;stroke-linecap:square;stroke-miterlimit:10;}
</style>
<g id="Calque_1_1_">
</g>
<g id="INFOS_x24_A4" class="st0">
	<g id="POLYLINE_52265_" class="st1">
		<rect x="-253.9" y="-375.1" class="st2" width="595.3" height="841.9"/>
	</g>
</g>
<g id="PLAN_x24_FOND">
</g>
<g id="PLAN_x24_POINTILLE">
	<g id="POLYLINE_53515_">
		<line class="st3" x1="20.4" y1="44.5" x2="12.6" y2="47.3"/>
	</g>
	<g id="POLYLINE_53514_">
		<line class="st3" x1="20.4" y1="45.3" x2="12.6" y2="48.1"/>
	</g>
</g>
<g id="PLAN_x24_VITRAGE">
	<g id="LINE_6720_">
		<line class="st4" x1="21.6" y1="60.4" x2="21.6" y2="57"/>
	</g>
	<g id="LINE_6719_">
		<line class="st4" x1="21.6" y1="53.4" x2="21.6" y2="50"/>
	</g>
	<g id="LINE_6718_">
		<line class="st4" x1="21.6" y1="46.1" x2="21.6" y2="43.3"/>
	</g>
	<g id="POLYLINE_52310_">
		<line class="st4" x1="17.9" y1="83.1" x2="12.2" y2="83.1"/>
	</g>
	<g id="POLYLINE_52309_">
		<line class="st4" x1="35.9" y1="83.1" x2="30.2" y2="83.1"/>
	</g>
	<g id="POLYLINE_52308_">
		<line class="st4" x1="54.3" y1="83.1" x2="48.7" y2="83.1"/>
	</g>
	<g id="POLYLINE_52307_">
		<line class="st4" x1="73.4" y1="83.1" x2="67.7" y2="83.1"/>
	</g>
	<g id="LINE_6717_">
		<line class="st4" x1="67" y1="38.4" x2="67" y2="43.5"/>
	</g>
	<g id="LINE_6716_">
		<line class="st4" x1="67" y1="31.6" x2="67" y2="36.7"/>
	</g>
	<g id="LINE_6715_">
		<line class="st4" x1="74.7" y1="46.4" x2="69" y2="46.4"/>
	</g>
	<g id="LINE_6658_">
		<line class="st4" x1="79.8" y1="56.3" x2="77.1" y2="56.3"/>
	</g>
	<g id="POLYLINE_52306_">
		<line class="st4" x1="66.4" y1="3" x2="73.2" y2="3"/>
	</g>
	<g id="POLYLINE_52305_">
		<line class="st4" x1="36.9" y1="3" x2="48.8" y2="3"/>
	</g>
	<g id="POLYLINE_52304_">
		<line class="st4" x1="13.3" y1="3" x2="20.1" y2="3"/>
	</g>
</g>
<g id="PLAN_x24_MOBILIER">
	<g id="POLYLINE_53271_">
		<rect x="8.5" y="73.5" transform="matrix(0.3036 -0.9528 0.9528 0.3036 -64.514 61.6465)" class="st5" width="2.8" height="2.8"/>
	</g>
	<g id="POLYLINE_53270_">
		<rect x="9.3" y="67.6" transform="matrix(0.7574 -0.653 0.653 0.7574 -42.482 23.7333)" class="st5" width="2.8" height="2.8"/>
	</g>
	<g id="CIRCLE_1660_">
		<path class="st5" d="M7,71.7c0-0.7,0.6-1.3,1.3-1.3s1.3,0.6,1.3,1.3S9,72.9,8.3,72.9S7,72.4,7,71.7L7,71.7z"/>
	</g>
	<g id="POLYLINE_53269_">
		<rect x="24.3" y="58.2" class="st5" width="1.7" height="2.3"/>
	</g>
	<g id="POLYLINE_53268_">
		<rect x="21.9" y="56.6" class="st5" width="2.4" height="5.6"/>
	</g>
	<g id="POLYLINE_53267_">
		<rect x="48" y="51.1" class="st5" width="2.3" height="1.7"/>
	</g>
	<g id="POLYLINE_53266_">
		<line class="st5" x1="46.4" y1="52.8" x2="46.4" y2="54.9"/>
	</g>
	<g id="POLYLINE_53265_">
		<line class="st5" x1="52" y1="52.8" x2="52" y2="54.9"/>
	</g>
	<g id="POLYLINE_53264_">
		<line class="st5" x1="57.8" y1="52.8" x2="57.8" y2="54.9"/>
	</g>
	<g id="POLYLINE_53263_">
		<line class="st5" x1="66.7" y1="54.1" x2="62.8" y2="52.8"/>
	</g>
	<g id="POLYLINE_53262_">
		<rect x="44.4" y="52.8" class="st5" width="18.3" height="2.1"/>
	</g>
	<g id="CIRCLE_1659_">
		<path class="st5" d="M64,48.2c0-0.7,0.6-1.3,1.3-1.3s1.3,0.6,1.3,1.3s-0.6,1.3-1.3,1.3S64,48.9,64,48.2L64,48.2z"/>
	</g>
	<g id="POLYLINE_53261_">
		<rect x="63.2" y="43.3" transform="matrix(0.5544 -0.8322 0.8322 0.5544 -8.392 73.6943)" class="st5" width="2.8" height="2.8"/>
	</g>
	<g id="POLYLINE_53260_">
		<rect x="62.6" y="32.8" class="st5" width="1.7" height="2.3"/>
	</g>
	<g id="POLYLINE_53259_">
		<rect x="64.3" y="31.2" class="st5" width="2.4" height="5.6"/>
	</g>
	<g id="POLYLINE_53258_">
		<rect x="44.4" y="37.4" class="st5" width="2.1" height="7.6"/>
	</g>
	<g id="POLYLINE_53257_">
		<rect x="49.6" y="37.4" class="st5" width="11.1" height="1.1"/>
	</g>
	<g id="POLYLINE_53256_">
		<rect x="51.3" y="38.5" class="st5" width="7.9" height="10.2"/>
	</g>
	<g id="POLYLINE_53255_">
		<line class="st5" x1="59.2" y1="40.6" x2="51.3" y2="40.6"/>
	</g>
	<g id="POLYLINE_53254_">
		<rect x="56.2" y="38.9" class="st5" width="2.3" height="1.4"/>
	</g>
	<g id="POLYLINE_53253_">
		<rect x="52.2" y="38.9" class="st5" width="2.3" height="1.4"/>
	</g>
	<g id="POLYLINE_53252_">
		<line class="st5" x1="59.2" y1="40.6" x2="51.3" y2="43.6"/>
	</g>
	<g id="POLYLINE_53251_">
		<rect x="64" y="10.4" class="st5" width="7.9" height="10.2"/>
	</g>
	<g id="POLYLINE_53250_">
		<line class="st5" x1="64" y1="18.4" x2="72" y2="18.4"/>
	</g>
	<g id="POLYLINE_53249_">
		<rect x="64.8" y="18.7" class="st5" width="2.3" height="1.4"/>
	</g>
	<g id="POLYLINE_53248_">
		<rect x="68.8" y="18.7" class="st5" width="2.3" height="1.4"/>
	</g>
	<g id="POLYLINE_53247_">
		<line class="st5" x1="64" y1="18.4" x2="72" y2="15.5"/>
	</g>
	<g id="POLYLINE_53246_">
		<rect x="62.5" y="20.6" class="st5" width="11.1" height="1.1"/>
	</g>
	<g id="POLYLINE_53245_">
		<rect x="67.3" y="26.3" class="st5" width="6.8" height="1.6"/>
	</g>
	<g id="POLYLINE_53244_">
		<rect x="74.1" y="25.6" class="st5" width="6" height="2.3"/>
	</g>
	<g id="POLYLINE_53243_">
		<rect x="77" y="7.7" transform="matrix(0.2108 -0.9775 0.9775 0.2108 52.9531 83.8846)" class="st5" width="2.8" height="2.8"/>
	</g>
	<g id="CIRCLE_1658_">
		<path class="st5" d="M74.3,8.5c0-0.7,0.6-1.3,1.3-1.3s1.3,0.6,1.3,1.3s-0.6,1.3-1.3,1.3S74.3,9.2,74.3,8.5L74.3,8.5z"/>
	</g>
	<g id="POLYLINE_53242_">
		<rect x="74.6" y="4.2" transform="matrix(0.2108 -0.9775 0.9775 0.2108 54.4909 78.7521)" class="st5" width="2.8" height="2.8"/>
	</g>
	<g id="POLYLINE_53241_">
		<rect x="57.1" y="3.9" class="st5" width="8.7" height="2.4"/>
	</g>
	<g id="POLYLINE_53240_">
		<rect x="46.6" y="26.4" class="st5" width="6.8" height="1.5"/>
	</g>
	<g id="POLYLINE_53239_">
		<rect x="36.4" y="26.4" class="st5" width="3.5" height="1.5"/>
	</g>
	<g id="POLYLINE_53238_">
		<line class="st5" x1="53.4" y1="6.6" x2="56.4" y2="6.6"/>
	</g>
	<g id="POLYLINE_53237_">
		<line class="st5" x1="53.4" y1="9.5" x2="56.4" y2="9.5"/>
	</g>
	<g id="POLYLINE_53236_">
		<line class="st5" x1="53.4" y1="13.1" x2="56.4" y2="13.1"/>
	</g>
	<g id="POLYLINE_53235_">
		<line class="st5" x1="53.4" y1="17.6" x2="56.4" y2="17.6"/>
	</g>
	<g id="POLYLINE_53234_">
		<line class="st5" x1="53.4" y1="20.6" x2="56.4" y2="20.6"/>
	</g>
	<g id="POLYLINE_53233_">
		<line class="st5" x1="53.4" y1="3.9" x2="53.4" y2="27.9"/>
	</g>
	<g id="POLYLINE_53232_">
		<rect x="36.8" y="18.8" class="st5" width="1.7" height="2.3"/>
	</g>
	<g id="POLYLINE_53231_">
		<rect x="36.8" y="16" class="st5" width="1.7" height="2.3"/>
	</g>
	<g id="POLYLINE_53230_">
		<rect x="36.8" y="12.8" class="st5" width="1.7" height="2.3"/>
	</g>
	<g id="POLYLINE_53229_">
		<rect x="36.8" y="9.8" class="st5" width="1.7" height="2.3"/>
	</g>
	<g id="POLYLINE_53228_">
		<rect x="45.4" y="9.6" class="st5" width="2.5" height="11.8"/>
	</g>
	<g id="POLYLINE_53227_">
		<rect x="42.9" y="9.6" class="st5" width="2.5" height="11.8"/>
	</g>
	<g id="POLYLINE_53226_">
		<rect x="38.5" y="9.6" class="st5" width="3.8" height="11.8"/>
	</g>
	<g id="POLYLINE_53225_">
		<line class="st5" x1="19.1" y1="23.4" x2="19.1" y2="17"/>
	</g>
	<g id="POLYLINE_53224_">
		<line class="st5" x1="19.1" y1="20.2" x2="15.4" y2="20.2"/>
	</g>
	<g id="POLYLINE_53223_">
		<line class="st5" x1="15.4" y1="17" x2="20.2" y2="17"/>
	</g>
	<g id="POLYLINE_53222_">
		<line class="st5" x1="20.2" y1="23.4" x2="15.4" y2="23.4"/>
	</g>
	<g id="POLYLINE_53221_">
		<rect x="15.4" y="15.8" class="st5" width="4.8" height="8.7"/>
	</g>
	<g id="POLYLINE_53220_">
		
			<rect x="5.8" y="16.7" transform="matrix(2.219897e-02 -0.9998 0.9998 2.219897e-02 -11.05 24.9884)" class="st5" width="2.8" height="2.8"/>
	</g>
	<g id="POLYLINE_53219_">
		<rect x="5.4" y="21.5" transform="matrix(0.9438 -0.3304 0.3304 0.9438 -7.1825 3.5434)" class="st5" width="2.8" height="2.8"/>
	</g>
	<g id="POLYLINE_53218_">
		<rect x="10.1" y="16.5" class="st5" width="3.7" height="7.3"/>
	</g>
	<g id="POLYLINE_53217_">
		<rect x="4" y="9.2" class="st5" width="8.7" height="2.6"/>
	</g>
	<g id="POLYLINE_53216_">
		<rect x="4" y="3.9" class="st5" width="8.7" height="2.6"/>
	</g>
	<g id="POLYLINE_53215_">
		<rect x="20.8" y="3.9" class="st5" width="7.9" height="5.4"/>
	</g>
	<g id="SPLINE_1489_">
		<path class="st5" d="M31,74.2c-0.1,0.2-0.1,0.5-0.1,0.7c0,0.2,0,0.4,0,0.5c0,0.2,0,0.5,0.1,0.7c0,0.1,0.1,0.2,0.2,0.3
			c0.2,0.1,0.4,0.2,0.6,0.2c0.1,0,0.2,0,0.3,0c0.2,0,0.3-0.1,0.4-0.2c0.2-0.2,0.3-0.4,0.3-0.7c0-0.3,0.1-0.5,0-0.8
			c0-0.2,0-0.4-0.1-0.5c0-0.1,0-0.2-0.1-0.3"/>
	</g>
	<g id="POLYLINE_53214_">
		<rect x="30.4" y="72.7" class="st5" width="3" height="1.5"/>
	</g>
	<g id="SPLINE_1488_">
		<path class="st5" d="M31.6,65.1c0.2,0.1,0.5,0.1,0.7,0.1c0.2,0,0.4,0,0.5,0c0.2,0,0.5,0,0.7-0.1c0.1,0,0.2-0.1,0.3-0.2
			c0.1-0.2,0.2-0.4,0.2-0.6c0-0.1,0-0.2,0-0.3c0-0.2-0.1-0.3-0.2-0.4c-0.2-0.2-0.4-0.3-0.7-0.3c-0.3,0-0.5-0.1-0.8,0
			c-0.2,0-0.4,0-0.5,0.1c-0.1,0-0.2,0-0.3,0.1"/>
	</g>
	<g id="POLYLINE_53213_">
		<rect x="30.1" y="62.7" class="st5" width="1.5" height="3"/>
	</g>
	<g id="SPLINE_1487_">
		<path class="st5" d="M77.6,58.1c-0.1,0.2-0.1,0.5-0.1,0.7c0,0.2,0,0.4,0,0.5c0,0.2,0,0.5,0.1,0.7c0,0.1,0.1,0.2,0.2,0.3
			c0.2,0.1,0.4,0.2,0.6,0.2c0.1,0,0.2,0,0.3,0c0.2,0,0.3-0.1,0.4-0.2c0.2-0.2,0.3-0.4,0.3-0.7c0-0.3,0.1-0.5,0-0.8
			c0-0.2,0-0.4-0.1-0.5c0-0.1,0-0.2-0.1-0.3"/>
	</g>
	<g id="POLYLINE_53212_">
		<rect x="77" y="56.6" class="st5" width="3" height="1.5"/>
	</g>
	<g id="SPLINE_1486_">
		<path class="st5" d="M35.8,44.8c0.1-0.2,0.1-0.5,0.1-0.7c0-0.2,0-0.4,0-0.5c0-0.2,0-0.5-0.1-0.7c0-0.1-0.1-0.2-0.2-0.3
			c-0.2-0.1-0.4-0.2-0.6-0.2c-0.1,0-0.2,0-0.3,0c-0.2,0-0.3,0.1-0.4,0.2c-0.2,0.2-0.3,0.4-0.3,0.7c0,0.3-0.1,0.5,0,0.8
			c0,0.2,0,0.4,0.1,0.5c0,0.1,0,0.2,0.1,0.3"/>
	</g>
	<g id="POLYLINE_53211_">
		<rect x="33.4" y="44.8" class="st5" width="3" height="1.5"/>
	</g>
	<g id="SPLINE_1485_">
		<path class="st5" d="M31.4,44.8c0.1-0.2,0.1-0.5,0.1-0.7c0-0.2,0-0.4,0-0.5c0-0.2,0-0.5-0.1-0.7c0-0.1-0.1-0.2-0.2-0.3
			c-0.2-0.1-0.4-0.2-0.6-0.2c-0.1,0-0.2,0-0.3,0c-0.2,0-0.3,0.1-0.4,0.2c-0.2,0.2-0.3,0.4-0.3,0.7c0,0.3-0.1,0.5,0,0.8
			c0,0.2,0,0.4,0.1,0.5c0,0.1,0,0.2,0.1,0.3"/>
	</g>
	<g id="POLYLINE_53210_">
		<rect x="29" y="44.8" class="st5" width="3" height="1.5"/>
	</g>
	<g id="POLYLINE_53209_">
		<rect x="17.9" y="68.1" class="st5" width="10.2" height="7.9"/>
	</g>
	<g id="POLYLINE_53208_">
		<line class="st5" x1="25.9" y1="76" x2="25.9" y2="68.1"/>
	</g>
	<g id="POLYLINE_53207_">
		<rect x="26.2" y="73" class="st5" width="1.4" height="2.3"/>
	</g>
	<g id="POLYLINE_53206_">
		<rect x="26.2" y="69" class="st5" width="1.4" height="2.3"/>
	</g>
	<g id="POLYLINE_53205_">
		<line class="st5" x1="25.9" y1="76" x2="23" y2="68.1"/>
	</g>
	<g id="POLYLINE_53204_">
		<rect x="28.1" y="61.9" class="st5" width="1.3" height="4.6"/>
	</g>
	<g id="POLYLINE_53203_">
		<rect x="28.1" y="66.5" class="st5" width="1.3" height="11.1"/>
	</g>
	<g id="POLYLINE_53202_">
		<rect x="36.9" y="77.5" class="st5" width="2.3" height="4.8"/>
	</g>
	<g id="POLYLINE_53201_">
		<rect x="38.9" y="67.1" class="st5" width="2.4" height="5"/>
	</g>
	<g id="POLYLINE_53200_">
		<rect x="39.9" y="72.7" class="st5" width="2" height="7.2"/>
	</g>
	<g id="POLYLINE_53199_">
		<rect x="62.1" y="70.4" class="st5" width="10.2" height="7.9"/>
	</g>
	<g id="POLYLINE_53198_">
		<line class="st5" x1="64.2" y1="70.4" x2="64.2" y2="78.3"/>
	</g>
	<g id="POLYLINE_53197_">
		<rect x="62.5" y="71.1" class="st5" width="1.4" height="2.3"/>
	</g>
	<g id="POLYLINE_53196_">
		<rect x="62.5" y="75.2" class="st5" width="1.4" height="2.3"/>
	</g>
	<g id="POLYLINE_53195_">
		<line class="st5" x1="64.2" y1="70.4" x2="67.2" y2="78.3"/>
	</g>
	<g id="POLYLINE_53194_">
		<rect x="61" y="68.8" class="st5" width="1.1" height="11.1"/>
	</g>
	<g id="POLYLINE_53193_">
		<rect x="59.3" y="68.8" class="st5" width="1.1" height="11.1"/>
	</g>
	<g id="POLYLINE_53192_">
		<rect x="49.1" y="70.4" class="st5" width="10.2" height="7.9"/>
	</g>
	<g id="POLYLINE_53191_">
		<line class="st5" x1="57.1" y1="70.4" x2="57.1" y2="78.3"/>
	</g>
	<g id="POLYLINE_53190_">
		<rect x="57.4" y="71.1" class="st5" width="1.4" height="2.3"/>
	</g>
	<g id="POLYLINE_53189_">
		<rect x="57.4" y="75.2" class="st5" width="1.4" height="2.3"/>
	</g>
	<g id="POLYLINE_53188_">
		<line class="st5" x1="57.1" y1="70.4" x2="54.2" y2="78.3"/>
	</g>
	<g id="POLYLINE_53187_">
		<rect x="54.7" y="62.6" class="st5" width="5.7" height="2.4"/>
	</g>
	<g id="POLYLINE_53186_">
		<rect x="49" y="62.6" class="st5" width="5.7" height="2.4"/>
	</g>
	<g id="POLYLINE_53185_">
		<rect x="64.8" y="56.6" class="st5" width="2.6" height="5"/>
	</g>
	<g id="POLYLINE_53184_">
		<rect x="64.8" y="61.6" class="st5" width="2.6" height="3.1"/>
	</g>
	<g id="POLYLINE_53183_">
		<rect x="67.4" y="62.5" class="st5" width="5.6" height="2.2"/>
	</g>
	<g id="POLYLINE_53182_">
		<rect x="68.6" y="64.6" class="st5" width="2.3" height="1.7"/>
	</g>
	<g id="POLYLINE_53181_">
		<rect x="4.5" y="4.3" class="st5" width="1.6" height="1.2"/>
	</g>
	<g id="POLYLINE_53180_">
		<rect x="7.7" y="4.3" class="st5" width="1.6" height="1.2"/>
	</g>
	<g id="POLYLINE_53179_">
		<rect x="10.5" y="4.3" class="st5" width="1.6" height="1.2"/>
	</g>
	<g id="POLYLINE_53178_">
		<rect x="10.5" y="10.1" class="st5" width="1.6" height="1.2"/>
	</g>
	<g id="POLYLINE_53177_">
		<rect x="7.5" y="10.1" class="st5" width="1.6" height="1.2"/>
	</g>
	<g id="POLYLINE_53176_">
		<rect x="4.7" y="10.1" class="st5" width="1.6" height="1.2"/>
	</g>
</g>
<g id="PLAN_x24_DETAIL">
	<g id="POLYLINE_53372_">
		<line class="st5" x1="29.1" y1="12.6" x2="32.5" y2="12.6"/>
	</g>
	<g id="ARC_4391_">
		<path class="st5" d="M29.1,16c1.9,0,3.4-1.5,3.4-3.4"/>
	</g>
	<g id="ARC_4390_">
		<path class="st5" d="M32.5,19.4c0-1.9-1.5-3.4-3.4-3.4"/>
	</g>
	<g id="POLYLINE_53371_">
		<line class="st5" x1="32.5" y1="19.4" x2="29.1" y2="19.4"/>
	</g>
	<g id="ARC_4389_">
		<path class="st5" d="M9.3,27.9c0-1.1-0.4-2.2-1.1-3"/>
	</g>
	<g id="ARC_4388_">
		<path class="st5" d="M10.4,24.9c-0.7,0.8-1.1,1.9-1.1,3"/>
	</g>
	<g id="POLYLINE_53370_">
		<line class="st5" x1="10.4" y1="24.9" x2="13.9" y2="27.9"/>
	</g>
	<g id="POLYLINE_53369_">
		<line class="st5" x1="13.9" y1="27.9" x2="4.8" y2="27.9"/>
	</g>
	<g id="POLYLINE_53368_">
		<line class="st5" x1="4.8" y1="27.9" x2="8.2" y2="24.9"/>
	</g>
	<g id="POLYLINE_53367_">
		<polygon class="st5" points="4,12.6 2.3,14 2.3,16 2.3,17.9 4,19.4 		"/>
	</g>
	<g id="POLYLINE_53366_">
		<polygon class="st5" points="80.3,19.7 82,18.3 82,16.3 82,14.3 80.3,12.9 		"/>
	</g>
	<g id="POLYLINE_53365_">
		<polygon class="st5" points="5.6,68.8 4,70.3 4,72.2 4,74.2 5.6,75.6 		"/>
	</g>
	<g id="POLYLINE_53364_">
		<polygon class="st5" points="78.5,68.8 80.1,70.3 80.1,72.2 80.1,74.2 78.5,75.6 		"/>
	</g>
	<g id="POLYLINE_53363_">
		<polygon class="st5" points="40.5,81.9 41.8,83.5 43.6,83.5 45.4,83.5 46.7,81.9 		"/>
	</g>
	<g id="POLYLINE_53362_">
		<polyline class="st5" points="20.4,43.3 20.4,45.9 18.6,45.9 		"/>
	</g>
	<g id="LINE_6824_">
		<line class="st5" x1="21.9" y1="57" x2="21.9" y2="60.4"/>
	</g>
	<g id="LINE_6823_">
		<line class="st5" x1="21.9" y1="50" x2="21.9" y2="53.4"/>
	</g>
	<g id="LINE_6822_">
		<line class="st5" x1="21.9" y1="43.3" x2="21.9" y2="46.1"/>
	</g>
	<g id="LINE_6821_">
		<line class="st5" x1="66.7" y1="43.5" x2="66.7" y2="38.4"/>
	</g>
	<g id="LINE_6820_">
		<line class="st5" x1="66.7" y1="36.7" x2="66.7" y2="31.6"/>
	</g>
	<g id="LINE_6819_">
		<line class="st5" x1="69" y1="47" x2="74.7" y2="47"/>
	</g>
	<g id="LINE_6818_">
		<line class="st5" x1="77.1" y1="56.6" x2="79.8" y2="56.6"/>
	</g>
	<g id="POLYLINE_53361_">
		<line class="st5" x1="28.9" y1="38.5" x2="28.9" y2="41.9"/>
	</g>
	<g id="ARC_4387_">
		<path class="st5" d="M28.9,41.9c1.9,0,3.4-1.5,3.4-3.4"/>
	</g>
	<g id="POLYLINE_53360_">
		<line class="st5" x1="34.6" y1="69.7" x2="34.6" y2="66.1"/>
	</g>
	<g id="POLYLINE_53359_">
		<line class="st5" x1="36.9" y1="77.2" x2="34.1" y2="77.2"/>
	</g>
	<g id="POLYLINE_53358_">
		<line class="st5" x1="71.7" y1="54.9" x2="71.7" y2="47"/>
	</g>
	<g id="POLYLINE_53357_">
		<line class="st5" x1="73.7" y1="61.8" x2="73.7" y2="57.6"/>
	</g>
	<g id="POLYLINE_53356_">
		<line class="st5" x1="73.9" y1="51.1" x2="72.4" y2="51.1"/>
	</g>
	<g id="POLYLINE_53355_">
		<line class="st5" x1="74.1" y1="51.6" x2="73" y2="52.6"/>
	</g>
	<g id="POLYLINE_53354_">
		<line class="st5" x1="74.1" y1="50.5" x2="73.1" y2="49.5"/>
	</g>
	<g id="CIRCLE_1665_">
		<path class="st5" d="M74.4,51.1c0-0.1,0.1-0.2,0.2-0.2s0.2,0.1,0.2,0.2s-0.1,0.2-0.2,0.2S74.4,51.2,74.4,51.1L74.4,51.1z"/>
	</g>
	<g id="CIRCLE_1664_">
		<path class="st5" d="M69,59.7c0-0.1,0.1-0.2,0.2-0.2s0.2,0.1,0.2,0.2s-0.1,0.2-0.2,0.2S69,59.9,69,59.7L69,59.7z"/>
	</g>
	<g id="POLYLINE_53353_">
		<line class="st5" x1="69.7" y1="60.3" x2="70.7" y2="61.3"/>
	</g>
	<g id="POLYLINE_53352_">
		<line class="st5" x1="69.7" y1="59.2" x2="70.7" y2="58.2"/>
	</g>
	<g id="POLYLINE_53351_">
		<line class="st5" x1="69.9" y1="59.7" x2="71.4" y2="59.7"/>
	</g>
	<g id="CIRCLE_1663_">
		<path class="st5" d="M32.1,71.1c0-0.1,0.1-0.2,0.2-0.2s0.2,0.1,0.2,0.2s-0.1,0.2-0.2,0.2S32.1,71.2,32.1,71.1L32.1,71.1z"/>
	</g>
	<g id="POLYLINE_53350_">
		<line class="st5" x1="32.8" y1="70.6" x2="33.8" y2="69.6"/>
	</g>
	<g id="POLYLINE_53349_">
		<line class="st5" x1="31.7" y1="70.6" x2="30.7" y2="69.5"/>
	</g>
	<g id="POLYLINE_53348_">
		<line class="st5" x1="32.2" y1="70.3" x2="32.2" y2="68.9"/>
	</g>
	<g id="CIRCLE_1662_">
		<path class="st5" d="M65,27.2c0-0.1,0.1-0.2,0.2-0.2s0.2,0.1,0.2,0.2s-0.1,0.2-0.2,0.2S65,27.3,65,27.2L65,27.2z"/>
	</g>
	<g id="POLYLINE_53347_">
		<line class="st5" x1="65.7" y1="26.6" x2="66.7" y2="25.6"/>
	</g>
	<g id="POLYLINE_53346_">
		<line class="st5" x1="64.7" y1="26.6" x2="63.6" y2="25.6"/>
	</g>
	<g id="POLYLINE_53345_">
		<line class="st5" x1="65.2" y1="26.4" x2="65.2" y2="25"/>
	</g>
	<g id="POLYLINE_53344_">
		<line class="st5" x1="67.3" y1="22.3" x2="67.3" y2="27.9"/>
	</g>
	<g id="POLYLINE_53343_">
		<polygon class="st5" points="46.6,27.3 45.2,29 43.3,29 41.3,29 39.9,27.3 		"/>
	</g>
	<g id="POLYLINE_53342_">
		<rect x="39.9" y="26.4" class="st5" width="6.7" height="3.4"/>
	</g>
	<g id="POLYLINE_53341_">
		<rect x="40.5" y="81" class="st5" width="6.2" height="3.4"/>
	</g>
	<g id="POLYLINE_53340_">
		<line class="st5" x1="77.5" y1="76.5" x2="77.5" y2="82.2"/>
	</g>
	<g id="POLYLINE_53339_">
		<line class="st5" x1="77.5" y1="68" x2="77.5" y2="62.4"/>
	</g>
	<g id="POLYLINE_53338_">
		<rect x="77.5" y="68" class="st5" width="2.6" height="8.4"/>
	</g>
	<g id="POLYLINE_53337_">
		<line class="st5" x1="6.6" y1="76.5" x2="6.6" y2="82.2"/>
	</g>
	<g id="POLYLINE_53336_">
		<line class="st5" x1="6.6" y1="68" x2="6.6" y2="62.4"/>
	</g>
	<g id="POLYLINE_53335_">
		<rect x="4" y="68" class="st5" width="2.6" height="8.4"/>
	</g>
	<g id="POLYLINE_53334_">
		<rect x="79.4" y="12.9" class="st5" width="2.6" height="6.8"/>
	</g>
	<g id="POLYLINE_53333_">
		<rect x="2.3" y="12.6" class="st5" width="2.6" height="6.8"/>
	</g>
	<g id="POLYLINE_53332_">
		<line class="st5" x1="21.1" y1="33.6" x2="25.7" y2="33.6"/>
	</g>
	<g id="ARC_4386_">
		<path class="st5" d="M21.1,38.1c2.5,0,4.5-2,4.5-4.5"/>
	</g>
	<g id="POLYLINE_53331_">
		<line class="st5" x1="13.3" y1="3.9" x2="20.1" y2="3.9"/>
	</g>
	<g id="POLYLINE_53330_">
		<line class="st5" x1="20.1" y1="1.1" x2="13.3" y2="1.1"/>
	</g>
	<g id="POLYLINE_53329_">
		<line class="st5" x1="36.9" y1="1.1" x2="48.8" y2="1.1"/>
	</g>
	<g id="POLYLINE_53328_">
		<line class="st5" x1="48.8" y1="3.9" x2="36.9" y2="3.9"/>
	</g>
	<g id="POLYLINE_53327_">
		<line class="st5" x1="73.2" y1="3.9" x2="66.4" y2="3.9"/>
	</g>
	<g id="POLYLINE_53326_">
		<line class="st5" x1="73.2" y1="1.1" x2="66.4" y2="1.1"/>
	</g>
	<g id="POLYLINE_53325_">
		<line class="st5" x1="68.2" y1="36.7" x2="68.2" y2="31.6"/>
	</g>
	<g id="POLYLINE_53324_">
		<line class="st5" x1="68.2" y1="43.5" x2="68.2" y2="38.4"/>
	</g>
	<g id="POLYLINE_53323_">
		<line class="st5" x1="74.7" y1="45.3" x2="69" y2="45.3"/>
	</g>
	<g id="POLYLINE_53322_">
		<line class="st5" x1="73.4" y1="82.2" x2="67.7" y2="82.2"/>
	</g>
	<g id="POLYLINE_53321_">
		<line class="st5" x1="67.7" y1="85.1" x2="73.4" y2="85.1"/>
	</g>
	<g id="POLYLINE_53320_">
		<line class="st5" x1="54.3" y1="82.2" x2="48.7" y2="82.2"/>
	</g>
	<g id="POLYLINE_53319_">
		<line class="st5" x1="48.7" y1="85.1" x2="54.3" y2="85.1"/>
	</g>
	<g id="POLYLINE_53318_">
		<line class="st5" x1="35.9" y1="85.1" x2="30.2" y2="85.1"/>
	</g>
	<g id="POLYLINE_53317_">
		<line class="st5" x1="30.2" y1="82.2" x2="35.9" y2="82.2"/>
	</g>
	<g id="POLYLINE_53316_">
		<line class="st5" x1="12.2" y1="82.2" x2="17.9" y2="82.2"/>
	</g>
	<g id="POLYLINE_53315_">
		<line class="st5" x1="17.9" y1="85.1" x2="12.2" y2="85.1"/>
	</g>
	<g id="POLYLINE_53314_">
		<line class="st5" x1="33.5" y1="57.2" x2="29.5" y2="57.2"/>
	</g>
	<g id="ARC_4385_">
		<path class="st5" d="M29.5,57.2c0,2.2,1.8,4,4,4"/>
	</g>
	<g id="POLYLINE_53313_">
		<line class="st5" x1="49" y1="61.1" x2="53" y2="61.1"/>
	</g>
	<g id="ARC_4384_">
		<path class="st5" d="M53,61.1c0-2.2-1.8-4-4-4"/>
	</g>
	<g id="POLYLINE_53312_">
		<line class="st5" x1="42.7" y1="62.2" x2="42.7" y2="66.1"/>
	</g>
	<g id="ARC_4383_">
		<path class="st5" d="M38.8,62.2c0,2.2,1.8,4,4,4"/>
	</g>
	<g id="POLYLINE_53311_">
		<line class="st5" x1="29.4" y1="81" x2="26" y2="81"/>
	</g>
	<g id="ARC_4382_">
		<path class="st5" d="M29.4,77.6c-1.9,0-3.4,1.5-3.4,3.4"/>
	</g>
	<g id="POLYLINE_53310_">
		<line class="st5" x1="44.1" y1="45.1" x2="48.1" y2="45.1"/>
	</g>
	<g id="ARC_4381_">
		<path class="st5" d="M44.1,49c2.2,0,4-1.8,4-4"/>
	</g>
	<g id="POLYLINE_53309_">
		<line class="st5" x1="37.2" y1="53.4" x2="33.2" y2="53.4"/>
	</g>
	<g id="ARC_4380_">
		<path class="st5" d="M37.2,49.5c-2.2,0-4,1.8-4,4"/>
	</g>
	<g id="POLYLINE_53308_">
		<line class="st5" x1="30.1" y1="29.3" x2="30.1" y2="24.8"/>
	</g>
	<g id="ARC_4379_">
		<path class="st5" d="M34.7,29.3c0-2.5-2-4.5-4.5-4.5"/>
	</g>
	<g id="POLYLINE_53307_">
		<line class="st5" x1="37.3" y1="39.1" x2="33.9" y2="39.1"/>
	</g>
	<g id="ARC_4378_">
		<path class="st5" d="M33.9,39.1c0,1.9,1.5,3.4,3.4,3.4"/>
	</g>
	<g id="POLYLINE_53306_">
		<line class="st5" x1="27.7" y1="38.5" x2="27.7" y2="42.5"/>
	</g>
	<g id="ARC_4377_">
		<path class="st5" d="M23.8,38.5c0,2.2,1.8,4,4,4"/>
	</g>
	<g id="POLYLINE_53305_">
		<line class="st5" x1="42.7" y1="38.5" x2="42.7" y2="42.5"/>
	</g>
	<g id="ARC_4376_">
		<path class="st5" d="M38.8,38.5c0,2.2,1.8,4,4,4"/>
	</g>
	<g id="POLYLINE_53304_">
		<line class="st5" x1="54.9" y1="36.4" x2="59.5" y2="36.4"/>
	</g>
	<g id="ARC_4375_">
		<path class="st5" d="M59.5,36.4c0-2.5-2-4.5-4.5-4.5"/>
	</g>
	<g id="POLYLINE_53303_">
		<line class="st5" x1="26.8" y1="29.3" x2="26.8" y2="24.8"/>
	</g>
	<g id="ARC_4374_">
		<path class="st5" d="M26.8,24.8c-2.5,0-4.5,2-4.5,4.5"/>
	</g>
	<g id="POLYLINE_53302_">
		<line class="st5" x1="77.1" y1="54.9" x2="79.8" y2="54.9"/>
	</g>
	<g id="POLYLINE_53301_">
		<line class="st5" x1="20.4" y1="38.9" x2="4" y2="38.9"/>
	</g>
	<g id="POLYLINE_53300_">
		<line class="st5" x1="20.4" y1="54.4" x2="4" y2="54.4"/>
	</g>
	<g id="POLYLINE_53299_">
		<rect x="11.8" y="38.9" class="st5" width="0.8" height="15.5"/>
	</g>
	<g id="POLYLINE_53298_">
		<line class="st5" x1="20.4" y1="40.3" x2="12.6" y2="40.3"/>
	</g>
	<g id="POLYLINE_53297_">
		<line class="st5" x1="11.8" y1="40.3" x2="4" y2="40.3"/>
	</g>
	<g id="POLYLINE_53296_">
		<line class="st5" x1="20.4" y1="41.7" x2="12.6" y2="41.7"/>
	</g>
	<g id="POLYLINE_53295_">
		<line class="st5" x1="11.8" y1="41.7" x2="4" y2="41.7"/>
	</g>
	<g id="POLYLINE_53294_">
		<line class="st5" x1="20.4" y1="43.1" x2="12.6" y2="43.1"/>
	</g>
	<g id="POLYLINE_53293_">
		<line class="st5" x1="11.8" y1="43.1" x2="4" y2="43.1"/>
	</g>
	<g id="POLYLINE_53292_">
		<line class="st5" x1="20.4" y1="44.5" x2="12.6" y2="44.5"/>
	</g>
	<g id="POLYLINE_53291_">
		<line class="st5" x1="11.8" y1="44.5" x2="4" y2="44.5"/>
	</g>
	<g id="POLYLINE_53290_">
		<line class="st5" x1="11.8" y1="45.9" x2="4" y2="45.9"/>
	</g>
	<g id="POLYLINE_53289_">
		<line class="st5" x1="11.8" y1="47.3" x2="4" y2="47.3"/>
	</g>
	<g id="POLYLINE_53288_">
		<line class="st5" x1="11.8" y1="48.8" x2="4" y2="48.8"/>
	</g>
	<g id="POLYLINE_53287_">
		<line class="st5" x1="20.4" y1="50.2" x2="12.6" y2="50.2"/>
	</g>
	<g id="POLYLINE_53286_">
		<line class="st5" x1="11.8" y1="50.2" x2="4" y2="50.2"/>
	</g>
	<g id="POLYLINE_53285_">
		<line class="st5" x1="20.4" y1="51.6" x2="12.6" y2="51.6"/>
	</g>
	<g id="POLYLINE_53284_">
		<line class="st5" x1="11.8" y1="51.6" x2="4" y2="51.6"/>
	</g>
	<g id="POLYLINE_53283_">
		<line class="st5" x1="20.4" y1="53" x2="12.6" y2="53"/>
	</g>
	<g id="POLYLINE_53282_">
		<line class="st5" x1="11.8" y1="53" x2="4" y2="53"/>
	</g>
	<g id="POLYLINE_53281_">
		<line class="st5" x1="20.4" y1="53.4" x2="20.4" y2="50"/>
	</g>
	<g id="POLYLINE_53280_">
		<line class="st5" x1="20.4" y1="60.4" x2="20.4" y2="57"/>
	</g>
	<g id="CIRCLE_1661_">
		<path class="st5" d="M38.4,75.1c0-0.1,0.1-0.2,0.2-0.2s0.2,0.1,0.2,0.2s-0.1,0.2-0.2,0.2S38.4,75.2,38.4,75.1L38.4,75.1z"/>
	</g>
	<g id="POLYLINE_53279_">
		<line class="st5" x1="38.1" y1="74.6" x2="37.1" y2="73.6"/>
	</g>
	<g id="POLYLINE_53278_">
		<line class="st5" x1="38.1" y1="75.6" x2="37.1" y2="76.6"/>
	</g>
	<g id="POLYLINE_53277_">
		<line class="st5" x1="37.9" y1="75.1" x2="36.4" y2="75.1"/>
	</g>
	<g id="POLYLINE_53276_">
		<line class="st5" x1="20.4" y1="48.8" x2="12.6" y2="48.8"/>
	</g>
	<g id="POLYLINE_53275_">
		<line class="st5" x1="20.4" y1="47.3" x2="14.6" y2="47.3"/>
	</g>
	<g id="POLYLINE_53274_">
		<line class="st5" x1="16.5" y1="45.9" x2="12.6" y2="45.9"/>
	</g>
</g>
<g id="PLAN_x24_CLOISON_TRANSLUCIDE">
</g>
<g id="PLAN_x24_CLOISON_1.3">
	<g id="POLYLINE_53472_">
		<rect x="36.9" y="77.2" class="st6" width="2.3" height="0.3"/>
	</g>
	<g id="POLYLINE_53471_">
		<rect x="33.8" y="72.7" class="st6" width="0.3" height="4.8"/>
	</g>
	<g id="POLYLINE_53470_">
		<rect x="34.6" y="69.7" class="st6" width="0.3" height="2.3"/>
	</g>
	<g id="POLYLINE_53469_">
		<rect x="30.1" y="65.9" class="st6" width="4.8" height="0.3"/>
	</g>
</g>
<g id="PLAN_x24_CLOISON_1.2">
	<g id="POLYLINE_53506_">
		<polygon class="st7" points="37.5,53.4 36.9,53.4 36.8,54.9 37.5,54.9 		"/>
	</g>
	<g id="POLYLINE_53505_">
		<polygon class="st7" points="32.3,46.3 28.6,46.3 28.6,38.8 28.9,38.8 28.9,38.1 27.7,38.1 27.7,38.8 28,38.8 28,46.6 21.9,46.6 
			21.9,47.3 36.9,47.3 36.9,49.5 37.6,49.5 37.6,42.5 37,42.5 36.9,46.3 32.9,46.3 32.9,38.8 37,38.8 37,39.1 37.7,39.1 37.7,38.8 
			38.8,38.8 38.8,38.1 32.3,38.1 32.3,38.8 		"/>
	</g>
	<g id="POLYLINE_53504_">
		<rect x="28.7" y="3.9" class="st7" width="0.7" height="8.8"/>
	</g>
	<g id="POLYLINE_53503_">
		<rect x="28.7" y="19.4" class="st7" width="0.7" height="8.4"/>
	</g>
	<g id="POLYLINE_53502_">
		<rect x="54.6" y="30.7" class="st7" width="0.7" height="1.1"/>
	</g>
	<g id="POLYLINE_53501_">
		<rect x="21.9" y="38.1" class="st7" width="1.9" height="0.7"/>
	</g>
	<g id="POLYLINE_53500_">
		<polyline class="st7" points="33.1,56.6 33.1,57.2 33.8,57.2 33.8,56.6 		"/>
	</g>
	<g id="POLYLINE_53499_">
		<rect x="48.3" y="56.6" class="st7" width="0.7" height="0.6"/>
	</g>
	<g id="POLYLINE_53498_">
		<line class="st7" x1="28.7" y1="81" x2="29.4" y2="81"/>
	</g>
	<g id="POLYLINE_53497_">
		<polygon class="st7" points="30.1,72.7 39.2,72.7 39.2,82.2 39.9,82.2 39.9,72.7 41.9,72.7 41.9,72 41.9,67.1 41.2,67.1 41.2,72 
			30.1,72 30.1,62.6 38.8,62.6 38.8,61.9 33.8,61.9 33.8,61.1 33.1,61.1 33.1,61.9 29.4,61.9 29.4,77.6 30.1,77.6 		"/>
	</g>
	<g id="POLYLINE_53496_">
		<polygon class="st7" points="49,61.9 49,61.1 48.3,61.1 48.3,61.9 42.7,61.9 42.7,62.6 60.3,62.6 60.3,82.2 61,82.2 61,61.9 		"/>
	</g>
	<g id="POLYLINE_53495_">
		<polygon class="st7" points="54.6,36.7 43.8,36.7 43.8,38.1 42.7,38.1 42.7,38.8 43.8,38.8 43.8,45.1 44.4,45.1 44.4,37.4 
			66.7,37.4 66.7,36.7 55.3,36.7 55.3,36.4 54.6,36.4 		"/>
	</g>
	<g id="POLYLINE_53494_">
		<rect x="43.8" y="49" class="st7" width="0.7" height="5.9"/>
	</g>
	<g id="POLYLINE_53493_">
		<rect x="77.4" y="61.8" class="st7" width="2.7" height="0.7"/>
	</g>
	<g id="POLYLINE_53492_">
		<rect x="20.1" y="3.9" class="st7" width="0.7" height="5.4"/>
	</g>
	<g id="POLYLINE_53491_">
		<polygon class="st7" points="67.4,57.6 67.4,62.5 74,62.5 74,61.8 68,61.8 68,57.6 		"/>
	</g>
	<g id="POLYLINE_53490_">
		<polygon class="st7" points="62.4,27.9 62.4,21.6 74.2,21.6 74.2,22.3 63.1,22.3 63.1,27.9 		"/>
	</g>
	<g id="POLYLINE_53489_">
		<rect x="56.4" y="3.9" class="st7" width="0.7" height="24"/>
	</g>
	<g id="POLYLINE_53488_">
		<rect x="4" y="11.9" class="st7" width="9.2" height="0.7"/>
	</g>
</g>
<g id="PLAN_x24_CLOISON_1.1">
</g>
<g id="PLAN_x24_STRUCTURE_2.3">
</g>
<g id="PLAN_x24_STRUCTURE_2.2">
</g>
<g id="PLAN_x24_STRUCTURE_2.1">
</g>
<g id="PLAN_x24_STRUCTURE_1.3">
	<g id="POLYLINE_52284_">
		<polygon class="st8" points="79.8,56.6 80.1,56.6 80.1,82.2 73.4,82.2 73.4,85.1 82.9,85.1 82.9,1.1 73.2,1.1 73.2,3.9 80.1,3.9 
			80.1,12.9 82,12.9 82,19.7 80.1,19.7 80.1,27.9 62.4,27.9 62.4,30.7 66.7,30.7 66.7,31.6 68.2,31.6 68.2,30.7 80.1,30.7 
			80.1,54.9 79.8,54.9 		"/>
	</g>
	<g id="POLYLINE_52283_">
		<rect x="20.1" y="1.1" class="st8" width="16.8" height="2.8"/>
	</g>
	<g id="POLYLINE_52282_">
		<rect x="48.8" y="1.1" class="st8" width="17.6" height="2.8"/>
	</g>
	<g id="POLYLINE_52281_">
		<rect x="26.8" y="27.9" class="st8" width="3.4" height="2.8"/>
	</g>
	<g id="POLYLINE_52280_">
		<rect x="20.4" y="38.1" class="st8" width="1.4" height="5.1"/>
	</g>
	<g id="POLYLINE_52279_">
		<rect x="20.4" y="46.1" class="st8" width="1.4" height="3.9"/>
	</g>
	<g id="POLYLINE_52278_">
		<rect x="54.3" y="82.2" class="st8" width="13.4" height="2.8"/>
	</g>
	<g id="POLYLINE_52277_">
		<polygon class="st8" points="35.9,82.2 35.9,85.1 48.7,85.1 48.7,82.2 46.7,82.2 46.7,84.3 40.5,84.3 40.5,82.2 		"/>
	</g>
	<g id="POLYLINE_52276_">
		<polygon class="st8" points="17.9,82.2 17.9,85.1 30.2,85.1 30.2,82.2 29.4,82.2 29.4,81 28.3,81 28.3,82.2 		"/>
	</g>
	<g id="POLYLINE_52275_">
		<polygon class="st8" points="34.7,27.9 39.9,27.9 39.9,29.8 46.6,29.8 46.6,27.9 57.9,27.9 57.9,30.7 34.7,30.7 		"/>
	</g>
	<g id="POLYLINE_52274_">
		<polygon class="st8" points="74.7,47 74.7,45.3 76.9,45.3 76.9,54.9 77.1,54.9 77.1,56.6 76.9,56.6 76.9,57.6 67.4,57.6 
			67.4,56.6 43.8,56.6 43.8,54.9 66.7,54.9 66.7,54.1 68.2,54.1 68.2,54.9 75.2,54.9 75.2,47 		"/>
	</g>
	<g id="POLYLINE_52273_">
		<polygon class="st8" points="69,45.3 69,47 68.2,47 68.2,50.1 66.7,50.1 66.7,43.5 68.2,43.5 68.2,45.3 		"/>
	</g>
	<g id="POLYLINE_52272_">
		<polygon class="st8" points="13.9,27.9 13.9,29.2 4.8,29.2 4.8,27.9 4,27.9 4,19.4 2.3,19.4 2.3,12.6 4,12.6 4,3.9 13.3,3.9 
			13.3,1.1 1.1,1.1 1.1,85.1 12.2,85.1 12.2,82.2 4,82.2 4,62.4 21.9,62.4 21.9,60.4 20.4,60.4 20.4,61 4,61 4,30.7 20.4,30.7 
			20.4,33.6 21.9,33.6 21.9,30.7 22.2,30.7 22.2,27.9 		"/>
	</g>
	<g id="POLYLINE_52271_">
		<rect x="66.7" y="36.7" class="st8" width="1.4" height="1.7"/>
	</g>
	<g id="POLYLINE_52270_">
		<polyline class="st8" points="33.1,56.6 21.9,56.6 21.9,57 20.4,57 20.4,53.4 21.9,53.4 21.9,54.9 37.5,54.9 37.5,56.6 33.8,56.6 
					"/>
	</g>
</g>
<g id="PLAN_x24_STRUCTURE_1.2">
</g>
<g id="PLAN_x24_STRUCTURE_1.1">
</g>
</svg>
