<?xml version="1.0" encoding="utf-8"?>
<!-- Generator: Adobe Illustrator 22.0.1, SVG Export Plug-In . SVG Version: 6.00 Build 0)  -->
<svg version="1.1" id="Calque_1" xmlns="http://www.w3.org/2000/svg" xmlns:xlink="http://www.w3.org/1999/xlink" x="0px" y="0px"
	 viewBox="0 0 116.6 90" style="enable-background:new 0 0 116.6 90;" xml:space="preserve">
<style type="text/css">
	.st0{display:none;}
	.st1{display:inline;}
	.st2{fill:none;}
	.st3{fill:none;stroke:#000000;stroke-width:0.1;stroke-linecap:square;stroke-miterlimit:10;stroke-dasharray:0.5,0.5;}
	.st4{fill:none;stroke:#000000;stroke-width:5.000000e-02;stroke-linecap:square;stroke-miterlimit:10;}
	.st5{fill:none;stroke:#000000;stroke-width:8.000000e-02;stroke-linecap:square;stroke-miterlimit:10;}
	.st6{fill:none;stroke:#000000;stroke-width:0.14;stroke-linecap:square;stroke-miterlimit:10;}
	.st7{fill:none;stroke:#000000;stroke-width:0.18;stroke-linecap:square;stroke-miterlimit:10;}
	.st8{fill:none;stroke:#000000;stroke-width:0.41;stroke-linecap:square;stroke-miterlimit:10;}
</style>
<g id="Calque_1_1_">
</g>
<g id="INFOS_x24_A4" class="st0">
	<g id="POLYLINE_46619_" class="st1">
		<rect x="-242.8" y="-392.1" class="st2" width="595.3" height="841.9"/>
	</g>
</g>
<g id="PLAN_x24_FOND">
</g>
<g id="PLAN_x24_POINTILLE">
	<g id="POLYLINE_47273_">
		<polyline class="st3" points="45.8,73.7 49.4,80.8 34,80.8 34,73 34.5,73 34.5,80.3 48.4,80.3 		"/>
	</g>
	<g id="POLYLINE_47272_">
		<line class="st3" x1="47.6" y1="80.3" x2="47.6" y2="78.7"/>
	</g>
	<g id="POLYLINE_47271_">
		<line class="st3" x1="46" y1="80.3" x2="46" y2="75.5"/>
	</g>
	<g id="POLYLINE_47270_">
		<polyline class="st3" points="45.3,74.1 40.7,74.1 40.7,73 41.2,73 41.2,73.7 45.1,73.7 		"/>
	</g>
	<g id="POLYLINE_47269_">
		<line class="st3" x1="48.6" y1="80.8" x2="45.1" y2="73.6"/>
	</g>
	<g id="POLYLINE_47268_">
		<line class="st3" x1="44.5" y1="80.3" x2="44.5" y2="74.1"/>
	</g>
	<g id="POLYLINE_47267_">
		<line class="st3" x1="42.9" y1="80.3" x2="42.9" y2="74.1"/>
	</g>
	<g id="POLYLINE_47266_">
		<line class="st3" x1="42.1" y1="74.1" x2="40.2" y2="80.3"/>
	</g>
	<g id="POLYLINE_47265_">
		<line class="st3" x1="41.5" y1="74.1" x2="37.5" y2="80.3"/>
	</g>
	<g id="POLYLINE_47264_">
		<line class="st3" x1="40.7" y1="74.1" x2="34.5" y2="79.2"/>
	</g>
	<g id="POLYLINE_47263_">
		<line class="st3" x1="40.7" y1="73.6" x2="34.5" y2="75.7"/>
	</g>
	<g id="POLYLINE_47262_">
		<line class="st3" x1="34.5" y1="73" x2="40.7" y2="73"/>
	</g>
</g>
<g id="PLAN_x24_VITRAGE">
	<g id="POLYLINE_46899_">
		<polyline class="st4" points="88,88.5 88,85.8 88.1,85.6 87.9,85.4 87.7,85.7 87.7,88 		"/>
	</g>
	<g id="POLYLINE_46898_">
		<polyline class="st4" points="93.6,79.7 92.2,78.4 92,78.6 93.6,80.1 93.3,80.4 93.1,80.2 93.4,79.9 		"/>
	</g>
	<g id="POLYLINE_46897_">
		<polygon class="st4" points="86.8,73.1 86.8,60.4 86.5,60.4 86.5,73.2 86.7,73.4 86.9,73.2 		"/>
	</g>
	<g id="POLYLINE_46896_">
		<polyline class="st4" points="7,60.3 33.1,60.3 33.1,51.7 		"/>
	</g>
	<g id="POLYLINE_46895_">
		<polyline class="st4" points="7,60 32.8,60 32.8,51.7 		"/>
	</g>
	<g id="POLYLINE_46894_">
		<polyline class="st4" points="33.1,36 33.2,27.5 7,27.5 		"/>
	</g>
	<g id="POLYLINE_46893_">
		<polyline class="st4" points="32.8,36 32.9,27.8 7,27.8 		"/>
	</g>
	<g id="POLYLINE_46892_">
		<rect x="41.6" y="36.9" class="st4" width="0.3" height="7"/>
	</g>
	<g id="POLYLINE_46891_">
		<line class="st4" x1="6.4" y1="83.4" x2="6.4" y2="75.4"/>
	</g>
	<g id="POLYLINE_46890_">
		<line class="st4" x1="6.4" y1="53.3" x2="6.4" y2="45.9"/>
	</g>
	<g id="POLYLINE_46889_">
		<line class="st4" x1="6.4" y1="38.6" x2="6.4" y2="31.3"/>
	</g>
	<g id="POLYLINE_46888_">
		<line class="st4" x1="17" y1="2.1" x2="24.4" y2="2.1"/>
	</g>
	<g id="POLYLINE_46887_">
		<line class="st4" x1="37.4" y1="2.1" x2="58.4" y2="2.1"/>
	</g>
	<g id="POLYLINE_46886_">
		<line class="st4" x1="62.8" y1="2.1" x2="83.7" y2="2.1"/>
	</g>
	<g id="POLYLINE_46885_">
		<line class="st4" x1="96.8" y1="2.1" x2="104.2" y2="2.1"/>
	</g>
	<g id="POLYLINE_46884_">
		<line class="st4" x1="114.8" y1="9.9" x2="114.8" y2="17.2"/>
	</g>
	<g id="POLYLINE_46883_">
		<line class="st4" x1="114.8" y1="32.1" x2="114.8" y2="39.5"/>
	</g>
	<g id="POLYLINE_46882_">
		<line class="st4" x1="114.8" y1="49.3" x2="114.8" y2="56.7"/>
	</g>
	<g id="POLYLINE_46881_">
		<line class="st4" x1="114.8" y1="63.8" x2="114.8" y2="71.2"/>
	</g>
	<g id="POLYLINE_46868_">
		<polyline class="st4" points="33.8,88 33.8,81.4 34.1,81.4 34.1,88 		"/>
	</g>
</g>
<g id="PLAN_x24_MOBILIER">
	<g id="POLYLINE_47041_">
		<rect x="12" y="12.6" class="st5" width="4.6" height="10"/>
	</g>
	<g id="POLYLINE_47040_">
		<rect x="10.3" y="16.3" class="st5" width="1.7" height="2.3"/>
	</g>
	<g id="POLYLINE_47039_">
		<rect x="17.6" y="15.5" class="st5" width="2.3" height="2.3"/>
	</g>
	<g id="POLYLINE_47038_">
		<rect x="17.6" y="19.7" class="st5" width="2.3" height="2.3"/>
	</g>
	<g id="POLYLINE_47037_">
		<rect x="7" y="22.6" class="st5" width="5" height="4.9"/>
	</g>
	<g id="ARC_3824_">
		<path class="st5" d="M12,27.5c2.6-0.1,4.6-2.3,4.6-4.9"/>
	</g>
	<g id="POLYLINE_47036_">
		<rect x="13.1" y="27.8" class="st5" width="4.6" height="9.5"/>
	</g>
	<g id="POLYLINE_47035_">
		<rect x="11.4" y="32.9" class="st5" width="1.7" height="2.3"/>
	</g>
	<g id="POLYLINE_47034_">
		<rect x="8.4" y="27.8" class="st5" width="4.8" height="3.5"/>
	</g>
	<g id="POLYLINE_47033_">
		<rect x="13.1" y="50.5" class="st5" width="4.6" height="9.5"/>
	</g>
	<g id="POLYLINE_47032_">
		<rect x="11.4" y="52.6" class="st5" width="1.7" height="2.3"/>
	</g>
	<g id="POLYLINE_47031_">
		<rect x="8.4" y="56.5" class="st5" width="4.8" height="3.5"/>
	</g>
	<g id="POLYLINE_47030_">
		<rect x="44.2" y="2.6" class="st5" width="4.7" height="9.2"/>
	</g>
	<g id="POLYLINE_47029_">
		<rect x="42.5" y="4.9" class="st5" width="1.7" height="2.3"/>
	</g>
	<g id="POLYLINE_47028_">
		<rect x="53.6" y="4.9" class="st5" width="1.7" height="2.3"/>
	</g>
	<g id="POLYLINE_47027_">
		<rect x="48.9" y="2.6" class="st5" width="4.7" height="9.2"/>
	</g>
	<g id="POLYLINE_47026_">
		<rect x="53.6" y="9.7" class="st5" width="4.6" height="2.2"/>
	</g>
	<g id="POLYLINE_47025_">
		<rect x="39.6" y="9.7" class="st5" width="4.6" height="2.2"/>
	</g>
	<g id="POLYLINE_47024_">
		<rect x="39.5" y="11.8" class="st5" width="18.7" height="0.5"/>
	</g>
	<g id="POLYLINE_47023_">
		<rect x="39.6" y="12.3" class="st5" width="4.6" height="2.2"/>
	</g>
	<g id="POLYLINE_47022_">
		<rect x="53.6" y="12.3" class="st5" width="4.6" height="2.2"/>
	</g>
	<g id="POLYLINE_47021_">
		<rect x="48.9" y="12.3" class="st5" width="4.7" height="9.2"/>
	</g>
	<g id="POLYLINE_47020_">
		<rect x="53.6" y="17" class="st5" width="1.7" height="2.3"/>
	</g>
	<g id="POLYLINE_47019_">
		<rect x="42.5" y="17" class="st5" width="1.7" height="2.3"/>
	</g>
	<g id="POLYLINE_47018_">
		<rect x="44.2" y="12.3" class="st5" width="4.7" height="9.2"/>
	</g>
	<g id="POLYLINE_47017_">
		<rect x="69" y="12.3" class="st5" width="4.7" height="9.2"/>
	</g>
	<g id="POLYLINE_47016_">
		<rect x="67.3" y="17" class="st5" width="1.7" height="2.3"/>
	</g>
	<g id="POLYLINE_47015_">
		<rect x="78.4" y="17" class="st5" width="1.7" height="2.3"/>
	</g>
	<g id="POLYLINE_47014_">
		<rect x="73.7" y="12.3" class="st5" width="4.7" height="9.2"/>
	</g>
	<g id="POLYLINE_47013_">
		<rect x="78.4" y="12.3" class="st5" width="4.6" height="2.2"/>
	</g>
	<g id="POLYLINE_47012_">
		<rect x="64.5" y="12.3" class="st5" width="4.6" height="2.2"/>
	</g>
	<g id="POLYLINE_47011_">
		<rect x="64.4" y="11.8" class="st5" width="18.7" height="0.5"/>
	</g>
	<g id="POLYLINE_47010_">
		<rect x="64.5" y="9.7" class="st5" width="4.6" height="2.2"/>
	</g>
	<g id="POLYLINE_47009_">
		<rect x="78.4" y="9.7" class="st5" width="4.6" height="2.2"/>
	</g>
	<g id="POLYLINE_47008_">
		<rect x="73.7" y="2.6" class="st5" width="4.7" height="9.2"/>
	</g>
	<g id="POLYLINE_47007_">
		<rect x="78.4" y="4.9" class="st5" width="1.7" height="2.3"/>
	</g>
	<g id="POLYLINE_47006_">
		<rect x="67.3" y="4.9" class="st5" width="1.7" height="2.3"/>
	</g>
	<g id="POLYLINE_47005_">
		<rect x="69" y="2.6" class="st5" width="4.7" height="9.2"/>
	</g>
	<g id="POLYLINE_47004_">
		<rect x="94.1" y="12.3" class="st5" width="4.7" height="9.2"/>
	</g>
	<g id="POLYLINE_47003_">
		<rect x="92.4" y="17" class="st5" width="1.7" height="2.3"/>
	</g>
	<g id="POLYLINE_47002_">
		<rect x="103.4" y="17" class="st5" width="1.7" height="2.3"/>
	</g>
	<g id="POLYLINE_47001_">
		<rect x="98.7" y="12.3" class="st5" width="4.7" height="9.2"/>
	</g>
	<g id="POLYLINE_47000_">
		<rect x="103.4" y="12.3" class="st5" width="4.6" height="2.2"/>
	</g>
	<g id="POLYLINE_46999_">
		<rect x="89.5" y="12.3" class="st5" width="4.6" height="2.2"/>
	</g>
	<g id="POLYLINE_46998_">
		<rect x="89.4" y="11.8" class="st5" width="18.7" height="0.5"/>
	</g>
	<g id="POLYLINE_46997_">
		<rect x="89.5" y="9.7" class="st5" width="4.6" height="2.2"/>
	</g>
	<g id="POLYLINE_46996_">
		<rect x="103.4" y="9.7" class="st5" width="4.6" height="2.2"/>
	</g>
	<g id="POLYLINE_46995_">
		<rect x="98.7" y="2.6" class="st5" width="4.7" height="9.2"/>
	</g>
	<g id="POLYLINE_46994_">
		<rect x="103.4" y="4.9" class="st5" width="1.7" height="2.3"/>
	</g>
	<g id="POLYLINE_46993_">
		<rect x="92.4" y="4.9" class="st5" width="1.7" height="2.3"/>
	</g>
	<g id="POLYLINE_46992_">
		<rect x="94.1" y="2.6" class="st5" width="4.7" height="9.2"/>
	</g>
	<g id="POLYLINE_46991_">
		<rect x="74.6" y="36.1" class="st5" width="6.9" height="17.6"/>
	</g>
	<g id="POLYLINE_46990_">
		<rect x="72.9" y="38.8" class="st5" width="1.7" height="2.3"/>
	</g>
	<g id="POLYLINE_46989_">
		<rect x="72.9" y="43.8" class="st5" width="1.7" height="2.3"/>
	</g>
	<g id="POLYLINE_46988_">
		<rect x="72.9" y="48.7" class="st5" width="1.7" height="2.3"/>
	</g>
	<g id="POLYLINE_46987_">
		<rect x="81.5" y="48.7" class="st5" width="1.7" height="2.3"/>
	</g>
	<g id="POLYLINE_46986_">
		<rect x="81.5" y="43.8" class="st5" width="1.7" height="2.3"/>
	</g>
	<g id="POLYLINE_46985_">
		<rect x="81.5" y="38.8" class="st5" width="1.7" height="2.3"/>
	</g>
	<g id="POLYLINE_46984_">
		<rect x="86.8" y="31.7" class="st5" width="7.3" height="4.9"/>
	</g>
	<g id="POLYLINE_46983_">
		<rect x="103.1" y="31.7" class="st5" width="8.1" height="4.6"/>
	</g>
	<g id="POLYLINE_46982_">
		<rect x="86.8" y="38" class="st5" width="3.8" height="9.3"/>
	</g>
	<g id="POLYLINE_46981_">
		<rect x="86.8" y="47.8" class="st5" width="3.8" height="9.3"/>
	</g>
	<g id="POLYLINE_46980_">
		<rect x="88.1" y="57.3" class="st5" width="5.8" height="9.8"/>
	</g>
	<g id="POLYLINE_46979_">
		<rect x="101.9" y="53.9" class="st5" width="11.9" height="15.9"/>
	</g>
	<g id="POLYLINE_46978_">
		<rect x="106.4" y="45.3" class="st5" width="7.4" height="3.5"/>
	</g>
	<g id="POLYLINE_46977_">
		<rect x="106.4" y="40.6" class="st5" width="7.4" height="3.5"/>
	</g>
	<g id="POLYLINE_46976_">
		<rect x="100" y="74.5" class="st5" width="14.2" height="4.7"/>
	</g>
	<g id="POLYLINE_46975_">
		<line class="st5" x1="107.1" y1="74.5" x2="107.1" y2="79.2"/>
	</g>
	<g id="POLYLINE_46974_">
		<polygon class="st5" points="68.2,65.6 68.2,69.7 86.5,69.7 86.5,60.4 81.5,60.4 81.5,65.6 		"/>
	</g>
	<g id="POLYLINE_46973_">
		<line class="st5" x1="72.3" y1="69.7" x2="72.3" y2="65.6"/>
	</g>
	<g id="POLYLINE_46972_">
		<line class="st5" x1="72.3" y1="67.7" x2="86.5" y2="67.7"/>
	</g>
	<g id="POLYLINE_46971_">
		<rect x="77.6" y="62.2" class="st5" width="2.3" height="2.3"/>
	</g>
	<g id="POLYLINE_46970_">
		<rect x="41.7" y="28.7" class="st5" width="26.2" height="2.5"/>
	</g>
	<g id="POLYLINE_46969_">
		<rect x="41.9" y="39.6" class="st5" width="9" height="4.2"/>
	</g>
	<g id="POLYLINE_46968_">
		<rect x="52.8" y="39" class="st5" width="5.8" height="4.8"/>
	</g>
	<g id="POLYLINE_46967_">
		<rect x="63.5" y="39.2" class="st5" width="4.4" height="4.6"/>
	</g>
	<g id="POLYLINE_46966_">
		<rect x="56.3" y="54.6" class="st5" width="3.1" height="5.3"/>
	</g>
	<g id="SPLINE_1433_">
		<path class="st5" d="M58.7,57.3c0-0.9-0.3-1.3-0.8-1.3c-0.5,0-0.8,0.4-0.8,1.3s0.3,1.3,0.8,1.3S58.7,58.1,58.7,57.3z"/>
	</g>
	<g id="CIRCLE_1530_">
		<path class="st5" d="M58,57.3c0-0.1,0.1-0.2,0.2-0.2s0.2,0.1,0.2,0.2s-0.1,0.2-0.2,0.2S58,57.4,58,57.3L58,57.3z"/>
	</g>
	<g id="SPLINE_1432_">
		<path class="st5" d="M43.6,53c0.2,0.1,0.5,0.1,0.7,0.1c0.2,0,0.4,0,0.5,0c0.2,0,0.5,0,0.7-0.1c0.1,0,0.2-0.1,0.3-0.2
			c0.1-0.2,0.2-0.4,0.2-0.6c0-0.1,0-0.2,0-0.3c0-0.2-0.1-0.3-0.2-0.4c-0.2-0.2-0.4-0.3-0.7-0.3c-0.3,0-0.5-0.1-0.8,0
			c-0.2,0-0.4,0-0.5,0.1c-0.1,0-0.2,0-0.3,0.1"/>
	</g>
	<g id="POLYLINE_46965_">
		<rect x="42.2" y="50.6" class="st5" width="1.5" height="3"/>
	</g>
	<g id="SPLINE_1431_">
		<path class="st5" d="M43.6,58.1c0.2,0.1,0.5,0.1,0.7,0.1c0.2,0,0.4,0,0.5,0c0.2,0,0.5,0,0.7-0.1c0.1,0,0.2-0.1,0.3-0.2
			c0.1-0.2,0.2-0.4,0.2-0.6c0-0.1,0-0.2,0-0.3c0-0.2-0.1-0.3-0.2-0.4c-0.2-0.2-0.4-0.3-0.7-0.3c-0.3,0-0.5-0.1-0.8,0
			c-0.2,0-0.4,0-0.5,0.1c-0.1,0-0.2,0-0.3,0.1"/>
	</g>
	<g id="POLYLINE_46964_">
		<rect x="42.2" y="55.7" class="st5" width="1.5" height="3"/>
	</g>
	<g id="CIRCLE_1529_">
		<path class="st5" d="M22.9,9.1c0-1.9,1.6-3.5,3.5-3.5s3.5,1.6,3.5,3.5s-1.6,3.5-3.5,3.5C24.4,12.6,22.9,11,22.9,9.1L22.9,9.1z"/>
	</g>
	<g id="POLYLINE_46963_">
		
			<rect x="21.7" y="11.4" transform="matrix(0.7091 -0.7051 0.7051 0.7091 -2.1959 19.7165)" class="st5" width="2.3" height="2.3"/>
	</g>
	<g id="POLYLINE_46962_">
		
			<rect x="28.7" y="11.5" transform="matrix(0.7091 -0.7051 0.7051 0.7091 -0.2489 24.7219)" class="st5" width="2.3" height="2.3"/>
	</g>
	<g id="POLYLINE_46961_">
		<rect x="28.8" y="4.5" transform="matrix(0.7091 -0.7051 0.7051 0.7091 4.7564 22.7745)" class="st5" width="2.3" height="2.3"/>
	</g>
	<g id="POLYLINE_46960_">
		<rect x="21.8" y="4.3" transform="matrix(0.7091 -0.7051 0.7051 0.7091 2.8095 17.7691)" class="st5" width="2.3" height="2.3"/>
	</g>
	<g id="CIRCLE_1528_">
		<path class="st5" d="M19.6,68.1c0-1.1,0.9-2,2-2s2,0.9,2,2s-0.9,2-2,2S19.6,69.2,19.6,68.1L19.6,68.1z"/>
	</g>
	<g id="POLYLINE_46959_">
		<rect x="17.1" y="67" class="st5" width="2.3" height="2.3"/>
	</g>
	<g id="POLYLINE_46958_">
		<rect x="20.6" y="70.3" class="st5" width="2.3" height="2.3"/>
	</g>
	<g id="POLYLINE_46957_">
		<rect x="23.9" y="66.8" class="st5" width="2.3" height="2.3"/>
	</g>
	<g id="POLYLINE_46956_">
		<rect x="20.4" y="63.5" class="st5" width="2.3" height="2.3"/>
	</g>
	<g id="POLYLINE_46955_">
		<rect x="10.6" y="71.4" class="st5" width="2.3" height="2.3"/>
	</g>
	<g id="POLYLINE_46954_">
		<rect x="14.1" y="74.7" class="st5" width="2.3" height="2.3"/>
	</g>
	<g id="POLYLINE_46953_">
		<rect x="10.8" y="78.2" class="st5" width="2.3" height="2.3"/>
	</g>
	<g id="POLYLINE_46952_">
		<rect x="7.3" y="74.9" class="st5" width="2.3" height="2.3"/>
	</g>
	<g id="CIRCLE_1527_">
		<path class="st5" d="M9.8,75.9c0-1.1,0.9-2,2-2s2,0.9,2,2s-0.9,2-2,2S9.8,77,9.8,75.9L9.8,75.9z"/>
	</g>
	<g id="CIRCLE_1526_">
		<path class="st5" d="M23.6,78.7c0-1.1,0.9-2,2-2s2,0.9,2,2s-0.9,2-2,2C24.5,80.7,23.6,79.8,23.6,78.7L23.6,78.7z"/>
	</g>
	<g id="POLYLINE_46951_">
		<rect x="21.1" y="77.6" class="st5" width="2.3" height="2.3"/>
	</g>
	<g id="POLYLINE_46950_">
		<rect x="24.6" y="80.9" class="st5" width="2.3" height="2.3"/>
	</g>
	<g id="POLYLINE_46949_">
		<rect x="27.9" y="77.4" class="st5" width="2.3" height="2.3"/>
	</g>
	<g id="POLYLINE_46948_">
		<rect x="24.4" y="74.1" class="st5" width="2.3" height="2.3"/>
	</g>
	<g id="POLYLINE_46947_">
		<rect x="7" y="84.8" class="st5" width="17.8" height="3.7"/>
	</g>
	<g id="POLYLINE_46946_">
		<line class="st5" x1="10.5" y1="88.5" x2="10.5" y2="84.8"/>
	</g>
	<g id="POLYLINE_46945_">
		<line class="st5" x1="14.1" y1="88.5" x2="14.1" y2="84.8"/>
	</g>
	<g id="POLYLINE_46944_">
		<line class="st5" x1="21.3" y1="88.5" x2="21.3" y2="84.8"/>
	</g>
	<g id="POLYLINE_46943_">
		<rect x="15.1" y="85.2" class="st5" width="4.2" height="2.9"/>
	</g>
	<g id="CIRCLE_1525_">
		<path class="st5" d="M15.7,87.4c0-0.1,0.1-0.3,0.3-0.3c0.1,0,0.3,0.1,0.3,0.3s-0.1,0.3-0.3,0.3C15.9,87.6,15.7,87.5,15.7,87.4
			L15.7,87.4z"/>
	</g>
	<g id="POLYLINE_46942_">
		<rect x="86.8" y="28.7" class="st5" width="27.4" height="2.5"/>
	</g>
	<g id="CIRCLE_1524_">
		<path class="st5" d="M69.5,84.5c0-1.5,1.2-2.8,2.8-2.8S75,83,75,84.5s-1.2,2.8-2.8,2.8S69.5,86,69.5,84.5L69.5,84.5z"/>
	</g>
	<g id="ARC_3823_">
		<path class="st5" d="M70.4,86.5c1.7,0.4,3.4-0.6,3.8-2.3c0.1-0.6,0.1-1.1,0-1.7"/>
	</g>
	<g id="ARC_3822_">
		<path class="st5" d="M61.1,82.9c-0.2,1.7,1,3.3,2.7,3.5c0.6,0.1,1.1,0,1.7-0.2"/>
	</g>
	<g id="CIRCLE_1523_">
		<path class="st5" d="M60.5,84.5c0-1.5,1.2-2.8,2.8-2.8c1.5,0,2.7,1.2,2.7,2.8s-1.2,2.8-2.7,2.8C61.8,87.3,60.5,86,60.5,84.5
			L60.5,84.5z"/>
	</g>
	<g id="POLYLINE_46941_">
		<rect x="66.3" y="85.1" class="st5" width="2.9" height="2.7"/>
	</g>
</g>
<g id="PLAN_x24_DETAIL">
	<g id="POLYLINE_47104_">
		<polyline class="st5" points="49.4,80.8 61.6,80.8 61.6,80.3 49.2,80.3 49.2,74.1 		"/>
	</g>
	<g id="POLYLINE_47103_">
		<polyline class="st5" points="6.4,61.3 7,61.3 7,2.6 114.2,2.6 114.2,79.2 		"/>
	</g>
	<g id="POLYLINE_47102_">
		<polyline class="st5" points="6.4,68.7 7,68.7 7,88.5 		"/>
	</g>
	<g id="POLYLINE_47101_">
		<line class="st5" x1="5.3" y1="31.3" x2="5.3" y2="38.6"/>
	</g>
	<g id="POLYLINE_47100_">
		<line class="st5" x1="5.3" y1="45.9" x2="5.3" y2="53.3"/>
	</g>
	<g id="POLYLINE_47099_">
		<line class="st5" x1="5.3" y1="75.4" x2="5.3" y2="83.4"/>
	</g>
	<g id="POLYLINE_47098_">
		<line class="st5" x1="115.9" y1="71.2" x2="115.9" y2="63.8"/>
	</g>
	<g id="POLYLINE_47097_">
		<line class="st5" x1="115.9" y1="56.7" x2="115.9" y2="49.3"/>
	</g>
	<g id="POLYLINE_47096_">
		<line class="st5" x1="115.9" y1="39.5" x2="115.9" y2="32.1"/>
	</g>
	<g id="POLYLINE_47095_">
		<line class="st5" x1="115.9" y1="17.2" x2="115.9" y2="9.9"/>
	</g>
	<g id="POLYLINE_47094_">
		<line class="st5" x1="104.2" y1="0.9" x2="96.8" y2="0.9"/>
	</g>
	<g id="POLYLINE_47093_">
		<line class="st5" x1="83.7" y1="0.9" x2="62.8" y2="0.9"/>
	</g>
	<g id="POLYLINE_47092_">
		<line class="st5" x1="58.4" y1="0.9" x2="37.4" y2="0.9"/>
	</g>
	<g id="POLYLINE_47091_">
		<line class="st5" x1="24.4" y1="0.9" x2="17" y2="0.9"/>
	</g>
	<g id="POLYLINE_47090_">
		<line class="st5" x1="32.9" y1="22.4" x2="27.8" y2="22.4"/>
	</g>
	<g id="ARC_3839_">
		<path class="st5" d="M27.8,22.4c0,2.8,2.3,5.1,5.1,5.1"/>
	</g>
	<g id="POLYLINE_47089_">
		<line class="st5" x1="32.9" y1="44.6" x2="27.8" y2="44.6"/>
	</g>
	<g id="ARC_3838_">
		<path class="st5" d="M27.8,44.6c0,2.8,2.3,5.1,5.1,5.1"/>
	</g>
	<g id="POLYLINE_47088_">
		<line class="st5" x1="32.9" y1="43.3" x2="27.8" y2="43.3"/>
	</g>
	<g id="ARC_3837_">
		<path class="st5" d="M27.8,43.3c0-2.8,2.3-5.1,5.1-5.1"/>
	</g>
	<g id="POLYLINE_47087_">
		<line class="st5" x1="32.9" y1="60.3" x2="27.8" y2="60.3"/>
	</g>
	<g id="ARC_3836_">
		<path class="st5" d="M27.8,60.3c0,2.8,2.3,5.1,5.1,5.1"/>
	</g>
	<g id="POLYLINE_47086_">
		<line class="st5" x1="41.7" y1="31.7" x2="46.8" y2="31.7"/>
	</g>
	<g id="ARC_3835_">
		<path class="st5" d="M46.8,31.7c0,2.8-2.3,5.1-5.1,5.1"/>
	</g>
	<g id="POLYLINE_47085_">
		<line class="st5" x1="59.7" y1="44.4" x2="64.8" y2="44.4"/>
	</g>
	<g id="ARC_3834_">
		<path class="st5" d="M64.8,44.4c0,2.8-2.3,5.1-5.1,5.1"/>
	</g>
	<g id="POLYLINE_47084_">
		<line class="st5" x1="49.6" y1="59.9" x2="54.7" y2="59.9"/>
	</g>
	<g id="ARC_3833_">
		<path class="st5" d="M54.7,59.9c0-2.8-2.3-5.1-5.1-5.1"/>
	</g>
	<g id="POLYLINE_47083_">
		<line class="st5" x1="49.6" y1="44.4" x2="54.7" y2="44.4"/>
	</g>
	<g id="ARC_3832_">
		<path class="st5" d="M54.7,44.4c0,2.8-2.3,5.1-5.1,5.1"/>
	</g>
	<g id="POLYLINE_47072_">
		<line class="st5" x1="67.9" y1="59.3" x2="73" y2="59.3"/>
	</g>
	<g id="ARC_3831_">
		<path class="st5" d="M73,59.3c0-2.8-2.3-5.1-5.1-5.1"/>
	</g>
	<g id="POLYLINE_47071_">
		<line class="st5" x1="93.2" y1="80.3" x2="89.6" y2="76.7"/>
	</g>
	<g id="ARC_3830_">
		<path class="st5" d="M89.6,76.7c-2,2-2,5.2,0,7.2"/>
	</g>
	<g id="POLYLINE_47070_">
		<line class="st5" x1="86.8" y1="73.3" x2="90.4" y2="69.7"/>
	</g>
	<g id="ARC_3829_">
		<path class="st5" d="M90.4,69.7c2,2,2,5.2,0,7.2"/>
	</g>
	<g id="POLYLINE_47069_">
		<line class="st5" x1="61.6" y1="80.3" x2="61.6" y2="74.1"/>
	</g>
	<g id="POLYLINE_47068_">
		<line class="st5" x1="60" y1="80.3" x2="60" y2="74.1"/>
	</g>
	<g id="POLYLINE_47067_">
		<line class="st5" x1="58.5" y1="80.3" x2="58.5" y2="74.1"/>
	</g>
	<g id="POLYLINE_47066_">
		<line class="st5" x1="56.9" y1="80.3" x2="56.9" y2="74.1"/>
	</g>
	<g id="POLYLINE_47065_">
		<line class="st5" x1="55.4" y1="80.3" x2="55.4" y2="74.1"/>
	</g>
	<g id="POLYLINE_47064_">
		<line class="st5" x1="53.8" y1="80.3" x2="53.8" y2="74.1"/>
	</g>
	<g id="POLYLINE_47063_">
		<line class="st5" x1="52.3" y1="80.3" x2="52.3" y2="74.1"/>
	</g>
	<g id="POLYLINE_47062_">
		<line class="st5" x1="50.7" y1="80.3" x2="50.7" y2="74.1"/>
	</g>
	<g id="POLYLINE_47061_">
		<line class="st5" x1="47.6" y1="77.2" x2="47.6" y2="74.1"/>
	</g>
	<g id="POLYLINE_47060_">
		<polyline class="st5" points="45.8,73.7 61.6,73.7 61.6,74.1 46,74.1 		"/>
	</g>
	<g id="POLYLINE_47059_">
		<line class="st5" x1="59.5" y1="89.1" x2="33.8" y2="89.1"/>
	</g>
	<g id="POLYLINE_47058_">
		<polyline class="st5" points="36.2,89.1 36.2,83.4 57.4,83.4 57.4,89.1 		"/>
	</g>
	<g id="POLYLINE_47057_">
		<line class="st5" x1="5.9" y1="61.3" x2="0.8" y2="61.3"/>
	</g>
	<g id="ARC_3828_">
		<path class="st5" d="M0.8,61.3c0,2.8,2.3,5.1,5.1,5.1"/>
	</g>
	<g id="POLYLINE_47056_">
		<line class="st5" x1="5.9" y1="68.7" x2="3.6" y2="68.7"/>
	</g>
	<g id="ARC_3827_">
		<path class="st5" d="M3.6,68.7c0-1.3,1-2.3,2.3-2.3"/>
	</g>
	<g id="POLYLINE_47055_">
		<line class="st5" x1="88" y1="85.5" x2="86.4" y2="83.9"/>
	</g>
	<g id="ARC_3826_">
		<path class="st5" d="M86.4,83.9c0.9-0.9,2.3-0.9,3.2,0"/>
	</g>
	<g id="POLYLINE_47054_">
		<line class="st5" x1="92.1" y1="78.5" x2="93.7" y2="76.9"/>
	</g>
	<g id="ARC_3825_">
		<path class="st5" d="M93.7,76.9c-0.9-0.9-2.3-0.8-3.2,0"/>
	</g>
</g>
<g id="PLAN_x24_CLOISON_TRANSLUCIDE">
</g>
<g id="PLAN_x24_CLOISON_1.3">
	<g id="POLYLINE_47215_">
		<polyline class="st6" points="49.7,49.5 49.7,54.8 49.4,54.8 49.4,54.5 42.2,54.5 42.2,54.3 49.4,54.3 49.4,49.5 		"/>
	</g>
</g>
<g id="PLAN_x24_CLOISON_1.2">
	<g id="POLYLINE_47241_">
		<polyline class="st7" points="32.7,2.6 32.7,22.4 33.2,22.4 33.2,2.6 		"/>
	</g>
	<g id="POLYLINE_47240_">
		<polyline class="st7" points="59.9,44.4 67.9,44.4 67.9,54.2 68.5,54.2 68.5,29.3 86.2,29.3 86.2,59.9 68.5,59.9 68.5,59.3 
			67.9,59.3 67.9,60.4 86.8,60.4 86.8,31.7 114.2,31.7 		"/>
	</g>
	<g id="POLYLINE_47239_">
		<polyline class="st7" points="59.4,44.4 42.2,44.4 42.2,59.9 59.4,59.9 59.4,49.5 59.9,49.5 59.9,60.4 41.6,60.4 41.6,43.8 
			67.9,43.8 67.9,31.7 41.7,31.7 41.7,31.2 67.9,31.2 67.9,28.7 86.8,28.7 86.8,31.2 114.2,31.2 		"/>
	</g>
	<g id="POLYLINE_47238_">
		<polyline class="st7" points="59.6,80.8 33.2,80.8 33.2,65.4 32.7,65.4 32.7,81.4 		"/>
	</g>
	<g id="POLYLINE_47237_">
		<rect x="32.7" y="49.7" class="st7" width="0.6" height="2"/>
	</g>
	<g id="POLYLINE_47236_">
		<polyline class="st7" points="6.4,44.2 32.7,44.2 32.7,44.6 33.2,44.6 33.2,43.3 32.7,43.3 32.7,43.7 6.4,43.7 		"/>
	</g>
	<g id="POLYLINE_47235_">
		<rect x="32.7" y="36" class="st7" width="0.6" height="2.1"/>
	</g>
	<g id="POLYLINE_47234_">
		<polyline class="st7" points="32.7,80.8 32.7,81.4 59.5,81.4 59.5,89.1 60.8,89.1 87,89.1 		"/>
	</g>
	<g id="POLYLINE_47233_">
		<polyline class="st7" points="60,88.5 60,80.8 59.5,80.8 		"/>
	</g>
	<g id="POLYLINE_47232_">
		<polyline class="st7" points="33.2,88.5 6.4,88.5 6.4,89.1 33.4,89.1 		"/>
	</g>
	<g id="LINE_6607_">
		<line class="st7" x1="86.8" y1="88.5" x2="61.2" y2="88.5"/>
	</g>
	<g id="POLYLINE_47231_">
		<path class="st7" d="M49.4,44.4c0,0,0.3,0,0.3,0"/>
	</g>
	<g id="POLYLINE_47230_">
		<line class="st7" x1="49.7" y1="49.5" x2="49.4" y2="49.5"/>
	</g>
	<g id="POLYLINE_47229_">
		<line class="st7" x1="57.5" y1="44.4" x2="62.2" y2="44.4"/>
	</g>
</g>
<g id="PLAN_x24_CLOISON_1.1">
</g>
<g id="PLAN_x24_STRUCTURE_2.3">
</g>
<g id="PLAN_x24_STRUCTURE_2.2">
</g>
<g id="PLAN_x24_STRUCTURE_2.1">
</g>
<g id="PLAN_x24_STRUCTURE_1.3">
	<g id="POLYLINE_46632_">
		<rect x="114.8" y="39.5" class="st8" width="1.1" height="9.8"/>
	</g>
	<g id="POLYLINE_46631_">
		<rect x="114.8" y="56.7" class="st8" width="1.1" height="7.1"/>
	</g>
	<g id="POLYLINE_46630_">
		<rect x="114.8" y="17.2" class="st8" width="1.1" height="14.9"/>
	</g>
	<g id="POLYLINE_46629_">
		<rect x="83.7" y="0.9" class="st8" width="13" height="1.1"/>
	</g>
	<g id="POLYLINE_46628_">
		<polygon class="st8" points="104.2,2.1 104.2,0.9 114.2,0.9 114.8,0.9 115.9,0.9 115.9,9.9 114.8,9.9 114.8,2.1 114.2,2.1 		"/>
	</g>
	<g id="POLYLINE_46627_">
		<rect x="24.4" y="0.9" class="st8" width="13" height="1.1"/>
	</g>
	<g id="POLYLINE_46626_">
		<rect x="58.4" y="0.9" class="st8" width="4.3" height="1.1"/>
	</g>
	<g id="POLYLINE_46625_">
		<rect x="5.3" y="83.4" class="st8" width="1.1" height="5.7"/>
	</g>
	<g id="POLYLINE_46624_">
		<rect x="5.3" y="68.7" class="st8" width="1.1" height="6.8"/>
	</g>
	<g id="POLYLINE_46623_">
		<rect x="5.3" y="53.3" class="st8" width="1.1" height="8"/>
	</g>
	<g id="POLYLINE_46622_">
		<rect x="5.3" y="38.6" class="st8" width="1.1" height="7.3"/>
	</g>
	<g id="POLYLINE_46621_">
		<polygon class="st8" points="5.3,31.3 6.4,31.3 6.4,2.1 7,2.1 17,2.1 17,0.9 7,0.9 6.4,0.9 5.3,0.9 		"/>
	</g>
	<g id="POLYLINE_46620_">
		<polygon class="st8" points="114.8,80.1 93.6,80.1 93.6,79.2 114.8,79.2 114.8,71.2 115.9,71.2 115.9,80.1 		"/>
	</g>
	<g id="CIRCLE_1522_">
		<path class="st8" d="M33.2,30.1c0-0.3,0.3-0.6,0.6-0.6s0.6,0.3,0.6,0.6s-0.3,0.6-0.6,0.6S33.2,30.4,33.2,30.1L33.2,30.1z"/>
	</g>
	<g id="CIRCLE_1521_">
		<path class="st8" d="M60,30.1c0-0.3,0.3-0.6,0.6-0.6s0.6,0.3,0.6,0.6s-0.3,0.6-0.6,0.6S60,30.4,60,30.1L60,30.1z"/>
	</g>
	<g id="CIRCLE_1520_">
		<path class="st8" d="M86.8,30.1c0-0.3,0.3-0.6,0.6-0.6s0.6,0.3,0.6,0.6s-0.3,0.6-0.6,0.6C87.1,30.7,86.8,30.4,86.8,30.1L86.8,30.1
			z"/>
	</g>
	<g id="CIRCLE_1519_">
		<path class="st8" d="M86.8,59.3c0-0.3,0.3-0.6,0.6-0.6S88,59,88,59.3s-0.3,0.6-0.6,0.6C87.1,59.9,86.8,59.6,86.8,59.3L86.8,59.3z"
			/>
	</g>
	<g id="CIRCLE_1518_">
		<path class="st8" d="M60,59.3c0-0.3,0.3-0.6,0.6-0.6s0.6,0.3,0.6,0.6s-0.3,0.6-0.6,0.6C60.3,59.9,60,59.6,60,59.3L60,59.3z"/>
	</g>
	<g id="CIRCLE_1517_">
		<path class="st8" d="M33.2,59.3c0-0.3,0.3-0.6,0.6-0.6s0.6,0.3,0.6,0.6s-0.3,0.6-0.6,0.6C33.5,59.9,33.2,59.6,33.2,59.3L33.2,59.3
			z"/>
	</g>
	<g id="CIRCLE_1516_">
		<path class="st8" d="M86.8,88.5c0-0.3,0.3-0.6,0.6-0.6s0.6,0.3,0.6,0.6s-0.3,0.6-0.6,0.6C87.1,89.1,86.8,88.8,86.8,88.5L86.8,88.5
			z"/>
	</g>
	<g id="CIRCLE_1515_">
		<path class="st8" d="M60,88.5c0-0.3,0.3-0.6,0.6-0.6s0.6,0.3,0.6,0.6s-0.3,0.6-0.6,0.6S60,88.8,60,88.5L60,88.5z"/>
	</g>
	<g id="CIRCLE_1514_">
		<path class="st8" d="M33.2,88.5c0-0.3,0.3-0.6,0.6-0.6s0.6,0.3,0.6,0.6s-0.3,0.6-0.6,0.6S33.2,88.8,33.2,88.5L33.2,88.5z"/>
	</g>
</g>
<g id="PLAN_x24_STRUCTURE_1.2">
</g>
<g id="PLAN_x24_STRUCTURE_1.1">
</g>
</svg>
