<?xml version="1.0" encoding="utf-8"?>
<!-- Generator: Adobe Illustrator 22.0.1, SVG Export Plug-In . SVG Version: 6.00 Build 0)  -->
<svg version="1.1" id="Calque_1" xmlns="http://www.w3.org/2000/svg" xmlns:xlink="http://www.w3.org/1999/xlink" x="0px" y="0px"
	 viewBox="0 0 253.6 195.8" style="enable-background:new 0 0 253.6 195.8;" xml:space="preserve">
<style type="text/css">
	.st0{display:none;}
	.st1{display:inline;}
	.st2{fill:none;}
	.st3{fill:none;stroke:#000000;stroke-width:0.2;stroke-linecap:square;stroke-miterlimit:10;stroke-dasharray:1,1;}
	.st4{fill:none;stroke:#000000;stroke-width:0.1;stroke-linecap:square;stroke-miterlimit:10;}
	.st5{fill:none;stroke:#000000;stroke-width:0.16;stroke-linecap:square;stroke-miterlimit:10;}
	.st6{fill:none;stroke:#000000;stroke-width:0.28;stroke-linecap:square;stroke-miterlimit:10;}
	.st7{fill:none;stroke:#000000;stroke-width:0.36;stroke-linecap:square;stroke-miterlimit:10;}
	.st8{fill:none;stroke:#000000;stroke-width:0.82;stroke-linecap:square;stroke-miterlimit:10;}
</style>
<g id="Calque_1_1_">
</g>
<g id="INFOS_x24_A4" class="st0">
	<g id="POLYLINE_46619_" class="st1">
		<rect x="-174.3" y="-339.2" class="st2" width="595.3" height="841.9"/>
	</g>
</g>
<g id="PLAN_x24_FOND">
</g>
<g id="PLAN_x24_POINTILLE">
	<g id="POLYLINE_47273_">
		<polyline class="st3" points="101.8,155.3 109,169.5 78.2,169.5 78.2,153.9 79.2,153.9 79.2,168.5 107,168.5 		"/>
	</g>
	<g id="POLYLINE_47272_">
		<line class="st3" x1="105.4" y1="168.5" x2="105.4" y2="165.3"/>
	</g>
	<g id="POLYLINE_47271_">
		<line class="st3" x1="102.2" y1="168.5" x2="102.2" y2="158.9"/>
	</g>
	<g id="POLYLINE_47270_">
		<polyline class="st3" points="100.8,156.1 91.6,156.1 91.6,153.9 92.6,153.9 92.6,155.3 100.4,155.3 		"/>
	</g>
	<g id="POLYLINE_47269_">
		<line class="st3" x1="107.4" y1="169.5" x2="100.4" y2="155.1"/>
	</g>
	<g id="POLYLINE_47268_">
		<line class="st3" x1="99.2" y1="168.5" x2="99.2" y2="156.1"/>
	</g>
	<g id="POLYLINE_47267_">
		<line class="st3" x1="96" y1="168.5" x2="96" y2="156.1"/>
	</g>
	<g id="POLYLINE_47266_">
		<line class="st3" x1="94.4" y1="156.1" x2="90.6" y2="168.5"/>
	</g>
	<g id="POLYLINE_47265_">
		<line class="st3" x1="93.2" y1="156.1" x2="85.2" y2="168.5"/>
	</g>
	<g id="POLYLINE_47264_">
		<line class="st3" x1="91.6" y1="156.1" x2="79.2" y2="166.3"/>
	</g>
	<g id="POLYLINE_47263_">
		<line class="st3" x1="91.6" y1="155.1" x2="79.2" y2="159.3"/>
	</g>
	<g id="POLYLINE_47262_">
		<line class="st3" x1="79.2" y1="153.9" x2="91.6" y2="153.9"/>
	</g>
</g>
<g id="PLAN_x24_VITRAGE">
	<g id="POLYLINE_46899_">
		<polyline class="st4" points="186.2,184.9 186.2,179.5 186.4,179.1 186,178.7 185.6,179.3 185.6,183.9 		"/>
	</g>
	<g id="POLYLINE_46898_">
		<polyline class="st4" points="197.4,167.3 194.6,164.7 194.2,165.1 197.4,168.1 196.8,168.7 196.4,168.3 197,167.7 		"/>
	</g>
	<g id="POLYLINE_46897_">
		<polygon class="st4" points="183.8,154.1 183.8,128.7 183.2,128.7 183.2,154.3 183.6,154.7 184,154.3 		"/>
	</g>
	<g id="POLYLINE_46896_">
		<polyline class="st4" points="24.2,128.5 76.4,128.5 76.4,111.3 		"/>
	</g>
	<g id="POLYLINE_46895_">
		<polyline class="st4" points="24.2,127.9 75.8,127.9 75.8,111.3 		"/>
	</g>
	<g id="POLYLINE_46894_">
		<polyline class="st4" points="76.4,79.9 76.6,62.9 24.2,62.9 		"/>
	</g>
	<g id="POLYLINE_46893_">
		<polyline class="st4" points="75.8,79.9 76,63.5 24.2,63.5 		"/>
	</g>
	<g id="POLYLINE_46892_">
		<rect x="93.4" y="81.7" class="st4" width="0.6" height="14"/>
	</g>
	<g id="POLYLINE_46891_">
		<line class="st4" x1="23" y1="174.7" x2="23" y2="158.7"/>
	</g>
	<g id="POLYLINE_46890_">
		<line class="st4" x1="23" y1="114.5" x2="23" y2="99.7"/>
	</g>
	<g id="POLYLINE_46889_">
		<line class="st4" x1="23" y1="85.1" x2="23" y2="70.5"/>
	</g>
	<g id="POLYLINE_46888_">
		<line class="st4" x1="44.2" y1="12.1" x2="59" y2="12.1"/>
	</g>
	<g id="POLYLINE_46887_">
		<line class="st4" x1="85" y1="12.1" x2="127" y2="12.1"/>
	</g>
	<g id="POLYLINE_46886_">
		<line class="st4" x1="135.8" y1="12.1" x2="177.6" y2="12.1"/>
	</g>
	<g id="POLYLINE_46885_">
		<line class="st4" x1="203.8" y1="12.1" x2="218.6" y2="12.1"/>
	</g>
	<g id="POLYLINE_46884_">
		<line class="st4" x1="239.8" y1="27.7" x2="239.8" y2="42.3"/>
	</g>
	<g id="POLYLINE_46883_">
		<line class="st4" x1="239.8" y1="72.1" x2="239.8" y2="86.9"/>
	</g>
	<g id="POLYLINE_46882_">
		<line class="st4" x1="239.8" y1="106.5" x2="239.8" y2="121.3"/>
	</g>
	<g id="POLYLINE_46881_">
		<line class="st4" x1="239.8" y1="135.5" x2="239.8" y2="150.3"/>
	</g>
	<g id="POLYLINE_46868_">
		<polyline class="st4" points="77.8,183.9 77.8,170.7 78.4,170.7 78.4,183.9 		"/>
	</g>
</g>
<g id="PLAN_x24_MOBILIER">
	<g id="POLYLINE_47041_">
		<rect x="34.2" y="33.1" class="st5" width="9.2" height="20"/>
	</g>
	<g id="POLYLINE_47040_">
		<rect x="30.8" y="40.5" class="st5" width="3.4" height="4.6"/>
	</g>
	<g id="POLYLINE_47039_">
		<rect x="45.4" y="38.9" class="st5" width="4.6" height="4.6"/>
	</g>
	<g id="POLYLINE_47038_">
		<rect x="45.4" y="47.3" class="st5" width="4.6" height="4.6"/>
	</g>
	<g id="POLYLINE_47037_">
		<rect x="24.2" y="53.1" class="st5" width="10" height="9.8"/>
	</g>
	<g id="ARC_3824_">
		<path class="st5" d="M34.2,62.9c5.2-0.2,9.2-4.6,9.2-9.8"/>
	</g>
	<g id="POLYLINE_47036_">
		<rect x="36.4" y="63.5" class="st5" width="9.2" height="19"/>
	</g>
	<g id="POLYLINE_47035_">
		<rect x="33" y="73.7" class="st5" width="3.4" height="4.6"/>
	</g>
	<g id="POLYLINE_47034_">
		<rect x="27" y="63.5" class="st5" width="9.6" height="7"/>
	</g>
	<g id="POLYLINE_47033_">
		<rect x="36.4" y="108.9" class="st5" width="9.2" height="19"/>
	</g>
	<g id="POLYLINE_47032_">
		<rect x="33" y="113.1" class="st5" width="3.4" height="4.6"/>
	</g>
	<g id="POLYLINE_47031_">
		<rect x="27" y="120.9" class="st5" width="9.6" height="7"/>
	</g>
	<g id="POLYLINE_47030_">
		<rect x="98.6" y="13.1" class="st5" width="9.4" height="18.4"/>
	</g>
	<g id="POLYLINE_47029_">
		<rect x="95.2" y="17.7" class="st5" width="3.4" height="4.6"/>
	</g>
	<g id="POLYLINE_47028_">
		<rect x="117.4" y="17.7" class="st5" width="3.4" height="4.6"/>
	</g>
	<g id="POLYLINE_47027_">
		<rect x="108" y="13.1" class="st5" width="9.4" height="18.4"/>
	</g>
	<g id="POLYLINE_47026_">
		<rect x="117.4" y="27.3" class="st5" width="9.2" height="4.4"/>
	</g>
	<g id="POLYLINE_47025_">
		<rect x="89.4" y="27.3" class="st5" width="9.2" height="4.4"/>
	</g>
	<g id="POLYLINE_47024_">
		<rect x="89.2" y="31.5" class="st5" width="37.4" height="1"/>
	</g>
	<g id="POLYLINE_47023_">
		<rect x="89.4" y="32.5" class="st5" width="9.2" height="4.4"/>
	</g>
	<g id="POLYLINE_47022_">
		<rect x="117.4" y="32.5" class="st5" width="9.2" height="4.4"/>
	</g>
	<g id="POLYLINE_47021_">
		<rect x="108" y="32.5" class="st5" width="9.4" height="18.4"/>
	</g>
	<g id="POLYLINE_47020_">
		<rect x="117.4" y="41.9" class="st5" width="3.4" height="4.6"/>
	</g>
	<g id="POLYLINE_47019_">
		<rect x="95.2" y="41.9" class="st5" width="3.4" height="4.6"/>
	</g>
	<g id="POLYLINE_47018_">
		<rect x="98.6" y="32.5" class="st5" width="9.4" height="18.4"/>
	</g>
	<g id="POLYLINE_47017_">
		<rect x="148.2" y="32.5" class="st5" width="9.4" height="18.4"/>
	</g>
	<g id="POLYLINE_47016_">
		<rect x="144.8" y="41.9" class="st5" width="3.4" height="4.6"/>
	</g>
	<g id="POLYLINE_47015_">
		<rect x="167" y="41.9" class="st5" width="3.4" height="4.6"/>
	</g>
	<g id="POLYLINE_47014_">
		<rect x="157.6" y="32.5" class="st5" width="9.4" height="18.4"/>
	</g>
	<g id="POLYLINE_47013_">
		<rect x="167" y="32.5" class="st5" width="9.2" height="4.4"/>
	</g>
	<g id="POLYLINE_47012_">
		<rect x="139.2" y="32.5" class="st5" width="9.2" height="4.4"/>
	</g>
	<g id="POLYLINE_47011_">
		<rect x="139" y="31.5" class="st5" width="37.4" height="1"/>
	</g>
	<g id="POLYLINE_47010_">
		<rect x="139.2" y="27.3" class="st5" width="9.2" height="4.4"/>
	</g>
	<g id="POLYLINE_47009_">
		<rect x="167" y="27.3" class="st5" width="9.2" height="4.4"/>
	</g>
	<g id="POLYLINE_47008_">
		<rect x="157.6" y="13.1" class="st5" width="9.4" height="18.4"/>
	</g>
	<g id="POLYLINE_47007_">
		<rect x="167" y="17.7" class="st5" width="3.4" height="4.6"/>
	</g>
	<g id="POLYLINE_47006_">
		<rect x="144.8" y="17.7" class="st5" width="3.4" height="4.6"/>
	</g>
	<g id="POLYLINE_47005_">
		<rect x="148.2" y="13.1" class="st5" width="9.4" height="18.4"/>
	</g>
	<g id="POLYLINE_47004_">
		<rect x="198.4" y="32.5" class="st5" width="9.4" height="18.4"/>
	</g>
	<g id="POLYLINE_47003_">
		<rect x="195" y="41.9" class="st5" width="3.4" height="4.6"/>
	</g>
	<g id="POLYLINE_47002_">
		<rect x="217" y="41.9" class="st5" width="3.4" height="4.6"/>
	</g>
	<g id="POLYLINE_47001_">
		<rect x="207.6" y="32.5" class="st5" width="9.4" height="18.4"/>
	</g>
	<g id="POLYLINE_47000_">
		<rect x="217" y="32.5" class="st5" width="9.2" height="4.4"/>
	</g>
	<g id="POLYLINE_46999_">
		<rect x="189.2" y="32.5" class="st5" width="9.2" height="4.4"/>
	</g>
	<g id="POLYLINE_46998_">
		<rect x="189" y="31.5" class="st5" width="37.4" height="1"/>
	</g>
	<g id="POLYLINE_46997_">
		<rect x="189.2" y="27.3" class="st5" width="9.2" height="4.4"/>
	</g>
	<g id="POLYLINE_46996_">
		<rect x="217" y="27.3" class="st5" width="9.2" height="4.4"/>
	</g>
	<g id="POLYLINE_46995_">
		<rect x="207.6" y="13.1" class="st5" width="9.4" height="18.4"/>
	</g>
	<g id="POLYLINE_46994_">
		<rect x="217" y="17.7" class="st5" width="3.4" height="4.6"/>
	</g>
	<g id="POLYLINE_46993_">
		<rect x="195" y="17.7" class="st5" width="3.4" height="4.6"/>
	</g>
	<g id="POLYLINE_46992_">
		<rect x="198.4" y="13.1" class="st5" width="9.4" height="18.4"/>
	</g>
	<g id="POLYLINE_46991_">
		<rect x="159.4" y="80.1" class="st5" width="13.8" height="35.2"/>
	</g>
	<g id="POLYLINE_46990_">
		<rect x="156" y="85.5" class="st5" width="3.4" height="4.6"/>
	</g>
	<g id="POLYLINE_46989_">
		<rect x="156" y="95.5" class="st5" width="3.4" height="4.6"/>
	</g>
	<g id="POLYLINE_46988_">
		<rect x="156" y="105.3" class="st5" width="3.4" height="4.6"/>
	</g>
	<g id="POLYLINE_46987_">
		<rect x="173.2" y="105.3" class="st5" width="3.4" height="4.6"/>
	</g>
	<g id="POLYLINE_46986_">
		<rect x="173.2" y="95.5" class="st5" width="3.4" height="4.6"/>
	</g>
	<g id="POLYLINE_46985_">
		<rect x="173.2" y="85.5" class="st5" width="3.4" height="4.6"/>
	</g>
	<g id="POLYLINE_46984_">
		<rect x="183.8" y="71.3" class="st5" width="14.6" height="9.8"/>
	</g>
	<g id="POLYLINE_46983_">
		<rect x="216.4" y="71.3" class="st5" width="16.2" height="9.2"/>
	</g>
	<g id="POLYLINE_46982_">
		<rect x="183.8" y="83.9" class="st5" width="7.6" height="18.6"/>
	</g>
	<g id="POLYLINE_46981_">
		<rect x="183.8" y="103.5" class="st5" width="7.6" height="18.6"/>
	</g>
	<g id="POLYLINE_46980_">
		<rect x="186.4" y="122.5" class="st5" width="11.6" height="19.6"/>
	</g>
	<g id="POLYLINE_46979_">
		<rect x="214" y="115.7" class="st5" width="23.8" height="31.8"/>
	</g>
	<g id="POLYLINE_46978_">
		<rect x="223" y="98.5" class="st5" width="14.8" height="7"/>
	</g>
	<g id="POLYLINE_46977_">
		<rect x="223" y="89.1" class="st5" width="14.8" height="7"/>
	</g>
	<g id="POLYLINE_46976_">
		<rect x="210.2" y="156.9" class="st5" width="28.4" height="9.4"/>
	</g>
	<g id="POLYLINE_46975_">
		<line class="st5" x1="224.4" y1="156.9" x2="224.4" y2="166.3"/>
	</g>
	<g id="POLYLINE_46974_">
		<polygon class="st5" points="146.6,139.1 146.6,147.3 183.2,147.3 183.2,128.7 173.2,128.7 173.2,139.1 		"/>
	</g>
	<g id="POLYLINE_46973_">
		<line class="st5" x1="154.8" y1="147.3" x2="154.8" y2="139.1"/>
	</g>
	<g id="POLYLINE_46972_">
		<line class="st5" x1="154.8" y1="143.3" x2="183.2" y2="143.3"/>
	</g>
	<g id="POLYLINE_46971_">
		<rect x="165.4" y="132.3" class="st5" width="4.6" height="4.6"/>
	</g>
	<g id="POLYLINE_46970_">
		<rect x="93.6" y="65.3" class="st5" width="52.4" height="5"/>
	</g>
	<g id="POLYLINE_46969_">
		<rect x="94" y="87.1" class="st5" width="18" height="8.4"/>
	</g>
	<g id="POLYLINE_46968_">
		<rect x="115.8" y="85.9" class="st5" width="11.6" height="9.6"/>
	</g>
	<g id="POLYLINE_46967_">
		<rect x="137.2" y="86.3" class="st5" width="8.8" height="9.2"/>
	</g>
	<g id="POLYLINE_46966_">
		<rect x="122.8" y="117.1" class="st5" width="6.2" height="10.6"/>
	</g>
	<g id="SPLINE_1433_">
		<path class="st5" d="M127.6,122.5c0-1.8-0.6-2.6-1.6-2.6s-1.6,0.8-1.6,2.6s0.6,2.6,1.6,2.6S127.6,124.1,127.6,122.5z"/>
	</g>
	<g id="CIRCLE_1530_">
		<path class="st5" d="M126.2,122.5c0-0.2,0.2-0.4,0.4-0.4s0.4,0.2,0.4,0.4s-0.2,0.4-0.4,0.4S126.2,122.7,126.2,122.5L126.2,122.5z"
			/>
	</g>
	<g id="SPLINE_1432_">
		<path class="st5" d="M97.4,113.9c0.4,0.2,1,0.2,1.4,0.2s0.8,0,1,0c0.4,0,1,0,1.4-0.2c0.2,0,0.4-0.2,0.6-0.4
			c0.2-0.4,0.4-0.8,0.4-1.2c0-0.2,0-0.4,0-0.6c0-0.4-0.2-0.6-0.4-0.8c-0.4-0.4-0.8-0.6-1.4-0.6s-1-0.2-1.6,0c-0.4,0-0.8,0-1,0.2
			c-0.2,0-0.4,0-0.6,0.2"/>
	</g>
	<g id="POLYLINE_46965_">
		<rect x="94.6" y="109.1" class="st5" width="3" height="6"/>
	</g>
	<g id="SPLINE_1431_">
		<path class="st5" d="M97.4,124.1c0.4,0.2,1,0.2,1.4,0.2s0.8,0,1,0c0.4,0,1,0,1.4-0.2c0.2,0,0.4-0.2,0.6-0.4
			c0.2-0.4,0.4-0.8,0.4-1.2c0-0.2,0-0.4,0-0.6c0-0.4-0.2-0.6-0.4-0.8c-0.4-0.4-0.8-0.6-1.4-0.6s-1-0.2-1.6,0c-0.4,0-0.8,0-1,0.2
			c-0.2,0-0.4,0-0.6,0.2"/>
	</g>
	<g id="POLYLINE_46964_">
		<rect x="94.6" y="119.3" class="st5" width="3" height="6"/>
	</g>
	<g id="CIRCLE_1529_">
		<path class="st5" d="M56,26.1c0-3.8,3.2-7,7-7c3.8,0,7,3.2,7,7s-3.2,7-7,7C59,33.1,56,29.9,56,26.1L56,26.1z"/>
	</g>
	<g id="POLYLINE_46963_">
		
			<rect x="53.6" y="30.6" transform="matrix(0.7091 -0.7051 0.7051 0.7091 -6.9402 48.9737)" class="st5" width="4.6" height="4.6"/>
	</g>
	<g id="POLYLINE_46962_">
		
			<rect x="67.5" y="30.9" transform="matrix(0.7091 -0.7051 0.7051 0.7091 -3.0769 58.9005)" class="st5" width="4.6" height="4.6"/>
	</g>
	<g id="POLYLINE_46961_">
		<rect x="67.8" y="16.9" transform="matrix(0.7091 -0.7051 0.7051 0.7091 6.8504 55.0368)" class="st5" width="4.6" height="4.6"/>
	</g>
	<g id="POLYLINE_46960_">
		<rect x="53.7" y="16.5" transform="matrix(0.7091 -0.7051 0.7051 0.7091 3.0461 44.9695)" class="st5" width="4.6" height="4.6"/>
	</g>
	<g id="CIRCLE_1528_">
		<path class="st5" d="M49.4,144.1c0-2.2,1.8-4,4-4s4,1.8,4,4s-1.8,4-4,4S49.4,146.3,49.4,144.1L49.4,144.1z"/>
	</g>
	<g id="POLYLINE_46959_">
		<rect x="44.4" y="141.9" class="st5" width="4.6" height="4.6"/>
	</g>
	<g id="POLYLINE_46958_">
		<rect x="51.4" y="148.5" class="st5" width="4.6" height="4.6"/>
	</g>
	<g id="POLYLINE_46957_">
		<rect x="58" y="141.5" class="st5" width="4.6" height="4.6"/>
	</g>
	<g id="POLYLINE_46956_">
		<rect x="51" y="134.9" class="st5" width="4.6" height="4.6"/>
	</g>
	<g id="POLYLINE_46955_">
		<rect x="31.4" y="150.7" class="st5" width="4.6" height="4.6"/>
	</g>
	<g id="POLYLINE_46954_">
		<rect x="38.4" y="157.3" class="st5" width="4.6" height="4.6"/>
	</g>
	<g id="POLYLINE_46953_">
		<rect x="31.8" y="164.3" class="st5" width="4.6" height="4.6"/>
	</g>
	<g id="POLYLINE_46952_">
		<rect x="24.8" y="157.7" class="st5" width="4.6" height="4.6"/>
	</g>
	<g id="CIRCLE_1527_">
		<path class="st5" d="M29.8,159.7c0-2.2,1.8-4,4-4s4,1.8,4,4s-1.8,4-4,4S29.8,161.9,29.8,159.7L29.8,159.7z"/>
	</g>
	<g id="CIRCLE_1526_">
		<path class="st5" d="M57.4,165.3c0-2.2,1.8-4,4-4s4,1.8,4,4s-1.8,4-4,4S57.4,167.5,57.4,165.3L57.4,165.3z"/>
	</g>
	<g id="POLYLINE_46951_">
		<rect x="52.4" y="163.1" class="st5" width="4.6" height="4.6"/>
	</g>
	<g id="POLYLINE_46950_">
		<rect x="59.4" y="169.7" class="st5" width="4.6" height="4.6"/>
	</g>
	<g id="POLYLINE_46949_">
		<rect x="66" y="162.7" class="st5" width="4.6" height="4.6"/>
	</g>
	<g id="POLYLINE_46948_">
		<rect x="59" y="156.1" class="st5" width="4.6" height="4.6"/>
	</g>
	<g id="POLYLINE_46947_">
		<rect x="24.2" y="177.5" class="st5" width="35.6" height="7.4"/>
	</g>
	<g id="POLYLINE_46946_">
		<line class="st5" x1="31.2" y1="184.9" x2="31.2" y2="177.5"/>
	</g>
	<g id="POLYLINE_46945_">
		<line class="st5" x1="38.4" y1="184.9" x2="38.4" y2="177.5"/>
	</g>
	<g id="POLYLINE_46944_">
		<line class="st5" x1="52.8" y1="184.9" x2="52.8" y2="177.5"/>
	</g>
	<g id="POLYLINE_46943_">
		<rect x="40.4" y="178.3" class="st5" width="8.4" height="5.8"/>
	</g>
	<g id="CIRCLE_1525_">
		<path class="st5" d="M41.6,182.7c0-0.2,0.2-0.6,0.6-0.6c0.2,0,0.6,0.2,0.6,0.6s-0.2,0.6-0.6,0.6C42,183.1,41.6,182.9,41.6,182.7
			L41.6,182.7z"/>
	</g>
	<g id="POLYLINE_46942_">
		<rect x="183.8" y="65.3" class="st5" width="54.8" height="5"/>
	</g>
	<g id="CIRCLE_1524_">
		<path class="st5" d="M149.2,176.9c0-3,2.4-5.6,5.6-5.6s5.4,2.6,5.4,5.6s-2.4,5.6-5.6,5.6S149.2,179.9,149.2,176.9L149.2,176.9z"/>
	</g>
	<g id="ARC_3823_">
		<path class="st5" d="M151,180.9c3.4,0.8,6.8-1.2,7.6-4.6c0.2-1.2,0.2-2.2,0-3.4"/>
	</g>
	<g id="ARC_3822_">
		<path class="st5" d="M132.4,173.7c-0.4,3.4,2,6.6,5.4,7c1.2,0.2,2.2,0,3.4-0.4"/>
	</g>
	<g id="CIRCLE_1523_">
		<path class="st5" d="M131.2,176.9c0-3,2.4-5.6,5.6-5.6c3,0,5.4,2.4,5.4,5.6s-2.4,5.6-5.4,5.6C133.8,182.5,131.2,179.9,131.2,176.9
			L131.2,176.9z"/>
	</g>
	<g id="POLYLINE_46941_">
		<rect x="142.8" y="178.1" class="st5" width="5.8" height="5.4"/>
	</g>
</g>
<g id="PLAN_x24_DETAIL">
	<g id="POLYLINE_47104_">
		<polyline class="st5" points="109,169.5 133.4,169.5 133.4,168.5 108.6,168.5 108.6,156.1 		"/>
	</g>
	<g id="POLYLINE_47103_">
		<polyline class="st5" points="23,130.5 24.2,130.5 24.2,13.1 238.6,13.1 238.6,166.3 		"/>
	</g>
	<g id="POLYLINE_47102_">
		<polyline class="st5" points="23,145.3 24.2,145.3 24.2,184.9 		"/>
	</g>
	<g id="POLYLINE_47101_">
		<line class="st5" x1="20.8" y1="70.5" x2="20.8" y2="85.1"/>
	</g>
	<g id="POLYLINE_47100_">
		<line class="st5" x1="20.8" y1="99.7" x2="20.8" y2="114.5"/>
	</g>
	<g id="POLYLINE_47099_">
		<line class="st5" x1="20.8" y1="158.7" x2="20.8" y2="174.7"/>
	</g>
	<g id="POLYLINE_47098_">
		<line class="st5" x1="242" y1="150.3" x2="242" y2="135.5"/>
	</g>
	<g id="POLYLINE_47097_">
		<line class="st5" x1="242" y1="121.3" x2="242" y2="106.5"/>
	</g>
	<g id="POLYLINE_47096_">
		<line class="st5" x1="242" y1="86.9" x2="242" y2="72.1"/>
	</g>
	<g id="POLYLINE_47095_">
		<line class="st5" x1="242" y1="42.3" x2="242" y2="27.7"/>
	</g>
	<g id="POLYLINE_47094_">
		<line class="st5" x1="218.6" y1="9.7" x2="203.8" y2="9.7"/>
	</g>
	<g id="POLYLINE_47093_">
		<line class="st5" x1="177.6" y1="9.7" x2="135.8" y2="9.7"/>
	</g>
	<g id="POLYLINE_47092_">
		<line class="st5" x1="127" y1="9.7" x2="85" y2="9.7"/>
	</g>
	<g id="POLYLINE_47091_">
		<line class="st5" x1="59" y1="9.7" x2="44.2" y2="9.7"/>
	</g>
	<g id="POLYLINE_47090_">
		<line class="st5" x1="76" y1="52.7" x2="65.8" y2="52.7"/>
	</g>
	<g id="ARC_3839_">
		<path class="st5" d="M65.8,52.7c0,5.6,4.6,10.2,10.2,10.2"/>
	</g>
	<g id="POLYLINE_47089_">
		<line class="st5" x1="76" y1="97.1" x2="65.8" y2="97.1"/>
	</g>
	<g id="ARC_3838_">
		<path class="st5" d="M65.8,97.1c0,5.6,4.6,10.2,10.2,10.2"/>
	</g>
	<g id="POLYLINE_47088_">
		<line class="st5" x1="76" y1="94.5" x2="65.8" y2="94.5"/>
	</g>
	<g id="ARC_3837_">
		<path class="st5" d="M65.8,94.5c0-5.6,4.6-10.2,10.2-10.2"/>
	</g>
	<g id="POLYLINE_47087_">
		<line class="st5" x1="76" y1="128.5" x2="65.8" y2="128.5"/>
	</g>
	<g id="ARC_3836_">
		<path class="st5" d="M65.8,128.5c0,5.6,4.6,10.2,10.2,10.2"/>
	</g>
	<g id="POLYLINE_47086_">
		<line class="st5" x1="93.6" y1="71.3" x2="103.8" y2="71.3"/>
	</g>
	<g id="ARC_3835_">
		<path class="st5" d="M103.8,71.3c0,5.6-4.6,10.2-10.2,10.2"/>
	</g>
	<g id="POLYLINE_47085_">
		<line class="st5" x1="129.6" y1="96.7" x2="139.8" y2="96.7"/>
	</g>
	<g id="ARC_3834_">
		<path class="st5" d="M139.8,96.7c0,5.6-4.6,10.2-10.2,10.2"/>
	</g>
	<g id="POLYLINE_47084_">
		<line class="st5" x1="109.4" y1="127.7" x2="119.6" y2="127.7"/>
	</g>
	<g id="ARC_3833_">
		<path class="st5" d="M119.6,127.7c0-5.6-4.6-10.2-10.2-10.2"/>
	</g>
	<g id="POLYLINE_47083_">
		<line class="st5" x1="109.4" y1="96.7" x2="119.6" y2="96.7"/>
	</g>
	<g id="ARC_3832_">
		<path class="st5" d="M119.6,96.7c0,5.6-4.6,10.2-10.2,10.2"/>
	</g>
	<g id="POLYLINE_47072_">
		<line class="st5" x1="146" y1="126.5" x2="156.2" y2="126.5"/>
	</g>
	<g id="ARC_3831_">
		<path class="st5" d="M156.2,126.5c0-5.6-4.6-10.2-10.2-10.2"/>
	</g>
	<g id="POLYLINE_47071_">
		<line class="st5" x1="196.6" y1="168.5" x2="189.4" y2="161.3"/>
	</g>
	<g id="ARC_3830_">
		<path class="st5" d="M189.4,161.3c-4,4-4,10.4,0,14.4"/>
	</g>
	<g id="POLYLINE_47070_">
		<line class="st5" x1="183.8" y1="154.5" x2="191" y2="147.3"/>
	</g>
	<g id="ARC_3829_">
		<path class="st5" d="M191,147.3c4,4,4,10.4,0,14.4"/>
	</g>
	<g id="POLYLINE_47069_">
		<line class="st5" x1="133.4" y1="168.5" x2="133.4" y2="156.1"/>
	</g>
	<g id="POLYLINE_47068_">
		<line class="st5" x1="130.2" y1="168.5" x2="130.2" y2="156.1"/>
	</g>
	<g id="POLYLINE_47067_">
		<line class="st5" x1="127.2" y1="168.5" x2="127.2" y2="156.1"/>
	</g>
	<g id="POLYLINE_47066_">
		<line class="st5" x1="124" y1="168.5" x2="124" y2="156.1"/>
	</g>
	<g id="POLYLINE_47065_">
		<line class="st5" x1="121" y1="168.5" x2="121" y2="156.1"/>
	</g>
	<g id="POLYLINE_47064_">
		<line class="st5" x1="117.8" y1="168.5" x2="117.8" y2="156.1"/>
	</g>
	<g id="POLYLINE_47063_">
		<line class="st5" x1="114.8" y1="168.5" x2="114.8" y2="156.1"/>
	</g>
	<g id="POLYLINE_47062_">
		<line class="st5" x1="111.6" y1="168.5" x2="111.6" y2="156.1"/>
	</g>
	<g id="POLYLINE_47061_">
		<line class="st5" x1="105.4" y1="162.3" x2="105.4" y2="156.1"/>
	</g>
	<g id="POLYLINE_47060_">
		<polyline class="st5" points="101.8,155.3 133.4,155.3 133.4,156.1 102.2,156.1 		"/>
	</g>
	<g id="POLYLINE_47059_">
		<line class="st5" x1="129.2" y1="186.1" x2="77.8" y2="186.1"/>
	</g>
	<g id="POLYLINE_47058_">
		<polyline class="st5" points="82.6,186.1 82.6,174.7 125,174.7 125,186.1 		"/>
	</g>
	<g id="POLYLINE_47057_">
		<line class="st5" x1="22" y1="130.5" x2="11.8" y2="130.5"/>
	</g>
	<g id="ARC_3828_">
		<path class="st5" d="M11.8,130.5c0,5.6,4.6,10.2,10.2,10.2"/>
	</g>
	<g id="POLYLINE_47056_">
		<line class="st5" x1="22" y1="145.3" x2="17.4" y2="145.3"/>
	</g>
	<g id="ARC_3827_">
		<path class="st5" d="M17.4,145.3c0-2.6,2-4.6,4.6-4.6"/>
	</g>
	<g id="POLYLINE_47055_">
		<line class="st5" x1="186.2" y1="178.9" x2="183" y2="175.7"/>
	</g>
	<g id="ARC_3826_">
		<path class="st5" d="M183,175.7c1.8-1.8,4.6-1.8,6.4,0"/>
	</g>
	<g id="POLYLINE_47054_">
		<line class="st5" x1="194.4" y1="164.9" x2="197.6" y2="161.7"/>
	</g>
	<g id="ARC_3825_">
		<path class="st5" d="M197.6,161.7c-1.8-1.8-4.6-1.6-6.4,0"/>
	</g>
</g>
<g id="PLAN_x24_CLOISON_TRANSLUCIDE">
</g>
<g id="PLAN_x24_CLOISON_1.3">
	<g id="POLYLINE_47215_">
		<polyline class="st6" points="109.6,106.9 109.6,117.5 109,117.5 109,116.9 94.6,116.9 94.6,116.5 109,116.5 109,106.9 		"/>
	</g>
</g>
<g id="PLAN_x24_CLOISON_1.2">
	<g id="POLYLINE_47241_">
		<polyline class="st7" points="75.6,13.1 75.6,52.7 76.6,52.7 76.6,13.1 		"/>
	</g>
	<g id="POLYLINE_47240_">
		<polyline class="st7" points="130,96.7 146,96.7 146,116.3 147.2,116.3 147.2,66.5 182.6,66.5 182.6,127.7 147.2,127.7 
			147.2,126.5 146,126.5 146,128.7 183.8,128.7 183.8,71.3 238.6,71.3 		"/>
	</g>
	<g id="POLYLINE_47239_">
		<polyline class="st7" points="129,96.7 94.6,96.7 94.6,127.7 129,127.7 129,106.9 130,106.9 130,128.7 93.4,128.7 93.4,95.5 
			146,95.5 146,71.3 93.6,71.3 93.6,70.3 146,70.3 146,65.3 183.8,65.3 183.8,70.3 238.6,70.3 		"/>
	</g>
	<g id="POLYLINE_47238_">
		<polyline class="st7" points="129.4,169.5 76.6,169.5 76.6,138.7 75.6,138.7 75.6,170.7 		"/>
	</g>
	<g id="POLYLINE_47237_">
		<rect x="75.6" y="107.3" class="st7" width="1.2" height="4"/>
	</g>
	<g id="POLYLINE_47236_">
		<polyline class="st7" points="23,96.3 75.6,96.3 75.6,97.1 76.6,97.1 76.6,94.5 75.6,94.5 75.6,95.3 23,95.3 		"/>
	</g>
	<g id="POLYLINE_47235_">
		<rect x="75.6" y="79.9" class="st7" width="1.2" height="4.2"/>
	</g>
	<g id="POLYLINE_47234_">
		<polyline class="st7" points="75.6,169.5 75.6,170.7 129.2,170.7 129.2,186.1 131.8,186.1 184.2,186.1 		"/>
	</g>
	<g id="POLYLINE_47233_">
		<polyline class="st7" points="130.2,184.9 130.2,169.5 129.2,169.5 		"/>
	</g>
	<g id="POLYLINE_47232_">
		<polyline class="st7" points="76.6,184.9 23,184.9 23,186.1 77,186.1 		"/>
	</g>
	<g id="LINE_6607_">
		<line class="st7" x1="183.8" y1="184.9" x2="132.6" y2="184.9"/>
	</g>
	<g id="POLYLINE_47231_">
		<path class="st7" d="M109,96.7h0.6"/>
	</g>
	<g id="POLYLINE_47230_">
		<line class="st7" x1="109.6" y1="106.9" x2="109" y2="106.9"/>
	</g>
	<g id="POLYLINE_47229_">
		<line class="st7" x1="125.2" y1="96.7" x2="134.6" y2="96.7"/>
	</g>
</g>
<g id="PLAN_x24_CLOISON_1.1">
</g>
<g id="PLAN_x24_STRUCTURE_2.3">
</g>
<g id="PLAN_x24_STRUCTURE_2.2">
</g>
<g id="PLAN_x24_STRUCTURE_2.1">
</g>
<g id="PLAN_x24_STRUCTURE_1.3">
	<g id="POLYLINE_46632_">
		<rect x="239.8" y="86.9" class="st8" width="2.2" height="19.6"/>
	</g>
	<g id="POLYLINE_46631_">
		<rect x="239.8" y="121.3" class="st8" width="2.2" height="14.2"/>
	</g>
	<g id="POLYLINE_46630_">
		<rect x="239.8" y="42.3" class="st8" width="2.2" height="29.8"/>
	</g>
	<g id="POLYLINE_46629_">
		<rect x="177.6" y="9.7" class="st8" width="26" height="2.2"/>
	</g>
	<g id="POLYLINE_46628_">
		<polygon class="st8" points="218.6,12.1 218.6,9.7 238.6,9.7 239.8,9.7 242,9.7 242,27.7 239.8,27.7 239.8,12.1 238.6,12.1 		"/>
	</g>
	<g id="POLYLINE_46627_">
		<rect x="59" y="9.7" class="st8" width="26" height="2.2"/>
	</g>
	<g id="POLYLINE_46626_">
		<rect x="127" y="9.7" class="st8" width="8.6" height="2.2"/>
	</g>
	<g id="POLYLINE_46625_">
		<rect x="20.8" y="174.7" class="st8" width="2.2" height="11.4"/>
	</g>
	<g id="POLYLINE_46624_">
		<rect x="20.8" y="145.3" class="st8" width="2.2" height="13.6"/>
	</g>
	<g id="POLYLINE_46623_">
		<rect x="20.8" y="114.5" class="st8" width="2.2" height="16"/>
	</g>
	<g id="POLYLINE_46622_">
		<rect x="20.8" y="85.1" class="st8" width="2.2" height="14.6"/>
	</g>
	<g id="POLYLINE_46621_">
		<polygon class="st8" points="20.8,70.5 23,70.5 23,12.1 24.2,12.1 44.2,12.1 44.2,9.7 24.2,9.7 23,9.7 20.8,9.7 		"/>
	</g>
	<g id="POLYLINE_46620_">
		<polygon class="st8" points="239.8,168.1 197.4,168.1 197.4,166.3 239.8,166.3 239.8,150.3 242,150.3 242,168.1 		"/>
	</g>
	<g id="CIRCLE_1522_">
		<path class="st8" d="M76.6,68.1c0-0.6,0.6-1.2,1.2-1.2s1.2,0.6,1.2,1.2c0,0.6-0.6,1.2-1.2,1.2S76.6,68.7,76.6,68.1L76.6,68.1z"/>
	</g>
	<g id="CIRCLE_1521_">
		<path class="st8" d="M130.2,68.1c0-0.6,0.6-1.2,1.2-1.2c0.6,0,1.2,0.6,1.2,1.2c0,0.6-0.6,1.2-1.2,1.2
			C130.8,69.3,130.2,68.7,130.2,68.1L130.2,68.1z"/>
	</g>
	<g id="CIRCLE_1520_">
		<path class="st8" d="M183.8,68.1c0-0.6,0.6-1.2,1.2-1.2s1.2,0.6,1.2,1.2c0,0.6-0.6,1.2-1.2,1.2C184.4,69.3,183.8,68.7,183.8,68.1
			L183.8,68.1z"/>
	</g>
	<g id="CIRCLE_1519_">
		<path class="st8" d="M183.8,126.5c0-0.6,0.6-1.2,1.2-1.2s1.2,0.6,1.2,1.2s-0.6,1.2-1.2,1.2C184.4,127.7,183.8,127.1,183.8,126.5
			L183.8,126.5z"/>
	</g>
	<g id="CIRCLE_1518_">
		<path class="st8" d="M130.2,126.5c0-0.6,0.6-1.2,1.2-1.2c0.6,0,1.2,0.6,1.2,1.2s-0.6,1.2-1.2,1.2
			C130.8,127.7,130.2,127.1,130.2,126.5L130.2,126.5z"/>
	</g>
	<g id="CIRCLE_1517_">
		<path class="st8" d="M76.6,126.5c0-0.6,0.6-1.2,1.2-1.2s1.2,0.6,1.2,1.2s-0.6,1.2-1.2,1.2C77.2,127.7,76.6,127.1,76.6,126.5
			L76.6,126.5z"/>
	</g>
	<g id="CIRCLE_1516_">
		<path class="st8" d="M183.8,184.9c0-0.6,0.6-1.2,1.2-1.2s1.2,0.6,1.2,1.2s-0.6,1.2-1.2,1.2C184.4,186.1,183.8,185.5,183.8,184.9
			L183.8,184.9z"/>
	</g>
	<g id="CIRCLE_1515_">
		<path class="st8" d="M130.2,184.9c0-0.6,0.6-1.2,1.2-1.2c0.6,0,1.2,0.6,1.2,1.2s-0.6,1.2-1.2,1.2
			C130.8,186.1,130.2,185.5,130.2,184.9L130.2,184.9z"/>
	</g>
	<g id="CIRCLE_1514_">
		<path class="st8" d="M76.6,184.9c0-0.6,0.6-1.2,1.2-1.2s1.2,0.6,1.2,1.2s-0.6,1.2-1.2,1.2S76.6,185.5,76.6,184.9L76.6,184.9z"/>
	</g>
</g>
<g id="PLAN_x24_STRUCTURE_1.2">
</g>
<g id="PLAN_x24_STRUCTURE_1.1">
</g>
</svg>
