<!-- Generator: Adobe Illustrator 22.0.1, SVG Export Plug-In  -->
<svg version="1.1"
	 xmlns="http://www.w3.org/2000/svg" xmlns:xlink="http://www.w3.org/1999/xlink" xmlns:a="http://ns.adobe.com/AdobeSVGViewerExtensions/3.0/"
	 x="0px" y="0px" width="194.537px" height="91.953px" viewBox="0 0 194.537 91.953"
	 style="enable-background:new 0 0 194.537 91.953;" xml:space="preserve">
<style type="text/css">
	.st0{fill:none;stroke:#000000;stroke-miterlimit:10;}
</style>
<defs>
</defs>
<g>
	<path class="st0" d="M0.656,13.024L6.805,0.703c2.4-0.199,4.624,0,6.675,0.6s3.479,1.251,4.28,1.95l1.353,1.05
		c2.503,2.602,3.757,6.202,3.757,10.8l-1.5,24c-0.101,5.876-0.101,10.481,0,13.816c0.099,3.335,0.199,5.651,0.3,6.945l0.15,1.791
		c0.499,3.785,1.474,6.698,2.925,8.74c1.448,2.042,2.724,3.11,3.825,3.208l1.8,0.15v1.65c-3.601,0.398-6.651-0.225-9.15-1.875
		c-2.498-1.65-4.099-3.375-4.798-5.175l-1.047-2.7c-1.102-5-1.451-13.95-1.051-26.85l1.481-23.7c0.099-2.254,0-4.202-0.3-5.843
		s-0.651-2.845-1.05-3.614c-0.401-0.769-0.825-1.385-1.275-1.847c-0.45-0.459-0.825-0.743-1.125-0.846h-0.6l-6.45,12.626
		L0.656,13.024z"/>
	<path class="st0" d="M45.973,32.353v-18.6l12.884-13.2C68.105,0.354,74.52,2.48,78.101,6.928
		c3.582,4.451,5.271,11.376,5.072,20.775v48c0,10.5-5.229,15.75-15.685,15.75c-3.645,0-6.731-0.551-9.26-1.65
		c-2.531-1.102-4.353-2.4-5.466-3.9s-1.974-3.026-2.58-4.575c-0.607-1.551-0.91-2.875-0.91-3.975v-1.65h7.5
		c0,4.399,0.894,7.8,2.68,10.2c1.785,2.4,3.571,3.698,5.357,3.9l2.679,0.3c5.456-0.501,8.185-6,8.185-16.5v-14.7
		c0-2.499,0.248-4.35,0.75-5.55l-5.66,6.45c-9.271,0.202-15.72-1.924-19.348-6.375C47.788,48.98,45.973,41.953,45.973,32.353z
		 M53.473,28.453c0,3.202,0.023,5.475,0.075,6.825c0.049,1.35,0.271,3.45,0.67,6.3s0.971,5.077,1.716,6.675
		c0.745,1.601,1.913,3.3,3.504,5.1c1.592,1.8,3.581,3.251,5.968,4.35l10.268-11.85v-20.25c0-2.798-0.124-5.224-0.373-7.275
		c-0.248-2.048-0.742-4.2-1.488-6.45c-0.745-2.25-1.959-4.148-3.646-5.7c-1.688-1.549-3.82-2.724-6.398-3.525l-10.294,11.55V28.453z
		"/>
	<path class="st0" d="M100.343,64.453c-0.251-0.6-0.075-1.898,0.525-3.9c0.6-1.999,1.324-4.125,2.175-6.375
		c0.849-2.25,2.475-5.124,4.875-8.625c2.4-3.499,5.285-7.05,8.66-10.65l12.944-14.7c-0.101-0.098-0.101-0.698-0.002-1.8
		c0.099-1.099,0.025-2.574-0.223-4.425c-0.249-1.849-0.596-3.623-1.041-5.325c-0.447-1.699-1.266-3.225-2.456-4.575
		s-2.627-2.074-4.312-2.175c-0.099,0.101-0.445,0.075-1.041-0.075c-0.595-0.15-1.39,0-2.381,0.45c-0.991,0.45-1.934,1-2.826,1.65
		c-0.894,0.651-1.686,1.852-2.379,3.6c-0.694,1.75-1.041,3.825-1.041,6.225h-7.5c0-0.398,0.023-0.9,0.075-1.5
		c0.052-0.6,0.38-1.699,0.984-3.3c0.604-1.598,1.438-2.974,2.498-4.125c1.06-1.148,2.799-2.175,5.222-3.075
		c2.422-0.9,5.246-1.299,8.476-1.2c5.953,0,10.266,1.776,12.938,5.325c2.672,3.551,3.757,8.325,3.258,14.325l-16.47,19.5
		c-0.909,1.001-2.041,2.302-3.4,3.9c-1.359,1.601-3.249,4.5-5.668,8.7c-2.418,4.2-3.729,7.901-3.933,11.1
		c-0.511,4.102,0.356,7.2,2.602,9.3c0.3-0.398,0.678-0.923,1.132-1.575c0.453-0.649,1.582-1.625,3.39-2.925
		c1.807-1.298,3.764-2.273,5.873-2.925c2.107-0.649,4.868-0.773,8.28-0.375c3.413,0.401,7.02,1.601,10.824,3.6l-4.5,7.05
		c-0.502-0.3-1.13-0.649-1.883-1.05c-0.752-0.398-2.23-1.024-4.438-1.875c-2.208-0.849-4.266-1.399-6.171-1.65
		c-1.908-0.248-3.989-0.049-6.246,0.6c-2.26,0.652-4.09,1.976-5.494,3.975c-0.802,0-1.776-0.099-2.925-0.3
		c-1.151-0.199-2.752-1.125-4.8-2.775c-2.051-1.65-3.226-3.874-3.525-6.675C100.618,65.503,100.592,65.053,100.343,64.453z"/>
	<path class="st0" d="M156.672,46.153v-29.85c0.199-6.3,2.219-10.575,6.059-12.825c3.839-2.25,9.051-3.225,15.637-2.925
		l11.215,11.55l-6.231,1.8l-11.325-10.5c-5.236,1.102-7.854,6.651-7.854,16.65v13.5c0,2.801-0.286,4.451-0.854,4.95l5.836-6.45
		c9.502,0,16.071,2.325,19.709,6.975c3.637,4.65,5.357,11.475,5.158,20.475v18.6l-12.785,13.35c-15.438,0-23.627-5.151-24.564-15.45
		h8.25c0.098,3.199,1.207,6.023,3.32,8.475c2.114,2.449,4.734,4.174,7.856,5.175l10.423-11.85v-14.4
		c-0.101-4.298-0.201-7.425-0.303-9.375c-0.101-1.95-0.504-4.5-1.207-7.65c-0.705-3.15-1.914-5.674-3.625-7.575
		c-1.711-1.898-3.978-3.45-6.795-4.65c-6.445,7.5-9.919,11.5-10.42,12H156.672z"/>
</g>
</svg>