<!-- Generator: Adobe Illustrator 22.0.1, SVG Export Plug-In  -->
<svg version="1.1"
	 xmlns="http://www.w3.org/2000/svg" xmlns:xlink="http://www.w3.org/1999/xlink" xmlns:a="http://ns.adobe.com/AdobeSVGViewerExtensions/3.0/"
	 x="0px" y="0px" width="182.838px" height="107.799px" viewBox="0 0 182.838 107.799"
	 style="enable-background:new 0 0 182.838 107.799;" xml:space="preserve">
<style type="text/css">
	.st0{fill:none;stroke:#000000;stroke-miterlimit:10;}
</style>
<defs>
</defs>
<g>
	<path class="st0" d="M0.656,28.87l6.149-12.321c2.4-0.199,4.624,0,6.675,0.601c2.051,0.6,3.479,1.251,4.28,1.949l1.353,1.051
		c2.503,2.602,3.757,6.201,3.757,10.799l-1.5,24c-0.101,5.877-0.101,10.482,0,13.816c0.099,3.336,0.199,5.651,0.3,6.945l0.15,1.791
		c0.499,3.785,1.474,6.697,2.925,8.739c1.448,2.042,2.724,3.11,3.825,3.208l1.8,0.15v1.65c-3.601,0.398-6.651-0.225-9.15-1.875
		c-2.498-1.65-4.099-3.375-4.798-5.176l-1.047-2.699c-1.102-5-1.451-13.95-1.051-26.85l1.481-23.701c0.099-2.254,0-4.201-0.3-5.842
		s-0.651-2.846-1.05-3.615c-0.401-0.768-0.825-1.385-1.275-1.846c-0.45-0.46-0.825-0.744-1.125-0.847h-0.6l-6.45,12.626L0.656,28.87
		z"/>
	<path class="st0" d="M46.124,14.299l9.149-13.649c4.599-0.199,8.199-0.199,10.801,0c3.998,0.201,7.199,1.326,9.6,3.375
		c2.4,2.051,3.849,3.975,4.35,5.774c0.5,1.8,0.75,3.651,0.75,5.55c0,4.001-1.8,8.65-5.399,13.95c-4.401,6.7-7.05,10.649-7.95,11.851
		l1.05,1.799c4.699,6,8.203,11.902,10.51,17.701c2.306,5.801,3.462,10.049,3.462,12.75l0.129,4.199l-12.301,13.65
		c-4,0.3-7.551-0.023-10.649-0.975c-3.101-0.949-5.201-1.975-6.3-3.076l-1.65-1.5c-2.4-3.098-3.775-6.697-4.125-10.799
		c-0.352-4.1,0.15-8.225,1.5-12.375c1.35-4.148,2.948-7.951,4.8-11.4c1.85-3.45,3.924-6.773,6.226-9.975L46.124,14.299z
		 M52.424,14.749l10.8,20.699c0.601-0.899,1.5-2.273,2.7-4.125c1.2-1.849,2.049-3.173,2.55-3.975
		c0.499-0.799,1.148-1.875,1.95-3.225c0.799-1.35,1.35-2.424,1.65-3.225c0.3-0.8,0.574-1.699,0.824-2.701
		c0.249-0.998,0.375-1.949,0.375-2.85c-0.3-7.699-3.3-11.85-9-12.449c-1.701-0.199-3.101-0.199-4.199,0L52.424,14.749z
		 M53.473,75.198c0.3,3.502,1.399,6.428,3.3,8.775c1.898,2.352,3.699,3.825,5.4,4.426l2.55,1.049l10.351-11.85
		c0-9.3-3.952-19.549-11.851-30.75c-0.101,0.102-0.476,0.626-1.125,1.575c-0.651,0.952-1.15,1.702-1.5,2.25
		c-0.352,0.551-0.876,1.45-1.575,2.7c-0.7,1.252-1.274,2.377-1.725,3.375c-0.45,1-0.951,2.25-1.5,3.75
		c-0.551,1.5-1.001,2.977-1.35,4.425c-0.352,1.45-0.626,3.075-0.825,4.875C53.422,71.599,53.373,73.399,53.473,75.198z"/>
	<path class="st0" d="M96.293,28.399l10.751-11.551c14.885-2.198,22.479,4.001,22.778,18.6l-11.948,27.601
		c-0.099,0.3-0.271,0.75-0.518,1.351c-0.246,0.6-0.715,1.825-1.406,3.674c-0.691,1.852-1.334,3.727-1.925,5.625
		c-0.593,1.901-1.209,4.275-1.852,7.125c-0.642,2.851-1.113,5.625-1.408,8.326c-0.295,2.699-0.443,5.674-0.443,8.924
		c0,3.249,0.249,6.324,0.75,9.226h-9.6c-0.221-0.501-0.41-1.226-0.574-2.175c-0.164-0.951-0.298-3.052-0.396-6.301
		c-0.101-3.25,0.105-6.65,0.619-10.199c0.511-3.549,1.671-8.1,3.479-13.65c1.805-5.55,4.256-11.175,7.352-16.875l10.371-22.199
		c0.099-2.3-0.023-4.625-0.37-6.976c-0.347-2.349-1.261-4.599-2.742-6.75c-1.481-2.149-3.407-3.226-5.777-3.226l-11.14,11.25
		L96.293,28.399z"/>
	<path class="st0" d="M144.973,61.999v-29.85c0.199-6.301,2.218-10.576,6.058-12.826c3.839-2.25,9.051-3.225,15.637-2.924
		l11.215,11.549l-6.231,1.801l-11.325-10.5c-5.236,1.102-7.854,6.651-7.854,16.65v13.5c0,2.801-0.286,4.45-0.854,4.949l5.836-6.449
		c9.502,0,16.071,2.324,19.709,6.975c3.637,4.65,5.357,11.475,5.158,20.475v18.6l-12.785,13.351
		c-15.438,0-23.626-5.151-24.564-15.45h8.25c0.098,3.199,1.207,6.023,3.32,8.475c2.114,2.449,4.734,4.175,7.856,5.176l10.423-11.85
		v-14.4c-0.101-4.299-0.201-7.426-0.303-9.375c-0.101-1.95-0.504-4.5-1.207-7.65c-0.705-3.15-1.914-5.674-3.625-7.574
		c-1.711-1.898-3.978-3.451-6.795-4.65c-6.445,7.5-9.919,11.5-10.42,12H144.973z"/>
</g>
</svg>