<!-- Generator: Adobe Illustrator 22.0.1, SVG Export Plug-In  -->
<svg version="1.1"
	 xmlns="http://www.w3.org/2000/svg" xmlns:xlink="http://www.w3.org/1999/xlink" xmlns:a="http://ns.adobe.com/AdobeSVGViewerExtensions/3.0/"
	 x="0px" y="0px" width="188.373px" height="107.799px" viewBox="0 0 188.373 107.799"
	 style="enable-background:new 0 0 188.373 107.799;" xml:space="preserve">
<style type="text/css">
	.st0{fill:none;stroke:#000000;stroke-miterlimit:10;}
</style>
<defs>
</defs>
<g>
	<path class="st0" d="M0.656,28.87l6.149-12.321c2.4-0.199,4.624,0,6.675,0.601c2.051,0.6,3.479,1.251,4.28,1.95l1.353,1.05
		c2.503,2.602,3.757,6.201,3.757,10.8l-1.5,24c-0.101,5.876-0.101,10.481,0,13.816c0.099,3.335,0.199,5.65,0.3,6.944l0.15,1.791
		c0.499,3.785,1.474,6.698,2.925,8.739c1.448,2.042,2.724,3.11,3.825,3.209l1.8,0.15v1.649c-3.601,0.398-6.651-0.225-9.15-1.875
		c-2.498-1.649-4.099-3.375-4.798-5.175l-1.047-2.7c-1.102-4.999-1.451-13.95-1.051-26.85l1.481-23.7c0.099-2.255,0-4.202-0.3-5.843
		s-0.651-2.846-1.05-3.614c-0.401-0.769-0.825-1.385-1.275-1.847c-0.45-0.46-0.825-0.743-1.125-0.847h-0.6l-6.45,12.626L0.656,28.87
		z"/>
	<path class="st0" d="M46.124,14.299l9.149-13.649c4.599-0.199,8.199-0.199,10.801,0c3.998,0.201,7.199,1.326,9.6,3.375
		c2.4,2.051,3.849,3.975,4.35,5.774c0.5,1.801,0.75,3.652,0.75,5.551c0,4-1.8,8.65-5.399,13.949
		c-4.401,6.701-7.05,10.65-7.95,11.851l1.05,1.8c4.699,6,8.203,11.901,10.51,17.7c2.306,5.801,3.462,10.05,3.462,12.75l0.129,4.2
		L70.273,91.249c-4,0.3-7.551-0.023-10.649-0.975c-3.101-0.949-5.201-1.974-6.3-3.075l-1.65-1.5c-2.4-3.099-3.775-6.698-4.125-10.8
		c-0.352-4.1,0.15-8.225,1.5-12.375c1.35-4.148,2.948-7.95,4.8-11.4c1.85-3.45,3.924-6.773,6.226-9.975L46.124,14.299z
		 M52.424,14.749l10.8,20.7c0.601-0.9,1.5-2.273,2.7-4.125c1.2-1.85,2.049-3.174,2.55-3.975c0.499-0.8,1.148-1.875,1.95-3.226
		c0.799-1.35,1.35-2.423,1.65-3.225c0.3-0.8,0.574-1.699,0.824-2.7c0.249-0.998,0.375-1.95,0.375-2.85
		c-0.3-7.699-3.3-11.851-9-12.45c-1.701-0.199-3.101-0.199-4.199,0L52.424,14.749z M53.473,75.199c0.3,3.502,1.399,6.427,3.3,8.775
		c1.898,2.351,3.699,3.824,5.4,4.425l2.55,1.05L75.074,77.6c0-9.301-3.952-19.55-11.851-30.75c-0.101,0.101-0.476,0.625-1.125,1.574
		c-0.651,0.952-1.15,1.702-1.5,2.25c-0.352,0.551-0.876,1.451-1.575,2.7c-0.7,1.252-1.274,2.377-1.725,3.375
		c-0.45,1.001-0.951,2.25-1.5,3.75c-0.551,1.5-1.001,2.977-1.35,4.425c-0.352,1.451-0.626,3.075-0.825,4.875
		C53.422,71.6,53.373,73.399,53.473,75.199z"/>
	<path class="st0" d="M99.373,61.999v-29.85c0.199-6.3,2.219-10.575,6.059-12.825c3.839-2.25,9.051-3.225,15.637-2.925l11.215,11.55
		l-6.231,1.8l-11.325-10.5c-5.236,1.102-7.854,6.651-7.854,16.65v13.5c0,2.801-0.286,4.45-0.854,4.95l5.836-6.45
		c9.502,0,16.071,2.325,19.709,6.975c3.637,4.65,5.357,11.476,5.158,20.476v18.6l-12.785,13.35
		c-15.438,0-23.627-5.151-24.564-15.449h8.25c0.098,3.199,1.207,6.023,3.32,8.475c2.114,2.449,4.734,4.174,7.856,5.175l10.423-11.85
		v-14.4c-0.101-4.298-0.201-7.425-0.303-9.375c-0.101-1.95-0.504-4.5-1.207-7.649c-0.705-3.15-1.914-5.675-3.625-7.575
		c-1.711-1.898-3.978-3.45-6.795-4.65c-6.445,7.5-9.919,11.501-10.42,12H99.373z"/>
	<path class="st0" d="M153.973,74.6v-43.95l9.75-13.65c15.896-2.1,23.946,2.7,24.15,14.4v46.2l-12.45,13.8
		c-5.801,0.099-10.702-1.224-14.7-3.976C156.722,84.675,154.472,80.4,153.973,74.6z M161.473,75.199c0,3.201,0.799,6.176,2.4,8.925
		c1.598,2.752,3.648,4.575,6.149,5.476l10.351-12v-46.2c-0.102-3.499-1.027-6.474-2.775-8.925c-1.751-2.449-4.575-3.676-8.475-3.676
		l-7.65,11.851V75.199z"/>
</g>
</svg>