<!-- Generator: Adobe Illustrator 22.0.1, SVG Export Plug-In  -->
<svg version="1.1"
	 xmlns="http://www.w3.org/2000/svg" xmlns:xlink="http://www.w3.org/1999/xlink" xmlns:a="http://ns.adobe.com/AdobeSVGViewerExtensions/3.0/"
	 x="0px" y="0px" width="184.937px" height="91.953px" viewBox="0 0 184.937 91.953"
	 style="enable-background:new 0 0 184.937 91.953;" xml:space="preserve">
<style type="text/css">
	.st0{fill:none;stroke:#000000;stroke-miterlimit:10;}
</style>
<defs>
</defs>
<g>
	<path class="st0" d="M0.656,13.024L6.805,0.703c2.4-0.199,4.624,0,6.675,0.601c2.051,0.6,3.479,1.251,4.28,1.949l1.353,1.051
		c2.503,2.602,3.757,6.201,3.757,10.799l-1.5,24c-0.101,5.877-0.101,10.482,0,13.816c0.099,3.336,0.199,5.651,0.3,6.945l0.15,1.791
		c0.499,3.785,1.474,6.697,2.925,8.739c1.448,2.042,2.724,3.11,3.825,3.208l1.8,0.15v1.65c-3.601,0.398-6.651-0.225-9.15-1.875
		c-2.498-1.65-4.099-3.375-4.798-5.176l-1.047-2.699c-1.102-5-1.451-13.95-1.051-26.85l1.481-23.701c0.099-2.254,0-4.201-0.3-5.842
		s-0.651-2.846-1.05-3.615c-0.401-0.768-0.825-1.385-1.275-1.846c-0.45-0.46-0.825-0.744-1.125-0.847h-0.6l-6.45,12.626
		L0.656,13.024z"/>
	<path class="st0" d="M45.973,32.352v-18.6L58.857,0.553c9.248-0.199,15.663,1.926,19.244,6.375
		c3.582,4.45,5.271,11.376,5.072,20.774v48c0,10.5-5.229,15.75-15.685,15.75c-3.645,0-6.731-0.551-9.26-1.649
		c-2.531-1.102-4.353-2.4-5.466-3.9s-1.974-3.025-2.58-4.575c-0.607-1.552-0.91-2.876-0.91-3.976v-1.649h7.5
		c0,4.399,0.894,7.8,2.68,10.2c1.785,2.4,3.571,3.698,5.357,3.9l2.679,0.299c5.456-0.501,8.185-6,8.185-16.5V58.903
		c0-2.498,0.248-4.35,0.75-5.551l-5.66,6.451c-9.271,0.201-15.72-1.925-19.348-6.375C47.788,48.979,45.973,41.953,45.973,32.352z
		 M53.473,28.453c0,3.202,0.023,5.476,0.075,6.825c0.049,1.35,0.271,3.449,0.67,6.3s0.971,5.077,1.716,6.675
		c0.745,1.602,1.913,3.301,3.504,5.1c1.592,1.801,3.581,3.252,5.968,4.351l10.268-11.851v-20.25c0-2.798-0.124-5.224-0.373-7.274
		c-0.248-2.048-0.742-4.2-1.488-6.45c-0.745-2.25-1.959-4.148-3.646-5.699c-1.688-1.55-3.82-2.725-6.398-3.525l-10.294,11.55V28.453
		z"/>
	<path class="st0" d="M98.391,12.553l10.751-11.551c14.885-2.198,22.479,4.001,22.778,18.6l-11.948,27.601
		c-0.099,0.3-0.271,0.75-0.518,1.351c-0.246,0.6-0.715,1.825-1.406,3.674c-0.691,1.852-1.334,3.727-1.925,5.625
		c-0.593,1.901-1.209,4.275-1.852,7.125c-0.642,2.851-1.113,5.625-1.408,8.326c-0.295,2.699-0.443,5.674-0.443,8.924
		c0,3.249,0.249,6.324,0.75,9.226h-9.6c-0.221-0.501-0.41-1.226-0.574-2.175c-0.164-0.951-0.298-3.052-0.396-6.301
		c-0.101-3.25,0.105-6.65,0.619-10.199c0.511-3.549,1.671-8.1,3.479-13.65c1.805-5.55,4.256-11.175,7.352-16.875l10.371-22.199
		c0.099-2.3-0.023-4.625-0.37-6.976c-0.347-2.349-1.261-4.599-2.742-6.75c-1.481-2.149-3.407-3.226-5.777-3.226l-11.14,11.25
		L98.391,12.553z"/>
	<path class="st0" d="M147.072,46.153v-29.85c0.199-6.301,2.219-10.576,6.059-12.826c3.839-2.25,9.051-3.225,15.637-2.924
		l11.215,11.549l-6.231,1.801l-11.325-10.5c-5.236,1.102-7.854,6.651-7.854,16.65v13.5c0,2.801-0.286,4.45-0.854,4.949l5.836-6.449
		c9.502,0,16.071,2.324,19.709,6.975c3.637,4.65,5.357,11.475,5.158,20.475v18.6l-12.785,13.351
		c-15.438,0-23.627-5.151-24.564-15.45h8.25c0.098,3.199,1.207,6.023,3.32,8.475c2.114,2.449,4.734,4.175,7.856,5.176l10.423-11.85
		v-14.4c-0.101-4.299-0.201-7.426-0.303-9.375c-0.101-1.95-0.504-4.5-1.207-7.65c-0.705-3.15-1.914-5.674-3.625-7.574
		c-1.711-1.898-3.978-3.451-6.795-4.65c-6.445,7.5-9.919,11.5-10.42,12H147.072z"/>
</g>
</svg>