<!-- Generator: Adobe Illustrator 22.0.1, SVG Export Plug-In  -->
<svg version="1.1"
	 xmlns="http://www.w3.org/2000/svg" xmlns:xlink="http://www.w3.org/1999/xlink" xmlns:a="http://ns.adobe.com/AdobeSVGViewerExtensions/3.0/"
	 x="0px" y="0px" width="196.038px" height="76.193px" viewBox="0 0 196.038 76.193"
	 style="enable-background:new 0 0 196.038 76.193;" xml:space="preserve">
<style type="text/css">
	.st0{fill:none;stroke:#000000;stroke-miterlimit:10;}
</style>
<defs>
</defs>
<g>
	<path class="st0" d="M0.611,64.415c-0.251-0.6-0.075-1.898,0.525-3.9c0.6-1.999,1.324-4.125,2.175-6.375
		c0.849-2.25,2.475-5.124,4.875-8.625c2.4-3.499,5.285-7.05,8.66-10.65l12.944-14.7c-0.101-0.098-0.101-0.698-0.002-1.8
		c0.099-1.099,0.025-2.574-0.223-4.425c-0.249-1.849-0.596-3.623-1.041-5.325c-0.447-1.699-1.266-3.225-2.456-4.575
		s-2.627-2.074-4.312-2.175c-0.099,0.101-0.445,0.075-1.041-0.075c-0.595-0.15-1.39,0-2.381,0.45c-0.991,0.45-1.934,1-2.826,1.65
		c-0.894,0.651-1.686,1.852-2.379,3.6c-0.694,1.75-1.041,3.825-1.041,6.225h-7.5c0-0.398,0.023-0.9,0.075-1.5
		c0.052-0.6,0.38-1.699,0.984-3.3C6.252,7.316,7.086,5.94,8.146,4.79c1.06-1.148,2.799-2.175,5.222-3.075
		c2.422-0.9,5.246-1.299,8.476-1.2c5.953,0,10.266,1.776,12.937,5.325c2.672,3.551,3.757,8.325,3.258,14.325l-16.47,19.5
		c-0.909,1.001-2.041,2.302-3.4,3.9c-1.359,1.601-3.249,4.5-5.668,8.7c-2.418,4.2-3.729,7.901-3.933,11.1
		c-0.511,4.102,0.356,7.2,2.602,9.3c0.3-0.398,0.678-0.923,1.132-1.575c0.453-0.649,1.582-1.625,3.39-2.925
		c1.807-1.298,3.764-2.273,5.873-2.925c2.107-0.649,4.868-0.773,8.28-0.375c3.413,0.401,7.02,1.601,10.824,3.6l-4.5,7.05
		c-0.502-0.3-1.13-0.649-1.883-1.05c-0.752-0.398-2.23-1.024-4.438-1.875c-2.208-0.849-4.266-1.399-6.171-1.65
		c-1.908-0.248-3.989-0.049-6.246,0.6c-2.26,0.652-4.09,1.976-5.494,3.975c-0.802,0-1.776-0.099-2.925-0.3
		c-1.151-0.199-2.752-1.125-4.8-2.775c-2.051-1.65-3.226-3.874-3.525-6.675C0.885,65.465,0.86,65.015,0.611,64.415z"/>
	<path class="st0" d="M57.538,58.715v-43.95l9.75-13.65c15.896-2.1,23.946,2.7,24.15,14.4v46.2l-12.45,13.8
		c-5.801,0.099-10.702-1.224-14.7-3.975C60.287,68.791,58.037,64.516,57.538,58.715z M65.038,59.314c0,3.202,0.799,6.176,2.4,8.925
		c1.598,2.751,3.648,4.575,6.149,5.475l10.351-12v-46.2c-0.102-3.499-1.027-6.474-2.775-8.925c-1.751-2.449-4.575-3.675-8.475-3.675
		l-7.65,11.85V59.314z"/>
	<path class="st0" d="M109.587,58.715v-43.95l9.75-13.65c15.896-2.1,23.946,2.7,24.15,14.4v46.2l-12.45,13.8
		c-5.801,0.099-10.702-1.224-14.7-3.975C112.336,68.791,110.086,64.516,109.587,58.715z M117.087,59.314
		c0,3.202,0.799,6.176,2.4,8.925c1.598,2.751,3.648,4.575,6.149,5.475l10.351-12v-46.2c-0.102-3.499-1.027-6.474-2.775-8.925
		c-1.751-2.449-4.575-3.675-8.475-3.675l-7.65,11.85V59.314z"/>
	<path class="st0" d="M161.638,58.715v-43.95l9.75-13.65c15.896-2.1,23.946,2.7,24.15,14.4v46.2l-12.45,13.8
		c-5.801,0.099-10.702-1.224-14.7-3.975C164.387,68.791,162.137,64.516,161.638,58.715z M169.138,59.314
		c0,3.202,0.799,6.176,2.4,8.925c1.598,2.751,3.648,4.575,6.149,5.475l10.351-12v-46.2c-0.102-3.499-1.027-6.474-2.775-8.925
		c-1.751-2.449-4.575-3.675-8.475-3.675l-7.65,11.85V59.314z"/>
</g>
</svg>