<!-- Generator: Adobe Illustrator 22.0.1, SVG Export Plug-In  -->
<svg version="1.1"
	 xmlns="http://www.w3.org/2000/svg" xmlns:xlink="http://www.w3.org/1999/xlink" xmlns:a="http://ns.adobe.com/AdobeSVGViewerExtensions/3.0/"
	 x="0px" y="0px" width="188.522px" height="91.913px" viewBox="0 0 188.522 91.913"
	 style="enable-background:new 0 0 188.522 91.913;" xml:space="preserve">
<style type="text/css">
	.st0{fill:none;stroke:#000000;stroke-miterlimit:10;}
</style>
<defs>
</defs>
<g>
	<path class="st0" d="M0.656,12.984L6.805,0.663c2.4-0.199,4.624,0,6.675,0.6s3.479,1.251,4.28,1.95l1.353,1.05
		c2.503,2.602,3.757,6.202,3.757,10.8l-1.5,24c-0.101,5.876-0.101,10.481,0,13.816c0.099,3.335,0.199,5.651,0.3,6.945l0.15,1.791
		c0.499,3.785,1.474,6.698,2.925,8.74c1.448,2.042,2.724,3.11,3.825,3.208l1.8,0.15v1.65c-3.601,0.398-6.651-0.225-9.15-1.875
		c-2.498-1.65-4.099-3.375-4.798-5.175l-1.047-2.7c-1.102-5-1.451-13.95-1.051-26.85l1.481-23.7c0.099-2.254,0-4.202-0.3-5.843
		s-0.651-2.845-1.05-3.614c-0.401-0.769-0.825-1.385-1.275-1.847c-0.45-0.459-0.825-0.743-1.125-0.846h-0.6l-6.45,12.626
		L0.656,12.984z"/>
	<path class="st0" d="M45.973,32.313v-18.6l12.884-13.2C68.105,0.314,74.52,2.44,78.101,6.888
		c3.582,4.451,5.271,11.376,5.072,20.775v48c0,10.5-5.229,15.75-15.685,15.75c-3.645,0-6.731-0.551-9.26-1.65
		c-2.531-1.102-4.353-2.4-5.466-3.9s-1.974-3.026-2.58-4.575c-0.607-1.551-0.91-2.875-0.91-3.975v-1.65h7.5
		c0,4.399,0.894,7.8,2.68,10.2c1.785,2.4,3.571,3.698,5.357,3.9l2.679,0.3c5.456-0.501,8.185-6,8.185-16.5v-14.7
		c0-2.499,0.248-4.35,0.75-5.55l-5.66,6.45c-9.271,0.202-15.72-1.924-19.348-6.375C47.788,48.94,45.973,41.913,45.973,32.313z
		 M53.473,28.413c0,3.202,0.023,5.475,0.075,6.825c0.049,1.35,0.271,3.45,0.67,6.3s0.971,5.077,1.716,6.675
		c0.745,1.601,1.913,3.3,3.504,5.1c1.592,1.8,3.581,3.251,5.968,4.35l10.268-11.85v-20.25c0-2.798-0.124-5.224-0.373-7.275
		c-0.248-2.048-0.742-4.2-1.488-6.45c-0.745-2.25-1.959-4.148-3.646-5.7c-1.688-1.549-3.82-2.724-6.398-3.525l-10.294,11.55V28.413z
		"/>
	<path class="st0" d="M102.071,58.713v-43.95l9.75-13.65c15.896-2.1,23.946,2.7,24.15,14.4v46.2l-12.45,13.8
		c-5.801,0.099-10.702-1.224-14.7-3.975C104.82,68.789,102.57,64.514,102.071,58.713z M109.571,59.313
		c0,3.202,0.799,6.176,2.4,8.925c1.598,2.751,3.648,4.575,6.149,5.475l10.351-12v-46.2c-0.102-3.499-1.027-6.474-2.775-8.925
		c-1.751-2.449-4.575-3.675-8.475-3.675l-7.65,11.85V59.313z"/>
	<path class="st0" d="M154.122,58.713v-43.95l9.75-13.65c15.896-2.1,23.946,2.7,24.15,14.4v46.2l-12.45,13.8
		c-5.801,0.099-10.702-1.224-14.7-3.975C156.871,68.789,154.621,64.514,154.122,58.713z M161.622,59.313
		c0,3.202,0.799,6.176,2.4,8.925c1.598,2.751,3.648,4.575,6.149,5.475l10.351-12v-46.2c-0.102-3.499-1.027-6.474-2.775-8.925
		c-1.751-2.449-4.575-3.675-8.475-3.675l-7.65,11.85V59.313z"/>
</g>
</svg>