<!-- Generator: Adobe Illustrator 22.0.1, SVG Export Plug-In  -->
<svg version="1.1"
	 xmlns="http://www.w3.org/2000/svg" xmlns:xlink="http://www.w3.org/1999/xlink" xmlns:a="http://ns.adobe.com/AdobeSVGViewerExtensions/3.0/"
	 x="0px" y="0px" width="190.472px" height="91.952px" viewBox="0 0 190.472 91.952"
	 style="enable-background:new 0 0 190.472 91.952;" xml:space="preserve">
<style type="text/css">
	.st0{fill:none;stroke:#000000;stroke-miterlimit:10;}
</style>
<defs>
</defs>
<g>
	<path class="st0" d="M0.656,13.024L6.805,0.702c2.4-0.199,4.624,0,6.675,0.601c2.051,0.6,3.479,1.251,4.28,1.95l1.353,1.05
		c2.503,2.602,3.757,6.201,3.757,10.8l-1.5,24c-0.101,5.876-0.101,10.481,0,13.816c0.099,3.335,0.199,5.65,0.3,6.944l0.15,1.791
		c0.499,3.785,1.474,6.698,2.925,8.739c1.448,2.042,2.724,3.11,3.825,3.209l1.8,0.15v1.649c-3.601,0.398-6.651-0.225-9.15-1.875
		c-2.498-1.649-4.099-3.375-4.798-5.175l-1.047-2.7c-1.102-4.999-1.451-13.95-1.051-26.85l1.481-23.7c0.099-2.255,0-4.202-0.3-5.843
		s-0.651-2.846-1.05-3.614c-0.401-0.769-0.825-1.385-1.275-1.847c-0.45-0.46-0.825-0.743-1.125-0.847h-0.6l-6.45,12.626
		L0.656,13.024z"/>
	<path class="st0" d="M45.973,32.353v-18.6l12.884-13.2C68.105,0.354,74.52,2.48,78.101,6.928c3.582,4.45,5.271,11.376,5.072,20.774
		v48c0,10.5-5.229,15.75-15.685,15.75c-3.645,0-6.731-0.551-9.26-1.649c-2.531-1.102-4.353-2.4-5.466-3.9s-1.974-3.025-2.58-4.575
		c-0.607-1.551-0.91-2.875-0.91-3.975v-1.65h7.5c0,4.399,0.894,7.801,2.68,10.2c1.785,2.4,3.571,3.698,5.357,3.9l2.679,0.3
		c5.456-0.502,8.185-6,8.185-16.5v-14.7c0-2.498,0.248-4.35,0.75-5.55l-5.66,6.45c-9.271,0.201-15.72-1.925-19.348-6.375
		C47.788,48.98,45.973,41.952,45.973,32.353z M53.473,28.452c0,3.202,0.023,5.476,0.075,6.825c0.049,1.351,0.271,3.45,0.67,6.3
		c0.398,2.851,0.971,5.077,1.716,6.676c0.745,1.601,1.913,3.3,3.504,5.1c1.592,1.8,3.581,3.251,5.968,4.35l10.268-11.85v-20.25
		c0-2.799-0.124-5.225-0.373-7.275c-0.248-2.048-0.742-4.199-1.488-6.449c-0.745-2.25-1.959-4.148-3.646-5.7
		c-1.688-1.55-3.82-2.724-6.398-3.525l-10.294,11.55V28.452z"/>
	<path class="st0" d="M101.471,46.153v-29.85c0.199-6.3,2.219-10.575,6.059-12.825c3.839-2.25,9.051-3.225,15.637-2.925
		l11.215,11.55l-6.231,1.8l-11.325-10.5c-5.236,1.102-7.854,6.651-7.854,16.65v13.5c0,2.801-0.286,4.45-0.854,4.95l5.836-6.45
		c9.502,0,16.071,2.325,19.709,6.975c3.637,4.65,5.357,11.476,5.158,20.476v18.6l-12.785,13.35
		c-15.438,0-23.627-5.151-24.564-15.449h8.25c0.098,3.199,1.207,6.023,3.32,8.475c2.114,2.449,4.734,4.174,7.856,5.175l10.423-11.85
		v-14.4c-0.101-4.298-0.201-7.425-0.303-9.375c-0.101-1.95-0.504-4.5-1.207-7.649c-0.705-3.15-1.914-5.675-3.625-7.575
		c-1.711-1.898-3.978-3.45-6.795-4.65c-6.445,7.5-9.919,11.501-10.42,12H101.471z"/>
	<path class="st0" d="M156.072,58.753v-43.95l9.75-13.65c15.896-2.1,23.946,2.7,24.15,14.4v46.2l-12.45,13.8
		c-5.801,0.099-10.702-1.224-14.7-3.976C158.821,68.828,156.571,64.554,156.072,58.753z M163.572,59.353
		c0,3.201,0.799,6.176,2.4,8.925c1.598,2.752,3.648,4.575,6.149,5.476l10.351-12v-46.2c-0.102-3.499-1.027-6.474-2.775-8.925
		c-1.751-2.449-4.575-3.676-8.475-3.676l-7.65,11.851V59.353z"/>
</g>
</svg>